<svg width="606" height="606" viewBox="0 0 606 606" fill="none" xmlns="http://www.w3.org/2000/svg">
<path d="M60.1523 278.24H102.063V329.144H112.85V300.323H166.154V345.955H173.208V238.862H219.53V268.265H243.273V304.832H250.46V281.828H292.577V350.475H304.892V294.663H343.409V252.292H369.6V228.16H399.888V335.204H410.069V290.53H459.979V354.475H466.875V302.287H517.488V255.261H545.849V474.269H60.1523V278.24Z" fill="#EBEBEB"/>
<path d="M72.3813 294.373H65.291V284.641H72.3813V294.373Z" fill="white"/>
<path d="M84.6701 294.373H77.5801V284.641H84.6701V294.373Z" fill="white"/>
<path d="M96.9729 294.373H89.8828V284.641H96.9729V294.373Z" fill="white"/>
<path d="M72.3813 309.009H65.291V299.277H72.3813V309.009Z" fill="white"/>
<path d="M84.6701 309.009H77.5801V299.277H84.6701V309.009Z" fill="white"/>
<path d="M96.9729 309.009H89.8828V299.277H96.9729V309.009Z" fill="white"/>
<path d="M72.3813 323.65H65.291V313.918H72.3813V323.65Z" fill="white"/>
<path d="M84.6701 323.65H77.5801V313.918H84.6701V323.65Z" fill="white"/>
<path d="M96.9729 323.65H89.8828V313.918H96.9729V323.65Z" fill="white"/>
<path d="M72.3813 338.306H65.291V328.574H72.3813V338.306Z" fill="white"/>
<path d="M84.6701 338.306H77.5801V328.574H84.6701V338.306Z" fill="white"/>
<path d="M96.9729 338.306H89.8828V328.574H96.9729V338.306Z" fill="white"/>
<path d="M317.895 309.749H310.805V301.629H317.895V309.749Z" fill="white"/>
<path d="M330.186 309.749H323.096V301.629H330.186V309.749Z" fill="white"/>
<path d="M342.487 309.749H335.396V301.629H342.487V309.749Z" fill="white"/>
<path d="M317.895 321.956H310.805V313.836H317.895V321.956Z" fill="white"/>
<path d="M330.186 321.956H323.096V313.836H330.186V321.956Z" fill="white"/>
<path d="M342.487 321.956H335.396V313.836H342.487V321.956Z" fill="white"/>
<path d="M317.895 334.171H310.805V326.051H317.895V334.171Z" fill="white"/>
<path d="M330.186 334.171H323.096V326.051H330.186V334.171Z" fill="white"/>
<path d="M342.487 334.171H335.396V326.051H342.487V334.171Z" fill="white"/>
<path d="M317.895 346.39H310.805V338.27H317.895V346.39Z" fill="white"/>
<path d="M330.186 346.39H323.096V338.27H330.186V346.39Z" fill="white"/>
<path d="M342.487 346.39H335.396V338.27H342.487V346.39Z" fill="white"/>
<path d="M317.895 358.909H310.805V350.789H317.895V358.909Z" fill="white"/>
<path d="M330.186 358.909H323.096V350.789H330.186V358.909Z" fill="white"/>
<path d="M342.487 358.909H335.396V350.789H342.487V358.909Z" fill="white"/>
<path d="M317.895 371.429H310.805V363.309H317.895V371.429Z" fill="white"/>
<path d="M330.186 371.429H323.096V363.309H330.186V371.429Z" fill="white"/>
<path d="M342.487 371.429H335.396V363.309H342.487V371.429Z" fill="white"/>
<path d="M317.895 383.937H310.805V375.816H317.895V383.937Z" fill="white"/>
<path d="M330.186 383.937H323.096V375.816H330.186V383.937Z" fill="white"/>
<path d="M342.487 383.937H335.396V375.816H342.487V383.937Z" fill="white"/>
<path d="M317.895 396.457H310.805V388.336H317.895V396.457Z" fill="white"/>
<path d="M330.186 396.457H323.096V388.336H330.186V396.457Z" fill="white"/>
<path d="M342.487 396.457H335.396V388.336H342.487V396.457Z" fill="white"/>
<path d="M159.731 312.647H118.91V306.562H159.731V312.647Z" fill="white"/>
<path d="M159.731 324.463H118.91V318.379H159.731V324.463Z" fill="white"/>
<path d="M159.731 336.272H118.91V330.188H159.731V336.272Z" fill="white"/>
<path d="M159.731 348.073H118.91V341.988H159.731V348.073Z" fill="white"/>
<path d="M159.731 359.889H118.91V353.805H159.731V359.889Z" fill="white"/>
<path d="M159.731 371.694H118.91V365.609H159.731V371.694Z" fill="white"/>
<path d="M159.731 383.514H118.91V377.43H159.731V383.514Z" fill="white"/>
<path d="M159.731 395.307H118.91V389.223H159.731V395.307Z" fill="white"/>
<path d="M453.652 302.283H416.117V296.199H453.652V302.283Z" fill="white"/>
<path d="M453.652 314.104H416.117V308.02H453.652V314.104Z" fill="white"/>
<path d="M453.652 325.916H416.117V319.832H453.652V325.916Z" fill="white"/>
<path d="M453.652 337.721H416.117V331.637H453.652V337.721Z" fill="white"/>
<path d="M453.652 349.526H416.117V343.441H453.652V349.526Z" fill="white"/>
<path d="M453.652 361.346H416.117V355.262H453.652V361.346Z" fill="white"/>
<path d="M453.652 373.151H416.117V367.066H453.652V373.151Z" fill="white"/>
<path d="M453.652 384.967H416.117V378.883H453.652V384.967Z" fill="white"/>
<path d="M453.652 396.178H416.117V390.094H453.652V396.178Z" fill="white"/>
<path d="M453.652 407.401H416.117V401.316H453.652V407.401Z" fill="white"/>
<path d="M453.652 418.623H416.117V412.539H453.652V418.623Z" fill="white"/>
<path d="M453.652 429.834H416.117V423.75H453.652V429.834Z" fill="white"/>
<path d="M453.652 441.061H416.117V434.977H453.652V441.061Z" fill="white"/>
<path d="M514.324 316.549H474.68V310.465H514.324V316.549Z" fill="white"/>
<path d="M514.324 328.365H474.68V322.281H514.324V328.365Z" fill="white"/>
<path d="M514.324 340.186H474.68V334.102H514.324V340.186Z" fill="white"/>
<path d="M514.324 351.987H474.68V345.902H514.324V351.987Z" fill="white"/>
<path d="M514.324 363.791H474.68V357.707H514.324V363.791Z" fill="white"/>
<path d="M514.324 375.608H474.68V369.523H514.324V375.608Z" fill="white"/>
<path d="M514.324 387.412H474.68V381.328H514.324V387.412Z" fill="white"/>
<path d="M514.324 399.233H474.68V393.148H514.324V399.233Z" fill="white"/>
<path d="M514.324 409.803H474.68V403.719H514.324V409.803Z" fill="white"/>
<path d="M514.324 420.369H474.68V414.285H514.324V420.369Z" fill="white"/>
<path d="M514.324 430.936H474.68V424.852H514.324V430.936Z" fill="white"/>
<path d="M275.391 293.218H262.787V287.34H275.391V293.218Z" fill="white"/>
<path d="M275.391 304.62H262.787V298.742H275.391V304.62Z" fill="white"/>
<path d="M275.391 316.026H262.787V310.148H275.391V316.026Z" fill="white"/>
<path d="M275.391 327.433H262.787V321.555H275.391V327.433Z" fill="white"/>
<path d="M275.391 338.836H262.787V332.957H275.391V338.836Z" fill="white"/>
<path d="M275.391 350.242H262.787V344.363H275.391V350.242Z" fill="white"/>
<path d="M275.391 361.648H262.787V355.77H275.391V361.648Z" fill="white"/>
<path d="M275.391 373.054H262.787V367.176H275.391V373.054Z" fill="white"/>
<path d="M292.54 293.218H279.936V287.34H292.54V293.218Z" fill="white"/>
<path d="M292.54 304.62H279.936V298.742H292.54V304.62Z" fill="white"/>
<path d="M292.54 316.026H279.936V310.148H292.54V316.026Z" fill="white"/>
<path d="M292.54 327.433H279.936V321.555H292.54V327.433Z" fill="white"/>
<path d="M292.54 338.836H279.936V332.957H292.54V338.836Z" fill="white"/>
<path d="M292.54 350.242H279.936V344.363H292.54V350.242Z" fill="white"/>
<path d="M292.54 361.648H279.936V355.77H292.54V361.648Z" fill="white"/>
<path d="M292.54 373.054H279.936V367.176H292.54V373.054Z" fill="white"/>
<path d="M193.377 254.299H180.238V245.027H193.377V254.299Z" fill="white"/>
<path d="M212.948 254.299H199.811V245.027H212.948V254.299Z" fill="white"/>
<path d="M193.377 267.913H180.238V258.641H193.377V267.913Z" fill="white"/>
<path d="M212.948 267.913H199.811V258.641H212.948V267.913Z" fill="white"/>
<path d="M193.377 281.534H180.238V272.262H193.377V281.534Z" fill="white"/>
<path d="M212.948 281.534H199.811V272.262H212.948V281.534Z" fill="white"/>
<path d="M193.377 295.143H180.238V285.871H193.377V295.143Z" fill="white"/>
<path d="M212.948 295.143H199.811V285.871H212.948V295.143Z" fill="white"/>
<path d="M193.377 308.768H180.238V299.496H193.377V308.768Z" fill="white"/>
<path d="M212.948 308.768H199.811V299.496H212.948V308.768Z" fill="white"/>
<path d="M193.377 322.389H180.238V313.117H193.377V322.389Z" fill="white"/>
<path d="M212.948 322.389H199.811V313.117H212.948V322.389Z" fill="white"/>
<path d="M193.377 336.002H180.238V326.73H193.377V336.002Z" fill="white"/>
<path d="M212.948 336.002H199.811V326.73H212.948V336.002Z" fill="white"/>
<path d="M193.377 349.624H180.238V340.352H193.377V349.624Z" fill="white"/>
<path d="M212.948 349.624H199.811V340.352H212.948V349.624Z" fill="white"/>
<path d="M237.226 281.534H224.088V272.262H237.226V281.534Z" fill="white"/>
<path d="M237.226 295.143H224.088V285.871H237.226V295.143Z" fill="white"/>
<path d="M237.226 308.768H224.088V299.496H237.226V308.768Z" fill="white"/>
<path d="M237.226 322.389H224.088V313.117H237.226V322.389Z" fill="white"/>
<path d="M237.226 336.002H224.088V326.73H237.226V336.002Z" fill="white"/>
<path d="M237.226 349.624H224.088V340.352H237.226V349.624Z" fill="white"/>
<path d="M193.377 363.077H180.238V353.805H193.377V363.077Z" fill="white"/>
<path d="M212.948 363.077H199.811V353.805H212.948V363.077Z" fill="white"/>
<path d="M237.226 363.077H224.088V353.805H237.226V363.077Z" fill="white"/>
<path d="M193.377 376.518H180.238V367.246H193.377V376.518Z" fill="white"/>
<path d="M212.948 376.518H199.811V367.246H212.948V376.518Z" fill="white"/>
<path d="M237.226 376.518H224.088V367.246H237.226V376.518Z" fill="white"/>
<path d="M193.377 389.971H180.238V380.699H193.377V389.971Z" fill="white"/>
<path d="M212.948 389.971H199.811V380.699H212.948V389.971Z" fill="white"/>
<path d="M237.226 389.971H224.088V380.699H237.226V389.971Z" fill="white"/>
<path d="M193.377 403.424H180.238V394.152H193.377V403.424Z" fill="white"/>
<path d="M212.948 403.424H199.811V394.152H212.948V403.424Z" fill="white"/>
<path d="M237.226 403.424H224.088V394.152H237.226V403.424Z" fill="white"/>
<path d="M193.377 416.877H180.238V407.605H193.377V416.877Z" fill="white"/>
<path d="M212.948 416.877H199.811V407.605H212.948V416.877Z" fill="white"/>
<path d="M237.226 416.877H224.088V407.605H237.226V416.877Z" fill="white"/>
<path d="M355.844 266.37H348.754V258.25H355.844V266.37Z" fill="white"/>
<path d="M368.133 266.37H361.043V258.25H368.133V266.37Z" fill="white"/>
<path d="M355.844 278.59H348.754V270.469H355.844V278.59Z" fill="white"/>
<path d="M368.133 278.59H361.043V270.469H368.133V278.59Z" fill="white"/>
<path d="M355.844 290.808H348.754V282.688H355.844V290.808Z" fill="white"/>
<path d="M368.133 290.808H361.043V282.688H368.133V290.808Z" fill="white"/>
<path d="M355.844 303.035H348.754V294.914H355.844V303.035Z" fill="white"/>
<path d="M368.133 303.035H361.043V294.914H368.133V303.035Z" fill="white"/>
<path d="M355.844 315.554H348.754V307.434H355.844V315.554Z" fill="white"/>
<path d="M368.133 315.554H361.043V307.434H368.133V315.554Z" fill="white"/>
<path d="M355.844 328.062H348.754V319.941H355.844V328.062Z" fill="white"/>
<path d="M368.133 328.062H361.043V319.941H368.133V328.062Z" fill="white"/>
<path d="M355.844 340.582H348.754V332.461H355.844V340.582Z" fill="white"/>
<path d="M368.133 340.582H361.043V332.461H368.133V340.582Z" fill="white"/>
<path d="M355.844 353.104H348.754V344.984H355.844V353.104Z" fill="white"/>
<path d="M368.133 353.104H361.043V344.984H368.133V353.104Z" fill="white"/>
<path d="M355.844 365.757H348.754V357.637H355.844V365.757Z" fill="white"/>
<path d="M368.133 365.757H361.043V357.637H368.133V365.757Z" fill="white"/>
<path d="M355.844 378.398H348.754V370.277H355.844V378.398Z" fill="white"/>
<path d="M368.133 378.398H361.043V370.277H368.133V378.398Z" fill="white"/>
<path d="M355.844 391.051H348.754V382.93H355.844V391.051Z" fill="white"/>
<path d="M368.133 391.051H361.043V382.93H368.133V391.051Z" fill="white"/>
<path d="M355.844 403.718H348.754V395.598H355.844V403.718Z" fill="white"/>
<path d="M368.133 403.718H361.043V395.598H368.133V403.718Z" fill="white"/>
<path d="M529.026 269.133H521.936V259.57H529.026V269.133Z" fill="white"/>
<path d="M541.304 269.133H534.213V259.57H541.304V269.133Z" fill="white"/>
<path d="M529.026 283.536H521.936V273.973H529.026V283.536Z" fill="white"/>
<path d="M541.304 283.536H534.213V273.973H541.304V283.536Z" fill="white"/>
<path d="M529.026 297.922H521.936V288.359H529.026V297.922Z" fill="white"/>
<path d="M541.304 297.922H534.213V288.359H541.304V297.922Z" fill="white"/>
<path d="M529.026 312.32H521.936V302.758H529.026V312.32Z" fill="white"/>
<path d="M541.304 312.32H534.213V302.758H541.304V312.32Z" fill="white"/>
<path d="M529.026 327.071H521.936V317.508H529.026V327.071Z" fill="white"/>
<path d="M541.304 327.071H534.213V317.508H541.304V327.071Z" fill="white"/>
<path d="M529.026 341.82H521.936V332.258H529.026V341.82Z" fill="white"/>
<path d="M541.304 341.82H534.213V332.258H541.304V341.82Z" fill="white"/>
<path d="M529.026 356.559H521.936V346.996H529.026V356.559Z" fill="white"/>
<path d="M541.304 356.559H534.213V346.996H541.304V356.559Z" fill="white"/>
<path d="M529.026 371.32H521.936V361.758H529.026V371.32Z" fill="white"/>
<path d="M541.304 371.32H534.213V361.758H541.304V371.32Z" fill="white"/>
<path d="M529.026 386.227H521.936V376.664H529.026V386.227Z" fill="white"/>
<path d="M541.304 386.227H534.213V376.664H541.304V386.227Z" fill="white"/>
<path d="M529.026 401.125H521.936V391.562H529.026V401.125Z" fill="white"/>
<path d="M541.304 401.125H534.213V391.562H541.304V401.125Z" fill="white"/>
<path d="M529.026 416.027H521.936V406.465H529.026V416.027Z" fill="white"/>
<path d="M541.304 416.027H534.213V406.465H541.304V416.027Z" fill="white"/>
<path d="M529.026 430.937H521.936V421.375H529.026V430.937Z" fill="white"/>
<path d="M541.304 430.937H534.213V421.375H541.304V430.937Z" fill="white"/>
<path d="M382.143 266.37H375.053V258.25H382.143V266.37Z" fill="white"/>
<path d="M394.434 266.37H387.344V258.25H394.434V266.37Z" fill="white"/>
<path d="M382.143 253.855H375.053V245.734H382.143V253.855Z" fill="white"/>
<path d="M394.434 253.855H387.344V245.734H394.434V253.855Z" fill="white"/>
<path d="M382.143 241.331H375.053V233.211H382.143V241.331Z" fill="white"/>
<path d="M394.434 241.331H387.344V233.211H394.434V241.331Z" fill="white"/>
<path d="M382.143 278.59H375.053V270.469H382.143V278.59Z" fill="white"/>
<path d="M394.434 278.59H387.344V270.469H394.434V278.59Z" fill="white"/>
<path d="M382.143 290.808H375.053V282.688H382.143V290.808Z" fill="white"/>
<path d="M394.434 290.808H387.344V282.688H394.434V290.808Z" fill="white"/>
<path d="M382.143 303.035H375.053V294.914H382.143V303.035Z" fill="white"/>
<path d="M394.434 303.035H387.344V294.914H394.434V303.035Z" fill="white"/>
<path d="M382.143 315.554H375.053V307.434H382.143V315.554Z" fill="white"/>
<path d="M394.434 315.554H387.344V307.434H394.434V315.554Z" fill="white"/>
<path d="M382.143 328.062H375.053V319.941H382.143V328.062Z" fill="white"/>
<path d="M394.434 328.062H387.344V319.941H394.434V328.062Z" fill="white"/>
<path d="M382.143 340.582H375.053V332.461H382.143V340.582Z" fill="white"/>
<path d="M394.434 340.582H387.344V332.461H394.434V340.582Z" fill="white"/>
<path d="M382.143 353.104H375.053V344.984H382.143V353.104Z" fill="white"/>
<path d="M394.434 353.104H387.344V344.984H394.434V353.104Z" fill="white"/>
<path d="M382.143 365.757H375.053V357.637H382.143V365.757Z" fill="white"/>
<path d="M394.434 365.757H387.344V357.637H394.434V365.757Z" fill="white"/>
<path d="M382.143 378.398H375.053V370.277H382.143V378.398Z" fill="white"/>
<path d="M394.434 378.398H387.344V370.277H394.434V378.398Z" fill="white"/>
<path d="M382.143 391.051H375.053V382.93H382.143V391.051Z" fill="white"/>
<path d="M394.434 391.051H387.344V382.93H394.434V391.051Z" fill="white"/>
<path d="M382.143 403.718H375.053V395.598H382.143V403.718Z" fill="white"/>
<path d="M394.434 403.718H387.344V395.598H394.434V403.718Z" fill="white"/>
<path d="M65.3164 210.706H195.812C195.812 210.706 182.868 175.363 162.955 175.363C143.042 175.363 136.812 199.761 136.812 199.761C136.812 199.761 123.371 186.502 112.33 186.502C101.289 186.502 91.7261 204.015 91.7261 204.015C91.7261 204.015 76.1029 194.598 65.3164 210.706Z" fill="#EBEBEB"/>
<path d="M138.35 140.81H199.338C199.338 140.81 185.715 121.066 174.977 121.066C164.238 121.066 161.063 134.228 161.063 134.228C161.063 134.228 153.488 128.084 146.519 129.187C139.55 130.289 138.35 140.81 138.35 140.81Z" fill="#EBEBEB"/>
<path d="M421.896 200.184H540.672C540.672 200.184 524.407 163.824 507.003 161.594C489.599 159.365 481.284 188.574 481.284 188.574C481.284 188.574 470.062 178.235 461.238 178.235C452.414 178.235 445.591 191.858 445.591 191.858C445.591 191.858 427.956 182.525 421.896 200.184Z" fill="#EBEBEB"/>
<path d="M309 110.29H389.247C389.247 110.29 375.466 83.977 360.51 83.6256C345.554 83.2742 337.7 103.539 337.7 103.539C337.7 103.539 314.442 84.8376 309 110.29Z" fill="#EBEBEB"/>
<path d="M254.204 537.257C145.07 537.257 56.5996 531.402 56.5996 524.179C56.5996 516.957 145.07 511.102 254.204 511.102C363.338 511.102 451.809 516.957 451.809 524.179C451.809 531.402 363.338 537.257 254.204 537.257Z" fill="#EBEBEB"/>
<path d="M18.9785 474.266L89.9894 474.557L160.988 474.666L302.998 474.86L445.009 474.666L516.007 474.557L587.019 474.266L516.007 473.963L445.009 473.855L302.998 473.66L160.988 473.855L89.9894 473.963L18.9785 474.266Z" fill="#263238"/>
<path d="M311.859 286.808C291.353 308.14 229.746 403.076 224.947 405.912C224.947 405.912 224.947 468.002 259.259 455.604C293.571 443.206 325.022 331.81 331.736 296.299C335.275 277.549 328.609 269.405 311.859 286.808Z" fill="#D5A09F"/>
<path d="M317.084 360.207L254.205 353.056C254.205 353.056 293.207 301.316 313.363 282.844C334.379 263.598 344.681 266.301 334.937 302.758C325.144 339.433 317.084 360.207 317.084 360.207Z" fill="url(#paint0_linear_2466_25631)"/>
<path d="M320.04 325.954C320.731 327.689 321.172 329.513 321.349 331.372C319.155 328.34 317.789 324.79 317.386 321.07C318.507 322.557 319.402 324.203 320.04 325.954ZM284.722 327.372C286.452 326.679 288.273 326.239 290.127 326.063C287.102 328.259 283.554 329.625 279.838 330.026C281.324 328.902 282.97 328.007 284.722 327.372ZM294.09 351.83C294.831 350.12 295.81 348.525 296.999 347.091C296.721 348.932 296.183 350.724 295.4 352.412C294.683 354.132 293.711 355.734 292.515 357.163C292.787 355.32 293.317 353.525 294.09 351.83ZM330.984 273.05C331.299 272.384 331.614 271.729 331.978 271.075C332.409 271.032 332.844 271.032 333.275 271.075C332.984 271.96 332.657 272.808 332.293 273.656C331.565 275.373 330.589 276.973 329.396 278.407C329.669 276.555 330.204 274.752 330.984 273.05ZM258.518 347.394L259.73 347.879C261.446 348.617 263.05 349.592 264.494 350.776C262.646 350.502 260.846 349.967 259.149 349.188C258.664 348.97 258.191 348.74 257.719 348.485L258.518 347.394ZM306.998 297.448C308.71 298.182 310.309 299.153 311.75 300.332C309.902 300.067 308.101 299.536 306.405 298.756C304.692 298.021 303.092 297.046 301.654 295.86C303.511 296.127 305.319 296.661 307.023 297.448H306.998ZM311.216 297.557C311.288 297.605 311.357 297.658 311.422 297.715H311.205C311.205 297.715 311.24 297.593 311.24 297.557H311.216Z" fill="white"/>
<path d="M314.066 348.9C312.599 348.561 311.06 348.428 309.569 348.222L304.94 347.58C301.825 347.143 298.698 346.755 295.571 346.368C289.316 345.641 283.063 344.877 276.797 344.258C275.076 344.089 273.343 343.919 271.621 343.786C269.9 343.652 267.985 343.652 266.167 343.52C266.059 343.52 266.059 343.677 266.167 343.689C267.707 343.919 269.234 344.271 270.773 344.513C272.312 344.756 273.949 344.974 275.536 345.167C278.651 345.567 281.791 345.931 284.917 346.282C291.074 346.949 297.244 347.652 303.425 348.197L308.587 348.634C310.394 348.792 312.223 349.058 314.041 349.046C314.055 349.041 314.068 349.032 314.077 349.02C314.087 349.009 314.093 348.995 314.096 348.98C314.099 348.965 314.097 348.95 314.092 348.936C314.086 348.922 314.077 348.91 314.066 348.9Z" fill="#263238"/>
<path opacity="0.1" d="M286.576 356.738L317.07 360.204C317.07 360.204 325.13 339.431 334.935 302.756C339.068 287.291 339.589 277.897 337.213 273.668L286.576 356.738Z" fill="black"/>
<path d="M299.643 489.524H395.282C396.07 486.446 396.833 483.464 397.597 480.434C398.47 477.004 399.33 473.66 400.154 470.399C400.336 469.672 400.53 468.944 400.712 468.23C401.342 465.733 401.96 463.309 402.566 460.958C402.93 459.515 403.293 458.097 403.645 456.692C403.996 455.285 404.372 453.855 404.723 452.486C404.82 452.122 404.905 451.758 405.002 451.407L405.293 450.195L405.657 448.777C405.79 448.28 405.911 447.795 406.032 447.31C406.274 446.39 406.505 445.481 406.723 444.596C407.062 443.286 407.39 442.002 407.705 440.754C407.838 440.208 407.984 439.663 408.117 439.129C408.347 438.257 408.566 437.408 408.772 436.572C408.917 436.014 409.05 435.469 409.183 434.936C409.749 432.738 410.274 430.678 410.759 428.755C410.893 428.246 411.014 427.749 411.147 427.264C411.353 426.428 411.559 425.628 411.753 424.84C411.89 424.355 412.012 423.882 412.116 423.422C412.541 421.773 412.929 420.271 413.256 418.949C413.353 418.598 413.438 418.259 413.522 417.932C413.741 417.059 413.947 416.283 414.116 415.592C414.189 415.313 414.25 415.047 414.323 414.804L414.516 414.041C414.516 413.871 414.601 413.702 414.637 413.556L414.807 412.902C414.807 412.797 414.832 412.7 414.88 412.611L415.098 411.75H322.004C322.004 411.75 318.938 422.319 314.03 439.36C313.035 442.826 311.957 446.632 310.805 450.547C307.545 461.915 303.739 475.175 299.643 489.524Z" fill="#37474F"/>
<path d="M379.623 489.528H382.047C385.586 474.879 389.016 460.202 392.337 445.496C393.145 441.917 393.953 438.337 394.761 434.758L394.979 433.752C394.983 433.717 394.975 433.682 394.955 433.653C394.935 433.624 394.905 433.604 394.871 433.595C394.838 433.585 394.802 433.59 394.77 433.605C394.739 433.621 394.714 433.647 394.7 433.679C394.7 433.789 394.639 433.898 394.604 434.006C393.529 437.853 392.458 441.702 391.392 445.557C387.295 460.174 383.372 474.831 379.623 489.528Z" fill="#263238"/>
<path d="M325.021 411.762L329.131 432.366L332.5 449.238L338.232 477.986L338.827 480.932L339.808 485.84L340.571 489.524H395.293C396.069 486.434 396.845 483.464 397.596 480.434C398.469 477.004 399.329 473.66 400.154 470.399C400.336 469.672 400.529 468.944 400.711 468.23C401.342 465.733 401.959 463.309 402.565 460.958C402.929 459.515 403.292 458.097 403.644 456.692C403.996 455.285 404.372 453.855 404.723 452.486C404.82 452.122 404.905 451.758 405.002 451.407L405.292 450.195L405.656 448.777C405.79 448.28 405.911 447.795 406.032 447.31C406.274 446.39 406.504 445.481 406.723 444.596C407.062 443.286 407.389 442.002 407.705 440.754C407.85 440.196 407.983 439.663 408.116 439.129C408.346 438.257 408.565 437.408 408.771 436.572C408.917 436.014 409.049 435.469 409.183 434.936C409.749 432.738 410.274 430.678 410.759 428.755C410.892 428.246 411.013 427.749 411.146 427.264C411.352 426.428 411.558 425.628 411.752 424.84C411.89 424.355 412.011 423.882 412.116 423.422C412.54 421.773 412.928 420.271 413.255 418.949C413.352 418.598 413.437 418.259 413.522 417.932C413.74 417.059 413.947 416.283 414.116 415.592C414.189 415.313 414.25 415.047 414.322 414.804L414.516 414.041C414.516 413.871 414.601 413.702 414.637 413.556L414.806 412.902C414.806 412.797 414.831 412.7 414.88 412.611L415.098 411.75L325.021 411.762Z" fill="#263238"/>
<path d="M325.01 411.728C325.01 412.237 325.398 417.788 326.294 426.272C326.549 428.696 326.852 431.46 327.203 434.368C327.749 438.961 328.415 444.064 329.264 449.385C330.694 458.73 332.561 468.922 334.985 478.885C335.845 482.521 336.791 486.024 337.797 489.502H457.967C456.548 471.189 455.251 454.621 454.221 441.567C452.779 423.194 451.797 411.691 451.797 411.691H342.79L325.01 411.728Z" fill="#37474F"/>
<path d="M325.264 422.768C325.397 427.07 325.579 431.361 325.858 435.639C326.148 440.281 326.573 444.911 327.179 449.541C327.179 449.71 327.179 449.88 327.239 450.049C327.805 454.389 328.456 458.715 329.191 463.03C329.881 467.054 330.403 471.393 332.173 475.15C332.845 476.591 333.801 477.881 334.984 478.944C336.067 479.934 337.392 480.62 338.826 480.931C339.061 480.99 339.3 481.031 339.541 481.053H339.748C339.703 481.078 339.667 481.115 339.643 481.161C339.62 481.205 339.61 481.256 339.614 481.307C339.614 482.749 339.614 484.216 339.783 485.646C339.783 485.706 339.783 485.767 339.783 485.828C339.929 487.04 340.159 488.312 340.389 489.549H342.45V489.476C342.086 488.119 341.783 486.749 341.444 485.379C341.105 484.01 340.62 482.616 340.293 481.198C340.274 481.145 340.241 481.098 340.196 481.065C341.504 481.128 342.8 480.788 343.909 480.092C345.018 479.397 345.888 478.379 346.401 477.174C346.918 475.331 346.952 473.386 346.498 471.526C346.122 469.102 345.759 466.606 345.383 464.145C344.68 459.624 343.771 455.152 342.959 450.655L342.596 448.608C340.984 439.457 339.299 430.306 337.275 421.24C337.202 420.864 337.117 420.489 337.032 420.113C336.948 419.738 336.572 419.931 336.596 420.174C336.657 420.78 336.718 421.386 336.79 422.004C337.145 425.486 337.549 428.953 338.002 432.403C338.584 436.463 338.984 440.548 339.553 444.608C339.748 445.989 339.941 447.371 340.147 448.753C341.081 455.431 342.05 462.085 343.189 468.763C343.722 471.854 345.613 477.393 341.202 478.35C340.183 478.576 339.117 478.443 338.184 477.974C336.219 476.79 334.751 474.934 334.051 472.75C332.96 469.113 332.17 465.391 331.688 461.624C330.961 457.584 330.314 453.508 329.749 449.395C329.021 444.297 328.261 439.202 327.47 434.112C327.074 431.518 326.67 428.924 326.258 426.331L325.676 422.695C325.664 422.44 325.264 422.513 325.264 422.768Z" fill="#263238"/>
<path d="M431.604 454.715C426.599 454.664 421.621 453.992 416.782 452.716C414.551 452.146 412.345 451.431 410.152 450.716C407.979 450.116 405.944 449.095 404.164 447.71C400.795 444.801 399.232 440.232 397.765 436.159C396.173 431.574 394.881 426.89 393.899 422.137C393.899 421.907 393.511 421.991 393.499 422.21C393.382 427.585 394.065 432.948 395.523 438.123C396.735 442.522 398.359 447.419 401.91 450.498C405.461 453.576 410.709 454.885 415.497 455.467C420.864 456.091 426.291 456.018 431.64 455.248C431.712 455.244 431.777 455.211 431.824 455.157C431.87 455.105 431.894 455.035 431.889 454.964C431.884 454.893 431.852 454.827 431.798 454.78C431.745 454.734 431.675 454.711 431.604 454.715Z" fill="#263238"/>
<path d="M439.955 422.285C440.221 429.008 440.505 435.739 440.803 442.477C441.49 458.161 442.246 473.844 443.069 489.527H445.324C444.29 473.811 443.203 458.104 442.064 442.405C441.571 435.69 441.062 428.979 440.537 422.273C440.535 422.196 440.503 422.123 440.447 422.069C440.392 422.016 440.317 421.986 440.24 421.988C440.163 421.99 440.089 422.022 440.036 422.078C439.982 422.134 439.954 422.208 439.955 422.285Z" fill="#263238"/>
<path d="M304.32 461.505L467.346 449.143C467.346 449.143 434.55 319.156 369.792 271.366C353.236 259.162 335.117 266.991 326.96 276.117C306.235 299.363 303.835 460.984 304.32 461.505Z" fill="url(#paint1_linear_2466_25631)"/>
<path d="M362.254 277.282C362.938 279.015 363.379 280.834 363.563 282.688C362.447 281.207 361.549 279.575 360.897 277.84C360.212 276.107 359.772 274.288 359.588 272.434C360.699 273.917 361.597 275.55 362.254 277.282ZM379.949 347.408C380.646 349.14 381.083 350.966 381.246 352.826C379.063 349.79 377.702 346.241 377.295 342.524C378.408 344.017 379.301 345.662 379.949 347.408ZM438.198 377.478C438.887 379.213 439.328 381.038 439.507 382.896C437.314 379.864 435.948 376.314 435.543 372.594C436.647 374.093 437.54 375.737 438.198 377.478ZM391.184 421.777C391.888 423.503 392.33 425.325 392.493 427.182C390.31 424.146 388.949 420.598 388.542 416.88C389.654 418.377 390.544 420.026 391.184 421.777ZM320.04 325.932C320.731 327.666 321.172 329.491 321.349 331.349C319.155 328.318 317.789 324.768 317.386 321.047C318.51 322.542 319.404 324.197 320.04 325.956V325.932ZM349.056 414.105C349.761 415.831 350.205 417.653 350.376 419.51C349.263 418.031 348.368 416.398 347.723 414.662C347.032 412.932 346.592 411.112 346.413 409.257C347.524 410.737 348.414 412.37 349.056 414.105ZM407.801 322.635C408.492 324.366 408.933 326.186 409.11 328.04C406.913 325.012 405.551 321.46 405.159 317.738C406.275 319.232 407.166 320.882 407.801 322.635ZM342.668 299.365C344.396 298.667 346.218 298.225 348.074 298.056C346.592 299.163 344.96 300.053 343.226 300.698C341.494 301.399 339.669 301.84 337.808 302.007C339.292 300.897 340.929 300.007 342.668 299.365ZM324.197 357.795C325.926 357.1 327.747 356.659 329.603 356.486C328.124 357.599 326.491 358.489 324.755 359.128C323.026 359.828 321.205 360.273 319.349 360.45C320.83 359.35 322.464 358.472 324.197 357.844V357.795ZM319.241 427.631C320.971 426.939 322.791 426.499 324.645 426.322C323.168 427.438 321.535 428.332 319.797 428.976C318.067 429.664 316.247 430.105 314.393 430.285C315.879 429.194 317.511 428.317 319.241 427.679V427.631ZM435.29 421.886C437.02 421.193 438.84 420.753 440.694 420.577C437.67 422.773 434.122 424.139 430.405 424.54C431.9 423.442 433.545 422.565 435.29 421.934V421.886ZM393.342 377.042C395.072 376.347 396.892 375.902 398.748 375.721C397.266 376.836 395.634 377.734 393.9 378.387C392.167 379.071 390.347 379.512 388.494 379.696C389.977 378.597 391.61 377.716 393.342 377.078V377.042ZM330.984 273.016C331.154 272.652 331.324 272.301 331.506 271.949C332.099 271.501 332.718 271.065 333.384 270.641C333.084 271.656 332.72 272.652 332.294 273.622C331.565 275.339 330.59 276.939 329.397 278.373C329.673 276.533 330.207 274.743 330.984 273.052V273.016ZM378.629 310.709C379.359 308.994 380.335 307.393 381.525 305.958C380.943 309.655 379.395 313.133 377.04 316.042C377.307 314.196 377.842 312.4 378.629 310.709ZM336.56 454.125C337.291 452.413 338.262 450.813 339.444 449.374C339.176 451.218 338.646 453.014 337.869 454.707C337.178 456.3 336.286 457.799 335.214 459.167H335.021C335.3 457.424 335.818 455.727 336.56 454.125ZM352.037 369.661C352.775 367.948 353.75 366.349 354.934 364.91C354.331 368.598 352.791 372.071 350.461 374.994C350.73 373.15 351.26 371.354 352.037 369.661ZM463.08 434.066C463.153 434.321 463.226 434.575 463.311 434.818C463.153 434.988 463.008 435.17 462.863 435.339C462.911 434.923 462.984 434.51 463.08 434.103V434.066ZM414.601 401.73C415.336 400.021 416.311 398.425 417.497 396.992C416.912 400.683 415.365 404.157 413.013 407.063C413.302 405.23 413.848 403.446 414.636 401.766L414.601 401.73ZM404.202 448.392C404.937 446.679 405.913 445.08 407.098 443.641C406.498 447.337 404.953 450.814 402.614 453.737C402.899 451.903 403.446 450.119 404.238 448.441L404.202 448.392ZM322.67 392.252C324.382 392.991 325.981 393.966 327.422 395.149C325.577 394.877 323.781 394.342 322.089 393.561C320.37 392.83 318.765 391.855 317.325 390.665C319.188 390.942 321.001 391.489 322.706 392.289L322.67 392.252ZM451.263 399.331L451.881 401.003C450.575 400.372 449.352 399.578 448.245 398.639C449.286 398.776 450.31 399.019 451.299 399.367L451.263 399.331ZM368.145 439.715C369.858 440.444 371.458 441.415 372.896 442.599C371.048 442.329 369.249 441.798 367.55 441.023C365.839 440.281 364.239 439.302 362.799 438.115C364.665 438.39 366.479 438.941 368.181 439.751L368.145 439.715ZM442.476 450.525L443.313 450.926L440.465 451.144C439.274 450.543 438.159 449.802 437.144 448.937C439.001 449.221 440.809 449.769 442.512 450.562L442.476 450.525ZM413.922 350.862C415.629 351.609 417.227 352.583 418.673 353.759C414.978 353.163 411.501 351.622 408.576 349.287C410.439 349.56 412.252 350.104 413.958 350.899L413.922 350.862ZM372.132 397.282C373.845 398.022 375.445 399.001 376.883 400.191C373.186 399.598 369.707 398.052 366.787 395.706C368.649 395.985 370.461 396.527 372.168 397.319L372.132 397.282ZM350.316 333.47C352.025 334.213 353.623 335.188 355.067 336.367C351.373 335.781 347.896 334.24 344.983 331.895C346.853 332.169 348.673 332.712 350.389 333.507L350.316 333.47Z" fill="white"/>
<path d="M336.195 303.279C345.6 301.885 355.15 282.906 356.799 269.961C356.908 269.064 342.255 241.103 339.964 235.274C339.492 234.062 306.816 258.738 306.816 258.738C306.816 258.738 315.3 269.549 319.264 279.766C319.542 280.614 327.105 304.612 336.195 303.279Z" fill="#D5A09F"/>
<path d="M306.77 258.737C306.77 258.737 315.254 269.548 319.228 279.753C319.302 279.959 319.786 281.462 320.586 283.608C337.384 275.124 344.232 259.974 346.996 249.975C343.821 243.612 340.863 237.636 339.918 235.273C339.445 234.073 306.77 258.737 306.77 258.737Z" fill="#263238"/>
<path d="M332.414 189.859C341.978 200.924 351.54 240.835 346.074 253.101C338.135 270.869 316.986 281.547 299.872 270.19C283.232 259.173 271.693 206.936 278.566 194.961C288.674 177.315 318.307 173.521 332.414 189.859Z" fill="#D5A09F"/>
<path d="M306.865 222.28C308.077 222.377 309.289 222.28 310.501 222.28C311.787 222.456 313.096 222.2 314.222 221.553C314.536 221.28 314.751 220.912 314.834 220.504C314.918 220.097 314.864 219.673 314.682 219.299C314.209 218.616 313.562 218.07 312.808 217.721C312.054 217.372 311.22 217.23 310.392 217.311C308.692 217.211 307.016 217.747 305.689 218.814C305.409 219.079 305.209 219.418 305.116 219.792C305.023 220.167 305.039 220.56 305.163 220.925C305.287 221.29 305.514 221.613 305.815 221.852C306.117 222.093 306.482 222.241 306.865 222.28Z" fill="#263238"/>
<path d="M307.934 228.134C307.934 228.024 308.176 228.219 308.2 228.34C308.648 231.067 309.63 234.121 312.26 234.533C312.345 234.533 312.369 234.679 312.26 234.69C309.194 234.861 307.934 230.8 307.934 228.134Z" fill="#263238"/>
<path d="M309.798 224.811C314.101 223.599 316.185 232.313 312.222 233.416C308.259 234.518 306.198 225.816 309.798 224.811Z" fill="#263238"/>
<path d="M292.297 231.493C292.297 231.396 292.115 231.675 292.14 231.784C292.867 234.45 293.255 237.638 291.036 239.056C290.964 239.056 291.036 239.238 291.097 239.201C293.969 238.135 293.412 233.917 292.297 231.493Z" fill="#263238"/>
<path d="M289.22 229.263C284.808 229.966 286.542 238.729 290.626 238.075C294.71 237.419 292.916 228.669 289.22 229.263Z" fill="#263238"/>
<path d="M284.747 224.945C285.86 224.428 286.945 223.849 287.995 223.212C289.227 222.756 290.272 221.904 290.964 220.788C291.116 220.398 291.135 219.969 291.016 219.567C290.898 219.166 290.649 218.815 290.31 218.57C288.819 217.6 287.098 218.049 285.571 218.801C284.014 219.509 282.775 220.77 282.092 222.339C281.949 222.708 281.917 223.112 282.001 223.498C282.084 223.886 282.279 224.239 282.561 224.517C282.844 224.794 283.202 224.982 283.59 225.059C283.979 225.135 284.381 225.095 284.747 224.945Z" fill="#263238"/>
<path d="M316.95 251.465C316.465 252.252 316.028 253.27 315.071 253.586C314.061 253.804 313.015 253.804 312.004 253.586C311.984 253.583 311.964 253.588 311.946 253.599C311.929 253.609 311.915 253.625 311.907 253.644C311.898 253.663 311.896 253.683 311.901 253.704C311.906 253.724 311.916 253.742 311.931 253.755C312.442 254.191 313.061 254.481 313.722 254.594C314.383 254.707 315.063 254.639 315.689 254.397C316.205 254.126 316.628 253.706 316.905 253.192C317.181 252.678 317.298 252.093 317.24 251.513C317.24 251.355 317.022 251.343 316.95 251.465Z" fill="#263238"/>
<path d="M312.198 244.082C311.765 245.309 311.085 246.435 310.199 247.388C309.312 248.341 308.24 249.101 307.047 249.621C306.01 250.089 304.913 250.407 303.786 250.566C303.575 250.614 303.36 250.638 303.144 250.639C302.938 250.652 302.731 250.652 302.526 250.639C302.376 250.648 302.227 250.606 302.104 250.521C301.981 250.435 301.891 250.31 301.847 250.166C301.842 250.069 301.842 249.973 301.847 249.876V249.633C301.302 247.573 300.744 244.373 300.744 244.373C300.078 244.931 296.636 247.597 296.429 246.494C294.818 237.404 293.036 227.296 293.351 217.903C293.351 217.836 293.378 217.771 293.426 217.723C293.473 217.676 293.538 217.648 293.606 217.648C293.673 217.648 293.738 217.676 293.785 217.723C293.833 217.771 293.86 217.836 293.86 217.903C295.751 226.581 296.102 235.538 297.872 244.288C299.057 243.315 300.376 242.514 301.786 241.913C302.102 241.913 302.744 248.118 303.071 249.015C303.068 249.047 303.068 249.08 303.071 249.112C306.707 248.724 309.034 247.039 311.858 243.9C312.04 243.695 312.306 243.827 312.198 244.082Z" fill="#263238"/>
<path d="M304.758 249.219C306.252 250.424 308.029 251.226 309.921 251.546C310.956 251.691 312.011 251.508 312.939 251.025C314.95 249.947 314.538 247.959 313.738 246.359C313.303 245.515 312.77 244.727 312.151 244.008C310.306 246.491 307.716 248.317 304.758 249.219Z" fill="#263238"/>
<path d="M309.92 251.55C310.956 251.695 312.011 251.513 312.938 251.029C314.95 249.951 314.538 247.963 313.738 246.363C311.484 247.151 309.581 249.272 309.92 251.55Z" fill="#FF97B8"/>
<path d="M274.906 210.497C291.874 217.599 309.036 197.953 309.036 197.953C310.98 200.934 313.836 203.208 317.177 204.435C320.518 205.663 324.167 205.778 327.579 204.764C327.579 204.764 335.724 229.331 342.366 227.853C352.462 225.695 348.426 190.717 343.857 184.632C339.288 178.548 332.5 173.955 332.5 173.955C332.5 173.955 330.891 172.743 321.362 169.992C311 167 291.062 178.221 291.062 178.221C289.037 175.318 286.36 172.931 283.244 171.252C282.492 170.829 281.662 170.564 280.804 170.471C279.946 170.379 279.079 170.462 278.254 170.714C277.429 170.967 276.664 171.384 276.005 171.942C275.346 172.499 274.807 173.184 274.421 173.955C276.076 175.548 277.349 177.495 278.142 179.651C280.869 186.778 274.845 188.026 273.5 181.324C272.915 178.837 273.242 176.222 274.421 173.955C270.542 170.198 265.391 169.785 262.932 172.743C258.411 178.161 260.786 204.606 274.906 210.497Z" fill="#263238"/>
<path d="M316.524 241.622C318.612 240.953 320.47 239.711 321.886 238.038C323.303 236.364 324.221 234.326 324.536 232.157C324.851 229.986 324.551 227.772 323.669 225.765C322.787 223.757 321.36 222.038 319.548 220.802C317.738 219.566 315.616 218.864 313.425 218.775C311.235 218.686 309.063 219.214 307.158 220.299C305.252 221.384 303.69 222.981 302.648 224.911C301.606 226.84 301.127 229.023 301.266 231.212C301.38 232.989 301.898 234.716 302.78 236.263C303.662 237.809 304.885 239.135 306.356 240.139C307.827 241.142 309.507 241.798 311.269 242.054C313.031 242.312 314.828 242.164 316.524 241.622ZM309.834 220.836C310.62 220.582 311.434 220.423 312.258 220.364C314.841 220.18 317.397 220.99 319.405 222.626C321.412 224.263 322.718 226.604 323.059 229.171C323.399 231.739 322.746 234.339 321.235 236.443C319.723 238.545 317.466 239.992 314.924 240.488C312.382 240.983 309.747 240.491 307.556 239.109C305.365 237.729 303.784 235.564 303.134 233.057C302.485 230.55 302.817 227.89 304.062 225.618C305.307 223.348 307.371 221.637 309.834 220.836Z" fill="url(#paint2_linear_2466_25631)"/>
<path d="M290.698 246.519C294.892 244.943 297.073 239.247 295.546 233.296C294.895 230.449 293.365 227.879 291.171 225.951C290.285 225.058 289.181 224.41 287.97 224.07C286.758 223.731 285.479 223.711 284.258 224.014C283.036 224.317 281.915 224.932 281.002 225.799C280.089 226.665 279.417 227.753 279.051 228.957C278.023 231.691 277.875 234.679 278.626 237.502C280.178 243.756 285.232 247.913 289.898 246.749C290.171 246.697 290.439 246.62 290.698 246.519ZM284.141 225.733L284.711 225.563C285.69 225.366 286.702 225.407 287.662 225.683C288.622 225.959 289.501 226.463 290.225 227.151C292.162 228.869 293.513 231.149 294.092 233.672C295.437 239.101 293.437 244.289 289.595 245.234C285.753 246.18 281.56 242.544 280.215 237.126C279.54 234.625 279.667 231.975 280.578 229.551C280.871 228.7 281.339 227.92 281.954 227.263C282.567 226.605 283.313 226.084 284.141 225.733Z" fill="url(#paint3_linear_2466_25631)"/>
<path d="M301.91 232.472L302.661 231.103C300.637 229.976 296.226 228.812 294.008 232.315L295.341 233.139C297.317 230 301.728 232.364 301.91 232.472Z" fill="url(#paint4_linear_2466_25631)"/>
<path d="M353.637 225.321L354.849 224.351C354.389 223.781 350.305 218.776 346.778 218.897C343.469 219.018 323.277 224.957 322.416 225.26L322.865 226.763C328.658 225.042 344.269 220.545 346.826 220.46C349.178 220.376 352.535 223.939 353.637 225.321Z" fill="url(#paint5_linear_2466_25631)"/>
<path d="M338.039 225.574C338.039 225.574 341.299 209.963 348.038 210.63C354.777 211.296 355.916 231.379 350.522 236.506C349.878 237.211 349.098 237.778 348.229 238.174C347.36 238.569 346.42 238.784 345.466 238.807C344.511 238.83 343.562 238.659 342.675 238.305C341.788 237.952 340.982 237.422 340.305 236.748L338.039 225.574Z" fill="#D5A09F"/>
<path d="M348.219 216.402C348.316 216.342 348.4 216.474 348.327 216.56C344.607 220.292 344.037 225.468 344.219 230.485C344.849 228.256 346.279 226.559 349.188 227.201C349.333 227.201 349.297 227.455 349.188 227.492C348.291 227.575 347.442 227.936 346.76 228.525C346.077 229.114 345.596 229.9 345.383 230.776C345.027 232.238 344.828 233.733 344.788 235.236C344.788 235.734 343.94 235.831 343.892 235.236C343.898 235.197 343.898 235.156 343.892 235.115C341.298 229.516 342.316 219.602 348.219 216.402Z" fill="#263238"/>
<path d="M254.944 335.141C251.878 327.068 180.781 341.685 183.618 354.059C194.029 399.388 223.044 439.893 230.377 449.153C240 461.273 259.15 458.583 266.131 451.238C276.251 440.585 257.974 343.14 254.944 335.141Z" fill="#D5A09F"/>
<path d="M259.95 357.392C261.53 361.736 262.783 366.192 263.695 370.724C264.725 375.208 265.623 379.716 266.35 384.249C267.787 393.419 268.597 402.676 268.774 411.956C268.907 417.143 268.774 422.318 268.774 427.506C268.774 427.627 268.58 427.614 268.58 427.506C268.58 422.912 268.301 418.282 267.925 413.701C267.549 409.12 267.089 404.454 266.495 399.86C265.344 390.83 264.071 381.813 262.435 372.856C261.982 370.344 261.51 367.839 261.017 365.342C260.496 362.748 259.901 360.167 259.562 357.537C259.562 357.343 259.866 357.173 259.95 357.392Z" fill="#263238"/>
<path d="M272.092 207.383C272.561 213.555 273.484 219.684 274.855 225.721C275.086 226.751 275.34 227.805 275.595 228.848C276.613 232.993 277.825 237.162 279.231 241.174C279.554 242.143 279.893 243.1 280.249 244.046C284.551 255.669 290.236 265.668 296.635 269.91C298.26 271 299.985 271.933 301.786 272.698C310.96 267.347 318.621 259.751 324.049 250.623C329.477 241.495 332.493 231.136 332.813 220.521L334.753 219.988C334.45 219.515 334.135 219.03 333.832 218.522C333.529 218.012 333.153 217.37 332.826 216.764C332.34 201.16 326.037 186.302 315.154 175.107C299.92 171.011 281.679 176.865 274.007 190.233C272.141 193.542 271.571 199.771 272.092 207.383Z" fill="#D5A09F"/>
<path d="M304.03 219.165C305.319 219.232 306.608 219.232 307.897 219.165C309.387 219.165 310.575 219.274 311.847 218.389C312.19 218.099 312.425 217.702 312.513 217.262C312.601 216.822 312.537 216.365 312.332 215.965C311.399 214.317 309.581 213.892 307.787 213.856C305.988 213.75 304.212 214.316 302.806 215.444C302.495 215.721 302.27 216.082 302.162 216.484C302.053 216.886 302.065 217.311 302.195 217.707C302.325 218.103 302.568 218.451 302.895 218.71C303.22 218.97 303.616 219.128 304.03 219.165Z" fill="#263238"/>
<path d="M305.156 225.429C305.156 225.32 305.411 225.526 305.435 225.636C305.908 228.532 306.95 231.768 309.738 232.204C309.822 232.204 309.847 232.362 309.738 232.374C306.489 232.495 305.156 228.192 305.156 225.429Z" fill="#263238"/>
<path d="M307.131 221.855C311.689 220.583 313.894 229.794 309.676 230.969C305.458 232.145 303.313 222.921 307.131 221.855Z" fill="#263238"/>
<path d="M288.589 228.922C288.589 228.824 288.395 229.116 288.432 229.237C289.207 232.061 289.644 235.43 287.22 236.994C287.147 236.994 287.22 237.187 287.28 237.151C290.358 235.951 289.777 231.491 288.589 228.922Z" fill="#263238"/>
<path d="M285.328 226.558C280.662 227.31 282.504 236.594 286.831 235.903C291.158 235.212 289.243 225.928 285.328 226.558Z" fill="#263238"/>
<path d="M280.602 221.988C281.814 221.467 282.868 220.776 284.032 220.158C285.331 219.681 286.437 218.791 287.183 217.625C287.342 217.214 287.36 216.761 287.235 216.338C287.11 215.915 286.849 215.545 286.492 215.286C284.904 214.255 283.086 214.728 281.474 215.528C279.84 216.283 278.545 217.618 277.838 219.273C277.7 219.657 277.676 220.072 277.767 220.469C277.858 220.866 278.06 221.23 278.351 221.515C278.641 221.8 279.008 221.997 279.407 222.081C279.806 222.164 280.22 222.133 280.602 221.988Z" fill="#263238"/>
<path d="M314.708 250.082C314.187 250.906 313.726 251.985 312.708 252.324C311.642 252.56 310.538 252.56 309.472 252.324C309.45 252.323 309.43 252.329 309.411 252.34C309.393 252.351 309.378 252.367 309.37 252.387C309.361 252.406 309.357 252.428 309.361 252.449C309.364 252.47 309.373 252.49 309.387 252.506C309.929 252.969 310.585 253.276 311.287 253.396C311.989 253.516 312.711 253.442 313.375 253.185C313.919 252.895 314.365 252.45 314.656 251.906C314.948 251.362 315.072 250.744 315.011 250.131C315.023 249.96 314.793 249.96 314.708 250.082Z" fill="#263238"/>
<path d="M309.664 242.25C309.212 243.553 308.495 244.748 307.558 245.759C306.622 246.771 305.485 247.577 304.222 248.129C303.125 248.624 301.961 248.959 300.768 249.122C300.541 249.174 300.31 249.202 300.077 249.207C299.863 249.221 299.648 249.221 299.435 249.207C299.275 249.218 299.117 249.174 298.985 249.084C298.854 248.994 298.756 248.863 298.707 248.711C298.695 248.614 298.695 248.516 298.707 248.419V248.165C298.125 245.984 297.495 242.59 297.495 242.59C296.792 243.184 293.145 246.008 292.938 244.844C291.23 235.148 289.302 224.495 289.666 214.544C289.666 214.473 289.694 214.406 289.744 214.356C289.794 214.306 289.862 214.277 289.933 214.277C290.003 214.277 290.071 214.306 290.121 214.356C290.171 214.406 290.199 214.473 290.199 214.544C292.211 223.731 292.623 233.221 294.453 242.42C295.751 241.417 297.183 240.601 298.707 239.996C299.034 239.996 299.726 246.566 300.065 247.523C300.06 247.555 300.06 247.588 300.065 247.62C303.858 247.207 306.38 245.438 309.361 242.093C309.507 241.85 309.785 241.984 309.664 242.25Z" fill="#263238"/>
<path d="M301.787 247.707C303.37 248.973 305.253 249.808 307.254 250.131C308.348 250.289 309.465 250.093 310.441 249.574C312.587 248.435 312.138 246.326 311.289 244.641C310.832 243.746 310.27 242.908 309.617 242.145C307.668 244.788 304.924 246.737 301.787 247.707Z" fill="#263238"/>
<path d="M307.265 250.166C308.36 250.323 309.476 250.128 310.453 249.609C312.598 248.47 312.15 246.36 311.302 244.676C308.926 245.512 306.902 247.742 307.265 250.166Z" fill="#FF97B8"/>
<path d="M275.802 209.584C276.444 209.85 275.975 209.39 276.605 209.584C293.961 214.965 310.844 195.598 310.844 195.598C312.894 198.766 315.914 201.186 319.453 202.497C322.992 203.807 326.859 203.939 330.478 202.87C332.361 208.416 334.666 213.809 337.375 219.001C337.049 208.696 334.183 198.629 329.033 189.696C323.883 180.764 316.606 173.24 307.85 167.794C302.322 169.735 301.198 162.975 296.011 165.699C293.862 162.625 286.909 161.482 283 165.699C282.204 165.251 281.908 165.798 281 165.699C280.092 165.6 279.056 166.576 278.183 166.843C277.31 167.109 276.499 167.55 275.801 168.138C275.103 168.728 274.531 169.452 274.12 170.267C275.87 171.967 277.216 174.038 278.059 176.327C280.944 183.866 293.418 172.09 292 165C291.374 162.362 285.5 161.503 278.183 163.503C271.683 167.2 269.558 167.081 267 170.269C262.225 175.868 260.833 203.342 275.802 209.584Z" fill="#263238"/>
<path d="M302.551 218.33C304.568 216.649 307.069 215.655 309.69 215.494C310.478 215.442 311.27 215.471 312.053 215.579C314.017 215.832 315.892 216.554 317.521 217.682C319.149 218.81 320.482 220.312 321.41 222.063C321.677 222.552 321.905 223.063 322.088 223.589C322.509 224.709 322.758 225.886 322.828 227.08C322.997 229.831 322.247 232.559 320.696 234.836C319.144 237.114 316.88 238.811 314.259 239.661C313.275 239.97 312.258 240.161 311.229 240.23H310.453C307.482 240.236 304.607 239.177 302.35 237.244C300.093 235.312 298.603 232.635 298.151 229.698C298.151 229.346 298.066 228.995 298.042 228.632C298.018 228.268 298.042 228.098 298.042 227.844C298.046 226.024 298.452 224.227 299.232 222.582C300.011 220.937 301.145 219.485 302.551 218.33ZM311.132 238.57C313.738 238.403 316.193 237.293 318.039 235.446C319.886 233.599 320.996 231.144 321.162 228.538C321.329 225.932 320.54 223.355 318.944 221.289C317.347 219.222 315.053 217.808 312.489 217.312C311.599 217.139 310.691 217.082 309.786 217.142C308.896 217.2 308.018 217.367 307.169 217.639C306.087 217.986 305.067 218.507 304.15 219.178C302.267 220.542 300.878 222.482 300.192 224.704C299.506 226.926 299.561 229.311 300.349 231.499C301.137 233.687 302.614 235.56 304.559 236.836C306.504 238.111 308.811 238.72 311.132 238.57Z" fill="url(#paint6_linear_2466_25631)"/>
<path d="M274.637 226.246L274.855 225.725C275.597 224.021 276.874 222.604 278.491 221.689C279.014 221.399 279.572 221.178 280.152 221.034C280.996 220.829 281.871 220.779 282.733 220.889C284.49 221.134 286.138 221.889 287.472 223.058C288.474 223.912 289.341 224.914 290.041 226.028C290.576 226.853 291.027 227.731 291.387 228.646C291.634 229.235 291.837 229.843 291.993 230.464C292.037 230.587 292.073 230.712 292.102 230.839C292.82 233.588 292.745 236.483 291.883 239.19C291.525 240.444 290.892 241.602 290.03 242.581C289.169 243.559 288.1 244.335 286.903 244.85C286.648 244.947 286.394 245.02 286.127 245.093C285.123 245.32 284.084 245.345 283.071 245.166C282.057 244.988 281.089 244.608 280.224 244.05C277.138 242.033 274.962 238.887 274.164 235.287C273.373 232.299 273.538 229.136 274.637 226.246ZM275.849 234.888C276.4 237.251 277.576 239.424 279.255 241.178C280.045 242.099 281.064 242.796 282.207 243.2C283.352 243.604 284.582 243.701 285.775 243.48C289.848 242.474 291.969 236.984 290.539 231.239C289.927 228.569 288.5 226.154 286.454 224.331C285.684 223.602 284.751 223.07 283.732 222.776C282.714 222.483 281.639 222.439 280.6 222.647C280.398 222.694 280.2 222.755 280.006 222.828C279.129 223.202 278.339 223.756 277.688 224.453C277.036 225.15 276.538 225.975 276.225 226.876C275.966 227.514 275.771 228.175 275.643 228.852C275.256 230.851 275.309 232.911 275.8 234.888H275.849Z" fill="url(#paint7_linear_2466_25631)"/>
<path d="M298.781 229.964L299.569 228.51C297.424 227.298 292.745 226.086 290.406 229.843L291.812 230.715C293.909 227.346 298.576 229.854 298.781 229.964Z" fill="url(#paint8_linear_2466_25631)"/>
<path d="M320.514 222.326L320.987 223.913L322.09 223.586C324.817 222.786 328.841 221.623 332.852 220.508L334.791 219.974C334.488 219.502 334.174 219.017 333.871 218.508L332.888 218.787C328.04 220.12 323.35 221.489 321.411 222.059L320.514 222.326Z" fill="url(#paint9_linear_2466_25631)"/>
<g opacity="0.3">
<path d="M259.087 289.567C271.162 292.226 283.754 291.245 295.272 286.747C306.79 282.25 316.715 274.438 323.793 264.3C330.871 254.161 334.783 242.151 335.035 229.789C335.286 217.427 331.867 205.268 325.208 194.849C318.55 184.43 308.951 176.221 297.626 171.257C286.302 166.294 273.759 164.801 261.586 166.966C249.412 169.131 238.154 174.857 229.235 183.421C220.316 191.985 214.137 203.001 211.479 215.077C209.713 223.095 209.544 231.381 210.98 239.463C212.417 247.546 215.432 255.266 219.853 262.184C224.274 269.101 230.014 275.079 236.746 279.778C243.477 284.476 251.069 287.802 259.087 289.567Z" fill="white"/>
<path d="M327.359 258.527C319.44 272.983 306.136 283.728 290.338 288.428C274.539 293.129 257.525 291.403 242.992 283.628L327.359 258.527Z" fill="#EBEBEB"/>
<path d="M325.565 195.465L210.013 229.85C209.912 224.885 210.401 219.925 211.468 215.076C212.676 209.512 214.654 204.143 217.346 199.125L302.646 173.734C312.019 178.899 319.909 186.381 325.565 195.465Z" fill="#EBEBEB"/>
<path d="M334.583 235.813L224.521 268.537C221.899 265.387 219.589 261.991 217.625 258.393L334.826 223.512C335.163 227.61 335.083 231.732 334.583 235.813Z" fill="#EBEBEB"/>
<path d="M329.563 203.029L210.787 238.382C210.666 237.631 210.557 236.88 210.473 236.128L328.618 200.98C328.946 201.647 329.273 202.325 329.563 203.029Z" fill="#EBEBEB"/>
<path d="M282.867 166.879L230.145 182.561C231.514 181.289 232.956 180.137 234.447 178.925L277.267 166.199C279.144 166.33 281.013 166.557 282.867 166.879Z" fill="#EBEBEB"/>
</g>
<path d="M248.337 356.997L232.287 353.463L247.831 282.883L263.881 286.418L248.337 356.997Z" fill="#EBEBEB"/>
<path d="M204.622 213.551C207.578 200.128 214.448 187.883 224.363 178.363C234.278 168.844 246.793 162.48 260.326 160.073C273.858 157.667 287.801 159.328 300.389 164.846C312.978 170.363 323.648 179.49 331.05 191.071C338.452 202.653 342.253 216.169 341.973 229.911C341.694 243.654 337.345 257.004 329.477 268.274C321.61 279.545 310.578 288.23 297.775 293.23C284.972 298.23 270.973 299.322 257.55 296.367C239.552 292.398 223.867 281.445 213.942 265.916C204.017 250.386 200.664 231.551 204.622 213.551ZM259.065 289.543C271.14 292.206 283.733 291.226 295.252 286.731C306.771 282.235 316.698 274.424 323.777 264.286C330.857 254.149 334.771 242.139 335.025 229.777C335.278 217.414 331.86 205.254 325.202 194.835C318.545 184.415 308.946 176.203 297.621 171.239C286.297 166.275 273.754 164.78 261.58 166.944C249.406 169.108 238.147 174.834 229.227 183.398C220.308 191.962 214.128 202.978 211.47 215.054C209.703 223.07 209.533 231.356 210.969 239.438C212.405 247.519 215.419 255.239 219.838 262.156C224.259 269.074 229.997 275.053 236.728 279.752C243.458 284.451 251.048 287.778 259.065 289.543Z" fill="#455A64"/>
<path d="M241.708 406.659L217.432 401.314L231.2 338.738L255.489 344.083L241.708 406.659Z" fill="#263238"/>
<path d="M231.116 210.475C231.142 210.404 231.162 210.332 231.177 210.258C231.467 209.215 230.861 211.263 231.08 210.585C231.298 209.905 231.613 208.948 231.916 208.161C232.977 205.349 234.274 202.632 235.795 200.04C236.001 199.677 236.231 199.313 236.437 198.949C236.51 198.828 235.904 199.798 236.437 199.034L236.861 198.38C237.419 197.543 237.988 196.719 238.582 195.956C239.895 194.182 241.324 192.498 242.86 190.914L243.976 189.799C244.485 189.301 243.382 190.344 244.085 189.702L244.788 189.059C245.697 188.271 246.63 187.508 247.6 186.781C248.569 186.053 249.721 185.254 250.824 184.563C251.333 184.248 251.842 183.945 252.363 183.654C253.259 183.133 251.975 183.836 252.642 183.496L253.599 183.012C256.494 181.587 259.522 180.45 262.641 179.618H262.798L263.137 179.545L264.531 179.242C265.44 179.06 266.337 178.903 267.258 178.77C269.183 178.494 271.121 178.316 273.064 178.236C273.603 178.175 274.125 178.008 274.601 177.745C275.075 177.481 275.494 177.128 275.832 176.703C276.515 175.845 276.829 174.751 276.705 173.661C276.582 172.571 276.03 171.575 275.172 170.892C274.314 170.209 273.22 169.895 272.13 170.019C259.747 170.402 247.904 175.184 238.728 183.508C232.631 189.218 227.864 196.198 224.766 203.955C224.056 205.686 223.465 207.464 222.996 209.275C222.829 210.358 223.096 211.464 223.741 212.349C224.386 213.235 225.356 213.83 226.438 214.002C227.517 214.147 228.611 213.871 229.492 213.23C230.372 212.588 230.971 211.632 231.164 210.561L231.116 210.475Z" fill="white"/>
<path d="M229.42 222.654C229.297 223.451 228.94 224.193 228.394 224.788C227.849 225.381 227.14 225.8 226.356 225.99C225.573 226.181 224.75 226.134 223.993 225.857C223.236 225.579 222.578 225.083 222.103 224.431C221.628 223.779 221.358 223.001 221.325 222.196C221.294 221.389 221.501 220.593 221.923 219.905C222.344 219.218 222.961 218.67 223.693 218.334C224.426 217.996 225.242 217.885 226.038 218.012C227.101 218.182 228.053 218.766 228.686 219.635C229.32 220.505 229.583 221.59 229.42 222.654Z" fill="white"/>
<path d="M188.393 368.229C188.393 368.229 171.038 339.699 192.647 312.477C201.544 301.279 222.535 281.196 265.125 283.995C275.233 284.662 289.159 292.77 272.264 297.679C260.265 301.169 251.599 299.751 244.981 303.048C244.981 303.048 261.477 315.471 260.41 325.567C259.938 330.075 259.586 339.929 256.98 349.31C256.98 349.31 253.562 351.734 250.787 351.322C250.787 351.322 243.309 372.895 216.415 379.525L188.393 368.229Z" fill="#D5A09F"/>
<path d="M201.773 308.815C208.73 306.039 223.589 300.415 237.345 300.028C252.629 299.603 282.189 302.912 282.371 314.195C282.517 322.474 271.124 322.195 271.124 322.195C271.124 322.195 283.05 326.134 281.535 333.636C280.165 340.472 271.367 339.696 271.367 339.696C271.367 339.696 278.19 343.332 275.596 349.659C272.482 357.27 258.701 348.447 248.932 353.392C246.678 354.555 201.773 308.815 201.773 308.815Z" fill="#D5A09F"/>
<path d="M235.126 316.248C242.095 314.72 258.833 315.302 270.977 321.931C271.256 322.077 271.293 322.368 270.977 322.284C259.308 318.88 247.271 316.902 235.126 316.393C235.018 316.393 235.018 316.332 235.126 316.248Z" fill="#263238"/>
<path d="M235.977 331.66C242.133 330.957 259.356 332.327 271.428 339.465C271.706 339.623 271.718 339.914 271.428 339.817C259.943 335.815 248.042 333.127 235.952 331.805C235.933 331.802 235.916 331.791 235.904 331.776C235.893 331.76 235.889 331.74 235.892 331.721C235.894 331.702 235.905 331.684 235.922 331.673C235.937 331.661 235.957 331.657 235.977 331.66Z" fill="#263238"/>
<path d="M211.167 381.379C217.336 379.915 223.292 377.662 228.886 374.677C234.519 371.628 239.504 367.512 243.563 362.557C244.775 361.042 245.987 359.466 247.042 357.854C248.096 356.242 249.259 354.412 250.507 352.812C250.605 352.691 250.835 352.812 250.762 352.921C249.358 356.285 247.629 359.505 245.599 362.532C243.78 365.364 241.604 367.95 239.127 370.228C234.236 374.58 228.441 377.792 222.159 379.634C218.592 380.627 214.94 381.288 211.251 381.609C211.069 381.658 210.996 381.415 211.167 381.379Z" fill="#263238"/>
<path d="M388.082 290.079C419.303 332.002 471.407 441.264 479.067 457.335C484.266 468.243 427.266 496.967 424.854 489.041C421.751 478.884 370.787 344.813 363.648 295.933C359.745 269.135 377.283 275.571 388.082 290.079Z" fill="#D5A09F"/>
<path d="M423.314 483.587C424.636 493.464 431.35 513.366 436.343 516.407C441.337 519.45 467.577 518.831 480.8 518.831C494.023 518.831 496.556 515.135 496.398 510.59C496.241 506.045 468.437 505.172 468.437 505.172C468.437 505.172 505.5 515.741 514.82 517.523C524.141 519.305 545.605 524.673 548.756 516.953C550.15 513.462 544.272 509.936 544.272 509.936C544.272 509.936 553.277 512.566 554.72 508.094C556.344 502.991 549.181 500.191 549.181 500.191C549.181 500.191 554.816 501.318 554.95 497.161C555.192 487.829 519.947 483.272 519.947 483.272C519.947 483.272 546.927 496.409 547.823 488.823C549.035 478.339 493.72 466.837 487.963 462.268C483.774 458.776 479.856 454.971 476.243 450.887L423.314 483.587Z" fill="#D5A09F"/>
<path d="M496.205 512.843C496.298 512.2 496.237 511.542 496.026 510.928C495.815 510.312 495.461 509.755 494.993 509.304C494.042 508.434 492.953 507.729 491.768 507.22C489.323 506.181 486.788 505.369 484.193 504.796C478.982 503.474 473.637 502.541 468.316 501.16C473.801 501.077 479.274 501.688 484.606 502.978C487.33 503.603 489.953 504.606 492.399 505.959C493.665 506.655 494.775 507.604 495.659 508.746C496.094 509.325 496.372 510.006 496.468 510.724C496.564 511.441 496.473 512.171 496.205 512.843Z" fill="#263238"/>
<path d="M544.187 509.885C540.369 508.952 536.612 507.885 532.867 506.794C529.122 505.703 525.39 504.565 521.656 503.437L510.493 499.946C506.773 498.734 503.052 497.62 499.295 496.492C503.195 496.921 507.062 497.614 510.87 498.565C514.7 499.438 518.457 500.528 522.202 501.667C525.946 502.807 529.656 504.091 533.316 505.449C536.976 506.807 540.672 508.237 544.187 509.885Z" fill="#263238"/>
<path d="M508.287 487.223C511.882 487.448 515.456 487.942 518.977 488.701C522.51 489.404 526.003 490.302 529.436 491.391C532.879 492.459 536.258 493.721 539.557 495.173C542.867 496.588 546.071 498.241 549.144 500.118C545.738 498.906 542.417 497.633 539.035 496.482C535.654 495.33 532.285 494.192 528.879 493.149C525.473 492.107 522.067 491.077 518.638 490.071C515.208 489.065 511.765 488.192 508.287 487.223Z" fill="#263238"/>
<path d="M513.742 478.398C519.532 478.865 525.237 480.087 530.71 482.034C536.236 483.865 541.497 486.416 546.357 489.622C540.879 487.67 535.546 485.61 530.104 483.792C524.662 481.974 519.269 480.18 513.742 478.398Z" fill="#263238"/>
<path d="M374.811 361.938L438.077 360.193C438.077 360.193 403.596 305.314 385.124 285.182C365.842 264.214 355.346 266.021 361.927 303.169C368.557 340.571 374.811 361.938 374.811 361.938Z" fill="url(#paint10_linear_2466_25631)"/>
<path d="M413.958 350.896C415.665 351.642 417.264 352.617 418.709 353.793C415.014 353.196 411.537 351.655 408.613 349.32C410.461 349.585 412.262 350.116 413.958 350.896ZM378.628 310.706C379.359 308.99 380.334 307.39 381.524 305.955C380.942 309.651 379.395 313.13 377.04 316.039C377.306 314.194 377.842 312.397 378.628 310.706ZM407.801 322.632C408.492 324.363 408.933 326.183 409.11 328.038C406.913 325.009 405.551 321.456 405.158 317.736C406.275 319.229 407.165 320.879 407.801 322.632ZM379.925 347.405C380.622 349.138 381.058 350.963 381.221 352.823C379.038 349.787 377.677 346.238 377.271 342.521C378.392 344.013 379.294 345.658 379.949 347.405H379.925ZM361.381 275.352C361.684 275.982 361.963 276.624 362.23 277.279C362.914 279.012 363.354 280.831 363.539 282.684C362.423 281.204 361.525 279.572 360.872 277.836C360.812 277.679 360.763 277.533 360.715 277.376C360.887 276.683 361.118 276.006 361.405 275.352H361.381Z" fill="white"/>
<path d="M378.774 350.934C380.277 350.716 381.816 350.716 383.319 350.643L387.985 350.389C391.12 350.235 394.267 350.11 397.427 350.013C403.729 349.819 410.019 349.601 416.31 349.516C418.043 349.516 419.776 349.516 421.509 349.516C423.242 349.516 425.145 349.698 426.963 349.71C427.072 349.71 427.06 349.88 426.963 349.88C425.411 349.976 423.86 350.207 422.297 350.304C420.734 350.4 419.109 350.497 417.509 350.558C414.358 350.679 411.207 350.789 408.056 350.861C401.862 351.006 395.657 351.177 389.464 351.188H384.203C382.398 351.188 380.567 351.285 378.749 351.127C378.701 351.092 378.677 350.946 378.774 350.934Z" fill="#263238"/>
<path d="M362.545 320.79C362.545 320.669 362.69 320.596 362.751 320.717C363.924 322.879 364.929 325.128 365.757 327.444C365.538 326.341 365.284 325.238 365.078 324.123C364.387 320.56 363.757 316.973 363.054 313.409C363.061 313.388 363.075 313.369 363.094 313.356C363.112 313.343 363.134 313.336 363.157 313.336C363.18 313.336 363.202 313.343 363.22 313.356C363.239 313.369 363.253 313.388 363.26 313.409C364.896 319.542 366.799 325.614 368.253 331.795C369.708 337.977 371.174 344.158 372.531 350.363C373.271 353.793 373.938 358.071 374.689 361.489C376.52 361.707 378.87 361.489 380.846 361.743C381.015 361.743 380.967 362.046 380.846 362.046C378.762 362.107 376.277 362.58 374.083 362.447C373.804 362.447 368.496 340.401 366.29 329.844C364.932 326.838 363.672 323.832 362.545 320.79Z" fill="#263238"/>
<path d="M317.544 286.516C318.428 289.413 319.434 292.273 320.586 295.072C321.547 297.594 322.727 300.028 324.113 302.344C326.73 306.478 330.755 309.895 335.857 309.883C340.705 309.883 345.141 307.071 348.243 303.484C351.637 299.569 353.892 294.661 355.915 289.934C357.127 287.013 358.339 284.031 359.309 281.013C359.806 279.486 360.327 277.959 360.763 276.408C361.2 274.856 361.575 273.293 362.109 271.778C362.109 271.657 362.376 271.669 362.339 271.778C361.443 275.269 358.837 286.322 357.794 289.134C355.879 294.285 353.722 299.605 350.268 303.944C346.995 308.041 342.547 311.144 337.227 311.653C331.906 312.162 327.349 309.362 324.416 305.145C322.691 302.487 321.345 299.603 320.416 296.575C319.289 293.254 318.343 289.849 317.483 286.443C317.434 286.491 317.544 286.48 317.544 286.516Z" fill="#263238"/>
<path d="M118.945 521.764H205.858L209.736 445.359H118.945V521.764Z" fill="#DBDBDB"/>
<path d="M118.946 445.36L87.7246 406.273L62.8789 445.36L66.7573 521.765H118.946V445.36Z" fill="#C7C7C7"/>
<path d="M179.4 393.863H86.6219L53.1582 448.452H63.9329L86.6219 410.661L112.788 452.96H217.396L179.4 393.863Z" fill="#A6A6A6"/>
<path d="M168.65 411.133H188.6L199.241 423.883H176.213L168.65 411.133Z" fill="#C7C7C7"/>
<path d="M183.762 421.703V437.228H194.863V421.703L189.313 414.758L183.762 421.703Z" fill="#DBDBDB"/>
<path d="M183.764 421.691H175.037L183.764 437.23V421.691Z" fill="#C7C7C7"/>
<path d="M186.441 421.945H192.756V432.599H186.441V421.945Z" fill="#FBFAFF"/>
<path d="M189.943 422.684H191.98V426.113H189.943V422.684Z" fill="#EBEBEB"/>
<path d="M187.23 422.684H189.267V426.113H187.23V422.684Z" fill="#EBEBEB"/>
<path d="M189.943 426.734H191.98V431.813H189.943V426.734Z" fill="#EBEBEB"/>
<path d="M187.23 426.734H189.267V431.813H187.23V426.734Z" fill="#EBEBEB"/>
<path d="M119.805 411.133H139.754L149.742 423.883H127.416L119.805 411.133Z" fill="#C7C7C7"/>
<path d="M134.92 421.703V437.228H146.022V421.703L140.471 414.758L134.92 421.703Z" fill="#DBDBDB"/>
<path d="M134.92 421.691H126.182L134.92 437.23V421.691Z" fill="#C7C7C7"/>
<path d="M137.598 421.945H143.912V432.599H137.598V421.945Z" fill="#FBFAFF"/>
<path d="M141.102 422.684H143.138V426.113H141.102V422.684Z" fill="#EBEBEB"/>
<path d="M138.373 422.684H140.41V426.113H138.373V422.684Z" fill="#EBEBEB"/>
<path d="M141.102 426.734H143.138V431.813H141.102V426.734Z" fill="#EBEBEB"/>
<path d="M138.373 426.734H140.41V431.813H138.373V426.734Z" fill="#EBEBEB"/>
<path d="M103.264 391.656H114.365V406.273H103.264V391.656Z" fill="#DBDBDB"/>
<path d="M103.261 391.656H94.5352V394.008L103.261 406.273V391.656Z" fill="#C7C7C7"/>
<path d="M103.262 386.688H115.612V391.657H103.262V386.688Z" fill="#C7C7C7"/>
<path d="M93.5781 386.688H103.262V391.657H93.5781V386.688Z" fill="#A6A6A6"/>
<path d="M182.928 459.215H196.671V482.425H182.928V459.215Z" fill="#FBFAFF"/>
<path d="M190.551 460.828H194.975V468.306H190.551V460.828Z" fill="#EBEBEB"/>
<path d="M184.623 460.828H189.047V468.306H184.623V460.828Z" fill="#EBEBEB"/>
<path d="M190.551 469.648H194.975V480.727H190.551V469.648Z" fill="#EBEBEB"/>
<path d="M184.623 469.648H189.047V480.727H184.623V469.648Z" fill="#EBEBEB"/>
<path d="M131.879 459.215H145.622V482.425H131.879V459.215Z" fill="#FBFAFF"/>
<path d="M139.5 460.828H143.924V468.306H139.5V460.828Z" fill="#EBEBEB"/>
<path d="M133.574 460.828H137.998V468.306H133.574V460.828Z" fill="#EBEBEB"/>
<path d="M139.5 469.648H143.924V480.727H139.5V469.648Z" fill="#EBEBEB"/>
<path d="M133.574 469.648H137.998V480.727H133.574V469.648Z" fill="#EBEBEB"/>
<path d="M182.928 491.465H196.671V514.675H182.928V491.465Z" fill="#FBFAFF"/>
<path d="M190.551 493.078H194.975V500.556H190.551V493.078Z" fill="#EBEBEB"/>
<path d="M184.623 493.078H189.047V500.556H184.623V493.078Z" fill="#EBEBEB"/>
<path d="M190.551 501.902H194.975V512.981H190.551V501.902Z" fill="#EBEBEB"/>
<path d="M184.623 501.902H189.047V512.981H184.623V501.902Z" fill="#EBEBEB"/>
<path d="M131.879 491.465H145.622V514.675H131.879V491.465Z" fill="#FBFAFF"/>
<path d="M139.5 493.078H143.924V500.556H139.5V493.078Z" fill="#EBEBEB"/>
<path d="M133.574 493.078H137.998V500.556H133.574V493.078Z" fill="#EBEBEB"/>
<path d="M139.5 501.902H143.924V512.981H139.5V501.902Z" fill="#EBEBEB"/>
<path d="M133.574 501.902H137.998V512.981H133.574V501.902Z" fill="#EBEBEB"/>
<path d="M157.475 459.215H171.219V482.425H157.475V459.215Z" fill="#FBFAFF"/>
<path d="M165.098 460.828H169.521V468.306H165.098V460.828Z" fill="#EBEBEB"/>
<path d="M159.16 460.828H163.584V468.306H159.16V460.828Z" fill="#EBEBEB"/>
<path d="M165.098 469.648H169.521V480.727H165.098V469.648Z" fill="#EBEBEB"/>
<path d="M159.16 469.648H163.584V480.727H159.16V469.648Z" fill="#EBEBEB"/>
<path d="M157.475 491.625H171.219V514.834H157.475V491.625Z" fill="#FBFAFF"/>
<path d="M165.098 493.223H169.521V500.701H165.098V493.223Z" fill="#EBEBEB"/>
<path d="M159.16 493.223H163.584V500.701H159.16V493.223Z" fill="#EBEBEB"/>
<path d="M165.098 502.059H169.521V513.137H165.098V502.059Z" fill="#EBEBEB"/>
<path d="M159.16 502.059H163.584V513.137H159.16V502.059Z" fill="#EBEBEB"/>
<path d="M94.2436 482.424H80.5V459.215H94.2436V482.424Z" fill="#FBFAFF"/>
<path d="M82.1973 460.828H86.6205V468.306H82.1973V460.828Z" fill="#EBEBEB"/>
<path d="M88.1348 460.828H92.5587V468.306H88.1348V460.828Z" fill="#EBEBEB"/>
<path d="M82.1973 469.648H86.6205V480.727H82.1973V469.648Z" fill="#EBEBEB"/>
<path d="M88.1348 469.648H92.5587V480.727H88.1348V469.648Z" fill="#EBEBEB"/>
<path d="M94.2436 446.549H80.5V426.902H94.2436V446.549Z" fill="#FBFAFF"/>
<path d="M82.1973 428.5H86.6205V435.978H82.1973V428.5Z" fill="#EBEBEB"/>
<path d="M88.1348 428.5H92.5587V435.978H88.1348V428.5Z" fill="#EBEBEB"/>
<path d="M82.1973 437.41H86.6205V444.888H82.1973V437.41Z" fill="#EBEBEB"/>
<path d="M88.1348 437.41H92.5587V444.888H88.1348V437.41Z" fill="#EBEBEB"/>
<path d="M96.1999 521.908L79.5349 521.986L79.3926 491.723L96.0576 491.645L96.1999 521.908Z" fill="#FBFAFF"/>
<path d="M89.5427 493.742L89.5639 498.275L85.9764 498.292L85.9551 493.759L89.5427 493.742Z" fill="#EBEBEB"/>
<path d="M94.2321 493.715L94.2534 498.248L90.6658 498.265L90.6445 493.732L94.2321 493.715Z" fill="#EBEBEB"/>
<path d="M91.6251 514.732L84.0501 514.768L84.0449 513.677L91.6199 513.641L91.6251 514.732Z" fill="#EBEBEB"/>
<path d="M87.2985 491.43V495.963H83.7109V491.43H87.2985Z" fill="#EBEBEB"/>
<path d="M89.5544 499.461L89.5757 503.994L85.9881 504.011L85.9668 499.478L89.5544 499.461Z" fill="#EBEBEB"/>
<path d="M94.2809 499.426L94.3022 503.958L90.7146 503.975L90.6934 499.443L94.2809 499.426Z" fill="#EBEBEB"/>
<path d="M84.8552 499.488L84.8764 504.021L81.2896 504.038L81.2676 499.505L84.8552 499.488Z" fill="#EBEBEB"/>
<path d="M89.5798 505.199L89.601 509.732L86.0135 509.749L85.9922 505.216L89.5798 505.199Z" fill="#EBEBEB"/>
<path d="M94.2927 505.176L94.3139 509.708L90.7264 509.725L90.7051 505.193L94.2927 505.176Z" fill="#EBEBEB"/>
<path d="M84.8805 505.223L84.9018 509.755L81.3142 509.772L81.293 505.24L84.8805 505.223Z" fill="#EBEBEB"/>
<path d="M358.145 521.973H435.349L438.803 484.559H358.145V521.973Z" fill="#DBDBDB"/>
<path d="M358.17 484.508L330.44 449.797L308.357 484.508L311.811 521.923H358.17V484.508Z" fill="#C7C7C7"/>
<path d="M412.31 438.816H328.452L297.389 491.308H305.86L329.592 451.797L352.389 491.308H445.301L412.31 438.816Z" fill="#A6A6A6"/>
<path d="M414.795 498.449H427.012V515.902H414.795V498.449Z" fill="#FBFAFF"/>
<path d="M421.582 499.879H425.509V506.521H421.582V499.879Z" fill="#DBDBDB"/>
<path d="M416.309 499.879H420.236V506.521H416.309V499.879Z" fill="#DBDBDB"/>
<path d="M421.582 507.777H425.509V514.419H421.582V507.777Z" fill="#DBDBDB"/>
<path d="M416.309 507.777H420.236V514.419H416.309V507.777Z" fill="#DBDBDB"/>
<path d="M369.926 498.449H382.143V515.902H369.926V498.449Z" fill="#FBFAFF"/>
<path d="M376.713 499.879H380.639V506.521H376.713V499.879Z" fill="#DBDBDB"/>
<path d="M371.441 499.879H375.369V506.521H371.441V499.879Z" fill="#DBDBDB"/>
<path d="M376.713 507.777H380.639V514.419H376.713V507.777Z" fill="#DBDBDB"/>
<path d="M371.441 507.777H375.369V514.419H371.441V507.777Z" fill="#DBDBDB"/>
<path d="M392.289 497.512H405.755V521.97H392.289V497.512Z" fill="#FBFAFF"/>
<path d="M397.572 499.199H400.469V502.859H397.572V499.199Z" fill="#DBDBDB"/>
<path d="M393.766 499.199H396.662V502.859H393.766V499.199Z" fill="#DBDBDB"/>
<path d="M395.961 515.258H402.082V516.143H395.961V515.258Z" fill="#DBDBDB"/>
<path d="M401.379 499.199H404.275V502.859H401.379V499.199Z" fill="#DBDBDB"/>
<path d="M397.572 503.828H400.469V507.488H397.572V503.828Z" fill="#DBDBDB"/>
<path d="M393.766 503.828H396.662V507.488H393.766V503.828Z" fill="#DBDBDB"/>
<path d="M401.379 503.828H404.275V507.488H401.379V503.828Z" fill="#DBDBDB"/>
<path d="M397.572 508.457H400.469V512.117H397.572V508.457Z" fill="#DBDBDB"/>
<path d="M393.766 508.457H396.662V512.117H393.766V508.457Z" fill="#DBDBDB"/>
<path d="M401.379 508.457H404.275V512.117H401.379V508.457Z" fill="#DBDBDB"/>
<path d="M394.566 436.719H404.432V449.699H394.566V436.719Z" fill="#DBDBDB"/>
<path d="M394.567 436.719H386.811V438.803L394.567 449.699V436.719Z" fill="#C7C7C7"/>
<path d="M394.566 432.297H405.535V436.709H394.566V432.297Z" fill="#C7C7C7"/>
<path d="M385.961 432.297H394.567V436.709H385.961V432.297Z" fill="#A6A6A6"/>
<path d="M327.628 521.984H302.588L300.201 496.18H327.628V521.984Z" fill="#C7C7C7"/>
<path d="M327.629 496.181L340.003 490.594L339.725 521.985H327.629V496.181Z" fill="#DBDBDB"/>
<path d="M308.453 502.859H318.985V521.973H308.453V502.859Z" fill="#FBFAFF"/>
<path d="M312.586 504.168H314.852V507.029H312.586V504.168Z" fill="#DBDBDB"/>
<path d="M309.617 504.168H311.883V507.029H309.617V504.168Z" fill="#DBDBDB"/>
<path d="M311.326 515.438H316.113V516.129H311.326V515.438Z" fill="#DBDBDB"/>
<path d="M315.557 504.168H317.823V507.029H315.557V504.168Z" fill="#DBDBDB"/>
<path d="M341.893 489.309H305.509L293.752 498.253H328.682L341.893 489.309Z" fill="#A6A6A6"/>
<path d="M328.682 498.253H341.893V489.309L328.682 498.253Z" fill="#C7C7C7"/>
<path d="M336.499 476.23C336.499 477.465 336.133 478.673 335.446 479.7C334.76 480.726 333.785 481.526 332.643 481.998C331.502 482.47 330.246 482.593 329.035 482.351C327.824 482.11 326.712 481.514 325.84 480.64C324.967 479.766 324.373 478.652 324.134 477.441C323.895 476.229 324.02 474.974 324.494 473.833C324.968 472.693 325.77 471.719 326.799 471.035C327.827 470.35 329.034 469.986 330.27 469.988C331.923 469.992 333.507 470.651 334.675 471.821C335.843 472.991 336.499 474.577 336.499 476.23Z" fill="#FBFAFF"/>
<path d="M335.107 476.231C335.107 477.516 334.596 478.749 333.686 479.658C332.777 480.568 331.544 481.079 330.259 481.079C329.849 481.082 329.441 481.029 329.047 480.921C327.918 480.614 326.937 479.91 326.287 478.938C325.637 477.966 325.36 476.791 325.507 475.631C325.655 474.47 326.217 473.403 327.091 472.624C327.964 471.845 329.088 471.409 330.259 471.395C330.668 471.393 331.075 471.446 331.471 471.552C332.035 471.69 332.566 471.937 333.034 472.279C333.671 472.724 334.191 473.315 334.552 474.003C334.912 474.69 335.103 475.455 335.107 476.231Z" fill="#C7C7C7"/>
<path d="M330.935 481.927H329.59V470.438H330.935V481.927Z" fill="#FBFAFF"/>
<path d="M324.512 476.849V475.504H336.002V476.849H324.512Z" fill="#FBFAFF"/>
<path d="M291.947 521.983H330.962L333.628 493.125H291.947V521.983Z" fill="url(#paint11_linear_2466_25631)"/>
<path opacity="0.2" d="M291.947 521.983H330.962L333.628 493.125H291.947V521.983Z" fill="black"/>
<path d="M291.946 493.129L270.554 466.344L253.525 493.129L256.18 521.986H291.946V493.129Z" fill="url(#paint12_linear_2466_25631)"/>
<path d="M289.365 496.653H342.305L310.102 456.16H270.336L246.436 496.653H252.508L270.336 468.91L289.365 496.653Z" fill="url(#paint13_linear_2466_25631)"/>
<path opacity="0.4" d="M289.365 496.653H342.305L310.102 456.16H270.336L246.436 496.653H252.508L270.336 468.91L289.365 496.653Z" fill="black"/>
<path d="M235.939 420.344H246.969V434.864H235.939V420.344Z" fill="url(#paint14_linear_2466_25631)"/>
<path opacity="0.2" d="M235.939 420.344H246.969V434.864H235.939V420.344Z" fill="black"/>
<path d="M227.262 420.344H235.94V434.864H227.262V420.344Z" fill="url(#paint15_linear_2466_25631)"/>
<path d="M235.939 415.402H248.205V420.335H235.939V415.402Z" fill="url(#paint16_linear_2466_25631)"/>
<path opacity="0.5" d="M235.939 415.402H248.205V420.335H235.939V415.402Z" fill="black"/>
<path d="M226.316 415.402H235.94V420.335H226.316V415.402Z" fill="url(#paint17_linear_2466_25631)"/>
<path opacity="0.4" d="M226.316 415.402H235.94V420.335H226.316V415.402Z" fill="black"/>
<path d="M197.18 521.948H283.535L287.401 480.098H197.18V521.948Z" fill="url(#paint18_linear_2466_25631)"/>
<path opacity="0.2" d="M197.18 521.948H283.535L287.401 480.098H197.18V521.948Z" fill="black"/>
<path d="M197.181 480.095L166.166 441.25L141.465 480.095L145.331 521.946H197.181V480.095Z" fill="url(#paint19_linear_2466_25631)"/>
<path d="M166.539 443.712L141.039 483.15H132.131L165.776 428.926H257.634L304.175 487.647H191.98L166.539 443.712Z" fill="url(#paint20_linear_2466_25631)"/>
<path opacity="0.5" d="M166.539 443.712L141.039 483.15H132.131L165.776 428.926H257.634L304.175 487.647H191.98L166.539 443.712Z" fill="black"/>
<path d="M174.226 485.974H160.566V466.449H174.226V485.974Z" fill="#FBFAFF"/>
<path d="M162.252 468.039H166.651V475.469H162.252V468.039Z" fill="url(#paint21_linear_2466_25631)"/>
<path d="M168.141 468.039H172.54V475.469H168.141V468.039Z" fill="url(#paint22_linear_2466_25631)"/>
<path d="M162.252 476.887H166.651V484.316H162.252V476.887Z" fill="url(#paint23_linear_2466_25631)"/>
<path d="M168.141 476.887H172.54V484.316H168.141V476.887Z" fill="url(#paint24_linear_2466_25631)"/>
<path d="M260.555 495.621H274.214V515.147H260.555V495.621Z" fill="#FBFAFF"/>
<path d="M268.131 497.223H272.531V504.652H268.131V497.223Z" fill="url(#paint25_linear_2466_25631)"/>
<path d="M262.229 497.223H266.628V504.652H262.229V497.223Z" fill="url(#paint26_linear_2466_25631)"/>
<path d="M268.131 506.07H272.531V513.5H268.131V506.07Z" fill="url(#paint27_linear_2466_25631)"/>
<path d="M262.229 506.07H266.628V513.5H262.229V506.07Z" fill="url(#paint28_linear_2466_25631)"/>
<path d="M235.455 495.621H249.114V515.147H235.455V495.621Z" fill="#FBFAFF"/>
<path d="M243.041 497.223H247.44V504.652H243.041V497.223Z" fill="url(#paint29_linear_2466_25631)"/>
<path d="M237.141 497.223H241.54V504.652H237.141V497.223Z" fill="url(#paint30_linear_2466_25631)"/>
<path d="M243.041 506.07H247.44V513.5H243.041V506.07Z" fill="url(#paint31_linear_2466_25631)"/>
<path d="M237.141 506.07H241.54V513.5H237.141V506.07Z" fill="url(#paint32_linear_2466_25631)"/>
<path d="M210.367 495.621H224.026V515.147H210.367V495.621Z" fill="#FBFAFF"/>
<path d="M217.941 497.223H222.341V504.652H217.941V497.223Z" fill="url(#paint33_linear_2466_25631)"/>
<path d="M212.051 497.223H216.451V504.652H212.051V497.223Z" fill="url(#paint34_linear_2466_25631)"/>
<path d="M217.941 506.07H222.341V513.5H217.941V506.07Z" fill="url(#paint35_linear_2466_25631)"/>
<path d="M212.051 506.07H216.451V513.5H212.051V506.07Z" fill="url(#paint36_linear_2466_25631)"/>
<path d="M174.927 521.937H159.861V494.582H174.927V521.937Z" fill="#FBFAFF"/>
<path d="M165.766 496.469H169.014V500.566H165.766V496.469Z" fill="url(#paint37_linear_2466_25631)"/>
<path d="M170.02 496.469H173.267V500.566H170.02V496.469Z" fill="url(#paint38_linear_2466_25631)"/>
<path d="M170.819 515.428H163.971V514.434H170.819V515.428Z" fill="url(#paint39_linear_2466_25631)"/>
<path d="M161.523 496.469H164.772V500.566H161.523V496.469Z" fill="url(#paint40_linear_2466_25631)"/>
<path d="M165.766 501.645H169.014V505.74H165.766V501.645Z" fill="url(#paint41_linear_2466_25631)"/>
<path d="M170.02 501.645H173.267V505.74H170.02V501.645Z" fill="url(#paint42_linear_2466_25631)"/>
<path d="M161.523 501.645H164.772V505.74H161.523V501.645Z" fill="url(#paint43_linear_2466_25631)"/>
<path d="M165.766 506.82H169.014V510.917H165.766V506.82Z" fill="url(#paint44_linear_2466_25631)"/>
<path d="M170.02 506.82H173.267V510.917H170.02V506.82Z" fill="url(#paint45_linear_2466_25631)"/>
<path d="M161.523 506.82H164.772V510.917H161.523V506.82Z" fill="url(#paint46_linear_2466_25631)"/>
<path d="M222.074 442.984H241.903L252.095 455.71H229.649L222.074 442.984Z" fill="url(#paint47_linear_2466_25631)"/>
<path opacity="0.4" d="M222.074 442.984H241.903L252.095 455.71H229.649L222.074 442.984Z" fill="black"/>
<path d="M237.09 453.482V468.911H248.131V453.482L242.605 446.586L237.09 453.482Z" fill="url(#paint48_linear_2466_25631)"/>
<path opacity="0.2" d="M237.09 453.482V468.911H248.131V453.482L242.605 446.586L237.09 453.482Z" fill="black"/>
<path d="M237.092 453.48H228.414L237.092 468.909V453.48Z" fill="url(#paint49_linear_2466_25631)"/>
<path d="M239.77 453.723H246.035V464.303H239.77V453.723Z" fill="#FBFAFF"/>
<path d="M243.236 454.453H245.26V457.859H243.236V454.453Z" fill="url(#paint50_linear_2466_25631)"/>
<path d="M240.533 454.453H242.557V457.859H240.533V454.453Z" fill="url(#paint51_linear_2466_25631)"/>
<path d="M243.236 458.488H245.26V463.542H243.236V458.488Z" fill="url(#paint52_linear_2466_25631)"/>
<path d="M240.533 458.488H242.557V463.542H240.533V458.488Z" fill="url(#paint53_linear_2466_25631)"/>
<path d="M157.116 295.63C162.514 300.221 166.53 306.221 168.715 312.961C170.901 319.701 171.17 326.916 169.493 333.8C167.817 340.684 164.259 346.966 159.218 351.947C154.177 356.926 147.852 360.406 140.948 362L132.464 379.368L124.235 362.121C118.081 360.803 112.353 357.97 107.57 353.88C103.745 350.625 100.598 346.65 98.3101 342.18C96.0218 337.71 94.6367 332.833 94.2331 327.828C93.4181 317.719 96.6527 307.7 103.225 299.976C109.796 292.251 119.167 287.454 129.276 286.639C139.385 285.824 149.404 289.059 157.128 295.63H157.116Z" fill="white"/>
<path d="M157.116 295.633C162.514 300.224 166.536 306.218 168.74 312.952C169.292 314.627 169.737 316.336 170.073 318.066C170.363 319.807 170.545 321.564 170.618 323.327C170.784 326.862 170.453 330.404 169.637 333.847C168.834 337.299 167.558 340.623 165.843 343.725C164.976 345.271 163.999 346.753 162.922 348.161C161.881 349.597 160.73 350.95 159.48 352.209C154.426 357.299 148.049 360.876 141.07 362.535L141.445 362.244L133.058 379.661L132.452 380.933L131.846 379.661L123.557 362.45L124.065 362.85C116.843 361.285 110.22 357.683 104.98 352.472C99.7406 347.261 96.1032 340.658 94.4979 333.445C92.8927 326.231 93.3872 318.708 95.9227 311.767C98.4582 304.825 102.929 298.756 108.806 294.275C113.468 290.781 118.851 288.372 124.562 287.221C130.271 286.066 136.168 286.222 141.808 287.679C147.447 289.136 152.682 291.856 157.116 295.633ZM157.116 295.633C152.712 291.873 147.503 289.174 141.891 287.745C136.279 286.316 130.414 286.195 124.747 287.39C119.081 288.586 113.765 291.066 109.209 294.641C104.652 298.215 100.978 302.788 98.4677 308.007C95.9652 313.166 94.6718 318.829 94.6865 324.563C94.7569 330.27 96.0636 335.894 98.5162 341.046C101.003 346.174 104.621 350.67 109.097 354.197C113.582 357.706 118.796 360.166 124.356 361.395L124.72 361.481L124.865 361.808L133.046 379.079H131.834L140.451 361.772L140.561 361.529H140.815C147.667 360.029 153.963 356.647 158.995 351.76C160.245 350.542 161.4 349.229 162.449 347.834C163.534 346.464 164.518 345.018 165.395 343.507C167.152 340.475 168.473 337.211 169.321 333.811C170.2 330.409 170.576 326.897 170.436 323.388C170.373 321.634 170.208 319.886 169.94 318.152C169.612 316.426 169.178 314.722 168.643 313.049C166.483 306.291 162.493 300.262 157.116 295.633Z" fill="#263238"/>
<path d="M136.216 303.735C136.216 302.112 134.878 300.801 133.221 300.801C131.563 300.801 130.225 302.112 130.225 303.735V306.917C121.724 308.311 115.246 315.557 115.246 324.278C115.246 332.999 121.724 340.244 130.225 341.638V344.82C130.225 346.444 131.563 347.755 133.221 347.755C134.878 347.755 136.216 346.444 136.216 344.82V341.638C139.109 341.161 141.758 340.015 144.005 338.355C145.325 337.382 145.597 335.539 144.605 334.247C143.612 332.953 141.73 332.687 140.411 333.659C139.175 334.567 137.761 335.246 136.216 335.64V312.906C137.752 313.291 139.175 313.97 140.411 314.887C141.73 315.859 143.612 315.602 144.605 314.3C145.597 312.998 145.335 311.164 144.005 310.192C141.758 308.541 139.1 307.385 136.216 306.908V303.735ZM130.225 312.906V335.649C125.057 334.347 121.238 329.753 121.238 324.278C121.238 318.803 125.057 314.208 130.225 312.906Z" fill="url(#paint54_linear_2466_25631)"/>
<defs>
<linearGradient id="paint0_linear_2466_25631" x1="293.763" y1="275.953" x2="344.571" y2="287.31" gradientUnits="userSpaceOnUse">
<stop stop-color="#21A29F"/>
<stop offset="1" stop-color="#1EA9A6" stop-opacity="0.63"/>
</linearGradient>
<linearGradient id="paint1_linear_2466_25631" x1="380.673" y1="275.922" x2="479.901" y2="295.371" gradientUnits="userSpaceOnUse">
<stop stop-color="#21A29F"/>
<stop offset="1" stop-color="#1EA9A6" stop-opacity="0.63"/>
</linearGradient>
<linearGradient id="paint2_linear_2466_25631" x1="312.213" y1="220.056" x2="326.227" y2="223.364" gradientUnits="userSpaceOnUse">
<stop stop-color="#21A29F"/>
<stop offset="1" stop-color="#1EA9A6" stop-opacity="0.63"/>
</linearGradient>
<linearGradient id="paint3_linear_2466_25631" x1="286.531" y1="225.076" x2="297.464" y2="227.07" gradientUnits="userSpaceOnUse">
<stop stop-color="#21A29F"/>
<stop offset="1" stop-color="#1EA9A6" stop-opacity="0.63"/>
</linearGradient>
<linearGradient id="paint4_linear_2466_25631" x1="298.062" y1="230.147" x2="301.923" y2="232.638" gradientUnits="userSpaceOnUse">
<stop stop-color="#21A29F"/>
<stop offset="1" stop-color="#1EA9A6" stop-opacity="0.63"/>
</linearGradient>
<linearGradient id="paint5_linear_2466_25631" x1="337.612" y1="219.328" x2="348.138" y2="229.571" gradientUnits="userSpaceOnUse">
<stop stop-color="#21A29F"/>
<stop offset="1" stop-color="#1EA9A6" stop-opacity="0.63"/>
</linearGradient>
<linearGradient id="paint6_linear_2466_25631" x1="309.66" y1="216.833" x2="324.511" y2="220.347" gradientUnits="userSpaceOnUse">
<stop stop-color="#21A29F"/>
<stop offset="1" stop-color="#1EA9A6" stop-opacity="0.63"/>
</linearGradient>
<linearGradient id="paint7_linear_2466_25631" x1="282.536" y1="222.18" x2="294.103" y2="224.292" gradientUnits="userSpaceOnUse">
<stop stop-color="#21A29F"/>
<stop offset="1" stop-color="#1EA9A6" stop-opacity="0.63"/>
</linearGradient>
<linearGradient id="paint8_linear_2466_25631" x1="294.699" y1="227.5" x2="298.822" y2="230.121" gradientUnits="userSpaceOnUse">
<stop stop-color="#21A29F"/>
<stop offset="1" stop-color="#1EA9A6" stop-opacity="0.63"/>
</linearGradient>
<linearGradient id="paint9_linear_2466_25631" x1="327.203" y1="218.806" x2="333.699" y2="222.856" gradientUnits="userSpaceOnUse">
<stop stop-color="#21A29F"/>
<stop offset="1" stop-color="#1EA9A6" stop-opacity="0.63"/>
</linearGradient>
<linearGradient id="paint10_linear_2466_25631" x1="396.56" y1="276.713" x2="443.936" y2="286.399" gradientUnits="userSpaceOnUse">
<stop stop-color="#21A29F"/>
<stop offset="1" stop-color="#1EA9A6" stop-opacity="0.63"/>
</linearGradient>
<linearGradient id="paint11_linear_2466_25631" x1="311.476" y1="494.715" x2="335.068" y2="502.759" gradientUnits="userSpaceOnUse">
<stop stop-color="#21A29F"/>
<stop offset="1" stop-color="#1EA9A6" stop-opacity="0.63"/>
</linearGradient>
<linearGradient id="paint12_linear_2466_25631" x1="271.527" y1="469.41" x2="295.174" y2="473.265" gradientUnits="userSpaceOnUse">
<stop stop-color="#21A29F"/>
<stop offset="1" stop-color="#1EA9A6" stop-opacity="0.63"/>
</linearGradient>
<linearGradient id="paint13_linear_2466_25631" x1="291.353" y1="458.392" x2="337.509" y2="484.188" gradientUnits="userSpaceOnUse">
<stop stop-color="#21A29F"/>
<stop offset="1" stop-color="#1EA9A6" stop-opacity="0.63"/>
</linearGradient>
<linearGradient id="paint14_linear_2466_25631" x1="241.107" y1="421.144" x2="247.858" y2="422.355" gradientUnits="userSpaceOnUse">
<stop stop-color="#21A29F"/>
<stop offset="1" stop-color="#1EA9A6" stop-opacity="0.63"/>
</linearGradient>
<linearGradient id="paint15_linear_2466_25631" x1="231.328" y1="421.144" x2="236.704" y2="421.902" gradientUnits="userSpaceOnUse">
<stop stop-color="#21A29F"/>
<stop offset="1" stop-color="#1EA9A6" stop-opacity="0.63"/>
</linearGradient>
<linearGradient id="paint16_linear_2466_25631" x1="241.686" y1="415.674" x2="247.45" y2="419.057" gradientUnits="userSpaceOnUse">
<stop stop-color="#21A29F"/>
<stop offset="1" stop-color="#1EA9A6" stop-opacity="0.63"/>
</linearGradient>
<linearGradient id="paint17_linear_2466_25631" x1="230.825" y1="415.674" x2="235.842" y2="417.984" gradientUnits="userSpaceOnUse">
<stop stop-color="#21A29F"/>
<stop offset="1" stop-color="#1EA9A6" stop-opacity="0.63"/>
</linearGradient>
<linearGradient id="paint18_linear_2466_25631" x1="239.451" y1="482.404" x2="284.729" y2="505.446" gradientUnits="userSpaceOnUse">
<stop stop-color="#21A29F"/>
<stop offset="1" stop-color="#1EA9A6" stop-opacity="0.63"/>
</linearGradient>
<linearGradient id="paint19_linear_2466_25631" x1="167.569" y1="445.697" x2="201.862" y2="451.286" gradientUnits="userSpaceOnUse">
<stop stop-color="#21A29F"/>
<stop offset="1" stop-color="#1EA9A6" stop-opacity="0.63"/>
</linearGradient>
<linearGradient id="paint20_linear_2466_25631" x1="212.738" y1="432.162" x2="286.269" y2="483.017" gradientUnits="userSpaceOnUse">
<stop stop-color="#21A29F"/>
<stop offset="1" stop-color="#1EA9A6" stop-opacity="0.63"/>
</linearGradient>
<linearGradient id="paint21_linear_2466_25631" x1="164.313" y1="468.449" x2="167.039" y2="468.83" gradientUnits="userSpaceOnUse">
<stop stop-color="#21A29F"/>
<stop offset="1" stop-color="#1EA9A6" stop-opacity="0.63"/>
</linearGradient>
<linearGradient id="paint22_linear_2466_25631" x1="170.202" y1="468.449" x2="172.929" y2="468.83" gradientUnits="userSpaceOnUse">
<stop stop-color="#21A29F"/>
<stop offset="1" stop-color="#1EA9A6" stop-opacity="0.63"/>
</linearGradient>
<linearGradient id="paint23_linear_2466_25631" x1="164.313" y1="477.296" x2="167.039" y2="477.677" gradientUnits="userSpaceOnUse">
<stop stop-color="#21A29F"/>
<stop offset="1" stop-color="#1EA9A6" stop-opacity="0.63"/>
</linearGradient>
<linearGradient id="paint24_linear_2466_25631" x1="170.202" y1="477.296" x2="172.929" y2="477.677" gradientUnits="userSpaceOnUse">
<stop stop-color="#21A29F"/>
<stop offset="1" stop-color="#1EA9A6" stop-opacity="0.63"/>
</linearGradient>
<linearGradient id="paint25_linear_2466_25631" x1="270.192" y1="497.632" x2="272.919" y2="498.013" gradientUnits="userSpaceOnUse">
<stop stop-color="#21A29F"/>
<stop offset="1" stop-color="#1EA9A6" stop-opacity="0.63"/>
</linearGradient>
<linearGradient id="paint26_linear_2466_25631" x1="264.29" y1="497.632" x2="267.017" y2="498.013" gradientUnits="userSpaceOnUse">
<stop stop-color="#21A29F"/>
<stop offset="1" stop-color="#1EA9A6" stop-opacity="0.63"/>
</linearGradient>
<linearGradient id="paint27_linear_2466_25631" x1="270.192" y1="506.48" x2="272.919" y2="506.861" gradientUnits="userSpaceOnUse">
<stop stop-color="#21A29F"/>
<stop offset="1" stop-color="#1EA9A6" stop-opacity="0.63"/>
</linearGradient>
<linearGradient id="paint28_linear_2466_25631" x1="264.29" y1="506.48" x2="267.017" y2="506.861" gradientUnits="userSpaceOnUse">
<stop stop-color="#21A29F"/>
<stop offset="1" stop-color="#1EA9A6" stop-opacity="0.63"/>
</linearGradient>
<linearGradient id="paint29_linear_2466_25631" x1="245.102" y1="497.632" x2="247.828" y2="498.013" gradientUnits="userSpaceOnUse">
<stop stop-color="#21A29F"/>
<stop offset="1" stop-color="#1EA9A6" stop-opacity="0.63"/>
</linearGradient>
<linearGradient id="paint30_linear_2466_25631" x1="239.202" y1="497.632" x2="241.929" y2="498.013" gradientUnits="userSpaceOnUse">
<stop stop-color="#21A29F"/>
<stop offset="1" stop-color="#1EA9A6" stop-opacity="0.63"/>
</linearGradient>
<linearGradient id="paint31_linear_2466_25631" x1="245.102" y1="506.48" x2="247.828" y2="506.861" gradientUnits="userSpaceOnUse">
<stop stop-color="#21A29F"/>
<stop offset="1" stop-color="#1EA9A6" stop-opacity="0.63"/>
</linearGradient>
<linearGradient id="paint32_linear_2466_25631" x1="239.202" y1="506.48" x2="241.929" y2="506.861" gradientUnits="userSpaceOnUse">
<stop stop-color="#21A29F"/>
<stop offset="1" stop-color="#1EA9A6" stop-opacity="0.63"/>
</linearGradient>
<linearGradient id="paint33_linear_2466_25631" x1="220.003" y1="497.632" x2="222.729" y2="498.013" gradientUnits="userSpaceOnUse">
<stop stop-color="#21A29F"/>
<stop offset="1" stop-color="#1EA9A6" stop-opacity="0.63"/>
</linearGradient>
<linearGradient id="paint34_linear_2466_25631" x1="214.112" y1="497.632" x2="216.839" y2="498.013" gradientUnits="userSpaceOnUse">
<stop stop-color="#21A29F"/>
<stop offset="1" stop-color="#1EA9A6" stop-opacity="0.63"/>
</linearGradient>
<linearGradient id="paint35_linear_2466_25631" x1="220.003" y1="506.48" x2="222.729" y2="506.861" gradientUnits="userSpaceOnUse">
<stop stop-color="#21A29F"/>
<stop offset="1" stop-color="#1EA9A6" stop-opacity="0.63"/>
</linearGradient>
<linearGradient id="paint36_linear_2466_25631" x1="214.112" y1="506.48" x2="216.839" y2="506.861" gradientUnits="userSpaceOnUse">
<stop stop-color="#21A29F"/>
<stop offset="1" stop-color="#1EA9A6" stop-opacity="0.63"/>
</linearGradient>
<linearGradient id="paint37_linear_2466_25631" x1="167.287" y1="496.695" x2="169.27" y2="497.066" gradientUnits="userSpaceOnUse">
<stop stop-color="#21A29F"/>
<stop offset="1" stop-color="#1EA9A6" stop-opacity="0.63"/>
</linearGradient>
<linearGradient id="paint38_linear_2466_25631" x1="171.541" y1="496.695" x2="173.524" y2="497.066" gradientUnits="userSpaceOnUse">
<stop stop-color="#21A29F"/>
<stop offset="1" stop-color="#1EA9A6" stop-opacity="0.63"/>
</linearGradient>
<linearGradient id="paint39_linear_2466_25631" x1="167.179" y1="514.488" x2="168.366" y2="516.419" gradientUnits="userSpaceOnUse">
<stop stop-color="#21A29F"/>
<stop offset="1" stop-color="#1EA9A6" stop-opacity="0.63"/>
</linearGradient>
<linearGradient id="paint40_linear_2466_25631" x1="163.046" y1="496.695" x2="165.029" y2="497.066" gradientUnits="userSpaceOnUse">
<stop stop-color="#21A29F"/>
<stop offset="1" stop-color="#1EA9A6" stop-opacity="0.63"/>
</linearGradient>
<linearGradient id="paint41_linear_2466_25631" x1="167.287" y1="501.87" x2="169.27" y2="502.241" gradientUnits="userSpaceOnUse">
<stop stop-color="#21A29F"/>
<stop offset="1" stop-color="#1EA9A6" stop-opacity="0.63"/>
</linearGradient>
<linearGradient id="paint42_linear_2466_25631" x1="171.541" y1="501.87" x2="173.524" y2="502.241" gradientUnits="userSpaceOnUse">
<stop stop-color="#21A29F"/>
<stop offset="1" stop-color="#1EA9A6" stop-opacity="0.63"/>
</linearGradient>
<linearGradient id="paint43_linear_2466_25631" x1="163.046" y1="501.87" x2="165.029" y2="502.242" gradientUnits="userSpaceOnUse">
<stop stop-color="#21A29F"/>
<stop offset="1" stop-color="#1EA9A6" stop-opacity="0.63"/>
</linearGradient>
<linearGradient id="paint44_linear_2466_25631" x1="167.287" y1="507.046" x2="169.27" y2="507.417" gradientUnits="userSpaceOnUse">
<stop stop-color="#21A29F"/>
<stop offset="1" stop-color="#1EA9A6" stop-opacity="0.63"/>
</linearGradient>
<linearGradient id="paint45_linear_2466_25631" x1="171.541" y1="507.046" x2="173.524" y2="507.417" gradientUnits="userSpaceOnUse">
<stop stop-color="#21A29F"/>
<stop offset="1" stop-color="#1EA9A6" stop-opacity="0.63"/>
</linearGradient>
<linearGradient id="paint46_linear_2466_25631" x1="163.046" y1="507.046" x2="165.029" y2="507.417" gradientUnits="userSpaceOnUse">
<stop stop-color="#21A29F"/>
<stop offset="1" stop-color="#1EA9A6" stop-opacity="0.63"/>
</linearGradient>
<linearGradient id="paint47_linear_2466_25631" x1="236.14" y1="443.686" x2="250.618" y2="451.748" gradientUnits="userSpaceOnUse">
<stop stop-color="#21A29F"/>
<stop offset="1" stop-color="#1EA9A6" stop-opacity="0.63"/>
</linearGradient>
<linearGradient id="paint48_linear_2466_25631" x1="242.263" y1="447.816" x2="249.146" y2="448.62" gradientUnits="userSpaceOnUse">
<stop stop-color="#21A29F"/>
<stop offset="1" stop-color="#1EA9A6" stop-opacity="0.63"/>
</linearGradient>
<linearGradient id="paint49_linear_2466_25631" x1="232.48" y1="454.331" x2="237.868" y2="455.046" gradientUnits="userSpaceOnUse">
<stop stop-color="#21A29F"/>
<stop offset="1" stop-color="#1EA9A6" stop-opacity="0.63"/>
</linearGradient>
<linearGradient id="paint50_linear_2466_25631" x1="244.185" y1="454.641" x2="245.439" y2="454.817" gradientUnits="userSpaceOnUse">
<stop stop-color="#21A29F"/>
<stop offset="1" stop-color="#1EA9A6" stop-opacity="0.63"/>
</linearGradient>
<linearGradient id="paint51_linear_2466_25631" x1="241.482" y1="454.641" x2="242.736" y2="454.817" gradientUnits="userSpaceOnUse">
<stop stop-color="#21A29F"/>
<stop offset="1" stop-color="#1EA9A6" stop-opacity="0.63"/>
</linearGradient>
<linearGradient id="paint52_linear_2466_25631" x1="244.185" y1="458.767" x2="245.452" y2="458.887" gradientUnits="userSpaceOnUse">
<stop stop-color="#21A29F"/>
<stop offset="1" stop-color="#1EA9A6" stop-opacity="0.63"/>
</linearGradient>
<linearGradient id="paint53_linear_2466_25631" x1="241.482" y1="458.767" x2="242.749" y2="458.887" gradientUnits="userSpaceOnUse">
<stop stop-color="#21A29F"/>
<stop offset="1" stop-color="#1EA9A6" stop-opacity="0.63"/>
</linearGradient>
<linearGradient id="paint54_linear_2466_25631" x1="129.283" y1="303.388" x2="147.792" y2="306.176" gradientUnits="userSpaceOnUse">
<stop stop-color="#21A29F"/>
<stop offset="1" stop-color="#1EA9A6" stop-opacity="0.63"/>
</linearGradient>
</defs>
</svg>
