<svg width="851" height="442" viewBox="0 0 851 442" fill="none" xmlns="http://www.w3.org/2000/svg">
<g clip-path="url(#clip0_4167_79654)">
<path d="M643.622 173.326C632.532 149.615 617.972 127.688 600.422 108.266C597.089 104.579 593.635 101.002 590.062 97.5355C549.252 58.1055 491.162 35.4755 434.872 42.6455C396.452 47.5555 360.622 65.6455 330.002 89.3255C310.422 104.456 291.912 122.326 268.332 129.826C238.422 139.306 206.162 130.356 174.792 130.216C126.272 129.996 77.1422 153.316 50.5222 193.886C26.4322 230.606 22.5222 279.746 40.5822 319.796C58.6422 359.846 98.0022 389.556 141.442 395.816C168.812 399.816 196.742 395.036 224.312 397.246C264.562 400.476 301.952 418.246 340.392 430.616C410.392 453.106 489.142 457.146 555.692 425.926C610.452 400.236 654.962 347.006 663.252 286.186C668.492 247.706 659.882 208.216 643.622 173.326Z" fill="#3693A3"/>
<path opacity="0.7" d="M643.622 173.326C632.532 149.615 617.972 127.688 600.422 108.266C597.089 104.579 593.635 101.002 590.062 97.5355C549.252 58.1055 491.162 35.4755 434.872 42.6455C396.452 47.5555 360.622 65.6455 330.002 89.3255C310.422 104.456 291.912 122.326 268.332 129.826C238.422 139.306 206.162 130.356 174.792 130.216C126.272 129.996 77.1422 153.316 50.5222 193.886C26.4322 230.606 22.5222 279.746 40.5822 319.796C58.6422 359.846 98.0022 389.556 141.442 395.816C168.812 399.816 196.742 395.036 224.312 397.246C264.562 400.476 301.952 418.246 340.392 430.616C410.392 453.106 489.142 457.146 555.692 425.926C610.452 400.236 654.962 347.006 663.252 286.186C668.492 247.706 659.882 208.216 643.622 173.326Z" fill="white"/>
<path d="M484 431.105H691" stroke="#263238" stroke-miterlimit="10"/>
<path d="M89 431.105H475" stroke="#263238" stroke-miterlimit="10"/>
<path d="M71.4492 431.105H79.9992" stroke="#263238" stroke-miterlimit="10"/>
<path d="M633.266 254.566L647.186 387.996" stroke="#263238" stroke-width="2" stroke-miterlimit="10"/>
<path d="M644.945 362.457L638.625 355.797" stroke="#263238" stroke-width="2" stroke-miterlimit="10"/>
<path d="M640.547 357.785C640.535 356.766 640.304 355.761 639.871 354.838C639.438 353.915 638.813 353.096 638.037 352.435C636.417 350.985 627.887 347.435 627.037 350.435C626.197 353.675 634.927 360.085 640.547 357.785Z" fill="#3693A3" stroke="#263238" stroke-miterlimit="10"/>
<path d="M640.55 357.784L632.43 352.734" stroke="#263238" stroke-width="0.5" stroke-miterlimit="10"/>
<path d="M646.529 377.635L640.219 370.965" stroke="#263238" stroke-width="2" stroke-miterlimit="10"/>
<path d="M642.128 372.965C642.118 371.944 641.889 370.937 641.456 370.012C641.023 369.087 640.396 368.266 639.618 367.605C637.998 366.165 629.468 362.605 628.618 365.605C627.788 368.845 636.508 375.255 642.128 372.965Z" fill="#3693A3" stroke="#263238" stroke-miterlimit="10"/>
<path d="M642.126 372.966L634.016 367.906" stroke="#263238" stroke-width="0.5" stroke-miterlimit="10"/>
<path d="M641.076 325.436L634.766 318.766" stroke="#263238" stroke-width="2" stroke-miterlimit="10"/>
<path d="M636.688 320.766C636.675 319.744 636.443 318.738 636.008 317.813C635.574 316.889 634.946 316.068 634.168 315.406C632.548 313.966 624.028 310.406 623.218 313.406C622.338 316.646 631.068 323.056 636.688 320.766Z" fill="#3693A3" stroke="#263238" stroke-miterlimit="10"/>
<path d="M636.686 320.767L628.566 315.707" stroke="#263238" stroke-width="0.5" stroke-miterlimit="10"/>
<path d="M642.668 340.607L636.348 333.938" stroke="#263238" stroke-width="2" stroke-miterlimit="10"/>
<path d="M638.27 335.937C638.257 334.918 638.027 333.913 637.594 332.99C637.161 332.068 636.536 331.248 635.76 330.587C634.14 329.137 625.61 325.587 624.76 328.587C623.92 331.817 632.65 338.237 638.27 335.937Z" fill="#3693A3" stroke="#263238" stroke-miterlimit="10"/>
<path d="M638.268 335.935L630.148 330.875" stroke="#263238" stroke-width="0.5" stroke-miterlimit="10"/>
<path d="M638.505 300.787L632.195 294.117" stroke="#263238" stroke-width="2" stroke-miterlimit="10"/>
<path d="M634.108 296.117C634.099 295.096 633.87 294.089 633.437 293.164C633.003 292.239 632.376 291.419 631.598 290.757C629.978 289.317 621.448 285.757 620.598 288.757C619.768 291.997 628.488 298.407 634.108 296.117Z" fill="#3693A3" stroke="#263238" stroke-miterlimit="10"/>
<path d="M634.11 296.115L626 291.055" stroke="#263238" stroke-width="0.5" stroke-miterlimit="10"/>
<path d="M635.929 276.025L629.609 269.355" stroke="#263238" stroke-width="2" stroke-miterlimit="10"/>
<path d="M631.527 271.355C631.515 270.336 631.285 269.331 630.852 268.408C630.419 267.486 629.793 266.666 629.017 266.005C627.397 264.555 618.867 261.005 618.017 264.005C617.177 267.235 625.907 273.655 631.527 271.355Z" fill="#3693A3" stroke="#263238" stroke-miterlimit="10"/>
<path d="M631.526 271.357L623.406 266.297" stroke="#263238" stroke-width="0.5" stroke-miterlimit="10"/>
<path d="M643.875 353.486L648.675 345.656" stroke="#263238" stroke-width="2" stroke-miterlimit="10"/>
<path d="M647.216 348.007C647.016 347.006 647.034 345.974 647.267 344.98C647.499 343.987 647.943 343.055 648.566 342.247C649.856 340.497 657.456 335.247 658.866 337.997C660.406 341.017 653.186 349.097 647.216 348.007Z" fill="#3693A3" stroke="#263238" stroke-miterlimit="10"/>
<path d="M647.219 348.006L654.529 341.016" stroke="#263238" stroke-width="0.5" stroke-miterlimit="10"/>
<path d="M639.719 313.547L644.519 305.727" stroke="#263238" stroke-width="2" stroke-miterlimit="10"/>
<path d="M643.048 308.077C642.852 307.076 642.871 306.044 643.106 305.05C643.34 304.057 643.784 303.125 644.408 302.317C645.688 300.567 653.298 295.317 654.708 298.067C656.238 301.087 648.998 309.157 643.048 308.077Z" fill="#3693A3" stroke="#263238" stroke-miterlimit="10"/>
<path d="M643.047 308.076L650.357 301.086" stroke="#263238" stroke-width="0.5" stroke-miterlimit="10"/>
<path d="M637.887 296.006L642.687 288.176" stroke="#263238" stroke-width="2" stroke-miterlimit="10"/>
<path d="M641.217 290.558C641.02 289.557 641.039 288.525 641.271 287.532C641.504 286.539 641.946 285.607 642.567 284.798C643.857 283.048 651.457 277.798 652.877 280.548C654.407 283.558 647.197 291.618 641.217 290.558Z" fill="#3693A3" stroke="#263238" stroke-miterlimit="10"/>
<path d="M641.219 290.525L648.529 283.535" stroke="#263238" stroke-width="0.5" stroke-miterlimit="10"/>
<path d="M635.195 270.275L639.995 262.445" stroke="#263238" stroke-width="2" stroke-miterlimit="10"/>
<path d="M638.536 264.808C638.337 263.807 638.354 262.775 638.587 261.781C638.82 260.788 639.263 259.855 639.886 259.048C641.176 257.298 648.776 252.048 650.186 254.798C651.726 257.808 644.506 265.888 638.536 264.808Z" fill="#3693A3" stroke="#263238" stroke-miterlimit="10"/>
<path d="M638.539 264.806L645.849 257.816" stroke="#263238" stroke-width="0.5" stroke-miterlimit="10"/>
<path d="M633.146 253.825C632.946 252.826 632.963 251.795 633.196 250.803C633.429 249.811 633.872 248.881 634.496 248.075C635.786 246.325 643.386 241.075 644.796 243.825C646.336 246.835 639.116 254.915 633.146 253.825Z" fill="#3693A3" stroke="#263238" stroke-miterlimit="10"/>
<path d="M633.148 253.828L640.458 246.848" stroke="#263238" stroke-width="0.5" stroke-miterlimit="10"/>
<path d="M633.568 254.125C632.553 254.22 631.53 254.096 630.567 253.761C629.605 253.427 628.725 252.889 627.988 252.185C626.378 250.715 621.988 242.605 624.838 241.495C627.998 240.275 635.278 248.305 633.568 254.125Z" fill="#3693A3" stroke="#263238" stroke-miterlimit="10"/>
<path d="M633.567 254.125L627.387 246.125" stroke="#263238" stroke-width="0.5" stroke-miterlimit="10"/>
<path d="M669.988 272.945L656.148 406.375" stroke="#263238" stroke-width="2" stroke-miterlimit="10"/>
<path d="M659.208 380.925L654.398 373.105" stroke="#263238" stroke-width="2" stroke-miterlimit="10"/>
<path d="M655.866 375.455C656.063 374.453 656.043 373.421 655.808 372.428C655.574 371.435 655.13 370.503 654.506 369.695C653.216 367.945 645.617 362.695 644.207 365.455C642.667 368.465 649.886 376.555 655.866 375.455Z" fill="#3693A3" stroke="#263238" stroke-miterlimit="10"/>
<path d="M655.869 375.456L648.969 368.836" stroke="#263238" stroke-width="0.5" stroke-miterlimit="10"/>
<path d="M663.05 343.894L658.25 336.074" stroke="#263238" stroke-width="2" stroke-miterlimit="10"/>
<path d="M659.708 338.428C659.904 337.426 659.884 336.394 659.65 335.401C659.415 334.407 658.971 333.476 658.348 332.668C657.068 330.918 649.458 325.668 648.048 328.428C646.518 331.438 653.738 339.558 659.708 338.428Z" fill="#3693A3" stroke="#263238" stroke-miterlimit="10"/>
<path d="M659.705 338.425L652.805 331.805" stroke="#263238" stroke-width="0.5" stroke-miterlimit="10"/>
<path d="M661.468 359.076L656.668 351.246" stroke="#263238" stroke-width="2" stroke-miterlimit="10"/>
<path d="M658.136 353.555C658.333 352.555 658.313 351.525 658.079 350.533C657.844 349.541 657.4 348.611 656.776 347.805C655.486 346.055 647.886 340.805 646.476 343.555C644.936 346.615 652.156 354.685 658.136 353.555Z" fill="#3693A3" stroke="#263238" stroke-miterlimit="10"/>
<path d="M658.137 353.597L651.227 346.977" stroke="#263238" stroke-width="0.5" stroke-miterlimit="10"/>
<path d="M665.607 319.246L660.797 311.426" stroke="#263238" stroke-width="2" stroke-miterlimit="10"/>
<path d="M662.269 313.775C662.465 312.774 662.445 311.742 662.211 310.748C661.976 309.755 661.532 308.823 660.909 308.015C659.619 306.265 652.019 301.015 650.609 303.775C649.069 306.785 656.289 314.865 662.269 313.775Z" fill="#3693A3" stroke="#263238" stroke-miterlimit="10"/>
<path d="M662.267 313.775L655.367 307.145" stroke="#263238" stroke-width="0.5" stroke-miterlimit="10"/>
<path d="M668.177 294.484L663.367 286.664" stroke="#263238" stroke-width="2" stroke-miterlimit="10"/>
<path d="M664.839 289.017C665.036 288.016 665.016 286.984 664.781 285.991C664.547 284.997 664.103 284.065 663.479 283.257C662.189 281.507 654.589 276.257 653.179 279.017C651.639 282.027 658.859 290.107 664.839 289.017Z" fill="#3693A3" stroke="#263238" stroke-miterlimit="10"/>
<path d="M664.84 289.015L657.93 282.395" stroke="#263238" stroke-width="0.5" stroke-miterlimit="10"/>
<path d="M660.016 371.928L666.326 365.258" stroke="#263238" stroke-width="2" stroke-miterlimit="10"/>
<path d="M664.406 367.256C664.419 366.235 664.65 365.229 665.082 364.305C665.515 363.38 666.14 362.559 666.916 361.896C668.536 360.446 677.056 356.896 677.916 359.896C678.756 363.126 669.996 369.556 664.406 367.256Z" fill="#3693A3" stroke="#263238" stroke-miterlimit="10"/>
<path d="M664.406 367.254L672.996 361.914" stroke="#263238" stroke-width="0.5" stroke-miterlimit="10"/>
<path d="M664.156 331.986L670.466 325.316" stroke="#263238" stroke-width="2" stroke-miterlimit="10"/>
<path d="M668.547 327.316C668.559 326.297 668.789 325.292 669.222 324.369C669.655 323.447 670.281 322.627 671.057 321.966C672.677 320.516 681.207 316.966 682.057 319.966C682.897 323.186 674.177 329.606 668.547 327.316Z" fill="#3693A3" stroke="#263238" stroke-miterlimit="10"/>
<path d="M668.547 327.314L677.137 321.984" stroke="#263238" stroke-width="0.5" stroke-miterlimit="10"/>
<path d="M665.977 314.446L672.287 307.766" stroke="#263238" stroke-width="2" stroke-miterlimit="10"/>
<path d="M670.367 309.765C670.379 308.746 670.61 307.741 671.043 306.819C671.476 305.896 672.101 305.076 672.877 304.415C674.497 302.965 683.027 299.415 683.877 302.415C684.717 305.645 675.997 312.065 670.367 309.765Z" fill="#3693A3" stroke="#263238" stroke-miterlimit="10"/>
<path d="M670.367 309.767L678.967 304.438" stroke="#263238" stroke-width="0.5" stroke-miterlimit="10"/>
<path d="M668.648 288.717L674.958 282.047" stroke="#263238" stroke-width="2" stroke-miterlimit="10"/>
<path d="M673 284.045C673.013 283.024 673.243 282.018 673.676 281.094C674.109 280.17 674.734 279.348 675.51 278.685C677.13 277.235 685.66 273.685 686.51 276.685C687.39 279.915 678.67 286.335 673 284.045Z" fill="#3693A3" stroke="#263238" stroke-miterlimit="10"/>
<path d="M673.039 284.047L681.639 278.707" stroke="#263238" stroke-width="0.5" stroke-miterlimit="10"/>
<path d="M670 272.196C670.013 271.175 670.243 270.169 670.676 269.245C671.109 268.32 671.734 267.499 672.51 266.836C674.13 265.396 682.65 261.836 683.51 264.836C684.38 268.066 675.65 274.486 670 272.196Z" fill="#3693A3" stroke="#263238" stroke-miterlimit="10"/>
<path d="M670.027 272.197L678.617 266.867" stroke="#263238" stroke-width="0.5" stroke-miterlimit="10"/>
<path d="M670.377 272.556C669.364 272.436 668.389 272.101 667.516 271.573C666.643 271.046 665.893 270.337 665.317 269.496C664.047 267.736 661.317 258.886 664.437 258.396C667.777 257.876 673.247 267.226 670.377 272.556Z" fill="#3693A3" stroke="#263238" stroke-miterlimit="10"/>
<path d="M670.377 272.577L665.977 263.477" stroke="#263238" stroke-width="0.5" stroke-miterlimit="10"/>
<path d="M654.117 218.617V387.347" stroke="#263238" stroke-width="2" stroke-miterlimit="10"/>
<path d="M654.258 361.978L648.668 354.688" stroke="#263238" stroke-width="2" stroke-miterlimit="10"/>
<path d="M650.37 356.877C650.465 355.861 650.341 354.836 650.006 353.872C649.671 352.907 649.134 352.026 648.43 351.287C646.97 349.677 638.86 345.227 637.74 348.127C636.53 351.287 644.54 358.557 650.37 356.877Z" fill="#3693A3" stroke="#263238" stroke-miterlimit="10"/>
<path d="M650.366 356.876L642.816 350.996" stroke="#263238" stroke-width="0.5" stroke-miterlimit="10"/>
<path d="M654.258 330.267L648.668 322.977" stroke="#263238" stroke-width="2" stroke-miterlimit="10"/>
<path d="M650.37 325.166C650.465 324.15 650.341 323.125 650.006 322.161C649.671 321.196 649.134 320.315 648.43 319.576C646.97 317.966 638.86 313.516 637.74 316.416C636.53 319.556 644.54 326.866 650.37 325.166Z" fill="#3693A3" stroke="#263238" stroke-miterlimit="10"/>
<path d="M650.366 325.165L642.816 319.285" stroke="#263238" stroke-width="0.5" stroke-miterlimit="10"/>
<path d="M654.258 293.036L648.668 285.746" stroke="#263238" stroke-width="2" stroke-miterlimit="10"/>
<path d="M650.37 287.938C650.465 286.921 650.341 285.897 650.006 284.932C649.671 283.968 649.134 283.087 648.43 282.348C646.97 280.748 638.86 276.288 637.74 279.198C636.53 282.348 644.54 289.638 650.37 287.938Z" fill="#3693A3" stroke="#263238" stroke-miterlimit="10"/>
<path d="M650.366 287.935L642.816 282.055" stroke="#263238" stroke-width="0.5" stroke-miterlimit="10"/>
<path d="M654.258 268.255L648.668 260.965" stroke="#263238" stroke-width="2" stroke-miterlimit="10"/>
<path d="M650.37 263.154C650.465 262.138 650.341 261.113 650.006 260.149C649.671 259.185 649.134 258.303 648.43 257.564C646.97 255.954 638.86 251.504 637.74 254.404C636.53 257.554 644.54 264.854 650.37 263.154Z" fill="#3693A3" stroke="#263238" stroke-miterlimit="10"/>
<path d="M650.366 263.157L642.816 257.277" stroke="#263238" stroke-width="0.5" stroke-miterlimit="10"/>
<path d="M654.258 243.364L648.668 236.074" stroke="#263238" stroke-width="2" stroke-miterlimit="10"/>
<path d="M650.37 238.258C650.465 237.243 650.34 236.22 650.006 235.257C649.671 234.294 649.134 233.415 648.43 232.678C646.97 231.068 638.86 226.618 637.74 229.518C636.53 232.678 644.54 239.958 650.37 238.258Z" fill="#3693A3" stroke="#263238" stroke-miterlimit="10"/>
<path d="M650.366 238.257L642.816 232.387" stroke="#263238" stroke-width="0.5" stroke-miterlimit="10"/>
<path d="M654.137 371.657L659.717 364.367" stroke="#263238" stroke-width="2" stroke-miterlimit="10"/>
<path d="M657.997 366.555C657.913 365.534 658.047 364.508 658.392 363.543C658.737 362.579 659.284 361.7 659.997 360.965C661.457 359.365 669.567 354.905 670.677 357.815C671.867 360.965 663.847 368.255 657.997 366.555Z" fill="#3693A3" stroke="#263238" stroke-miterlimit="10"/>
<path d="M658.016 366.557L666.016 360.367" stroke="#263238" stroke-width="0.5" stroke-miterlimit="10"/>
<path d="M654.137 321.228L659.717 313.938" stroke="#263238" stroke-width="2" stroke-miterlimit="10"/>
<path d="M657.998 316.127C657.912 315.106 658.047 314.079 658.392 313.115C658.737 312.151 659.284 311.272 659.998 310.537C661.458 308.927 669.567 304.477 670.677 307.377C671.867 310.557 663.848 317.827 657.998 316.127Z" fill="#3693A3" stroke="#263238" stroke-miterlimit="10"/>
<path d="M658.016 316.128L666.016 309.938" stroke="#263238" stroke-width="0.5" stroke-miterlimit="10"/>
<path d="M654.137 296.337L659.717 289.047" stroke="#263238" stroke-width="2" stroke-miterlimit="10"/>
<path d="M657.998 291.236C657.912 290.216 658.047 289.189 658.392 288.225C658.737 287.26 659.284 286.381 659.998 285.646C661.458 284.036 669.567 279.586 670.677 282.486C671.867 285.646 663.848 292.936 657.998 291.236Z" fill="#3693A3" stroke="#263238" stroke-miterlimit="10"/>
<path d="M658.016 291.237L666.016 285.047" stroke="#263238" stroke-width="0.5" stroke-miterlimit="10"/>
<path d="M654.137 263.435L659.717 256.145" stroke="#263238" stroke-width="2" stroke-miterlimit="10"/>
<path d="M657.998 258.334C657.912 257.313 658.047 256.287 658.392 255.322C658.737 254.358 659.284 253.479 659.998 252.744C661.458 251.134 669.567 246.684 670.677 249.584C671.867 252.744 663.848 260.034 657.998 258.334Z" fill="#3693A3" stroke="#263238" stroke-miterlimit="10"/>
<path d="M658.016 258.335L666.016 252.145" stroke="#263238" stroke-width="0.5" stroke-miterlimit="10"/>
<path d="M654.137 237.565L659.717 230.285" stroke="#263238" stroke-width="2" stroke-miterlimit="10"/>
<path d="M657.997 232.465C657.912 231.446 658.047 230.42 658.392 229.458C658.737 228.495 659.284 227.618 659.997 226.885C661.457 225.275 669.567 220.815 670.677 223.725C671.867 226.885 663.847 234.165 657.997 232.465Z" fill="#3693A3" stroke="#263238" stroke-miterlimit="10"/>
<path d="M658.016 232.467L666.016 226.277" stroke="#263238" stroke-width="0.5" stroke-miterlimit="10"/>
<path d="M653.795 220.996C653.703 219.98 653.829 218.956 654.163 217.992C654.498 217.029 655.033 216.147 655.735 215.406C657.205 213.806 665.305 209.346 666.425 212.256C667.645 215.406 659.625 222.696 653.795 220.996Z" fill="#3693A3" stroke="#263238" stroke-miterlimit="10"/>
<path d="M653.797 220.995L661.797 214.805" stroke="#263238" stroke-width="0.5" stroke-miterlimit="10"/>
<path d="M654.187 221.336C653.168 221.324 652.163 221.093 651.24 220.66C650.318 220.227 649.498 219.602 648.837 218.826C647.387 217.196 643.837 208.666 646.837 207.826C650.087 206.986 656.487 215.726 654.187 221.336Z" fill="#3693A3" stroke="#263238" stroke-miterlimit="10"/>
<path d="M654.187 221.334L648.867 212.734" stroke="#263238" stroke-width="0.5" stroke-miterlimit="10"/>
<path d="M661.067 431.107H643.197L640.957 385.977H663.297L661.067 431.107Z" fill="#263238" stroke="#263238" stroke-miterlimit="10"/>
<path d="M282.839 78.1367H273.359V82.6667H282.839V78.1367Z" stroke="#263238" stroke-miterlimit="10"/>
<path d="M293.972 78.1367H284.492V82.6667H293.972V78.1367Z" stroke="#263238" stroke-miterlimit="10"/>
<path d="M305.101 78.1367H295.621V82.6667H305.101V78.1367Z" stroke="#263238" stroke-miterlimit="10"/>
<path d="M316.23 78.1367H306.75V82.6667H316.23V78.1367Z" stroke="#263238" stroke-miterlimit="10"/>
<path d="M327.351 78.1367H317.871V82.6667H327.351V78.1367Z" stroke="#263238" stroke-miterlimit="10"/>
<path d="M338.48 78.1367H329V82.6667H338.48V78.1367Z" stroke="#263238" stroke-miterlimit="10"/>
<path d="M349.613 78.1367H340.133V82.6667H349.613V78.1367Z" stroke="#263238" stroke-miterlimit="10"/>
<path d="M360.73 78.1367H351.25V82.6667H360.73V78.1367Z" stroke="#263238" stroke-miterlimit="10"/>
<path d="M282.839 85.5547H273.359V90.0847H282.839V85.5547Z" stroke="#263238" stroke-miterlimit="10"/>
<path d="M293.972 85.5547H284.492V90.0847H293.972V85.5547Z" stroke="#263238" stroke-miterlimit="10"/>
<path d="M305.101 85.5547H295.621V90.0847H305.101V85.5547Z" stroke="#263238" stroke-miterlimit="10"/>
<path d="M316.23 85.5547H306.75V90.0847H316.23V85.5547Z" stroke="#263238" stroke-miterlimit="10"/>
<path d="M327.351 85.5547H317.871V90.0847H327.351V85.5547Z" stroke="#263238" stroke-miterlimit="10"/>
<path d="M338.48 85.5547H329V90.0847H338.48V85.5547Z" stroke="#263238" stroke-miterlimit="10"/>
<path d="M349.613 85.5547H340.133V90.0847H349.613V85.5547Z" stroke="#263238" stroke-miterlimit="10"/>
<path d="M360.73 85.5547H351.25V90.0847H360.73V85.5547Z" stroke="#263238" stroke-miterlimit="10"/>
<path d="M282.839 92.9766H273.359V97.5066H282.839V92.9766Z" stroke="#263238" stroke-miterlimit="10"/>
<path d="M293.972 92.9766H284.492V97.5066H293.972V92.9766Z" stroke="#263238" stroke-miterlimit="10"/>
<path d="M305.101 92.9766H295.621V97.5066H305.101V92.9766Z" stroke="#263238" stroke-miterlimit="10"/>
<path d="M316.23 92.9766H306.75V97.5066H316.23V92.9766Z" stroke="#263238" stroke-miterlimit="10"/>
<path d="M327.351 92.9766H317.871V97.5066H327.351V92.9766Z" stroke="#263238" stroke-miterlimit="10"/>
<path d="M338.48 92.9766H329V97.5066H338.48V92.9766Z" stroke="#263238" stroke-miterlimit="10"/>
<path d="M349.613 92.9766H340.133V97.5066H349.613V92.9766Z" stroke="#263238" stroke-miterlimit="10"/>
<path d="M360.73 92.9766H351.25V97.5066H360.73V92.9766Z" stroke="#263238" stroke-miterlimit="10"/>
<path d="M282.839 100.398H273.359V104.928H282.839V100.398Z" stroke="#263238" stroke-miterlimit="10"/>
<path d="M293.972 100.398H284.492V104.928H293.972V100.398Z" stroke="#263238" stroke-miterlimit="10"/>
<path d="M326.531 100.398H295.621V104.928H326.531V100.398Z" stroke="#263238" stroke-miterlimit="10"/>
<path d="M338.48 100.398H329V104.928H338.48V100.398Z" stroke="#263238" stroke-miterlimit="10"/>
<path d="M349.613 100.398H340.133V104.928H349.613V100.398Z" stroke="#263238" stroke-miterlimit="10"/>
<path d="M360.73 100.398H351.25V104.928H360.73V100.398Z" stroke="#263238" stroke-miterlimit="10"/>
<path d="M371.43 155.05C371.43 155.05 397.16 119.05 436.43 98.4297" stroke="#263238" stroke-miterlimit="10"/>
<path d="M409.328 116.206L411.198 87.6562" stroke="#263238" stroke-miterlimit="10"/>
<path d="M399.98 124.484L427.2 126.964" stroke="#263238" stroke-miterlimit="10"/>
<path d="M409.88 101.607C409.88 101.607 403.38 98.2072 403.69 87.6872C404.004 81.2101 406.637 75.0622 411.11 70.3672C414.484 75.3314 416.513 81.0851 417 87.0672C417.61 96.6572 409.88 101.607 409.88 101.607Z" stroke="#263238" stroke-miterlimit="10"/>
<path d="M388.231 122.638C388.231 122.638 381.741 119.238 382.041 108.718C382.357 102.24 384.995 96.0919 389.471 91.3984C392.836 96.3657 394.858 102.119 395.341 108.098C396.001 117.688 388.231 122.638 388.231 122.638Z" stroke="#263238" stroke-miterlimit="10"/>
<path d="M415.438 125.73C416.9 124.054 418.709 122.716 420.74 121.808C422.77 120.9 424.973 120.443 427.198 120.47C434.928 120.47 442.658 130.99 442.658 130.99C437.336 132.961 431.662 133.803 425.997 133.46C416.677 132.84 415.438 125.73 415.438 125.73Z" stroke="#263238" stroke-miterlimit="10"/>
<path d="M424.723 105.937C424.723 105.937 421.633 96.3471 431.523 92.3271C437.239 89.9144 443.666 89.8034 449.463 92.0171C449.463 92.0171 449.463 102.227 440.463 106.247C431.463 110.267 424.723 105.937 424.723 105.937Z" stroke="#263238" stroke-miterlimit="10"/>
<path d="M389.159 134.388L388.539 110.578" stroke="#263238" stroke-miterlimit="10"/>
<path d="M604.89 91.4766H557.02V121.637H584.14L583.25 135.407L593.89 121.637H604.89V91.4766Z" stroke="#263238" stroke-miterlimit="10"/>
<path d="M630.54 126.227H597.68V146.937H616.29L615.68 156.387L622.99 146.937H630.54V126.227Z" stroke="#263238" stroke-miterlimit="10"/>
<path d="M573.729 106.56C573.729 107.08 573.574 107.588 573.286 108.021C572.997 108.453 572.586 108.79 572.105 108.99C571.625 109.189 571.096 109.241 570.586 109.139C570.076 109.038 569.607 108.787 569.239 108.419C568.871 108.052 568.621 107.583 568.519 107.073C568.418 106.563 568.47 106.034 568.669 105.553C568.868 105.073 569.205 104.662 569.638 104.373C570.07 104.084 570.579 103.93 571.099 103.93C571.444 103.928 571.787 103.996 572.107 104.127C572.426 104.259 572.717 104.453 572.961 104.697C573.206 104.942 573.4 105.232 573.531 105.552C573.663 105.871 573.73 106.214 573.729 106.56Z" stroke="#263238" stroke-miterlimit="10"/>
<path d="M584.873 106.56C584.871 107.077 584.715 107.583 584.426 108.013C584.137 108.442 583.727 108.776 583.249 108.973C582.77 109.17 582.243 109.22 581.736 109.118C581.228 109.016 580.762 108.766 580.397 108.399C580.031 108.032 579.783 107.565 579.682 107.057C579.582 106.549 579.635 106.023 579.833 105.545C580.032 105.067 580.368 104.658 580.798 104.371C581.229 104.083 581.735 103.93 582.253 103.93C582.598 103.93 582.939 103.998 583.258 104.13C583.576 104.262 583.866 104.456 584.109 104.701C584.352 104.945 584.545 105.235 584.676 105.554C584.807 105.873 584.874 106.215 584.873 106.56Z" stroke="#263238" stroke-miterlimit="10"/>
<path d="M595.998 106.56C595.996 107.077 595.84 107.583 595.551 108.013C595.262 108.442 594.852 108.776 594.374 108.973C593.895 109.17 593.368 109.22 592.861 109.118C592.353 109.016 591.887 108.766 591.522 108.399C591.156 108.032 590.908 107.565 590.807 107.057C590.707 106.549 590.76 106.023 590.958 105.545C591.157 105.067 591.493 104.658 591.923 104.371C592.354 104.083 592.86 103.93 593.378 103.93C593.723 103.93 594.064 103.998 594.383 104.13C594.701 104.262 594.991 104.456 595.234 104.701C595.477 104.945 595.67 105.235 595.801 105.554C595.932 105.873 595.999 106.215 595.998 106.56Z" stroke="#263238" stroke-miterlimit="10"/>
<path d="M78.5781 179.469H114.818V202.309H94.2881L94.9581 212.729L86.9081 202.309H78.5781V179.469Z" stroke="#263238" stroke-miterlimit="10"/>
<path d="M59.1602 205.773H84.0402V221.453H69.9502L70.4102 228.613L64.8802 221.453H59.1602V205.773Z" stroke="#263238" stroke-miterlimit="10"/>
<path d="M104.162 192.878C105.261 192.878 106.152 191.987 106.152 190.888C106.152 189.789 105.261 188.898 104.162 188.898C103.063 188.898 102.172 189.789 102.172 190.888C102.172 191.987 103.063 192.878 104.162 192.878Z" stroke="#263238" stroke-miterlimit="10"/>
<path d="M95.7205 192.878C96.8195 192.878 97.7105 191.987 97.7105 190.888C97.7105 189.789 96.8195 188.898 95.7205 188.898C94.6214 188.898 93.7305 189.789 93.7305 190.888C93.7305 191.987 94.6214 192.878 95.7205 192.878Z" stroke="#263238" stroke-miterlimit="10"/>
<path d="M87.2791 192.878C88.3781 192.878 89.2691 191.987 89.2691 190.888C89.2691 189.789 88.3781 188.898 87.2791 188.898C86.18 188.898 85.2891 189.789 85.2891 190.888C85.2891 191.987 86.18 192.878 87.2791 192.878Z" stroke="#263238" stroke-miterlimit="10"/>
<path d="M123.62 111.957C123.458 111.46 123.384 110.939 123.4 110.417C123.4 104.907 127.72 104.417 127.72 98.1369C127.72 96.3369 127 95.6469 125.72 95.6469C124.44 95.6469 123.72 96.3369 123.72 98.1369V100.867H120V98.3869C120 94.3869 122 92.0469 125.84 92.0469C129.68 92.0469 131.67 94.3569 131.67 98.3869C131.67 104.937 126.99 105.947 126.99 110.557C126.986 111.027 127.033 111.497 127.13 111.957H123.62ZM127.25 113.727V117.557H123.44V113.737L127.25 113.727Z" stroke="#263238" stroke-miterlimit="10"/>
<path d="M253.999 380.254C253.837 379.754 253.763 379.229 253.779 378.704C253.779 373.194 258.099 372.704 258.099 366.424C258.099 364.624 257.379 363.944 256.099 363.944C254.819 363.944 254.099 364.624 254.099 366.424V369.164H250.359V366.684C250.359 362.684 252.359 360.344 256.189 360.344C260.019 360.344 262.019 362.644 262.019 366.684C262.019 373.234 257.339 374.244 257.339 378.854C257.335 379.325 257.385 379.795 257.489 380.254H253.999ZM257.639 382.024V385.834H253.819V382.024H257.639Z" stroke="#263238" stroke-miterlimit="10"/>
<path d="M212.308 270.235H270.918V311.555H212.308V430.805H166.898V141.855H286.998V183.135H212.308V270.235Z" fill="#3693A3" stroke="#3693A3" stroke-miterlimit="10"/>
<path d="M282.019 153.035V178.135H207.309V275.235H243.309" stroke="#3693A3" stroke-miterlimit="10"/>
<path d="M171.898 191.225V146.855H282.018V150.895" stroke="#3693A3" stroke-miterlimit="10"/>
<path d="M171.898 404.045V196.805" stroke="#3693A3" stroke-miterlimit="10"/>
<path d="M207.308 336.254V425.804H171.898V410.054" stroke="#3693A3" stroke-miterlimit="10"/>
<path d="M207.309 321.234V329.814" stroke="#3693A3" stroke-miterlimit="10"/>
<path d="M249.319 275.234H265.919V306.514H207.309V317.374" stroke="#3693A3" stroke-miterlimit="10"/>
<path d="M450.49 430.805H404.67L396.83 378.385H341.1L333.26 430.805H291.57L337.8 141.855H404.26L450.49 430.805ZM346.88 339.165H390.64L368.76 193.045L346.88 339.165Z" fill="#3693A3" stroke="#3693A3" stroke-miterlimit="10"/>
<path d="M301.89 397.935L325.77 248.665M405.22 400.715L401.14 373.385H336.79L329 425.805H297.43L301 403.645M439.55 393.935L444.65 425.805H409L405.88 404.975M413.22 229.415L438.67 388.555M326.93 241.415L342.06 146.855H400L411.78 220.425M391.78 312.285L373.78 189.075H363.89L341.09 344.165H396.45L392.86 319.615" stroke="#3693A3" stroke-miterlimit="10"/>
<path d="M467.418 211.205C467.418 164.975 491.768 138.555 536.348 138.555C580.928 138.555 605.288 164.975 605.288 211.205V361.455C605.288 377.555 602.398 391.175 596.618 401.915C598.678 407.275 601.988 408.105 609.418 408.105H613.538V448.555H607.348C587.118 448.555 574.348 441.125 568.138 428.745C557.933 432.364 547.175 434.178 536.348 434.105C491.768 434.105 467.418 407.695 467.418 361.455V211.205ZM512.818 364.345C512.818 384.985 521.908 392.825 536.348 392.825C550.788 392.825 559.878 384.985 559.878 364.345V208.345C559.878 187.705 550.798 179.865 536.348 179.865C521.898 179.865 512.818 187.705 512.818 208.345V364.345Z" fill="#3693A3" stroke="#3693A3" stroke-miterlimit="10"/>
<path d="M584.298 438.605C579.245 435.899 575.159 431.688 572.608 426.555L570.608 422.555L566.418 424.085C556.763 427.514 546.583 429.227 536.338 429.145C515.678 429.145 499.678 423.285 488.798 411.735C487.171 410 485.664 408.155 484.288 406.215M596.998 387.765C595.831 391.854 594.228 395.807 592.218 399.555L591.128 401.555L591.948 403.695C595.158 412.025 601.578 413.025 608.538 413.085V443.555H607.348C601.501 443.659 595.675 442.832 590.088 441.105M600.288 227.265V361.455C600.343 368.39 599.69 375.312 598.338 382.115M472.848 201.015C474.338 184.095 479.688 170.655 488.848 161.015C499.688 149.415 515.688 143.555 536.348 143.555C557.008 143.555 573.018 149.415 583.898 160.975C594.778 172.535 600.288 189.425 600.288 211.205V220.835M480.188 399.315C475.018 389.105 472.418 376.435 472.418 361.455V211.205C472.418 209.815 472.418 208.445 472.488 207.085M507.818 361.995V364.345C507.818 392.025 523.338 397.825 536.348 397.825C549.358 397.825 564.878 392.025 564.878 364.345V225.555M507.818 251.295V356.415M564.878 218.685V208.315C564.878 180.645 549.368 174.835 536.348 174.835C523.328 174.835 507.818 180.645 507.818 208.315V243.555" stroke="#3693A3" stroke-miterlimit="10"/>
<path d="M546.518 224.555C546.518 224.555 554.198 226.095 558.798 229.825C563.398 233.555 566.468 242.535 564.278 248.235C562.088 253.935 561.498 253.565 564.128 256.855C566.758 260.145 564.568 265.855 564.568 265.855L547.688 260.595C547.805 256.536 548.139 252.487 548.688 248.465C549.558 242.545 549.118 231.585 546.488 228.515L546.518 224.555Z" fill="#263238" stroke="#263238" stroke-linecap="round" stroke-linejoin="round"/>
<path d="M522.699 365.555L525.549 380.905C525.23 387.173 525.82 393.455 527.299 399.555C529.709 408.555 531.469 428.715 531.469 428.715C531.469 428.715 527.739 431.775 523.789 434.405C519.839 437.035 517.439 439.455 522.919 439.455C528.399 439.455 531.249 437.915 534.529 436.605C537.809 435.295 540.449 434.605 540.449 432.875C540.449 431.145 538.699 423.875 538.699 423.875C538.699 423.875 539.359 398.235 539.359 389.875C539.394 385.081 538.878 380.3 537.819 375.625V367.355L522.699 365.555Z" fill="#CFCFCF" stroke="#263238" stroke-linecap="round" stroke-linejoin="round"/>
<path d="M534.529 436.626C537.819 435.306 540.449 434.626 540.449 432.896C540.393 432.011 540.273 431.132 540.089 430.266C538.539 431.036 536.769 431.956 535.629 432.676C533.219 434.216 529.929 435.746 527.959 435.746C526.494 435.592 525.073 435.15 523.779 434.446C519.839 437.066 517.439 439.446 522.919 439.446C528.399 439.446 531.249 437.936 534.529 436.626Z" fill="#263238" stroke="#263238" stroke-linecap="round" stroke-linejoin="round"/>
<path d="M535.408 370.423L536.069 380.723C536.069 380.723 534.749 393.213 536.069 401.723C537.389 410.233 537.379 426.493 537.379 429.123C537.379 431.753 535.379 434.603 531.899 437.673C531.899 437.673 529.049 440.963 530.369 442.933C531.689 444.903 541.109 441.183 541.369 438.993C541.629 436.803 543.779 431.993 543.779 430.443V423.443C543.779 421.913 549.919 401.313 549.259 393.853C548.599 386.393 548.598 375.443 548.598 375.443L548.819 367.773C548.819 367.773 539.138 370.863 535.408 370.423Z" fill="#CFCFCF" stroke="#263238" stroke-linecap="round" stroke-linejoin="round"/>
<path d="M538.478 438.814C535.268 440.324 533.478 437.444 533.098 436.614C532.728 436.984 532.329 437.344 531.899 437.714C531.899 437.714 529.049 441.004 530.369 442.974C531.689 444.944 541.109 441.224 541.369 439.034C541.629 436.844 543.779 432.034 543.779 430.484C542.719 433.394 540.868 437.684 538.478 438.814Z" fill="#263238" stroke="#263238" stroke-linecap="round" stroke-linejoin="round"/>
<path d="M521.381 302.685C521.381 302.685 513.051 321.105 512.381 330.965C511.711 340.825 517.651 366.915 517.651 366.915C517.651 366.915 528.391 371.915 537.371 371.515C542.705 371.282 547.974 370.247 553.001 368.445C553.001 368.445 560.891 345.445 558.481 331.845C556.071 318.245 550.151 304.225 550.151 304.225L522.001 300.715L521.381 302.685Z" fill="#263238" stroke="#263238" stroke-linecap="round" stroke-linejoin="round"/>
<path d="M534.322 256.213C534.322 256.213 538.042 254.023 540.892 254.023H545.282C545.282 254.023 547.282 261.913 547.282 262.793C547.282 263.673 538.952 304.003 538.952 304.003L523.172 302.463C523.172 302.463 523.172 277.043 525.362 269.363C527.552 261.683 534.322 256.213 534.322 256.213Z" fill="white" stroke="#263238" stroke-linecap="round" stroke-linejoin="round"/>
<path d="M522 224.795C522 224.795 520.47 234.005 522.44 240.365C524.41 246.725 529.89 253.515 532.09 253.735C533.717 253.74 535.312 253.282 536.69 252.415L535.88 255.345L534.13 265.645L542.02 266.305C542.02 266.305 545.31 254.685 545.31 254.025C545.31 253.365 545.24 251.765 545.24 251.765L544.36 242.995C545.568 241.01 546.666 238.961 547.65 236.855C548.31 235.105 546.77 232.255 546.77 232.255C546.77 232.255 548.35 222.775 543.05 218.005C536.47 212.085 525.05 217.345 522.22 220.195C519.39 223.045 522 224.795 522 224.795Z" fill="#CFCFCF" stroke="#263238" stroke-linecap="round" stroke-linejoin="round"/>
<path d="M536.662 252.415L539.672 251.535L535.352 259.145L536.662 252.415Z" fill="#263238" stroke="#263238" stroke-linecap="round" stroke-linejoin="round"/>
<path d="M542.999 218.005C535.999 212.085 524.999 217.345 522.169 220.195C519.339 223.045 521.949 224.795 521.949 224.795C521.949 224.795 523.489 223.265 527.429 224.795C531.369 226.325 534.429 234.225 537.299 235.105C539.099 235.647 540.929 236.085 542.779 236.415C542.779 236.415 542.779 233.125 544.309 232.685C545.092 232.444 545.901 232.299 546.719 232.255C546.719 232.255 548.469 222.605 542.999 218.005Z" fill="#263238" stroke="#263238" stroke-linecap="round" stroke-linejoin="round"/>
<path d="M527.008 234.664L528.768 237.294L527.888 244.304L530.738 244.744" stroke="#263238" stroke-linecap="round" stroke-linejoin="round"/>
<path d="M529.859 247.156C530.455 247.269 531.07 247.228 531.646 247.037C532.221 246.847 532.739 246.513 533.149 246.066" stroke="#263238" stroke-linecap="round" stroke-linejoin="round"/>
<path d="M523.727 235.977L524.377 239.047C525.493 239.174 526.623 239.022 527.667 238.607" stroke="#263238" stroke-linecap="round" stroke-linejoin="round"/>
<path d="M532.711 234.664L533.151 237.954C533.151 237.954 536.221 238.824 537.321 238.164" stroke="#263238" stroke-linecap="round" stroke-linejoin="round"/>
<path d="M522.852 233.786C523.945 233.27 525.174 233.116 526.362 233.346" stroke="#263238" stroke-linecap="round" stroke-linejoin="round"/>
<path d="M531 232.477C531 232.477 531.88 231.597 534.29 232.037" stroke="#263238" stroke-linecap="round" stroke-linejoin="round"/>
<path d="M535.85 255.344C535.85 255.344 526.2 259.944 524.01 260.344C521.82 260.744 517.87 262.534 518.09 264.064C518.31 265.594 517.22 289.274 517.87 290.814C518.52 292.354 517.87 304.624 517.44 306.154C517.01 307.684 510 327.674 510 327.674C510 327.674 511.54 329.434 514.83 328.114C518.12 326.794 522.72 312.774 523.59 307.294C524.46 301.814 530.39 277.694 531.92 272.214C533.45 266.734 535.85 255.344 535.85 255.344Z" fill="white" stroke="#263238" stroke-linecap="round" stroke-linejoin="round"/>
<path d="M545.28 254.023C545.28 254.023 540.889 270.903 538.699 277.693C536.509 284.483 534.319 288.443 534.699 293.693C535.079 298.943 534.479 325.473 538.429 329.203C542.379 332.933 547.429 335.333 552.429 335.333C555.912 335.246 559.371 334.732 562.729 333.803C562.729 333.803 556.59 300.263 556.59 299.393C556.59 298.523 566.239 267.603 566.019 264.973C565.799 262.343 545.28 254.023 545.28 254.023Z" fill="white" stroke="#263238" stroke-linecap="round" stroke-linejoin="round"/>
<path d="M527.297 274.844C527.326 278.86 527.624 282.868 528.187 286.844C529.737 280.484 531.187 274.584 531.897 272.194C533.437 266.714 535.897 255.324 535.897 255.324C535.897 255.324 533.487 256.474 530.797 257.674C529.557 261.414 527.297 269.194 527.297 274.844Z" fill="#3693A3" stroke="#263238" stroke-linecap="round" stroke-linejoin="round"/>
<path d="M545.278 254.023C545.278 254.023 540.888 270.903 538.698 277.693C537.518 281.333 536.348 284.163 535.578 286.803C538.761 284.301 541.517 281.299 543.738 277.913C547.338 272.523 549.608 260.343 550.298 256.143C547.408 254.883 545.278 254.023 545.278 254.023Z" fill="#3693A3" stroke="#263238" stroke-linecap="round" stroke-linejoin="round"/>
<path d="M505.999 300.936L503.809 307.296L501.609 299.186C502.432 299.012 503.288 299.085 504.069 299.397C504.851 299.708 505.522 300.244 505.999 300.936Z" fill="#263238" stroke="#263238" stroke-linecap="round" stroke-linejoin="round"/>
<path d="M490.449 276.125L502.939 298.045L519.159 298.925L508.419 276.125H490.449Z" fill="#263238" stroke="#263238" stroke-linecap="round" stroke-linejoin="round"/>
<path d="M501.648 299.185C501.648 299.185 495.518 290.185 494.648 288.005C493.885 286.194 493.439 284.266 493.328 282.305C493.328 280.985 493.768 280.545 494.428 282.085C495.088 283.625 496.428 286.905 496.428 286.905L497.528 280.325C497.528 280.325 498.188 279.235 498.838 280.545C499.488 281.855 498.838 286.905 498.838 286.905L500.598 279.235C500.598 279.235 501.468 277.695 502.128 278.795C502.788 279.895 501.688 286.025 501.688 286.025L503.688 281.425C503.999 281.43 504.299 281.543 504.538 281.743C504.776 281.943 504.939 282.219 504.998 282.525C505.218 283.615 503.468 289.525 503.468 289.525L506.318 286.675C506.318 286.675 507.408 286.235 506.968 287.555C506.166 289.172 505.215 290.712 504.128 292.155C504.664 293.436 505.102 294.757 505.438 296.105C505.254 296.944 504.958 297.754 504.558 298.515L506.098 300.925L505.218 302.675L501.648 299.185Z" fill="#CFCFCF" stroke="#263238" stroke-linecap="round" stroke-linejoin="round"/>
<path d="M517.44 306.196C517.787 303.841 517.987 301.466 518.04 299.086L505.82 300.086L503.82 307.326L516.82 307.876C517.18 307.006 517.37 306.416 517.44 306.196Z" fill="white" stroke="#263238" stroke-linecap="round" stroke-linejoin="round"/>
<path d="M536.071 292.825C536.071 292.825 528.981 287.245 527.551 286.015C525.621 284.365 522.261 284.935 522.261 284.935C522.261 284.935 517.001 288.445 516.121 289.315C515.241 290.185 515.241 291.075 516.121 290.855C517.714 290.088 519.251 289.209 520.721 288.225L520.941 291.505L525.551 292.825L526.861 291.505C527.51 292.014 528.255 292.388 529.051 292.605C529.791 292.721 530.548 292.645 531.251 292.385L535.411 296.115L536.071 292.825Z" fill="#CFCFCF" stroke="#263238" stroke-linecap="round" stroke-linejoin="round"/>
<path d="M558.65 261.035C558.65 261.035 567.2 262.795 568.29 265.645C569.38 268.495 568.51 312.995 567.63 314.305C566.75 315.615 533 298.555 533 298.555L535.85 291.975L555.36 297.235L554 275.725" fill="white"/>
<path d="M558.65 261.035C558.65 261.035 567.2 262.795 568.29 265.645C569.38 268.495 568.51 312.995 567.63 314.305C566.75 315.615 533 298.555 533 298.555L535.85 291.975L555.36 297.235L554 275.725" stroke="#263238" stroke-linecap="round" stroke-linejoin="round"/>
<path d="M522.309 291.716C522.309 291.716 522.589 286.476 522.769 285.836" stroke="#263238" stroke-linecap="round" stroke-linejoin="round"/>
<path d="M524.059 291.997C524.059 291.997 524.519 287.127 524.699 286.297" stroke="#263238" stroke-linecap="round" stroke-linejoin="round"/>
<path d="M526.861 291.506L526.821 290.246L525.711 290.066" stroke="#263238" stroke-linecap="round" stroke-linejoin="round"/>
<path d="M339.28 432.744C339.28 432.744 337.97 436.984 338.99 439.024C340.01 441.064 342.21 441.514 345.27 441.224C348.33 440.934 360.18 438.294 361.79 438.004C362.981 437.762 364.151 437.428 365.29 437.004C361.417 435.727 357.465 434.702 353.46 433.934C348.2 433.054 340.31 431.594 340.31 431.594L339.28 432.744Z" fill="white" stroke="#263238" stroke-linecap="round" stroke-linejoin="round"/>
<path d="M340.312 431.555L339.312 432.725C339.312 432.725 338.002 436.965 339.022 439.005C339.792 440.545 341.212 441.175 343.182 441.265C342.184 440.334 341.456 439.153 341.072 437.845C340.789 436.833 340.744 435.769 340.94 434.737C341.136 433.705 341.568 432.732 342.202 431.895L340.312 431.555Z" fill="white" stroke="#263238" stroke-linecap="round" stroke-linejoin="round"/>
<path d="M350.001 398.985L344.741 415.355L327.641 414.045C327.641 414.045 338.021 423.835 345.641 428.365C353.261 432.895 366.971 437.125 375.591 435.085C384.211 433.045 405.001 413.745 405.001 413.745L386.741 414.045L383.001 398.555L350.001 398.985Z" fill="#263238" stroke="#263238" stroke-linecap="round" stroke-linejoin="round"/>
<path d="M365.292 319.125C365.292 319.125 354.552 321.125 353.242 324.385C351.932 327.645 353.022 335.385 353.902 340.385C354.782 345.385 356.962 346.085 353.242 349.815C349.522 353.545 353.022 357.485 356.532 359.455C360.042 361.425 364.862 358.805 365.952 356.605" fill="#263238"/>
<path d="M365.292 319.125C365.292 319.125 354.552 321.125 353.242 324.385C351.932 327.645 353.022 335.385 353.902 340.385C354.782 345.385 356.962 346.085 353.242 349.815C349.522 353.545 353.022 357.485 356.532 359.455C360.042 361.425 364.862 358.805 365.952 356.605" stroke="#263238" stroke-linecap="round" stroke-linejoin="round"/>
<path d="M337.243 381.152C337.243 381.152 331.543 396.942 332.123 398.252C332.703 399.562 347.173 415.062 347.613 415.062C348.053 415.062 350.393 416.522 351.123 416.522C351.566 416.566 352.012 416.515 352.433 416.372C353.258 416.231 354.089 416.134 354.923 416.082L356.533 417.542L361.793 416.962C361.793 416.962 358.433 412.432 356.963 411.842C355.493 411.252 349.223 410.532 349.223 410.532L341.223 395.622L345.313 386.272L337.243 381.152Z" fill="#CFCFCF" stroke="#263238" stroke-linecap="round" stroke-linejoin="round"/>
<path d="M356.535 360.262C356.535 360.262 344.985 361.132 343.815 361.432C343.365 361.5 342.936 361.667 342.558 361.919C342.18 362.171 341.861 362.503 341.625 362.892C341.185 363.622 333.625 380.282 333.625 380.282L346.005 387.732L347.615 383.642L350.005 398.982H383.175L384.055 384.082L387.275 388.612L400.715 378.962C400.715 378.962 387.715 360.702 384.055 360.262C380.395 359.822 356.535 360.262 356.535 360.262Z" fill="white" stroke="#263238" stroke-linecap="round" stroke-linejoin="round"/>
<path d="M361.201 352.805C361.201 352.805 360.471 356.465 360.031 357.805C359.591 359.145 356.531 360.295 356.531 360.295C356.531 360.295 359.161 367.455 366.171 369.065C371.311 370.235 375.091 365.405 375.821 364.385C376.551 363.365 377.281 359.705 377.281 359.705C377.281 359.705 374.061 356.935 373.921 356.345C373.781 355.755 373.471 353.345 373.471 353.345C373.471 353.345 365.591 354.855 361.201 352.805Z" fill="#CFCFCF" stroke="#263238" stroke-linecap="round" stroke-linejoin="round"/>
<path d="M364.423 327.014L355.873 338.634C355.873 338.634 352.363 333.814 352.363 338.414C352.363 343.014 354.363 344.114 354.993 344.334C355.623 344.554 356.533 344.774 356.533 344.774C357.449 347.962 359.1 350.891 361.353 353.324C364.863 356.824 368.353 357.484 371.433 355.734C374.513 353.984 376.693 348.494 376.693 348.494C376.693 348.494 378.893 341.264 378.453 337.754C378.013 334.244 367.923 325.704 364.423 327.014Z" fill="#CFCFCF" stroke="#263238" stroke-linecap="round" stroke-linejoin="round"/>
<path d="M363.595 342.162C363.705 342.862 363.405 343.492 362.925 343.562C362.445 343.632 361.925 343.132 361.855 342.422C361.785 341.712 362.055 341.092 362.535 341.022C363.015 340.952 363.495 341.452 363.595 342.162Z" fill="#263238"/>
<path d="M370.191 342.162C370.091 342.862 370.391 343.492 370.871 343.562C371.351 343.632 371.871 343.132 371.941 342.422C372.011 341.712 371.741 341.092 371.261 341.022C370.781 340.952 370.301 341.452 370.191 342.162Z" fill="#263238"/>
<path d="M365.695 348.664C365.74 348.824 365.816 348.973 365.919 349.102C366.023 349.232 366.151 349.339 366.296 349.418C366.441 349.498 366.601 349.547 366.766 349.563C366.931 349.58 367.097 349.563 367.255 349.514C367.592 349.467 367.906 349.32 368.158 349.092C368.409 348.864 368.586 348.565 368.665 348.234" stroke="#263238" stroke-linecap="round" stroke-linejoin="round"/>
<path d="M364.562 350.784C364.562 350.784 367.672 352.194 369.652 350.504" stroke="#263238" stroke-linecap="round" stroke-linejoin="round"/>
<path d="M360.184 340.035C360.184 340.035 360.744 338.195 364.284 338.905" stroke="#263238" stroke-linecap="round" stroke-linejoin="round"/>
<path d="M368.664 339.045C369.084 338.846 369.544 338.742 370.009 338.742C370.474 338.742 370.934 338.846 371.354 339.045" stroke="#263238" stroke-linecap="round" stroke-linejoin="round"/>
<path d="M364.204 326.134C364.204 326.134 375.204 345.644 375.824 348.494C376.444 351.344 372.314 354.854 374.504 357.494C376.694 360.134 379.984 363.414 379.984 363.414C379.984 363.414 374.984 365.414 376.694 366.924C378.404 368.434 387.434 366.044 390.064 363.414C392.694 360.784 388.974 356.834 388.064 354.414C387.154 351.994 390.254 346.524 389.384 339.294C388.514 332.064 379.074 320.434 373.594 318.464C368.114 316.494 363.734 318.904 361.984 321.094" fill="#263238"/>
<path d="M364.204 326.134C364.204 326.134 375.204 345.644 375.824 348.494C376.444 351.344 372.314 354.854 374.504 357.494C376.694 360.134 379.984 363.414 379.984 363.414C379.984 363.414 374.984 365.414 376.694 366.924C378.404 368.434 387.434 366.044 390.064 363.414C392.694 360.784 388.974 356.834 388.064 354.414C387.154 351.994 390.254 346.524 389.384 339.294C388.514 332.064 379.074 320.434 373.594 318.464C368.114 316.494 363.734 318.904 361.984 321.094" stroke="#263238" stroke-linecap="round" stroke-linejoin="round"/>
<path d="M362.723 355.024C362.723 355.024 361.173 357.294 362.303 358.024C363.433 358.754 364.703 359.584 364.703 359.584C364.703 359.584 364.283 363.584 365.133 364.814C365.983 366.044 369.653 367.814 369.653 367.814C369.653 367.814 376.303 376.444 380.973 381.254C385.643 386.064 394.833 395.544 397.103 395.544C399.373 395.544 402.473 390.734 402.193 386.914C401.913 383.094 390.733 378.144 388.613 376.444C386.493 374.744 373.473 366.444 373.473 366.444C373.473 366.444 372.913 359.794 373.053 358.384C373.193 356.974 372.913 354.384 373.473 353.384C374.033 352.384 372.343 352.964 371.473 354.384C371.008 355.06 370.716 355.839 370.623 356.654L362.723 355.024Z" fill="#CFCFCF" stroke="#263238" stroke-linecap="round" stroke-linejoin="round"/>
<path d="M388.821 395.773H343.961V422.813H388.821V395.773Z" fill="#B0B0B0" stroke="#263238" stroke-linecap="round" stroke-linejoin="round"/>
<path d="M366.762 430.843C366.762 430.843 388.382 421.933 394.232 417.403C400.082 412.873 406.072 410.673 409.572 411.703C413.072 412.733 415.132 419.443 413.522 423.833C411.912 428.223 399.342 430.263 393.942 432.163C388.542 434.063 372.002 436.833 372.002 436.833L364.402 432.593L366.762 430.843Z" fill="#263238" stroke="#263238" stroke-linecap="round" stroke-linejoin="round"/>
<path d="M368.221 431.133C368.221 431.133 373.921 432.453 379.031 433.913C384.141 435.373 385.031 435.523 385.031 435.523C385.031 435.523 397.311 433.033 399.211 432.593C401.111 432.153 405.051 433.763 405.491 436.543C405.931 439.323 404.911 441.073 403.491 441.803C402.071 442.533 399.541 442.533 397.791 442.533C396.041 442.533 386.241 441.653 384.791 441.533C383.341 441.413 366.961 438.313 366.961 438.313L368.221 431.133Z" fill="white" stroke="#263238" stroke-linecap="round" stroke-linejoin="round"/>
<path d="M384.633 441.552H384.733C386.193 441.692 395.983 442.552 397.733 442.552C399.483 442.552 401.963 442.552 403.433 441.822C404.903 441.092 405.913 439.342 405.433 436.562C404.953 433.782 401.053 432.182 399.153 432.612C397.253 433.042 385.003 435.552 385.003 435.552C385.003 435.552 386.233 439.272 384.633 441.552Z" fill="white" stroke="#263238" stroke-linecap="round" stroke-linejoin="round"/>
<path d="M366.763 430.844C360.04 428.602 353.61 425.56 347.613 421.784C337.973 415.644 325.253 410.784 323.503 410.674C321.753 410.564 317.223 414.774 318.383 419.734C319.543 424.694 329.383 430.264 331.243 430.994C333.103 431.724 359.303 438.734 364.563 438.734L366.763 430.844Z" fill="#263238" stroke="#263238" stroke-linecap="round" stroke-linejoin="round"/>
<path d="M363.253 429.233C363.253 429.233 360.913 437.123 360.763 437.713C360.613 438.303 360.333 439.023 361.493 439.463C362.969 439.898 364.495 440.143 366.033 440.193C366.903 440.193 367.493 438.193 367.783 437.423C368.417 435.373 368.856 433.267 369.093 431.133C369.093 429.823 366.613 429.383 365.733 429.133C364.909 428.98 364.062 429.014 363.253 429.233Z" fill="#D9D9D9" stroke="#263238" stroke-linecap="round" stroke-linejoin="round"/>
<path d="M267.866 133.344C267.866 133.344 268.376 133.854 270.576 134.024C272.776 134.194 275.156 134.874 277.696 134.194C280.236 133.514 281.756 133.194 280.916 134.364C280.076 135.534 274.136 138.764 273.286 139.104C272.436 139.444 269.736 139.614 269.056 140.294C268.376 140.974 267.866 142.834 266.176 143.004C264.486 143.174 261.266 137.074 261.266 137.074L266.516 132.664L267.866 133.344Z" fill="#B0B0B0" stroke="#263238" stroke-linecap="round" stroke-linejoin="round"/>
<path d="M215.187 125.389C215.187 125.389 229.247 113.389 238.057 108.109C246.867 102.829 248.727 101.339 249.917 101.669C251.107 101.999 269.917 132.509 269.917 132.509L260.087 140.509L247.557 116.109C247.557 116.109 229.767 133.219 225.197 136.269C220.627 139.319 211.467 130.509 210.967 129.159C210.467 127.809 215.187 125.389 215.187 125.389Z" fill="#263238" stroke="#263238" stroke-linecap="round" stroke-linejoin="round"/>
<path d="M240.188 143.847L264.288 143.967L258.528 138.817L237.008 138.207L240.188 143.847Z" fill="white" stroke="#263238" stroke-linecap="round" stroke-linejoin="round"/>
<path d="M264.287 143.965L278.637 125.245L270.147 122.625L258.527 138.815L264.287 143.965Z" fill="white" stroke="#263238" stroke-linecap="round" stroke-linejoin="round"/>
<path d="M225.688 98.625L233.488 117.425L245.678 134.025C245.678 134.025 250.088 134.195 250.928 134.365C251.768 134.535 254.148 134.705 255.168 135.885C256.006 137.192 256.634 138.623 257.028 140.125L256.028 140.295L254.028 138.095L250.308 137.245C250.308 137.245 245.898 136.905 244.888 136.395C243.878 135.885 238.958 132.165 238.958 132.165L222.688 111.835L220.148 104.715L225.688 98.625Z" fill="#B0B0B0" stroke="#263238" stroke-linecap="round" stroke-linejoin="round"/>
<path d="M244.828 131.879L241.108 134.879L222.578 115.619L220.668 105.569L227.048 99.4688L233.588 115.139L244.828 131.879Z" fill="#3693A3" stroke="#263238" stroke-linecap="round" stroke-linejoin="round"/>
<path d="M218.069 192.805C218.069 192.805 211.459 202.965 211.299 204.325C211.212 204.963 211.35 205.612 211.689 206.159C212.029 206.707 212.548 207.119 213.159 207.325C214.509 207.835 217.219 208.845 218.919 209.695C220.619 210.545 224.339 212.575 227.049 212.575C229.759 212.575 230.439 211.725 229.589 210.885C228.739 210.045 223.659 205.625 223.149 204.615C222.383 202.92 221.76 201.164 221.289 199.365C221.289 198.855 222.809 194.115 222.809 194.115L218.069 192.805Z" fill="#B0B0B0" stroke="#263238" stroke-linecap="round" stroke-linejoin="round"/>
<path d="M193.338 122.555C190.492 126.339 189.162 131.05 189.608 135.765C190.608 144.405 197.738 146.615 204.178 148.475C210.618 150.335 235.008 156.775 235.008 156.775C235.008 156.775 228.068 164.055 225.518 170.155C222.968 176.255 216.208 193.875 216.208 193.875L228.568 199.555L244.498 167.055C244.498 167.055 248.388 160.115 249.068 156.555C249.748 152.995 248.728 150.795 248.388 150.285C248.048 149.775 227.048 135.555 223.148 133.005C220.912 131.524 218.529 130.278 216.038 129.285L193.338 122.555Z" fill="#263238" stroke="#263238" stroke-linecap="round" stroke-linejoin="round"/>
<path d="M224.999 89.1335C224.999 89.1335 222.289 79.9835 217.999 78.8035C213.709 77.6235 208.849 81.8035 204.999 86.4235C201.149 91.0435 201.779 101.834 201.779 104.884C201.779 107.934 193.139 121.324 192.289 124.194C192.289 124.194 195.849 126.744 202.799 128.264C207.425 129.197 212.142 129.596 216.859 129.454C216.859 129.454 218.209 119.794 218.549 116.744C218.889 113.694 221.259 109.294 223.119 108.104C224.979 106.914 226.849 103.534 227.019 99.4635C227.189 95.3935 224.999 89.1335 224.999 89.1335Z" fill="#3693A3" stroke="#263238" stroke-linecap="round" stroke-linejoin="round"/>
<path d="M238.91 133.855L242.97 135.715C242.97 135.715 251.44 136.225 252.12 136.225C252.8 136.225 254.32 141.135 254.32 141.135C254.32 141.135 253.81 141.645 253.14 140.975C252.47 140.305 251.78 139.445 251.78 139.445C251.78 139.445 247.55 139.785 245.85 139.785C244.15 139.785 241.11 137.785 241.11 137.785L237 136.055L238.91 133.855Z" fill="#B0B0B0" stroke="#263238" stroke-linecap="round" stroke-linejoin="round"/>
<path d="M208.578 90.4858C208.578 90.4858 213.838 108.616 215.698 113.186C217.558 117.756 222.308 123.356 223.998 125.556C225.688 127.756 238.398 137.556 238.398 137.556L241.108 134.846L227.608 114.626C227.608 114.626 220.778 87.6258 220.948 86.7358C221.118 85.8458 218.948 83.5158 217.388 83.1758" fill="#3693A3"/>
<path d="M208.578 90.4858C208.578 90.4858 213.838 108.616 215.698 113.186C217.558 117.756 222.308 123.356 223.998 125.556C225.688 127.756 238.398 137.556 238.398 137.556L241.108 134.846L227.608 114.626C227.608 114.626 220.778 87.6258 220.948 86.7358C221.118 85.8458 218.948 83.5158 217.388 83.1758" stroke="#263238" stroke-linecap="round" stroke-linejoin="round"/>
<path d="M249.067 60.8461C249.067 60.8461 249.577 66.9461 248.727 68.9761C247.877 71.0061 243.997 72.1961 243.997 73.8861C243.997 75.5761 244.167 77.2761 243.317 77.9561C242.467 78.6361 240.947 77.9561 240.947 77.9561C240.646 78.9038 240.055 79.7329 239.257 80.3261C237.897 81.3261 238.137 81.3261 238.137 81.3261C237.008 82.4019 235.549 83.0644 233.997 83.2061C231.797 83.2061 230.107 80.1561 229.597 79.8161C229.087 79.4761 227.707 80.4361 226.377 81.3461C224.627 82.5361 223.327 88.9661 223.327 88.9661C223.327 88.9661 218.417 79.6461 217.907 79.4761C217.397 79.3061 214.297 79.0961 214.297 79.0961C214.297 79.0961 219.297 76.5961 219.937 74.5661C220.577 72.5361 219.937 69.3161 219.937 68.6361C219.937 67.9561 220.277 61.0161 223.157 57.4561C226.037 53.8961 238.227 52.8861 242.797 52.5561C247.367 52.2261 249.067 60.8461 249.067 60.8461Z" fill="#B0B0B0" stroke="#263238" stroke-linecap="round" stroke-linejoin="round"/>
<path d="M249.068 60.8462C249.068 60.8462 247.378 59.8462 247.068 62.7062C246.758 65.5662 247.238 65.7562 245.198 65.9262C243.158 66.0962 242.318 66.6062 242.318 67.7962C242.318 68.9862 240.798 69.4862 239.608 69.4862C238.418 69.4862 237.408 67.7962 236.728 69.4862C236.048 71.1762 233.728 72.0262 232.158 72.0262C230.588 72.0262 230.468 73.0262 227.758 73.5562C225.048 74.0862 224.538 71.1762 224.538 71.1762C223.081 71.4818 221.609 71.7088 220.128 71.8562C219.128 71.8562 219.288 67.6262 219.288 67.6262C218.002 67.868 216.695 67.9786 215.388 67.9562C214.388 67.7962 213.528 65.4162 213.528 64.5762C213.528 63.7362 211.658 62.3662 211.658 61.1862V59.1862C211.658 59.1862 211.158 56.3062 211.488 55.6262C211.818 54.9462 213.998 53.5562 213.998 52.7162C213.998 51.8762 213.318 47.9762 214.498 46.4462C215.678 44.9162 216.878 43.4462 218.058 43.4462C219.238 43.4462 219.588 41.2462 221.448 40.9062C222.73 40.6446 224.039 40.5306 225.348 40.5662C226.698 40.5662 227.548 38.8762 229.068 38.5662C231.07 38.4034 233.084 38.6345 234.998 39.2462C235.678 39.5862 236.188 39.5862 237.538 39.0762C238.419 38.8859 239.332 38.8929 240.21 39.097C241.088 39.301 241.91 39.6969 242.618 40.2562C243.65 41.2032 244.956 41.7984 246.348 41.9562C247.198 41.9562 248.038 41.4462 249.228 43.6462C250.418 45.8462 252.448 46.1862 253.628 47.2062C254.122 47.6421 254.493 48.2009 254.702 48.8261C254.911 49.4513 254.951 50.1206 254.818 50.7662C254.648 51.9462 255.498 52.9662 256.178 54.3162C256.488 54.8651 256.637 55.4908 256.607 56.1208C256.577 56.7508 256.369 57.3594 256.008 57.8762C255.328 58.7262 255.838 60.4162 256.008 61.0962C256.178 61.7762 254.308 63.0962 252.788 63.6362C251.268 64.1762 249.748 64.9162 249.068 60.8462Z" fill="#263238" stroke="#263238" stroke-linecap="round" stroke-linejoin="round"/>
<path d="M243.519 72.6574C243.149 73.3174 242.619 73.7274 242.329 73.5674C242.039 73.4074 242.089 72.7374 242.449 72.0774C242.809 71.4174 243.339 71.0074 243.639 71.1674C243.939 71.3274 243.879 71.9974 243.519 72.6574Z" fill="#263238"/>
<path d="M242.68 69.0284C242.68 69.0284 244.5 68.1184 245.56 70.8484" stroke="#263238" stroke-linecap="round" stroke-linejoin="round"/>
<path d="M111 265.754C111 265.754 114.06 270.554 114.93 272.014C115.8 273.474 115.66 276.694 115.66 276.694L119.17 280.194L115 283.414C115 283.414 110.61 280.494 109.74 280.054C108.86 279.657 107.921 279.411 106.96 279.324C106.52 279.324 102.43 274.204 102.43 274.204L100 272.554L101.44 268.554L107.87 270.454L111 265.754Z" fill="#CFCFCF" stroke="#263238" stroke-linecap="round" stroke-linejoin="round"/>
<path d="M96.0312 266.382L110.501 280.193L115.761 275.592L102.831 263.312L96.0312 266.382Z" fill="#263238" stroke="#263238" stroke-linecap="round" stroke-linejoin="round"/>
<path d="M108.891 265.185C108.65 265.199 108.421 265.293 108.239 265.452C108.058 265.612 107.935 265.827 107.891 266.065C107.591 267.665 107.091 270.955 108.061 271.235C108.277 271.323 108.51 271.359 108.742 271.338C108.974 271.317 109.198 271.241 109.394 271.115C109.59 270.989 109.753 270.818 109.869 270.616C109.985 270.415 110.051 270.188 110.061 269.955C110.241 269.035 111.341 266.485 110.971 265.755C110.661 265.175 109.921 265.165 108.891 265.185Z" fill="#CFCFCF" stroke="#263238" stroke-linecap="round" stroke-linejoin="round"/>
<path d="M99.1015 268.366C99.1015 268.366 97.1016 272.086 98.6616 273.186C100.222 274.286 100.202 272.086 100.662 270.776C101.122 269.466 101.072 267.706 99.1015 268.366Z" fill="#CFCFCF" stroke="#263238" stroke-linecap="round" stroke-linejoin="round"/>
<path d="M102.834 272.085C102.834 272.085 101.074 275.595 101.734 276.695C102.394 277.795 103.274 276.695 103.734 275.595C104.114 274.923 104.34 274.175 104.394 273.405C104.404 271.485 102.834 272.085 102.834 272.085Z" fill="#CFCFCF" stroke="#263238" stroke-linecap="round" stroke-linejoin="round"/>
<path d="M104.651 273.655C104.651 273.655 102.901 277.155 103.551 278.255C104.201 279.355 105.091 278.255 105.551 277.155C105.934 276.485 106.156 275.735 106.201 274.965C106.231 273.045 104.651 273.655 104.651 273.655Z" fill="#CFCFCF" stroke="#263238" stroke-linecap="round" stroke-linejoin="round"/>
<path d="M106.731 275.386C106.731 275.386 104.981 278.896 105.641 279.996C106.301 281.096 107.171 279.996 107.641 278.896C108.021 278.224 108.247 277.476 108.301 276.706C108.311 274.786 106.731 275.386 106.731 275.386Z" fill="#CFCFCF" stroke="#263238" stroke-linecap="round" stroke-linejoin="round"/>
<path d="M118.831 278.152L112.551 284.582L129.201 298.172L130.811 286.922L118.831 278.152Z" fill="#3693A3" stroke="#263238" stroke-linecap="round" stroke-linejoin="round"/>
<path d="M126.941 305.965C126.941 305.965 123.781 317.595 123.941 319.375C124.061 320.421 124.128 321.472 124.141 322.525C124.141 322.525 115.261 333.375 110.731 343.035C106.201 352.695 105.801 358.225 107.181 359.205C108.561 360.185 127.291 368.475 129.261 368.875L131.261 369.265L147.261 374.785L148.841 376.565L151.991 375.565C153.371 374.775 154.161 369.455 154.561 367.285C154.961 365.115 155.941 364.125 154.951 363.935C154.035 363.827 153.108 363.827 152.191 363.935C152.191 363.935 152.781 362.745 151.801 362.745H149.001C149.001 362.745 136.001 357.425 133.821 356.245C131.641 355.065 126.131 352.105 126.131 352.105L139.001 342.845C139.001 342.845 154.581 333.775 156.751 330.025C158.921 326.275 160.101 319.175 160.101 316.215C160.101 313.255 138.601 303.215 134.861 303.215C131.121 303.215 127.131 303.995 126.941 305.965Z" fill="#263238" stroke="#263238" stroke-linecap="round" stroke-linejoin="round"/>
<path d="M154.94 363.945C154.94 363.945 165.94 364.335 167.56 365.125C169.18 365.915 169.14 368.675 169.14 370.645C169.14 372.615 167.56 377.155 167.96 379.325C168.36 381.495 168.43 384.075 168.74 387.215C169.34 393.125 167.61 393.745 166.58 393.525C162.83 392.735 162.43 388.195 160.66 383.865C158.89 379.535 157.9 377.155 157.9 377.155L152 375.555C152 375.555 153.17 366.905 154.94 363.945Z" fill="white" stroke="#263238" stroke-linecap="round" stroke-linejoin="round"/>
<path d="M167.562 365.126C166.654 364.831 165.714 364.649 164.762 364.586C165.553 367.596 165.962 370.694 165.982 373.806C165.982 379.916 167.172 387.016 166.582 391.556C166.482 392.286 166.382 392.896 166.282 393.436C166.38 393.472 166.48 393.502 166.582 393.526C167.582 393.746 169.342 393.126 168.742 387.216C168.432 384.076 168.352 381.496 167.962 379.326C167.572 377.156 169.142 372.616 169.142 370.646C169.142 368.676 169.142 365.916 167.562 365.126Z" fill="white" stroke="#263238" stroke-linecap="round" stroke-linejoin="round"/>
<path d="M129.35 322.556C129.35 322.556 131.76 337.466 130.88 346.226C130 354.986 130.67 374.506 131.54 379.986C132.41 385.466 131.76 401.906 131.76 404.756C131.788 406.149 131.715 407.543 131.54 408.926C131.54 408.926 129.13 408.706 129.35 410.016C129.487 410.886 129.56 411.765 129.57 412.646C131.101 413.866 132.906 414.693 134.83 415.056C138.12 415.716 141.63 416.376 142.28 415.496C142.93 414.616 142.72 411.776 142.72 411.776C143.079 411.44 143.363 411.032 143.553 410.579C143.742 410.125 143.833 409.637 143.82 409.146V406.456C143.82 406.456 146.89 393.746 146.67 386.076C146.45 378.406 144.91 374.016 145.35 372.076C145.79 370.136 155.65 340.076 155.65 340.076C155.65 340.076 158.72 333.496 159.38 329.336C159.846 325.715 159.001 322.048 157 318.996C155.68 317.246 135.52 311.766 135.52 311.766" fill="#263238"/>
<path d="M129.35 322.556C129.35 322.556 131.76 337.466 130.88 346.226C130 354.986 130.67 374.506 131.54 379.986C132.41 385.466 131.76 401.906 131.76 404.756C131.788 406.149 131.715 407.543 131.54 408.926C131.54 408.926 129.13 408.706 129.35 410.016C129.487 410.886 129.56 411.765 129.57 412.646C131.101 413.866 132.906 414.693 134.83 415.056C138.12 415.716 141.63 416.376 142.28 415.496C142.93 414.616 142.72 411.776 142.72 411.776C143.079 411.44 143.363 411.032 143.553 410.579C143.742 410.125 143.833 409.637 143.82 409.146V406.456C143.82 406.456 146.89 393.746 146.67 386.076C146.45 378.406 144.91 374.016 145.35 372.076C145.79 370.136 155.65 340.076 155.65 340.076C155.65 340.076 158.72 333.496 159.38 329.336C159.846 325.715 159.001 322.048 157 318.996C155.68 317.246 135.52 311.766 135.52 311.766" stroke="#263238" stroke-linecap="round" stroke-linejoin="round"/>
<path d="M134.911 254.274C134.911 254.274 129.541 265.494 129.541 272.494C129.541 279.494 127.431 291.364 127.431 294.614C127.431 297.864 124.501 302.754 125.801 305.554C127.101 308.354 134.581 308.314 135.231 308.314C135.881 308.314 140.121 308.474 140.931 308.154C141.741 307.834 143.211 280.984 143.211 274.804C143.211 268.624 143.531 252.804 143.371 250.884C143.211 248.964 136.861 250.694 134.911 254.274Z" fill="white" stroke="#263238" stroke-linecap="round" stroke-linejoin="round"/>
<path d="M143.821 243.155C139.443 250.59 136.75 258.895 135.931 267.485C134.391 282.175 130.231 308.255 133.301 311.105C136.371 313.955 144.041 315.925 147.541 317.685C151.041 319.445 156.751 322.285 158.721 323.385C160.691 324.485 163.981 323.165 163.981 323.165C163.981 323.165 166.611 299.925 165.741 289.625C164.871 279.325 163.551 262.005 159.381 253.675C155.211 245.345 144.911 242.055 143.821 243.155Z" fill="#3693A3" stroke="#263238" stroke-linecap="round" stroke-linejoin="round"/>
<path d="M144.263 317.684L141.633 320.534L146.013 326.444L148.643 321.404L144.263 317.684Z" fill="#CFCFCF" stroke="#263238" stroke-linecap="round" stroke-linejoin="round"/>
<path d="M144.264 258.053C144.264 258.053 140.534 267.703 142.504 275.593C144.474 283.483 149.744 299.923 149.744 299.923L143.164 317.683L149.744 323.603C149.744 323.603 163.554 300.803 163.554 297.733C163.554 294.663 160.484 263.313 159.164 259.153C157.844 254.993 155.654 251.043 152.374 251.043" fill="#3693A3"/>
<path d="M144.264 258.053C144.264 258.053 140.534 267.703 142.504 275.593C144.474 283.483 149.744 299.923 149.744 299.923L143.164 317.683L149.744 323.603C149.744 323.603 163.554 300.803 163.554 297.733C163.554 294.663 160.484 263.313 159.164 259.153C157.844 254.993 155.654 251.043 152.374 251.043" stroke="#263238" stroke-linecap="round" stroke-linejoin="round"/>
<path d="M130.45 413.254C130.45 413.254 128.91 413.914 128.91 415.004C128.91 416.094 127.6 422.004 127.6 422.004C127.6 422.004 116.86 425.724 114.88 426.164C112.9 426.604 112.25 430.114 112.88 431.164C113.51 432.214 120.77 433.164 127.13 433.364C133.49 433.564 140.94 433.584 141.6 432.484C142.26 431.384 142.03 420.644 142.03 420.644L142.25 415.384C138.259 415.045 134.308 414.332 130.45 413.254Z" fill="white" stroke="#263238" stroke-linecap="round" stroke-linejoin="round"/>
<path d="M112.711 430.613C112.739 430.827 112.807 431.034 112.911 431.223C113.571 432.323 120.801 433.223 127.161 433.423C133.521 433.623 140.971 433.643 141.631 432.543C141.778 432.149 141.863 431.734 141.881 431.313C132.471 432.923 118.901 431.453 112.711 430.613Z" fill="white" stroke="#263238" stroke-linecap="round" stroke-linejoin="round"/>
<path d="M112.471 216.194C112.471 216.194 107.871 220.354 108.311 226.274C108.751 232.194 109.621 234.384 110.311 235.044C111.135 235.703 112.015 236.289 112.941 236.794C112.941 236.794 112.501 243.154 113.821 243.594C115.043 243.856 116.297 243.931 117.541 243.814C117.541 243.814 121.051 250.164 123.021 250.384C124.991 250.604 128.941 246.664 128.941 246.664L135.521 252.574L142.971 241.174L138.811 236.574C138.811 236.574 140.811 224.304 137.931 217.724C135.051 211.144 118.001 207.864 112.471 216.194Z" fill="#CFCFCF" stroke="#263238" stroke-linecap="round" stroke-linejoin="round"/>
<path d="M128.914 246.653L131.974 243.562L131.494 248.103L128.914 246.653Z" fill="#263238" stroke="#263238" stroke-linecap="round" stroke-linejoin="round"/>
<path d="M132.001 235.694C132.001 235.694 135.911 235.994 138.901 235.864C139.261 233.154 140.361 223.354 137.901 217.724C135.051 211.144 117.901 207.864 112.471 216.194C110.859 217.781 109.634 219.718 108.891 221.854C109.201 222.364 109.641 222.654 110.281 222.104C111.811 220.794 116.421 220.354 116.861 222.764C117.301 225.174 116.861 227.374 119.491 226.714C120.858 226.279 122.337 226.357 123.651 226.934C123.651 226.934 125.401 230.004 126.501 229.344C127.601 228.684 126.721 227.344 128.041 225.834C129.361 224.324 134.391 226.714 134.611 230.004C134.831 233.294 132.001 235.694 132.001 235.694Z" fill="#263238" stroke="#263238" stroke-linecap="round" stroke-linejoin="round"/>
<path d="M117.001 234.915C117.481 235.495 117.601 236.185 117.261 236.465C116.921 236.745 116.261 236.465 115.791 235.915C115.321 235.365 115.191 234.645 115.531 234.365C115.871 234.085 116.471 234.335 117.001 234.915Z" fill="#263238"/>
<path d="M113.691 234.133C113.691 234.133 113.161 232.133 115.691 232.133" stroke="#263238" stroke-linecap="round" stroke-linejoin="round"/>
<path d="M142.391 239.145L132.961 253.455L137.191 258.985L146.621 242.235L142.391 239.145Z" fill="white" stroke="#263238" stroke-linecap="round" stroke-linejoin="round"/>
</g>
<defs>
<clipPath id="clip0_4167_79654">
<rect width="851" height="442" fill="white"/>
</clipPath>
</defs>
</svg>
