<svg width="245" height="123" viewBox="0 0 245 123" fill="none" xmlns="http://www.w3.org/2000/svg">
<g clip-path="url(#clip0_5654_78475)">
<path d="M67.1189 100.121C73.743 100.121 79.1128 94.7557 79.1128 88.1376C79.1128 81.5194 73.743 76.1543 67.1189 76.1543C60.4949 76.1543 55.125 81.5194 55.125 88.1376C55.125 94.7557 60.4949 100.121 67.1189 100.121Z" fill="#E4E4E4"/>
<path opacity="0.2" d="M58.2657 80.1328C57.1469 82.7475 56.9952 85.6744 57.8375 88.3906C58.6799 91.1068 60.4614 93.4352 62.8639 94.9598C65.2663 96.4844 68.1331 97.1058 70.9519 96.713C73.7707 96.3202 76.3579 94.9387 78.2511 92.8156C77.5677 94.413 76.5448 95.8429 75.2534 97.0062C73.9619 98.1695 72.4328 99.0383 70.7719 99.5525C69.111 100.067 67.3581 100.214 65.6345 99.9842C63.911 99.7543 62.2581 99.1529 60.7904 98.2214C59.3226 97.29 58.0751 96.0508 57.1342 94.5899C56.1934 93.1289 55.5817 91.481 55.3415 89.7604C55.1014 88.0398 55.2385 86.2876 55.7434 84.6252C56.2483 82.9628 57.109 81.4299 58.2657 80.1328Z" fill="black"/>
<path d="M67.1497 88.1367H67.1824L67.7756 122.111H66.5234L67.1497 88.1367Z" fill="#3F3D56"/>
<path d="M42.8538 77.7721C56.209 77.7721 67.0356 66.9551 67.0356 53.6116C67.0356 40.2682 56.209 29.4512 42.8538 29.4512C29.4985 29.4512 18.6719 40.2682 18.6719 53.6116C18.6719 66.9551 29.4985 77.7721 42.8538 77.7721Z" fill="#E4E4E4"/>
<path opacity="0.2" d="M24.9947 37.4746C22.7391 42.7462 22.4331 48.6475 24.1314 54.1237C25.8297 59.6 29.4217 64.2945 34.2654 67.3684C39.1092 70.4422 44.8891 71.6951 50.5723 70.9032C56.2556 70.1112 61.4718 67.326 65.2888 63.0453C63.9109 66.2661 61.8487 69.149 59.2449 71.4944C56.6411 73.8398 53.5581 75.5915 50.2094 76.6283C46.8607 77.665 43.3265 77.962 39.8516 77.4986C36.3766 77.0352 33.0441 75.8225 30.0848 73.9445C27.1255 72.0666 24.6103 69.5683 22.7134 66.6227C20.8164 63.6771 19.5831 60.3546 19.099 56.8856C18.6148 53.4165 18.8913 49.8837 19.9093 46.532C20.9273 43.1803 22.6625 40.0898 24.9947 37.4746Z" fill="black"/>
<path d="M42.9184 53.6133H42.985L44.1808 122.112H41.6562L42.9184 53.6133Z" fill="#3F3D56"/>
<path d="M202.285 86.6562H91.4453V119.485H202.285V86.6562Z" fill="#F0F0F0"/>
<path d="M153.33 93.4414H140.406V119.485H153.33V93.4414Z" fill="#CACACA"/>
<path d="M195.822 47.9199H97.9062V78.122H195.822V47.9199Z" fill="#F0F0F0"/>
<path d="M205.747 49.7795H87.9779C87.7813 49.7795 87.5892 49.7208 87.4262 49.6108C87.2633 49.5009 87.137 49.3448 87.0635 49.1626C86.9901 48.9803 86.9729 48.7803 87.0141 48.5883C87.0553 48.3962 87.1531 48.2208 87.2948 48.0847L119.481 17.1743V3.71041C119.481 3.44931 119.585 3.19898 119.77 3.01434C119.955 2.82971 120.206 2.72586 120.467 2.72556H126.819C127.081 2.72585 127.331 2.8297 127.516 3.01434C127.701 3.19897 127.805 3.4493 127.805 3.71041V9.18052L130.236 6.84578C134.214 3.02519 139.493 0.850545 145.01 0.758879C150.527 0.667214 155.875 2.66532 159.978 6.35164L206.406 48.0622C206.554 48.1955 206.659 48.3705 206.705 48.5642C206.752 48.7579 206.739 48.9612 206.667 49.1472C206.596 49.3333 206.47 49.4933 206.305 49.6062C206.141 49.7191 205.946 49.7795 205.747 49.7795Z" fill="#CACACA"/>
<path d="M123.759 55.5801C124.578 55.5801 125.39 55.7414 126.148 56.0549C126.905 56.3683 127.593 56.8278 128.173 57.407C128.753 57.9862 129.213 58.6738 129.526 59.4305C129.84 60.1873 130.001 60.9984 130.001 61.8175V70.2434H117.516V61.8175C117.516 60.9984 117.677 60.1873 117.991 59.4305C118.305 58.6738 118.764 57.9862 119.344 57.407C119.924 56.8278 120.612 56.3683 121.369 56.0549C122.127 55.7414 122.939 55.5801 123.759 55.5801Z" fill="white"/>
<path d="M146.868 55.6895C148.524 55.6895 150.112 56.3466 151.282 57.5163C152.453 58.6861 153.111 60.2726 153.111 61.9268V70.3528H140.625V61.9268C140.625 60.2726 141.283 58.6861 142.454 57.5163C143.624 56.3466 145.212 55.6895 146.868 55.6895Z" fill="white"/>
<path d="M169.977 55.7988C171.633 55.7988 173.221 56.456 174.392 57.6257C175.562 58.7955 176.22 60.382 176.22 62.0362V70.4622H163.734V62.0362C163.734 60.382 164.392 58.7955 165.563 57.6257C166.734 56.456 168.322 55.7988 169.977 55.7988Z" fill="white"/>
<path d="M179.173 93.1133C180.828 93.1133 182.416 93.7704 183.587 94.9402C184.758 96.1099 185.416 97.6964 185.416 99.3507V107.777H172.93V99.3507C172.93 97.6964 173.587 96.1099 174.758 94.9402C175.929 93.7704 177.517 93.1133 179.173 93.1133Z" fill="white"/>
<path d="M117.399 93.1133C119.055 93.1133 120.643 93.7704 121.814 94.9402C122.984 96.1099 123.642 97.6964 123.642 99.3507V107.777H111.156V99.3507C111.156 98.5316 111.318 97.7205 111.631 96.9637C111.945 96.207 112.405 95.5194 112.985 94.9402C113.564 94.361 114.253 93.9015 115.01 93.5881C115.768 93.2746 116.579 93.1133 117.399 93.1133Z" fill="white"/>
<path d="M218.482 87.1691L197.69 77.9772C197.578 77.9278 197.457 77.9023 197.335 77.9023H98.2429C98.1297 77.9023 98.0177 77.9242 97.9129 77.9668L75.2806 87.1587C75.0924 87.2352 74.9366 87.3746 74.8399 87.5532C74.7432 87.7318 74.7117 87.9384 74.7507 88.1376C74.7896 88.3369 74.8967 88.5164 75.0536 88.6455C75.2105 88.7745 75.4074 88.8451 75.6106 88.8451H81.4826V119.047H80.8254V122.111H212.912V119.047H211.817V88.8451H218.127C218.328 88.8451 218.523 88.7761 218.679 88.6497C218.835 88.5233 218.943 88.3471 218.984 88.1507C219.026 87.9543 218.999 87.7496 218.907 87.5709C218.816 87.3922 218.665 87.2504 218.482 87.1691ZM210.065 119.047H83.235V88.8451H210.065V119.047Z" fill="#CACACA"/>
<path d="M131.53 69.0391H115.539V71.6653H131.53V69.0391Z" fill="#CACACA"/>
<path d="M154.967 69.0391H138.977V71.6653H154.967V69.0391Z" fill="#CACACA"/>
<path d="M178.405 69.0391H162.414V71.6653H178.405V69.0391Z" fill="#CACACA"/>
<path d="M187.17 106.9H171.18V109.527H187.17V106.9Z" fill="#CACACA"/>
<path d="M125.178 106.9H109.188V109.527H125.178V106.9Z" fill="#CACACA"/>
<path d="M244.232 122.245H0.768427C0.697236 122.245 0.62896 122.217 0.57862 122.167C0.52828 122.117 0.5 122.048 0.5 121.977C0.5 121.906 0.52828 121.838 0.57862 121.788C0.62896 121.737 0.697236 121.709 0.768427 121.709H244.232C244.303 121.709 244.371 121.737 244.421 121.788C244.472 121.838 244.5 121.906 244.5 121.977C244.5 122.048 244.472 122.117 244.421 122.167C244.371 122.217 244.303 122.245 244.232 122.245Z" fill="#3F3D56"/>
<path d="M182.991 47.4689C182.991 47.6406 182.989 47.8149 182.986 47.9866C182.983 48.1931 182.978 48.3969 182.97 48.6034C182.962 48.7831 182.954 48.9601 182.943 49.1371C182.911 49.7298 182.86 50.3198 182.79 50.9125C182.774 51.0627 182.755 51.2102 182.734 51.3604C182.718 51.4757 182.701 51.5937 182.683 51.7117C182.664 51.8431 182.645 51.9745 182.624 52.1059C182.581 52.3849 182.532 52.6638 182.479 52.9427C182.452 53.0822 182.425 53.2216 182.395 53.3611C182.339 53.6373 182.277 53.9162 182.213 54.1925C182.208 54.2139 182.202 54.238 182.197 54.2595C182.165 54.3963 182.132 54.5304 182.097 54.6672C182.087 54.7074 182.079 54.7449 182.065 54.7851C182.041 54.8871 182.014 54.989 181.987 55.0909C181.95 55.233 181.912 55.3725 181.872 55.5146C181.808 55.7345 181.743 55.9518 181.676 56.1717C181.668 56.1945 181.661 56.2178 181.655 56.2414C181.526 56.6571 181.389 57.0674 181.239 57.4751C181.161 57.6896 181.078 57.9069 180.994 58.1214C180.911 58.3359 180.825 58.5505 180.737 58.7624C180.651 58.9689 180.562 59.1754 180.474 59.3792C180.452 59.4275 180.431 59.4758 180.406 59.524C180.312 59.7359 180.216 59.9424 180.117 60.1489C180.114 60.1516 180.114 60.157 180.111 60.1596C180.033 60.3259 179.95 60.4922 179.867 60.6558C179.867 60.6608 179.865 60.6655 179.861 60.6692C179.781 60.8301 179.698 60.991 179.612 61.1492L179.475 61.4094L179.459 61.4389C179.287 61.7581 179.11 62.0745 178.922 62.3883C178.882 62.458 178.842 62.5277 178.801 62.5948C178.761 62.6645 178.718 62.7342 178.675 62.8013C178.648 62.8496 178.619 62.8979 178.586 62.9461C178.53 63.0373 178.474 63.1312 178.415 63.2223C178.404 63.2411 178.391 63.2599 178.38 63.2787C178.278 63.4369 178.176 63.5925 178.074 63.7507C177.948 63.9411 177.819 64.1288 177.687 64.3166L174.772 68.9777L174.646 68.8731L174.611 68.8409H174.608L174.493 68.7444L174.176 68.4762C174.08 68.57 173.986 68.6639 173.889 68.7551C173.851 68.7926 173.811 68.8275 173.774 68.865C173.744 68.8919 173.717 68.9186 173.688 68.9455C168.648 73.8627 161.944 76.7101 154.903 76.9241H154.895C149.565 77.0703 144.289 75.8262 139.587 73.3143C139.482 73.2606 139.38 73.207 139.278 73.1453C138.666 72.8127 138.068 72.4614 137.48 72.0859C137.477 72.0832 137.474 72.0832 137.472 72.0806C136.79 71.5978 136.124 71.0829 135.474 70.5358C131.99 67.6009 129.232 63.8994 127.419 59.7214C125.606 55.5435 124.787 51.0027 125.025 46.4551C125.033 46.2754 125.043 46.0984 125.057 45.9187C125.1 45.2697 125.166 44.6234 125.255 43.9797C125.28 43.8001 125.306 43.6204 125.333 43.4434H182.718C182.83 44.264 182.908 45.0891 182.951 45.9187C182.978 46.4364 182.991 46.9514 182.991 47.4689Z" fill="#F0F0F0"/>
<path d="M182.723 43.4438C181.69 36.5796 178.226 30.3137 172.961 25.785C167.696 21.2563 160.979 18.7656 154.031 18.7656C147.084 18.7656 140.367 21.2563 135.101 25.785C129.836 30.3137 126.372 36.5796 125.339 43.4438C125.312 43.6208 125.285 43.8005 125.261 43.9802C125.173 44.6238 125.106 45.2702 125.062 45.9192H182.957C182.914 45.0905 182.836 44.2653 182.723 43.4438Z" fill="#F6D088"/>
<path d="M155.907 73.3136H139.281V60.0258C139.588 53.9532 144.783 53.4628 149.664 53.7887C150.484 53.7886 151.296 53.9499 152.053 54.2633C152.811 54.5768 153.499 55.0362 154.079 55.6153C154.658 56.1945 155.118 56.8821 155.432 57.6388C155.746 58.3956 155.907 59.2067 155.907 60.0258V73.3136Z" fill="#F6D088"/>
<path d="M139.278 63.8666V63.8693C139.278 63.872 139.281 63.872 139.283 63.872L139.278 63.8666ZM132.592 43.4441C132.581 43.5111 132.567 43.5782 132.557 43.6452C132.567 43.5782 132.581 43.5111 132.594 43.4441H132.592ZM132.259 45.9194C132.251 46.0213 132.243 46.1233 132.237 46.2252C132.243 46.1233 132.251 46.0213 132.261 45.9194C132.261 45.9006 132.262 45.8818 132.264 45.8631C132.261 45.8819 132.261 45.9007 132.259 45.9194ZM139.278 63.8693C139.278 63.872 139.281 63.872 139.283 63.872L139.278 63.8666V63.8693ZM132.592 43.4441C132.581 43.5111 132.567 43.5782 132.557 43.6452C132.567 43.5782 132.581 43.5111 132.594 43.4441H132.592ZM132.237 46.2252C132.243 46.1233 132.251 46.0213 132.261 45.9194C132.261 45.9006 132.262 45.8818 132.264 45.8631C132.261 45.8819 132.261 45.9007 132.259 45.9194C132.251 46.0213 132.243 46.1233 132.237 46.2252ZM215.165 95.5612C215.113 95.5059 215.057 95.4539 214.999 95.4056L214.996 95.4029L201.703 84.1953L201.36 83.9057L200.053 82.8034L199.725 82.5272L197.862 80.9556L197.352 80.5265L196.297 79.6361L195.758 79.1802L190.668 74.8919L187.751 72.4326L187.359 72.1027L178.761 64.8536C178.893 64.6658 179.021 64.4781 179.147 64.2877C179.25 64.1295 179.352 63.9739 179.454 63.8157C179.464 63.7969 179.478 63.7781 179.488 63.7593C179.547 63.6681 179.604 63.5743 179.66 63.4831C179.692 63.4348 179.722 63.3866 179.749 63.3383C179.792 63.2713 179.835 63.2015 179.875 63.1318C179.915 63.0648 179.955 62.9951 179.996 62.9253C180.184 62.6115 180.361 62.295 180.533 61.9759L180.549 61.9464L180.686 61.6863C180.771 61.528 180.855 61.3671 180.935 61.2062C180.939 61.2026 180.941 61.1978 180.941 61.1928C181.024 61.0292 181.107 60.8629 181.185 60.6967C181.188 60.694 181.188 60.6886 181.19 60.6859C181.29 60.4794 181.386 60.2729 181.48 60.0611C181.504 60.0128 181.526 59.9645 181.547 59.9162C181.636 59.7124 181.724 59.5059 181.81 59.2994C181.899 59.0875 181.985 58.873 182.068 58.6584C182.151 58.4439 182.234 58.2267 182.312 58.0121C182.46 57.6018 182.599 57.1905 182.728 56.7784C182.734 56.7548 182.741 56.7315 182.75 56.7087C182.817 56.4888 182.881 56.2715 182.946 56.0516C182.986 55.9095 183.024 55.77 183.061 55.6279C183.088 55.526 183.115 55.4241 183.139 55.3222C183.152 55.282 183.16 55.2444 183.171 55.2042C183.206 55.0674 183.238 54.9333 183.271 54.7965C183.276 54.775 183.281 54.7509 183.287 54.7295C183.351 54.4532 183.413 54.1743 183.469 53.8981C183.499 53.7586 183.526 53.6192 183.552 53.4797C183.603 53.2008 183.654 52.9219 183.697 52.643C183.719 52.5116 183.738 52.3801 183.756 52.2487C183.775 52.1307 183.791 52.0127 183.807 51.8974C183.829 51.7472 183.848 51.5997 183.864 51.4495C183.934 50.8568 183.985 50.2668 184.017 49.6741C184.027 49.4971 184.036 49.3201 184.044 49.1404C184.052 48.9339 184.057 48.7301 184.06 48.5236C184.062 48.3519 184.065 48.1776 184.065 48.006C184.065 47.4884 184.052 46.9734 184.025 46.4558C183.982 45.6271 183.904 44.802 183.791 43.9804C182.83 36.9578 179.37 30.5155 174.046 25.8311C168.722 21.1467 161.888 18.5331 154.794 18.468C147.7 18.403 140.82 20.8907 135.41 25.4766C130.001 30.0625 126.424 36.4403 125.333 43.4441C125.306 43.6211 125.28 43.8008 125.255 43.9804C125.167 44.6241 125.101 45.2704 125.057 45.9194C125.043 46.0991 125.033 46.2761 125.025 46.4558C124.787 51.0034 125.606 55.5442 127.419 59.7221C129.232 63.9001 131.99 67.6016 135.474 70.5365C136.124 71.0836 136.79 71.5985 137.472 72.0813C137.474 72.0839 137.477 72.0839 137.48 72.0866C137.708 72.2476 137.936 72.4058 138.167 72.5613C138.534 72.8027 138.905 73.0387 139.278 73.264C139.308 73.28 139.337 73.2988 139.367 73.3149C139.689 73.508 140.014 73.6931 140.338 73.8728H140.341C141.55 74.5369 142.805 75.1141 144.096 75.5999C147.885 77.0241 151.926 77.6575 155.969 77.4611H155.977C160.696 77.2331 165.291 75.8745 169.374 73.5C169.967 73.1567 170.552 72.7893 171.124 72.3977C171.266 72.3012 171.411 72.2019 171.551 72.1027C171.723 71.982 171.895 71.856 172.066 71.7299C172.069 71.7299 172.069 71.7273 172.072 71.7273C172.085 71.7166 172.098 71.7067 172.112 71.6978C172.227 71.6092 172.346 71.5207 172.458 71.4349C172.488 71.4135 172.517 71.392 172.547 71.3679C172.555 71.3624 172.562 71.3561 172.568 71.3491C172.635 71.3008 172.7 71.2472 172.767 71.1962C172.834 71.1453 172.898 71.0916 172.966 71.038C172.977 71.0308 172.988 71.0228 172.998 71.0139C173.073 70.9522 173.148 70.8932 173.223 70.8315C173.301 70.7698 173.376 70.7055 173.449 70.6438C173.524 70.5821 173.596 70.5204 173.672 70.456C173.736 70.4024 173.803 70.3461 173.868 70.2871C173.889 70.271 173.908 70.2522 173.929 70.2334C173.938 70.2255 173.947 70.2183 173.956 70.2119C174.045 70.1369 174.131 70.0591 174.217 69.9813C174.238 69.9625 174.257 69.9438 174.278 69.925C174.41 69.807 174.541 69.689 174.67 69.5656C174.7 69.5388 174.732 69.5093 174.761 69.4825C174.791 69.4556 174.818 69.4288 174.847 69.402C174.885 69.3645 174.925 69.3296 174.963 69.2921C175.059 69.2009 175.153 69.107 175.25 69.0132L175.567 69.2814L175.682 69.3779H175.685L175.72 69.4101L175.846 69.5147L177.719 71.097L177.76 71.1318L177.792 71.156L178.004 71.3357L178.428 71.6951L178.852 72.0517L178.914 72.1027L180.887 73.7655L181.161 73.9961L183.064 75.5999L192.915 83.9057L193.259 84.1954L206.742 95.5612L210.199 98.4764L211.485 99.5599C211.758 99.7906 212.074 99.9654 212.414 100.074C212.755 100.183 213.113 100.223 213.47 100.193C213.826 100.164 214.173 100.064 214.49 99.8999C214.808 99.736 215.09 99.5111 215.321 99.2381C215.514 99.0116 215.667 98.754 215.774 98.4764C215.969 97.9842 216.015 97.4457 215.907 96.9275C215.799 96.4094 215.541 95.9343 215.165 95.5612ZM137.41 33.3923C140.103 30.204 143.644 27.8418 147.623 26.5787C151.603 25.3157 155.859 25.2032 159.9 26.2544C163.941 27.3056 167.601 29.4775 170.459 32.5192C173.317 35.561 175.255 39.3484 176.05 43.4441C176.085 43.6237 176.117 43.8007 176.147 43.9804C176.257 44.6214 176.337 45.2704 176.385 45.9194C176.399 46.0991 176.412 46.2761 176.42 46.4558C176.444 46.8581 176.455 47.2631 176.455 47.6653C176.457 50.1056 176.052 52.5291 175.258 54.8367V54.8394C174.371 57.4268 173.008 59.8261 171.24 61.9142C171.202 61.9571 171.164 62.0028 171.124 62.0457C170.77 62.464 170.397 62.8663 170.013 63.2498C170.01 63.2525 170.008 63.2579 170.005 63.2606C169.873 63.392 169.739 63.5261 169.605 63.6494C169.331 63.9149 169.052 64.167 168.767 64.4084C168.341 64.7812 167.903 65.1307 167.455 65.457C167.305 65.567 167.154 65.6743 167.001 65.7815C166.851 65.8888 166.698 65.9907 166.545 66.0926C166.239 66.2965 165.927 66.4922 165.613 66.6773C165.458 66.7711 165.297 66.8623 165.138 66.9508C164.98 67.042 164.819 67.1278 164.658 67.211C164.497 67.2968 164.336 67.3799 164.172 67.4604C163.847 67.624 163.52 67.7768 163.187 67.919C163.02 67.9941 162.854 68.0638 162.688 68.1282C162.583 68.1711 162.481 68.214 162.376 68.2515C162.335 68.2704 162.293 68.2866 162.25 68.2998C162.194 68.324 162.137 68.3454 162.081 68.3642C162.063 68.3725 162.044 68.3797 162.025 68.3856C161.909 68.4312 161.796 68.4715 161.678 68.5117C161.509 68.5734 161.34 68.6297 161.168 68.6833C160.996 68.7397 160.827 68.7933 160.656 68.8416C160.484 68.8952 160.309 68.9435 160.137 68.9891C159.963 69.0373 159.791 69.083 159.617 69.1231C159.432 69.1714 159.246 69.2144 159.058 69.2546C158.895 69.2922 158.734 69.3243 158.57 69.3538C158.417 69.386 158.261 69.4128 158.108 69.4396C157.893 69.4772 157.679 69.5121 157.461 69.5416C157.343 69.5603 157.228 69.5764 157.11 69.5871C157.059 69.5952 157.01 69.6005 156.962 69.6059C156.812 69.6274 156.661 69.6435 156.514 69.6569C156.473 69.6595 156.436 69.6649 156.398 69.6676C156.235 69.6837 156.068 69.6971 155.904 69.7105C155.553 69.7346 155.204 69.7507 154.852 69.7588C154.675 69.7615 154.495 69.7641 154.318 69.7641C154.141 69.7641 153.964 69.7615 153.786 69.7561C153.786 69.7561 153.786 69.7588 153.784 69.7561C153.781 69.7588 153.781 69.7588 153.778 69.7561C153.778 69.7565 153.778 69.7567 153.777 69.7569C153.777 69.7571 153.776 69.7572 153.776 69.7572C153.775 69.7572 153.775 69.7571 153.774 69.7569C153.774 69.7567 153.773 69.7565 153.773 69.7561C153.764 69.7588 153.755 69.7588 153.746 69.7561C153.62 69.7561 153.494 69.7507 153.37 69.7427C153.279 69.74 153.185 69.7373 153.091 69.7293C152.965 69.7239 152.839 69.7159 152.713 69.7051C152.673 69.7051 152.632 69.6998 152.592 69.6971C152.573 69.6967 152.554 69.6949 152.536 69.6917C152.407 69.681 152.275 69.6703 152.146 69.6569C152.082 69.6515 152.015 69.6461 151.95 69.6381C151.754 69.6166 151.559 69.5925 151.365 69.5657C151.145 69.5389 150.925 69.5067 150.708 69.4664C150.606 69.453 150.506 69.4343 150.407 69.4155C150.276 69.394 150.144 69.3699 150.012 69.3431C149.875 69.3163 149.739 69.2895 149.602 69.2573C149.492 69.2331 149.379 69.209 149.269 69.1822C149.215 69.1715 149.162 69.1581 149.111 69.1446C148.829 69.0776 148.549 69.0052 148.273 68.9247C148.099 68.8765 147.924 68.8255 147.752 68.7719C147.516 68.6994 147.283 68.6217 147.049 68.5385C146.958 68.509 146.869 68.4768 146.778 68.442C146.687 68.4125 146.598 68.3776 146.507 68.3428C146.424 68.3132 146.34 68.2811 146.26 68.2489C146.126 68.1979 145.994 68.1443 145.863 68.0907C145.591 67.9807 145.326 67.8654 145.06 67.742C144.91 67.6696 144.759 67.5999 144.612 67.5275C144.029 67.2459 143.456 66.933 142.891 66.5888C142.751 66.5057 142.612 66.4172 142.472 66.3287C142.298 66.2214 142.129 66.1087 141.96 65.9961C141.866 65.9318 141.774 65.8701 141.683 65.8057C141.514 65.6877 141.348 65.567 141.184 65.4463C141.098 65.3846 141.012 65.3203 140.929 65.2559C140.631 65.0306 140.338 64.7946 140.051 64.5532C139.914 64.4379 139.777 64.3199 139.643 64.1992C139.587 64.151 139.53 64.1 139.474 64.049C139.41 63.99 139.345 63.9337 139.283 63.872L139.278 63.8666C139.184 63.7835 139.09 63.695 138.999 63.6065C138.857 63.4724 138.717 63.3357 138.583 63.1962C138.443 63.0595 138.309 62.9173 138.177 62.7778C138.043 62.6384 137.914 62.4962 137.788 62.3514C137.659 62.2093 137.533 62.0645 137.41 61.917C137.289 61.7775 137.171 61.6327 137.058 61.4905C136.784 61.1526 136.523 60.8084 136.274 60.458C136.159 60.2971 136.049 60.1362 135.941 59.9726C135.826 59.8063 135.716 59.6374 135.611 59.4684C135.501 59.2994 135.397 59.1278 135.295 58.9535C135.292 58.9475 135.288 58.9421 135.284 58.9374C135.083 58.5968 134.889 58.2535 134.709 57.9048C134.524 57.5508 134.35 57.1932 134.186 56.8321C134.103 56.6524 134.022 56.47 133.947 56.2877C133.791 55.9202 133.646 55.5528 133.512 55.18C133.445 55.0004 133.383 54.8206 133.322 54.6383C133.32 54.6262 133.316 54.6145 133.311 54.6034C133.187 54.2333 133.075 53.8606 132.975 53.4851C132.973 53.4797 132.973 53.4744 132.97 53.469C132.919 53.284 132.871 53.0989 132.828 52.9112C132.785 52.7476 132.747 52.584 132.712 52.4177C132.672 52.2326 132.632 52.0476 132.597 51.8599C132.578 51.7633 132.559 51.6668 132.543 51.5702C132.527 51.4898 132.514 51.4066 132.5 51.3262C132.487 51.2457 132.473 51.1626 132.46 51.0794C132.433 50.9158 132.409 50.7523 132.387 50.5887C132.361 50.3955 132.339 50.2025 132.318 50.0067C132.294 49.7734 132.272 49.54 132.253 49.304C132.24 49.1458 132.232 48.9849 132.224 48.824C132.216 48.6765 132.208 48.529 132.205 48.3815C132.202 48.3736 132.202 48.3651 132.205 48.3573C132.205 48.357 132.204 48.3566 132.204 48.3561C132.204 48.3556 132.204 48.3551 132.204 48.3546C132.204 48.3541 132.204 48.3536 132.204 48.3532C132.204 48.3527 132.205 48.3523 132.205 48.352C132.202 48.3493 132.202 48.3493 132.205 48.3466C132.205 48.3462 132.204 48.3458 132.204 48.3454C132.204 48.3449 132.204 48.3444 132.204 48.3439C132.204 48.3434 132.204 48.3429 132.204 48.3425C132.204 48.342 132.205 48.3416 132.205 48.3412C132.202 48.2822 132.2 48.2232 132.2 48.1642C132.194 47.9899 132.192 47.8156 132.192 47.6413C132.192 47.483 132.194 47.3275 132.197 47.1693C132.202 46.9493 132.21 46.7294 132.221 46.5095C132.221 46.4612 132.226 46.4156 132.229 46.3674C132.232 46.3191 132.235 46.2734 132.237 46.2252C132.243 46.1233 132.251 46.0213 132.261 45.9194C132.261 45.9006 132.262 45.8818 132.264 45.8631C132.272 45.7478 132.283 45.6325 132.294 45.5172C132.315 45.2866 132.342 45.0532 132.371 44.8226C132.387 44.7073 132.401 44.592 132.42 44.4766C132.43 44.3962 132.444 44.313 132.457 44.2299C132.468 44.1468 132.481 44.0636 132.498 43.9805C132.516 43.8705 132.535 43.7578 132.557 43.6452C132.567 43.5782 132.581 43.5111 132.594 43.4441C132.645 43.1759 132.702 42.9077 132.763 42.6395C132.825 42.3687 132.895 42.1005 132.97 41.8323C133.042 41.5614 133.123 41.2905 133.209 41.0197C133.249 40.8829 133.292 40.7488 133.34 40.6147C133.429 40.3438 133.523 40.0757 133.628 39.8102C133.676 39.6787 133.727 39.5446 133.783 39.4132C133.891 39.1477 134.003 38.8822 134.119 38.6221C134.178 38.4907 134.237 38.3593 134.301 38.2278C134.422 37.9677 134.548 37.7076 134.685 37.4528C134.817 37.1926 134.959 36.9379 135.104 36.6858C135.249 36.4337 135.399 36.1816 135.558 35.9321C135.63 35.8088 135.711 35.6827 135.794 35.562C135.955 35.3153 136.124 35.0686 136.296 34.8272C136.642 34.339 137.015 33.859 137.41 33.3923ZM132.259 45.9194C132.251 46.0213 132.243 46.1233 132.237 46.2252C132.243 46.1233 132.251 46.0213 132.261 45.9194C132.261 45.9006 132.262 45.8818 132.264 45.8631C132.261 45.8819 132.261 45.9007 132.259 45.9194ZM132.592 43.4441C132.581 43.5111 132.567 43.5782 132.557 43.6452C132.567 43.5782 132.581 43.5111 132.594 43.4441H132.592ZM139.278 63.8666V63.8693C139.278 63.872 139.281 63.872 139.283 63.872L139.278 63.8666Z" fill="#3F3D56"/>
<path opacity="0.3" d="M140.051 64.5523C135.806 60.9726 133.063 55.9285 132.367 50.4216C131.671 44.9147 133.074 39.3477 136.296 34.8262C135.873 35.252 135.464 35.6979 135.069 36.1639C133.194 38.3833 131.776 40.9497 130.894 43.7167C130.013 46.4837 129.685 49.3971 129.931 52.2906C130.176 55.184 130.989 58.0009 132.324 60.5803C133.659 63.1597 135.49 65.4511 137.711 67.3238C142.197 71.1058 148.003 72.9524 153.852 72.4573C159.701 71.9622 165.113 69.1661 168.898 64.684C169.292 64.2173 169.664 63.7394 170.012 63.2502C166.093 67.1844 160.836 69.5022 155.286 69.7434C149.736 69.9847 144.298 68.1316 140.051 64.5523Z" fill="black"/>
</g>
<defs>
<clipPath id="clip0_5654_78475">
<rect width="244" height="121.49" fill="white" transform="translate(0.5 0.755859)"/>
</clipPath>
</defs>
</svg>
