<svg width="249" height="188" viewBox="0 0 249 188" fill="none" xmlns="http://www.w3.org/2000/svg">
<g clipPath="url(#clip0_5654_78702)">
<path d="M198.78 34.5619C197.487 47.7584 193.802 61.6734 188.023 75.0995C180.876 91.7027 171.111 106.327 159.785 117.39L159.156 116.883C170.428 105.872 180.148 91.3129 187.265 74.7784C193.697 59.8365 197.523 44.2872 198.333 29.8184L199.137 29.9429C199.051 31.471 198.933 33.0106 198.78 34.5619Z" fill="#F2F2F2"/>
<path d="M203.938 111.205C188.029 134.641 168.728 151.386 149.59 158.355L149.203 157.698C168.208 150.777 187.396 134.118 203.233 110.789L203.938 111.205Z" fill="#F2F2F2"/>
<path d="M198.398 50.9935C197.104 64.19 193.419 78.105 187.64 91.5311C180.493 108.134 170.729 122.758 159.402 133.822L158.773 133.315C170.045 122.304 179.765 107.745 186.882 91.2101C193.314 76.2682 197.14 60.7188 197.951 46.25L198.754 46.3745C198.669 47.9026 198.55 49.4423 198.398 50.9935Z" fill="#F2F2F2"/>
<path d="M19.8017 84.8719H9.3635C9.14049 84.8723 8.92026 84.826 8.71935 84.7364C8.51843 84.6467 8.34204 84.5162 8.2034 84.3544C8.06643 84.1968 7.96981 84.0125 7.92076 83.8154C7.87172 83.6182 7.87153 83.4133 7.92022 83.2161C8.91435 79.1544 8.8519 74.932 7.73801 70.897C7.66755 70.6314 7.68459 70.3522 7.78692 70.0956C7.88926 69.839 8.0722 69.6166 8.31221 69.4571C13.6795 65.8826 17.9065 65.9864 20.8757 69.7659C21.0096 69.9381 21.0985 70.1368 21.1355 70.3462C21.9288 74.7625 21.9727 79.2664 21.2656 83.6953C21.2165 84.0221 21.0411 84.3214 20.7719 84.5378C20.5028 84.7541 20.1581 84.8728 19.8017 84.8719Z" fill="#E6E6E6"/>
<path d="M16.566 75.1931H12.9752C12.7767 75.1931 12.5862 75.1201 12.4458 74.9901C12.3054 74.8601 12.2266 74.6837 12.2266 74.4999C12.2266 74.316 12.3054 74.1397 12.4458 74.0097C12.5862 73.8797 12.7767 73.8066 12.9752 73.8066H16.566C16.7643 73.807 16.9543 73.8802 17.0944 74.0102C17.2344 74.1402 17.3131 74.3163 17.3131 74.4999C17.3131 74.6835 17.2344 74.8596 17.0944 74.9896C16.9543 75.1195 16.7643 75.1927 16.566 75.1931Z" fill="white"/>
<path d="M16.566 77.6247H12.9752C12.7767 77.6247 12.5862 77.5517 12.4458 77.4217C12.3054 77.2917 12.2266 77.1154 12.2266 76.9315C12.2266 76.7477 12.3054 76.5713 12.4458 76.4413C12.5862 76.3113 12.7767 76.2383 12.9752 76.2383H16.566C16.7643 76.2387 16.9543 76.3119 17.0944 76.4418C17.2344 76.5718 17.3131 76.7479 17.3131 76.9315C17.3131 77.1151 17.2344 77.2912 17.0944 77.4212C16.9543 77.5512 16.7643 77.6244 16.566 77.6247Z" fill="white"/>
<path d="M16.566 80.0564H12.9752C12.7767 80.0564 12.5862 79.9834 12.4458 79.8533C12.3054 79.7233 12.2266 79.547 12.2266 79.3632C12.2266 79.1793 12.3054 79.003 12.4458 78.873C12.5862 78.743 12.7767 78.6699 12.9752 78.6699H16.566C16.7643 78.6703 16.9543 78.7435 17.0944 78.8735C17.2344 79.0034 17.3131 79.1795 17.3131 79.3632C17.3131 79.5468 17.2344 79.7229 17.0944 79.8528C16.9543 79.9828 16.7643 80.056 16.566 80.0564Z" fill="white"/>
<path d="M209.505 128.026H199.067C198.844 128.027 198.623 127.98 198.422 127.891C198.222 127.801 198.045 127.67 197.907 127.509C197.77 127.351 197.673 127.167 197.624 126.97C197.575 126.773 197.575 126.568 197.623 126.37C198.617 122.309 198.555 118.086 197.441 114.051C197.371 113.786 197.388 113.507 197.49 113.25C197.592 112.993 197.775 112.771 198.015 112.611C203.383 109.037 207.61 109.141 210.579 112.92C210.713 113.092 210.802 113.291 210.839 113.501C211.632 117.917 211.676 122.421 210.969 126.85C210.92 127.176 210.744 127.476 210.475 127.692C210.206 127.908 209.861 128.027 209.505 128.026Z" fill="#E6E6E6"/>
<path d="M206.268 118.347H202.677C202.478 118.347 202.288 118.274 202.148 118.144C202.008 118.014 201.93 117.838 201.93 117.654C201.93 117.471 202.008 117.294 202.148 117.164C202.288 117.035 202.478 116.961 202.677 116.961H206.268C206.466 116.961 206.657 117.034 206.797 117.164C206.937 117.294 207.016 117.47 207.016 117.654C207.016 117.838 206.937 118.014 206.797 118.144C206.657 118.274 206.466 118.347 206.268 118.347Z" fill="white"/>
<path d="M206.268 120.779H202.677C202.478 120.779 202.288 120.705 202.148 120.575C202.008 120.446 201.93 120.269 201.93 120.086C201.93 119.902 202.008 119.726 202.148 119.596C202.288 119.466 202.478 119.393 202.677 119.393H206.268C206.466 119.393 206.657 119.466 206.797 119.596C206.937 119.726 207.016 119.902 207.016 120.086C207.016 120.27 206.937 120.446 206.797 120.576C206.657 120.706 206.466 120.779 206.268 120.779Z" fill="white"/>
<path d="M206.268 123.211H202.677C202.478 123.21 202.288 123.137 202.148 123.007C202.008 122.877 201.93 122.701 201.93 122.517C201.93 122.334 202.008 122.158 202.148 122.028C202.288 121.898 202.478 121.825 202.677 121.824H206.268C206.466 121.824 206.657 121.897 206.797 122.027C206.937 122.157 207.016 122.334 207.016 122.517C207.016 122.701 206.937 122.878 206.797 123.008C206.657 123.138 206.466 123.211 206.268 123.211Z" fill="white"/>
<path d="M249 187.139C249 187.187 248.99 187.234 248.971 187.278C248.951 187.321 248.922 187.361 248.886 187.395C248.85 187.429 248.807 187.455 248.759 187.473C248.712 187.492 248.661 187.501 248.609 187.501H0.390566C0.286982 187.501 0.187643 187.463 0.114398 187.395C0.0411532 187.327 0 187.235 0 187.139C0 187.043 0.0411532 186.951 0.114398 186.883C0.187643 186.815 0.286982 186.777 0.390566 186.777H248.609C248.661 186.777 248.712 186.786 248.759 186.805C248.807 186.823 248.85 186.849 248.886 186.883C248.922 186.917 248.951 186.956 248.971 187C248.99 187.044 249 187.091 249 187.139Z" fill="#CCCCCC"/>
<path d="M65.4806 164.996L64.8296 156.612C60.5651 154.638 55.8446 153.658 51.0781 153.757C57.7839 158.556 57.2468 168.149 61.8909 174.714C63.3563 176.751 65.298 178.457 67.5722 179.705C69.8464 180.953 72.3947 181.711 75.0282 181.923L80.6091 184.896C81.2475 180.989 80.9635 177 79.7768 173.205C78.5901 169.409 76.5289 165.897 73.735 162.91C72.1498 161.248 70.3449 159.779 68.363 158.535C67.1431 161.778 65.4806 164.996 65.4806 164.996Z" fill="#F2F2F2"/>
<path d="M183.523 166.211L184.174 157.827C188.439 155.853 193.159 154.873 197.926 154.972C191.22 159.771 191.757 169.364 187.113 175.929C185.647 177.966 183.706 179.672 181.432 180.92C179.157 182.168 176.609 182.926 173.976 183.138L168.395 186.111C167.756 182.204 168.04 178.215 169.227 174.419C170.414 170.624 172.475 167.111 175.269 164.125C176.854 162.463 178.659 160.993 180.641 159.75C181.861 162.993 183.523 166.211 183.523 166.211Z" fill="#F2F2F2"/>
<path d="M121.548 71.5952C124.992 71.5952 127.784 69.01 127.784 65.821C127.784 62.6321 124.992 60.0469 121.548 60.0469C118.104 60.0469 115.312 62.6321 115.312 65.821C115.312 69.01 118.104 71.5952 121.548 71.5952Z" fill="#DDB771"/>
<path d="M124.745 63.4162C124.651 63.3333 124.526 63.2871 124.397 63.2871C124.267 63.2871 124.142 63.3333 124.049 63.4162C122.726 64.3934 121.537 65.5174 120.51 66.763C120.258 66.3113 120.006 65.8596 119.754 65.4079C119.463 64.8865 118.613 65.3471 118.903 65.868C119.272 66.5287 119.641 67.1895 120.01 67.8502C120.054 67.9176 120.117 67.9734 120.191 68.012C120.266 68.0507 120.35 68.071 120.435 68.071C120.52 68.071 120.604 68.0507 120.679 68.012C120.753 67.9734 120.816 67.9176 120.86 67.8502C121.954 66.4229 123.262 65.1471 124.745 64.0609C124.837 63.975 124.888 63.8592 124.888 63.7385C124.888 63.6179 124.837 63.502 124.745 63.4162Z" fill="white"/>
<path d="M93.6458 82.1953L84.2422 68.521L95.1313 63.1211L97.9893 73.554L118.127 83.6299C118.922 83.365 119.783 83.3199 120.605 83.5003C121.427 83.6807 122.175 84.0787 122.757 84.6458C123.339 85.2129 123.73 85.9245 123.883 86.694C124.036 87.4635 123.944 88.2575 123.618 88.9793C123.292 89.701 122.746 90.3194 122.047 90.7588C121.348 91.1983 120.526 91.44 119.681 91.4544C118.836 91.4687 118.005 91.2552 117.289 90.8398C116.573 90.4244 116.003 89.825 115.649 89.1148L93.6458 82.1953Z" fill="#A0616A"/>
<path d="M77.3679 52.1189C74.4133 56.1358 84.9134 70.7369 84.9134 70.7369C85.4249 69.716 90.3146 81.1809 91.1336 80.5036C93.4613 78.5788 97.105 73.2171 99.1304 72.9781C100.289 72.8414 96.4441 65.2351 96.4441 65.2351C96.4441 65.2351 94.687 60.7436 92.3027 55.0061C91.6611 53.3725 90.5836 51.9157 89.1704 50.7713C87.7573 49.627 86.0544 48.8324 84.2203 48.4614C84.2203 48.4614 80.3226 48.1021 77.3679 52.1189Z" fill="#3F3D56"/>
<path d="M77.5166 182.992L81.9825 182.991L84.107 167.041L77.5156 167.041L77.5166 182.992Z" fill="#A0616A"/>
<path d="M76.375 181.641L77.632 181.641L82.5397 179.793L85.1701 181.641H85.1705C86.6569 181.641 88.0825 182.188 89.1336 183.161C90.1847 184.134 90.7753 185.454 90.7754 186.831V186.999L76.3753 187L76.375 181.641Z" fill="#2F2E41"/>
<path d="M98.2585 182.992L102.724 182.991L104.849 167.041L98.2578 167.041L98.2585 182.992Z" fill="#A0616A"/>
<path d="M97.125 181.641L98.382 181.641L103.29 179.793L105.92 181.641H105.92C107.407 181.641 108.833 182.188 109.884 183.161C110.935 184.134 111.525 185.454 111.525 186.831V186.999L97.1253 187L97.125 181.641Z" fill="#2F2E41"/>
<path d="M100.198 95.7891L71.1494 96.4615C65.6325 99.2361 65.5487 105.242 67.3564 112.372C67.3564 112.372 66.7461 116.609 67.9666 117.74C69.1871 118.87 69.7973 118.87 69.1871 120.847C68.5768 122.825 71.801 126.055 71.4094 126.418C71.0178 126.78 70.1024 128.758 70.1024 128.758L73.1536 144.862C73.1536 144.862 75.2894 172.832 75.8997 173.397C76.5099 173.962 77.1202 173.397 76.5099 174.81C75.8997 176.222 75.2894 175.657 75.8997 176.222C76.4402 176.762 76.9495 177.328 77.4253 177.918H84.8022C84.8022 177.918 85.3584 175.092 85.3584 174.81C85.3584 174.527 85.9686 172.832 85.9686 172.55C85.9686 172.267 85.4292 171.768 85.4292 171.768C85.2429 171.193 85.1169 170.604 85.0532 170.007C85.0532 169.442 83.2225 147.687 83.2225 147.687L86.8839 119.435L95.7324 147.122C95.7324 147.122 95.7324 171.419 96.3426 171.985C96.9529 172.55 96.9528 172.267 96.6477 173.397C96.3426 174.527 95.1221 174.245 96.0375 175.092C96.9528 175.94 97.258 174.527 96.9529 175.94L96.6477 177.353L105.801 177.474C105.801 177.474 107.022 175.092 106.412 174.245C105.801 173.397 105.838 173.629 106.582 172.242C107.327 170.854 107.632 170.572 107.327 170.289C107.022 170.007 107.022 168.504 107.022 168.504L105.496 141.472C105.496 141.472 105.191 112.937 105.191 112.089C105.168 111.653 105.255 111.218 105.445 110.818V109.668L104.276 105.591L100.198 95.7891Z" fill="#2F2E41"/>
<path d="M82.7443 39.861C87.729 39.861 91.7699 36.1193 91.7699 31.5037C91.7699 26.8882 87.729 23.1465 82.7443 23.1465C77.7596 23.1465 73.7188 26.8882 73.7188 31.5037C73.7188 36.1193 77.7596 39.861 82.7443 39.861Z" fill="#A0616A"/>
<path d="M87.2584 45.3841C89.2029 46.4545 90.366 48.4212 91.0337 50.4225C92.2699 54.1276 93.014 57.9583 93.2496 61.8301L93.9548 73.4214L102.689 98.1026C95.1194 104.034 66.6655 99.4505 66.6655 99.4505C66.6655 99.4505 65.7921 99.181 66.6655 98.3722C67.539 97.5634 68.3893 98.2799 67.5159 97.4712C66.6424 96.6624 67.2445 97.5634 67.5357 96.7546C67.8268 95.9459 67.5357 96.4851 67.2445 96.2155C66.9534 95.9458 69.4984 93.5196 69.4984 93.5196L67.1693 79.3523L64.2578 50.7759C67.7516 46.7321 74.778 44.3483 74.778 44.3483L76.5935 41.3223L85.6712 41.9947L87.2584 45.3841Z" fill="#3F3D56"/>
<path d="M90.1854 27.0619C90.8869 27.5464 91.4065 28.2224 91.6713 28.9947C91.773 27.7326 91.7795 26.4654 91.6907 25.2024C91.5843 24.3149 90.9095 24.1152 90.1281 23.8839C89.4225 23.6749 88.6245 23.4389 88.4097 22.5773C85.5726 20.0216 80.6338 20.1505 77.2538 21.042C75.3939 21.5325 74.3237 22.1628 74.228 22.532L74.2081 22.608L74.1326 22.643C72.699 23.3067 72.4199 25.4027 72.4383 27.044C72.4733 30.1365 73.6264 33.6488 74.276 33.9341C74.3104 33.9492 74.3191 33.9433 74.334 33.9318C75.3122 33.208 76.5056 33.9868 77.03 34.4102C77.3393 32.4882 78.3353 30.7176 79.8589 29.3812C81.3825 28.0448 83.3458 27.2197 85.4352 27.0377C86.1175 26.9766 86.7945 26.8715 87.461 26.7231C87.7991 26.6421 88.1467 26.5999 88.4959 26.5974C89.0971 26.5889 89.6866 26.751 90.1854 27.0619Z" fill="#2F2E41"/>
<path d="M146.217 102.449L163.579 86.1242L168.153 73.0675L160.792 70.3105C157.146 73.7164 153.392 84.1427 153.392 84.1427L141.542 98.8694C141.447 98.902 141.353 98.9364 141.26 98.9771C140.714 99.2156 140.244 99.5804 139.896 100.036C139.547 100.492 139.331 101.023 139.269 101.579C139.206 102.135 139.3 102.696 139.541 103.208C139.781 103.721 140.16 104.167 140.641 104.504C141.123 104.841 141.689 105.058 142.287 105.132C142.885 105.207 143.494 105.138 144.054 104.931C144.615 104.725 145.109 104.388 145.487 103.953C145.866 103.518 146.117 103 146.217 102.449Z" fill="#FFB8B8"/>
<path d="M158.781 71.8037L168.09 74.2972L168.125 74.291C171.547 73.6758 174.253 68.4104 175.921 64.1016C176.47 62.6804 176.416 61.1192 175.769 59.7338C175.122 58.3484 173.932 57.2421 172.438 56.6384C171.332 56.2 170.117 56.0566 168.928 56.2245C167.739 56.3923 166.625 56.8647 165.711 57.5882L161.07 61.2889L158.781 71.8037Z" fill="#DDB771"/>
<path d="M150.818 182.505L145.811 182.505L143.43 164.625L150.818 164.625L150.818 182.505Z" fill="#FFB8B8"/>
<path d="M152.096 180.994L150.687 180.994L145.185 178.922L142.237 180.993H142.236C140.57 180.993 138.972 181.606 137.794 182.697C136.615 183.788 135.953 185.268 135.953 186.811V187L152.096 187.001L152.096 180.994Z" fill="#2F2E41"/>
<path d="M173.029 182.505L168.022 182.505L165.641 164.625L173.03 164.625L173.029 182.505Z" fill="#FFB8B8"/>
<path d="M174.307 180.994L172.898 180.994L167.396 178.922L164.448 180.993H164.447C162.781 180.993 161.183 181.606 160.004 182.697C158.826 183.788 158.164 185.268 158.164 186.811V187L174.307 187.001L174.307 180.994Z" fill="#2F2E41"/>
<path d="M180.661 105.49C180.661 105.49 181.246 111.986 179.785 118.211C178.323 124.436 178.323 141.967 178.323 141.967L175.108 176.129L165.462 175.317L162.832 118.211L153.478 137.427L154.355 140.133L153.187 140.81C153.187 140.81 154.063 146.087 153.478 146.087C152.894 146.087 151.432 146.899 151.432 146.899L152.602 174.776L142.664 174.505L139.156 135.261L142.956 112.798L143.248 108.467L144.564 108.517L145.233 106.708L146.463 103.596L180.661 105.49Z" fill="#2F2E41"/>
<path d="M181.171 106.854L181.223 106.786C184.005 103.179 179.821 94.5125 179.19 93.2561L181.848 92.4574L181.249 87.7461L180.966 85.6456L182.997 83.7645L183.003 83.7176L184.172 74.2449L185.872 67.9533C186.513 65.5748 186.458 63.0814 185.714 60.7289C184.97 58.3764 183.563 56.2497 181.638 54.567L177.709 51.1364L172.933 44.5938H165.233L162.592 49.2119C160.032 49.7598 157.761 51.1218 156.174 53.0609C154.587 54.9999 153.785 57.3929 153.908 59.8232L154.506 71.9353L152.163 87.0159L152.162 89.7451L149.525 92.4582L150.101 95.1236L148.095 95.9198L147.209 99.748C146.842 100.196 144.422 103.184 144.422 104.001C144.422 104.123 144.52 104.242 144.729 104.373C146.379 105.408 155.494 107.516 159.529 106.021C163.827 104.43 180.91 106.817 181.082 106.841L181.171 106.854Z" fill="#DDB771"/>
<path d="M168.089 42.481C173.722 42.481 178.288 38.253 178.288 33.0374C178.288 27.8218 173.722 23.5938 168.089 23.5938C162.457 23.5938 157.891 27.8218 157.891 33.0374C157.891 38.253 162.457 42.481 168.089 42.481Z" fill="#FFB8B8"/>
<path d="M167.111 42.635C168.691 42.6201 170.266 42.4803 171.82 42.217C173.358 41.8889 176.752 39.4589 177.677 38.0233C178.364 36.9567 178.776 35.307 179.002 34.1109C179.305 32.5279 179.247 30.9035 178.83 29.3428C178.412 27.7821 177.646 26.32 176.58 25.0511C176.169 24.5195 175.61 24.1006 174.963 23.8388C174.906 23.8197 174.847 23.8029 174.788 23.7887C173.85 23.5841 172.999 23.1245 172.346 22.4691C172.219 22.3364 172.082 22.2123 171.935 22.0979C171.202 21.5542 170.34 21.1789 169.42 21.0027C167.934 20.6722 165.808 21.0864 163.101 22.2348C161.741 22.8117 160.232 22.6508 159.069 22.4461C159.004 22.436 158.937 22.442 158.875 22.4633C158.813 22.4846 158.758 22.5206 158.716 22.5677C158.235 23.0073 157.593 23.2623 156.918 23.2814C156.505 23.3081 156.086 23.8486 155.581 24.5524C155.466 24.7122 155.333 24.8987 155.236 25.0125L155.216 24.7988L154.989 25.0431C154.632 25.4271 154.385 25.8886 154.273 26.3846C154.16 26.8805 154.185 27.3948 154.344 27.8796C154.504 28.3644 154.794 28.8038 155.186 29.157C155.579 29.5102 156.061 29.7657 156.589 29.8997C157.008 29.9922 157.436 30.0449 157.866 30.057C158.127 30.0724 158.397 30.0884 158.656 30.1237C159.489 30.2609 160.269 30.5957 160.92 31.0953C161.571 31.5949 162.071 32.2423 162.371 32.9743C162.442 33.1435 162.554 33.2953 162.698 33.4181C162.842 33.5408 163.015 33.6312 163.203 33.6823C163.391 33.7334 163.589 33.7438 163.783 33.7127C163.976 33.6816 164.158 33.6098 164.317 33.5029C164.58 33.3027 164.892 33.1644 165.225 33.0999C165.559 33.0354 165.905 33.0465 166.232 33.1324C166.518 33.2704 166.743 33.495 166.87 33.7686C167.025 34.073 167.273 34.328 167.585 34.5011C168.647 34.9763 168.781 37.1908 168.456 39.0472C168.143 40.8367 167.461 42.1421 166.799 42.2217C166.289 42.2828 166.232 42.3179 166.197 42.4025L166.166 42.4782L166.226 42.5469C166.511 42.6349 166.813 42.665 167.111 42.635Z" fill="#2F2E41"/>
<path d="M158.648 72.8132L153.746 67.0293C148.753 68.3026 139.892 75.6154 139.892 75.6154L121.696 82.9271C121.089 82.8326 120.465 82.8879 119.888 83.0875C119.311 83.2871 118.801 83.6238 118.41 84.0639C118.018 84.5039 117.758 85.0318 117.657 85.5942C117.556 86.1567 117.616 86.734 117.833 87.2679C118.049 87.8019 118.413 88.2736 118.889 88.6358C119.364 88.9979 119.935 89.2376 120.542 89.3308C121.15 89.4239 121.773 89.3672 122.35 89.1664C122.926 88.9655 123.435 88.6277 123.826 88.1867L147.662 82.0291L158.648 72.8132Z" fill="#FFB8B8"/>
<path d="M157.471 74.1362L165.206 66.1519L165.636 60.4944C165.716 59.3835 165.459 58.274 164.893 57.2913C164.328 56.3086 163.477 55.4919 162.437 54.9335C161.021 54.1853 159.352 53.9628 157.765 54.311C156.179 54.6591 154.795 55.552 153.893 56.8089C151.16 60.6231 148.219 65.7801 149.732 68.6876L149.748 68.7171L157.471 74.1362Z" fill="#DDB771"/>
<path d="M86.1824 104.147L66.0783 94.6127C64.6483 93.9346 64.1746 92.1358 65.0224 90.6031L78.1307 66.9035C78.9785 65.3707 80.8316 64.6754 82.2616 65.3536L102.366 74.8874C103.796 75.5656 104.269 77.3643 103.422 78.8971L90.3133 102.597C89.4655 104.129 87.6124 104.825 86.1824 104.147Z" fill="#E6E6E6"/>
<path d="M82.7452 99.7632L69.0863 93.2858C67.747 92.6506 67.3033 90.9661 68.0973 89.5305L78.9874 69.8414C79.7814 68.4058 81.5169 67.7547 82.8562 68.3899L99.3535 76.2133C100.693 76.8484 101.136 78.5329 100.342 79.9684L94.4262 90.6646C90.8896 97.0589 88.7108 102.592 82.7452 99.7632Z" fill="white"/>
<path d="M89.5016 89.0104L77.4035 83.2732C77.2556 83.1756 77.1505 83.032 77.1075 82.8686C77.0644 82.7052 77.0863 82.5329 77.1691 82.3832C77.2519 82.2335 77.3901 82.1164 77.5585 82.0532C77.7268 81.9901 77.9141 81.9851 78.086 82.0392L90.1842 87.7764C90.3321 87.874 90.4372 88.0177 90.4802 88.1811C90.5232 88.3445 90.5014 88.5167 90.4186 88.6664C90.3358 88.8161 90.1976 88.9332 90.0292 88.9964C89.8609 89.0596 89.6736 89.0645 89.5016 89.0104Z" fill="#DDB771"/>
<path d="M78.8129 87.022L76.0519 85.7127C75.904 85.6151 75.7989 85.4715 75.7559 85.3081C75.7129 85.1447 75.7348 84.9724 75.8176 84.8227C75.9004 84.673 76.0386 84.5559 76.2069 84.4927C76.3753 84.4295 76.5625 84.4245 76.7345 84.4786L79.4954 85.7879C79.6433 85.8856 79.7484 86.0292 79.7914 86.1926C79.8345 86.356 79.8126 86.5283 79.7298 86.678C79.647 86.8277 79.5088 86.9448 79.3405 87.0079C79.1721 87.0711 78.9848 87.0761 78.8129 87.022Z" fill="#DDB771"/>
<path d="M82.3512 91.7784L74.7004 88.1502C74.5525 88.0526 74.4474 87.909 74.4044 87.7456C74.3613 87.5822 74.3832 87.4099 74.466 87.2602C74.5488 87.1105 74.687 86.9934 74.8553 86.9302C75.0237 86.867 75.2109 86.862 75.3829 86.9161L83.0338 90.5444C83.1817 90.642 83.2868 90.7856 83.3298 90.949C83.3728 91.1124 83.3509 91.2847 83.2681 91.4344C83.1853 91.5841 83.0472 91.7012 82.8788 91.7644C82.7105 91.8275 82.5232 91.8325 82.3512 91.7784Z" fill="#DDB771"/>
<path d="M94.2829 80.3561L82.1848 74.6189C82.0368 74.5213 81.9318 74.3777 81.8887 74.2143C81.8457 74.0509 81.8676 73.8786 81.9504 73.7289C82.0332 73.5792 82.1714 73.4621 82.3397 73.3989C82.508 73.3358 82.6953 73.3308 82.8673 73.3849L94.9654 79.1221C95.1133 79.2197 95.2184 79.3633 95.2615 79.5267C95.3045 79.6901 95.2826 79.8624 95.1998 80.0121C95.117 80.1618 94.9788 80.2789 94.8105 80.3421C94.6421 80.4053 94.4549 80.4102 94.2829 80.3561Z" fill="#DDB771"/>
<path d="M83.6019 78.3657L80.841 77.0564C80.6931 76.9588 80.588 76.8152 80.545 76.6518C80.5019 76.4884 80.5238 76.3161 80.6066 76.1664C80.6894 76.0167 80.8276 75.8996 80.996 75.8364C81.1643 75.7733 81.3516 75.7683 81.5236 75.8224L84.2845 77.1317C84.4324 77.2293 84.5375 77.3729 84.5805 77.5363C84.6235 77.6997 84.6016 77.872 84.5188 78.0217C84.436 78.1714 84.2979 78.2885 84.1295 78.3517C83.9612 78.4149 83.7739 78.4198 83.6019 78.3657Z" fill="#DDB771"/>
<path d="M87.1403 83.1222L79.4894 79.4939C79.3415 79.3963 79.2364 79.2527 79.1934 79.0893C79.1504 78.9259 79.1723 78.7536 79.2551 78.6039C79.3379 78.4542 79.4761 78.3371 79.6444 78.2739C79.8127 78.2108 80 78.2058 80.172 78.2599L87.8228 81.8881C87.9708 81.9857 88.0758 82.1293 88.1189 82.2927C88.1619 82.4561 88.14 82.6284 88.0572 82.7781C87.9744 82.9278 87.8362 83.045 87.6679 83.1081C87.4995 83.1713 87.3123 83.1763 87.1403 83.1222Z" fill="#DDB771"/>
<path d="M69.5183 83.5141L64.9766 67.8579L77.1134 65.7305L76.4607 76.4768L92.4075 91.681C93.2518 91.649 94.0878 91.8452 94.8137 92.2456C95.5396 92.646 96.124 93.2333 96.4956 93.936C96.8673 94.6386 97.0101 95.4262 96.9067 96.2027C96.8033 96.9792 96.4582 97.711 95.9133 98.309C95.3685 98.907 94.6475 99.3453 93.8383 99.5704C93.0291 99.7956 92.1667 99.7978 91.3561 99.5769C90.5455 99.356 89.8219 98.9216 89.2734 98.3264C88.7249 97.7313 88.3753 97.0013 88.2671 96.2253L69.5183 83.5141Z" fill="#A0616A"/>
<path d="M63.7346 50.3041C59.6149 53.3156 64.9025 70.1605 64.9025 70.1605C65.7212 69.3285 66.6725 81.6236 67.6732 81.205C70.5171 80.0151 75.7297 75.9121 77.7393 76.2466C78.8885 76.4378 77.6844 68.114 77.6844 68.114C77.6844 68.114 77.463 63.3413 77.0468 57.2058C76.9639 55.4692 76.4078 53.7802 75.4303 52.2961C74.4528 50.812 73.0857 49.5811 71.4562 48.7178C71.4562 48.7178 67.8543 47.2927 63.7346 50.3041Z" fill="#3F3D56"/>
<path d="M132.288 118.264L121.317 113.467C121.082 113.365 120.876 113.215 120.712 113.029C120.549 112.842 120.434 112.624 120.375 112.39C120.315 112.162 120.313 111.924 120.367 111.694C120.421 111.464 120.53 111.249 120.687 111.064C123.865 107.303 126.047 102.905 127.059 98.2227C127.135 97.8641 127.344 97.5412 127.648 97.309C127.953 97.0768 128.335 96.9496 128.73 96.9492C134.325 96.9668 138.507 98.8586 141.159 102.571C141.298 102.764 141.391 102.983 141.43 103.213C141.469 103.443 141.454 103.677 141.385 103.901C139.849 108.801 137.513 113.455 134.457 117.7C134.23 118.021 133.885 118.255 133.486 118.359C133.087 118.462 132.662 118.429 132.288 118.264Z" fill="#E6E6E6"/>
<path d="M135.512 111.536L127.124 107.868C126.915 107.777 126.754 107.613 126.676 107.412C126.598 107.21 126.61 106.989 126.708 106.796C126.807 106.602 126.984 106.453 127.202 106.381C127.419 106.309 127.658 106.32 127.867 106.411L136.255 110.079C136.358 110.124 136.451 110.188 136.528 110.266C136.605 110.344 136.664 110.436 136.703 110.536C136.741 110.635 136.758 110.741 136.753 110.847C136.747 110.952 136.719 111.056 136.67 111.152C136.622 111.247 136.553 111.333 136.468 111.404C136.384 111.475 136.285 111.53 136.177 111.566C136.07 111.602 135.955 111.617 135.841 111.612C135.727 111.607 135.615 111.581 135.512 111.536Z" fill="white"/>
<path d="M136.817 108.981L128.428 105.314C128.22 105.222 128.059 105.058 127.981 104.857C127.903 104.656 127.914 104.434 128.013 104.241C128.112 104.048 128.289 103.899 128.506 103.827C128.723 103.754 128.963 103.765 129.171 103.856L137.56 107.524C137.768 107.615 137.929 107.78 138.007 107.981C138.085 108.182 138.074 108.404 137.975 108.597C137.877 108.79 137.699 108.939 137.482 109.011C137.265 109.083 137.025 109.073 136.817 108.981Z" fill="white"/>
<path d="M125.604 28.7676L124.823 28.8468C121.342 16.1788 114.594 7.40252 105.308 3.46662C93.5029 -1.53661 78.9058 1.82315 64.2052 12.9271C49.4299 24.0878 36.3498 41.7169 27.3748 62.5676L26.6172 62.2466C35.6316 41.3047 48.7788 23.5905 63.6369 12.3678C78.5695 1.08835 93.4646 -2.29605 105.578 2.83818C115.131 6.88687 122.055 15.8532 125.604 28.7676Z" fill="#F2F2F2"/>
<path d="M39.4573 45.2658C37.4153 49.249 35.473 53.3755 33.6844 57.5308C23.3917 81.4426 18.1758 105.863 18.602 128.153L17.7976 128.074C17.3709 105.701 22.6018 81.1961 32.9268 57.2097C34.7205 53.0428 36.6683 48.9045 38.7162 44.9102L39.4573 45.2658Z" fill="#F2F2F2"/>
<path d="M39.0745 61.6955C37.0325 65.6787 35.0902 69.8052 33.3016 73.9605C23.0089 97.8723 17.793 122.293 18.2192 144.583L17.4148 144.503C16.9881 122.13 22.219 97.6258 32.544 73.6394C34.3377 69.4725 36.2855 65.3342 38.3334 61.3398L39.0745 61.6955Z" fill="#F2F2F2"/>
<path d="M17.4551 67.6718C18.3443 66.4342 17.818 64.6625 16.2794 63.7147C14.7409 62.7669 12.7728 63.0019 11.8836 64.2395C10.9943 65.4772 11.5207 67.2488 13.0592 68.1966C14.5977 69.1444 16.5658 68.9094 17.4551 67.6718Z" fill="#CCCCCC"/>
<path d="M206.807 112.367C207.696 111.129 207.17 109.358 205.631 108.41C204.092 107.462 202.124 107.697 201.235 108.935C200.346 110.172 200.872 111.944 202.411 112.892C203.949 113.84 205.917 113.605 206.807 112.367Z" fill="#CCCCCC"/>
</g>
<defs>
<clipPath id="clip0_5654_78702">
<rect width="249" height="187" fill="white" transform="translate(0 0.5)"/>
</clipPath>
</defs>
</svg>
