<svg width="185" height="139" viewBox="0 0 185 139" fill="none" xmlns="http://www.w3.org/2000/svg">
<path d="M184.308 121.953H0.695312V122.045H184.308V121.953Z" fill="#EBEBEB"/>
<path d="M165.913 127.861H153.75V127.953H165.913V127.861Z" fill="#EBEBEB"/>
<path d="M122.332 128.859H119.141V128.951H122.332V128.859Z" fill="#EBEBEB"/>
<path d="M153.383 124.453H146.336V124.545H153.383V124.453Z" fill="#EBEBEB"/>
<path d="M35.8214 125.07H19.9609V125.162H35.8214V125.07Z" fill="#EBEBEB"/>
<path d="M41.4183 125.07H39.0938V125.162H41.4183V125.07Z" fill="#EBEBEB"/>
<path d="M83.3783 126.619H48.9766V126.711H83.3783V126.619Z" fill="#EBEBEB"/>
<path d="M87.7275 105.574H16.8198C16.2643 105.573 15.7319 105.352 15.3394 104.959C14.947 104.566 14.7266 104.033 14.7266 103.477V3.80116C14.7314 3.24886 14.9539 2.72077 15.3459 2.3316C15.7378 1.94243 16.2674 1.7236 16.8198 1.72266H87.7275C88.2836 1.72266 88.8169 1.94358 89.2102 2.33681C89.6034 2.73005 89.8243 3.2634 89.8243 3.81952V103.477C89.8243 104.034 89.6034 104.567 89.2102 104.96C88.8169 105.353 88.2836 105.574 87.7275 105.574ZM16.8198 1.7961C16.2886 1.79707 15.7796 2.00875 15.4043 2.38466C15.0291 2.76058 14.8184 3.27002 14.8184 3.80116V103.477C14.8184 104.009 15.0291 104.518 15.4043 104.894C15.7796 105.27 16.2886 105.481 16.8198 105.482H87.7275C88.259 105.481 88.7684 105.27 89.1442 104.894C89.52 104.518 89.7316 104.009 89.7325 103.477V3.80116C89.7316 3.26968 89.52 2.76025 89.1442 2.38444C88.7684 2.00863 88.259 1.79707 87.7275 1.7961H16.8198Z" fill="#EBEBEB"/>
<path d="M167.165 105.574H96.2531C95.6973 105.573 95.1645 105.352 94.7715 104.959C94.3785 104.566 94.1572 104.033 94.1562 103.477V3.80116C94.162 3.24852 94.3854 2.72044 94.7779 2.33137C95.1704 1.9423 95.7004 1.72359 96.2531 1.72266H167.165C167.716 1.72457 168.245 1.94382 168.636 2.33289C169.027 2.72195 169.249 3.24949 169.254 3.80116V103.477C169.254 104.032 169.034 104.564 168.642 104.958C168.251 105.351 167.719 105.572 167.165 105.574ZM96.2531 1.7961C95.7216 1.79707 95.2122 2.00863 94.8364 2.38444C94.4606 2.76025 94.249 3.26968 94.2481 3.80116V103.477C94.249 104.009 94.4606 104.518 94.8364 104.894C95.2122 105.27 95.7216 105.481 96.2531 105.482H167.165C167.696 105.481 168.205 105.27 168.581 104.894C168.957 104.518 169.169 104.009 169.17 103.477V3.80116C169.169 3.26968 168.957 2.76025 168.581 2.38444C168.205 2.00863 167.696 1.79707 167.165 1.7961H96.2531Z" fill="#EBEBEB"/>
<path d="M143.439 97.8928C154.632 97.8928 163.706 90.9151 163.706 82.3077C163.706 73.7003 154.632 66.7227 143.439 66.7227C132.246 66.7227 123.172 73.7003 123.172 82.3077C123.172 90.9151 132.246 97.8928 143.439 97.8928Z" fill="#EBEBEB"/>
<path d="M139.194 78.2869C148.043 78.2869 155.216 72.7692 155.216 65.9628C155.216 59.1564 148.043 53.6387 139.194 53.6387C130.345 53.6387 123.172 59.1564 123.172 65.9628C123.172 72.7692 130.345 78.2869 139.194 78.2869Z" fill="#EBEBEB"/>
<path d="M140.42 12.0381C140.42 12.0381 143.068 9.75032 139.63 9.20315C133.387 8.20797 127.743 11.3184 127.027 11.7333C127.762 10.2901 127.24 9.16275 123.476 9.57037C120.512 9.88252 112.555 13.8412 112.555 13.8412H151.451C156.824 9.01219 140.42 12.0381 140.42 12.0381Z" fill="#F0F0F0"/>
<path d="M35.6802 29.5119C35.6802 29.5119 37.8615 27.8153 36.0034 27.4114C32.6359 26.6769 28.4716 28.9794 27.9244 29.2842C28.758 28.2156 28.7507 27.393 26.4555 27.6831C24.6194 27.9145 18.8906 30.845 18.8906 30.845H41.6293C46.1058 27.2682 35.6802 29.5119 35.6802 29.5119Z" fill="#F0F0F0"/>
<path d="M156.537 26.1207C156.537 26.1207 158.087 24.9162 156.768 24.6261C154.374 24.1046 151.414 25.7278 151.036 25.9591C151.631 25.199 151.623 24.6151 149.986 24.8207C148.693 24.986 144.609 27.0681 144.609 27.0681H160.767C163.944 24.5269 156.537 26.1207 156.537 26.1207Z" fill="#F5F5F5"/>
<path d="M41.4172 113.342C47.4165 113.342 52.2798 109.601 52.2798 104.987C52.2798 100.373 47.4165 96.6328 41.4172 96.6328C35.418 96.6328 30.5547 100.373 30.5547 104.987C30.5547 109.601 35.418 113.342 41.4172 113.342Z" fill="#EBEBEB"/>
<path d="M34.6343 106.855C26.7169 106.855 20.3125 113.612 20.3125 121.952H48.9819C48.9708 113.612 42.5554 106.855 34.6343 106.855Z" fill="#EBEBEB"/>
<path d="M105.576 43.9941H41.9141V121.953H105.576V43.9941Z" fill="#F0F0F0"/>
<path d="M105.574 121.953H143.094V43.9947H105.574V121.953Z" fill="#E6E6E6"/>
<path d="M117.251 78.5645H131.422V51.4999H117.251V78.5645Z" fill="#F5F5F5"/>
<path d="M78.86 64.3125H93.0312V47.993H78.86V64.3125Z" fill="#F5F5F5"/>
<path d="M54.4537 64.3125H68.625V47.993H54.4537V64.3125Z" fill="#F5F5F5"/>
<path d="M78.86 70.3535H93.0312V67.3349H78.86V70.3535Z" fill="#F5F5F5"/>
<path d="M54.4537 70.3535H68.625V67.3349H54.4537V70.3535Z" fill="#F5F5F5"/>
<path d="M105.574 121.953H143.094V88.0214H105.574V121.953Z" fill="#F5F5F5"/>
<path d="M125.493 109.863H137.344V93.3124H125.493V109.863Z" fill="#E6E6E6"/>
<path d="M111.321 109.863H123.172V93.3124H111.321V109.863Z" fill="#E6E6E6"/>
<path d="M105.576 88.0215H41.9141V121.953H105.576V88.0215Z" fill="#FAFAFA"/>
<path d="M66.1808 92.4277H52.2812V120.043H66.1808V92.4277Z" fill="#E6E6E6"/>
<path d="M111.258 19.7168H73.7422L105.573 43.9941H143.089L111.258 19.7168Z" fill="#F0F0F0"/>
<path d="M66.7642 16.8184H56.3203V38.2791H66.7642V16.8184Z" fill="#EBEBEB"/>
<path d="M73.7452 19.7168L41.9141 43.9941H105.576L73.7452 19.7168Z" fill="#FAFAFA"/>
<path d="M73.7449 24.3887L48.0391 43.9949H99.4507L73.7449 24.3887Z" fill="#F0F0F0"/>
<path d="M88.1776 74.7207H45.0909L35.4219 84.3898V88.0216H97.8503V84.3898L88.1776 74.7207Z" fill="#E6E6E6"/>
<path d="M143.096 118.133H35.4219V121.952H143.096V118.133Z" fill="#E6E6E6"/>
<path d="M105.571 104.986H62.6719V118.133H105.571V104.986Z" fill="#F0F0F0"/>
<path d="M88.4599 88.0215H85.9297V118.134H88.4599V88.0215Z" fill="#E6E6E6"/>
<path d="M39.9052 88.0215H37.375V118.134H39.9052V88.0215Z" fill="#E6E6E6"/>
<path d="M92.5062 138.539C131.83 138.539 163.708 136.677 163.708 134.382C163.708 132.086 131.83 130.225 92.5062 130.225C53.1827 130.225 21.3047 132.086 21.3047 134.382C21.3047 136.677 53.1827 138.539 92.5062 138.539Z" fill="#F5F5F5"/>
<path d="M106.21 66.2988H101.102V135.481H106.21V66.2988Z" fill="#DCA847"/>
<path opacity="0.3" d="M106.21 66.2988H101.102V135.481H106.21V66.2988Z" fill="white"/>
<path d="M111.319 66.2988H106.211V135.481H111.319V66.2988Z" fill="#DCA847"/>
<path opacity="0.5" d="M111.319 66.2988H106.211V135.481H111.319V66.2988Z" fill="white"/>
<path d="M147.893 70.2402H107.891V75.106H147.893V70.2402Z" fill="#DCA847"/>
<path opacity="0.3" d="M147.893 70.2402H107.891V75.106H147.893V70.2402Z" fill="white"/>
<path d="M151.405 70.2402H147.891V75.106H151.405V70.2402Z" fill="#DCA847"/>
<path opacity="0.5" d="M151.405 70.2402H147.891V75.106H151.405V70.2402Z" fill="white"/>
<path d="M144.689 75.1035H114.43V104.034H144.689V75.1035Z" fill="#DCA847"/>
<path opacity="0.2" d="M144.698 75.1035H143.633V104.034H144.698V75.1035Z" fill="black"/>
<path d="M81.388 36.8907L80.8334 37.6251C80.6535 37.8565 80.4662 38.0805 80.2789 38.3045C79.9117 38.7525 79.5224 39.1858 79.1332 39.6192C78.3473 40.4748 77.5321 41.3157 76.6397 42.1163C75.732 42.9587 74.7636 43.7332 73.7423 44.4335C73.1801 44.8183 72.5938 45.1667 71.987 45.4764C71.2719 45.8437 70.5147 46.1224 69.7322 46.3063L69.5743 46.3394C69.4379 46.3701 69.299 46.3886 69.1593 46.3945C68.3994 46.4168 67.6448 46.2608 66.956 45.9391C66.485 45.7226 66.0433 45.4475 65.6413 45.1202C65.0323 44.624 64.4772 44.0652 63.9851 43.453C63.1568 42.4169 62.4196 41.3111 61.7817 40.148C61.1721 39.0463 60.6323 37.9226 60.1439 36.7878C59.6487 35.6556 59.2123 34.4985 58.8366 33.3212C58.7237 32.9454 58.7461 32.5418 58.8999 32.1807C59.0537 31.8196 59.3292 31.5239 59.6784 31.3449C60.0277 31.1659 60.4287 31.1149 60.8116 31.2009C61.1945 31.2869 61.5352 31.5044 61.7744 31.8156L61.8074 31.8597C62.4868 32.7741 63.1735 33.7325 63.8639 34.6469C64.5543 35.5613 65.2447 36.4831 65.9571 37.3313C66.6152 38.151 67.328 38.9252 68.0907 39.6485C68.3805 39.9299 68.7021 40.1764 69.0491 40.383C69.174 40.4491 69.2695 40.4748 69.2621 40.4564C69.2548 40.4381 69.1153 40.3463 68.7811 40.3536L68.2082 40.4417C68.4631 40.3165 68.7085 40.1729 68.9427 40.0121C69.2511 39.7991 69.5963 39.5531 69.9378 39.2776C70.2794 39.0022 70.6319 38.6791 70.9771 38.3486C71.3223 38.0181 71.6785 37.6802 72.0274 37.3277C72.7177 36.5932 73.4118 35.8588 74.0875 35.0986L75.0974 33.9382L76.0668 32.7998L76.1587 32.6933C76.7247 32.029 77.5276 31.612 78.3965 31.5309C79.2655 31.4498 80.1317 31.7111 80.8109 32.2591C81.49 32.8071 81.9285 33.5986 82.0328 34.465C82.1372 35.3315 81.8992 36.2044 81.3696 36.898L81.388 36.8907Z" fill="#263238"/>
<path d="M61.7003 31.1026C61.491 29.4501 58.4908 28.6862 58.4908 28.6862L56.7391 27.9114C56.452 27.7834 56.1287 27.7619 55.8272 27.8508C55.5257 27.9396 55.2657 28.133 55.0939 28.3961L54.2015 29.7622C54.1075 29.9093 54.0434 30.0735 54.0128 30.2453C53.9822 30.4172 53.9857 30.5934 54.0232 30.7639C54.0607 30.9344 54.1315 31.0959 54.2314 31.2391C54.3313 31.3822 54.4584 31.5043 54.6055 31.5984L56.2139 32.6045C56.5024 32.7827 56.8253 32.8978 57.1614 32.9424L58.5275 33.1187C59.1015 33.1929 59.6848 33.1025 60.2095 32.858C60.7341 32.6136 61.1785 32.2251 61.491 31.7379L61.5755 31.6094C61.6728 31.4592 61.7168 31.2807 61.7003 31.1026Z" fill="#D5A09F"/>
<path d="M82.1568 96.318C86.9308 81.1626 90.6361 62.7205 90.6361 62.7205L76.2592 61.3066C76.2592 61.3066 75.3154 85.0368 74.4231 95.5468C73.4903 106.472 69.8438 131.851 69.8438 131.851L74.2137 132.218C74.2137 132.218 81.7162 109.887 82.1568 96.318Z" fill="#263238"/>
<path d="M85.0318 75.1035L87.0295 78.6693C86.0086 82.83 84.8262 87.4056 83.5078 91.8894C83.6914 84.8534 84.4259 76.7377 85.0318 75.1035Z" fill="black"/>
<path d="M63.9887 132.861C63.9887 132.861 70.1691 132.354 70.7603 131.477L74.0837 131.98L73.5365 135.483L71.4874 135.175L71.223 134.807L70.6538 135.053C69.0013 134.8 64.5946 134.073 63.6178 133.559C63.6125 133.42 63.644 133.282 63.7091 133.16C63.7743 133.037 63.8707 132.934 63.9887 132.861Z" fill="#263238"/>
<path d="M96.1332 95.3085C95.8798 79.7271 96.8676 69.3125 95.5419 61.6338L82.4062 61.4355C82.4062 61.4355 85.6342 86.1572 87.2389 96.4506C88.8437 106.744 90.8855 132.163 90.8855 132.163H94.947C94.947 132.163 98.4797 107.365 96.1332 95.3085Z" fill="#263238"/>
<path d="M86.9048 134.313C86.9048 134.313 90.8011 132.892 91.3115 131.938H94.6753L94.4219 135.485H91.6751L91.3776 135.158L90.8341 135.485C89.1559 135.485 87.6172 135.419 86.589 135.041C86.5771 134.903 86.5998 134.764 86.6549 134.637C86.7101 134.51 86.796 134.399 86.9048 134.313Z" fill="#263238"/>
<path d="M94.9559 30.5416C90.3104 29.9651 83.671 30.0202 79.2202 30.7877C78.1084 30.9889 77.0881 31.5348 76.3038 32.3481C75.5195 33.1614 75.011 34.2009 74.8502 35.3192C73.9138 42.0395 74.718 53.7871 75.3166 65.6117C85.4814 69.0894 96.2081 65.564 96.2081 65.564C96.5753 63.177 95.7454 55.3625 95.1835 51.1908C96.0245 46.8832 97.8019 41.9477 98.977 36.2263C99.1215 35.5859 99.1298 34.9223 99.0013 34.2785C98.8729 33.6347 98.6107 33.025 98.2315 32.4891C97.8524 31.9531 97.3649 31.5028 96.8006 31.1673C96.2363 30.8318 95.6078 30.6187 94.9559 30.5416Z" fill="#263238"/>
<path d="M82.9767 30.3362C82.4185 30.8981 82.0476 31.7831 81.8493 32.9068C81.3719 35.6353 81.9117 39.84 83.3512 44.658C84.7283 40.7728 87.6918 35.6316 89.5133 32.6461C90.3763 31.2322 90.9822 30.2958 91.0336 30.215C88.3779 29.6008 85.6126 29.6424 82.9767 30.3362Z" fill="#E0E0E0"/>
<path d="M90.3558 21.6641L85.064 26.0047C85.7508 27.8224 85.9674 29.7173 82.9782 30.4481C82.2438 31.436 83.5511 32.567 84.785 33.0811C86.779 32.8351 89.5919 32.1704 90.8075 30.5105C90.4219 29.1885 89.8417 24.3558 90.3558 21.6641Z" fill="#D5A09F"/>
<path d="M83.5234 31.9883C83.7466 32.6226 84.1254 33.1908 84.6251 33.6408C85.433 33.6408 86.6118 32.7338 86.6118 32.7338C86.6118 32.7338 86.1565 31.4521 85.5101 31.1914C83.876 31.5954 83.5234 31.9883 83.5234 31.9883Z" fill="#DCA847"/>
<path d="M85.3694 33.0859C85.2441 32.9891 85.1003 32.9189 84.9468 32.8798C84.7933 32.8406 84.6335 32.8333 84.4771 32.8582C83.4194 34.3602 82.7474 36.6958 82.0938 39.3912C82.4074 41.1811 82.828 42.9507 83.3533 44.6903C83.9423 43.0913 84.6291 41.5301 85.4098 40.0155C85.108 37.7163 85.0944 35.3885 85.3694 33.0859Z" fill="#DCA847"/>
<path opacity="0.2" d="M88.1513 23.4766L85.0703 26.0031C85.2351 26.4246 85.3581 26.8612 85.4375 27.3067C86.631 27.3912 88.2909 26.183 88.3753 25.1034C88.4014 24.5519 88.3254 24.0004 88.1513 23.4766Z" fill="black"/>
<path d="M82.8898 14.0717C80.5837 16.3449 82.0966 19.9804 82.0966 19.9804C82.0966 19.9804 86.1288 12.7865 82.8898 14.0717Z" fill="#263238"/>
<path d="M91.1166 18.7088C90.6356 22.0139 90.5217 23.9932 88.6929 25.5503C85.9424 27.8932 81.9507 25.9873 81.4292 22.5831C80.9628 19.5167 81.8295 14.6069 85.208 13.5787C85.9561 13.3512 86.7497 13.3174 87.5145 13.4803C88.2792 13.6432 88.9901 13.9976 89.5806 14.5103C90.171 15.0229 90.6217 15.677 90.8903 16.4114C91.159 17.1457 91.2368 17.9362 91.1166 18.7088Z" fill="#D5A09F"/>
<path d="M91.4845 20.4096C88.9983 20.92 88.2786 18.9957 88.2786 18.9957C88.7824 19.1005 89.3024 19.1005 89.8062 18.9957C89.8062 18.9957 88.1317 17.2845 89.439 15.6283C88.756 14.8938 85.7153 15.2096 84.2978 15.6283C82.7481 15.0444 81.9513 14.7726 81.125 12.9328C81.4056 13.5 80.7913 12.3142 81.5 12C83.0424 11.2913 82.6123 11.4235 82.6123 11.4235C84.3859 10.7302 86.3079 10.5039 88.1941 10.7662C91.7929 11.273 92 11.5 93 12.5C95 14 93.4969 17.5875 93.4969 17.5875C93.268 17.4041 93.7844 15.3189 93.4969 15.261C93.6033 15.9 93.9706 19.6494 91.4845 20.4096Z" fill="#263238"/>
<path d="M91.6417 13.957C91.9905 13.2844 91.134 11.8601 90.3864 11.5703C93.0511 11.9665 92.5 13.4205 91.6417 13.957Z" fill="#263238"/>
<path d="M92.2378 21.284C92.0839 21.6322 91.8625 21.9465 91.5864 22.2087C91.3104 22.4709 90.9851 22.6758 90.6294 22.8116C89.6709 23.1789 89.0981 22.3342 89.2853 21.3868C89.4543 20.5312 90.1557 19.3193 91.1545 19.3707C91.3722 19.3849 91.5828 19.4531 91.7676 19.569C91.9523 19.685 92.1053 19.845 92.2128 20.0348C92.3203 20.2246 92.3788 20.4382 92.3832 20.6562C92.3876 20.8743 92.3376 21.09 92.2378 21.284Z" fill="#D5A09F"/>
<path d="M86.4622 18.8312C86.4401 19.1029 86.2749 19.3086 86.0949 19.2939C85.915 19.2792 85.7901 19.0442 85.8159 18.7724C85.8416 18.5007 85.9995 18.2914 86.1831 18.3097C86.3667 18.3281 86.4842 18.5594 86.4622 18.8312Z" fill="#263238"/>
<path d="M83.2115 18.7488C83.1894 19.0205 83.0279 19.2298 82.8442 19.2115C82.6606 19.1931 82.5431 18.9618 82.5651 18.69C82.5872 18.4183 82.7488 18.2126 82.9324 18.2273C83.116 18.242 83.2335 18.477 83.2115 18.7488Z" fill="#263238"/>
<path d="M83.8659 19.1172C83.8659 19.1172 83.1315 20.6265 82.375 21.3205C82.8193 21.8126 83.6529 21.6878 83.6529 21.6878L83.8659 19.1172Z" fill="#E7AFAE"/>
<path d="M87.2484 18.016C87.2751 18.0217 87.3026 18.0217 87.3292 18.016C87.349 18.0084 87.367 17.9968 87.3822 17.982C87.3974 17.9673 87.4095 17.9496 87.4177 17.9301C87.4259 17.9105 87.4301 17.8895 87.4301 17.8683C87.43 17.8471 87.4257 17.8262 87.4173 17.8067C87.3261 17.5655 87.1786 17.3497 86.9869 17.1772C86.7952 17.0047 86.5651 16.8806 86.3157 16.8152C86.2743 16.8076 86.2317 16.8163 86.1967 16.8396C86.1617 16.8629 86.1372 16.899 86.1284 16.94C86.1197 16.9819 86.1279 17.0255 86.1513 17.0613C86.1747 17.0971 86.2114 17.1222 86.2532 17.131C86.4482 17.1858 86.6272 17.2863 86.7754 17.4243C86.9236 17.5623 87.0367 17.7337 87.1052 17.9242C87.1178 17.9516 87.138 17.9748 87.1634 17.991C87.1888 18.0073 87.2183 18.016 87.2484 18.016Z" fill="#263238"/>
<path d="M81.6974 17.7152C81.7224 17.7241 81.7492 17.7268 81.7755 17.723C81.8017 17.7191 81.8266 17.7089 81.848 17.6931C82.0051 17.5684 82.1897 17.4831 82.3864 17.4441C82.5831 17.4051 82.7863 17.4137 82.979 17.4691C82.9988 17.4767 83.0199 17.4802 83.041 17.4795C83.0621 17.4788 83.0829 17.4738 83.1021 17.4649C83.1213 17.456 83.1385 17.4433 83.1526 17.4276C83.1668 17.412 83.1777 17.3936 83.1847 17.3736C83.199 17.3337 83.1969 17.2897 83.1791 17.2513C83.1612 17.2128 83.1289 17.1829 83.0892 17.168C82.8466 17.0941 82.5896 17.0798 82.3403 17.1265C82.0909 17.1732 81.8565 17.2794 81.657 17.4361C81.6342 17.4535 81.6165 17.4768 81.6057 17.5034C81.5948 17.53 81.5913 17.559 81.5954 17.5874C81.5995 17.6159 81.6112 17.6427 81.6291 17.6652C81.647 17.6876 81.6706 17.7049 81.6974 17.7152Z" fill="#263238"/>
<path d="M91.0355 30.2246C90.9804 30.3054 90.3782 31.2418 89.5152 32.6556C88.6477 33.458 87.5835 34.0167 86.4305 34.2751C86.5994 33.7059 86.089 31.778 85.5234 31.1831C86.8565 31.2602 88.6926 31.0325 91.0355 30.2246Z" fill="#FAFAFA"/>
<path d="M85.5284 31.1923C84.918 31.46 84.368 31.8486 83.9117 32.3346C83.4554 32.8205 83.1022 33.3938 82.8734 34.0199C82.6379 33.9169 82.4267 33.7657 82.2533 33.5759C82.08 33.3861 81.9485 33.1621 81.8672 32.9182C82.0655 31.7835 82.4364 30.8985 82.9946 30.3477C83.292 30.7369 84.133 31.1041 85.5284 31.1923Z" fill="#FAFAFA"/>
<path d="M98.9865 33.7873C99.2582 34.3785 99.4859 34.889 99.721 35.4655C99.956 36.042 100.162 36.5672 100.375 37.14C100.786 38.2638 101.171 39.4022 101.509 40.5773C101.865 41.7727 102.157 42.9863 102.383 44.2128C102.501 44.8445 102.6 45.4981 102.666 46.1885C102.736 46.9443 102.745 47.7045 102.692 48.4616C102.531 49.9863 102.057 51.4615 101.3 52.7949C100.671 53.9402 99.9329 55.0223 99.0967 56.0265C98.3095 56.9773 97.4645 57.8787 96.5665 58.7256C95.6769 59.5673 94.7323 60.3488 93.7388 61.0648C93.4185 61.2934 93.0281 61.4021 92.6358 61.372C92.2435 61.3419 91.8742 61.1749 91.5925 60.9002C91.3108 60.6255 91.1346 60.2605 91.0946 59.8691C91.0547 59.4776 91.1535 59.0846 91.3739 58.7587L91.429 58.6815L92.3507 57.3265C92.6629 56.8711 92.9603 56.4047 93.2578 55.942C93.8417 55.0203 94.4109 54.1059 94.8993 53.1658C95.3851 52.2893 95.8038 51.3772 96.1515 50.4373C96.304 50.0255 96.4267 49.6034 96.5187 49.1741C96.5943 48.8455 96.6252 48.5083 96.6105 48.1715C96.5834 47.78 96.5282 47.391 96.4453 47.0074C96.3572 46.5594 96.2507 46.082 96.1185 45.5936C95.8467 44.6168 95.5236 43.6032 95.171 42.586C94.8185 41.5688 94.4366 40.5442 94.0436 39.5197L92.8538 36.4754L92.8244 36.4056C92.5106 35.5938 92.5247 34.6917 92.8638 33.8901C93.203 33.0885 93.8406 32.4502 94.6418 32.1102C95.443 31.7702 96.345 31.755 97.1572 32.068C97.9694 32.381 98.628 32.9975 98.9938 33.7873H98.9865Z" fill="#263238"/>
<path d="M79.2993 51.0908C77.8244 52.2371 76.8312 53.8932 76.5146 55.7342C76.198 57.5751 76.581 59.4679 77.5883 61.041C78.5956 62.6141 80.1546 63.7538 81.9591 64.2366C83.7636 64.7193 85.6834 64.51 87.3416 63.65L88.2597 64.8251L88.0907 65.5595L90.0407 68.0677L91.1057 68.0897L90.8156 69.3273L94.6421 74.2481L96.6985 74.2848L97.3889 75.1772L97.0474 76.6461L99.5849 79.9071L101.737 79.9475L102.104 77.6376L89.7322 61.7331C90.8917 60.3051 91.485 58.5002 91.399 56.6628C91.3129 54.8253 90.5535 53.0838 89.2655 51.7705C87.9776 50.4572 86.2513 49.6638 84.4159 49.5419C82.5805 49.4199 80.7644 49.9778 79.314 51.1092L79.2993 51.0908ZM82.4648 55.1597C82.1677 55.3918 81.8083 55.5305 81.4323 55.5583C81.0563 55.5861 80.6805 55.5017 80.3524 55.3159C80.0243 55.13 79.7588 54.851 79.5893 54.5142C79.4198 54.1774 79.354 53.7979 79.4003 53.4237C79.4466 53.0495 79.6028 52.6974 79.8492 52.412C80.0956 52.1266 80.4211 51.9207 80.7845 51.8204C81.148 51.72 81.533 51.7297 81.891 51.8483C82.2489 51.9668 82.5636 52.1888 82.7953 52.4863C83.1057 52.8847 83.2453 53.3901 83.1833 53.8914C83.1213 54.3927 82.8629 54.8488 82.4648 55.1597Z" fill="#DCA847"/>
<path d="M94.2007 60.3423C94.1522 60.165 94.0414 60.0112 93.8886 59.909L92.5923 59.013C92.4678 58.9267 92.3215 58.8772 92.1702 58.87C92.019 58.8629 91.8687 58.8984 91.7366 58.9726L90.5725 59.6373C89.4407 60.2779 88.4601 61.1546 87.6971 62.2078L87.4438 62.5751C87.341 62.7184 87.2678 62.8808 87.2285 63.0527C87.1893 63.2247 87.1848 63.4028 87.2152 63.5765C87.2456 63.7502 87.3104 63.9161 87.4058 64.0645C87.5012 64.2129 87.6252 64.3407 87.7706 64.4406L89.1146 65.366C89.3739 65.5439 89.688 65.6239 90.0008 65.5916C90.3136 65.5593 90.6048 65.4169 90.8222 65.1897L92.1369 63.7869C92.1369 63.7869 94.634 61.9508 94.2007 60.3423Z" fill="#D5A09F"/>
<path d="M91.813 58.2773C91.2377 58.5207 90.7028 58.85 90.2266 59.2542C90.3955 60.2861 93.2709 62.0047 94.2403 62.0267C94.6333 61.6595 95.1511 60.1502 95.1511 60.1502C94.0641 59.6802 92.5988 58.6446 91.813 58.2773Z" fill="#E0E0E0"/>
<path d="M62.3948 32.5731C62.4076 31.9523 62.3258 31.3332 62.1524 30.737C61.1425 30.4652 58.3993 32.3895 57.9844 33.2708C58.1643 33.7813 59.3211 34.8646 59.3211 34.8646C60.1914 34.042 61.7338 33.124 62.3948 32.5731Z" fill="#E0E0E0"/>
<path d="M90.649 132.277L95.1586 132.405L95.6286 129.842L90.3516 130.158L90.649 132.277Z" fill="#DCA847"/>
<path d="M69.6328 131.819L74.4545 132.565L75.2697 130.435L69.9266 129.227L69.6328 131.819Z" fill="#DCA847"/>
<path d="M84.9138 22.6575C84.7395 22.6649 84.565 22.6563 84.3923 22.6318C84.3808 22.63 84.3697 22.6259 84.3598 22.6197C84.3499 22.6135 84.3414 22.6053 84.3349 22.5956C84.3283 22.586 84.3238 22.5751 84.3217 22.5636C84.3196 22.5521 84.3199 22.5403 84.3225 22.5289C84.3278 22.5043 84.342 22.4825 84.3623 22.4676C84.3826 22.4527 84.4076 22.4458 84.4327 22.4481C84.8217 22.5059 85.2187 22.4748 85.594 22.3571C85.9692 22.2394 86.313 22.0383 86.5993 21.7688C86.6171 21.7517 86.6408 21.7422 86.6654 21.7422C86.6901 21.7422 86.7138 21.7517 86.7315 21.7688C86.7484 21.7859 86.7578 21.809 86.7578 21.833C86.7578 21.8571 86.7484 21.8801 86.7315 21.8973C86.2407 22.3671 85.5929 22.6379 84.9138 22.6575Z" fill="#263238"/>
<path d="M72.2731 9.2327L61.1645 8.34034L51.7305 3.6582L41.3894 6.75025L39.8984 25.3135L70.7822 27.796L72.2731 9.2327Z" fill="#DCA847"/>
<path d="M36.7003 27.1162L31.8125 26.7232L32.4258 19.0996L33.0097 19.1473L32.4441 26.1871L36.748 26.5323L36.7003 27.1162Z" fill="#DCA847"/>
<path d="M39.0079 26.5667L38.9609 27.1543L42.7801 27.4598L42.8271 26.8723L39.0079 26.5667Z" fill="#DCA847"/>
<path d="M41.5874 18.59L34.5703 18.0254L34.0219 24.8411L41.039 25.4057L41.5874 18.59Z" fill="#DCA847"/>
<path opacity="0.2" d="M41.0391 25.4049L47.1938 25.9007L47.9392 16.6172L41.5862 18.5855L41.0391 25.4049Z" fill="black"/>
<path opacity="0.2" d="M72.2735 9.2415L61.1641 8.34766L59.6706 26.9097L70.78 27.8036L72.2735 9.2415Z" fill="black"/>
<path d="M62.8352 4.55056L51.7266 3.6582L61.1606 8.34034L72.2692 9.2327L62.8352 4.55056Z" fill="#263238"/>
<path d="M72.2779 9.82137H72.2302L61.1216 8.92901C61.0474 8.92117 60.9753 8.90002 60.9086 8.86658L51.4746 4.18445C51.3523 4.12372 51.2551 4.02233 51.1994 3.89769C51.1438 3.77305 51.1333 3.63294 51.1698 3.50141C51.2073 3.37037 51.2887 3.2562 51.4003 3.17799C51.512 3.09978 51.6471 3.06228 51.783 3.07175L62.8916 3.96411C62.967 3.97191 63.0403 3.99305 63.1083 4.02654L72.5387 8.70133C72.6511 8.76331 72.7401 8.86039 72.7922 8.97776C72.8442 9.09512 72.8564 9.22629 72.8268 9.35122C72.7972 9.47614 72.7276 9.58795 72.6284 9.66953C72.5293 9.75112 72.4062 9.79801 72.2779 9.80301V9.82137ZM61.3272 7.7649L69.2887 8.40755L62.6786 5.12822L54.7172 4.48557L61.3272 7.7649Z" fill="#263238"/>
<path d="M40.9311 16.0566L47.9452 16.6185L41.5921 18.5868L34.5781 18.025L40.9311 16.0566Z" fill="#263238"/>
<path d="M41.5898 18.961H41.5604L34.5427 18.3955C34.4565 18.389 34.3754 18.3523 34.3136 18.2918C34.2518 18.2314 34.2133 18.151 34.2049 18.065C34.1962 17.9768 34.2197 17.8885 34.271 17.8163C34.3222 17.7441 34.3979 17.6929 34.484 17.6721L40.837 15.7C40.8831 15.6911 40.9305 15.6911 40.9765 15.7L47.9906 16.2656C48.0769 16.2711 48.1584 16.3069 48.2209 16.3667C48.2834 16.4265 48.3228 16.5064 48.3321 16.5924C48.3426 16.6787 48.3222 16.7659 48.2744 16.8385C48.2267 16.9111 48.1547 16.9644 48.0714 16.989L41.7183 18.9573C41.6761 18.9661 41.6325 18.9674 41.5898 18.961ZM36.5221 17.8079L41.5494 18.2119L45.9965 16.8348L40.9692 16.4308L36.5221 17.8079Z" fill="#263238"/>
<path d="M41.6742 7.36034C41.5351 7.35866 41.4011 7.30768 41.2961 7.21645C41.191 7.12522 41.1217 6.99968 41.1006 6.86216C41.0794 6.72465 41.1078 6.58409 41.1805 6.4655C41.2533 6.34692 41.3658 6.25801 41.498 6.21459L51.56 3.09684C51.6362 3.05606 51.7205 3.0326 51.8068 3.02813C51.8932 3.02366 51.9794 3.0383 52.0594 3.071C52.1395 3.1037 52.2113 3.15366 52.2698 3.21731C52.3283 3.28096 52.372 3.35673 52.3979 3.43923C52.4237 3.52172 52.431 3.6089 52.4193 3.69455C52.4076 3.7802 52.3771 3.86221 52.3301 3.93473C52.283 4.00725 52.2205 4.06849 52.1471 4.11409C52.0736 4.15969 51.991 4.18852 51.9052 4.19852L41.8468 7.31627C41.7919 7.33976 41.7337 7.35462 41.6742 7.36034Z" fill="#263238"/>
<path opacity="0.6" d="M55.5648 19.3501L51.5547 19.0293L50.9709 26.3261L54.9811 26.6469L55.5648 19.3501Z" fill="white"/>
<path d="M55.9391 10.1958L46.5391 9.43945L46.0843 15.0912L55.4843 15.8475L55.9391 10.1958Z" fill="white"/>
<path d="M50.8163 10.1602L46.8594 9.8418L46.4647 14.7468L50.4217 15.0651L50.8163 10.1602Z" fill="#DCA847"/>
<path d="M55.5585 10.543L51.6016 10.2246L51.2069 15.1296L55.1638 15.448L55.5585 10.543Z" fill="#DCA847"/>
<path d="M69.2996 11.2722L64.0469 10.8496L63.5921 16.5013L68.8449 16.9239L69.2996 11.2722Z" fill="white"/>
<path d="M66.414 11.4181L64.2031 11.2402L63.8085 16.1452L66.0194 16.3231L66.414 11.4181Z" fill="#DCA847"/>
<path d="M69.0625 11.6291L66.8516 11.4512L66.4569 16.3562L68.6678 16.534L69.0625 11.6291Z" fill="#DCA847"/>
<path d="M68.5652 20.3035L63.3125 19.8809L62.8578 25.5326L68.1105 25.9552L68.5652 20.3035Z" fill="white"/>
<path d="M65.6875 20.4494L63.4766 20.2715L63.0819 25.1765L65.2928 25.3544L65.6875 20.4494Z" fill="#DCA847"/>
<path d="M68.5618 20.7731L66.3438 20.5957L65.9501 25.5165L68.1681 25.694L68.5618 20.7731Z" fill="#DCA847"/>
</svg>
