<?xml version="1.0" encoding="utf-8"?>
<svg viewBox="74 73 430 1117" fill="none" xmlns="http://www.w3.org/2000/svg">
    <g clipPath="url(#clip0_2969_32068)" filter="url(#filter0_d_2969_32068)">
        <rect width="430" height="1117" transform="translate(74 73)" fill="white"/>
        <rect width="430" height="1117" transform="matrix(-1 0 0 1 504 73)" fill="#273A2F"/>
        <path opacity="0.3" d="M699.489 656C699.489 915.574 489.063 1216 229.489 1216C-30.0849 1216 -365 1192.07 -365 932.5C-365 672.926 -30.0849 186 229.489 186C489.063 186 699.489 396.426 699.489 656Z" fill="#2A4E55"/>
        <path opacity="0.3" d="M1407.49 42C1407.49 301.574 1197.06 602 937.489 602C677.915 602 343 578.074 343 318.5C343 58.9262 677.915 -428 937.489 -428C1197.06 -428 1407.49 -217.574 1407.49 42Z" fill="#2A4E55"/>
    </g>
    <defs>
        <filter id="filter0_d_2969_32068" x="0" y="0" width="578" height="1265" filterUnits="userSpaceOnUse" colorInterpolationFilters="sRGB">
            <feFlood floodOpacity="0" result="BackgroundImageFix"/>
            <feColorMatrix in="SourceAlpha" type="matrix" values="0 0 0 0 0 0 0 0 0 0 0 0 0 0 0 0 0 0 127 0" result="hardAlpha"/>
            <feMorphology radius="10" operator="dilate" in="SourceAlpha" result="effect1_dropShadow_2969_32068"/>
            <feOffset dy="1"/>
            <feGaussianBlur stdDeviation="32"/>
            <feComposite in2="hardAlpha" operator="out"/>
            <feColorMatrix type="matrix" values="0 0 0 0 0 0 0 0 0 0 0 0 0 0 0 0 0 0 0.12 0"/>
            <feBlend mode="normal" in2="BackgroundImageFix" result="effect1_dropShadow_2969_32068"/>
            <feBlend mode="normal" in="SourceGraphic" in2="effect1_dropShadow_2969_32068" result="shape"/>
        </filter>
        <clipPath id="clip0_2969_32068">
            <rect width="430" height="1117" fill="white" transform="translate(74 73)"/>
        </clipPath>
    </defs>
</svg>