<svg width="356" height="298" viewBox="0 0 356 298" fill="none" xmlns="http://www.w3.org/2000/svg">
<g clip-path="url(#clip0_5775_82247)">
<path d="M313.79 18.1034H0.492038C0.360547 18.1004 0.235427 18.0462 0.143464 17.9522C0.0515002 17.8582 0 17.732 0 17.6005C0 17.469 0.0515002 17.3428 0.143464 17.2488C0.235427 17.1548 0.360547 17.1006 0.492038 17.0977H313.79C313.921 17.1006 314.046 17.1548 314.138 17.2488C314.23 17.3428 314.282 17.469 314.282 17.6005C314.282 17.732 314.23 17.8582 314.138 17.9522C314.046 18.0462 313.921 18.1004 313.79 18.1034Z" fill="#CACACA"/>
<path d="M11.5694 11.0627C14.5591 11.0627 16.9826 8.58621 16.9826 5.53134C16.9826 2.47646 14.5591 0 11.5694 0C8.57982 0 6.15625 2.47646 6.15625 5.53134C6.15625 8.58621 8.57982 11.0627 11.5694 11.0627Z" fill="#305A61"/>
<path d="M30.2647 11.0627C33.2544 11.0627 35.6779 8.58621 35.6779 5.53134C35.6779 2.47646 33.2544 0 30.2647 0C27.2751 0 24.8516 2.47646 24.8516 5.53134C24.8516 8.58621 27.2751 11.0627 30.2647 11.0627Z" fill="#305A61"/>
<path d="M48.9679 11.0627C51.9575 11.0627 54.3811 8.58621 54.3811 5.53134C54.3811 2.47646 51.9575 0 48.9679 0C45.9783 0 43.5547 2.47646 43.5547 5.53134C43.5547 8.58621 45.9783 11.0627 48.9679 11.0627Z" fill="#305A61"/>
<path d="M302.582 1.37109H289.299C289.035 1.37632 288.785 1.48454 288.6 1.67251C288.416 1.86048 288.312 2.11321 288.312 2.37645C288.312 2.63968 288.416 2.89242 288.6 3.08039C288.785 3.26836 289.035 3.37658 289.299 3.3818H302.582C302.845 3.37658 303.096 3.26836 303.281 3.08039C303.465 2.89242 303.568 2.63968 303.568 2.37645C303.568 2.11321 303.465 1.86048 303.281 1.67251C303.096 1.48454 302.845 1.37632 302.582 1.37109Z" fill="#305A61"/>
<path d="M302.582 5.14453H289.299C289.035 5.14976 288.785 5.25797 288.6 5.44595C288.416 5.63392 288.312 5.88666 288.312 6.14989C288.312 6.41312 288.416 6.66586 288.6 6.85383C288.785 7.0418 289.035 7.15002 289.299 7.15525H302.582C302.845 7.15002 303.096 7.0418 303.281 6.85383C303.465 6.66586 303.568 6.41312 303.568 6.14989C303.568 5.88666 303.465 5.63392 303.281 5.44595C303.096 5.25797 302.845 5.14976 302.582 5.14453Z" fill="#305A61"/>
<path d="M302.582 8.91406H289.299C289.035 8.91929 288.785 9.02751 288.6 9.21548C288.416 9.40345 288.312 9.65618 288.312 9.91942C288.312 10.1826 288.416 10.4354 288.6 10.6234C288.785 10.8113 289.035 10.9195 289.299 10.9248H302.582C302.845 10.9195 303.096 10.8113 303.281 10.6234C303.465 10.4354 303.568 10.1826 303.568 9.91942C303.568 9.65618 303.465 9.40345 303.281 9.21548C303.096 9.02751 302.845 8.91929 302.582 8.91406Z" fill="#305A61"/>
<path d="M297.626 35.082H12.2652C10.6851 35.0844 9.17038 35.7128 8.05308 36.8296C6.93578 37.9464 6.30705 39.4605 6.30469 41.0399V42.0007C6.30705 43.58 6.93578 45.0941 8.05308 46.2109C9.17038 47.3277 10.6851 47.9561 12.2652 47.9585H297.626C299.207 47.9561 300.721 47.3277 301.839 46.2109C302.956 45.0941 303.585 43.58 303.587 42.0007V41.0399C303.585 39.4605 302.956 37.9464 301.839 36.8296C300.721 35.7128 299.207 35.0844 297.626 35.082Z" fill="#F0F0F0"/>
<path d="M46.7035 43.8963H19.5404C18.9326 43.8954 18.3501 43.6534 17.9206 43.2236C17.4912 42.7937 17.25 42.211 17.25 41.6036C17.25 40.9961 17.4912 40.4134 17.9206 39.9835C18.3501 39.5537 18.9326 39.3117 19.5404 39.3108H46.7035C49.6616 39.2695 49.6912 43.9379 46.7035 43.8963Z" fill="white"/>
<path d="M127.954 43.8963H100.79C100.183 43.8954 99.6001 43.6534 99.1706 43.2236C98.7412 42.7937 98.5 42.211 98.5 41.6036C98.5 40.9961 98.7412 40.4134 99.1706 39.9835C99.6001 39.5537 100.183 39.3117 100.79 39.3108H127.954C130.912 39.2695 130.941 43.9379 127.954 43.8963Z" fill="white"/>
<path d="M209.211 43.8963H182.048C181.44 43.8954 180.858 43.6534 180.428 43.2236C179.999 42.7937 179.758 42.211 179.758 41.6036C179.758 40.9961 179.999 40.4134 180.428 39.9835C180.858 39.5537 181.44 39.3117 182.048 39.3108H209.211C212.169 39.2695 212.199 43.9379 209.211 43.8963Z" fill="white"/>
<path d="M286.262 44.1443H259.098C258.49 44.1443 257.907 43.9028 257.477 43.4728C257.046 43.0428 256.805 42.4597 256.805 41.8516C256.805 41.2435 257.046 40.6604 257.477 40.2304C257.907 39.8004 258.49 39.5589 259.098 39.5589H286.262C289.22 39.5176 289.249 44.186 286.262 44.1443Z" fill="#DDB771"/>
<path d="M243.882 35.082H242.891V47.9585H243.882V35.082Z" fill="white"/>
<path d="M141.337 225.659H24.875C23.8373 225.658 22.8424 225.245 22.1087 224.512C21.3749 223.778 20.9621 222.784 20.9609 221.747V204.697C20.9621 203.66 21.3749 202.666 22.1087 201.932C22.8424 201.199 23.8373 200.786 24.875 200.785H141.337C142.375 200.786 143.369 201.199 144.103 201.932C144.837 202.666 145.25 203.66 145.251 204.697V221.747C145.25 222.784 144.837 223.778 144.103 224.512C143.369 225.245 142.375 225.658 141.337 225.659Z" fill="#F0F0F0"/>
<path d="M130.021 223.02H27.5156C26.4779 223.018 25.4831 222.606 24.7493 221.872C24.0155 221.139 23.6028 220.145 23.6016 219.107V207.338C23.6028 206.301 24.0155 205.306 24.7493 204.573C25.4831 203.84 26.4779 203.427 27.5156 203.426H138.697C139.734 203.427 140.729 203.84 141.463 204.573C142.197 205.306 142.61 206.301 142.611 207.338V210.436C142.607 213.772 141.279 216.971 138.919 219.33C136.559 221.689 133.359 223.016 130.021 223.02Z" fill="white"/>
<path d="M94.662 212.01H47.8532C47.5855 212.01 47.3287 211.904 47.1394 211.715C46.9501 211.525 46.8438 211.269 46.8438 211.001C46.8438 210.734 46.9501 210.477 47.1394 210.288C47.3287 210.099 47.5855 209.992 47.8532 209.992H94.662C94.9297 209.992 95.1865 210.099 95.3758 210.288C95.5651 210.477 95.6714 210.734 95.6714 211.001C95.6714 211.269 95.5651 211.525 95.3758 211.715C95.1865 211.904 94.9297 212.01 94.662 212.01Z" fill="#E6E6E6"/>
<path d="M118.36 216.137H47.8554C47.7227 216.137 47.5912 216.112 47.4684 216.061C47.3457 216.01 47.2342 215.936 47.1402 215.842C47.0462 215.749 46.9717 215.637 46.9208 215.515C46.8699 215.392 46.8438 215.261 46.8438 215.128C46.8438 214.995 46.8699 214.864 46.9208 214.741C46.9717 214.619 47.0462 214.508 47.1402 214.414C47.2342 214.32 47.3457 214.246 47.4684 214.195C47.5912 214.145 47.7227 214.119 47.8554 214.119H118.36C118.627 214.12 118.883 214.226 119.072 214.415C119.261 214.605 119.367 214.861 119.367 215.128C119.367 215.395 119.261 215.652 119.072 215.841C118.883 216.03 118.627 216.137 118.36 216.137Z" fill="#E6E6E6"/>
<path d="M148.78 181.278H15.9888C14.9292 181.277 13.9134 180.856 13.1641 180.107C12.4149 179.358 11.9934 178.342 11.9922 177.283V75.8228C11.9934 74.7637 12.4149 73.7483 13.1641 72.9994C13.9134 72.2505 14.9292 71.8293 15.9888 71.8281H148.78C149.84 71.8293 150.855 72.2505 151.605 72.9994C152.354 73.7483 152.775 74.7637 152.777 75.8228V177.283C152.775 178.342 152.354 179.358 151.605 180.107C150.855 180.856 149.84 181.277 148.78 181.278Z" fill="white"/>
<path d="M148.775 181.774H15.9843C14.7934 181.773 13.6516 181.299 12.8094 180.458C11.9673 179.616 11.4936 178.475 11.4922 177.284V75.8239C11.4936 74.6335 11.9673 73.4922 12.8095 72.6505C13.6516 71.8088 14.7934 71.3353 15.9843 71.334H148.775C149.966 71.3353 151.108 71.8088 151.95 72.6505C152.792 73.4922 153.266 74.6335 153.267 75.8239V177.284C153.266 178.475 152.792 179.616 151.95 180.458C151.108 181.299 149.966 181.773 148.775 181.774ZM15.9843 72.3245C15.0561 72.3255 14.1662 72.6945 13.5098 73.3506C12.8535 74.0066 12.4842 74.8961 12.4831 75.8239V177.284C12.4842 178.212 12.8534 179.102 13.5098 179.758C14.1661 180.414 15.0561 180.783 15.9843 180.784H148.775C149.704 180.783 150.593 180.414 151.25 179.758C151.906 179.102 152.275 178.212 152.276 177.284V75.8239C152.275 74.8961 151.906 74.0066 151.25 73.3505C150.593 72.6945 149.703 72.3255 148.775 72.3245L15.9843 72.3245Z" fill="#F0F0F0"/>
<path d="M12.2969 161.965V177.285C12.2983 178.262 12.6876 179.2 13.3792 179.891C14.0709 180.582 15.0086 180.971 15.9867 180.973H148.778C149.756 180.971 150.694 180.582 151.385 179.891C152.077 179.2 152.466 178.262 152.468 177.285V161.965H12.2969Z" fill="#F0F0F0"/>
<path d="M13.5498 72.4746L13.0156 73.3086L152.202 162.38L152.737 161.546L13.5498 72.4746Z" fill="#F0F0F0"/>
<path d="M152.593 72.4751L13.4062 161.547L13.9405 162.381L153.127 73.3092L152.593 72.4751Z" fill="#F0F0F0"/>
<path d="M270.208 291.102L264.069 291.101L261.148 267.434L270.209 267.434L270.208 291.102Z" fill="#A0616A"/>
<path d="M270.049 289.096L263.499 286.437L263.306 286.357L259.689 289.096C257.704 289.096 255.796 289.862 254.362 291.234C252.928 292.606 252.08 294.478 251.994 296.461C251.984 296.569 251.984 296.683 251.984 296.797V297.05H271.778V289.096H270.049Z" fill="#2F2E41"/>
<path d="M255.835 285.391L250.044 287.427L239.43 266.07L247.977 263.064L255.835 285.391Z" fill="#A0616A"/>
<path d="M255.013 283.554L247.951 283.218L247.742 283.208L245.24 286.991C243.367 287.65 241.821 289.005 240.925 290.775C240.028 292.545 239.849 294.593 240.427 296.491C240.453 296.597 240.491 296.704 240.529 296.812L240.613 297.05L259.285 290.483L256.644 282.98L255.013 283.554Z" fill="#2F2E41"/>
<path d="M272.38 189.051C277.997 188.833 271.039 233.569 271.039 233.569C271.039 233.569 273.075 272.845 272.643 274.906C272.212 276.967 272.589 282.526 272.589 282.526C271.488 280.524 260.137 282.035 260.137 282.035L258.592 242.229L250.708 210.335L239.776 231.714L250.253 264.53C250.253 264.53 254.496 268.454 254.045 270.005C253.594 271.556 242.48 275.053 240.438 275.132C238.396 275.211 239.318 272.62 239.219 270.068C239.12 267.517 229.51 243.867 226.13 235.821C222.75 227.774 225.377 216.428 227.103 208.184C228.828 199.939 237.906 184.467 237.906 184.467C249.174 171.764 266.764 189.269 272.38 189.051Z" fill="#2F2E41"/>
<path d="M203.94 152.898C204.248 153.486 204.681 153.999 205.208 154.401C205.735 154.803 206.345 155.085 206.993 155.227C207.641 155.368 208.312 155.366 208.959 155.22C209.606 155.074 210.214 154.788 210.738 154.382L224.244 163.189L224.203 154.813L211.384 147.734C210.643 146.898 209.622 146.363 208.513 146.23C207.404 146.097 206.285 146.375 205.367 147.011C204.45 147.648 203.798 148.599 203.535 149.684C203.272 150.769 203.416 151.913 203.94 152.898Z" fill="#A0616A"/>
<path d="M269.465 196.223C255.538 196.223 247.862 193.437 243.787 190.948C238.803 187.906 237.95 184.697 237.916 184.562L237.906 184.523L238.391 178.422L238.603 177.947C239.581 175.759 239.711 173.287 238.967 171.01L238.952 170.963L238.956 170.914L242.213 128.697L253.737 124.923L257.09 121.556L272.017 121.34L274.097 125.555L285.865 129.983L280.083 164.381L277.312 169.156L278.427 174.358L278.419 174.404L274.783 196.096L274.583 196.105C272.79 196.185 271.084 196.225 269.465 196.223Z" fill="#305A61"/>
<path d="M233.433 169.884L227.969 166.647L227.627 166.152C226.931 165.152 226.011 164.328 224.939 163.748C223.867 163.168 222.675 162.846 221.456 162.81L221.393 162.808L213.867 158.386L216.987 149.252L228.784 152.736L237.008 132.309C237.46 131.187 238.214 130.213 239.187 129.494C240.16 128.775 241.313 128.34 242.518 128.237C243.724 128.134 244.934 128.367 246.015 128.91C247.096 129.454 248.004 130.287 248.64 131.316C249.291 132.391 249.629 133.627 249.615 134.884V148.249L249.565 148.316L233.433 169.884Z" fill="#305A61"/>
<path d="M269.959 188.366C270.076 187.713 270.335 187.094 270.717 186.552C271.099 186.01 271.596 185.558 272.171 185.229C272.747 184.899 273.388 184.7 274.049 184.645C274.71 184.589 275.375 184.68 275.998 184.909L286.232 172.453L288.71 180.455L278.612 191.057C278.156 192.076 277.343 192.893 276.325 193.353C275.307 193.813 274.156 193.884 273.09 193.553C272.023 193.221 271.116 192.51 270.539 191.554C269.962 190.598 269.756 189.464 269.959 188.366Z" fill="#A0616A"/>
<path d="M285.266 186.793L278.47 180L282.796 169.464L289.066 160.906C282.385 157.655 277.37 149.954 273.736 143.579L273.695 143.507L274.6 136.423C274.812 134.766 275.476 133.2 276.519 131.895C277.427 130.761 278.593 129.86 279.92 129.268C281.247 128.676 282.697 128.41 284.147 128.493C285.598 128.576 287.008 129.005 288.259 129.744C289.51 130.483 290.566 131.511 291.338 132.741L303.523 159.816L303.386 160.02L293.585 176.72L290.91 178.453L285.266 186.793Z" fill="#305A61"/>
<path d="M275.27 107.139C274.822 110.403 273.095 113.356 270.47 115.35C267.845 117.343 264.536 118.212 261.269 117.768C258.003 117.324 255.046 115.601 253.049 112.98C251.053 110.358 250.179 107.051 250.62 103.785L250.644 103.609C251.159 100.387 252.921 97.4968 255.549 95.5616C258.177 93.6264 261.461 92.8015 264.692 93.2646C267.923 93.7278 270.843 95.442 272.821 98.0374C274.799 100.633 275.677 103.901 275.266 107.138L275.27 107.139Z" fill="#A0616A"/>
<path d="M272.103 113.543C272.742 112.246 273.398 110.853 273.219 109.419C273.039 107.984 271.632 106.613 270.25 107.04C269.424 107.295 268.799 108.11 267.935 108.152C266.747 108.209 266.065 106.85 265.695 105.719L264.188 101.115C262.742 102.242 261.064 103.036 259.274 103.44C257.485 103.844 255.629 103.849 253.838 103.453C252.439 103.133 251.025 102.51 250.205 101.333C249.384 100.157 249.389 98.3313 250.515 97.4414C251.066 97.0051 251.801 96.8394 252.328 96.3738C252.656 96.085 252.881 95.6986 252.971 95.2717C253.062 94.8449 253.012 94.4003 252.83 94.0037C252.648 93.6072 252.343 93.2797 251.961 93.0699C251.578 92.86 251.138 92.7789 250.705 92.8385L254.499 92.3645L253.369 90.321C253.799 90.6133 254.284 90.8127 254.796 90.9065C255.307 91.0002 255.832 90.9862 256.338 90.8654C257.358 90.6817 258.32 90.2616 259.318 89.9815C261.738 89.3637 264.294 89.5525 266.597 90.5192C268.901 91.4859 270.825 93.1777 272.079 95.3374C273.012 95.0258 274.018 95.0051 274.964 95.2781C275.91 95.551 276.75 96.1047 277.374 96.8657C278.389 98.1541 278.665 99.8735 278.705 101.513C278.779 104.747 278.073 107.95 276.648 110.854C276.24 111.776 275.653 112.608 274.921 113.303C274.553 113.648 274.113 113.907 273.634 114.064C273.154 114.221 272.646 114.271 272.146 114.21" fill="#2F2E41"/>
<path d="M70.5448 100.749C70.7478 103.645 71.6012 106.458 73.0417 108.978C76.0777 114.308 81.2839 118.166 86.8911 120.46C93.8965 123.325 101.706 123.413 109.14 122.774C116.045 122.181 122.88 120.805 129.811 120.522C135.171 120.351 140.536 120.478 145.882 120.905C156.253 121.641 166.581 123.006 176.842 124.661C179.621 125.104 182.394 125.579 185.162 126.088C185.423 126.111 185.682 126.159 185.934 126.232C185.985 126.252 186.065 126.236 186.111 126.265C186.195 126.318 185.773 126.132 186.029 126.343C186.385 126.716 186.702 127.124 186.976 127.561L190.766 132.436C191.853 133.834 192.862 135.533 194.266 136.635C195.257 137.399 196.451 137.854 197.7 137.941C198.948 138.028 200.195 137.743 201.282 137.123C202.417 136.406 203.323 135.378 203.89 134.161C204.762 132.563 205.802 131.063 206.993 129.686C211.501 124.428 217.768 121.194 223.009 116.771C225.547 114.716 227.714 112.24 229.414 109.452C230.865 106.929 231.766 104.128 232.061 101.233C232.688 95.3541 230.884 89.3585 227.848 84.3569C224.546 78.9836 219.802 74.6437 214.156 71.8303C207.813 68.6002 200.794 67.0268 193.758 66.2428C186.288 65.4103 178.732 65.4129 171.225 65.497C162.801 65.5907 154.392 65.961 145.998 66.6078C137.593 67.2581 129.221 68.1824 120.882 69.3808C112.881 70.5307 104.782 71.7292 96.9492 73.7639C90.03 75.5613 83.1303 78.3708 77.9635 83.4613C73.3695 87.9874 70.1743 94.1812 70.5448 100.749Z" fill="#DDB771"/>
<path d="M109.218 102.619C108.876 102.604 108.541 102.518 108.234 102.367C107.926 102.216 107.654 102.002 107.433 101.741C107.212 101.479 107.048 101.175 106.951 100.847C106.854 100.518 106.826 100.174 106.868 99.834L107.046 98.435C107.08 98.1667 107.048 97.8941 106.953 97.6407C106.859 97.3874 106.704 97.1608 106.502 96.9805L105.451 96.0415C105.106 95.7341 104.855 95.3366 104.725 94.8938C104.595 94.4511 104.592 93.9808 104.715 93.5362C104.839 93.0916 105.084 92.6903 105.424 92.3779C105.763 92.0655 106.184 91.8543 106.637 91.7683L108.023 91.5052C108.289 91.4548 108.539 91.3406 108.75 91.1724C108.962 91.0043 109.13 90.7872 109.239 90.5398L109.808 89.2485C109.994 88.8264 110.295 88.4648 110.676 88.2045C111.057 87.9443 111.503 87.7957 111.964 87.7758C112.425 87.7558 112.883 87.8651 113.285 88.0914C113.687 88.3178 114.018 88.652 114.24 89.0564L114.919 90.2926C115.049 90.5299 115.235 90.7321 115.46 90.8816C115.686 91.031 115.945 91.1234 116.214 91.1507L117.617 91.2924C118.076 91.3388 118.514 91.5128 118.879 91.7946C119.245 92.0764 119.524 92.4548 119.685 92.8871C119.847 93.3193 119.884 93.7882 119.793 94.2405C119.702 94.6928 119.486 95.1107 119.17 95.4468L118.204 96.4737C118.018 96.6704 117.883 96.9094 117.811 97.1699C117.738 97.4304 117.731 97.7046 117.788 97.9688L118.086 99.3477C118.184 99.7986 118.153 100.268 117.998 100.702C117.843 101.137 117.569 101.519 117.208 101.806C116.847 102.093 116.412 102.273 115.954 102.327C115.495 102.38 115.031 102.304 114.614 102.107L113.338 101.506C113.093 101.39 112.824 101.336 112.553 101.347C112.283 101.359 112.02 101.436 111.786 101.573L110.567 102.282C110.158 102.521 109.691 102.638 109.218 102.619Z" fill="white"/>
<path d="M129.088 102.044C128.458 102.015 127.863 101.749 127.421 101.3C127.154 101.018 126.955 100.678 126.839 100.307C126.723 99.936 126.692 99.5436 126.75 99.1592L126.913 97.8756C126.948 97.6023 126.916 97.3246 126.819 97.0665C126.723 96.8084 126.565 96.5776 126.36 96.394L125.384 95.523C125.097 95.2776 124.867 94.9712 124.713 94.626C124.559 94.2809 124.484 93.9057 124.493 93.5279C124.514 92.9681 124.725 92.4322 125.091 92.0079C125.457 91.5836 125.956 91.2961 126.507 91.1926L127.877 90.9325C128.148 90.8811 128.402 90.7646 128.618 90.593C128.834 90.4215 129.004 90.2001 129.115 89.9479L129.626 88.7891C129.809 88.3493 130.109 87.9683 130.494 87.6882C130.879 87.408 131.334 87.2395 131.809 87.2012C132.274 87.1748 132.738 87.2811 133.145 87.5076C133.552 87.7341 133.887 88.0716 134.11 88.4807L134.78 89.7025C134.913 89.9444 135.102 90.1503 135.333 90.3026C135.563 90.4549 135.826 90.549 136.101 90.5767L137.401 90.708C137.778 90.7375 138.144 90.8508 138.472 91.0396C138.8 91.2284 139.082 91.488 139.296 91.7994C139.608 92.2648 139.752 92.8221 139.705 93.3801C139.659 93.9381 139.424 94.4638 139.039 94.871L138.084 95.886C137.896 96.0866 137.758 96.33 137.685 96.5952C137.611 96.8605 137.603 97.1397 137.661 97.4089L137.936 98.6821C138.025 99.0495 138.03 99.432 137.952 99.8019C137.875 100.172 137.716 100.52 137.488 100.821C137.142 101.263 136.656 101.575 136.11 101.704C135.564 101.833 134.99 101.772 134.483 101.531L133.22 100.937C132.971 100.819 132.697 100.764 132.422 100.776C132.147 100.788 131.879 100.867 131.641 101.005L130.436 101.707C130.028 101.945 129.56 102.062 129.088 102.044Z" fill="white"/>
<path d="M148.999 101.959C148.657 101.944 148.322 101.858 148.015 101.707C147.708 101.555 147.435 101.342 147.214 101.081C146.994 100.819 146.83 100.515 146.732 100.186C146.635 99.8582 146.607 99.5135 146.649 99.1739L146.827 97.7749C146.861 97.5065 146.829 97.2339 146.735 96.9806C146.64 96.7272 146.485 96.5006 146.283 96.3203L145.232 95.3813C144.888 95.0739 144.636 94.6764 144.506 94.2337C144.376 93.7909 144.373 93.3206 144.496 92.876C144.62 92.4314 144.865 92.0302 145.205 91.7178C145.545 91.4053 145.965 91.1942 146.419 91.1081L147.805 90.845C148.07 90.7946 148.32 90.6804 148.531 90.5123C148.743 90.3441 148.911 90.127 149.02 89.8797L149.589 88.5884C149.775 88.1663 150.076 87.8046 150.457 87.5444C150.838 87.2841 151.284 87.1356 151.746 87.1156C152.207 87.0956 152.664 87.205 153.066 87.4313C153.469 87.6576 153.8 87.9919 154.022 88.3963L154.7 89.6324C154.83 89.8698 155.016 90.0719 155.241 90.2214C155.467 90.3709 155.726 90.4632 155.995 90.4905L157.398 90.6322C157.858 90.6786 158.295 90.8526 158.66 91.1344C159.026 91.4162 159.305 91.7947 159.467 92.2269C159.628 92.6592 159.666 93.128 159.574 93.5803C159.483 94.0327 159.267 94.4505 158.951 94.7866L157.985 95.8135C157.799 96.0103 157.665 96.2492 157.592 96.5097C157.52 96.7702 157.512 97.0444 157.569 97.3086L157.867 98.6875C157.965 99.1384 157.934 99.6076 157.779 100.042C157.624 100.476 157.35 100.859 156.989 101.146C156.628 101.433 156.193 101.613 155.735 101.666C155.277 101.72 154.812 101.644 154.395 101.447L153.119 100.846C152.874 100.73 152.605 100.676 152.335 100.687C152.064 100.699 151.801 100.776 151.567 100.913L150.348 101.622C149.94 101.861 149.472 101.978 148.999 101.959Z" fill="white"/>
<path opacity="0.2" d="M168.374 101.434C168.032 101.419 167.697 101.332 167.39 101.181C167.083 101.03 166.81 100.817 166.589 100.555C166.369 100.294 166.205 99.9891 166.107 99.661C166.01 99.3328 165.982 98.9881 166.024 98.6485L166.202 97.2495C166.236 96.9811 166.204 96.7086 166.11 96.4552C166.015 96.2018 165.86 95.9753 165.658 95.7949L164.607 94.8559C164.263 94.5486 164.011 94.151 163.881 93.7083C163.751 93.2655 163.748 92.7952 163.871 92.3506C163.995 91.906 164.24 91.5048 164.58 91.1924C164.92 90.8799 165.34 90.6688 165.794 90.5827L167.18 90.3196C167.445 90.2692 167.695 90.155 167.907 89.9869C168.118 89.8187 168.286 89.6016 168.395 89.3543L168.964 88.063C169.15 87.6409 169.451 87.2792 169.832 87.019C170.213 86.7587 170.659 86.6102 171.121 86.5902C171.582 86.5702 172.039 86.6796 172.441 86.9059C172.844 87.1322 173.175 87.4665 173.397 87.8709L174.075 89.107C174.205 89.3444 174.391 89.5465 174.616 89.696C174.842 89.8455 175.101 89.9379 175.37 89.9651L176.773 90.1068C177.233 90.1532 177.67 90.3272 178.035 90.609C178.401 90.8909 178.68 91.2693 178.842 91.7016C179.003 92.1338 179.041 92.6026 178.949 93.055C178.858 93.5073 178.642 93.9251 178.326 94.2612L177.36 95.2881C177.174 95.4849 177.039 95.7238 176.967 95.9843C176.895 96.2448 176.887 96.519 176.944 96.7832L177.242 98.1622C177.34 98.613 177.309 99.0822 177.154 99.5166C176.999 99.9511 176.725 100.333 176.364 100.62C176.003 100.908 175.568 101.088 175.11 101.141C174.651 101.194 174.187 101.118 173.77 100.922L172.494 100.321C172.249 100.205 171.98 100.15 171.71 100.162C171.439 100.174 171.176 100.251 170.942 100.387L169.723 101.097C169.315 101.336 168.847 101.453 168.374 101.434Z" fill="black"/>
<path opacity="0.2" d="M187.749 100.909C187.407 100.893 187.072 100.807 186.765 100.656C186.458 100.505 186.185 100.292 185.964 100.03C185.744 99.7682 185.58 99.4638 185.482 99.1356C185.385 98.8074 185.357 98.4627 185.399 98.1231L185.577 96.7241C185.611 96.4557 185.579 96.1832 185.485 95.9298C185.39 95.6764 185.235 95.4499 185.033 95.2695L183.982 94.3306C183.638 94.0232 183.386 93.6256 183.256 93.1829C183.126 92.7401 183.123 92.2698 183.246 91.8252C183.37 91.3806 183.615 90.9794 183.955 90.667C184.295 90.3546 184.715 90.1434 185.169 90.0573L186.555 89.7942C186.82 89.7438 187.07 89.6296 187.281 89.4615C187.493 89.2933 187.661 89.0762 187.77 88.8289L188.339 87.5376C188.525 87.1155 188.826 86.7538 189.207 86.4936C189.588 86.2333 190.034 86.0848 190.496 86.0648C190.957 86.0448 191.414 86.1542 191.816 86.3805C192.219 86.6068 192.55 86.9411 192.772 87.3455L193.45 88.5817C193.58 88.819 193.766 89.0211 193.991 89.1706C194.217 89.3201 194.476 89.4125 194.745 89.4397L196.148 89.5814C196.608 89.6279 197.045 89.8018 197.41 90.0837C197.776 90.3655 198.055 90.7439 198.217 91.1762C198.378 91.6084 198.416 92.0772 198.324 92.5296C198.233 92.9819 198.017 93.3998 197.701 93.7358L196.735 94.7627C196.549 94.9595 196.414 95.1985 196.342 95.459C196.27 95.7195 196.262 95.9936 196.319 96.2578L196.617 97.6368C196.715 98.0877 196.684 98.5568 196.529 98.9913C196.374 99.4257 196.1 99.808 195.739 100.095C195.378 100.382 194.943 100.562 194.485 100.616C194.027 100.669 193.562 100.593 193.145 100.396L191.869 99.7952C191.624 99.6794 191.355 99.6249 191.085 99.6365C190.814 99.6481 190.551 99.7255 190.317 99.8619L189.098 100.571C188.69 100.81 188.222 100.927 187.749 100.909Z" fill="black"/>
<path d="M311.178 266.132L311.744 253.394C317.652 250.238 324.242 248.57 330.941 248.537C321.721 256.072 322.873 270.596 316.623 280.728C314.649 283.873 311.992 286.534 308.85 288.514C305.707 290.493 302.159 291.74 298.469 292.163L290.753 296.885C289.695 290.985 289.928 284.927 291.437 279.126C292.947 273.325 295.696 267.921 299.497 263.285C301.655 260.705 304.129 258.407 306.861 256.445C308.709 261.316 311.178 266.132 311.178 266.132Z" fill="#F2F2F2"/>
<path d="M355.414 298H148.613C148.457 298 148.307 297.938 148.196 297.827C148.086 297.716 148.023 297.566 148.023 297.41C148.023 297.254 148.086 297.104 148.196 296.993C148.307 296.882 148.457 296.82 148.613 296.82H355.414C355.57 296.82 355.72 296.882 355.831 296.993C355.942 297.104 356.004 297.254 356.004 297.41C356.004 297.566 355.942 297.716 355.831 297.827C355.72 297.938 355.57 298 355.414 298Z" fill="#CACACA"/>
</g>
<defs>
<clipPath id="clip0_5775_82247">
<rect width="356" height="298" fill="white"/>
</clipPath>
</defs>
</svg>
