<svg width="458" height="458" viewBox="0 0 458 458" fill="none" xmlns="http://www.w3.org/2000/svg">
<path d="M423.531 429.677C423.531 429.805 336.428 429.915 229.009 429.915C121.59 429.915 34.4688 429.805 34.4688 429.677C34.4688 429.549 121.553 429.43 229.009 429.43C336.465 429.43 423.531 429.54 423.531 429.677Z" fill="#263238"/>
<path d="M139.313 400.291L140.055 423.081L145.844 440.943C145.943 441.247 145.978 441.568 145.948 441.887C145.917 442.205 145.822 442.514 145.667 442.794C145.513 443.074 145.302 443.319 145.049 443.514C144.796 443.71 144.505 443.851 144.195 443.929C143.834 444.022 143.455 444.026 143.092 443.941C142.728 443.857 142.39 443.686 142.107 443.444C138.443 440.302 125.042 428.687 125.078 427.02C125.078 425.078 122.688 403.021 122.688 403.021L139.313 400.291Z" fill="#305A61"/>
<path d="M144.197 443.901L124.961 425.453L125.016 426.369C125.06 427.205 125.401 427.997 125.978 428.604C127.517 430.216 131.868 434.595 142.017 443.37C142.307 443.623 142.656 443.8 143.032 443.884C143.408 443.969 143.799 443.959 144.169 443.856L144.197 443.901Z" fill="#E0E0E0"/>
<path d="M129.254 417.842C129.548 418.033 129.76 418.326 129.85 418.664C129.94 419.003 129.9 419.363 129.739 419.674C129.562 419.983 129.27 420.21 128.927 420.304C128.584 420.399 128.217 420.353 127.907 420.178C127.596 419.978 127.371 419.668 127.276 419.311C127.181 418.953 127.223 418.573 127.394 418.245C127.613 417.953 127.937 417.758 128.298 417.7C128.658 417.642 129.027 417.725 129.327 417.934" fill="white"/>
<path d="M138.434 434.247C138.562 434.302 139.011 433.074 140.33 432.36C141.146 431.983 142.025 431.762 142.922 431.709C142.922 431.654 142.647 431.499 142.107 431.453C141.401 431.407 140.697 431.569 140.082 431.92C139.467 432.265 138.965 432.78 138.635 433.404C138.388 433.89 138.379 434.228 138.434 434.247Z" fill="#263238"/>
<path d="M140.227 437.207C140.855 436.798 141.51 436.431 142.187 436.107C142.914 435.928 143.651 435.793 144.395 435.704C144.033 435.501 143.627 435.389 143.212 435.378C142.797 435.367 142.385 435.457 142.013 435.64C140.694 436.107 140.144 437.152 140.227 437.207Z" fill="#263238"/>
<path d="M135.188 430.519C136.116 429.822 137.092 429.191 138.11 428.632C139.195 428.223 140.31 427.896 141.444 427.652C140.236 427.486 139.006 427.667 137.898 428.175C136.79 428.683 135.85 429.496 135.188 430.519Z" fill="#263238"/>
<path d="M134.383 423.594C134.456 423.722 135.684 423.127 137.314 422.98C138.944 422.834 140.273 423.145 140.309 422.98C139.39 422.451 138.313 422.263 137.268 422.449C136.202 422.483 135.182 422.888 134.383 423.594Z" fill="#263238"/>
<path d="M134.003 416.908C134.976 416.529 135.996 416.286 137.035 416.184C138.078 416.238 139.108 416.438 140.095 416.779C140.095 416.724 139.866 416.459 139.325 416.184C138.609 415.838 137.821 415.668 137.026 415.689C136.23 415.703 135.449 415.904 134.745 416.275C134.223 416.578 133.967 416.862 134.003 416.908Z" fill="#263238"/>
<path d="M136.924 414.947C136.994 414.646 136.994 414.332 136.924 414.031C136.802 413.246 136.528 412.493 136.118 411.814C135.852 411.296 135.428 410.876 134.908 410.614C134.729 410.542 134.531 410.529 134.343 410.577C134.156 410.625 133.988 410.731 133.864 410.88C133.633 411.179 133.525 411.556 133.562 411.933C133.656 412.695 134.014 413.4 134.572 413.927C135.131 414.454 135.855 414.769 136.621 414.818C137.382 414.857 138.138 414.667 138.79 414.274C139.443 413.881 139.964 413.302 140.285 412.611C140.365 412.437 140.406 412.248 140.406 412.057C140.406 411.866 140.365 411.677 140.285 411.503C140.187 411.335 140.039 411.204 139.861 411.126C139.683 411.049 139.485 411.03 139.296 411.072C138.743 411.225 138.24 411.522 137.84 411.933C137.249 412.453 136.756 413.073 136.383 413.765C136.226 414.009 136.122 414.284 136.081 414.571C136.624 413.682 137.294 412.877 138.069 412.18C138.435 411.839 138.878 411.591 139.36 411.457C139.464 411.433 139.573 411.443 139.67 411.486C139.767 411.529 139.848 411.602 139.901 411.695C139.943 411.812 139.96 411.937 139.952 412.061C139.945 412.186 139.911 412.307 139.855 412.419C139.559 413.005 139.102 413.494 138.537 413.829C137.972 414.163 137.323 414.329 136.667 414.306C136.021 414.258 135.409 413.993 134.932 413.554C134.455 413.115 134.14 412.528 134.038 411.887C134.006 411.626 134.071 411.362 134.221 411.145C134.287 411.062 134.377 411.002 134.48 410.974C134.582 410.946 134.691 410.951 134.789 410.99C135.232 411.207 135.597 411.556 135.834 411.988C136.37 412.901 136.739 413.903 136.924 414.947Z" fill="#263238"/>
<path d="M183.685 403.643L182.503 420.69C182.503 420.69 199.44 427.615 199.522 430.766L166.391 429.667L167.142 403.029L183.685 403.643Z" fill="#305A61"/>
<path d="M172.306 418.914C171.976 418.997 171.69 419.2 171.502 419.483C171.314 419.766 171.238 420.108 171.289 420.444C171.364 420.769 171.56 421.054 171.838 421.24C172.115 421.425 172.453 421.498 172.782 421.443C173.124 421.35 173.419 421.133 173.61 420.836C173.801 420.538 173.875 420.18 173.817 419.83C173.706 419.5 173.471 419.226 173.162 419.066C172.853 418.905 172.493 418.871 172.159 418.969" fill="#E0E0E0"/>
<path d="M166.391 429.686L166.574 427.002L198.277 429.063C198.277 429.063 199.724 429.759 199.522 430.785L166.391 429.686Z" fill="#E0E0E0"/>
<path d="M183.055 420.543C183.055 420.699 182.231 420.745 181.415 421.24C180.6 421.734 180.161 422.403 180.014 422.33C179.867 422.256 180.133 421.34 181.132 420.754C182.13 420.168 183.092 420.443 183.055 420.543Z" fill="#263238"/>
<path d="M186.481 422.092C186.481 422.248 185.803 422.504 185.226 423.173C184.649 423.842 184.475 424.556 184.31 424.538C184.145 424.519 184.081 423.622 184.805 422.797C185.528 421.973 186.481 421.936 186.481 422.092Z" fill="#263238"/>
<path d="M188.307 426.316C188.161 426.316 187.959 425.537 188.408 424.658C188.857 423.778 189.617 423.458 189.681 423.595C189.745 423.732 189.269 424.19 188.912 424.914C188.555 425.638 188.472 426.306 188.307 426.316Z" fill="#263238"/>
<path d="M182.888 416.623C182.815 416.769 182.082 416.522 181.166 416.559C180.25 416.595 179.526 416.852 179.444 416.705C179.362 416.559 180.067 416.009 181.148 415.991C182.229 415.972 182.971 416.504 182.888 416.623Z" fill="#263238"/>
<path d="M183.062 413.18C182.502 413.321 181.914 413.299 181.367 413.116C180.771 412.994 180.192 412.797 179.645 412.53C179.327 412.371 179.021 412.19 178.729 411.989C178.545 411.884 178.381 411.747 178.244 411.586C178.14 411.469 178.08 411.32 178.071 411.164C178.063 411.007 178.108 410.853 178.198 410.725C178.284 410.616 178.394 410.528 178.519 410.467C178.645 410.407 178.782 410.376 178.921 410.377C179.13 410.383 179.336 410.417 179.535 410.478C179.888 410.579 180.231 410.711 180.561 410.872C181.111 411.141 181.615 411.497 182.054 411.925C182.796 412.667 183.043 413.272 182.97 413.308C182.897 413.345 182.53 412.841 181.77 412.227C181.332 411.858 180.845 411.55 180.323 411.311C180.027 411.18 179.72 411.073 179.407 410.991C179.059 410.881 178.757 410.872 178.665 410.991C178.573 411.11 178.619 411.073 178.665 411.174C178.771 411.289 178.891 411.391 179.022 411.476C179.3 411.665 179.587 411.839 179.883 411.998C180.388 412.273 180.919 412.497 181.468 412.667C182.009 412.804 182.542 412.976 183.062 413.18Z" fill="#263238"/>
<path d="M182.838 413.409C182.545 412.921 182.41 412.355 182.453 411.787C182.45 410.804 182.706 409.838 183.195 408.984C183.292 408.768 183.443 408.581 183.635 408.442C183.826 408.302 184.05 408.214 184.285 408.188C184.432 408.196 184.574 408.246 184.694 408.332C184.814 408.418 184.908 408.536 184.963 408.673C185.042 408.869 185.092 409.076 185.109 409.287C185.169 409.657 185.169 410.034 185.109 410.404C185.001 411.021 184.74 411.6 184.349 412.09C183.671 412.932 182.993 413.106 182.975 413.006C182.957 412.905 183.497 412.63 184.029 411.824C184.328 411.358 184.524 410.833 184.606 410.285C184.647 409.966 184.647 409.643 184.606 409.323C184.56 408.966 184.441 408.682 184.303 408.71C184.166 408.737 183.855 408.957 183.708 409.241C183.532 409.531 183.385 409.838 183.268 410.157C183.064 410.685 182.937 411.241 182.893 411.806C182.774 412.777 182.929 413.39 182.838 413.409Z" fill="#263238"/>
<path d="M115.57 235.429L120.462 418.665L146.604 417.887L152.833 229.182L115.57 235.429Z" fill="#263238"/>
<path d="M169.894 228.871C169.894 228.871 189.295 306.548 189.891 319.793C190.486 333.039 185.741 415.863 185.741 415.863H160.148L162.291 321.515L142.891 241.768L147.59 229.283L169.894 228.871Z" fill="#263238"/>
<path d="M154.105 238.406C154.115 238.491 154.115 238.578 154.105 238.663V239.386C154.105 240.064 154.05 240.989 154.005 242.18C153.895 244.635 153.73 248.134 153.538 252.439C153.089 261.132 152.475 273.086 151.797 286.331C151.119 299.577 150.405 311.476 149.965 320.168C149.709 324.474 149.489 327.964 149.342 330.428C149.26 331.609 149.196 332.544 149.15 333.176C149.15 333.469 149.104 333.716 149.086 333.899C149.096 333.981 149.096 334.064 149.086 334.147C149.076 334.064 149.076 333.981 149.086 333.899C149.086 333.707 149.086 333.469 149.086 333.176C149.086 332.498 149.15 331.563 149.196 330.382C149.306 327.927 149.47 324.428 149.663 320.123C150.112 311.43 150.725 299.476 151.394 286.231C152.063 272.985 152.786 261.086 153.272 252.394C153.528 248.088 153.739 244.598 153.895 242.144C153.977 240.962 154.041 240.028 154.087 239.35C154.087 239.057 154.133 238.818 154.151 238.626C154.123 238.556 154.108 238.482 154.105 238.406Z" fill="#455A64"/>
<path d="M151.229 129.265C151.229 129.265 160.728 176.384 160.866 189.657C161.003 202.93 165.666 228.871 165.666 228.871H124.574L123.658 157.084L120.727 135.677L126.9 126.865L151.229 129.265Z" fill="#F5F5F5"/>
<path d="M151.734 130.648C151.734 130.648 161.545 133.534 164.137 137.161C166.18 140.028 168.946 194.219 168.946 194.219L173.123 241.961L169.01 241.576L163.203 223.705L151.734 130.648Z" fill="#305A61"/>
<path d="M164.133 137.162L191.833 162.581L225.917 151.534L232.714 165.851L196.339 182.339C191.146 184.556 187.885 183.338 184.276 180.443L165.195 165.164L164.133 137.162Z" fill="#305A61"/>
<path d="M219.584 156.094C219.675 156.271 219.694 156.476 219.635 156.666C219.577 156.856 219.447 157.016 219.272 157.111C219.186 157.157 219.091 157.186 218.993 157.195C218.896 157.205 218.797 157.195 218.704 157.166C218.61 157.137 218.523 157.089 218.448 157.027C218.372 156.964 218.31 156.887 218.265 156.8C218.217 156.714 218.187 156.62 218.176 156.522C218.166 156.425 218.175 156.326 218.203 156.232C218.231 156.138 218.278 156.051 218.34 155.975C218.403 155.899 218.48 155.837 218.567 155.792C218.743 155.7 218.947 155.68 219.137 155.737C219.327 155.793 219.487 155.921 219.584 156.094Z" fill="#263238"/>
<path d="M218.922 157.221C218.846 157.235 218.769 157.235 218.693 157.221C218.596 157.192 218.505 157.143 218.426 157.079C218.348 157.015 218.283 156.935 218.235 156.845C218.143 156.664 218.124 156.455 218.18 156.259C218.243 156.066 218.379 155.905 218.558 155.809C218.737 155.714 218.946 155.691 219.142 155.746C219.338 155.806 219.502 155.941 219.6 156.122C219.695 156.302 219.715 156.513 219.655 156.708C219.626 156.806 219.579 156.897 219.514 156.976C219.449 157.054 219.369 157.119 219.279 157.166C219.167 157.215 219.044 157.234 218.922 157.221ZM218.922 155.728C218.804 155.729 218.688 155.757 218.583 155.81C218.416 155.904 218.291 156.058 218.235 156.241C218.18 156.424 218.2 156.622 218.29 156.79C218.381 156.959 218.535 157.085 218.719 157.14C218.903 157.195 219.101 157.175 219.27 157.084C219.353 157.04 219.427 156.981 219.487 156.908C219.547 156.836 219.591 156.752 219.618 156.662C219.674 156.476 219.654 156.275 219.563 156.103C219.501 155.987 219.409 155.89 219.296 155.822C219.183 155.754 219.054 155.718 218.922 155.719V155.728Z" fill="#263238"/>
<path d="M222.443 155.417C222.535 155.594 222.553 155.799 222.495 155.989C222.437 156.179 222.306 156.339 222.132 156.434C222.045 156.48 221.95 156.509 221.853 156.518C221.755 156.528 221.657 156.517 221.563 156.488C221.469 156.46 221.382 156.412 221.307 156.349C221.232 156.287 221.17 156.21 221.124 156.123C221.076 156.037 221.046 155.943 221.036 155.845C221.025 155.747 221.034 155.649 221.062 155.555C221.09 155.461 221.137 155.373 221.2 155.298C221.262 155.222 221.339 155.16 221.426 155.115C221.513 155.067 221.608 155.037 221.706 155.026C221.804 155.015 221.904 155.024 221.998 155.052C222.093 155.08 222.181 155.127 222.258 155.19C222.334 155.253 222.397 155.33 222.443 155.417Z" fill="#263238"/>
<path d="M221.783 156.545C221.707 156.559 221.629 156.559 221.554 156.545C221.456 156.516 221.366 156.467 221.287 156.403C221.208 156.338 221.143 156.259 221.096 156.169C221.001 155.988 220.982 155.777 221.042 155.581C221.102 155.386 221.236 155.222 221.416 155.125C221.598 155.031 221.809 155.011 222.004 155.071C222.199 155.131 222.363 155.266 222.46 155.446C222.556 155.626 222.576 155.837 222.515 156.032C222.455 156.228 222.321 156.393 222.14 156.49C222.026 156.534 221.904 156.553 221.783 156.545ZM221.783 155.043C221.664 155.047 221.548 155.078 221.444 155.134C221.275 155.225 221.149 155.38 221.094 155.564C221.039 155.747 221.06 155.945 221.151 156.114C221.194 156.199 221.255 156.274 221.329 156.334C221.403 156.393 221.489 156.437 221.581 156.462C221.674 156.498 221.774 156.514 221.873 156.509C221.972 156.504 222.07 156.479 222.159 156.435C222.248 156.391 222.328 156.329 222.392 156.253C222.456 156.177 222.504 156.088 222.532 155.993C222.561 155.897 222.569 155.797 222.557 155.698C222.545 155.599 222.513 155.504 222.462 155.418C222.411 155.333 222.344 155.258 222.263 155.2C222.182 155.142 222.091 155.1 221.993 155.079C221.922 155.056 221.848 155.044 221.773 155.043H221.783Z" fill="#263238"/>
<path d="M225.149 154.868C225.197 154.954 225.227 155.049 225.238 155.148C225.249 155.246 225.24 155.345 225.212 155.44C225.183 155.535 225.137 155.623 225.074 155.699C225.011 155.775 224.934 155.839 224.847 155.885C224.67 155.976 224.465 155.994 224.275 155.936C224.085 155.878 223.925 155.748 223.83 155.573C223.784 155.487 223.755 155.392 223.746 155.294C223.736 155.197 223.746 155.098 223.775 155.004C223.804 154.911 223.851 154.824 223.914 154.748C223.977 154.673 224.054 154.611 224.141 154.566C224.227 154.518 224.321 154.488 224.419 154.477C224.516 154.466 224.615 154.475 224.709 154.504C224.803 154.532 224.89 154.579 224.966 154.641C225.041 154.704 225.104 154.781 225.149 154.868Z" fill="#263238"/>
<path d="M224.498 155.993C224.423 156.007 224.345 156.007 224.269 155.993C224.084 155.934 223.928 155.806 223.832 155.636C223.737 155.466 223.71 155.267 223.756 155.077C223.785 154.981 223.833 154.891 223.898 154.814C223.962 154.736 224.042 154.673 224.132 154.628C224.221 154.58 224.319 154.55 224.419 154.539C224.52 154.529 224.622 154.538 224.719 154.567C224.816 154.596 224.906 154.644 224.985 154.708C225.063 154.772 225.128 154.851 225.176 154.94C225.271 155.121 225.29 155.332 225.23 155.528C225.17 155.723 225.035 155.887 224.856 155.984C224.739 156.013 224.617 156.016 224.498 155.993ZM224.498 154.5C224.381 154.501 224.265 154.53 224.16 154.583C223.991 154.674 223.865 154.828 223.81 155.012C223.755 155.196 223.775 155.394 223.866 155.563C223.909 155.646 223.969 155.721 224.041 155.78C224.113 155.84 224.197 155.885 224.288 155.911C224.474 155.966 224.675 155.947 224.847 155.856C225.015 155.765 225.141 155.61 225.196 155.426C225.251 155.243 225.231 155.045 225.14 154.876C225.076 154.76 224.982 154.663 224.867 154.597C224.752 154.531 224.622 154.497 224.489 154.5H224.498Z" fill="#263238"/>
<path d="M226.258 152.247L228.896 151.285L234.951 164.036L232.377 165.135L226.258 152.247Z" fill="#E0E0E0"/>
<path d="M165.027 147.209C165.12 147.677 165.172 148.152 165.183 148.629C165.283 149.636 165.421 150.937 165.586 152.513C165.961 155.874 166.502 160.354 167.033 165.337C167.564 170.32 168.031 174.872 168.233 178.161C168.343 179.809 168.389 181.147 168.398 182.072C168.432 182.549 168.416 183.027 168.352 183.501C168.266 183.032 168.22 182.557 168.215 182.081C168.15 181.165 168.05 179.828 167.894 178.188C167.601 174.909 167.115 170.375 166.557 165.364C165.998 160.354 165.521 155.838 165.247 152.54C165.109 150.891 165.036 149.554 164.999 148.629C164.962 148.156 164.971 147.68 165.027 147.209Z" fill="#263238"/>
<path d="M171.078 153.566C170.649 155.88 170.068 158.163 169.338 160.4C168.755 162.677 168.024 164.914 167.148 167.096C167.571 164.782 168.149 162.499 168.88 160.262C169.461 157.983 170.195 155.746 171.078 153.566Z" fill="#263238"/>
<path d="M191.546 171.164C191.248 170.815 191.038 170.401 190.932 169.955C190.25 167.843 190.394 165.552 191.335 163.543C191.501 163.115 191.761 162.73 192.095 162.416C191.541 163.809 191.172 165.269 190.996 166.758C190.987 168.244 191.172 169.725 191.546 171.164Z" fill="#263238"/>
<path d="M188.376 200.613L191.921 200.888L190.52 215.672L187.094 215.288L188.376 200.613Z" fill="#E0E0E0"/>
<path d="M126.901 127.891L107.784 140.083C105.609 141.625 103.988 143.828 103.163 146.364C102.338 148.9 102.352 151.634 103.204 154.162L117.86 200.227L112.575 242.088L154.473 240.311L153.447 221.991L149.893 189.162C149.235 183.074 147.721 177.11 145.395 171.446L126.901 127.891Z" fill="#305A61"/>
<path d="M106.929 156.681L126.046 196.691C126.808 198.286 127.918 199.69 129.294 200.799C130.67 201.909 132.277 202.696 133.997 203.103L187.052 215.671L188.407 200.227L147.911 185.031L127.539 145.936C126.804 144.528 125.789 143.285 124.556 142.284C123.322 141.283 121.897 140.545 120.368 140.116C118.839 139.687 117.238 139.576 115.664 139.789C114.09 140.002 112.576 140.535 111.216 141.356C108.687 142.886 106.836 145.323 106.039 148.17C105.243 151.017 105.561 154.06 106.929 156.681Z" fill="#305A61"/>
<path d="M188.41 200.227C188.334 200.22 188.26 200.202 188.19 200.172L187.567 199.961L185.167 199.1L176.282 195.83L146.338 184.637H146.256V184.545L142.729 177.565C139.413 171.098 136.107 165.007 133.01 159.511C131.462 156.763 129.969 154.17 128.559 151.752L126.507 148.253C126.177 147.685 125.847 147.145 125.499 146.641C125.172 146.135 124.81 145.651 124.418 145.194C123.053 143.567 121.302 142.307 119.325 141.53C117.835 140.923 116.234 140.636 114.626 140.687C113.246 140.706 111.893 141.068 110.688 141.74C110.754 141.68 110.828 141.627 110.907 141.585C111.129 141.43 111.365 141.298 111.613 141.191C112.563 140.778 113.582 140.545 114.617 140.504C116.253 140.419 117.889 140.682 119.417 141.273C121.454 142.056 123.262 143.338 124.675 145.001C125.08 145.464 125.453 145.954 125.792 146.467C126.159 146.989 126.498 147.529 126.818 148.097L128.898 151.578C130.327 154.021 131.826 156.604 133.395 159.328C136.51 164.824 139.807 170.897 143.16 177.373C144.378 179.763 145.569 182.118 146.677 184.371L146.549 184.252L176.438 195.592L185.268 198.99L187.641 199.906L188.254 200.154L188.41 200.227Z" fill="#263238"/>
<path d="M179.401 209.855C179.401 210.054 179.322 210.245 179.181 210.386C179.04 210.527 178.849 210.606 178.65 210.606C178.45 210.606 178.259 210.527 178.118 210.386C177.978 210.245 177.898 210.054 177.898 209.855C177.898 209.655 177.978 209.464 178.118 209.324C178.259 209.183 178.45 209.104 178.65 209.104C178.849 209.104 179.04 209.183 179.181 209.324C179.322 209.464 179.401 209.655 179.401 209.855Z" fill="#263238"/>
<path d="M178.621 210.625C178.469 210.625 178.32 210.58 178.194 210.495C178.067 210.411 177.968 210.29 177.91 210.15C177.852 210.009 177.837 209.855 177.866 209.705C177.896 209.556 177.969 209.419 178.077 209.311C178.185 209.204 178.322 209.13 178.471 209.101C178.62 209.071 178.775 209.086 178.915 209.145C179.056 209.203 179.176 209.301 179.261 209.428C179.345 209.554 179.39 209.703 179.39 209.855C179.39 210.059 179.309 210.255 179.165 210.399C179.021 210.544 178.825 210.625 178.621 210.625ZM178.621 209.132C178.478 209.132 178.338 209.174 178.219 209.254C178.1 209.333 178.007 209.446 177.952 209.578C177.898 209.711 177.883 209.856 177.911 209.997C177.939 210.137 178.008 210.266 178.109 210.367C178.211 210.468 178.339 210.537 178.48 210.565C178.62 210.593 178.766 210.579 178.898 210.524C179.03 210.469 179.143 210.376 179.223 210.257C179.302 210.138 179.345 209.999 179.345 209.855C179.345 209.663 179.268 209.479 179.133 209.344C178.997 209.208 178.813 209.132 178.621 209.132Z" fill="#263238"/>
<path d="M182.283 210.607C182.283 210.755 182.239 210.9 182.157 211.024C182.074 211.147 181.957 211.244 181.82 211.301C181.683 211.357 181.532 211.372 181.386 211.343C181.24 211.314 181.106 211.243 181.001 211.138C180.896 211.033 180.825 210.899 180.796 210.753C180.767 210.607 180.782 210.456 180.838 210.319C180.895 210.182 180.992 210.065 181.115 209.982C181.239 209.9 181.384 209.855 181.532 209.855C181.732 209.855 181.923 209.935 182.063 210.075C182.204 210.216 182.283 210.407 182.283 210.607Z" fill="#263238"/>
<path d="M181.488 211.375C181.336 211.375 181.187 211.33 181.061 211.245C180.934 211.161 180.836 211.04 180.777 210.9C180.719 210.759 180.704 210.605 180.734 210.455C180.763 210.306 180.837 210.169 180.944 210.061C181.052 209.954 181.189 209.88 181.338 209.851C181.487 209.821 181.642 209.836 181.783 209.895C181.923 209.953 182.043 210.051 182.128 210.178C182.213 210.304 182.258 210.453 182.258 210.605C182.255 210.809 182.173 211.003 182.03 211.147C181.886 211.291 181.692 211.372 181.488 211.375ZM181.488 209.882C181.345 209.882 181.205 209.924 181.086 210.004C180.967 210.083 180.874 210.196 180.82 210.328C180.765 210.461 180.751 210.606 180.778 210.747C180.806 210.887 180.875 211.016 180.976 211.117C181.078 211.218 181.207 211.287 181.347 211.315C181.487 211.343 181.633 211.329 181.765 211.274C181.897 211.219 182.01 211.126 182.09 211.007C182.169 210.888 182.212 210.748 182.212 210.605C182.212 210.413 182.136 210.229 182 210.094C181.864 209.958 181.68 209.882 181.488 209.882Z" fill="#263238"/>
<path d="M184.142 212.155C184.557 212.155 184.893 211.818 184.893 211.403C184.893 210.989 184.557 210.652 184.142 210.652C183.727 210.652 183.391 210.989 183.391 211.403C183.391 211.818 183.727 212.155 184.142 212.155Z" fill="#263238"/>
<path d="M184.113 212.172C183.961 212.172 183.812 212.127 183.686 212.042C183.559 211.957 183.461 211.837 183.402 211.697C183.344 211.556 183.329 211.401 183.359 211.252C183.388 211.103 183.462 210.966 183.569 210.858C183.677 210.751 183.814 210.677 183.963 210.648C184.112 210.618 184.267 210.633 184.408 210.691C184.548 210.75 184.668 210.848 184.753 210.975C184.838 211.101 184.883 211.25 184.883 211.402C184.88 211.606 184.798 211.8 184.655 211.944C184.511 212.087 184.317 212.169 184.113 212.172ZM184.113 210.679C183.97 210.679 183.83 210.721 183.711 210.801C183.592 210.88 183.499 210.993 183.445 211.125C183.39 211.258 183.376 211.403 183.403 211.543C183.431 211.684 183.5 211.813 183.602 211.914C183.703 212.015 183.832 212.084 183.972 212.112C184.112 212.14 184.258 212.126 184.39 212.071C184.522 212.016 184.635 211.923 184.715 211.804C184.794 211.685 184.837 211.545 184.837 211.402C184.837 211.21 184.761 211.026 184.625 210.891C184.489 210.755 184.305 210.679 184.113 210.679Z" fill="#263238"/>
<path d="M187.052 215.671C186.967 215.685 186.88 215.685 186.796 215.671L186.054 215.506L183.196 214.819L172.698 212.236C163.841 210.065 151.63 206.987 138.055 203.845C136.361 203.442 134.684 203.121 133.026 202.673C131.362 202.275 129.811 201.501 128.492 200.41C127.335 199.248 126.404 197.881 125.744 196.38L123.747 192.203L116.85 177.702L112.27 167.92C111.757 166.784 111.354 165.895 111.051 165.254L110.74 164.549C110.702 164.473 110.671 164.393 110.648 164.311C110.648 164.311 110.703 164.384 110.786 164.53C110.868 164.677 110.987 164.933 111.134 165.208L112.444 167.846C113.57 170.173 115.192 173.48 117.17 177.556C119.149 181.632 121.503 186.569 124.123 192.001C124.773 193.357 125.451 194.749 126.129 196.169C126.782 197.615 127.691 198.931 128.813 200.053C130.079 201.095 131.567 201.831 133.164 202.205C134.785 202.645 136.48 202.966 138.174 203.369C151.74 206.52 163.95 209.643 172.79 211.897C177.178 213.051 180.741 213.976 183.251 214.645L186.081 215.423L186.814 215.634L187.052 215.671Z" fill="#263238"/>
<path d="M144.205 213.172C144.205 213.172 144.004 213.383 143.573 213.703C143.143 214.024 142.529 214.463 141.741 214.995C139.694 216.408 137.479 217.558 135.146 218.421C132.784 219.275 130.248 219.53 127.763 219.163C127.015 219.035 126.283 218.823 125.583 218.53C125.319 218.446 125.074 218.312 124.859 218.137C125.827 218.428 126.812 218.657 127.809 218.824C130.236 219.091 132.693 218.799 134.99 217.972C137.285 217.112 139.486 216.02 141.558 214.711C142.404 214.137 143.288 213.623 144.205 213.172Z" fill="#263238"/>
<path d="M146.558 218.484C146.616 218.591 146.659 218.705 146.686 218.823C146.79 219.16 146.872 219.502 146.934 219.849C147.154 221.137 147.154 222.454 146.934 223.742C146.577 225.656 145.76 227.454 144.552 228.982C143.03 230.842 140.973 232.19 138.661 232.846C136.348 233.501 133.89 233.431 131.618 232.646C129.791 231.967 128.159 230.851 126.864 229.394C125.997 228.416 125.303 227.298 124.812 226.087C124.687 225.757 124.58 225.421 124.492 225.08C124.437 224.851 124.409 224.722 124.428 224.722C125.036 226.358 125.946 227.865 127.111 229.165C128.397 230.541 129.992 231.59 131.765 232.224C133.947 232.964 136.301 233.029 138.52 232.41C140.74 231.79 142.721 230.516 144.204 228.753C145.39 227.291 146.21 225.567 146.595 223.724C146.914 221.991 146.901 220.213 146.558 218.484Z" fill="#263238"/>
<path d="M128.963 91.4248L129.082 125.555C129.09 126.928 129.377 128.286 129.925 129.545C130.473 130.805 131.27 131.94 132.27 132.882C133.269 133.824 134.449 134.553 135.739 135.026C137.028 135.498 138.4 135.704 139.772 135.631C142.367 135.49 144.811 134.361 146.599 132.475C148.388 130.59 149.387 128.09 149.39 125.491C149.39 122.917 149.39 120.773 149.39 120.508C149.39 120.508 158.074 119.665 158.669 111.064C158.962 106.905 158.852 98.2948 158.669 90.4997C158.579 86.4628 156.97 82.6083 154.163 79.705C151.357 76.8018 147.559 75.0632 143.528 74.8361H142.694C133.735 74.7994 128.697 82.4389 128.963 91.4248Z" fill="#B78876"/>
<path d="M149.405 120.372C145.427 120.218 141.585 118.886 138.367 116.543C138.367 116.543 140.666 122.891 149.295 122.598L149.405 120.372Z" fill="#AA6550"/>
<path d="M156.542 95.5472C156.526 95.8687 156.384 96.1711 156.148 96.3901C155.912 96.609 155.6 96.7273 155.278 96.7197C155.121 96.7234 154.965 96.6955 154.819 96.6376C154.673 96.5798 154.54 96.4932 154.428 96.3829C154.316 96.2727 154.227 96.1411 154.167 95.996C154.107 95.8508 154.077 95.6951 154.078 95.538C154.095 95.2181 154.235 94.9171 154.469 94.6984C154.703 94.4797 155.013 94.3604 155.333 94.3656C155.491 94.3619 155.647 94.3898 155.794 94.4475C155.94 94.5052 156.074 94.5917 156.186 94.7018C156.299 94.8119 156.389 94.9434 156.45 95.0886C156.511 95.2337 156.542 95.3897 156.542 95.5472Z" fill="#263238"/>
<path d="M156.778 94.0913C156.622 94.247 155.725 93.5051 154.406 93.4318C153.087 93.3585 152.07 93.9631 151.942 93.7982C151.813 93.6333 152.042 93.4409 152.482 93.157C153.079 92.7933 153.772 92.6207 154.47 92.6624C155.158 92.6984 155.817 92.9553 156.348 93.3952C156.742 93.7249 156.861 94.0272 156.778 94.0913Z" fill="#263238"/>
<path d="M143.681 95.4456C143.667 95.7664 143.528 96.0687 143.293 96.2879C143.059 96.5071 142.748 96.6256 142.427 96.6181C142.27 96.6218 142.113 96.5939 141.967 96.5361C141.821 96.4782 141.688 96.3916 141.576 96.2814C141.464 96.1712 141.376 96.0396 141.316 95.8944C141.256 95.7493 141.225 95.5936 141.227 95.4365C141.241 95.1158 141.38 94.8134 141.615 94.5942C141.849 94.375 142.161 94.2565 142.482 94.264C142.639 94.2603 142.795 94.2882 142.941 94.3461C143.087 94.4039 143.22 94.4905 143.332 94.6007C143.444 94.711 143.532 94.8425 143.592 94.9877C143.652 95.1328 143.683 95.2886 143.681 95.4456Z" fill="#263238"/>
<path d="M143.618 93.7968C143.453 93.9434 142.565 93.2014 141.236 93.1282C139.908 93.0549 138.91 93.6686 138.772 93.4946C138.635 93.3205 138.882 93.1373 139.322 92.8534C139.914 92.4879 140.606 92.3181 141.301 92.3679C141.99 92.4032 142.651 92.6566 143.187 93.0915C143.572 93.4304 143.691 93.7236 143.618 93.7968Z" fill="#263238"/>
<path d="M147.805 104.195C148.514 104.017 149.244 103.928 149.976 103.93C150.315 103.93 150.644 103.866 150.708 103.637C150.756 103.292 150.699 102.941 150.544 102.629C150.269 101.786 149.985 100.916 149.692 99.9909C148.51 96.2536 147.676 93.185 147.86 93.1392C148.043 93.0934 149.087 96.0887 150.269 99.826C150.544 100.742 150.818 101.658 151.075 102.473C151.267 102.893 151.303 103.367 151.176 103.811C151.119 103.926 151.037 104.028 150.935 104.107C150.834 104.186 150.715 104.242 150.589 104.269C150.398 104.294 150.204 104.294 150.012 104.269C149.276 104.339 148.534 104.315 147.805 104.195Z" fill="#263238"/>
<path d="M144.149 91.0498C143.993 91.407 142.683 91.1597 141.126 91.2604C139.569 91.3612 138.277 91.7093 138.094 91.3704C138.012 91.2146 138.25 90.8849 138.772 90.5643C139.469 90.1674 140.251 89.9443 141.053 89.9139C141.853 89.8645 142.654 90.0058 143.389 90.3261C143.947 90.5826 144.213 90.8849 144.149 91.0498Z" fill="#263238"/>
<path d="M156.631 90.9408C156.384 91.2248 155.486 90.8584 154.396 90.7851C153.306 90.7118 152.363 90.8675 152.161 90.5469C152.079 90.3912 152.244 90.0981 152.665 89.8324C153.23 89.525 153.873 89.3914 154.513 89.4484C155.154 89.5054 155.763 89.7506 156.265 90.153C156.631 90.4828 156.778 90.7942 156.631 90.9408Z" fill="#263238"/>
<path d="M129.302 97.8374C129.155 97.7642 123.485 95.749 123.339 101.648C123.192 107.547 129.137 106.475 129.155 106.31C129.174 106.146 129.302 97.8374 129.302 97.8374Z" fill="#B78876"/>
<path d="M127.403 104.029C127.403 104.029 127.302 104.093 127.128 104.175C126.882 104.277 126.605 104.277 126.359 104.175C125.984 103.925 125.684 103.578 125.487 103.173C125.291 102.767 125.206 102.316 125.241 101.867C125.238 101.361 125.348 100.86 125.562 100.401C125.624 100.219 125.729 100.054 125.867 99.9201C126.006 99.7862 126.174 99.6875 126.359 99.632C126.478 99.603 126.603 99.6176 126.713 99.673C126.822 99.7284 126.908 99.8211 126.954 99.9343C127.028 100.099 126.954 100.218 127.019 100.227C127.083 100.237 127.147 100.127 127.11 99.8885C127.076 99.7418 126.996 99.6101 126.881 99.5129C126.803 99.45 126.714 99.4031 126.618 99.3748C126.522 99.3465 126.422 99.3374 126.322 99.348C126.075 99.3924 125.844 99.5001 125.652 99.6607C125.459 99.8213 125.311 100.029 125.223 100.264C124.96 100.767 124.825 101.327 124.829 101.895C124.786 102.419 124.9 102.945 125.156 103.405C125.412 103.865 125.799 104.238 126.267 104.478C126.42 104.522 126.581 104.534 126.739 104.512C126.897 104.49 127.048 104.434 127.183 104.349C127.394 104.166 127.431 104.038 127.403 104.029Z" fill="#AA6550"/>
<path d="M126.041 97.4521C126.602 97.4475 127.154 97.595 127.638 97.8789C128.122 98.1627 128.52 98.5724 128.789 99.0643C129.119 99.9253 129.156 100.896 129.486 101.748C129.613 102.193 129.885 102.582 130.258 102.856C130.631 103.129 131.084 103.271 131.547 103.26C131.857 103.18 132.142 103.021 132.372 102.798C132.601 102.574 132.769 102.295 132.857 101.986C133.015 101.367 133.056 100.724 132.976 100.09C132.792 97.3422 132.362 94.5942 132.417 91.782C132.366 88.9872 133.144 86.2398 134.652 83.8861C135.415 82.7207 136.477 81.7824 137.728 81.1698C138.979 80.5573 140.372 80.2932 141.76 80.4053C143.592 80.6618 145.204 81.706 147 82.0633C148.073 82.2677 149.18 82.2255 150.235 81.9399C151.29 81.6542 152.267 81.1327 153.091 80.4145C153.182 80.3359 153.28 80.2654 153.384 80.2038C153.684 80.0167 153.912 79.7348 154.034 79.4029C154.155 79.0709 154.162 78.708 154.053 78.3718C153.992 78.1563 153.886 77.9563 153.741 77.7856C150.325 74.2498 143.876 72.9491 139.085 73.8743C136.63 74.3334 134.304 75.3207 132.269 76.7679C130.233 78.2152 128.537 80.0876 127.296 82.2557C124.997 86.6067 125.245 92.8446 126.124 97.4246" fill="#263238"/>
<path d="M144.726 105.229C144.946 105.229 144.946 106.648 146.174 107.665C147.401 108.682 148.922 108.526 148.922 108.728C148.922 108.929 148.583 109.012 147.932 109.021C147.093 109.039 146.274 108.756 145.624 108.224C145.001 107.713 144.601 106.981 144.506 106.181C144.424 105.577 144.589 105.22 144.726 105.229Z" fill="#263238"/>
<path d="M226.992 153.704C226.992 153.704 233.45 148.034 234.668 147.612C235.887 147.191 245.614 147.017 246.265 147.502C246.915 147.988 256.762 153.383 255.132 154.217C253.501 155.05 246.677 151.139 246.677 151.139L245.532 151.294C245.532 151.294 251.486 154.473 252.539 155.691C253.593 156.91 252.585 158.174 251.477 157.652C250.369 157.129 245.257 154.189 244.854 154.299C244.451 154.409 250.295 157.826 250.836 158.467C251.559 159.309 251.092 160.958 249.965 160.482C249.306 160.207 243.92 156.635 243.92 156.635C245.445 157.882 246.901 159.212 248.28 160.619C248.756 161.535 247.84 162.369 246.897 161.792C246.256 161.398 243.48 158.668 242.619 158.128C242.619 158.128 241.703 158.055 240.265 159.557C238.827 161.059 233.322 163.102 233.322 163.102L226.992 153.704Z" fill="#B78876"/>
<path d="M255.104 154.235C254.407 154.335 253.696 154.291 253.016 154.107C252.267 153.956 251.534 153.736 250.827 153.447C250.066 153.081 249.233 152.66 248.354 152.211L246.522 151.295H246.65C244.982 151.382 243.309 151.336 241.648 151.157C243.299 150.894 244.969 150.775 246.641 150.8H246.696H246.76L248.592 151.716L250.982 152.971C251.656 153.268 252.351 153.513 253.062 153.704C254.317 154.07 255.114 154.153 255.104 154.235Z" fill="#AA6550"/>
<path d="M229.391 155.344C229.656 155.721 230.034 156.005 230.469 156.154C230.905 156.304 231.377 156.312 231.818 156.178C232.734 155.986 233.531 155.5 234.41 155.262C237.058 154.502 239.998 155.912 242.599 155.024C242.966 154.896 243.369 154.63 243.332 154.254C243.296 153.879 242.892 153.723 242.554 153.613L233.87 150.865" fill="#B78876"/>
<path d="M233.868 150.828C234.2 150.848 234.527 150.916 234.839 151.03C235.453 151.195 236.332 151.451 237.422 151.772L241.233 152.926L242.332 153.265C242.68 153.402 243.184 153.43 243.514 153.97C243.578 154.108 243.599 154.262 243.574 154.412C243.55 154.563 243.481 154.702 243.376 154.813C243.205 154.998 242.991 155.139 242.753 155.225C242.327 155.373 241.884 155.472 241.434 155.518C239.797 155.544 238.159 155.455 236.534 155.252C235.847 155.216 235.159 155.28 234.491 155.445C233.877 155.61 233.309 155.884 232.769 156.077C232.34 156.28 231.87 156.386 231.395 156.386C230.92 156.386 230.45 156.28 230.021 156.077C229.435 155.738 229.343 155.317 229.361 155.326C229.577 155.56 229.831 155.755 230.113 155.903C230.526 156.053 230.967 156.115 231.405 156.083C231.844 156.052 232.271 155.928 232.659 155.72C233.227 155.455 233.808 155.22 234.399 155.014C235.108 154.815 235.844 154.728 236.58 154.758C238.183 154.929 239.795 155.005 241.407 154.987C241.809 154.938 242.205 154.849 242.589 154.721C242.946 154.593 243.193 154.336 243.083 154.172C242.973 154.007 242.589 153.833 242.167 153.723L241.068 153.365L237.294 152.101C236.222 151.735 235.352 151.433 234.757 151.185C234.446 151.108 234.147 150.988 233.868 150.828Z" fill="#AA6550"/>
<path d="M190.321 200.971L201.029 199.908C201.029 199.908 215.191 209.609 213.853 211.743C212.516 213.877 210.189 211.743 210.189 211.743C210.189 211.743 212.708 214.848 208.632 215.819C208.632 215.819 207.661 217.953 206.113 217.761H205.142C205.142 217.761 204.226 220.463 202.953 219.877C201.68 219.291 197.695 215.81 197.695 215.81L186.703 214.839L190.321 200.971Z" fill="#B78876"/>
<path d="M196.981 212.008C196.981 212.008 194.233 213.062 193.675 214.17C193.116 215.279 192.759 217.834 194.536 218.338C195.578 218.405 196.624 218.371 197.659 218.237L196.981 215.352C197.492 214.759 198.037 214.196 198.612 213.666C199.198 213.181 198.557 211.285 196.981 212.008Z" fill="#FFBE9D"/>
<path d="M200.069 213.473C200.069 213.473 197.321 214.527 196.762 215.626C196.601 215.95 196.514 216.306 196.508 216.668C196.502 217.029 196.578 217.388 196.729 217.717C196.88 218.045 197.103 218.336 197.382 218.567C197.66 218.798 197.987 218.964 198.338 219.052C199.282 219.127 200.231 219.096 201.168 218.96L200.875 218.402C200.326 217.321 200.088 216.441 201.059 215.718C201.113 215.718 201.663 215.168 201.7 215.131C201.838 214.903 201.896 214.636 201.865 214.371C201.834 214.106 201.715 213.859 201.528 213.669C201.342 213.479 201.097 213.357 200.832 213.321C200.568 213.286 200.3 213.339 200.069 213.473Z" fill="#FFBE9D"/>
<path d="M200.733 218.859C200.501 218.608 200.355 218.29 200.316 217.951C200.276 217.612 200.345 217.269 200.513 216.972C200.874 216.383 201.454 215.961 202.125 215.799C202.332 215.712 202.56 215.685 202.782 215.72C203.003 215.756 203.211 215.853 203.38 216.001C203.463 216.12 203.521 216.254 203.551 216.395C203.581 216.537 203.582 216.683 203.554 216.825C203.368 217.582 202.982 218.275 202.437 218.831C202.18 219.152 201.869 219.5 201.457 219.491C201.044 219.482 200.742 219.097 200.541 218.749" fill="#FFBE9D"/>
<path d="M142.857 132.516L145.266 131.609L147.345 135.338L146.182 139.322L143.727 139.927L141.281 136.84L142.857 132.516Z" fill="#305A61"/>
<path d="M143.727 139.927C143.727 139.927 146.85 157.065 149.442 169.12C149.442 169.12 151.577 179.196 152.438 181.467C153.4 184.06 156.367 187.879 156.367 187.879L159.381 189.052L157.549 172.115L146.191 139.322L143.727 139.927Z" fill="#305A61"/>
<g opacity="0.4">
<path d="M142.857 132.516L145.266 131.609L147.345 135.338L146.182 139.322L143.727 139.927L141.281 136.84L142.857 132.516Z" fill="black"/>
</g>
<g opacity="0.4">
<path d="M143.727 139.927C143.727 139.927 146.85 157.065 149.442 169.12C149.442 169.12 151.888 179.068 152.438 181.467C152.758 182.887 156.367 187.879 156.367 187.879L159.381 189.052L157.549 172.115L146.191 139.322L143.727 139.927Z" fill="black"/>
</g>
<path d="M128.401 122.102L142.855 132.516L139.732 141.109L126.578 127.57L128.401 122.102Z" fill="#F5F5F5"/>
<path d="M145.266 131.611L149.296 122.598L151.586 130.036L148.408 137.84L145.266 131.611Z" fill="#F5F5F5"/>
<path d="M142.896 132.517C142.868 132.743 142.813 132.964 142.731 133.176L142.144 135.008C141.631 136.538 140.88 138.672 139.974 141.219L139.854 141.567L139.598 141.292L136.236 137.573C133.616 134.67 131.262 132.022 129.586 130.09L127.608 127.781C127.349 127.501 127.122 127.194 126.93 126.865C127.227 127.093 127.5 127.351 127.745 127.635L129.833 129.833C131.583 131.665 133.974 134.321 136.584 137.225C137.766 138.544 138.893 139.808 139.937 140.962L139.561 141.036C140.477 138.526 141.302 136.392 141.888 134.88L142.593 133.131C142.664 132.913 142.766 132.706 142.896 132.517Z" fill="#263238"/>
<path d="M151.588 130.072C151.435 130.796 151.208 131.502 150.911 132.179C150.443 133.452 149.756 135.211 148.969 137.135L148.63 137.968L148.392 138.545L148.19 137.959C147.393 135.91 146.428 133.931 145.305 132.042C145.786 132.474 146.195 132.981 146.514 133.544C147.39 134.874 148.103 136.304 148.639 137.803H148.19C148.3 137.529 148.419 137.254 148.529 136.97C149.317 135.037 150.05 133.306 150.599 132.06C150.851 131.361 151.183 130.694 151.588 130.072Z" fill="#263238"/>
<path d="M335.251 401.271L340.82 423.384L350.273 439.606C350.435 439.883 350.537 440.189 350.575 440.507C350.613 440.825 350.585 441.147 350.493 441.454C350.401 441.761 350.247 442.045 350.041 442.29C349.835 442.534 349.58 442.734 349.293 442.876C348.964 443.048 348.598 443.138 348.226 443.138C347.854 443.138 347.488 443.048 347.159 442.876C342.909 440.586 327.337 432.077 327.007 430.437C326.64 428.541 319.578 407.537 319.578 407.537L335.251 401.271Z" fill="#305A61"/>
<g opacity="0.6">
<path d="M349.336 442.876L326.656 428.926L326.913 429.842C327.133 430.648 327.633 431.349 328.323 431.82C330.155 433.075 335.358 436.4 347.129 442.812C347.469 442.993 347.848 443.087 348.233 443.087C348.618 443.087 348.996 442.993 349.336 442.812V442.876Z" fill="white"/>
</g>
<g opacity="0.6">
<path d="M329.2 420.59C329.527 420.712 329.796 420.951 329.957 421.261C330.118 421.571 330.158 421.929 330.07 422.266C329.959 422.597 329.725 422.872 329.416 423.034C329.107 423.196 328.748 423.233 328.412 423.137C328.066 423.008 327.78 422.754 327.61 422.425C327.441 422.097 327.4 421.717 327.496 421.359C327.647 421.024 327.923 420.761 328.266 420.627C328.609 420.493 328.99 420.5 329.328 420.645" fill="white"/>
</g>
<path d="M341.669 434.659C342.004 433.826 342.496 433.064 343.116 432.415C343.837 431.877 344.651 431.477 345.516 431.233C345.516 431.178 345.196 431.087 344.664 431.151C343.968 431.267 343.319 431.577 342.791 432.045C342.262 432.513 341.877 433.121 341.678 433.798C341.541 434.329 341.596 434.659 341.669 434.659Z" fill="#263238"/>
<path d="M344.032 437.169C344.169 437.242 344.673 436.326 345.718 435.685C346.392 435.358 347.083 435.068 347.788 434.815C347.391 434.698 346.972 434.677 346.565 434.756C346.159 434.834 345.777 435.008 345.452 435.264C344.27 436.015 343.904 437.141 344.032 437.169Z" fill="#263238"/>
<path d="M337.703 431.692C339.093 429.811 341.004 428.377 343.199 427.57C341.986 427.665 340.826 428.103 339.852 428.833C338.879 429.563 338.134 430.555 337.703 431.692Z" fill="#263238"/>
<path d="M335.438 425.115C335.538 425.225 336.61 424.382 338.185 423.896C339.761 423.411 341.108 423.429 341.117 423.283C340.105 422.958 339.011 423.003 338.03 423.411C336.994 423.66 336.077 424.263 335.438 425.115Z" fill="#263238"/>
<path d="M333.64 418.666C334.508 418.085 335.455 417.632 336.452 417.319C337.481 417.149 338.529 417.122 339.566 417.237C339.566 417.182 339.273 416.98 338.65 416.824C337.876 416.639 337.07 416.639 336.296 416.824C335.522 417.007 334.803 417.371 334.198 417.887C333.777 418.29 333.594 418.611 333.64 418.666Z" fill="#263238"/>
<path d="M336.07 416.102C336.069 415.81 336.003 415.522 335.877 415.259C335.591 414.516 335.162 413.838 334.613 413.262C334.246 412.809 333.741 412.487 333.175 412.346C332.984 412.315 332.788 412.345 332.615 412.432C332.442 412.52 332.302 412.659 332.213 412.831C332.052 413.169 332.026 413.556 332.14 413.912C332.392 414.638 332.89 415.253 333.547 415.651C334.204 416.049 334.98 416.205 335.74 416.092C336.489 415.963 337.182 415.614 337.733 415.091C338.284 414.568 338.668 413.893 338.836 413.152C338.875 412.965 338.874 412.772 338.833 412.586C338.792 412.4 338.712 412.224 338.598 412.071C338.467 411.93 338.294 411.833 338.105 411.795C337.916 411.757 337.72 411.78 337.544 411.86C337.034 412.128 336.605 412.527 336.299 413.015C335.832 413.656 335.485 414.376 335.273 415.14C335.17 415.411 335.127 415.702 335.144 415.992C335.486 415.01 335.971 414.084 336.583 413.244C336.867 412.832 337.247 412.495 337.691 412.263C337.787 412.219 337.895 412.206 337.999 412.228C338.103 412.249 338.197 412.303 338.268 412.383C338.334 412.488 338.377 412.606 338.396 412.728C338.415 412.851 338.409 412.977 338.378 413.097C338.212 413.737 337.864 414.316 337.376 414.763C336.889 415.21 336.282 415.506 335.63 415.616C334.984 415.708 334.326 415.576 333.764 415.243C333.203 414.91 332.772 414.395 332.543 413.784C332.455 413.538 332.455 413.27 332.543 413.024C332.591 412.927 332.668 412.848 332.763 412.799C332.859 412.75 332.968 412.732 333.074 412.749C333.55 412.87 333.978 413.131 334.302 413.5C335.042 414.254 335.641 415.135 336.07 416.102Z" fill="#263238"/>
<path d="M266.213 405.394L267.394 422.441C267.394 422.441 250.467 429.366 250.375 432.517L283.507 431.436L282.765 404.799L266.213 405.394Z" fill="#305A61"/>
<path d="M277.589 420.663C277.913 420.749 278.193 420.952 278.376 421.233C278.558 421.514 278.631 421.852 278.579 422.183C278.506 422.51 278.31 422.797 278.033 422.985C277.755 423.172 277.416 423.246 277.085 423.191C276.744 423.098 276.449 422.882 276.258 422.584C276.067 422.286 275.993 421.928 276.05 421.579C276.164 421.248 276.4 420.974 276.711 420.813C277.022 420.653 277.382 420.619 277.718 420.718" fill="#E0E0E0"/>
<path d="M283.51 431.436L283.336 428.752L251.633 430.813C251.633 430.813 250.177 431.509 250.379 432.544L283.51 431.436Z" fill="#E0E0E0"/>
<path d="M266.86 422.276C266.86 422.432 267.685 422.487 268.491 422.972C269.297 423.458 269.755 424.136 269.902 424.071C270.048 424.007 269.773 423.073 268.784 422.487C267.795 421.9 266.824 422.148 266.86 422.276Z" fill="#263238"/>
<path d="M263.43 423.842C263.43 424.006 264.108 424.254 264.675 424.922C265.243 425.591 265.436 426.306 265.591 426.296C265.747 426.287 265.83 425.38 265.097 424.547C264.364 423.713 263.43 423.695 263.43 423.842Z" fill="#263238"/>
<path d="M261.591 428.073C261.746 428.073 261.939 427.285 261.499 426.415C261.059 425.545 260.281 425.215 260.217 425.352C260.153 425.49 260.638 425.948 260.995 426.662C261.353 427.377 261.435 428.055 261.591 428.073Z" fill="#263238"/>
<path d="M267.023 418.382C267.097 418.52 267.829 418.273 268.745 418.309C269.661 418.346 270.385 418.602 270.458 418.465C270.532 418.327 269.835 417.769 268.754 417.741C267.674 417.714 266.932 418.254 267.023 418.382Z" fill="#263238"/>
<path d="M266.844 414.947C267.393 415.069 267.964 415.047 268.502 414.883C269.095 414.754 269.67 414.554 270.215 414.287C270.533 414.131 270.839 413.95 271.131 413.747C271.318 413.643 271.485 413.506 271.625 413.344C271.727 413.226 271.787 413.077 271.795 412.921C271.803 412.765 271.76 412.611 271.671 412.483C271.585 412.374 271.475 412.286 271.349 412.225C271.224 412.165 271.087 412.134 270.947 412.135C270.735 412.139 270.525 412.176 270.325 412.245C269.974 412.339 269.633 412.468 269.308 412.629C268.757 412.899 268.253 413.255 267.815 413.683C267.064 414.425 266.825 415.039 266.899 415.066C266.972 415.093 267.329 414.599 268.089 413.985C268.534 413.619 269.023 413.311 269.546 413.069C269.842 412.936 270.148 412.829 270.462 412.749C270.81 412.648 271.103 412.629 271.204 412.749C271.305 412.868 271.204 412.831 271.204 412.932C271.097 413.05 270.974 413.152 270.837 413.234C270.561 413.428 270.273 413.605 269.976 413.765C269.471 414.032 268.944 414.256 268.401 414.434C267.869 414.562 267.348 414.733 266.844 414.947Z" fill="#263238"/>
<path d="M267.056 415.157C267.12 415.157 267.422 414.59 267.44 413.545C267.45 412.923 267.354 412.304 267.156 411.713C267.04 411.368 266.886 411.036 266.698 410.724C266.602 410.509 266.452 410.321 266.263 410.18C266.074 410.039 265.852 409.949 265.618 409.918C265.47 409.926 265.328 409.976 265.208 410.062C265.088 410.148 264.995 410.267 264.94 410.403C264.858 410.599 264.805 410.806 264.784 411.017C264.728 411.388 264.728 411.764 264.784 412.135C264.897 412.754 265.161 413.336 265.553 413.829C266.231 414.663 266.909 414.837 266.918 414.745C266.927 414.654 266.396 414.37 265.874 413.554C265.571 413.09 265.374 412.565 265.297 412.016C265.251 411.697 265.251 411.373 265.297 411.054C265.297 410.706 265.462 410.413 265.59 410.449C265.718 410.486 266.048 410.697 266.195 410.971C266.365 411.265 266.512 411.571 266.634 411.887C266.839 412.416 266.965 412.971 267.01 413.536C267.12 414.525 266.973 415.139 267.056 415.157Z" fill="#263238"/>
<path d="M257.172 219.967L262.503 418.336L288.646 417.548L286.63 247.3L319.936 422.284L343.541 416.119L313.066 220.352L257.172 219.967Z" fill="#263238"/>
<path d="M271.504 418.612C271.366 418.612 271.266 377.493 271.266 326.774C271.266 276.055 271.366 234.936 271.504 234.936C271.641 234.936 271.742 276.046 271.742 326.774C271.742 377.502 271.632 418.612 271.504 418.612Z" fill="#455A64"/>
<path d="M327.398 422.22C327.269 422.22 321.169 382.832 313.767 334.183C306.366 285.534 300.449 246.073 300.605 246.055C300.76 246.036 306.833 285.443 314.235 334.11C321.636 382.777 327.535 422.201 327.398 422.22Z" fill="#455A64"/>
<path d="M294.627 95.9229C295.538 93.8845 296.276 91.7734 296.835 89.6117C297.146 87.9629 297.641 85.4988 296.981 83.96C296.322 82.4211 294.719 80.9372 292.703 81.3585C292.494 79.7398 291.876 78.2012 290.906 76.8884C289.936 75.5756 288.647 74.5321 287.162 73.8565C284.294 72.4693 281.182 71.66 278.002 71.4749C276.839 71.3572 275.664 71.5044 274.567 71.9054C273.634 72.3783 272.901 73.1672 272.496 74.1313C271.535 73.4403 270.426 72.9835 269.257 72.7974C268.088 72.6113 266.892 72.7011 265.764 73.0596C263.236 73.7374 260.36 75.1022 259.251 77.4655C258.457 79.2341 258.388 81.2433 259.059 83.0623C259.544 84.6012 261.175 87.0194 262.723 86.4515" fill="#263238"/>
<path d="M281.885 138.71C280.369 138.679 278.875 138.344 277.491 137.723C276.107 137.103 274.862 136.211 273.83 135.1C272.797 133.99 271.999 132.683 271.482 131.257C270.965 129.831 270.74 128.316 270.82 126.802C270.976 123.642 271.122 121.086 271.122 121.086C271.122 121.086 262.493 119.969 262.173 111.377C261.852 102.785 262.851 83.0356 262.851 83.0356C267.685 80.8217 273.023 79.9388 278.313 80.4783C283.603 81.0178 288.653 82.96 292.941 86.1042L294.233 87.0202L293.436 127.608C293.407 129.096 293.086 130.563 292.49 131.927C291.894 133.29 291.035 134.522 289.962 135.553C288.889 136.584 287.624 137.394 286.238 137.936C284.852 138.477 283.373 138.74 281.885 138.71Z" fill="#FFBE9D"/>
<path d="M271.135 120.994C275.103 120.967 278.973 119.762 282.255 117.531C282.255 117.531 279.608 124.191 271.016 123.632L271.135 120.994Z" fill="#EB996E"/>
<path d="M293.401 95.9502C293.547 95.8861 299.263 94.0541 299.217 99.9348C299.172 105.816 293.291 104.561 293.282 104.387C293.273 104.213 293.401 95.9502 293.401 95.9502Z" fill="#FFBE9D"/>
<path d="M295.091 102.17C295.091 102.17 295.201 102.244 295.366 102.326C295.487 102.378 295.618 102.404 295.75 102.404C295.882 102.404 296.013 102.378 296.135 102.326C296.517 102.09 296.829 101.755 297.039 101.357C297.248 100.959 297.347 100.513 297.326 100.064C297.344 99.5598 297.247 99.0584 297.042 98.598C296.989 98.4144 296.893 98.2465 296.76 98.1091C296.628 97.9717 296.463 97.8691 296.282 97.8103C296.165 97.777 296.039 97.7863 295.929 97.8366C295.818 97.887 295.729 97.975 295.677 98.0851C295.595 98.2499 295.631 98.3599 295.604 98.369C295.576 98.3782 295.475 98.2774 295.521 98.0301C295.557 97.8847 295.641 97.7557 295.759 97.6637C295.924 97.5461 296.126 97.4938 296.327 97.5171C296.567 97.5688 296.79 97.6797 296.975 97.8397C297.161 97.9998 297.303 98.2038 297.39 98.4331C297.639 98.9425 297.755 99.5064 297.729 100.073C297.753 100.596 297.623 101.115 297.354 101.565C297.085 102.014 296.69 102.375 296.217 102.601C296.062 102.64 295.9 102.646 295.742 102.618C295.584 102.589 295.434 102.527 295.301 102.436C295.1 102.317 295.072 102.189 295.091 102.17Z" fill="#EB996E"/>
<path d="M265.078 96.4731C265.085 96.7931 265.216 97.0979 265.443 97.3234C265.671 97.5489 265.976 97.6775 266.296 97.6822C266.453 97.6908 266.609 97.6681 266.756 97.6153C266.904 97.5626 267.039 97.4809 267.154 97.375C267.269 97.2692 267.362 97.1413 267.427 96.999C267.492 96.8567 267.528 96.7028 267.533 96.5464C267.528 96.2256 267.398 95.9194 267.17 95.6935C266.943 95.4675 266.636 95.3396 266.315 95.3373C266.159 95.3299 266.003 95.3535 265.856 95.4067C265.709 95.4599 265.575 95.5417 265.46 95.6473C265.345 95.7529 265.252 95.8803 265.186 96.022C265.121 96.1638 265.084 96.3171 265.078 96.4731Z" fill="#263238"/>
<path d="M264.779 95.0982C264.935 95.2539 265.851 94.5486 267.17 94.5211C268.489 94.4937 269.478 95.1257 269.615 94.9608C269.753 94.7959 269.524 94.6036 269.093 94.3013C268.512 93.9215 267.827 93.7297 267.133 93.7517C266.446 93.7668 265.781 94.0011 265.237 94.4204C264.834 94.741 264.724 95.0341 264.779 95.0982Z" fill="#263238"/>
<path d="M278.016 96.4627C278.025 96.7811 278.157 97.0837 278.384 97.3072C278.611 97.5308 278.915 97.6581 279.234 97.6627C279.39 97.6726 279.547 97.6508 279.695 97.5985C279.843 97.5462 279.979 97.4645 280.094 97.3584C280.21 97.2523 280.303 97.124 280.367 96.9811C280.432 96.8381 280.467 96.6836 280.47 96.5268C280.466 96.2076 280.337 95.9028 280.111 95.6771C279.885 95.4514 279.581 95.3224 279.261 95.3177C279.104 95.3103 278.947 95.3342 278.799 95.3879C278.651 95.4416 278.516 95.524 278.4 95.6305C278.284 95.7369 278.19 95.8653 278.124 96.0082C278.058 96.151 278.022 96.3055 278.016 96.4627Z" fill="#263238"/>
<path d="M277.754 95.0254C277.919 95.1811 278.826 94.4666 280.145 94.4391C281.464 94.4116 282.453 95.0437 282.59 94.8788C282.728 94.7139 282.499 94.5216 282.068 94.2284C281.489 93.8427 280.804 93.6474 280.108 93.6697C279.421 93.6848 278.757 93.9191 278.212 94.3384C277.809 94.659 277.681 94.9521 277.754 95.0254Z" fill="#263238"/>
<path d="M273.214 104.927C272.513 104.729 271.79 104.619 271.062 104.597C270.723 104.597 270.402 104.515 270.338 104.286C270.308 103.938 270.378 103.588 270.54 103.278C270.842 102.454 271.153 101.593 271.456 100.686C272.747 97.022 273.672 93.9717 273.526 93.9168C273.379 93.8618 272.207 96.8205 270.915 100.503L269.999 103.113C269.796 103.525 269.744 103.995 269.853 104.442C269.909 104.556 269.988 104.658 270.086 104.74C270.184 104.822 270.298 104.882 270.421 104.918C270.609 104.964 270.803 104.985 270.998 104.982C271.736 105.065 272.481 105.046 273.214 104.927Z" fill="#263238"/>
<path d="M277.123 105.751C276.904 105.751 276.94 107.17 275.74 108.224C274.54 109.277 272.992 109.14 272.992 109.351C272.992 109.561 273.34 109.616 273.991 109.616C274.829 109.609 275.637 109.303 276.271 108.755C276.884 108.23 277.268 107.488 277.343 106.685C277.389 106.09 277.224 105.732 277.123 105.751Z" fill="#263238"/>
<path d="M277.288 89.8591C277.425 90.2164 278.744 90.0148 280.292 90.1614C281.84 90.308 283.113 90.6927 283.306 90.3721C283.397 90.2164 283.168 89.8774 282.655 89.5477C281.976 89.1304 281.206 88.8822 280.411 88.824C279.614 88.7475 278.811 88.8605 278.066 89.1538C277.544 89.4011 277.233 89.6851 277.288 89.8591Z" fill="#263238"/>
<path d="M265.172 91.2694C265.41 91.5626 266.308 91.2694 267.407 91.187C268.506 91.1046 269.431 91.3336 269.633 91.0221C269.724 90.8664 269.569 90.5641 269.156 90.2893C268.604 89.9649 267.968 89.8118 267.329 89.8493C266.69 89.8868 266.076 90.1133 265.566 90.5C265.181 90.8114 265.062 91.1229 265.172 91.2694Z" fill="#263238"/>
<path d="M294.697 87.6979C294.642 90.2078 295.274 92.9832 294.889 95.4473C294.834 95.8228 293.9 96.8396 293.817 97.206C293.369 99.3952 292.489 100.348 291.143 98.122C290.621 97.2701 290.227 94.8794 290.025 93.9084L288.266 86.0216C286.276 87.1186 284.045 87.707 281.772 87.7346C280.638 87.732 279.523 87.4405 278.532 86.8876C277.542 86.3346 276.709 85.5386 276.111 84.5744C275.596 85.4809 274.884 86.2597 274.026 86.8529C273.169 87.446 272.189 87.8381 271.159 88.0001C270.129 88.162 269.076 88.0897 268.078 87.7884C267.079 87.4871 266.162 86.9646 265.394 86.2598C264.991 86.8618 264.376 87.2902 263.672 87.4599C262.968 87.6296 262.225 87.5282 261.592 87.1758C260.979 86.788 260.503 86.2156 260.235 85.5408C259.967 84.8661 259.919 84.1237 260.099 83.4202C260.64 81.3134 262.847 80.1226 264.927 79.4539C273.033 76.8433 282.12 78.5379 289.567 82.6233C290.677 83.1887 291.696 83.9174 292.59 84.785C293.451 85.701 294.642 86.727 294.706 87.9727" fill="#263238"/>
<path d="M288.536 87.0191C288.987 87.0174 289.436 87.0886 289.864 87.2297C290.314 87.4239 290.728 87.69 291.092 88.0175C291.513 88.3839 291.925 88.8602 292.429 89.3274C292.898 89.8002 293.468 90.1604 294.096 90.3808C294.629 90.532 295.194 90.532 295.727 90.3808C296.643 90.1243 296.991 89.6297 296.954 89.593C296.532 89.7717 296.097 89.9187 295.653 90.0327C295.181 90.1131 294.695 90.0722 294.243 89.9136C293.687 89.6995 293.184 89.3684 292.768 88.9427C292.292 88.4938 291.852 88.0267 291.394 87.6419C290.977 87.2979 290.498 87.0367 289.983 86.8725C289.04 86.616 288.472 87.0191 288.536 87.0191Z" fill="#455A64"/>
<path d="M289.521 89.5847C289.521 89.658 289.961 89.5847 290.437 89.9969C290.718 90.2528 290.969 90.5385 291.188 90.8488C291.488 91.2652 291.868 91.6172 292.306 91.8839C293.104 92.3798 294.05 92.5808 294.98 92.4518C295.686 92.3419 296.052 92.0854 296.025 92.0305C295.997 91.9755 295.594 92.0854 294.944 92.0946C294.107 92.1164 293.283 91.8936 292.571 91.4534C291.729 90.9862 291.307 90.0885 290.639 89.7038C289.97 89.3191 289.457 89.5206 289.521 89.5847Z" fill="#455A64"/>
<path d="M266.864 72.8757C266.864 72.8757 266.58 72.8025 266.103 72.949C265.433 73.1733 264.854 73.6108 264.455 74.1948C263.401 75.6695 263.154 78.2801 263.969 80.8175C264.689 83.0021 266.189 84.8446 268.183 85.9929C268.773 86.336 269.404 86.6037 270.06 86.7898C270.297 86.8801 270.549 86.9236 270.802 86.918C269.975 86.5482 269.168 86.1355 268.384 85.6814C266.54 84.5059 265.158 82.7295 264.473 80.6526C263.694 78.2618 263.877 75.7611 264.766 74.3871C265.111 73.8397 265.607 73.4038 266.195 73.1322C266.598 72.9399 266.864 72.9215 266.864 72.8757Z" fill="#455A64"/>
<path d="M259.746 76.4397C259.648 76.991 259.673 77.5571 259.819 78.0976C260.346 80.7682 261.911 83.1206 264.17 84.6379C264.613 84.9832 265.126 85.2272 265.673 85.3524C264.169 84.2973 262.848 83.004 261.761 81.5235C260.048 78.9953 259.911 76.4122 259.746 76.4397Z" fill="#455A64"/>
<path d="M212.383 196.152L199.815 196.784C199.044 196.825 198.319 197.162 197.791 197.725C197.263 198.289 196.974 199.035 196.985 199.807C197.049 202.683 197.534 206.613 199.733 206.219L201.162 199.963L211.595 209.123C212.65 210.074 213.952 210.708 215.35 210.955L217.805 210.698L212.383 196.152Z" fill="#FFBE9D"/>
<path d="M272.477 128.834L265.909 131.005L262.648 185.553V233.945L302.98 238.406L303.447 168.625L300.846 133.9L294.681 126.535L272.477 128.834Z" fill="#E0E0E0"/>
<path d="M270.453 131.446V126.16L294.425 122.826L293.463 135L287.958 144.545L278.954 145.048L272.45 141.036L270.453 131.446Z" fill="#E0E0E0"/>
<path d="M272.612 130.832C272.408 130.043 272.361 129.221 272.475 128.414C272.434 127.599 272.549 126.785 272.813 126.014C273.018 126.803 273.064 127.625 272.951 128.432C272.992 129.246 272.876 130.061 272.612 130.832Z" fill="#263238"/>
<path d="M278.597 130.393C278.417 129.503 278.389 128.589 278.515 127.69C278.491 126.782 278.627 125.877 278.918 125.016C279.103 125.92 279.128 126.85 278.991 127.764C279.016 128.656 278.883 129.546 278.597 130.393Z" fill="#263238"/>
<path d="M284.399 129.787C284.242 128.84 284.242 127.875 284.399 126.929C284.391 125.97 284.542 125.016 284.848 124.107C285 125.054 285 126.019 284.848 126.965C284.851 127.924 284.7 128.876 284.399 129.787Z" fill="#263238"/>
<path d="M289.964 128.871C289.6 127.086 289.685 125.238 290.212 123.494C290.333 124.388 290.333 125.294 290.212 126.187C290.248 127.089 290.165 127.991 289.964 128.871Z" fill="#263238"/>
<path d="M287.299 151.928C287.236 152.247 287.128 152.555 286.979 152.844C286.75 153.412 286.392 154.218 285.925 155.207C285.009 157.176 283.608 159.86 281.904 162.718C280.2 165.576 278.506 168.086 277.214 169.845C276.573 170.761 276.042 171.429 275.657 171.906C275.474 172.167 275.258 172.404 275.016 172.611C275.603 171.591 276.245 170.603 276.939 169.652C278.158 167.82 279.797 165.329 281.519 162.48C283.241 159.631 284.643 156.984 285.65 155.051C286.145 153.982 286.696 152.94 287.299 151.928Z" fill="#263238"/>
<path d="M294.563 125.684L301.067 128.816L313.634 131.903C316.289 132.365 318.665 133.833 320.265 136.001C321.865 138.17 322.568 140.872 322.226 143.546L315.64 194.842L323.499 244.58L292.355 243.664L290.523 225.161V173.865L294.563 125.684Z" fill="#455A64"/>
<path d="M290.523 185.681C290.538 185.465 290.569 185.251 290.615 185.04C290.707 184.582 290.826 183.986 290.972 183.208L292.355 176.594L297.109 154.821C297.632 152.485 298.135 150.241 298.621 148.024L298.685 148.244L296.523 145.981L296.404 145.853L296.496 145.707L300.114 139.689V139.863L296.12 130.19C295.671 129.063 295.305 128.156 295.039 127.442C294.897 127.128 294.781 126.803 294.691 126.471C294.875 126.759 295.028 127.066 295.149 127.387L296.34 130.052L300.444 139.734L300.489 139.826L300.435 139.918C299.326 141.75 298.126 143.811 296.853 145.972V145.698L299.015 147.942L299.106 148.033V148.152C298.621 150.342 298.117 152.613 297.604 154.949C295.699 163.422 293.94 171.089 292.713 176.695C292.081 179.443 291.559 181.669 291.183 183.281L290.743 185.058C290.692 185.273 290.618 185.481 290.523 185.681Z" fill="#263238"/>
<path d="M212.914 194.081L240.467 178.72L253.813 142.712C254.738 140.225 256.164 137.954 258.003 136.041C259.842 134.128 262.054 132.614 264.503 131.592L268.048 130.117V224.914L268.753 247.374L253.823 242.904L261.444 197.764L258.806 175.551L256.195 186.295C255.736 188.202 254.896 189.996 253.727 191.57C252.557 193.144 251.082 194.465 249.389 195.455L220.755 210.331L212.914 194.081Z" fill="#455A64"/>
<path d="M213.247 194.777L210.93 195.473L217.452 211.027L220.493 209.846L213.247 194.777Z" fill="#E0E0E0"/>
<path d="M245.486 185.115C244.919 183.885 244.228 182.715 243.425 181.625C242.499 180.637 241.477 179.744 240.375 178.959C241.708 179.419 242.89 180.237 243.791 181.322C244.692 182.407 245.279 183.719 245.486 185.115Z" fill="#263238"/>
<path d="M216.219 194.283C216.219 194.348 216.081 194.467 216.063 194.732C216.045 194.998 216.219 195.309 216.585 195.199C216.655 195.183 216.718 195.149 216.769 195.1C216.821 195.051 216.858 194.988 216.876 194.92C216.895 194.851 216.895 194.779 216.876 194.71C216.857 194.642 216.82 194.58 216.768 194.531C216.613 194.311 216.411 194.302 216.402 194.228C216.393 194.155 216.659 194.027 217.007 194.283C217.107 194.363 217.187 194.465 217.241 194.581C217.295 194.697 217.322 194.824 217.318 194.952C217.303 195.117 217.238 195.272 217.131 195.398C217.025 195.525 216.882 195.615 216.723 195.657C216.584 195.706 216.434 195.714 216.291 195.681C216.148 195.648 216.017 195.575 215.913 195.47C215.81 195.366 215.738 195.234 215.706 195.091C215.674 194.947 215.684 194.797 215.733 194.659C215.889 194.247 216.173 194.192 216.219 194.283Z" fill="#263238"/>
<path d="M218.437 193.349C218.437 193.413 218.299 193.532 218.29 193.798C218.281 194.063 218.446 194.375 218.812 194.265C218.881 194.247 218.945 194.211 218.996 194.161C219.046 194.111 219.083 194.048 219.102 193.979C219.12 193.91 219.12 193.838 219.102 193.769C219.083 193.7 219.046 193.637 218.995 193.587C218.84 193.376 218.638 193.358 218.62 193.294C218.601 193.23 218.876 193.083 219.234 193.349C219.334 193.426 219.414 193.527 219.468 193.641C219.522 193.756 219.549 193.882 219.545 194.008C219.527 194.174 219.461 194.33 219.354 194.458C219.247 194.586 219.105 194.679 218.945 194.726C218.785 194.773 218.615 194.772 218.456 194.722C218.297 194.673 218.157 194.577 218.052 194.448C217.981 194.341 217.936 194.219 217.921 194.092C217.905 193.965 217.918 193.836 217.96 193.715C218.116 193.275 218.437 193.275 218.437 193.349Z" fill="#263238"/>
<path d="M268.046 187.138C267.983 186.951 267.944 186.757 267.927 186.561C267.863 186.121 267.771 185.562 267.67 184.866C267.46 183.336 267.176 181.202 266.827 178.646C266.15 173.334 265.234 166.088 264.217 158.091C264.079 156.956 263.942 155.838 263.805 154.73V154.675V154.62C264.501 152.852 265.179 151.139 265.82 149.499V149.673C265.124 148.089 264.455 146.568 263.832 145.093V145.029V144.956C265.06 140.55 266.086 136.84 266.818 134.165C267.185 132.901 267.478 131.894 267.689 131.143C267.779 130.779 267.898 130.424 268.046 130.08C267.997 130.449 267.921 130.813 267.817 131.17C267.634 131.93 267.377 132.956 267.056 134.23C266.36 136.913 265.389 140.642 264.244 145.066V144.928L266.269 149.453V149.536V149.628L264.263 154.803V154.684C264.4 155.783 264.537 156.91 264.684 158.046C265.6 166.051 266.516 173.297 267.148 178.61C267.441 181.202 267.679 183.318 267.844 184.857L268.009 186.551C268.045 186.745 268.057 186.942 268.046 187.138Z" fill="#263238"/>
<path d="M261.415 198.03C261.37 197.883 261.339 197.733 261.323 197.581C261.277 197.233 261.213 196.802 261.14 196.289C260.993 195.089 260.801 193.477 260.554 191.517C260.068 187.486 259.381 181.926 258.557 175.789C257.732 169.652 256.926 164.101 256.34 160.089C256.056 158.138 255.818 156.526 255.644 155.335C255.58 154.813 255.525 154.419 255.479 154.034C255.455 153.882 255.455 153.728 255.479 153.576C255.534 153.718 255.574 153.866 255.598 154.016C255.671 154.364 255.754 154.785 255.855 155.298C256.065 156.416 256.358 158.046 256.697 160.034C257.375 164.037 258.236 169.579 259.061 175.725C259.885 181.871 260.517 187.441 260.893 191.48C261.094 193.495 261.241 195.144 261.332 196.262C261.332 196.784 261.396 197.178 261.415 197.572C261.439 197.723 261.439 197.878 261.415 198.03Z" fill="#263238"/>
<path d="M257.616 231.748C257.792 232.031 258.005 232.29 258.248 232.518C258.597 232.798 259.005 232.995 259.442 233.094C259.879 233.192 260.332 233.189 260.767 233.085C261.404 232.885 261.984 232.538 262.462 232.072C262.939 231.605 263.3 231.033 263.515 230.402C264.019 228.807 264.278 227.146 264.285 225.473C264.483 223.817 264.311 222.137 263.781 220.555C263.196 219.329 262.341 218.252 261.28 217.404C260.563 216.79 259.924 216.092 259.375 215.324C259.161 215.055 259.008 214.742 258.926 214.408C258.926 214.408 259.119 214.72 259.522 215.233C260.12 215.942 260.786 216.593 261.509 217.175C262.647 218.023 263.564 219.131 264.184 220.408C264.771 222.044 264.968 223.794 264.761 225.519C264.753 227.241 264.472 228.951 263.927 230.585C263.679 231.267 263.272 231.88 262.74 232.373C262.208 232.867 261.567 233.227 260.868 233.424C260.384 233.537 259.879 233.528 259.399 233.396C258.919 233.265 258.48 233.017 258.12 232.673C257.934 232.488 257.782 232.271 257.671 232.032C257.616 231.821 257.598 231.748 257.616 231.748Z" fill="#263238"/>
<path d="M247.375 196.151C247.375 196.151 248.291 185.645 256.608 184.674C256.608 184.674 256.764 193.275 247.375 196.151Z" fill="#263238"/>
<path d="M291.961 235.495L316.189 251.341L318.937 249.152L320.229 213.639L297.155 196.152L293.985 197.242L291.961 235.495Z" fill="#305A61"/>
<path d="M296.892 196.656L297.835 235.092H292.742L294.446 197.417L296.892 196.656Z" fill="#E0E0E0"/>
<path d="M304.513 243.921C304.739 244.463 305.121 244.927 305.61 245.253C306.099 245.579 306.674 245.753 307.261 245.753C307.306 245.765 307.347 245.787 307.382 245.817C307.416 245.847 307.444 245.885 307.463 245.927C307.69 246.343 308.021 246.693 308.424 246.944C308.827 247.194 309.288 247.336 309.762 247.356C310.682 247.354 311.584 247.094 312.363 246.605C313.627 245.835 315.881 240.779 315.881 240.779L321.221 228.871L312.244 226.443L300.831 229.997C300.831 230.208 298.156 240.989 298.156 240.989C298.806 241.144 299.491 241.056 300.081 240.742C300.671 240.429 301.126 239.911 301.362 239.286C301.942 237.981 302.615 236.719 303.377 235.512L304.229 240.376L300.978 241.484C300.872 241.995 300.955 242.527 301.211 242.981C301.467 243.436 301.878 243.782 302.37 243.957L304.513 243.921Z" fill="#FFBE9D"/>
<path d="M308.547 160.355L323.505 187.89L311.332 224.026L324.861 231.656L342.072 191.444C342.702 189.969 343.014 188.379 342.988 186.775C342.963 185.172 342.601 183.592 341.926 182.138L320.858 136.805L308.547 160.355Z" fill="#455A64"/>
<path d="M311.327 224.025L310.062 226.828L322.832 233.717L324.169 231.262L311.327 224.025Z" fill="#E0E0E0"/>
<path d="M311.327 224.025C311.327 224.025 311.327 223.961 311.327 223.842C311.327 223.723 311.419 223.531 311.483 223.311L312.133 221.268C312.729 219.436 313.572 216.881 314.616 213.675C316.778 207.189 319.791 198.158 323.235 187.816V188.008C321.495 185.05 319.7 181.926 317.895 178.702C314.597 172.812 311.575 167.133 308.982 161.884C307.7 159.255 306.509 156.745 305.502 154.336C304.512 152.094 304.084 149.645 304.256 147.2C304.336 145.19 304.787 143.212 305.584 141.366C306.214 139.98 307.114 138.735 308.231 137.702C308.933 137.049 309.738 136.516 310.613 136.126C310.907 135.985 311.214 135.872 311.529 135.787C310.351 136.272 309.271 136.967 308.341 137.839C307.261 138.878 306.401 140.124 305.813 141.503C305.054 143.326 304.632 145.272 304.567 147.246C304.427 149.635 304.864 152.023 305.841 154.208C306.866 156.599 308.066 159.099 309.358 161.719C311.959 166.949 315 172.61 318.298 178.491C320.13 181.715 321.88 184.839 323.611 187.798L323.666 187.889V187.99C320.148 198.313 317.089 207.327 314.881 213.794L312.353 221.323C312.042 222.175 311.804 222.844 311.63 223.338L311.428 223.861C311.399 223.918 311.365 223.973 311.327 224.025Z" fill="#263238"/>
<path d="M333.614 187.632C333.111 187.492 332.618 187.318 332.139 187.11C329.768 186.323 327.193 186.404 324.876 187.339C324.412 187.578 323.931 187.783 323.438 187.953C323.795 187.551 324.24 187.237 324.738 187.037C325.904 186.466 327.178 186.154 328.476 186.121C329.772 186.075 331.063 186.313 332.259 186.817C332.767 186.982 333.231 187.26 333.614 187.632Z" fill="#263238"/>
<path d="M305.547 153.805L316.292 189.767L317.812 177.941L305.547 153.805Z" fill="#263238"/>
<path d="M323.347 224.466C323.347 224.53 323.209 224.649 323.2 224.915C323.191 225.18 323.356 225.492 323.722 225.382C323.792 225.364 323.855 225.329 323.906 225.278C323.957 225.228 323.993 225.166 324.012 225.097C324.031 225.028 324.031 224.955 324.012 224.886C323.993 224.817 323.956 224.754 323.906 224.704C323.75 224.493 323.548 224.475 323.539 224.411C323.53 224.347 323.786 224.21 324.144 224.466C324.245 224.545 324.326 224.646 324.38 224.763C324.435 224.879 324.46 225.006 324.455 225.135C324.438 225.3 324.371 225.456 324.263 225.582C324.155 225.708 324.011 225.798 323.851 225.84C323.689 225.899 323.512 225.905 323.347 225.855C323.182 225.806 323.037 225.704 322.935 225.565C322.864 225.46 322.819 225.34 322.803 225.214C322.787 225.089 322.801 224.961 322.843 224.842C322.98 224.42 323.347 224.42 323.347 224.466Z" fill="#263238"/>
<path d="M324.381 221.873C324.381 221.937 324.244 222.057 324.235 222.331C324.222 222.401 324.228 222.472 324.251 222.538C324.274 222.605 324.313 222.664 324.366 222.711C324.418 222.758 324.482 222.791 324.551 222.806C324.619 222.821 324.691 222.819 324.758 222.799C324.826 222.779 324.887 222.742 324.936 222.691C324.985 222.641 325.02 222.578 325.039 222.51C325.057 222.442 325.057 222.371 325.04 222.303C325.023 222.234 324.988 222.172 324.94 222.121C324.784 221.901 324.573 221.892 324.564 221.818C324.555 221.745 324.821 221.617 325.178 221.873C325.278 221.953 325.359 222.055 325.413 222.171C325.467 222.287 325.493 222.414 325.489 222.542C325.486 222.659 325.457 222.775 325.405 222.88C325.352 222.985 325.278 223.078 325.186 223.152C325.095 223.226 324.989 223.279 324.875 223.307C324.761 223.336 324.642 223.34 324.526 223.319C324.411 223.297 324.301 223.251 324.205 223.184C324.109 223.116 324.029 223.028 323.97 222.927C323.911 222.825 323.874 222.712 323.863 222.595C323.852 222.478 323.866 222.36 323.905 222.249C324.061 221.837 324.381 221.809 324.381 221.873Z" fill="#263238"/>
<path d="M339.085 176.064C337.482 176.907 336.923 179.27 337.106 181.075C337.29 182.879 337.958 184.629 337.913 186.434C337.793 187.724 337.563 189.002 337.226 190.253C336.881 191.509 336.919 192.839 337.335 194.073C337.558 194.683 337.976 195.201 338.525 195.548C339.073 195.894 339.721 196.049 340.367 195.987L341.641 193.423C342.633 191.415 343.133 189.2 343.101 186.961C343.07 184.722 342.506 182.522 341.457 180.544L339.085 176.064Z" fill="#263238"/>
<path d="M417.515 369.423C418.339 366.574 420.107 363.808 422.827 362.635C425.548 361.463 428.956 362.104 431.859 363.166C434.763 364.229 437.621 365.63 440.708 365.823C443.795 366.015 447.266 364.55 448.192 361.6C449.062 358.852 447.395 355.866 445.297 353.851C443.082 351.732 440.37 350.204 437.411 349.405C434.452 348.606 431.34 348.562 428.359 349.278C425.379 349.993 422.626 351.445 420.352 353.5C418.078 355.555 416.356 358.148 415.344 361.041" fill="#305A61"/>
<g opacity="0.5">
<path d="M417.515 369.423C418.339 366.574 420.107 363.808 422.827 362.635C425.548 361.463 428.956 362.104 431.859 363.166C434.763 364.229 437.621 365.63 440.708 365.823C443.795 366.015 447.266 364.55 448.192 361.6C449.062 358.852 447.395 355.866 445.297 353.851C443.082 351.732 440.37 350.204 437.411 349.405C434.452 348.606 431.34 348.562 428.359 349.278C425.379 349.993 422.626 351.445 420.352 353.5C418.078 355.555 416.356 358.148 415.344 361.041" fill="black"/>
</g>
<path d="M393.071 381.816C388.545 377.52 388.774 370.036 391.028 364.21C393.281 358.385 398.209 353.924 403.714 350.983C409.09 348.156 415.037 346.585 421.107 346.388C427.177 346.192 433.213 347.374 438.761 349.848C436.045 349.963 433.4 350.742 431.055 352.117C428.711 353.492 426.74 355.421 425.314 357.734C422.841 361.856 422.282 366.894 420.239 371.2C417.929 376.105 413.827 379.938 408.778 381.913C403.728 383.888 398.114 383.853 393.089 381.816" fill="#305A61"/>
<path d="M390.896 355.985C385.885 350.068 385.226 340.578 385.959 332.856C386.691 325.134 388.487 317.376 387.268 309.718C386.545 305.184 384.786 300.86 384.191 296.299C383.595 291.737 384.438 286.598 387.974 283.658C392.022 280.278 398.416 281.075 402.63 284.253C406.843 287.432 409.298 292.406 411.084 297.37C415.005 308.289 416.443 320.39 413.219 331.528C409.994 342.667 402.437 352.596 391.335 355.985" fill="#305A61"/>
<path d="M388.491 404.514C388.472 404.289 388.472 404.062 388.491 403.836C388.491 403.388 388.491 402.728 388.491 401.876C388.555 400.182 388.72 397.727 389.096 394.713C389.544 391.184 390.186 387.683 391.02 384.225C392.062 379.979 393.674 375.893 395.81 372.079C397.957 368.27 400.586 364.754 403.633 361.618C406.116 359.061 408.864 356.777 411.831 354.803C413.086 353.933 414.295 353.282 415.339 352.669C416.384 352.055 417.336 351.652 418.087 351.276L419.919 350.525C420.121 350.424 420.333 350.345 420.551 350.287C420.358 350.406 420.156 350.51 419.947 350.599L418.179 351.423C417.428 351.817 416.512 352.339 415.431 352.87C414.35 353.402 413.214 354.171 411.978 355.041C405.451 359.5 400.036 365.398 396.149 372.28C391.569 380.341 390.287 388.814 389.371 394.75C388.958 397.754 388.748 400.2 388.629 401.885L388.519 403.836C388.525 404.063 388.516 404.289 388.491 404.514Z" fill="#263238"/>
<path d="M345.28 332.654C336.01 338.251 336.038 343.335 337.586 348.144C339.134 352.953 344.822 356.287 349.494 354.492C352.16 353.475 354.074 351.157 355.741 348.822C357.408 346.486 358.938 344.004 361.237 342.327C363.536 340.651 366.898 340.019 369.225 341.677" fill="#305A61"/>
<g opacity="0.5">
<path d="M345.28 332.654C336.01 338.251 336.038 343.335 337.586 348.144C339.134 352.953 344.822 356.287 349.494 354.492C352.16 353.475 354.074 351.157 355.741 348.822C357.408 346.486 358.938 344.004 361.237 342.327C363.536 340.651 366.898 340.019 369.225 341.677" fill="black"/>
</g>
<path d="M338.336 338.783C340.763 335.44 346.745 334.469 350.528 336.136C354.311 337.803 357.077 341.128 359.56 344.435C362.042 347.742 364.451 351.231 367.886 353.54C371.321 355.848 376.13 356.673 379.538 354.355C380.631 353.542 381.546 352.514 382.228 351.334C382.91 350.154 383.345 348.848 383.504 347.494C383.802 344.79 383.616 342.054 382.954 339.415C382.139 335.531 380.802 331.464 377.687 329C374.225 326.252 369.443 326.115 364.982 326.252C359.908 326.417 354.751 326.793 349.987 328.551C345.224 330.31 340.36 334.121 338.336 338.774" fill="#305A61"/>
<path d="M380.788 397.096C380.776 397.027 380.776 396.955 380.788 396.886V396.29C380.788 395.732 380.788 394.962 380.705 393.991C380.641 391.958 380.559 389.072 380.458 385.527C380.357 381.982 380.201 377.705 379.945 372.987C379.689 368.27 379.331 363.085 378.617 357.69C378.297 355.059 377.764 352.458 377.023 349.913C375.609 345.435 373.441 341.231 370.611 337.483C369.418 335.951 368.108 334.514 366.69 333.187C364.624 331.279 362.288 329.686 359.756 328.46C359.308 328.25 358.904 328.048 358.556 327.902L357.64 327.554L357.082 327.325L356.898 327.242L357.1 327.288L357.668 327.471L358.584 327.792C358.941 327.92 359.344 328.112 359.802 328.314C362.384 329.497 364.769 331.07 366.874 332.976C368.319 334.295 369.652 335.732 370.858 337.272C372.241 339.05 373.467 340.944 374.522 342.933C375.696 345.126 376.665 347.423 377.417 349.794C378.146 352.358 378.667 354.978 378.974 357.626C379.689 363.039 380.027 368.233 380.275 372.96C380.522 377.686 380.623 381.937 380.696 385.509C380.769 389.081 380.797 391.976 380.806 393.973C380.806 394.953 380.806 395.722 380.806 396.281C380.806 396.519 380.806 396.721 380.806 396.876C380.806 397.032 380.788 397.096 380.788 397.096Z" fill="#263238"/>
<path d="M384.126 401.281C383.683 399.982 383.343 398.649 383.109 397.296C382.467 393.604 382.325 389.842 382.688 386.112C383.254 380.59 384.437 375.148 386.215 369.89C388.12 363.917 390.703 357.542 392.911 350.654C393.996 347.322 394.886 343.93 395.576 340.495C396.186 337.29 396.623 334.055 396.886 330.804C397.311 325.288 397.409 319.752 397.179 314.224C397.023 309.507 396.767 305.687 396.611 303.049C396.538 301.748 396.474 300.732 396.437 300.008C396.437 299.678 396.437 299.422 396.437 299.22C396.425 299.129 396.425 299.037 396.437 298.945C396.447 299.034 396.447 299.123 396.437 299.211C396.437 299.412 396.437 299.678 396.52 300.008C396.584 300.722 396.666 301.739 396.776 303.04C396.978 305.669 397.28 309.452 397.472 314.215C397.741 319.753 397.674 325.302 397.271 330.831C397.011 334.098 396.577 337.348 395.97 340.568C395.293 344.04 394.403 347.466 393.304 350.828C391.088 357.707 388.495 364.082 386.581 370.018C384.793 375.25 383.586 380.662 382.981 386.158C382.595 389.864 382.691 393.605 383.265 397.287C383.494 398.588 383.705 399.595 383.888 400.264C383.961 400.585 384.025 400.841 384.071 401.034C384.1 401.113 384.118 401.196 384.126 401.281Z" fill="#263238"/>
<path d="M407.105 405.467H363.577L362.578 397.086H407.105V405.467Z" fill="#455A64"/>
<path d="M368.25 404.516L373.691 429.651H397.342L402.435 404.516H368.25Z" fill="#455A64"/>
<path d="M407.109 405.467C407.109 405.586 397.537 405.651 385.739 405.614C373.941 405.577 364.359 405.467 364.359 405.348C364.359 405.229 373.932 405.165 385.739 405.202C397.546 405.238 407.109 405.357 407.109 405.467Z" fill="#455A64"/>
<path d="M399.629 417.879C398.452 416.987 397.165 416.248 395.801 415.68C394.313 415.101 392.734 414.791 391.138 414.764C389.18 414.766 387.237 415.119 385.404 415.809C383.425 416.487 381.566 417.265 379.761 417.696C378.159 418.036 376.508 418.086 374.888 417.842C373.798 417.683 372.74 417.349 371.756 416.853C371.495 416.708 371.244 416.545 371.004 416.367C370.84 416.248 370.757 416.175 370.766 416.166C370.775 416.157 371.133 416.377 371.829 416.706C372.818 417.136 373.864 417.42 374.934 417.549C376.517 417.753 378.123 417.675 379.679 417.32C381.419 416.89 383.279 416.093 385.276 415.415C387.152 414.71 389.143 414.359 391.147 414.38C392.786 414.433 394.4 414.787 395.911 415.424C396.928 415.844 397.884 416.402 398.75 417.082C398.983 417.262 399.207 417.455 399.419 417.659C399.575 417.787 399.639 417.861 399.629 417.879Z" fill="#263238"/>
<path d="M399.302 419.528C398.167 418.666 396.938 417.938 395.638 417.357C394.211 416.777 392.689 416.467 391.149 416.441C389.255 416.449 387.376 416.787 385.598 417.439C383.684 418.081 381.888 418.823 380.166 419.271C378.644 419.711 377.058 419.887 375.476 419.794C374.408 419.73 373.364 419.45 372.408 418.969C372.152 418.837 371.906 418.683 371.675 418.511C371.519 418.392 371.437 418.319 371.446 418.31C371.455 418.3 371.812 418.52 372.481 418.823C373.434 419.236 374.456 419.466 375.495 419.5C377.044 419.549 378.591 419.345 380.075 418.896C381.751 418.429 383.537 417.678 385.479 417.064C387.301 416.397 389.227 416.062 391.167 416.075C392.747 416.125 394.302 416.479 395.747 417.119C396.73 417.545 397.654 418.096 398.495 418.758C398.789 418.997 398.999 419.189 399.137 419.326C399.274 419.464 399.311 419.528 399.302 419.528Z" fill="white"/>
<path d="M400.066 416.212C398.85 415.287 397.532 414.507 396.137 413.885C394.619 413.235 393.002 412.848 391.355 412.74C389.333 412.701 387.324 413.055 385.438 413.784C383.532 414.533 381.583 415.169 379.603 415.69C377.936 415.975 376.232 415.975 374.565 415.69C373.441 415.513 372.351 415.167 371.331 414.664C371.056 414.524 370.792 414.361 370.544 414.178C370.379 414.05 370.296 413.977 370.305 413.968C370.315 413.958 370.681 414.197 371.405 414.517C372.427 414.966 373.505 415.274 374.611 415.433C376.244 415.675 377.906 415.644 379.529 415.342C381.489 414.803 383.418 414.161 385.309 413.418C387.244 412.668 389.309 412.316 391.383 412.383C394.212 412.613 396.914 413.66 399.159 415.397C399.402 415.585 399.635 415.787 399.856 416.001C400.002 416.12 400.085 416.203 400.066 416.212Z" fill="white"/>
<path d="M407.489 405.504C407.489 405.623 397.697 405.715 385.624 405.715C373.551 405.715 363.75 405.623 363.75 405.504C363.75 405.385 373.542 405.303 385.624 405.303C397.706 405.303 407.489 405.394 407.489 405.504Z" fill="#263238"/>
<path d="M74.847 395.941C76.4133 398.176 79.427 397.434 80.8743 396.069C82.3215 394.704 82.8803 392.735 83.4207 390.848C84.6573 386.534 85.9123 382.009 84.9871 377.621C84.7661 376.292 84.1829 375.049 83.3017 374.03C82.8582 373.531 82.2919 373.155 81.6589 372.942C81.026 372.728 80.3482 372.683 79.6926 372.812C78.1537 373.215 77.2011 374.717 76.5141 376.146C74.4851 380.369 73.4212 384.991 73.3997 389.676C73.2524 391.862 73.7663 394.042 74.8745 395.932" fill="#305A61"/>
<g opacity="0.2">
<path d="M74.847 395.941C76.4133 398.176 79.427 397.434 80.8743 396.069C82.3215 394.704 82.8803 392.735 83.4207 390.848C84.6573 386.534 85.9123 382.009 84.9871 377.621C84.7661 376.292 84.1829 375.049 83.3017 374.03C82.8582 373.531 82.2919 373.155 81.6589 372.942C81.026 372.728 80.3482 372.683 79.6926 372.812C78.1537 373.215 77.2011 374.717 76.5141 376.146C74.4851 380.369 73.4212 384.991 73.3997 389.676C73.2524 391.862 73.7663 394.042 74.8745 395.932" fill="black"/>
</g>
<path d="M80.7174 407.263C83.3419 406.031 86.2929 405.674 89.1354 406.246C90.6868 406.377 92.1502 407.022 93.294 408.078C94.3291 409.232 94.5306 411.248 93.294 412.237C92.5245 412.756 91.5977 412.989 90.6743 412.896C88.4484 412.896 85.9843 412.484 84.2073 413.812C83.1905 414.573 82.5127 415.846 81.3036 416.221C80.6961 416.36 80.06 416.299 79.4904 416.046C78.9207 415.794 78.4482 415.364 78.1434 414.82C77.5715 413.702 77.447 412.408 77.7953 411.202C77.9441 410.364 78.2856 409.572 78.7926 408.888C79.2997 408.205 79.9586 407.648 80.7174 407.263Z" fill="#305A61"/>
<path d="M70.5319 399.148C71.3372 398.098 71.8735 396.868 72.0938 395.563C72.3142 394.259 72.2119 392.92 71.796 391.664C70.9384 389.159 69.4039 386.939 67.3625 385.252C65.0462 383.186 62.3484 381.593 59.4208 380.562C58.2882 380.103 57.069 379.897 55.8484 379.958C55.2377 379.996 54.6455 380.183 54.1235 380.502C53.6014 380.821 53.1653 381.263 52.8531 381.79C52.0195 383.383 52.8531 385.316 53.6866 386.892C55.2196 389.66 56.9685 392.303 58.917 394.797C60.4834 396.812 62.2787 398.8 64.6603 399.716C67.0419 400.632 69.5151 400.522 70.7792 398.864" fill="#305A61"/>
<path d="M74.7418 429.677C74.82 429.343 74.866 429.003 74.8792 428.66C74.9525 427.918 75.0441 426.984 75.154 425.912C75.2887 424.546 75.4967 423.189 75.7769 421.845C76.1374 420.208 76.6306 418.602 77.2516 417.045C77.8517 415.48 78.6722 414.009 79.6882 412.676C80.5156 411.595 81.5732 410.713 82.7843 410.093C83.6059 409.686 84.4872 409.414 85.3949 409.287C85.7375 409.268 86.0778 409.219 86.4116 409.14C86.068 409.097 85.7202 409.097 85.3766 409.14C84.4258 409.209 83.495 409.448 82.6286 409.845C81.3527 410.449 80.2335 411.339 79.3584 412.447C78.2977 413.791 77.4425 415.285 76.8211 416.88C76.1898 418.458 75.6993 420.089 75.3555 421.753C75.0907 423.115 74.9102 424.492 74.8151 425.875C74.7235 427.048 74.6868 428.01 74.6777 428.623C74.6603 428.976 74.6818 429.329 74.7418 429.677Z" fill="#263238"/>
<path d="M74.9413 427.543C74.953 427.384 74.953 427.225 74.9413 427.067C74.9413 426.709 74.9413 426.27 74.9413 425.72C74.9413 424.548 74.9413 422.853 75.0054 420.765C75.1062 416.588 75.4634 410.808 76.1596 404.469C76.8557 398.13 77.79 392.414 78.6419 388.32C78.8343 387.285 79.0358 386.369 79.2282 385.572C79.4205 384.775 79.5671 384.06 79.7136 383.502L80.0251 382.192C80.077 382.041 80.1048 381.884 80.1075 381.725C80.0411 381.866 79.989 382.013 79.9518 382.164C79.8419 382.503 79.7136 382.934 79.5579 383.456C79.4022 383.978 79.2007 384.711 78.9992 385.517C78.7976 386.323 78.5686 387.248 78.3488 388.265C77.1933 393.604 76.3249 399 75.7474 404.432C75.0512 410.789 74.7398 416.578 74.7031 420.774C74.7031 422.862 74.7031 424.566 74.7764 425.729C74.813 426.279 74.8405 426.728 74.8588 427.076C74.866 427.234 74.8937 427.391 74.9413 427.543Z" fill="#263238"/>
<path d="M74.9647 416.377C74.9967 415.907 74.9967 415.436 74.9647 414.966C74.9098 414.05 74.7816 412.75 74.5342 411.147C74.2186 409.272 73.7997 407.415 73.2793 405.586C72.6646 403.341 71.887 401.142 70.9527 399.01C69.3393 395.082 67.0237 391.481 64.1193 388.384C63.6187 387.851 63.0831 387.353 62.5163 386.891C62.269 386.68 62.0491 386.47 61.8293 386.305L61.2064 385.883C60.8316 385.597 60.4333 385.342 60.0156 385.123C61.3853 386.194 62.6856 387.35 63.9086 388.586C66.7056 391.714 68.9457 395.298 70.5313 399.184C71.4545 401.301 72.2378 403.477 72.8763 405.696C73.4808 407.739 73.8839 409.617 74.1953 411.192C74.5067 412.768 74.6533 414.069 74.7541 414.966C74.7875 415.441 74.858 415.913 74.9647 416.377Z" fill="#263238"/>
<path d="M210.029 46.1755C210.185 46.1593 210.341 46.1593 210.497 46.1755H211.871C212.614 46.1894 213.355 46.2599 214.087 46.3862C214.527 46.4595 215.003 46.5053 215.498 46.6061L217.083 46.9999C219.792 47.7119 222.366 48.863 224.704 50.4074C230.341 54.1567 234.329 59.9222 235.849 66.5199C237.368 73.1175 236.304 80.0466 232.874 85.8841C229.939 90.8549 225.472 94.7405 220.142 96.9586C217.335 98.1194 214.346 98.7768 211.312 98.9005C208.19 99.0937 205.059 98.7055 202.078 97.7555L201.804 97.6639H202.014L186.58 103.013L185.957 103.233L186.149 102.592L190.161 89.768L190.225 90.0794C187.481 87.0086 185.492 83.3389 184.416 79.363C183.341 75.3871 183.21 71.215 184.033 67.1794C184.717 63.7883 186.072 60.5681 188.018 57.708C189.677 55.2407 191.743 53.0727 194.128 51.296C196.031 49.8273 198.147 48.6567 200.402 47.8243C201.295 47.4545 202.214 47.1484 203.15 46.9083C203.932 46.6878 204.727 46.5226 205.532 46.4137C206.255 46.3129 206.897 46.203 207.446 46.1572L208.857 46.1114H209.764C209.861 46.0957 209.96 46.0957 210.057 46.1114C209.96 46.1342 209.862 46.1495 209.764 46.1572L208.912 46.2213L207.52 46.3221C206.97 46.3862 206.338 46.5053 205.623 46.6244C204.83 46.7496 204.047 46.9302 203.278 47.1648C202.342 47.4033 201.423 47.7095 200.53 48.0808C199.501 48.4983 198.495 48.9723 197.517 49.5006C196.426 50.1208 195.379 50.8155 194.384 51.5799C192.064 53.3472 190.052 55.4859 188.43 57.9095C186.537 60.7393 185.229 63.9191 184.583 67.2619C183.803 71.2038 183.952 75.2731 185.017 79.1476C186.082 83.0222 188.035 86.5955 190.72 89.5848L190.848 89.7222L190.793 89.8962C189.517 94.0182 188.189 98.2929 186.809 102.72L186.378 102.308L201.795 97.096H201.904H202.014L202.28 97.1784C205.184 98.1008 208.234 98.4797 211.275 98.2959C214.233 98.1759 217.147 97.5404 219.886 96.4181C225.089 94.261 229.456 90.4791 232.334 85.6368C235.687 79.9219 236.742 73.1459 235.284 66.6823C233.826 60.2187 229.965 54.5512 224.484 50.8288C222.191 49.2869 219.668 48.1182 217.009 47.3663L215.452 46.945C214.957 46.8351 214.49 46.7801 214.06 46.6976C213.335 46.5504 212.6 46.4585 211.861 46.4229L210.497 46.3129C210.337 46.2796 210.181 46.2337 210.029 46.1755Z" fill="#305A61"/>
<path d="M194.516 74.3324L198.573 70.2654L206.405 77.227L221.785 62.4336L225.55 66.5006L205.828 85.0588L194.516 74.3324Z" fill="#305A61"/>
</svg>
