<svg width="542" height="258" viewBox="0 0 542 258" fill="none" xmlns="http://www.w3.org/2000/svg">
<rect width="542" height="258" rx="16" fill="#ECF2F3"/>
<g clipPath="url(#clip0_5665_86263)">
<path d="M450 208.799H92V208.978H450V208.799Z" fill="#EBEBEB"/>
<path d="M414.128 220.32H390.414V220.499H414.128V220.32Z" fill="#EBEBEB"/>
<path d="M329.152 222.268H322.93V222.447H329.152V222.268Z" fill="#EBEBEB"/>
<path d="M389.701 213.676H375.961V213.855H389.701V213.676Z" fill="#EBEBEB"/>
<path d="M160.487 214.879H129.562V215.058H160.487V214.879Z" fill="#EBEBEB"/>
<path d="M171.399 214.879H166.867V215.058H171.399V214.879Z" fill="#EBEBEB"/>
<path d="M253.208 217.9H186.133V218.079H253.208V217.9Z" fill="#EBEBEB"/>
<path d="M261.693 176.866H123.441C122.358 176.864 121.319 176.432 120.554 175.666C119.789 174.899 119.359 173.86 119.359 172.777V-21.5666C119.369 -22.6434 119.803 -23.6731 120.567 -24.4319C121.331 -25.1906 122.364 -25.6173 123.441 -25.6191H261.693C262.777 -25.6191 263.817 -25.1884 264.584 -24.4217C265.351 -23.655 265.781 -22.6151 265.781 -21.5308V172.777C265.781 173.862 265.351 174.901 264.584 175.668C263.817 176.435 262.777 176.866 261.693 176.866ZM123.441 -25.4759C122.405 -25.474 121.412 -25.0613 120.681 -24.3284C119.949 -23.5954 119.538 -22.6022 119.538 -21.5666V172.777C119.538 173.813 119.949 174.806 120.681 175.539C121.412 176.272 122.405 176.685 123.441 176.687H261.693C262.729 176.685 263.723 176.272 264.455 175.54C265.188 174.807 265.6 173.814 265.602 172.777V-21.5666C265.6 -22.6028 265.188 -23.5961 264.455 -24.3288C263.723 -25.0616 262.729 -25.474 261.693 -25.4759H123.441Z" fill="#EBEBEB"/>
<path d="M416.567 176.866H278.307C277.223 176.864 276.185 176.432 275.418 175.666C274.652 174.9 274.221 173.861 274.219 172.777V-21.5666C274.23 -22.6441 274.666 -23.6737 275.431 -24.4323C276.196 -25.1909 277.23 -25.6173 278.307 -25.6191H416.567C417.642 -25.6154 418.673 -25.1879 419.436 -24.4293C420.198 -23.6708 420.631 -22.6422 420.641 -21.5666V172.777C420.641 173.859 420.212 174.897 419.448 175.663C418.685 176.429 417.649 176.862 416.567 176.866ZM278.307 -25.4759C277.271 -25.474 276.278 -25.0616 275.545 -24.3288C274.812 -23.5961 274.4 -22.6028 274.398 -21.5666V172.777C274.4 173.814 274.812 174.807 275.545 175.54C276.278 176.272 277.271 176.685 278.307 176.687H416.567C417.603 176.685 418.596 176.272 419.329 175.54C420.062 174.807 420.474 173.814 420.476 172.777V-21.5666C420.474 -22.6028 420.062 -23.5961 419.329 -24.3288C418.596 -25.0616 417.603 -25.474 416.567 -25.4759H278.307Z" fill="#EBEBEB"/>
<path d="M251.45 66.5508H139.367V208.476H251.45V66.5508Z" fill="#F0F0F0"/>
<path d="M247.477 71.7285H143.32V102.08H247.477V71.7285Z" fill="#E0E0E0"/>
<path d="M149.234 76.6406H143.32V102.073H149.234V76.6406Z" fill="#EBEBEB"/>
<path d="M177.852 76.6406H171.938V102.073H177.852V76.6406Z" fill="#EBEBEB"/>
<path d="M210.328 75.9934L204.5 76.998L208.82 102.061L214.648 101.056L210.328 75.9934Z" fill="#EBEBEB"/>
<path d="M156.57 79.9902H150.656V102.072H156.57V79.9902Z" fill="#EBEBEB"/>
<path d="M170.164 79.9902H164.25V102.072H170.164V79.9902Z" fill="#EBEBEB"/>
<path d="M204.492 79.9902H198.578V102.072H204.492V79.9902Z" fill="#EBEBEB"/>
<path d="M185.617 79.2306L179.844 80.5137L184.634 102.069L190.408 100.786L185.617 79.2306Z" fill="#EBEBEB"/>
<path d="M161.691 75.373H158.734V102.073H161.691V75.373Z" fill="#EBEBEB"/>
<path d="M196.879 75.373H193.922V102.073H196.879V75.373Z" fill="#EBEBEB"/>
<path d="M143.32 137.229H247.477V106.877L143.32 106.877V137.229Z" fill="#E0E0E0"/>
<path d="M241.562 137.229H247.477V111.796H241.562V137.229Z" fill="#EBEBEB"/>
<path d="M212.953 137.229H218.867V111.796H212.953V137.229Z" fill="#EBEBEB"/>
<path d="M176.156 136.226L181.984 137.23L186.304 112.168L180.476 111.163L176.156 136.226Z" fill="#EBEBEB"/>
<path d="M234.226 137.229H240.141V115.147H234.226V137.229Z" fill="#EBEBEB"/>
<path d="M220.633 137.229H226.547V115.147H220.633V137.229Z" fill="#EBEBEB"/>
<path d="M186.305 137.229H192.219V115.147H186.305V137.229Z" fill="#EBEBEB"/>
<path d="M200.399 135.94L206.172 137.223L210.962 115.667L205.189 114.384L200.399 135.94Z" fill="#EBEBEB"/>
<path d="M229.113 137.229H232.07V110.529H229.113V137.229Z" fill="#EBEBEB"/>
<path d="M193.926 137.229H196.883V110.529H193.926V137.229Z" fill="#EBEBEB"/>
<path d="M149.234 111.795H143.32V137.227H149.234V111.795Z" fill="#EBEBEB"/>
<path d="M156.57 115.146H150.656V137.228H156.57V115.146Z" fill="#EBEBEB"/>
<path d="M170.164 115.146H164.25V137.228H170.164V115.146Z" fill="#EBEBEB"/>
<path d="M161.691 110.527H158.734V137.227H161.691V110.527Z" fill="#EBEBEB"/>
<path d="M247.477 142.033H143.32V172.384H247.477V142.033Z" fill="#E0E0E0"/>
<path d="M209.016 146.943H203.102V172.376H209.016V146.943Z" fill="#EBEBEB"/>
<path d="M241.5 146.304L235.672 147.309L239.992 172.371L245.82 171.367L241.5 146.304Z" fill="#EBEBEB"/>
<path d="M187.734 150.303H181.82V172.384H187.734V150.303Z" fill="#EBEBEB"/>
<path d="M201.344 150.303H195.43V172.384H201.344V150.303Z" fill="#EBEBEB"/>
<path d="M235.664 150.303H229.75V172.384H235.664V150.303Z" fill="#EBEBEB"/>
<path d="M216.797 149.537L211.023 150.82L215.814 172.376L221.587 171.093L216.797 149.537Z" fill="#EBEBEB"/>
<path d="M192.856 145.684H189.898V172.383H192.856V145.684Z" fill="#EBEBEB"/>
<path d="M228.051 145.684H225.094V172.383H228.051V145.684Z" fill="#EBEBEB"/>
<path d="M173.43 146.31L167.602 147.314L171.922 172.377L177.75 171.373L173.43 146.31Z" fill="#EBEBEB"/>
<path d="M167.594 150.303H161.68V172.384H167.594V150.303Z" fill="#EBEBEB"/>
<path d="M148.726 149.541L142.953 150.824L147.744 172.38L153.517 171.097L148.726 149.541Z" fill="#EBEBEB"/>
<path d="M159.981 145.684H157.023V172.383H159.981V145.684Z" fill="#EBEBEB"/>
<path d="M310.583 123.76H373.749C375.381 123.76 376.996 124.082 378.503 124.707C380.01 125.333 381.379 126.249 382.531 127.405C383.683 128.56 384.595 129.931 385.216 131.44C385.838 132.949 386.155 134.565 386.15 136.197V185.515H298.211V136.197C298.203 132.907 299.502 129.749 301.822 127.417C304.143 125.085 307.294 123.769 310.583 123.76Z" fill="#E6E6E6"/>
<path d="M279.508 160.318H290.806C291.778 160.315 292.74 160.503 293.639 160.872C294.537 161.242 295.354 161.785 296.042 162.471C296.73 163.157 297.276 163.972 297.647 164.869C298.019 165.767 298.21 166.729 298.21 167.7V208.512H272.133V167.7C272.132 166.731 272.322 165.772 272.692 164.876C273.062 163.98 273.605 163.167 274.29 162.481C274.975 161.795 275.789 161.252 276.684 160.88C277.579 160.509 278.539 160.318 279.508 160.318Z" fill="#E0E0E0"/>
<path d="M279.508 160.318H279.744C280.713 160.318 281.673 160.509 282.568 160.88C283.463 161.251 284.276 161.795 284.961 162.481C285.646 163.166 286.189 163.98 286.559 164.876C286.93 165.771 287.12 166.731 287.119 167.7V208.512H272.133V167.7C272.132 166.731 272.322 165.771 272.692 164.876C273.062 163.98 273.605 163.166 274.29 162.481C274.975 161.795 275.789 161.251 276.684 160.88C277.579 160.509 278.539 160.318 279.508 160.318Z" fill="#EBEBEB"/>
<path d="M376.945 189.74H290.266V208.478H376.945V189.74Z" fill="#E6E6E6"/>
<path d="M373.738 172.605H290.145C286.005 172.605 282.648 175.962 282.648 180.102V184.763C282.648 188.903 286.005 192.26 290.145 192.26H373.738C377.878 192.26 381.234 188.903 381.234 184.763V180.102C381.234 175.962 377.878 172.605 373.738 172.605Z" fill="#F5F5F5"/>
<path d="M373.599 172.605H363.239C359.098 172.605 355.742 175.962 355.742 180.102V184.763C355.742 188.903 359.098 192.26 363.239 192.26H373.599C377.739 192.26 381.096 188.903 381.096 184.763V180.102C381.096 175.962 377.739 172.605 373.599 172.605Z" fill="#E0E0E0"/>
<path d="M374.719 160.318H386.025C386.994 160.318 387.953 160.509 388.848 160.881C389.742 161.252 390.555 161.796 391.24 162.481C391.924 163.167 392.466 163.981 392.836 164.876C393.205 165.772 393.394 166.732 393.392 167.7V208.512H367.352V167.7C367.35 166.732 367.539 165.772 367.908 164.876C368.278 163.981 368.82 163.167 369.504 162.481C370.189 161.796 371.002 161.252 371.896 160.881C372.791 160.509 373.75 160.318 374.719 160.318Z" fill="#E0E0E0"/>
<path d="M374.719 160.318H374.963C375.931 160.318 376.891 160.509 377.785 160.881C378.68 161.252 379.493 161.796 380.177 162.481C380.862 163.167 381.404 163.981 381.774 164.876C382.143 165.772 382.332 166.732 382.33 167.7V208.512H367.352V167.7C367.35 166.732 367.539 165.772 367.908 164.876C368.278 163.981 368.82 163.167 369.504 162.481C370.189 161.796 371.002 161.252 371.896 160.881C372.791 160.509 373.75 160.318 374.719 160.318Z" fill="#F0F0F0"/>
<path d="M199.586 49.2991C208.779 47.807 215.021 39.1457 213.529 29.9535C212.037 20.7613 203.375 14.5191 194.183 16.0112C184.991 17.5033 178.749 26.1646 180.241 35.3568C181.733 44.549 190.394 50.7912 199.586 49.2991Z" fill="#E0E0E0"/>
<path d="M199.182 46.8114C207 45.5423 212.309 38.1756 211.04 30.3573C209.771 22.5391 202.404 17.2299 194.586 18.499C186.768 19.7681 181.458 27.1348 182.728 34.9531C183.997 42.7713 191.363 48.0805 199.182 46.8114Z" fill="#F0F0F0"/>
<path d="M196.2 42.5006V32.4766L189.562 36.2356" fill="#F0F0F0"/>
<path d="M196.197 43.2165C196.007 43.2165 195.825 43.1411 195.691 43.0068C195.557 42.8725 195.481 42.6904 195.481 42.5005V33.7009L189.911 36.8584C189.746 36.9512 189.55 36.9746 189.368 36.9236C189.185 36.8726 189.03 36.7513 188.937 36.5863C188.844 36.4219 188.819 36.2273 188.869 36.0448C188.918 35.8624 189.038 35.707 189.202 35.6126L195.847 31.8536C195.955 31.7924 196.078 31.7607 196.203 31.7617C196.328 31.7628 196.451 31.7964 196.558 31.8594C196.666 31.9224 196.756 32.0125 196.818 32.1207C196.88 32.229 196.913 32.3516 196.913 32.4765V42.5005C196.913 42.6904 196.838 42.8725 196.704 43.0068C196.569 43.1411 196.387 43.2165 196.197 43.2165Z" fill="#E0E0E0"/>
<path d="M398.882 11.3828H290.945V107.162H398.882V11.3828Z" fill="#E6E6E6"/>
<path d="M396.044 14.0117H293.648V104.593H396.044V14.0117Z" fill="#F0F0F0"/>
<path d="M317.677 14.0117L293.648 104.392V61.9264L306.336 14.0117H317.677Z" fill="white"/>
<path d="M326.188 14.0117L301.945 104.593H298.078L322.322 14.0117H326.188Z" fill="white"/>
<path d="M396.044 71.1699V85.6403L391.14 104.593H387.273L396.044 71.1699Z" fill="white"/>
<path d="M329.358 12.3867H327.633V106.619H329.358V12.3867Z" fill="#E6E6E6"/>
<path d="M362.788 12.3867H361.062V106.619H362.788V12.3867Z" fill="#E6E6E6"/>
<path d="M270.997 241.132C347.668 241.132 409.822 237.503 409.822 233.027C409.822 228.551 347.668 224.922 270.997 224.922C194.326 224.922 132.172 228.551 132.172 233.027C132.172 237.503 194.326 241.132 270.997 241.132Z" fill="#F5F5F5"/>
<path d="M379.758 215.121C379.758 215.121 383.159 207.703 379.271 200.385C375.383 193.068 374.259 191.349 376.736 189.846C379.214 188.342 380.352 195.703 380.352 195.703C381.577 192.379 381.703 188.75 380.71 185.349C378.992 180.058 377.911 171.437 380.259 170.514C382.607 169.59 380.71 181.254 382.758 185.249C383.796 182.452 384.468 179.533 384.755 176.564C385.035 172.311 384.598 165.523 386.452 163.783C388.307 162.043 389.503 163.246 387.677 172.626C386.579 178.233 385.973 183.925 385.865 189.638C385.865 189.638 389.896 177.33 392.61 176.972C395.324 176.614 395.316 180.595 392.997 184.053C390.677 187.512 386.202 193.705 385.471 196.891C385.471 196.891 389.904 187.626 393.884 190.447C397.865 193.268 390.419 198.874 387.097 200.901C383.775 202.927 381.469 215.586 381.469 215.586L379.758 215.121Z" fill="#073B3A"/>
<path opacity="0.2" d="M379.758 215.121C379.758 215.121 383.159 207.703 379.271 200.385C375.383 193.068 374.259 191.349 376.736 189.846C379.214 188.342 380.352 195.703 380.352 195.703C381.577 192.379 381.703 188.75 380.71 185.349C378.992 180.058 377.911 171.437 380.259 170.514C382.607 169.59 380.71 181.254 382.758 185.249C383.796 182.452 384.468 179.533 384.755 176.564C385.035 172.311 384.598 165.523 386.452 163.783C388.307 162.043 389.503 163.246 387.677 172.626C386.579 178.233 385.973 183.925 385.865 189.638C385.865 189.638 389.896 177.33 392.61 176.972C395.324 176.614 395.316 180.595 392.997 184.053C390.677 187.512 386.202 193.705 385.471 196.891C385.471 196.891 389.904 187.626 393.884 190.447C397.865 193.268 390.419 198.874 387.097 200.901C383.775 202.927 381.469 215.586 381.469 215.586L379.758 215.121Z" fill="black"/>
<path d="M382.44 218.163C382.44 218.163 379.125 210.695 383.098 203.435C387.072 196.175 388.218 194.471 385.762 192.939C383.306 191.406 382.075 198.738 382.075 198.738C380.888 195.402 380.805 191.772 381.838 188.385C383.621 183.115 384.81 174.509 382.468 173.549C380.127 172.59 381.888 184.289 379.798 188.249C378.792 185.438 378.154 182.509 377.9 179.535C377.671 175.282 378.194 168.501 376.354 166.733C374.514 164.964 373.311 166.153 375.029 175.561C376.058 181.179 376.595 186.876 376.633 192.588C376.633 192.588 372.745 180.222 370.046 179.829C367.346 179.435 367.296 183.409 369.573 186.903C371.85 190.397 376.246 196.655 376.962 199.848C376.962 199.848 372.666 190.54 368.628 193.304C364.59 196.067 371.993 201.781 375.287 203.858C378.581 205.934 380.743 218.629 380.743 218.629L382.44 218.163Z" fill="#073B3A"/>
<path d="M367.164 212.836H394.522L392.31 232.419H369.376L367.164 212.836Z" fill="#263238"/>
<path d="M265.703 229.276V231.846C265.703 231.922 265.688 231.998 265.659 232.068C265.63 232.138 265.587 232.202 265.534 232.256C265.48 232.31 265.416 232.353 265.345 232.382C265.275 232.411 265.2 232.426 265.123 232.426H192.507C191.887 232.426 191.277 232.274 190.73 231.984C190.183 231.694 189.716 231.273 189.369 230.76C189.022 230.247 188.806 229.657 188.74 229.041C188.674 228.425 188.761 227.803 188.991 227.228L212.003 170.234L249.192 170.485L247.925 177.881L239.72 225.746C239.658 226.109 239.677 226.481 239.774 226.836C239.871 227.19 240.044 227.52 240.281 227.802C240.518 228.083 240.813 228.309 241.147 228.465C241.48 228.621 241.843 228.702 242.211 228.703H265.123C265.199 228.702 265.275 228.716 265.345 228.744C265.415 228.773 265.479 228.815 265.533 228.868C265.587 228.921 265.63 228.985 265.659 229.055C265.688 229.125 265.703 229.2 265.703 229.276Z" fill="#263238"/>
<path opacity="0.5" d="M265.703 229.276V231.846C265.703 231.922 265.688 231.998 265.659 232.068C265.63 232.138 265.587 232.202 265.534 232.256C265.48 232.31 265.416 232.353 265.345 232.382C265.275 232.411 265.2 232.426 265.123 232.426H192.507C191.887 232.426 191.277 232.274 190.73 231.984C190.183 231.694 189.716 231.273 189.369 230.76C189.022 230.247 188.806 229.657 188.74 229.041C188.674 228.425 188.761 227.803 188.991 227.228L203.261 191.893L212.003 170.234L249.192 170.485L247.925 177.881L244.345 198.695L239.713 225.746C239.651 226.109 239.67 226.481 239.767 226.836C239.863 227.19 240.036 227.52 240.274 227.802C240.511 228.083 240.806 228.309 241.14 228.465C241.473 228.621 241.836 228.702 242.204 228.703H265.116C265.193 228.701 265.269 228.714 265.34 228.742C265.411 228.77 265.476 228.812 265.531 228.866C265.585 228.919 265.629 228.983 265.658 229.053C265.688 229.124 265.703 229.199 265.703 229.276Z" fill="white"/>
<path opacity="0.2" d="M242.217 228.697H194.961C194.689 228.696 194.421 228.628 194.181 228.5C193.941 228.371 193.736 228.185 193.585 227.959C193.434 227.733 193.34 227.473 193.313 227.202C193.286 226.931 193.326 226.657 193.429 226.405L213.606 177.875H247.924L239.718 225.74C239.657 226.103 239.675 226.475 239.773 226.831C239.87 227.186 240.044 227.516 240.281 227.798C240.519 228.08 240.816 228.306 241.15 228.461C241.484 228.616 241.848 228.697 242.217 228.697Z" fill="black"/>
<path opacity="0.1" d="M249.197 170.479L247.93 177.875L244.357 198.69L203.266 191.895L212.008 170.229L249.197 170.479Z" fill="black"/>
<path d="M321.503 64.2383H149.341C148.763 64.2383 148.19 64.3522 147.656 64.5735C147.122 64.7948 146.636 65.1191 146.227 65.528C145.818 65.9369 145.494 66.4223 145.273 66.9566C145.051 67.4908 144.938 68.0634 144.938 68.6417V185.199C144.938 186.367 145.401 187.487 146.227 188.313C147.053 189.139 148.173 189.603 149.341 189.603H321.503C322.672 189.603 323.792 189.139 324.619 188.313C325.446 187.488 325.912 186.368 325.914 185.199V68.6417C325.912 67.4732 325.446 66.3532 324.619 65.5276C323.792 64.702 322.672 64.2383 321.503 64.2383Z" fill="#263238"/>
<path opacity="0.6" d="M321.503 64.2383H149.341C148.763 64.2383 148.19 64.3522 147.656 64.5735C147.122 64.7948 146.636 65.1191 146.227 65.528C145.818 65.9369 145.494 66.4223 145.273 66.9566C145.051 67.4908 144.938 68.0634 144.938 68.6417V185.199C144.938 186.367 145.401 187.487 146.227 188.313C147.053 189.139 148.173 189.603 149.341 189.603H321.503C322.672 189.603 323.792 189.139 324.619 188.313C325.446 187.488 325.912 186.368 325.914 185.199V68.6417C325.912 67.4732 325.446 66.3532 324.619 65.5276C323.792 64.702 322.672 64.2383 321.503 64.2383Z" fill="white"/>
<path opacity="0.2" d="M152.993 189.596H149.341C148.174 189.596 147.055 189.133 146.23 188.308C145.404 187.484 144.939 186.366 144.938 185.199V68.6489C144.937 68.07 145.05 67.4967 145.271 66.9616C145.492 66.4265 145.816 65.9402 146.225 65.5306C146.634 65.1209 147.119 64.7959 147.654 64.5742C148.189 64.3525 148.762 64.2383 149.341 64.2383H152.993C152.412 64.2355 151.836 64.3475 151.299 64.568C150.762 64.7885 150.274 65.113 149.862 65.523C149.451 65.9329 149.125 66.4201 148.903 66.9566C148.681 67.4931 148.567 68.0682 148.568 68.6489V185.199C148.568 185.779 148.682 186.353 148.905 186.888C149.128 187.424 149.454 187.91 149.865 188.318C150.277 188.727 150.765 189.05 151.301 189.269C151.838 189.488 152.413 189.599 152.993 189.596Z" fill="black"/>
<path d="M321.947 68.0254H152.562V180.416H321.947V68.0254Z" fill="#073B3A"/>
<path opacity="0.4" d="M234.918 110.808C243.04 110.808 249.624 104.223 249.624 96.1012C249.624 87.9789 243.04 81.3945 234.918 81.3945C226.795 81.3945 220.211 87.9789 220.211 96.1012C220.211 104.223 226.795 110.808 234.918 110.808Z" fill="white"/>
<path d="M231.407 93.8655V92.5194C231.407 91.8775 231.662 91.262 232.115 90.8081C232.569 90.3543 233.185 90.0993 233.827 90.0993H235.975C236.295 90.0955 236.613 90.1553 236.91 90.2752C237.207 90.3952 237.477 90.5728 237.704 90.7979C237.932 91.023 238.113 91.2911 238.236 91.5866C238.36 91.8821 238.423 92.1991 238.423 92.5194V93.8941H239.991V92.5194C239.99 91.4622 239.569 90.4489 238.821 89.7014C238.074 88.9539 237.06 88.5331 236.003 88.5312H233.855C232.798 88.5331 231.785 88.9539 231.037 89.7014C230.29 90.4489 229.869 91.4622 229.867 92.5194V93.8941L231.407 93.8655Z" fill="white"/>
<path d="M227.867 95.6769V102.901C227.867 103.007 227.888 103.111 227.928 103.208C227.969 103.306 228.028 103.394 228.102 103.468C228.177 103.543 228.265 103.602 228.362 103.642C228.46 103.683 228.564 103.703 228.669 103.703H241.17C241.276 103.703 241.38 103.683 241.477 103.642C241.575 103.602 241.663 103.543 241.738 103.468C241.812 103.394 241.871 103.306 241.911 103.208C241.952 103.111 241.972 103.007 241.972 102.901V95.6769C241.972 95.4642 241.888 95.2603 241.738 95.1099C241.587 94.9595 241.383 94.875 241.17 94.875H228.669C228.564 94.875 228.46 94.8958 228.362 94.9361C228.265 94.9764 228.177 95.0354 228.102 95.1099C228.028 95.1843 227.969 95.2728 227.928 95.37C227.888 95.4673 227.867 95.5716 227.867 95.6769ZM235.371 99.7653V101.197H234.49V99.7653C234.361 99.6936 234.253 99.5902 234.175 99.4649C234.098 99.3396 234.053 99.1965 234.046 99.0493C234.046 98.8119 234.141 98.5843 234.308 98.4164C234.476 98.2486 234.704 98.1543 234.941 98.1543C235.179 98.1543 235.406 98.2486 235.574 98.4164C235.742 98.5843 235.836 98.8119 235.836 99.0493C235.827 99.1987 235.779 99.3431 235.698 99.4686C235.616 99.5941 235.504 99.6963 235.371 99.7653Z" fill="white"/>
<path d="M199.035 122.986H185.145C184.318 122.986 183.648 123.656 183.648 124.483V138.373C183.648 139.2 184.318 139.87 185.145 139.87H199.035C199.862 139.87 200.532 139.2 200.532 138.373V124.483C200.532 123.656 199.862 122.986 199.035 122.986Z" fill="white"/>
<path d="M220.457 122.965H206.567C205.74 122.965 205.07 123.635 205.07 124.461V138.352C205.07 139.178 205.74 139.848 206.567 139.848H220.457C221.284 139.848 221.954 139.178 221.954 138.352V124.461C221.954 123.635 221.284 122.965 220.457 122.965Z" fill="white"/>
<path d="M241.863 122.943H227.973C227.147 122.943 226.477 123.613 226.477 124.44V138.33C226.477 139.157 227.147 139.827 227.973 139.827H241.863C242.69 139.827 243.36 139.157 243.36 138.33V124.44C243.36 123.613 242.69 122.943 241.863 122.943Z" fill="white"/>
<path d="M263.27 122.914H249.379C248.553 122.914 247.883 123.584 247.883 124.41V138.301C247.883 139.127 248.553 139.797 249.379 139.797H263.27C264.096 139.797 264.766 139.127 264.766 138.301V124.41C264.766 123.584 264.096 122.914 263.27 122.914Z" fill="white"/>
<path d="M284.676 122.893H270.785C269.959 122.893 269.289 123.563 269.289 124.389V138.279C269.289 139.106 269.959 139.776 270.785 139.776H284.676C285.502 139.776 286.172 139.106 286.172 138.279V124.389C286.172 123.563 285.502 122.893 284.676 122.893Z" fill="white"/>
<path d="M274.016 131.663C274.016 128.692 275.605 127.002 277.739 127.002C279.873 127.002 281.455 128.692 281.455 131.663C281.455 134.635 279.865 136.324 277.739 136.324C275.612 136.324 274.016 134.635 274.016 131.663ZM280.152 131.663C280.152 129.329 279.157 128.162 277.739 128.162C276.321 128.162 275.319 129.329 275.319 131.663C275.319 133.997 276.307 135.164 277.739 135.164C279.171 135.164 280.152 133.99 280.152 131.663Z" fill="#263238"/>
<path d="M195.488 131.55C195.488 134.657 193.727 136.326 191.192 136.326C190.401 136.354 189.617 136.168 188.922 135.789L189.381 134.765C189.912 135.072 190.521 135.221 191.135 135.194C192.982 135.194 194.156 134.034 194.156 131.75V131.428C193.851 131.828 193.451 132.146 192.992 132.353C192.534 132.561 192.031 132.651 191.529 132.617C189.717 132.617 188.414 131.536 188.414 129.86C188.414 128.185 189.846 126.996 191.629 126.996C194.106 127.003 195.488 128.643 195.488 131.55ZM193.884 129.817C193.884 128.879 193.168 128.056 191.736 128.056C191.486 128.025 191.231 128.049 190.99 128.123C190.749 128.198 190.527 128.323 190.337 128.49C190.148 128.658 189.996 128.863 189.892 129.093C189.787 129.322 189.733 129.572 189.732 129.824C189.732 130.898 190.526 131.586 191.808 131.586C193.09 131.586 193.884 130.82 193.884 129.817Z" fill="#263238"/>
<path d="M209.789 131.663C209.789 128.692 211.379 127.002 213.512 127.002C215.646 127.002 217.228 128.692 217.228 131.663C217.228 134.635 215.639 136.324 213.512 136.324C211.386 136.324 209.789 134.635 209.789 131.663ZM215.925 131.663C215.925 129.329 214.937 128.162 213.512 128.162C212.087 128.162 211.092 129.329 211.092 131.663C211.092 133.997 212.08 135.164 213.512 135.164C214.944 135.164 215.925 133.997 215.925 131.663Z" fill="#263238"/>
<path d="M238.211 135.087V136.197H231.66V135.338L235.369 131.758C236.336 130.82 236.515 130.247 236.515 129.674C236.515 128.736 235.856 128.163 234.574 128.163C234.137 128.139 233.699 128.215 233.296 128.387C232.892 128.558 232.534 128.82 232.247 129.151L231.359 128.385C231.778 127.922 232.295 127.557 232.872 127.318C233.449 127.079 234.072 126.972 234.696 127.003C236.593 127.003 237.818 127.977 237.818 129.538C237.818 130.426 237.56 131.221 236.321 132.402L233.536 135.08L238.211 135.087Z" fill="#263238"/>
<path d="M257.398 127.104V136.197H256.109V128.242H254.047V127.104H257.398Z" fill="#263238"/>
<g opacity="0.6">
<path d="M218.899 118.861V119.184H216.414V115.668H218.82V115.99H216.786V117.243H218.598V117.58H216.786V118.883L218.899 118.861Z" fill="white"/>
<path d="M222.123 117.651V119.183H221.765V117.687C221.786 117.576 221.78 117.461 221.749 117.352C221.717 117.244 221.66 117.144 221.583 117.062C221.505 116.979 221.409 116.916 221.303 116.878C221.196 116.84 221.082 116.828 220.97 116.842C220.844 116.833 220.717 116.852 220.599 116.897C220.481 116.942 220.374 117.012 220.286 117.103C220.198 117.194 220.131 117.303 220.09 117.422C220.048 117.542 220.033 117.669 220.046 117.794V119.183H219.695V116.541H220.032V117.028C220.139 116.863 220.289 116.73 220.465 116.642C220.641 116.554 220.838 116.514 221.034 116.527C221.183 116.514 221.334 116.535 221.474 116.588C221.614 116.64 221.741 116.723 221.845 116.831C221.949 116.938 222.028 117.068 222.076 117.21C222.124 117.352 222.14 117.502 222.123 117.651Z" fill="white"/>
<path d="M224.461 119.012C224.303 119.139 224.105 119.205 223.902 119.198C223.799 119.206 223.695 119.193 223.598 119.157C223.501 119.122 223.412 119.066 223.339 118.993C223.265 118.92 223.209 118.832 223.172 118.735C223.136 118.639 223.121 118.535 223.129 118.432V116.864H222.656V116.563H223.129V115.99H223.487V116.563H224.289V116.864H223.487V118.439C223.487 118.754 223.644 118.919 223.938 118.919C224.08 118.923 224.22 118.877 224.332 118.79L224.461 119.012Z" fill="white"/>
<path d="M227.323 117.974H225.118C225.134 118.233 225.253 118.475 225.448 118.647C225.642 118.818 225.897 118.906 226.156 118.89C226.308 118.895 226.459 118.867 226.598 118.808C226.738 118.748 226.863 118.659 226.965 118.547L227.166 118.776C226.97 118.959 226.727 119.084 226.465 119.136C226.202 119.189 225.93 119.166 225.679 119.071C225.429 118.977 225.21 118.813 225.047 118.6C224.885 118.388 224.785 118.133 224.76 117.866C224.75 117.692 224.776 117.518 224.837 117.354C224.897 117.191 224.991 117.041 225.112 116.916C225.233 116.79 225.379 116.691 225.54 116.624C225.701 116.557 225.874 116.524 226.049 116.528C226.222 116.524 226.395 116.557 226.556 116.624C226.716 116.691 226.861 116.791 226.981 116.916C227.101 117.042 227.193 117.192 227.252 117.355C227.311 117.519 227.335 117.693 227.323 117.866C227.323 117.866 227.323 117.931 227.323 117.974ZM225.118 117.709H226.987C226.966 117.475 226.859 117.258 226.686 117.099C226.513 116.941 226.287 116.853 226.052 116.853C225.818 116.853 225.592 116.941 225.419 117.099C225.246 117.258 225.138 117.475 225.118 117.709Z" fill="white"/>
<path d="M229.378 116.526V116.863H229.292C229.166 116.856 229.04 116.878 228.924 116.926C228.807 116.973 228.703 117.047 228.618 117.14C228.533 117.233 228.47 117.344 228.433 117.464C228.396 117.585 228.386 117.712 228.404 117.837V119.183H228.039V116.541H228.383V117.056C228.475 116.877 228.619 116.73 228.797 116.635C228.975 116.541 229.178 116.503 229.378 116.526Z" fill="white"/>
<path d="M233.593 116.541L232.276 119.498C232.054 120.014 231.775 120.178 231.395 120.178C231.278 120.183 231.161 120.163 231.052 120.121C230.942 120.08 230.842 120.016 230.758 119.935L230.923 119.67C230.984 119.736 231.058 119.787 231.141 119.822C231.223 119.857 231.313 119.873 231.402 119.87C231.638 119.87 231.796 119.763 231.946 119.434L232.061 119.176L230.908 116.541H231.281L232.269 118.782L233.264 116.541H233.593Z" fill="white"/>
<path d="M233.766 117.867C233.765 117.6 233.843 117.339 233.99 117.117C234.137 116.895 234.347 116.721 234.592 116.618C234.838 116.515 235.109 116.488 235.371 116.539C235.632 116.59 235.873 116.717 236.062 116.905C236.251 117.093 236.38 117.333 236.432 117.595C236.485 117.856 236.458 118.127 236.357 118.373C236.255 118.62 236.083 118.83 235.861 118.978C235.64 119.127 235.379 119.206 235.112 119.206C234.934 119.213 234.757 119.183 234.591 119.118C234.425 119.054 234.274 118.955 234.148 118.83C234.021 118.704 233.922 118.554 233.857 118.388C233.791 118.222 233.76 118.045 233.766 117.867ZM236.086 117.867C236.078 117.675 236.013 117.489 235.9 117.333C235.787 117.178 235.63 117.059 235.45 116.991C235.27 116.924 235.074 116.911 234.886 116.954C234.699 116.997 234.528 117.094 234.395 117.234C234.263 117.373 234.174 117.549 234.14 117.738C234.107 117.928 234.13 118.123 234.206 118.299C234.282 118.476 234.409 118.626 234.57 118.731C234.731 118.837 234.92 118.892 235.112 118.891C235.243 118.89 235.373 118.863 235.493 118.81C235.613 118.757 235.721 118.681 235.81 118.585C235.899 118.489 235.968 118.376 236.012 118.252C236.055 118.129 236.074 117.998 236.065 117.867H236.086Z" fill="white"/>
<path d="M239.531 116.541V119.183H239.194V118.696C239.096 118.859 238.956 118.992 238.788 119.082C238.62 119.171 238.432 119.214 238.242 119.205C238.091 119.22 237.938 119.2 237.795 119.148C237.652 119.097 237.522 119.013 237.416 118.905C237.309 118.796 237.229 118.665 237.18 118.521C237.13 118.377 237.114 118.224 237.132 118.073V116.541H237.483V118.037C237.462 118.149 237.467 118.263 237.499 118.372C237.53 118.481 237.587 118.58 237.665 118.663C237.742 118.745 237.838 118.808 237.945 118.846C238.051 118.884 238.165 118.897 238.278 118.882C238.402 118.89 238.527 118.869 238.642 118.823C238.758 118.777 238.862 118.706 238.948 118.615C239.033 118.524 239.097 118.416 239.136 118.298C239.175 118.179 239.188 118.054 239.173 117.93V116.541H239.531Z" fill="white"/>
<path d="M241.863 116.528V116.864H241.777C241.651 116.857 241.525 116.879 241.409 116.927C241.292 116.975 241.188 117.048 241.103 117.141C241.018 117.234 240.955 117.345 240.918 117.465C240.881 117.586 240.871 117.713 240.889 117.838V119.184H240.531V116.542H240.875V117.057C240.967 116.879 241.11 116.733 241.287 116.639C241.463 116.544 241.664 116.505 241.863 116.528Z" fill="white"/>
<path d="M243.618 117.429C243.605 117.061 243.703 116.698 243.898 116.386C244.093 116.074 244.377 115.827 244.713 115.677C245.049 115.528 245.422 115.482 245.785 115.546C246.147 115.609 246.482 115.78 246.747 116.036C247.012 116.291 247.195 116.62 247.271 116.98C247.348 117.34 247.315 117.715 247.178 118.056C247.04 118.397 246.803 118.69 246.498 118.896C246.193 119.102 245.834 119.212 245.466 119.212C245.226 119.222 244.987 119.183 244.762 119.097C244.538 119.012 244.334 118.882 244.161 118.716C243.988 118.549 243.851 118.349 243.758 118.128C243.665 117.907 243.617 117.669 243.618 117.429ZM246.933 117.429C246.942 117.134 246.862 116.843 246.703 116.594C246.544 116.345 246.314 116.149 246.043 116.033C245.772 115.916 245.472 115.883 245.182 115.938C244.892 115.994 244.625 116.135 244.416 116.344C244.207 116.553 244.066 116.82 244.01 117.11C243.955 117.4 243.988 117.7 244.105 117.971C244.222 118.242 244.417 118.472 244.666 118.631C244.915 118.789 245.206 118.87 245.501 118.861C245.881 118.861 246.245 118.71 246.514 118.442C246.783 118.173 246.933 117.809 246.933 117.429Z" fill="white"/>
<path d="M248.763 115.99H247.531V115.668H250.395V115.99H249.157V119.184H248.784L248.763 115.99Z" fill="white"/>
<path d="M253.71 116.864C253.71 117.58 253.166 118.06 252.278 118.06H251.34V119.17H250.953V115.654H252.263C253.166 115.669 253.71 116.148 253.71 116.864ZM253.337 116.864C253.337 116.299 252.965 115.976 252.263 115.976H251.333V117.731H252.263C252.965 117.745 253.337 117.43 253.337 116.864Z" fill="white"/>
</g>
<g opacity="0.6">
<path d="M220.992 149.006L221.135 148.727C221.457 149.006 221.87 149.156 222.295 149.149C222.947 149.149 223.233 148.877 223.233 148.526C223.233 147.567 221.085 148.154 221.085 146.858C221.085 146.343 221.486 145.899 222.374 145.899C222.759 145.893 223.137 146 223.462 146.207L223.341 146.5C223.052 146.316 222.717 146.217 222.374 146.214C221.737 146.214 221.45 146.5 221.45 146.851C221.45 147.81 223.598 147.23 223.598 148.505C223.598 149.028 223.19 149.464 222.295 149.464C221.819 149.482 221.353 149.318 220.992 149.006Z" fill="white"/>
<path d="M226.612 148.226H224.407C224.423 148.485 224.542 148.727 224.736 148.899C224.931 149.071 225.186 149.158 225.445 149.142C225.596 149.147 225.747 149.119 225.887 149.06C226.027 149 226.152 148.911 226.254 148.799L226.454 149.028C226.328 149.172 226.171 149.286 225.995 149.362C225.82 149.437 225.629 149.472 225.438 149.465C225.256 149.476 225.074 149.449 224.903 149.386C224.733 149.322 224.577 149.224 224.446 149.098C224.316 148.971 224.213 148.819 224.144 148.65C224.076 148.482 224.043 148.301 224.049 148.119C224.04 147.945 224.067 147.771 224.128 147.608C224.189 147.445 224.282 147.296 224.403 147.17C224.524 147.045 224.669 146.945 224.83 146.878C224.99 146.811 225.163 146.778 225.337 146.78C225.512 146.775 225.685 146.807 225.846 146.874C226.008 146.94 226.153 147.04 226.274 147.166C226.395 147.292 226.488 147.442 226.547 147.606C226.606 147.77 226.631 147.945 226.619 148.119C226.619 148.119 226.612 148.19 226.612 148.226ZM224.407 147.961H226.275C226.255 147.727 226.147 147.51 225.975 147.351C225.802 147.193 225.575 147.105 225.341 147.105C225.106 147.105 224.88 147.193 224.707 147.351C224.534 147.51 224.427 147.727 224.407 147.961Z" fill="white"/>
<path d="M229.784 147.903V149.436H229.433V147.939C229.453 147.828 229.447 147.715 229.415 147.607C229.383 147.499 229.325 147.4 229.248 147.319C229.171 147.237 229.075 147.175 228.969 147.137C228.863 147.1 228.75 147.087 228.638 147.101C228.512 147.092 228.386 147.111 228.268 147.156C228.15 147.201 228.043 147.272 227.955 147.362C227.867 147.453 227.8 147.562 227.758 147.681C227.717 147.801 227.702 147.928 227.715 148.054V149.436H227.328V146.801H227.672V147.288C227.779 147.121 227.928 146.986 228.104 146.897C228.28 146.808 228.477 146.767 228.674 146.779C228.825 146.763 228.978 146.781 229.121 146.832C229.264 146.883 229.393 146.966 229.5 147.074C229.607 147.182 229.688 147.312 229.737 147.456C229.786 147.6 229.802 147.753 229.784 147.903Z" fill="white"/>
<path d="M233.171 145.713V149.436H232.827V148.913C232.722 149.088 232.573 149.231 232.394 149.328C232.215 149.425 232.014 149.472 231.81 149.465C231.471 149.44 231.154 149.288 230.923 149.039C230.691 148.79 230.562 148.462 230.562 148.122C230.562 147.782 230.691 147.455 230.923 147.206C231.154 146.957 231.471 146.805 231.81 146.78C232.008 146.773 232.205 146.817 232.381 146.909C232.556 147 232.705 147.136 232.813 147.302V145.713H233.171ZM232.82 148.119C232.812 147.927 232.747 147.741 232.634 147.586C232.521 147.43 232.365 147.311 232.186 147.244C232.006 147.176 231.81 147.162 231.623 147.205C231.435 147.248 231.265 147.344 231.132 147.483C230.999 147.622 230.91 147.796 230.875 147.985C230.841 148.174 230.862 148.369 230.938 148.546C231.013 148.723 231.139 148.874 231.299 148.98C231.459 149.086 231.647 149.142 231.839 149.143C231.972 149.145 232.104 149.119 232.227 149.068C232.35 149.017 232.461 148.941 232.553 148.845C232.645 148.749 232.716 148.635 232.762 148.51C232.808 148.385 232.828 148.252 232.82 148.119Z" fill="white"/>
<path d="M237.47 147.803V149.436H237.127V149.028C237.027 149.174 236.891 149.292 236.731 149.369C236.571 149.445 236.394 149.478 236.217 149.464C235.623 149.464 235.258 149.149 235.258 148.691C235.258 148.233 235.516 147.975 236.275 147.975H237.112V147.818C237.122 147.721 237.111 147.623 237.078 147.532C237.046 147.441 236.994 147.357 236.925 147.289C236.856 147.22 236.773 147.168 236.682 147.135C236.59 147.103 236.493 147.091 236.396 147.102C236.074 147.097 235.761 147.209 235.516 147.417L235.358 147.152C235.66 146.91 236.038 146.783 236.425 146.794C236.563 146.777 236.703 146.792 236.835 146.836C236.967 146.881 237.087 146.954 237.187 147.05C237.287 147.147 237.365 147.265 237.413 147.395C237.462 147.525 237.482 147.665 237.47 147.803ZM237.112 148.641V148.211H236.282C235.773 148.211 235.609 148.412 235.609 148.684C235.609 148.956 235.852 149.178 236.275 149.178C236.453 149.19 236.631 149.144 236.782 149.047C236.933 148.951 237.048 148.808 237.112 148.641Z" fill="white"/>
<path d="M240.884 146.802V149.086C240.912 149.265 240.898 149.449 240.841 149.621C240.785 149.794 240.689 149.951 240.561 150.08C240.432 150.208 240.275 150.304 240.102 150.36C239.93 150.417 239.746 150.431 239.567 150.403C239.122 150.421 238.685 150.278 238.335 150.002L238.514 149.73C238.808 149.967 239.175 150.094 239.552 150.088C240.226 150.088 240.526 149.787 240.526 149.136V148.799C240.413 148.964 240.26 149.098 240.08 149.187C239.901 149.276 239.702 149.317 239.502 149.308C239.326 149.321 239.15 149.298 238.983 149.239C238.817 149.181 238.664 149.089 238.535 148.969C238.406 148.849 238.302 148.704 238.232 148.542C238.161 148.381 238.125 148.206 238.125 148.03C238.125 147.853 238.161 147.679 238.232 147.517C238.302 147.356 238.406 147.21 238.535 147.09C238.664 146.97 238.817 146.878 238.983 146.82C239.15 146.762 239.326 146.738 239.502 146.752C239.706 146.742 239.908 146.785 240.09 146.876C240.272 146.968 240.427 147.105 240.541 147.274V146.773L240.884 146.802ZM240.541 148.055C240.548 147.855 240.495 147.658 240.389 147.488C240.284 147.319 240.13 147.185 239.947 147.104C239.765 147.022 239.562 146.997 239.365 147.032C239.169 147.066 238.987 147.159 238.843 147.297C238.699 147.436 238.6 147.614 238.558 147.81C238.517 148.005 238.534 148.209 238.609 148.394C238.684 148.579 238.812 148.738 238.978 148.85C239.143 148.961 239.338 149.021 239.538 149.021C239.669 149.029 239.8 149.01 239.923 148.965C240.045 148.92 240.158 148.849 240.252 148.758C240.346 148.667 240.42 148.558 240.47 148.437C240.52 148.316 240.544 148.186 240.541 148.055Z" fill="white"/>
<path d="M243.869 147.804V149.437H243.532V149.029C243.432 149.175 243.296 149.292 243.136 149.369C242.976 149.445 242.799 149.479 242.623 149.465C242.021 149.465 241.656 149.15 241.656 148.692C241.656 148.234 241.921 147.976 242.68 147.976H243.511V147.819C243.511 147.368 243.26 147.103 242.795 147.103C242.475 147.099 242.165 147.211 241.921 147.418L241.756 147.153C242.062 146.911 242.442 146.785 242.83 146.795C242.968 146.78 243.107 146.795 243.238 146.84C243.369 146.885 243.489 146.958 243.588 147.055C243.687 147.151 243.764 147.268 243.812 147.398C243.861 147.528 243.88 147.666 243.869 147.804ZM243.511 148.642V148.212H242.687C242.172 148.212 242.007 148.413 242.007 148.685C242.007 148.957 242.258 149.179 242.68 149.179C242.858 149.192 243.035 149.146 243.185 149.049C243.335 148.952 243.449 148.809 243.511 148.642Z" fill="white"/>
<path d="M244.758 145.964C244.768 145.902 244.8 145.846 244.848 145.805C244.896 145.764 244.956 145.742 245.019 145.742C245.082 145.742 245.143 145.764 245.19 145.805C245.238 145.846 245.27 145.902 245.281 145.964C245.27 146.026 245.238 146.082 245.19 146.122C245.143 146.163 245.082 146.185 245.019 146.185C244.956 146.185 244.896 146.163 244.848 146.122C244.8 146.082 244.768 146.026 244.758 145.964ZM244.837 146.801H245.195V149.436H244.837V146.801Z" fill="white"/>
<path d="M248.608 147.905V149.437H248.257V147.94C248.277 147.83 248.27 147.716 248.238 147.608C248.206 147.5 248.149 147.402 248.072 147.32C247.994 147.239 247.899 147.176 247.793 147.139C247.687 147.101 247.574 147.088 247.462 147.103C247.336 147.094 247.209 147.112 247.091 147.157C246.973 147.202 246.866 147.273 246.778 147.364C246.69 147.454 246.623 147.563 246.582 147.683C246.54 147.802 246.525 147.929 246.538 148.055V149.437H246.188V146.802H246.524V147.289C246.631 147.122 246.78 146.988 246.956 146.898C247.132 146.809 247.329 146.768 247.526 146.78C247.675 146.769 247.824 146.79 247.964 146.843C248.103 146.896 248.229 146.98 248.333 147.087C248.436 147.195 248.514 147.324 248.562 147.465C248.609 147.606 248.625 147.756 248.608 147.905Z" fill="white"/>
</g>
<path opacity="0.4" d="M254.861 167.335H214.958C213.382 167.334 211.87 166.706 210.756 165.59C209.642 164.475 209.016 162.962 209.016 161.386C209.016 159.809 209.642 158.296 210.756 157.181C211.87 156.065 213.382 155.437 214.958 155.436H254.861C256.439 155.436 257.953 156.062 259.068 157.178C260.184 158.294 260.811 159.807 260.811 161.386C260.811 162.964 260.184 164.477 259.068 165.593C257.953 166.709 256.439 167.335 254.861 167.335Z" fill="white"/>
<path d="M219.352 161.084C219.348 160.805 219.402 160.528 219.51 160.271C219.618 160.014 219.778 159.782 219.979 159.589C220.181 159.397 220.42 159.248 220.681 159.151C220.943 159.055 221.221 159.013 221.5 159.029C221.784 159.018 222.068 159.069 222.331 159.178C222.594 159.287 222.83 159.451 223.025 159.659L222.652 160.017C222.509 159.862 222.333 159.739 222.138 159.658C221.943 159.576 221.733 159.538 221.521 159.544C221.267 159.547 221.017 159.612 220.795 159.734C220.572 159.857 220.383 160.033 220.244 160.246C220.106 160.459 220.023 160.703 220.002 160.957C219.981 161.21 220.023 161.465 220.124 161.698C220.226 161.931 220.384 162.135 220.583 162.293C220.783 162.45 221.018 162.555 221.269 162.6C221.519 162.644 221.777 162.625 222.018 162.545C222.259 162.466 222.477 162.328 222.652 162.143L223.025 162.501C222.829 162.71 222.591 162.874 222.327 162.983C222.063 163.091 221.778 163.142 221.493 163.131C221.215 163.147 220.938 163.106 220.677 163.009C220.416 162.913 220.178 162.765 219.977 162.573C219.776 162.381 219.617 162.149 219.51 161.893C219.402 161.637 219.348 161.361 219.352 161.084Z" fill="white"/>
<path d="M223.409 161.084C223.389 160.656 223.497 160.231 223.721 159.865C223.944 159.499 224.272 159.208 224.663 159.03C225.053 158.852 225.488 158.795 225.911 158.866C226.334 158.937 226.726 159.133 227.036 159.429C227.347 159.725 227.562 160.107 227.653 160.527C227.744 160.946 227.708 161.383 227.549 161.781C227.39 162.179 227.115 162.521 226.76 162.762C226.405 163.003 225.986 163.131 225.557 163.132C225.279 163.147 225.002 163.104 224.741 163.008C224.48 162.911 224.242 162.763 224.041 162.571C223.84 162.379 223.68 162.149 223.571 161.893C223.463 161.637 223.407 161.362 223.409 161.084ZM227.096 161.084C227.1 160.774 227.012 160.47 226.843 160.21C226.674 159.951 226.431 159.747 226.146 159.626C225.861 159.505 225.546 159.471 225.241 159.53C224.937 159.588 224.657 159.736 224.437 159.954C224.217 160.172 224.066 160.451 224.005 160.755C223.944 161.058 223.975 161.374 224.093 161.66C224.212 161.946 224.413 162.191 224.671 162.362C224.929 162.534 225.232 162.625 225.542 162.624C225.747 162.63 225.951 162.595 226.142 162.521C226.332 162.446 226.506 162.333 226.651 162.189C226.797 162.045 226.911 161.872 226.988 161.682C227.064 161.493 227.101 161.289 227.096 161.084Z" fill="white"/>
<path d="M231.998 159.107V163.117H231.525L229.12 160.124V163.117H228.547V159.107H229.019L231.425 162.093V159.107H231.998Z" fill="white"/>
<path d="M233.992 159.573H232.617V159.107H235.918V159.601H234.558V163.117H233.992V159.573Z" fill="white"/>
<path d="M236.555 159.107H237.127V163.117H236.555V159.107Z" fill="white"/>
<path d="M241.787 159.107V163.117H241.314L238.909 160.124V163.117H238.336V159.107H238.787L241.193 162.093V159.107H241.787Z" fill="white"/>
<path d="M242.953 161.356V159.107H243.526V161.363C243.526 162.251 243.934 162.652 244.657 162.652C245.38 162.652 245.788 162.251 245.788 161.363V159.107H246.347V161.384C246.347 161.834 246.168 162.266 245.85 162.584C245.532 162.902 245.1 163.081 244.65 163.081C244.2 163.081 243.768 162.902 243.45 162.584C243.132 162.266 242.953 161.834 242.953 161.384V161.356Z" fill="white"/>
<path d="M250.423 162.587V163.088H247.516V159.107H250.38V159.601H248.088V160.833H250.093V161.32H248.088V162.616L250.423 162.587Z" fill="white"/>
<path opacity="0.1" d="M304.29 68.5488C280.87 92.0121 220.719 144.237 152.562 140.371V68.5488H304.29Z" fill="white"/>
<path opacity="0.1" d="M321.941 111.674V180.947H219.969C223.878 166.957 231.697 147.796 246.862 134.107C274.141 109.476 305.803 109.548 321.941 111.674Z" fill="white"/>
<path d="M343.484 57.5L345.861 67.9966L348.239 57.5H343.484Z" fill="#073B3A"/>
<path opacity="0.7" d="M343.484 57.5L345.861 67.9966L348.239 57.5H343.484Z" fill="white"/>
<path d="M372.466 27.7793H319.26C315.863 27.7793 313.109 30.5329 313.109 33.9297V53.677C313.109 57.0738 315.863 59.8275 319.26 59.8275H372.466C375.863 59.8275 378.616 57.0738 378.616 53.677V33.9297C378.616 30.5329 375.863 27.7793 372.466 27.7793Z" fill="#073B3A"/>
<path opacity="0.7" d="M372.466 27.7793H319.26C315.863 27.7793 313.109 30.5329 313.109 33.9297V53.677C313.109 57.0738 315.863 59.8275 319.26 59.8275H372.466C375.863 59.8275 378.616 57.0738 378.616 53.677V33.9297C378.616 30.5329 375.863 27.7793 372.466 27.7793Z" fill="white"/>
<g opacity="0.5">
<path d="M326.194 39.5359V40.9178H325.629V39.5359L324.039 36.9297H324.655L325.936 39.0777L327.225 36.9297H327.791L326.194 39.5359Z" fill="#263238"/>
<path d="M327.665 39.4079C327.659 39.0938 327.747 38.7851 327.917 38.5211C328.088 38.2571 328.333 38.0499 328.621 37.9257C328.91 37.8015 329.229 37.7661 329.538 37.8239C329.847 37.8817 330.131 38.0301 330.355 38.2502C330.58 38.4703 330.733 38.7521 330.797 39.0598C330.86 39.3676 330.83 39.6872 330.712 39.978C330.593 40.2688 330.39 40.5176 330.129 40.6928C329.868 40.868 329.561 40.9616 329.247 40.9616C329.039 40.9716 328.831 40.9384 328.637 40.8642C328.442 40.7901 328.265 40.6764 328.116 40.5305C327.968 40.3846 327.851 40.2096 327.773 40.0164C327.695 39.8232 327.659 39.616 327.665 39.4079ZM330.264 39.4079C330.276 39.2667 330.258 39.1246 330.212 38.9906C330.166 38.8566 330.093 38.7335 329.997 38.6292C329.901 38.525 329.785 38.4417 329.655 38.3848C329.525 38.3279 329.385 38.2985 329.243 38.2985C329.102 38.2985 328.962 38.3279 328.832 38.3848C328.702 38.4417 328.586 38.525 328.49 38.6292C328.394 38.7335 328.321 38.8566 328.275 38.9906C328.229 39.1246 328.211 39.2667 328.223 39.4079C328.211 39.5491 328.229 39.6911 328.275 39.8252C328.321 39.9592 328.394 40.0822 328.49 40.1865C328.586 40.2908 328.702 40.374 328.832 40.431C328.962 40.4879 329.102 40.5173 329.243 40.5173C329.385 40.5173 329.525 40.4879 329.655 40.431C329.785 40.374 329.901 40.2908 329.997 40.1865C330.093 40.0822 330.166 39.9592 330.212 39.8252C330.258 39.6911 330.276 39.5491 330.264 39.4079Z" fill="#263238"/>
<path d="M334.404 37.8887V40.9245H333.888V40.4663C333.769 40.6258 333.613 40.7541 333.433 40.8402C333.254 40.9262 333.056 40.9675 332.857 40.9603C332.679 40.9786 332.5 40.9568 332.331 40.8964C332.163 40.8361 332.01 40.7388 331.885 40.6117C331.759 40.4847 331.663 40.331 331.605 40.1621C331.546 39.9932 331.527 39.8133 331.547 39.6357V37.8887H332.098V39.5784C332.098 40.1727 332.399 40.4663 332.921 40.4663C333.052 40.4748 333.184 40.4542 333.306 40.4059C333.428 40.3576 333.538 40.2828 333.628 40.1869C333.717 40.0911 333.785 39.9765 333.825 39.8514C333.865 39.7264 333.877 39.594 333.859 39.4639V37.8887H334.404Z" fill="#263238"/>
<path d="M337.092 37.8612V38.3982H336.963C336.83 38.3895 336.696 38.4107 336.571 38.4601C336.447 38.5095 336.335 38.5861 336.244 38.6841C336.153 38.7821 336.085 38.8992 336.044 39.0268C336.004 39.1545 335.993 39.2895 336.011 39.4221V40.9329H335.445V37.8899H335.975V38.4054C336.09 38.2175 336.256 38.0664 336.454 37.97C336.652 37.8735 336.873 37.8358 337.092 37.8612Z" fill="#263238"/>
<path d="M339.104 38.9208C339.085 38.4925 339.195 38.0684 339.419 37.7031C339.644 37.3379 339.973 37.0481 340.363 36.8712C340.754 36.6942 341.188 36.6382 341.611 36.7103C342.033 36.7823 342.425 36.9792 342.734 37.2756C343.044 37.5719 343.258 37.9542 343.349 38.3732C343.44 38.7922 343.403 39.2288 343.243 39.6267C343.084 40.0247 342.809 40.3658 342.454 40.6062C342.099 40.8466 341.68 40.9753 341.252 40.9757C340.973 40.9914 340.695 40.9497 340.433 40.8533C340.172 40.7568 339.933 40.6075 339.731 40.4148C339.53 40.2221 339.37 39.99 339.262 39.733C339.154 39.476 339.1 39.1995 339.104 38.9208ZM342.791 38.9208C342.795 38.6109 342.707 38.3067 342.538 38.0471C342.369 37.7874 342.126 37.584 341.841 37.4628C341.556 37.3416 341.241 37.308 340.936 37.3664C340.632 37.4247 340.352 37.5724 340.132 37.7905C339.912 38.0086 339.761 38.2874 339.7 38.5912C339.639 38.895 339.67 39.2102 339.788 39.4965C339.907 39.7829 340.108 40.0274 340.366 40.199C340.624 40.3707 340.927 40.4616 341.237 40.4602C341.442 40.4671 341.646 40.4321 341.837 40.3573C342.027 40.2826 342.201 40.1697 342.346 40.0255C342.492 39.8814 342.606 39.7091 342.683 39.5191C342.759 39.3291 342.796 39.1255 342.791 38.9208Z" fill="#263238"/>
<path d="M344.984 37.3886H343.609V36.8945H346.903V37.3886H345.528V40.897H344.963L344.984 37.3886Z" fill="#263238"/>
<path d="M350.783 38.3181C350.783 39.1844 350.153 39.7143 349.108 39.7143H348.12V40.9243H347.547V36.9219H349.108C350.153 36.9219 350.783 37.4446 350.783 38.3181ZM350.21 38.3181C350.21 37.7453 349.824 37.4159 349.093 37.4159H348.12V39.2131H349.093C349.824 39.2131 350.21 38.8909 350.21 38.3181Z" fill="#263238"/>
<path d="M352.891 38.9194C352.91 38.505 353.049 38.1051 353.29 37.768C353.532 37.4308 353.866 37.1708 354.252 37.0194C354.638 36.8679 355.06 36.8315 355.466 36.9146C355.873 36.9976 356.246 37.1966 356.542 37.4874L356.17 37.8525C356.026 37.6967 355.851 37.5733 355.656 37.4906C355.461 37.4078 355.25 37.3677 355.039 37.3728C354.63 37.3728 354.239 37.535 353.95 37.8237C353.661 38.1124 353.499 38.504 353.499 38.9122C353.499 39.3205 353.661 39.7121 353.95 40.0007C354.239 40.2894 354.63 40.4516 355.039 40.4516C355.25 40.4567 355.461 40.4166 355.656 40.3339C355.851 40.2512 356.026 40.1277 356.17 39.9719L356.542 40.3371C356.246 40.6279 355.873 40.8268 355.466 40.9099C355.06 40.9929 354.638 40.9565 354.252 40.8051C353.866 40.6537 353.532 40.3937 353.29 40.0565C353.049 39.7193 352.91 39.3194 352.891 38.9051V38.9194Z" fill="#263238"/>
<path d="M356.876 39.4079C356.87 39.0938 356.958 38.7851 357.128 38.5211C357.299 38.2571 357.544 38.0499 357.832 37.9257C358.121 37.8015 358.44 37.7661 358.749 37.8239C359.058 37.8817 359.342 38.0301 359.566 38.2502C359.791 38.4703 359.944 38.7521 360.008 39.0598C360.071 39.3676 360.041 39.6872 359.922 39.978C359.804 40.2688 359.601 40.5176 359.34 40.6928C359.079 40.868 358.772 40.9616 358.458 40.9616C358.25 40.9716 358.042 40.9384 357.848 40.8642C357.653 40.7901 357.476 40.6764 357.327 40.5305C357.179 40.3846 357.062 40.2096 356.984 40.0164C356.906 39.8232 356.87 39.616 356.876 39.4079ZM359.475 39.4079C359.487 39.2667 359.469 39.1246 359.423 38.9906C359.377 38.8566 359.304 38.7335 359.208 38.6292C359.112 38.525 358.996 38.4417 358.866 38.3848C358.736 38.3279 358.596 38.2985 358.454 38.2985C358.313 38.2985 358.173 38.3279 358.043 38.3848C357.913 38.4417 357.797 38.525 357.701 38.6292C357.605 38.7335 357.532 38.8566 357.486 38.9906C357.44 39.1246 357.422 39.2667 357.434 39.4079C357.422 39.5491 357.44 39.6911 357.486 39.8252C357.532 39.9592 357.605 40.0822 357.701 40.1865C357.797 40.2908 357.913 40.374 358.043 40.431C358.173 40.4879 358.313 40.5173 358.454 40.5173C358.596 40.5173 358.736 40.4879 358.866 40.431C358.996 40.374 359.112 40.2908 359.208 40.1865C359.304 40.0822 359.377 39.9592 359.423 39.8252C359.469 39.6911 359.487 39.5491 359.475 39.4079Z" fill="#263238"/>
<path d="M363.654 36.6719V40.9177H363.131V40.438C363.006 40.6051 362.842 40.7392 362.654 40.829C362.466 40.9188 362.258 40.9616 362.05 40.9536C361.657 40.9268 361.289 40.7519 361.02 40.4641C360.751 40.1764 360.602 39.7972 360.602 39.4034C360.602 39.0096 360.751 38.6305 361.02 38.3427C361.289 38.0549 361.657 37.88 362.05 37.8533C362.252 37.8471 362.453 37.8879 362.637 37.9723C362.821 38.0568 362.983 38.1827 363.11 38.3402V36.6719H363.654ZM363.11 39.3998C363.1 39.1995 363.031 39.0064 362.913 38.8446C362.794 38.6828 362.63 38.5594 362.442 38.4898C362.254 38.4201 362.05 38.4073 361.854 38.4529C361.659 38.4984 361.481 38.6004 361.343 38.7461C361.205 38.8918 361.113 39.0748 361.079 39.2724C361.044 39.4699 361.068 39.6734 361.148 39.8574C361.227 40.0415 361.36 40.198 361.528 40.3076C361.696 40.4172 361.892 40.475 362.093 40.4738C362.232 40.4772 362.369 40.4515 362.498 40.3984C362.626 40.3453 362.742 40.266 362.837 40.1655C362.933 40.065 363.007 39.9457 363.054 39.815C363.101 39.6844 363.12 39.5454 363.11 39.407V39.3998Z" fill="#263238"/>
<path d="M367.43 39.5939H364.974C365.008 39.854 365.141 40.0912 365.345 40.2564C365.549 40.4216 365.808 40.5023 366.07 40.4817C366.233 40.4876 366.396 40.4579 366.547 40.3949C366.697 40.3319 366.833 40.2369 366.943 40.1165L367.251 40.4674C367.027 40.6947 366.742 40.8523 366.43 40.921C366.118 40.9897 365.793 40.9666 365.493 40.8546C365.194 40.7425 364.934 40.5462 364.744 40.2895C364.554 40.0327 364.443 39.7265 364.423 39.4077C364.415 39.2043 364.449 39.0015 364.523 38.8117C364.596 38.6219 364.708 38.4492 364.851 38.3043C364.994 38.1593 365.165 38.0452 365.354 37.969C365.542 37.8928 365.745 37.8561 365.948 37.8611C366.153 37.8509 366.359 37.8851 366.55 37.9613C366.741 38.0375 366.913 38.1539 367.055 38.3027C367.197 38.4515 367.305 38.6291 367.373 38.8235C367.44 39.0179 367.464 39.2245 367.445 39.4292C367.443 39.4843 367.438 39.5393 367.43 39.5939ZM364.974 39.2001H366.95C366.93 38.9571 366.818 38.7309 366.639 38.566C366.459 38.4012 366.224 38.3097 365.98 38.3097C365.736 38.3097 365.502 38.4012 365.322 38.566C365.142 38.7309 365.031 38.9571 365.01 39.2001H364.974Z" fill="#263238"/>
</g>
<g opacity="0.5">
<path d="M337.59 47.197C337.59 49.4524 336.323 50.6552 334.468 50.6552C333.897 50.6754 333.331 50.5419 332.829 50.2686L333.187 49.5526C333.574 49.773 334.016 49.8797 334.461 49.8605C335.8 49.8605 336.652 49.0228 336.652 47.3688V47.1397C336.431 47.43 336.141 47.6611 335.809 47.8122C335.476 47.9634 335.112 48.03 334.748 48.006C334.465 48.037 334.18 48.0086 333.91 47.9227C333.639 47.8367 333.39 47.6951 333.177 47.507C332.965 47.3188 332.794 47.0883 332.676 46.8302C332.558 46.5721 332.495 46.2922 332.492 46.0084C332.499 45.7154 332.566 45.427 332.688 45.1608C332.81 44.8945 332.986 44.6562 333.204 44.4603C333.422 44.2645 333.678 44.1153 333.955 44.022C334.233 43.9287 334.527 43.8932 334.819 43.9177C336.588 43.9034 337.59 45.0919 337.59 47.197ZM336.423 45.9798C336.423 45.2996 335.879 44.7053 334.848 44.7053C334.668 44.6863 334.486 44.7052 334.313 44.7609C334.141 44.8165 333.982 44.9076 333.847 45.0284C333.713 45.1491 333.604 45.2968 333.53 45.4619C333.456 45.627 333.417 45.8059 333.416 45.9869C333.416 46.7602 333.989 47.2614 334.912 47.2614C335.096 47.2801 335.282 47.2614 335.459 47.2065C335.636 47.1516 335.799 47.0617 335.94 46.942C336.081 46.8223 336.197 46.6754 336.28 46.5101C336.363 46.3448 336.411 46.1644 336.423 45.9798Z" fill="#263238"/>
<path d="M338.492 47.2838C338.492 45.1358 339.645 43.9043 341.191 43.9043C342.738 43.9043 343.876 45.1358 343.876 47.2838C343.876 49.4318 342.724 50.6562 341.191 50.6562C339.659 50.6562 338.492 49.4318 338.492 47.2838ZM342.931 47.2838C342.931 45.5941 342.215 44.7492 341.191 44.7492C340.168 44.7492 339.437 45.5941 339.437 47.2838C339.437 48.9736 340.153 49.8185 341.191 49.8185C342.23 49.8185 342.931 48.9736 342.931 47.2838Z" fill="#263238"/>
<path d="M349.397 49.7609V50.5843H344.65V49.9399L347.342 47.348C348.058 46.6678 348.165 46.2525 348.165 45.8372C348.165 45.1642 347.686 44.7489 346.733 44.7489C346.417 44.7303 346.1 44.7852 345.808 44.9094C345.516 45.0337 345.257 45.2238 345.051 45.4649L344.406 44.9064C344.709 44.571 345.083 44.3071 345.5 44.1338C345.917 43.9604 346.368 43.882 346.819 43.904C348.194 43.904 349.082 44.62 349.082 45.7441C349.071 46.1496 348.968 46.5474 348.781 46.9071C348.593 47.2669 348.327 47.5793 348.001 47.8206L345.981 49.7609H349.397Z" fill="#263238"/>
<path d="M352.221 43.9824V50.5839H351.284V44.8058H349.766V43.9824H352.221Z" fill="#263238"/>
<path d="M353.656 47.2838C353.656 45.1358 354.809 43.9043 356.356 43.9043C357.902 43.9043 359.041 45.1358 359.041 47.2838C359.041 49.4318 357.895 50.6562 356.356 50.6562C354.816 50.6562 353.656 49.4318 353.656 47.2838ZM358.103 47.2838C358.103 45.5941 357.387 44.7492 356.356 44.7492C355.325 44.7492 354.601 45.5941 354.601 47.2838C354.601 48.9736 355.317 49.8185 356.356 49.8185C357.394 49.8185 358.103 48.9736 358.103 47.2838Z" fill="#263238"/>
</g>
<path d="M339.968 88.2878C344.242 91.2455 349.023 93.3934 354.073 94.6244H354.123C353.745 94.6135 353.373 94.7184 353.056 94.9251C352.744 95.1197 352.496 95.4008 352.34 95.7342C352.288 95.8364 352.259 95.9488 352.255 96.0635C352.369 94.5599 351.718 92.8702 351.259 91.2449C350.436 88.6744 349.469 86.0395 348.503 83.4548L351.266 81.9727C353.55 85.4739 361.176 96.5576 355.971 99.7652C355.078 100.286 354.024 100.454 353.013 100.238C347.342 99.3977 341.933 97.2879 337.19 94.0659C336.861 93.8368 336.574 93.6363 336.188 93.3499L339.982 88.2735L339.968 88.2878Z" fill="#DC897C"/>
<path d="M339.165 87.5067C341.672 87.8089 344.052 88.7754 346.06 90.3063L343.196 99.1703C343.196 99.1703 329.277 86.3396 339.165 87.5067Z" fill="#073B3A"/>
<path opacity="0.6" d="M339.14 94.9618C340.414 96.421 341.762 97.8143 343.179 99.136L344.36 95.4916L346.064 90.272C344.058 88.7423 341.68 87.7758 339.176 87.4724C333.09 86.7922 335.997 91.346 339.14 94.9618Z" fill="white"/>
<path opacity="0.2" d="M339.142 94.9613C340.416 96.4206 341.764 97.8138 343.18 99.1356L344.362 95.4912C342.876 94.3336 341.047 93.7038 339.164 93.7012C339.121 94.1199 339.114 94.5414 339.142 94.9613Z" fill="black"/>
<path d="M308.228 74.3984C308.228 74.3984 301.569 96.5372 315.596 99.5086C329.622 102.48 331.14 92.2913 331.14 92.2913C331.14 92.2913 319.612 74.8495 308.228 74.3984Z" fill="#263238"/>
<path d="M304.945 81.7295C304.919 81.7368 304.892 81.7368 304.866 81.7295C304.846 81.7197 304.828 81.7058 304.813 81.6888C304.799 81.6717 304.788 81.6519 304.781 81.6304C304.774 81.6089 304.772 81.5863 304.774 81.564C304.777 81.5416 304.784 81.5199 304.795 81.5004C305.004 81.1183 305.299 80.7901 305.657 80.5416C306.015 80.2931 306.426 80.1311 306.857 80.0684C306.901 80.0698 306.944 80.0872 306.977 80.1174C307.01 80.1477 307.031 80.1887 307.036 80.233C307.038 80.2556 307.035 80.2784 307.028 80.3C307.021 80.3216 307.01 80.3416 306.996 80.3589C306.981 80.3762 306.963 80.3904 306.943 80.4008C306.923 80.4111 306.901 80.4174 306.878 80.4192C306.505 80.4801 306.15 80.6253 305.841 80.8436C305.533 81.062 305.277 81.3478 305.095 81.6794C305.077 81.7003 305.053 81.7159 305.027 81.7247C305.001 81.7335 304.972 81.7352 304.945 81.7295Z" fill="#263238"/>
<path d="M306.947 84.4785C306.857 85.3414 306.662 86.1902 306.367 87.006C306.589 87.1384 306.843 87.2084 307.101 87.2084C307.359 87.2084 307.613 87.1384 307.835 87.006L306.947 84.4785Z" fill="#DE5753"/>
<path d="M305.593 83.5124C305.743 83.9062 306.08 84.1425 306.309 84.0423C306.538 83.942 306.667 83.5482 306.516 83.1544C306.366 82.7606 306.03 82.5243 305.8 82.6246C305.571 82.7248 305.45 83.1186 305.593 83.5124Z" fill="#263238"/>
<path d="M305.918 82.6035H304.938C304.938 82.6035 305.639 83.1477 305.918 82.6035Z" fill="#263238"/>
<path d="M319.851 87.228C319.826 87.2921 319.792 87.3524 319.751 87.407C319.686 87.5287 319.615 87.6432 319.543 87.765C319.123 88.5195 318.565 89.1876 317.896 89.734C315.748 91.4452 313.879 91.9607 312.254 91.4667L312.018 91.3879C309.605 90.407 307.722 87.5215 306.225 83.7052C305.561 82.2118 305.143 80.6209 304.987 78.994C304.987 78.994 304.987 78.9367 304.987 78.9224C304.987 78.908 304.987 78.7935 304.987 78.7362C304.931 77.8038 305.108 76.8721 305.503 76.0257C305.898 75.1793 306.499 74.4448 307.249 73.8889C307.891 73.3851 308.588 72.9552 309.326 72.6072C316.478 69.1203 323.438 80.4761 319.851 87.228Z" fill="#E4897B"/>
<path opacity="0.2" d="M319.539 87.7662C319.119 88.5207 318.561 89.1888 317.892 89.7352C315.744 91.4464 313.875 91.9619 312.25 91.4679C313.83 91.0848 315.254 90.2219 316.324 88.9977C316.737 88.5698 317.239 88.2378 317.795 88.025C318.35 87.8122 318.946 87.7238 319.539 87.7662Z" fill="black"/>
<path d="M304.946 78.952C304.946 78.952 306.944 84.2075 312.779 84.1144C312.779 84.1144 317.333 88.4104 320.405 87.0428C324.593 85.1884 325.452 77.5702 321.185 72.2503C315.643 65.348 303.557 70.3242 304.946 78.952Z" fill="#263238"/>
<path d="M309.657 83.813C309.285 83.0183 309.292 81.3929 310.602 80.992C311.913 80.591 314.182 83.3763 311.361 85.5529C310.96 85.8679 310.431 85.4598 309.657 83.813Z" fill="#E4897B"/>
<path d="M311.228 69.3861C311.228 69.3861 305.815 70.4529 304.068 73.6821C302.02 77.4339 301.92 80.3409 307.361 82.2741C307.361 82.2741 314.242 75.8301 317.206 75.1141C318.934 74.6855 320.694 74.4028 322.469 74.2692C320.493 68.5484 313.411 67.0161 311.228 69.3861Z" fill="#263238"/>
<path d="M316.474 89.8713C316.474 89.8713 320.197 92.4489 321.164 96.7019L332.77 89.9286C332.77 89.9286 323.684 87.8593 322.123 84.3438C322.123 84.3438 316.052 85.0956 316.474 89.8713Z" fill="#E4897B"/>
<path d="M328.006 117.758C328.006 117.758 312.97 102.987 311.352 98.3476C311.352 98.3476 317.674 88.5026 330.311 88.0873C342.949 87.6721 351.548 111.715 351.548 111.715L328.006 117.758Z" fill="#073B3A"/>
<path opacity="0.6" d="M351.548 111.723L328.014 117.766C328.014 117.766 324.734 114.536 321.068 110.606C319.937 109.381 318.756 108.092 317.617 106.818C314.631 103.431 311.997 100.123 311.359 98.3261C311.359 98.3261 317.674 88.4811 330.312 88.0659C342.949 87.6506 351.548 111.723 351.548 111.723Z" fill="white"/>
<path d="M313.954 81.5934C313.954 81.5934 316.152 88.8966 323.871 91.3167C331.589 93.7368 329.649 101.62 337.131 100.689C341.112 100.195 344.52 92.0972 332.313 84.9372C325.195 80.7772 327.959 67.1016 312.852 68.3832C312.837 68.3904 315.973 77.7628 313.954 81.5934Z" fill="#263238"/>
<path d="M321.455 229.083L317.875 228.266C318.412 210.366 320.997 188.722 323.281 172.461C323.639 169.912 323.997 167.507 324.326 165.258C324.491 164.191 324.641 163.168 324.792 162.179C325.508 157.304 326.166 153.451 326.56 151.067C326.854 149.327 327.018 148.375 327.018 148.375L339.906 151.518L338.983 154.769L335.94 165.509L335.596 166.733L333.577 173.814L330.154 185.865C330.369 204.058 321.455 229.083 321.455 229.083Z" fill="#E4897B"/>
<path d="M352.102 226.09L348.436 225.904C345.643 206.658 344.469 182.586 343.961 165.853C343.889 163.261 343.825 160.841 343.775 158.635C343.775 158.528 343.775 158.421 343.775 158.313C343.682 153.953 343.639 150.487 343.617 148.289C343.617 146.571 343.617 145.633 343.617 145.633L356.842 146.499L356.276 152.012L355.445 160.103L355.281 161.693L354.708 167.206L353.161 182.02C356.541 199.92 352.102 226.09 352.102 226.09Z" fill="#E4897B"/>
<path d="M353.474 225.374C353.474 224.916 347.818 225.274 347.818 225.274C347.818 225.274 344.345 228.804 340.973 229.57C337.601 230.336 339.491 232.391 343.257 232.391H352.565C355.257 232.419 353.582 230.135 353.474 225.374Z" fill="#263238"/>
<path d="M344.348 226.584C344.266 226.51 344.209 226.412 344.185 226.305C344.161 226.197 344.17 226.085 344.212 225.983C344.234 225.903 344.272 225.828 344.324 225.762C344.376 225.697 344.44 225.643 344.513 225.603C344.914 225.439 345.353 225.39 345.78 225.46C345.322 225.217 344.921 224.923 344.899 224.622C344.899 224.429 345.014 224.271 345.272 224.15C345.384 224.099 345.506 224.072 345.63 224.072C345.753 224.072 345.875 224.099 345.988 224.15C346.754 224.472 347.226 225.789 347.248 225.839C347.263 225.876 347.263 225.917 347.248 225.954V225.99C347.234 226.006 347.217 226.018 347.198 226.026C346.468 226.4 345.678 226.642 344.864 226.742C344.678 226.754 344.495 226.698 344.348 226.584ZM344.663 225.868C344.624 225.888 344.59 225.915 344.561 225.948C344.533 225.981 344.512 226.02 344.498 226.061C344.441 226.283 344.498 226.341 344.498 226.362C344.77 226.584 345.802 226.269 346.646 225.918C346.003 225.715 345.317 225.695 344.663 225.861V225.868ZM345.379 224.436C345.3 224.436 345.171 224.543 345.179 224.622C345.179 224.873 346.002 225.338 346.833 225.632C346.648 225.136 346.309 224.712 345.866 224.422C345.794 224.388 345.716 224.371 345.637 224.372C345.555 224.371 345.475 224.388 345.401 224.422L345.379 224.436Z" fill="#263238"/>
<path d="M323.266 225.374C323.266 224.916 317.617 225.274 317.617 225.274C317.617 225.274 314.144 228.804 310.772 229.57C307.4 230.336 309.283 232.391 313.049 232.391H322.357C325.056 232.419 323.388 230.135 323.266 225.374Z" fill="#263238"/>
<path d="M314.15 226.584C314.07 226.509 314.014 226.411 313.99 226.304C313.966 226.197 313.974 226.085 314.014 225.983C314.036 225.903 314.074 225.828 314.126 225.762C314.178 225.697 314.242 225.643 314.315 225.603C314.716 225.44 315.155 225.39 315.582 225.46C315.124 225.217 314.723 224.923 314.709 224.622C314.709 224.431 314.83 224.274 315.074 224.15C315.186 224.099 315.308 224.072 315.432 224.072C315.555 224.072 315.677 224.099 315.79 224.15C316.556 224.472 317.028 225.789 317.05 225.839C317.059 225.857 317.063 225.877 317.063 225.897C317.063 225.917 317.059 225.936 317.05 225.954C317.05 225.954 317.05 225.954 317.05 225.99L317 226.026C316.267 226.398 315.475 226.641 314.658 226.742C314.476 226.751 314.296 226.695 314.15 226.584ZM314.465 225.868C314.427 225.888 314.394 225.915 314.366 225.948C314.339 225.982 314.319 226.02 314.308 226.061C314.25 226.283 314.308 226.341 314.343 226.362C314.608 226.584 315.639 226.269 316.491 225.918C315.835 225.707 315.132 225.687 314.465 225.861V225.868ZM315.181 224.436C315.102 224.436 314.974 224.543 314.981 224.622C314.981 224.873 315.804 225.338 316.642 225.632C316.454 225.135 316.113 224.711 315.668 224.422C315.597 224.387 315.518 224.37 315.439 224.372C315.358 224.371 315.277 224.388 315.203 224.422L315.181 224.436Z" fill="#263238"/>
<path d="M324.953 153.759L328.003 132.279V117.744C336.044 111.701 351.545 111.701 351.545 111.701C351.545 111.701 363.452 128.219 357.667 155.377L342.717 157.525L341.765 152.456L339.889 157.525L324.953 153.759Z" fill="#263238"/>
<path opacity="0.2" d="M324.953 153.759L328.003 132.279V117.744C336.044 111.701 351.545 111.701 351.545 111.701C351.545 111.701 363.452 128.219 357.667 155.377L342.717 157.525L341.765 152.456L339.889 157.525L324.953 153.759Z" fill="white"/>
<path opacity="0.2" d="M341.766 152.535L344.63 143.592C344.63 143.592 347.651 142.676 351.532 136.676C351.546 136.676 350.873 146.886 341.766 152.535Z" fill="black"/>
<path opacity="0.2" d="M335.391 121.876L342.1 121.238C343.17 123.746 343.541 126.498 343.174 129.2L338.878 131.785L335.763 129.573C335.763 129.573 335.663 123.895 335.391 121.876Z" fill="black"/>
<path opacity="0.2" d="M351.547 120.236C352.447 122.449 353.112 124.751 353.53 127.103L355.907 128.112L357.189 126.516C357.189 126.516 356.323 121.84 354.855 119.549L351.547 120.236Z" fill="black"/>
<path d="M324.677 152.535L340.544 157.189L339.548 159.323L324.477 154.683L324.677 152.535Z" fill="#263238"/>
<path d="M342.102 156.88L342.366 158.842L357.925 156.88L358.161 154.41L342.102 156.88Z" fill="#263238"/>
<path d="M345.368 114.715C347.913 114.285 350.485 114.034 353.065 113.963L352.105 112.381C349.596 112.314 347.086 112.463 344.602 112.824L345.368 114.715Z" fill="#263238"/>
<path d="M331.096 116.664C329.041 117.552 327.859 118.218 327.859 118.218V120.172C329.015 119.59 330.172 119.058 331.332 118.576L331.096 116.664Z" fill="#263238"/>
<path d="M332.083 118.295C336.062 116.735 340.191 115.586 344.405 114.866L343.689 112.961C339.604 113.642 335.611 114.79 331.789 116.383L332.083 118.295Z" fill="#263238"/>
<path d="M289.072 123.888L285.005 122.256L284.289 126.094C284.289 126.094 287.955 128.313 289.487 125.671L289.072 123.888Z" fill="#E4897B"/>
<path d="M282.983 122.492L281.68 125.456L284.315 126.094L285.002 122.256L282.983 122.492Z" fill="#E4897B"/>
<path d="M351.482 82.6384L351.002 78.2852L347.293 79.488C347.293 79.488 347.064 83.784 350.121 83.87L351.482 82.6384Z" fill="#E4897B"/>
<path d="M349.839 76.6172L346.609 76.8749L347.297 79.4884L351.006 78.2855L349.839 76.6172Z" fill="#E4897B"/>
<path opacity="0.2" d="M321.066 110.628C319.934 109.403 318.753 108.115 317.614 106.84C317.178 104.177 316.898 101.828 316.898 101.828C318.262 102.84 319.356 104.172 320.083 105.707C320.809 107.241 321.147 108.932 321.066 110.628Z" fill="black"/>
<path d="M317.316 100.595C315.676 107.207 313.2 113.583 309.948 119.569C306.726 125.691 294.475 126.429 288.318 126.586L288.031 123.464C291.74 122.591 303.268 120.293 304.843 116.949C307.415 111.156 309.531 105.171 311.172 99.0488L317.316 100.581V100.595Z" fill="#DC897C"/>
<path d="M313.807 95.1978C310.306 97.489 308.43 103.446 307.836 106.36L315.11 111.716L318.784 108.136C320.273 99.9163 315.139 94.3315 313.807 95.1978Z" fill="#073B3A"/>
<path opacity="0.6" d="M313.807 95.1978C310.306 97.489 308.43 103.446 307.836 106.36L315.11 111.716L318.784 108.136C320.273 99.9163 315.139 94.3315 313.807 95.1978Z" fill="white"/>
<path d="M349.317 84.0345L344.118 84.5929C344.045 84.595 343.972 84.5819 343.904 84.5544C343.836 84.5269 343.775 84.4856 343.724 84.4331C343.673 84.3806 343.633 84.3181 343.607 84.2495C343.581 84.1808 343.57 84.1076 343.574 84.0345L343.259 73.0295C343.249 72.874 343.296 72.7201 343.391 72.5963C343.485 72.4726 343.622 72.3873 343.775 72.3565L348.966 71.8052C349.039 71.802 349.113 71.8143 349.181 71.8415C349.249 71.8686 349.311 71.9099 349.363 71.9626C349.414 72.0153 349.454 72.0783 349.479 72.1474C349.504 72.2165 349.515 72.2902 349.51 72.3637L349.825 83.3686C349.835 83.5223 349.789 83.6744 349.695 83.7968C349.602 83.9192 349.467 84.0036 349.317 84.0345Z" fill="#263238"/>
<path opacity="0.6" d="M349.317 84.0345L344.118 84.5929C344.045 84.595 343.972 84.5819 343.904 84.5544C343.836 84.5269 343.775 84.4856 343.724 84.4331C343.673 84.3806 343.633 84.3181 343.607 84.2495C343.581 84.1808 343.57 84.1076 343.574 84.0345L343.259 73.0295C343.249 72.874 343.296 72.7201 343.391 72.5963C343.485 72.4726 343.622 72.3873 343.775 72.3565L348.966 71.8052C349.039 71.802 349.113 71.8143 349.181 71.8415C349.249 71.8686 349.311 71.9099 349.363 71.9626C349.414 72.0153 349.454 72.0783 349.479 72.1474C349.504 72.2165 349.515 72.2902 349.51 72.3637L349.825 83.3686C349.835 83.5223 349.789 83.6744 349.695 83.7968C349.602 83.9192 349.467 84.0036 349.317 84.0345Z" fill="white"/>
<path d="M348.865 84.0852L343.674 84.6365C343.6 84.6407 343.527 84.6293 343.458 84.603C343.389 84.5768 343.327 84.5363 343.275 84.4843C343.223 84.4322 343.182 84.3698 343.156 84.301C343.13 84.2323 343.119 84.1587 343.123 84.0852L342.815 73.0731C342.802 72.9188 342.846 72.7651 342.94 72.642C343.034 72.5189 343.171 72.4352 343.323 72.4073L348.514 71.8559C348.587 71.8528 348.66 71.865 348.728 71.8917C348.796 71.9184 348.857 71.9591 348.908 72.011C348.96 72.0629 349 72.125 349.025 72.1933C349.051 72.2615 349.062 72.3344 349.058 72.4073L349.373 83.4193C349.387 83.5737 349.342 83.7274 349.248 83.8505C349.154 83.9736 349.017 84.0573 348.865 84.0852Z" fill="#263238"/>
<path opacity="0.7" d="M348.865 84.0852L343.674 84.6365C343.6 84.6407 343.527 84.6293 343.458 84.603C343.389 84.5768 343.327 84.5363 343.275 84.4843C343.223 84.4322 343.182 84.3698 343.156 84.301C343.13 84.2323 343.119 84.1587 343.123 84.0852L342.815 73.0731C342.802 72.9188 342.846 72.7651 342.94 72.642C343.034 72.5189 343.171 72.4352 343.323 72.4073L348.514 71.8559C348.587 71.8528 348.66 71.865 348.728 71.8917C348.796 71.9184 348.857 71.9591 348.908 72.011C348.96 72.0629 349 72.125 349.025 72.1933C349.051 72.2615 349.062 72.3344 349.058 72.4073L349.373 83.4193C349.387 83.5737 349.342 83.7274 349.248 83.8505C349.154 83.9736 349.017 84.0573 348.865 84.0852Z" fill="white"/>
<path d="M348.521 72.0706L347.161 72.2138L346.989 72.6363L344.884 72.8582L344.691 72.4787L343.33 72.6219C343.232 72.6425 343.144 72.6981 343.084 72.7784C343.023 72.8588 342.994 72.9584 343.001 73.0587L343.309 84.0636C343.306 84.1115 343.313 84.1594 343.33 84.2043C343.347 84.2491 343.373 84.2899 343.407 84.3238C343.441 84.3577 343.481 84.384 343.526 84.4008C343.571 84.4177 343.619 84.4248 343.667 84.4216L348.858 83.8703C348.956 83.8513 349.043 83.7971 349.104 83.718C349.165 83.6388 349.194 83.5402 349.187 83.4407L348.879 72.4286C348.881 72.3811 348.874 72.3336 348.856 72.2893C348.839 72.2449 348.813 72.2046 348.779 72.171C348.745 72.1373 348.705 72.111 348.661 72.0937C348.616 72.0765 348.569 72.0686 348.521 72.0706Z" fill="#073B3A"/>
<path opacity="0.8" d="M347.825 76.0512L344.009 76.4593C343.962 76.4613 343.916 76.4536 343.872 76.4367C343.829 76.4198 343.789 76.394 343.756 76.361C343.723 76.328 343.697 76.2885 343.68 76.2451C343.664 76.2016 343.656 76.155 343.658 76.1084V75.0488C343.649 74.95 343.677 74.8514 343.736 74.7721C343.796 74.6927 343.883 74.6382 343.98 74.6192L347.804 74.211C347.85 74.2099 347.897 74.2186 347.94 74.2364C347.983 74.2542 348.022 74.2807 348.054 74.3144C348.086 74.3481 348.111 74.3881 348.127 74.4319C348.143 74.4758 348.15 74.5225 348.147 74.569L348.183 75.6287C348.189 75.7317 348.155 75.833 348.089 75.9117C348.022 75.9903 347.928 76.0403 347.825 76.0512Z" fill="white"/>
</g>
<defs>
<clipPath id="clip0_5665_86263">
<rect width="358" height="258" fill="white" transform="translate(92)"/>
</clipPath>
</defs>
</svg>
