<svg width="543" height="571" viewBox="0 0 543 571" fill="none" xmlns="http://www.w3.org/2000/svg">
<rect x="0.5" y="0.5" width="542" height="570" rx="15.5" fill="#ECF2F3"/>
<g clip-path="url(#clip0_5650_71768)">
<path d="M527.002 476.808C527.013 479.193 526.205 481.484 524.755 483.179C523.306 484.874 521.334 485.833 519.273 485.845H179.221C178.201 485.839 177.192 485.601 176.251 485.143C175.31 484.686 174.457 484.018 173.739 483.179C173.022 482.34 172.454 481.346 172.068 480.252C171.683 479.159 171.487 477.989 171.492 476.809V208.037C171.482 205.653 172.29 203.361 173.739 201.666C175.189 199.972 177.16 199.012 179.221 199H519.273C520.293 199.006 521.303 199.245 522.243 199.702C523.184 200.16 524.037 200.827 524.755 201.666C525.473 202.505 526.041 203.5 526.426 204.593C526.812 205.686 527.007 206.856 527.002 208.037V476.808Z" fill="#E6E6E6"/>
<path d="M522.989 472.408C522.989 474.726 522.193 476.948 520.777 478.587C519.36 480.226 517.44 481.146 515.437 481.146H183.286C181.283 481.146 179.362 480.226 177.946 478.587C176.53 476.948 175.734 474.726 175.734 472.408V212.562C175.734 210.245 176.53 208.022 177.946 206.384C179.362 204.745 181.283 203.824 183.286 203.824H515.452C517.452 203.829 519.369 204.752 520.782 206.39C522.195 208.028 522.989 210.248 522.989 212.562V472.408Z" fill="white"/>
<path d="M193.49 215.105H505.594C506.783 215.105 507.923 215.652 508.764 216.625C509.605 217.597 510.077 218.916 510.077 220.292V463.67C510.077 465.045 509.605 466.364 508.764 467.337C507.923 468.31 506.783 468.856 505.594 468.856H193.49C192.301 468.856 191.161 468.31 190.321 467.337C189.48 466.364 189.008 465.045 189.008 463.67V220.292C189.008 218.916 189.48 217.597 190.321 216.625C191.161 215.652 192.301 215.105 193.49 215.105Z" fill="#E6E6E6"/>
<path d="M197.435 220.941H501.299C502.488 220.941 503.628 221.488 504.469 222.461C505.309 223.433 505.782 224.752 505.782 226.128V456.519C505.782 457.894 505.309 459.213 504.469 460.186C503.628 461.159 502.488 461.705 501.299 461.705H197.435C196.247 461.705 195.107 461.159 194.266 460.186C193.425 459.213 192.953 457.894 192.953 456.519V226.128C192.953 224.752 193.425 223.433 194.266 222.461C195.107 221.488 196.247 220.941 197.435 220.941Z" fill="white"/>
<path d="M411.982 380.989C410.786 380.988 409.604 380.696 408.511 380.133C408.257 380.002 408.015 379.843 407.788 379.657L385.704 361.67C384.584 360.758 383.67 359.548 383.039 358.141C382.408 356.734 382.078 355.173 382.078 353.588V329.058C382.078 327.473 382.408 325.911 383.039 324.505C383.67 323.098 384.584 321.888 385.704 320.976L407.788 302.989C408.015 302.803 408.257 302.643 408.511 302.513C409.812 301.844 411.237 301.561 412.656 301.691C414.075 301.821 415.444 302.359 416.637 303.257C417.831 304.154 418.812 305.382 419.491 306.83C420.17 308.278 420.526 309.899 420.526 311.546V371.099C420.526 373.721 419.626 376.236 418.024 378.09C416.421 379.944 414.248 380.986 411.982 380.986L411.982 380.989Z" fill="#3F3D56"/>
<path d="M362.565 385.813H300.973C288.407 385.801 278.224 376.402 278.211 364.805V317.844C278.224 306.247 288.407 296.848 300.973 296.836H362.726C375.202 296.85 385.313 306.181 385.328 317.696V364.805C385.315 376.402 375.131 385.801 362.565 385.813Z" fill="#3F3D56"/>
<path d="M472.279 446.89C482.396 446.89 490.597 437.4 490.597 425.694C490.597 413.988 482.396 404.498 472.279 404.498C462.162 404.498 453.961 413.988 453.961 425.694C453.961 437.4 462.162 446.89 472.279 446.89Z" fill="#E6E6E6"/>
<path d="M481.795 425.315L467.194 415.561C467.136 415.522 467.071 415.502 467.004 415.502C466.938 415.502 466.872 415.522 466.815 415.561C466.757 415.599 466.709 415.655 466.676 415.721C466.643 415.788 466.625 415.864 466.625 415.941V435.45C466.625 435.527 466.643 435.603 466.676 435.669C466.709 435.736 466.757 435.791 466.815 435.83C466.872 435.868 466.938 435.889 467.004 435.889C467.071 435.889 467.136 435.868 467.194 435.83L481.795 426.075C481.853 426.037 481.901 425.981 481.934 425.915C481.967 425.848 481.985 425.772 481.985 425.695C481.985 425.618 481.967 425.543 481.934 425.476C481.901 425.409 481.853 425.354 481.795 425.315L467.194 415.561C467.136 415.522 467.071 415.502 467.004 415.502C466.938 415.502 466.872 415.522 466.815 415.561C466.757 415.599 466.709 415.655 466.676 415.721C466.643 415.788 466.625 415.864 466.625 415.941V435.45C466.625 435.527 466.643 435.603 466.676 435.669C466.709 435.736 466.757 435.791 466.815 435.83C466.872 435.868 466.938 435.889 467.004 435.889C467.071 435.889 467.136 435.868 467.194 435.83L481.795 426.075C481.853 426.037 481.901 425.981 481.934 425.915C481.967 425.848 481.985 425.772 481.985 425.695C481.985 425.618 481.967 425.543 481.934 425.476C481.901 425.409 481.853 425.354 481.795 425.315Z" fill="white"/>
<path d="M448.494 509.041C448.505 511.425 447.697 513.717 446.247 515.411C444.798 517.106 442.826 518.065 440.766 518.078H100.713C99.6931 518.072 98.6839 517.833 97.7433 517.376C96.8027 516.918 95.9492 516.251 95.2315 515.412C94.5138 514.572 93.946 513.578 93.5604 512.485C93.1749 511.392 92.9792 510.222 92.9845 509.041V240.269C92.9737 237.885 93.7819 235.594 95.2313 233.899C96.6807 232.204 98.6526 231.245 100.713 231.232H440.765C441.786 231.239 442.795 231.477 443.735 231.935C444.676 232.392 445.53 233.059 446.247 233.899C446.965 234.738 447.533 235.732 447.918 236.825C448.304 237.918 448.5 239.089 448.494 240.269V509.041Z" fill="#E6E6E6"/>
<path d="M444.481 504.64C444.481 506.958 443.685 509.181 442.269 510.819C440.853 512.458 438.932 513.379 436.929 513.379H104.778C102.775 513.379 100.855 512.458 99.4384 510.819C98.0222 509.181 97.2266 506.958 97.2266 504.64V244.795C97.2266 242.477 98.0222 240.255 99.4384 238.616C100.855 236.977 102.775 236.057 104.778 236.057H436.944C438.944 236.061 440.861 236.984 442.274 238.622C443.687 240.26 444.481 242.48 444.481 244.795V504.64Z" fill="white"/>
<path d="M114.982 247.338H427.087C428.275 247.338 429.416 247.884 430.256 248.857C431.097 249.83 431.569 251.149 431.569 252.524V495.902C431.569 497.278 431.097 498.597 430.256 499.57C429.416 500.542 428.275 501.089 427.087 501.089H114.982C113.794 501.089 112.653 500.542 111.813 499.57C110.972 498.597 110.5 497.278 110.5 495.902V252.524C110.5 251.149 110.972 249.83 111.813 248.857C112.653 247.884 113.794 247.338 114.982 247.338Z" fill="#E6E6E6"/>
<path d="M118.935 253.176H422.799C423.988 253.176 425.128 253.722 425.969 254.695C426.809 255.668 427.282 256.987 427.282 258.362V488.753C427.282 490.128 426.809 491.448 425.969 492.42C425.128 493.393 423.988 493.939 422.799 493.939H118.935C117.747 493.939 116.607 493.393 115.766 492.42C114.925 491.448 114.453 490.128 114.453 488.753V258.362C114.453 256.987 114.925 255.668 115.766 254.695C116.607 253.722 117.747 253.176 118.935 253.176Z" fill="white"/>
<path d="M333.482 413.223C332.286 413.222 331.104 412.931 330.011 412.367C329.757 412.237 329.515 412.077 329.288 411.892L307.204 393.905C306.084 392.992 305.17 391.782 304.539 390.375C303.908 388.969 303.578 387.407 303.578 385.823V361.292C303.578 359.707 303.908 358.146 304.539 356.739C305.17 355.333 306.084 354.122 307.204 353.21L329.288 335.223C329.515 335.037 329.757 334.878 330.011 334.747C331.312 334.078 332.737 333.795 334.156 333.925C335.575 334.055 336.944 334.593 338.137 335.491C339.331 336.388 340.312 337.617 340.991 339.065C341.67 340.512 342.026 342.134 342.026 343.781V403.334C342.026 405.956 341.126 408.47 339.524 410.324C337.921 412.179 335.748 413.22 333.482 413.22L333.482 413.223Z" fill="#3F3D56"/>
<path d="M284.058 418.046H222.465C209.9 418.034 199.716 408.635 199.703 397.037V350.077C199.716 338.479 209.9 329.08 222.465 329.068H284.218C296.695 329.082 306.805 338.413 306.82 349.929V397.037C306.807 408.635 296.624 418.034 284.058 418.046Z" fill="#3F3D56"/>
<path d="M393.771 479.125C403.888 479.125 412.089 469.635 412.089 457.929C412.089 446.222 403.888 436.732 393.771 436.732C383.654 436.732 375.453 446.222 375.453 457.929C375.453 469.635 383.654 479.125 393.771 479.125Z" fill="#E6E6E6"/>
<path d="M403.287 457.548L388.686 447.793C388.628 447.755 388.563 447.734 388.496 447.734C388.43 447.734 388.364 447.755 388.307 447.793C388.249 447.832 388.201 447.887 388.168 447.954C388.135 448.02 388.117 448.096 388.117 448.173V467.682C388.117 467.759 388.135 467.835 388.168 467.902C388.201 467.968 388.249 468.024 388.307 468.062C388.364 468.101 388.43 468.121 388.496 468.121C388.563 468.121 388.628 468.101 388.686 468.062L403.287 458.308C403.345 458.269 403.393 458.214 403.426 458.147C403.459 458.08 403.477 458.005 403.477 457.928C403.477 457.851 403.459 457.775 403.426 457.708C403.393 457.642 403.345 457.586 403.287 457.548L388.686 447.793C388.628 447.755 388.563 447.734 388.496 447.734C388.43 447.734 388.364 447.755 388.307 447.793C388.249 447.832 388.201 447.887 388.168 447.954C388.135 448.02 388.117 448.096 388.117 448.173V467.682C388.117 467.759 388.135 467.835 388.168 467.902C388.201 467.968 388.249 468.024 388.307 468.062C388.364 468.101 388.43 468.121 388.496 468.121C388.563 468.121 388.628 468.101 388.686 468.062L403.287 458.308C403.345 458.269 403.393 458.214 403.426 458.147C403.459 458.08 403.477 458.005 403.477 457.928C403.477 457.851 403.459 457.775 403.426 457.708C403.393 457.642 403.345 457.586 403.287 457.548Z" fill="white"/>
<path d="M371.51 545.963C371.521 548.347 370.712 550.639 369.263 552.333C367.814 554.028 365.842 554.987 363.781 555H23.729C22.7087 554.993 21.6995 554.755 20.7589 554.297C19.8183 553.84 18.9648 553.173 18.2471 552.333C17.5294 551.494 16.9616 550.5 16.576 549.407C16.1905 548.314 15.9948 547.143 16.0001 545.963V277.191C15.9893 274.807 16.7975 272.515 18.247 270.821C19.6964 269.126 21.6682 268.167 23.7288 268.154H363.781C364.801 268.16 365.811 268.399 366.751 268.857C367.692 269.314 368.545 269.981 369.263 270.82C369.981 271.66 370.548 272.654 370.934 273.747C371.32 274.84 371.515 276.01 371.51 277.191V545.963Z" fill="#E6E6E6"/>
<path d="M367.496 541.562C367.496 543.88 366.701 546.102 365.285 547.741C363.868 549.38 361.948 550.3 359.945 550.3H27.7938C25.791 550.3 23.8702 549.38 22.454 547.741C21.0378 546.102 20.2422 543.88 20.2422 541.562V281.717C20.2422 279.399 21.0378 277.177 22.454 275.538C23.8702 273.899 25.791 272.979 27.7938 272.979H359.96C361.96 272.983 363.877 273.906 365.29 275.544C366.703 277.182 367.496 279.402 367.496 281.717V541.562Z" fill="white"/>
<path d="M37.998 284.26H350.102C351.291 284.26 352.431 284.806 353.272 285.779C354.112 286.752 354.585 288.071 354.585 289.446V532.824C354.585 534.199 354.112 535.519 353.272 536.491C352.431 537.464 351.291 538.01 350.102 538.01H37.998C36.8092 538.01 35.6691 537.464 34.8285 536.491C33.9879 535.519 33.5156 534.199 33.5156 532.824V289.446C33.5156 288.071 33.9879 286.752 34.8285 285.779C35.6691 284.806 36.8092 284.26 37.998 284.26Z" fill="#E6E6E6"/>
<path d="M41.9433 290.096H345.807C346.396 290.096 346.979 290.23 347.522 290.491C348.066 290.751 348.56 291.133 348.977 291.615C349.393 292.096 349.723 292.668 349.948 293.297C350.174 293.927 350.289 294.601 350.289 295.282V525.673C350.289 526.354 350.174 527.028 349.948 527.658C349.723 528.287 349.393 528.859 348.977 529.34C348.56 529.822 348.066 530.204 347.522 530.465C346.979 530.725 346.396 530.859 345.807 530.859H41.9433C40.7545 530.859 39.6144 530.313 38.7738 529.34C37.9332 528.368 37.4609 527.048 37.4609 525.673V295.282C37.4609 293.907 37.9332 292.587 38.7738 291.615C39.6144 290.642 40.7545 290.096 41.9433 290.096Z" fill="white"/>
<path d="M256.498 450.145C255.302 450.144 254.119 449.853 253.027 449.289C252.773 449.159 252.53 448.999 252.303 448.814L230.22 430.826C229.1 429.914 228.186 428.704 227.555 427.297C226.924 425.891 226.594 424.329 226.594 422.744V398.214C226.594 396.629 226.924 395.068 227.555 393.661C228.186 392.254 229.1 391.044 230.22 390.132L252.303 372.145C252.53 371.959 252.773 371.8 253.027 371.669C254.328 371 255.752 370.717 257.171 370.847C258.591 370.977 259.959 371.515 261.153 372.413C262.347 373.31 263.328 374.539 264.007 375.986C264.686 377.434 265.042 379.055 265.042 380.703V440.256C265.042 442.878 264.142 445.392 262.539 447.246C260.937 449.1 258.764 450.142 256.498 450.142L256.498 450.145Z" fill="#45808B"/>
<path d="M207.073 454.967H145.481C132.915 454.956 122.732 445.557 122.719 433.959V386.999C122.732 375.401 132.915 366.002 145.481 365.99H207.234C219.71 366.004 229.821 375.335 229.836 386.85V433.959C229.823 445.557 219.639 454.956 207.073 454.967Z" fill="#45808B"/>
<path d="M316.787 516.045C326.904 516.045 335.105 506.555 335.105 494.848C335.105 483.142 326.904 473.652 316.787 473.652C306.67 473.652 298.469 483.142 298.469 494.848C298.469 506.555 306.67 516.045 316.787 516.045Z" fill="#3F3D56"/>
<path d="M326.303 494.47L311.702 484.715C311.644 484.677 311.579 484.656 311.512 484.656C311.445 484.656 311.38 484.677 311.322 484.715C311.265 484.754 311.217 484.809 311.184 484.876C311.15 484.942 311.133 485.018 311.133 485.095V504.604C311.133 504.681 311.15 504.757 311.184 504.824C311.217 504.89 311.265 504.946 311.322 504.984C311.38 505.023 311.445 505.043 311.512 505.043C311.579 505.043 311.644 505.023 311.702 504.984L326.303 495.23C326.361 495.191 326.409 495.136 326.442 495.069C326.475 495.002 326.493 494.927 326.493 494.85C326.493 494.773 326.475 494.697 326.442 494.63C326.409 494.564 326.361 494.508 326.303 494.47L311.702 484.715C311.644 484.677 311.579 484.656 311.512 484.656C311.445 484.656 311.38 484.677 311.322 484.715C311.265 484.754 311.217 484.809 311.184 484.876C311.15 484.942 311.133 485.018 311.133 485.095V504.604C311.133 504.681 311.15 504.757 311.184 504.824C311.217 504.89 311.265 504.946 311.322 504.984C311.38 505.023 311.445 505.043 311.512 505.043C311.579 505.043 311.644 505.023 311.702 504.984L326.303 495.23C326.361 495.191 326.409 495.136 326.442 495.069C326.475 495.002 326.493 494.927 326.493 494.85C326.493 494.773 326.475 494.697 326.442 494.63C326.409 494.564 326.361 494.508 326.303 494.47Z" fill="white"/>
</g>
<rect x="0.5" y="0.5" width="542" height="570" rx="15.5" stroke="#D9D9D9"/>
<defs>
<clipPath id="clip0_5650_71768">
<rect width="511" height="356" fill="white" transform="translate(16 199)"/>
</clipPath>
</defs>
</svg>
