<svg width="411" height="282" viewBox="0 0 411 282" fill="none" xmlns="http://www.w3.org/2000/svg">
<g clip-path="url(#clip0_6592_90339)">
<path d="M24.2632 94.9727H368.081C381.481 94.9727 392.344 105.855 392.344 119.28C392.344 132.705 381.481 143.588 368.081 143.588H24.2632C10.8627 143.588 0 132.705 0 119.28C0 105.855 10.8627 94.9727 24.2632 94.9727Z" fill="#073B3A"/>
<path d="M317.881 70.4609H389.263C390.97 70.4609 392.348 71.8409 392.348 73.5434C392.348 75.2459 390.97 76.6259 389.263 76.6259H317.881C316.174 76.6259 314.797 75.2459 314.797 73.5434C314.797 71.8409 316.174 70.4609 317.881 70.4609Z" fill="#E6EBEB"/>
<path d="M3.08437 0H74.4666C76.1735 0 77.551 1.38 77.551 3.0825C77.551 4.785 76.1735 6.165 74.4666 6.165H3.08437C1.37749 6.1725 0 4.7925 0 3.0825C0 1.38 1.37749 0 3.08437 0Z" fill="#E6EBEB"/>
<path d="M3.08437 26.9336H212.605C214.311 26.9336 215.689 28.3136 215.689 30.0236C215.689 31.7261 214.311 33.1061 212.605 33.1061H3.08437C1.37749 33.1061 0 31.7261 0 30.0236C0 28.3211 1.37749 26.9336 3.08437 26.9336Z" fill="#E6EBEB"/>
<path d="M175.008 195.659C175.008 211.829 188.094 224.939 204.234 224.939C209.123 224.939 213.727 223.739 217.77 221.616L246.091 266.616C247.827 269.369 251.533 270.059 254.138 268.109C256.571 266.286 257.096 262.851 255.321 260.376L224.171 217.064C229.883 211.716 233.461 204.104 233.461 195.659C233.461 179.489 220.375 166.379 204.234 166.379C188.094 166.379 175.008 179.489 175.008 195.659ZM179.02 195.659C179.02 181.709 190.31 170.391 204.242 170.391C218.174 170.391 229.463 181.701 229.463 195.659C229.463 209.609 218.174 220.926 204.242 220.926C190.317 220.926 179.02 209.616 179.02 195.659Z" fill="#484662"/>
</g>
<defs>
<clipPath id="clip0_6592_90339">
<rect width="411" height="282" fill="white"/>
</clipPath>
</defs>
</svg>
