<svg width="214" height="214" viewBox="0 0 214 214" fill="none" xmlns="http://www.w3.org/2000/svg">
<g clip-path="url(#clip0_7131_96102)">
<path d="M138.208 124.833H131.164L128.668 122.426C137.406 112.261 142.667 99.0642 142.667 84.7083C142.667 52.6975 116.719 26.75 84.7083 26.75C52.6975 26.75 26.75 52.6975 26.75 84.7083C26.75 116.719 52.6975 142.667 84.7083 142.667C99.0642 142.667 112.261 137.406 122.426 128.668L124.833 131.164V138.208L169.417 182.703L182.703 169.417L138.208 124.833V124.833ZM84.7083 124.833C62.5058 124.833 44.5833 106.911 44.5833 84.7083C44.5833 62.5058 62.5058 44.5833 84.7083 44.5833C106.911 44.5833 124.833 62.5058 124.833 84.7083C124.833 106.911 106.911 124.833 84.7083 124.833Z" fill="#8DA5A4"/>
</g>
<g clip-path="url(#clip1_7131_96102)">
<path d="M83.0013 64.2767L94.668 74.7767V93H90.0013V79H76.0013V93H71.3346V74.7767L83.0013 64.2767V64.2767ZM83.0013 58L59.668 79H66.668V97.6667H80.668V83.6667H85.3346V97.6667H99.3346V79H106.335L83.0013 58Z" fill="#B2C2C2"/>
</g>
<defs>
<clipPath id="clip0_7131_96102">
<rect width="214" height="214" fill="white"/>
</clipPath>
<clipPath id="clip1_7131_96102">
<rect width="56" height="56" fill="white" transform="translate(55 51)"/>
</clipPath>
</defs>
</svg>
