<svg width="543" height="571" viewBox="0 0 543 571" fill="none" xmlns="http://www.w3.org/2000/svg">
<rect x="0.5" y="0.5" width="542" height="570" rx="15.5" fill="white"/>
<g clipPath="url(#clip0_5650_71760)">
<path d="M379.193 553.15C375.527 553.146 371.921 552.006 368.709 549.835L70.4516 349.386C65.3579 345.953 61.5801 340.178 59.9471 333.327C58.314 326.476 58.9592 319.108 61.7409 312.841L187.608 30.0185C188.988 26.916 190.853 24.1781 193.094 21.9611C195.336 19.7441 197.911 18.0914 200.673 17.0974C203.434 16.1034 206.328 15.7876 209.189 16.1679C212.05 16.5483 214.822 17.6174 217.346 19.3142L515.604 219.764C520.698 223.196 524.476 228.971 526.109 235.823C527.742 242.674 527.097 250.041 524.315 256.309L398.448 539.131C397.074 542.239 395.211 544.982 392.969 547.2C390.726 549.418 388.148 551.067 385.383 552.052C383.373 552.778 381.288 553.148 379.193 553.15ZM370.512 545.786C374.736 548.625 379.706 549.285 384.327 547.622C388.948 545.959 392.842 542.108 395.152 536.916L521.019 254.094C523.324 248.901 523.858 242.796 522.505 237.119C521.152 231.443 518.022 226.657 513.802 223.813L215.544 23.3637C211.319 20.5246 206.35 19.8641 201.729 21.5275C197.108 23.1909 193.214 27.0418 190.903 32.2333L65.0365 315.056C62.7317 320.249 62.1972 326.353 63.5502 332.03C64.9033 337.707 68.0335 342.492 72.2541 345.336L370.512 545.786Z" fill="#F2F2F2"/>
<path d="M385.346 454.236C381.914 454.233 378.538 453.171 375.528 451.146L134.395 289.088C132.049 287.515 129.979 285.389 128.302 282.831C126.625 280.273 125.376 277.334 124.624 274.182C123.873 271.031 123.635 267.727 123.924 264.462C124.212 261.197 125.022 258.034 126.307 255.154L201.478 86.2434C202.76 83.3623 204.491 80.8198 206.573 78.761C208.654 76.7022 211.046 75.1674 213.61 74.2444C216.174 73.3214 218.861 73.0282 221.518 73.3815C224.175 73.7348 226.748 74.7277 229.093 76.3035L470.226 238.361C472.57 239.936 474.639 242.064 476.314 244.622C477.99 247.18 479.238 250.118 479.99 253.269C480.741 256.421 480.979 259.723 480.692 262.987C480.404 266.252 479.596 269.415 478.314 272.295L403.143 441.206C401.405 445.144 398.834 448.434 395.702 450.727C392.57 453.02 388.992 454.233 385.346 454.236Z" fill="#F2F2F2"/>
<path d="M377.857 553.077H37.9093C32.5149 553.07 27.3431 550.433 23.5287 545.746C19.7143 541.058 17.5686 534.703 17.5625 528.074V205.719C17.5686 199.089 19.7143 192.734 23.5287 188.047C27.3431 183.359 32.5149 180.722 37.9093 180.715H377.857C383.252 180.722 388.423 183.359 392.238 188.047C396.052 192.734 398.198 199.089 398.204 205.719V528.074C398.198 534.703 396.052 541.058 392.238 545.746C388.423 550.433 383.252 553.07 377.857 553.077Z" fill="white"/>
<path d="M377.86 555H37.9119C32.1025 554.992 26.5329 552.153 22.4251 547.105C18.3172 542.057 16.0065 535.212 16 528.073V205.718C16.0065 198.579 18.3172 191.735 22.4251 186.687C26.5329 181.639 32.1025 178.799 37.9119 178.791H377.86C383.669 178.799 389.239 181.639 393.347 186.687C397.454 191.735 399.765 198.579 399.772 205.718V528.073C399.765 535.212 397.454 542.057 393.347 547.105C389.239 552.153 383.669 554.992 377.86 555ZM37.9119 183.407C33.0984 183.414 28.4836 185.767 25.08 189.949C21.6763 194.132 19.7618 199.803 19.7563 205.718V528.073C19.7618 533.988 21.6763 539.659 25.08 543.842C28.4836 548.025 33.0984 550.377 37.9119 550.384H377.86C382.673 550.377 387.288 548.025 390.692 543.842C394.095 539.659 396.01 533.988 396.015 528.073V205.718C396.01 199.803 394.095 194.132 390.692 189.949C387.288 185.767 382.673 183.414 377.86 183.407H37.9119Z" fill="#E6E6E6"/>
<path d="M260.793 286.721C256.843 286.717 252.947 287.84 249.411 290.001C245.875 292.162 242.795 295.301 240.414 299.173C237.858 297.822 235.069 297.271 232.298 297.571C229.526 297.871 226.858 299.012 224.534 300.892C222.21 302.772 220.302 305.332 218.981 308.341C217.661 311.351 216.969 314.716 216.969 318.136H286.357C286.357 314.01 285.696 309.925 284.411 306.114C283.126 302.302 281.243 298.839 278.869 295.922C276.495 293.005 273.677 290.691 270.576 289.112C267.474 287.533 264.15 286.721 260.793 286.721Z" fill="#E6E6E6"/>
<path d="M108.777 409.688C131.513 409.688 149.945 387.038 149.945 359.098C149.945 331.158 131.513 308.508 108.777 308.508C86.0408 308.508 67.6094 331.158 67.6094 359.098C67.6094 387.038 86.0408 409.688 108.777 409.688Z" fill="#DDB771"/>
<path d="M349.914 463.356C348.404 463.794 346.857 464.013 345.306 464.01H70.4679C67.083 464.017 63.7523 462.966 60.7891 460.956L61.5215 459.663L92.1857 405.402L137.625 325.013L138.288 323.836L145.438 311.188C145.918 310.337 146.559 309.641 147.306 309.161C148.053 308.681 148.883 308.43 149.726 308.43C150.569 308.43 151.4 308.681 152.147 309.161C152.893 309.641 153.535 310.337 154.015 311.188L177.767 353.202V353.209L191.741 377.936L225.097 436.945L275.688 348.201C276.17 347.355 276.811 346.664 277.557 346.186C278.302 345.709 279.13 345.46 279.971 345.46C280.811 345.46 281.639 345.709 282.385 346.186C283.13 346.664 283.771 347.355 284.253 348.201L316.708 405.125L318.573 408.394L349.914 463.356Z" fill="#073B3A"/>
<path d="M206.155 339.176C201.282 339.171 196.475 340.557 192.112 343.223C187.749 345.888 183.95 349.762 181.012 354.539C177.859 352.872 174.418 352.193 170.998 352.563C167.579 352.933 164.287 354.341 161.42 356.66C158.552 358.979 156.198 362.137 154.569 365.85C152.94 369.564 152.087 373.716 152.086 377.934H237.695C237.695 372.845 236.879 367.805 235.294 363.102C233.709 358.4 231.385 354.127 228.457 350.528C225.528 346.929 222.051 344.074 218.224 342.126C214.398 340.178 210.296 339.176 206.155 339.176Z" fill="#CCCCCC"/>
<path d="M345.303 464.78H70.4645C67.7507 464.783 65.0631 464.128 62.5554 462.853C60.0477 461.578 57.7692 459.708 55.8503 457.35C53.9314 454.992 52.4097 452.192 51.3723 449.11C50.3349 446.029 49.8022 442.726 49.8047 439.391V246.871C49.8109 240.14 51.9895 233.686 55.8626 228.927C59.7358 224.167 64.9871 221.49 70.4645 221.482H345.303C350.78 221.49 356.031 224.167 359.904 228.927C363.778 233.686 365.956 240.14 365.962 246.871V439.391C365.966 442.726 365.433 446.029 364.396 449.111C363.359 452.193 361.837 454.994 359.918 457.352C357.999 459.71 355.72 461.58 353.212 462.855C350.704 464.129 348.017 464.783 345.303 464.78ZM70.4645 223.021C65.3191 223.028 60.386 225.543 56.7476 230.014C53.1092 234.486 51.0626 240.548 51.0568 246.871V439.391C51.0544 442.524 51.5547 445.627 52.5292 448.522C53.5037 451.417 54.9332 454.047 56.7358 456.262C58.5385 458.477 60.6789 460.234 63.0347 461.431C65.3904 462.629 67.9152 463.244 70.4645 463.241H345.303C347.852 463.245 350.377 462.63 352.733 461.433C355.089 460.236 357.23 458.479 359.033 456.264C360.835 454.048 362.265 451.418 363.239 448.522C364.213 445.627 364.713 442.524 364.71 439.391V246.871C364.704 240.548 362.658 234.486 359.019 230.014C355.381 225.543 350.448 223.028 345.303 223.021H70.4645Z" fill="#073B3A"/>
</g>
<rect x="0.5" y="0.5" width="542" height="570" rx="15.5" stroke="#D9D9D9"/>
<defs>
<clipPath id="clip0_5650_71760">
<rect width="511" height="539" fill="white" transform="translate(16 16)"/>
</clipPath>
</defs>
</svg>
