<svg width="384" height="291" viewBox="0 0 384 291" fill="none" xmlns="http://www.w3.org/2000/svg">
<g clip-path="url(#clip0_7839_121313)">
<path d="M183.092 290.762H34.7915C33.6285 290.762 32.5131 290.299 31.6907 289.474C30.8683 288.65 30.4062 287.532 30.4062 286.366V-5.16216C30.4164 -6.32133 30.8829 -7.42957 31.7042 -8.24565C32.5255 -9.06173 33.6351 -9.51958 34.7915 -9.51953H183.092C183.668 -9.51953 184.238 -9.40583 184.771 -9.18492C185.303 -8.964 185.786 -8.64021 186.193 -8.23201C186.6 -7.82382 186.923 -7.33922 187.144 -6.80589C187.364 -6.27256 187.478 -5.70094 187.478 -5.12367V286.366C187.478 286.943 187.364 287.515 187.144 288.048C186.923 288.582 186.6 289.066 186.193 289.474C185.786 289.883 185.303 290.206 184.771 290.427C184.238 290.648 183.668 290.762 183.092 290.762ZM34.7915 -9.36556C33.68 -9.36352 32.6146 -8.92002 31.8287 -8.13217C31.0427 -7.34432 30.6003 -6.27635 30.5982 -5.16216V286.366C30.6003 287.48 31.0427 288.548 31.8287 289.336C32.6146 290.124 33.68 290.567 34.7915 290.569H183.092C184.204 290.567 185.269 290.124 186.055 289.336C186.841 288.548 187.284 287.48 187.286 286.366V-5.16216C187.284 -6.27635 186.841 -7.34432 186.055 -8.13217C185.269 -8.92002 184.204 -9.36352 183.092 -9.36556H34.7915Z" fill="#EBEBEB"/>
<path d="M349.21 290.762H200.909C199.746 290.762 198.63 290.299 197.808 289.474C196.985 288.65 196.523 287.532 196.523 286.366V-5.16216C196.534 -6.32133 197 -7.42957 197.821 -8.24565C198.643 -9.06173 199.752 -9.51958 200.909 -9.51953H349.21C350.373 -9.51953 351.488 -9.0564 352.31 -8.23201C353.133 -7.40763 353.595 -6.28952 353.595 -5.12367V286.366C353.595 286.943 353.481 287.515 353.261 288.048C353.041 288.582 352.718 289.066 352.31 289.474C351.903 289.883 351.42 290.206 350.888 290.427C350.356 290.648 349.785 290.762 349.21 290.762ZM200.909 -9.36556C199.797 -9.36352 198.732 -8.92002 197.946 -8.13217C197.16 -7.34432 196.717 -6.27635 196.715 -5.16216V286.366C196.717 287.48 197.16 288.548 197.946 289.336C198.732 290.124 199.797 290.567 200.909 290.569H349.21C350.321 290.567 351.386 290.124 352.172 289.336C352.958 288.548 353.401 287.48 353.403 286.366V-5.16216C353.401 -6.27635 352.958 -7.34432 352.172 -8.13217C351.386 -8.92002 350.321 -9.36352 349.21 -9.36556H200.909Z" fill="#EBEBEB"/>
<path d="M86.8213 77.6641L88.0655 80.1815L90.8456 80.5895L88.8335 82.5526L89.3096 85.3241L86.8213 84.0154L84.3407 85.3241L84.8168 82.5526L82.8047 80.5895L85.5848 80.1815L86.8213 77.6641Z" fill="#EBEBEB"/>
<path d="M335.384 196.398L336.628 198.924L339.408 199.332L337.396 201.287L337.872 204.066L335.384 202.757L332.903 204.066L333.379 201.287L331.367 199.332L334.147 198.924L335.384 196.398Z" fill="#F5F5F5"/>
<path d="M286.157 269.605L287.401 272.123L290.174 272.531L288.162 274.494L288.638 277.265L286.157 275.957L283.677 277.265L284.145 274.494L282.141 272.531L284.913 272.123L286.157 269.605Z" fill="#F5F5F5"/>
<path d="M173.527 32.9381L173.988 33.8773L175.025 34.0313C175.082 34.0389 175.137 34.0628 175.182 34.1003C175.227 34.1378 175.26 34.1873 175.277 34.2431C175.295 34.2988 175.297 34.3584 175.282 34.415C175.267 34.4716 175.236 34.5227 175.194 34.5625L174.426 35.2938L174.602 36.3254C174.611 36.3828 174.604 36.4417 174.582 36.4954C174.56 36.5491 174.524 36.5956 174.477 36.6299C174.43 36.6641 174.374 36.6847 174.317 36.6894C174.259 36.6941 174.201 36.6827 174.149 36.6565L173.228 36.1638L172.306 36.6565C172.254 36.6827 172.196 36.6941 172.138 36.6894C172.081 36.6847 172.025 36.6641 171.978 36.6299C171.931 36.5956 171.895 36.5491 171.873 36.4954C171.851 36.4417 171.844 36.3828 171.853 36.3254L172.022 35.2938L171.254 34.5625C171.211 34.5222 171.18 34.4704 171.166 34.4133C171.151 34.3561 171.153 34.296 171.172 34.24C171.191 34.1841 171.225 34.1347 171.271 34.0977C171.316 34.0607 171.372 34.0376 171.43 34.0313L172.46 33.8773L172.92 32.9381C172.939 32.8716 172.978 32.8131 173.033 32.7713C173.088 32.7296 173.155 32.707 173.224 32.707C173.292 32.707 173.359 32.7296 173.414 32.7713C173.469 32.8131 173.509 32.8716 173.527 32.9381Z" fill="#EBEBEB"/>
<path d="M46.6822 257.621L47.143 258.552L48.1721 258.706C48.2306 258.714 48.2855 258.739 48.3308 258.776C48.3761 258.814 48.4099 258.864 48.4283 258.92C48.4467 258.976 48.449 259.037 48.435 259.094C48.4209 259.151 48.391 259.204 48.3488 259.245L47.5808 259.969L47.7574 261C47.7665 261.058 47.7596 261.116 47.7374 261.17C47.7153 261.224 47.6787 261.27 47.6319 261.305C47.585 261.339 47.5296 261.36 47.4718 261.364C47.414 261.369 47.356 261.358 47.3043 261.331L46.3827 260.846L45.4611 261.331C45.4093 261.358 45.3514 261.369 45.2936 261.364C45.2358 261.36 45.1804 261.339 45.1335 261.305C45.0867 261.27 45.0501 261.224 45.028 261.17C45.0058 261.116 44.9989 261.058 45.008 261L45.1846 259.969L44.4166 259.245C44.3745 259.204 44.3445 259.153 44.3301 259.096C44.3156 259.039 44.3173 258.979 44.3348 258.923C44.3523 258.867 44.3851 258.817 44.4294 258.779C44.4737 258.741 44.5278 258.715 44.5856 258.706L45.6147 258.552L46.0832 257.621C46.1037 257.557 46.1437 257.502 46.1975 257.463C46.2514 257.423 46.3162 257.402 46.3827 257.402C46.4492 257.402 46.514 257.423 46.5678 257.463C46.6217 257.502 46.6617 257.557 46.6822 257.621Z" fill="#F5F5F5"/>
<path d="M67.392 23.0474L67.8528 23.9866L68.8896 24.1329C68.9474 24.1421 69.0015 24.1674 69.0458 24.2057C69.0901 24.244 69.1228 24.294 69.1404 24.35C69.1579 24.4059 69.1596 24.4657 69.1451 24.5225C69.1307 24.5794 69.1007 24.6311 69.0586 24.6718L68.2906 25.4417L68.4672 26.4656C68.4795 26.5237 68.4747 26.5841 68.4535 26.6396C68.4323 26.6951 68.3955 26.7432 68.3476 26.7782C68.2997 26.8132 68.2427 26.8335 68.1835 26.8368C68.1244 26.8401 68.0655 26.8261 68.0141 26.7966L67.0925 26.3116L66.1709 26.7966C66.1194 26.8261 66.0606 26.8401 66.0014 26.8368C65.9422 26.8335 65.8853 26.8132 65.8374 26.7782C65.7895 26.7432 65.7527 26.6951 65.7315 26.6396C65.7102 26.5841 65.7055 26.5237 65.7178 26.4656L65.8867 25.4417L65.1187 24.6718C65.0765 24.6306 65.0466 24.5783 65.0325 24.5209C65.0185 24.4634 65.0208 24.4032 65.0392 24.3471C65.0576 24.2909 65.0914 24.241 65.1366 24.2032C65.1819 24.1653 65.2369 24.141 65.2954 24.1329L66.3245 23.9866L66.816 23.0474C66.8407 22.9915 66.881 22.9439 66.9321 22.9105C66.9833 22.8771 67.043 22.8594 67.104 22.8594C67.165 22.8594 67.2247 22.8771 67.2758 22.9105C67.327 22.9439 67.3673 22.9915 67.392 23.0474Z" fill="#EBEBEB"/>
<path d="M66.1522 208.598C66.1537 208.801 66.0951 209 65.9838 209.169C65.8725 209.339 65.7135 209.471 65.527 209.55C65.3405 209.628 65.1349 209.65 64.9363 209.611C64.7376 209.572 64.5549 209.476 64.4113 209.333C64.2677 209.19 64.1696 209.007 64.1296 208.809C64.0895 208.61 64.1093 208.403 64.1864 208.216C64.2635 208.028 64.3944 207.868 64.5625 207.755C64.7307 207.642 64.9284 207.582 65.1308 207.582C65.4004 207.582 65.659 207.689 65.8503 207.879C66.0417 208.07 66.1502 208.328 66.1522 208.598Z" fill="#EBEBEB"/>
<path d="M211.715 80.4694C211.716 80.6722 211.658 80.8709 211.546 81.0403C211.435 81.2097 211.276 81.3421 211.09 81.4208C210.903 81.4995 210.697 81.5209 210.499 81.4822C210.3 81.4436 210.117 81.3467 209.974 81.2038C209.83 81.0609 209.732 80.8785 209.692 80.6797C209.652 80.4808 209.672 80.2746 209.749 80.087C209.826 79.8995 209.957 79.7391 210.125 79.6263C210.293 79.5134 210.491 79.4532 210.693 79.4532C210.827 79.4521 210.96 79.4777 211.084 79.5283C211.207 79.5789 211.32 79.6536 211.415 79.7481C211.51 79.8425 211.585 79.9549 211.637 80.0787C211.688 80.2025 211.715 80.3353 211.715 80.4694Z" fill="#EBEBEB"/>
<path d="M158.754 23.8911C158.754 24.0936 158.694 24.2916 158.582 24.4599C158.469 24.6283 158.31 24.7596 158.123 24.8371C157.937 24.9146 157.731 24.9348 157.533 24.8953C157.335 24.8558 157.153 24.7583 157.01 24.6151C156.867 24.4719 156.77 24.2895 156.731 24.0908C156.691 23.8922 156.711 23.6864 156.789 23.4993C156.866 23.3122 156.997 23.1523 157.165 23.0397C157.333 22.9272 157.53 22.8672 157.732 22.8672C158.003 22.8692 158.261 22.9777 158.452 23.1693C158.644 23.3609 158.752 23.6202 158.754 23.8911Z" fill="#F5F5F5"/>
<path d="M160.368 273.433C163.403 272.715 165.282 269.668 164.566 266.626C163.85 263.585 160.809 261.701 157.775 262.419C154.741 263.137 152.862 266.184 153.578 269.226C154.294 272.267 157.334 274.151 160.368 273.433Z" fill="#F0F0F0"/>
<path d="M157.133 264.617C155.977 264.615 154.849 264.982 153.915 265.664C153.438 266.762 153.32 267.983 153.58 269.152C153.84 270.32 154.464 271.376 155.361 272.166C156.258 272.957 157.382 273.441 158.572 273.55C159.761 273.658 160.954 273.385 161.979 272.77C162.433 271.929 162.66 270.984 162.64 270.028C162.62 269.073 162.353 268.138 161.864 267.317C161.376 266.496 160.683 265.816 159.853 265.344C159.024 264.872 158.087 264.625 157.133 264.625V264.617Z" fill="#E6E6E6"/>
<path d="M113.42 169.581H66.6875V148.433L113.42 92.7422H135.784V149.634H147.374V169.581H135.784V186.888H113.42V169.581ZM113.42 149.634V120.503L88.7214 149.634H113.42Z" fill="url(#paint0_linear_7839_121313)"/>
<path d="M155.37 140.227C155.37 122.628 158.529 110.31 164.847 103.274C171.165 96.2371 180.793 92.7214 193.732 92.7266C199.942 92.7266 205.044 93.4964 209.038 95.0361C212.666 96.3465 215.988 98.3875 218.799 101.033C221.169 103.301 223.176 105.921 224.751 108.801C226.31 111.808 227.484 115 228.246 118.301C229.982 125.354 230.849 132.593 230.826 139.857C230.826 156.65 227.992 168.939 222.324 176.725C216.656 184.511 206.895 188.407 193.04 188.412C185.268 188.412 178.989 187.17 174.201 184.686C169.376 182.161 165.311 178.39 162.428 173.761C160.201 170.353 158.468 165.691 157.229 159.773C155.942 153.339 155.319 146.789 155.37 140.227ZM180.822 140.288C180.822 152.093 181.858 160.143 183.932 164.438C186.006 168.734 189.019 170.892 192.971 170.913C194.226 170.927 195.47 170.691 196.633 170.219C197.796 169.748 198.854 169.049 199.745 168.164C201.66 166.332 203.068 163.438 203.969 159.481C204.87 155.524 205.321 149.365 205.321 141.004C205.321 128.717 204.281 120.457 202.203 116.222C200.124 111.988 197.006 109.874 192.848 109.879C188.609 109.879 185.537 112.037 183.632 116.353C181.728 120.67 180.791 128.648 180.822 140.288Z" fill="url(#paint1_linear_7839_121313)"/>
<path d="M285.498 169.581H238.766V148.433L285.498 92.7422H307.863V149.634H319.49V169.581H307.863V186.888H285.498V169.581ZM285.498 149.634V120.503L260.807 149.634H285.498Z" fill="url(#paint2_linear_7839_121313)"/>
<g opacity="0.3">
<path d="M154.365 60.2443C154.365 60.5294 154.28 60.808 154.122 61.0449C153.964 61.2818 153.739 61.4664 153.476 61.5751C153.213 61.6838 152.924 61.7119 152.645 61.6557C152.367 61.5995 152.111 61.4617 151.91 61.2596C151.71 61.0574 151.573 60.8002 151.519 60.5204C151.464 60.2407 151.494 59.951 151.604 59.6881C151.714 59.4251 151.899 59.2008 152.136 59.0436C152.373 58.8863 152.652 58.8032 152.936 58.8047C153.124 58.8047 153.311 58.842 153.484 58.9144C153.658 58.9869 153.816 59.093 153.949 59.2268C154.082 59.3606 154.187 59.5194 154.258 59.694C154.329 59.8686 154.366 60.0556 154.365 60.2443Z" fill="url(#paint3_linear_7839_121313)"/>
<path d="M56.0372 115.544C56.5971 115.544 57.051 115.089 57.051 114.528C57.051 113.967 56.5971 113.512 56.0372 113.512C55.4773 113.512 55.0234 113.967 55.0234 114.528C55.0234 115.089 55.4773 115.544 56.0372 115.544Z" fill="url(#paint4_linear_7839_121313)"/>
<path d="M223.522 263.945C224.323 263.945 224.973 263.294 224.973 262.49C224.973 261.687 224.323 261.035 223.522 261.035C222.72 261.035 222.07 261.687 222.07 262.49C222.07 263.294 222.72 263.945 223.522 263.945Z" fill="url(#paint5_linear_7839_121313)"/>
<path d="M258.428 204.747C258.988 204.747 259.442 204.292 259.442 203.731C259.442 203.17 258.988 202.715 258.428 202.715C257.868 202.715 257.414 203.17 257.414 203.731C257.414 204.292 257.868 204.747 258.428 204.747Z" fill="url(#paint6_linear_7839_121313)"/>
<path d="M325.762 21.7506C325.762 21.9516 325.702 22.148 325.591 22.3152C325.48 22.4823 325.321 22.6125 325.136 22.6894C324.951 22.7663 324.747 22.7865 324.55 22.7473C324.354 22.708 324.173 22.6113 324.031 22.4691C323.89 22.327 323.793 22.146 323.754 21.9488C323.715 21.7517 323.735 21.5474 323.812 21.3617C323.888 21.176 324.018 21.0173 324.185 20.9056C324.352 20.794 324.548 20.7344 324.748 20.7344C325.017 20.7344 325.275 20.8414 325.465 21.032C325.655 21.2226 325.762 21.4811 325.762 21.7506Z" fill="url(#paint7_linear_7839_121313)"/>
<path d="M132.668 1.25839C132.668 1.45938 132.609 1.65585 132.497 1.82297C132.386 1.99008 132.228 2.12033 132.042 2.19725C131.857 2.27416 131.653 2.29429 131.457 2.25508C131.26 2.21587 131.079 2.11908 130.938 1.97696C130.796 1.83484 130.699 1.65377 130.66 1.45665C130.621 1.25952 130.641 1.0552 130.718 0.869508C130.795 0.683821 130.924 0.52511 131.091 0.413447C131.258 0.301785 131.454 0.242188 131.654 0.242188C131.923 0.244202 132.179 0.351913 132.369 0.542054C132.559 0.732195 132.666 0.989502 132.668 1.25839Z" fill="url(#paint8_linear_7839_121313)"/>
<path d="M213.272 54.5793C213.831 54.5793 214.285 54.1243 214.285 53.5631C214.285 53.0019 213.831 52.5469 213.272 52.5469C212.712 52.5469 212.258 53.0019 212.258 53.5631C212.258 54.1243 212.712 54.5793 213.272 54.5793Z" fill="url(#paint9_linear_7839_121313)"/>
</g>
<path d="M108.46 54.5865C117.753 54.5865 125.287 47.0347 125.287 37.7191C125.287 28.4034 117.753 20.8516 108.46 20.8516C99.1665 20.8516 91.6328 28.4034 91.6328 37.7191C91.6328 47.0347 99.1665 54.5865 108.46 54.5865Z" fill="url(#paint10_linear_7839_121313)"/>
<path opacity="0.7" d="M108.46 54.5865C117.753 54.5865 125.287 47.0347 125.287 37.7191C125.287 28.4034 117.753 20.8516 108.46 20.8516C99.1665 20.8516 91.6328 28.4034 91.6328 37.7191C91.6328 47.0347 99.1665 54.5865 108.46 54.5865Z" fill="white"/>
<path opacity="0.2" d="M102.666 24.9923C100.375 24.9852 98.1058 25.449 95.9999 26.3549C93.4118 29.2064 91.8756 32.8602 91.647 36.7085C91.4184 40.5567 92.5111 44.3675 94.7434 47.5067C96.9757 50.6459 100.213 52.9243 103.917 53.9629C107.62 55.0015 111.567 54.7376 115.1 53.2151C117.291 50.7952 118.733 47.7897 119.253 44.5638C119.772 41.3378 119.346 38.03 118.026 35.0422C116.706 32.0543 114.549 29.5149 111.817 27.7323C109.085 25.9496 105.895 25.0004 102.635 25L102.666 24.9923Z" fill="url(#paint11_linear_7839_121313)"/>
<path opacity="0.2" d="M100.986 29.4499C100.986 29.7544 100.896 30.0521 100.727 30.3053C100.558 30.5585 100.319 30.7558 100.038 30.8724C99.7572 30.9889 99.4484 31.0194 99.1504 30.96C98.8524 30.9006 98.5788 30.7539 98.3639 30.5386C98.1491 30.3233 98.0028 30.0489 97.9436 29.7502C97.8843 29.4516 97.9147 29.142 98.031 28.8606C98.1472 28.5793 98.3441 28.3388 98.5967 28.1696C98.8493 28.0005 99.1463 27.9102 99.4501 27.9102C99.8574 27.9102 100.248 28.0724 100.536 28.3611C100.824 28.6499 100.986 29.0415 100.986 29.4499Z" fill="url(#paint12_linear_7839_121313)"/>
<path opacity="0.2" d="M119.08 27.9108C119.08 28.2153 118.99 28.513 118.821 28.7662C118.652 29.0194 118.412 29.2168 118.132 29.3333C117.851 29.4498 117.542 29.4803 117.244 29.4209C116.946 29.3615 116.673 29.2149 116.458 28.9995C116.243 28.7842 116.097 28.5099 116.037 28.2112C115.978 27.9125 116.008 27.6029 116.125 27.3216C116.241 27.0402 116.438 26.7998 116.69 26.6306C116.943 26.4614 117.24 26.3711 117.544 26.3711C117.951 26.3711 118.342 26.5333 118.63 26.8221C118.918 27.1108 119.08 27.5024 119.08 27.9108Z" fill="url(#paint13_linear_7839_121313)"/>
<path opacity="0.2" d="M116.007 38.904C116.007 39.4034 115.859 39.8916 115.582 40.3069C115.306 40.7222 114.912 41.0458 114.452 41.2369C113.991 41.4281 113.485 41.4781 112.996 41.3806C112.508 41.2832 112.059 41.0427 111.707 40.6895C111.354 40.3364 111.114 39.8865 111.017 39.3966C110.92 38.9068 110.97 38.3991 111.161 37.9377C111.351 37.4763 111.674 37.0819 112.088 36.8045C112.503 36.527 112.99 36.3789 113.488 36.3789C114.156 36.3789 114.797 36.6449 115.269 37.1185C115.741 37.592 116.007 38.2343 116.007 38.904Z" fill="url(#paint14_linear_7839_121313)"/>
<path opacity="0.2" d="M108.009 46.1024C108.009 46.7693 107.812 47.4213 107.442 47.9758C107.072 48.5303 106.547 48.9625 105.932 49.2177C105.318 49.4729 104.641 49.5397 103.989 49.4096C103.336 49.2795 102.737 48.9583 102.266 48.4868C101.796 48.0152 101.476 47.4144 101.346 46.7603C101.216 46.1062 101.283 45.4282 101.537 44.812C101.792 44.1959 102.223 43.6693 102.776 43.2987C103.329 42.9282 103.98 42.7305 104.645 42.7305C105.537 42.7305 106.393 43.0857 107.024 43.7181C107.655 44.3505 108.009 45.2081 108.009 46.1024Z" fill="url(#paint15_linear_7839_121313)"/>
<path d="M307.89 241.182C309.764 233.224 304.847 225.251 296.909 223.373C288.97 221.495 281.016 226.423 279.143 234.381C277.269 242.338 282.185 250.312 290.124 252.19C298.062 254.068 306.016 249.14 307.89 241.182Z" fill="url(#paint16_linear_7839_121313)"/>
<path opacity="0.3" d="M307.89 241.182C309.764 233.224 304.847 225.251 296.909 223.373C288.97 221.495 281.016 226.423 279.143 234.381C277.269 242.338 282.185 250.312 290.124 252.19C298.062 254.068 306.016 249.14 307.89 241.182Z" fill="white"/>
<path opacity="0.4" d="M302.839 226.319C299.565 225.328 296.049 225.508 292.893 226.827C289.736 228.146 287.135 230.523 285.533 233.552C283.931 236.58 283.427 240.073 284.108 243.432C284.79 246.791 286.613 249.809 289.268 251.97C290.645 252.389 292.076 252.602 293.515 252.601C296.564 252.601 299.538 251.654 302.029 249.892C304.52 248.129 306.405 245.637 307.427 242.757C308.448 239.878 308.556 236.752 307.734 233.808C306.913 230.865 305.203 228.249 302.839 226.319Z" fill="url(#paint17_linear_7839_121313)"/>
<path d="M279.42 242.222C263.653 249.659 275.411 255.394 297.629 247.388C318.204 239.974 326.045 230.628 307.613 233.53C308.604 237.418 282.837 247.48 279.42 242.222Z" fill="url(#paint18_linear_7839_121313)"/>
<path opacity="0.2" d="M302.669 92.7422C282.017 106.73 255.283 125.207 247.903 169.581H246.328C253.509 125.7 279.268 106.784 299.927 92.7422H302.669Z" fill="black"/>
<path d="M195.837 231.651C182.781 231.651 169.87 225.746 163.581 216.107C159.702 210.149 155.194 197.67 168.619 181.018L169.809 181.988C160.317 193.766 158.565 205.584 164.871 215.268C172.551 227.047 190.668 232.975 206.135 228.756C221.979 224.437 231.595 210.626 232.524 190.864C235.696 123.263 271.523 102.439 297.681 87.234C313.94 77.7879 325.682 70.967 323.102 56.5631C322.741 54.5692 321.95 53.1911 320.667 52.3443C317.326 50.1348 310.798 51.6668 303.241 53.4298C288.411 56.8941 268.105 61.6364 256.009 41.012L257.338 40.2422C268.858 59.8965 287.728 55.4853 302.896 51.944C310.798 50.104 317.618 48.5104 321.512 51.074C323.163 52.1595 324.177 53.8763 324.584 56.309C327.357 71.7677 314.6 79.1891 298.434 88.5813C272.575 103.609 237.17 124.187 234.037 190.972C233.069 211.45 223.039 225.777 206.512 230.281C203.03 231.21 199.44 231.671 195.837 231.651Z" fill="url(#paint19_linear_7839_121313)"/>
<path opacity="0.2" d="M195.837 231.651C182.781 231.651 169.87 225.746 163.581 216.107C159.702 210.149 155.194 197.67 168.619 181.018L169.809 181.988C160.317 193.766 158.565 205.584 164.871 215.268C172.551 227.047 190.668 232.975 206.135 228.756C221.979 224.437 231.595 210.626 232.524 190.864C235.696 123.263 271.523 102.439 297.681 87.234C313.94 77.7879 325.682 70.967 323.102 56.5631C322.741 54.5692 321.95 53.1911 320.667 52.3443C317.326 50.1348 310.798 51.6668 303.241 53.4298C288.411 56.8941 268.105 61.6364 256.009 41.012L257.338 40.2422C268.858 59.8965 287.728 55.4853 302.896 51.944C310.798 50.104 317.618 48.5104 321.512 51.074C323.163 52.1595 324.177 53.8763 324.584 56.309C327.357 71.7677 314.6 79.1891 298.434 88.5813C272.575 103.609 237.17 124.187 234.037 190.972C233.069 211.45 223.039 225.777 206.512 230.281C203.03 231.21 199.44 231.671 195.837 231.651Z" fill="white"/>
<path d="M240.195 22.8125C243.734 22.833 247.25 23.3857 250.625 24.4523C250.625 24.4523 259.073 38.9024 260.071 42.2128C259.718 45.477 254.227 50.8275 254.227 50.8275L240.195 22.8125Z" fill="url(#paint20_linear_7839_121313)"/>
<path opacity="0.3" d="M240.195 22.8125C243.734 22.833 247.25 23.3857 250.625 24.4523C250.625 24.4523 259.073 38.9024 260.071 42.2128C259.718 45.477 254.227 50.8275 254.227 50.8275L240.195 22.8125Z" fill="white"/>
<path d="M265.215 92.9693C261.962 88.9818 258.995 84.7678 256.337 80.3591C255.692 79.2454 255.08 78.1111 254.502 76.9564C254.171 76.302 253.856 75.6476 253.549 74.9855C253.146 74.3413 252.833 73.6444 252.62 72.9146C251.698 63.1606 255.031 55.9778 251.852 48.1484L239.195 53.1063C239.195 53.1063 240.271 67.056 242.728 75.432C244.264 80.6132 247.705 85.0937 251.03 89.2432C252.067 90.5366 253.065 91.8684 254.102 93.1695C255.139 94.4705 256.183 95.5252 257.174 96.7493C258.672 98.6046 259.163 100.383 258.034 102.569L257.842 102.916C257.52 103.486 259.025 104.132 259.977 102.916C261.513 100.93 261.298 101.053 262.635 99.3591C263.449 98.3352 264.378 97.2189 265.184 96.2797C265.573 95.8179 265.789 95.2344 265.795 94.63C265.801 94.0257 265.596 93.4383 265.215 92.9693Z" fill="url(#paint21_linear_7839_121313)"/>
<path opacity="0.7" d="M265.215 92.9693C261.962 88.9818 258.995 84.7678 256.337 80.3591C255.692 79.2454 255.08 78.1111 254.502 76.9564C254.171 76.302 253.856 75.6476 253.549 74.9855C253.146 74.3413 252.833 73.6444 252.62 72.9146C251.698 63.1606 255.031 55.9778 251.852 48.1484L239.195 53.1063C239.195 53.1063 240.271 67.056 242.728 75.432C244.264 80.6132 247.705 85.0937 251.03 89.2432C252.067 90.5366 253.065 91.8684 254.102 93.1695C255.139 94.4705 256.183 95.5252 257.174 96.7493C258.672 98.6046 259.163 100.383 258.034 102.569L257.842 102.916C257.52 103.486 259.025 104.132 259.977 102.916C261.513 100.93 261.298 101.053 262.635 99.3591C263.449 98.3352 264.378 97.2189 265.184 96.2797C265.573 95.8179 265.789 95.2344 265.795 94.63C265.801 94.0257 265.596 93.4383 265.215 92.9693Z" fill="white"/>
<path opacity="0.3" d="M262.12 88.957C260.111 91.1151 257.882 93.0556 255.469 94.7463C255.799 95.1159 256.122 95.5162 256.452 95.8703C258.868 94.2341 261.062 92.2907 262.98 90.0887L262.12 88.957Z" fill="url(#paint22_linear_7839_121313)"/>
<path opacity="0.3" d="M265.22 92.9711L265.128 92.8633C264.537 93.5429 264.194 94.4031 264.153 95.3037C264.103 95.9215 264.204 96.5422 264.445 97.1129L265.174 96.2429C265.556 95.7858 265.768 95.211 265.777 94.6152C265.785 94.0194 265.589 93.4388 265.22 92.9711Z" fill="url(#paint23_linear_7839_121313)"/>
<path d="M237.185 32.0525C235.813 34.112 234.167 35.9742 232.293 37.5878C231.254 38.4857 230.115 39.2607 228.899 39.8973C228.26 40.2255 227.597 40.506 226.917 40.7365L226.395 40.9059L226.226 40.952L225.865 41.0521C225.643 41.105 225.417 41.141 225.189 41.1599C224.541 41.2096 223.89 41.1497 223.262 40.9828C222.47 40.7575 221.71 40.4288 221.004 40.0051C220.435 39.6719 219.884 39.3096 219.353 38.9196C218.392 38.2037 217.474 37.4325 216.603 36.6101C214.923 35.0145 213.382 33.2787 211.995 31.4213C211.728 31.0594 211.595 30.6155 211.62 30.1661C211.645 29.7167 211.825 29.29 212.13 28.9597C212.435 28.6294 212.845 28.4161 213.29 28.3567C213.736 28.2973 214.187 28.3955 214.568 28.6344H214.629C216.442 29.7892 218.27 31.0055 220.051 32.091C220.958 32.6222 221.833 33.1611 222.701 33.5768C223.097 33.7848 223.505 33.9698 223.922 34.1311C224.182 34.2462 224.46 34.3139 224.744 34.3313C224.79 34.3313 224.744 34.2774 224.46 34.2851C224.37 34.2797 224.28 34.2797 224.191 34.2851L224.022 34.3236L224.275 34.1927C224.617 34.0087 224.947 33.8056 225.266 33.5845C225.953 33.0989 226.596 32.5527 227.186 31.9525C228.528 30.543 229.784 29.0545 230.949 27.495C231.588 26.7793 232.47 26.3284 233.422 26.2309C234.375 26.1333 235.33 26.3962 236.099 26.9679C236.868 27.5395 237.397 28.3787 237.581 29.3209C237.765 30.263 237.591 31.24 237.093 32.0602L237.185 32.0525Z" fill="url(#paint24_linear_7839_121313)"/>
<path opacity="0.7" d="M237.185 32.0525C235.813 34.112 234.167 35.9742 232.293 37.5878C231.254 38.4857 230.115 39.2607 228.899 39.8973C228.26 40.2255 227.597 40.506 226.917 40.7365L226.395 40.9059L226.226 40.952L225.865 41.0521C225.643 41.105 225.417 41.141 225.189 41.1599C224.541 41.2096 223.89 41.1497 223.262 40.9828C222.47 40.7575 221.71 40.4288 221.004 40.0051C220.435 39.6719 219.884 39.3096 219.353 38.9196C218.392 38.2037 217.474 37.4325 216.603 36.6101C214.923 35.0145 213.382 33.2787 211.995 31.4213C211.728 31.0594 211.595 30.6155 211.62 30.1661C211.645 29.7167 211.825 29.29 212.13 28.9597C212.435 28.6294 212.845 28.4161 213.29 28.3567C213.736 28.2973 214.187 28.3955 214.568 28.6344H214.629C216.442 29.7892 218.27 31.0055 220.051 32.091C220.958 32.6222 221.833 33.1611 222.701 33.5768C223.097 33.7848 223.505 33.9698 223.922 34.1311C224.182 34.2462 224.46 34.3139 224.744 34.3313C224.79 34.3313 224.744 34.2774 224.46 34.2851C224.37 34.2797 224.28 34.2797 224.191 34.2851L224.022 34.3236L224.275 34.1927C224.617 34.0087 224.947 33.8056 225.266 33.5845C225.953 33.0989 226.596 32.5527 227.186 31.9525C228.528 30.543 229.784 29.0545 230.949 27.495C231.588 26.7793 232.47 26.3284 233.422 26.2309C234.375 26.1333 235.33 26.3962 236.099 26.9679C236.868 27.5395 237.397 28.3787 237.581 29.3209C237.765 30.263 237.591 31.24 237.093 32.0602L237.185 32.0525Z" fill="white"/>
<path d="M209.113 26.9862L210.012 28.5259C210.012 28.5259 210.695 30.5429 212.07 30.9125L215.803 29.7038L215.611 29.3882C215.134 28.6645 215.188 27.2557 215.349 26.0855C215.511 24.9153 214.912 24.8768 214.466 25.1694C214.151 25.5333 213.929 25.9696 213.821 26.4396C213.638 26.1854 213.435 25.946 213.214 25.7237L212.078 24.5843C211.839 24.3506 211.522 24.216 211.188 24.2075C210.855 24.1989 210.531 24.317 210.281 24.5381L209.359 25.3618C209.14 25.5645 208.997 25.8357 208.952 26.1309C208.908 26.426 208.964 26.7276 209.113 26.9862Z" fill="url(#paint25_linear_7839_121313)"/>
<path opacity="0.7" d="M209.113 26.9862L210.012 28.5259C210.012 28.5259 210.695 30.5429 212.07 30.9125L215.803 29.7038L215.611 29.3882C215.134 28.6645 215.188 27.2557 215.349 26.0855C215.511 24.9153 214.912 24.8768 214.466 25.1694C214.151 25.5333 213.929 25.9696 213.821 26.4396C213.638 26.1854 213.435 25.946 213.214 25.7237L212.078 24.5843C211.839 24.3506 211.522 24.216 211.188 24.2075C210.855 24.1989 210.531 24.317 210.281 24.5381L209.359 25.3618C209.14 25.5645 208.997 25.8357 208.952 26.1309C208.908 26.426 208.964 26.7276 209.113 26.9862Z" fill="white"/>
<path d="M243.964 21.4449C239.824 22.5449 235.858 24.2215 232.183 26.4258C231.609 26.7856 231.159 27.3124 230.893 27.9357C230.627 28.559 230.557 29.249 230.693 29.9133C232.175 37.1807 235.546 46.9116 239.187 53.109L256.167 46.0648C256.282 43.0624 252.158 33.3468 247.957 23.9546C247.205 22.2686 245.753 21.0138 243.964 21.4449Z" fill="url(#paint26_linear_7839_121313)"/>
<path opacity="0.8" d="M243.964 21.4449C239.824 22.5449 235.858 24.2215 232.183 26.4258C231.609 26.7856 231.159 27.3124 230.893 27.9357C230.627 28.559 230.557 29.249 230.693 29.9133C232.175 37.1807 235.546 46.9116 239.187 53.109L256.167 46.0648C256.282 43.0624 252.158 33.3468 247.957 23.9546C247.205 22.2686 245.753 21.0138 243.964 21.4449Z" fill="white"/>
<path opacity="0.3" d="M250.598 29.9051L247.227 28.7734C247.995 30.752 250.706 33.254 252.603 34.7244C251.988 33.1847 251.305 31.568 250.598 29.9051Z" fill="url(#paint27_linear_7839_121313)"/>
<path d="M242.855 13.8221C241.449 11.143 238.416 9.79572 234.776 10.096C231.704 10.3577 228.985 13.4987 229.307 15.1924C229.63 16.8861 232.21 17.6097 232.702 18.1948L230.575 19.7345C230.323 19.9169 230.11 20.1484 229.95 20.4153C229.789 20.6821 229.684 20.9788 229.641 21.2873C229.598 21.5959 229.618 21.9099 229.699 22.2107C229.78 22.5114 229.921 22.7926 230.114 23.0372C231.012 24.1766 232.195 25.3468 232.879 26.209C238.761 26.055 243.116 23.8071 244.69 21.6438C244.099 18.9031 244.222 16.4857 242.855 13.8221Z" fill="url(#paint28_linear_7839_121313)"/>
<path opacity="0.8" d="M242.855 13.8221C241.449 11.143 238.416 9.79572 234.776 10.096C231.704 10.3577 228.985 13.4987 229.307 15.1924C229.63 16.8861 232.21 17.6097 232.702 18.1948L230.575 19.7345C230.323 19.9169 230.11 20.1484 229.95 20.4153C229.789 20.6821 229.684 20.9788 229.641 21.2873C229.598 21.5959 229.618 21.9099 229.699 22.2107C229.78 22.5114 229.921 22.7926 230.114 23.0372C231.012 24.1766 232.195 25.3468 232.879 26.209C238.761 26.055 243.116 23.8071 244.69 21.6438C244.099 18.9031 244.222 16.4857 242.855 13.8221Z" fill="white"/>
<path d="M239.965 15.4858C240.382 16.5594 240.473 17.7331 240.225 18.8584C239.978 19.9837 239.403 21.0101 238.573 21.808C237.744 22.6058 236.697 23.1392 235.565 23.3408C234.433 23.5424 233.267 23.403 232.214 22.9404C231.161 22.4778 230.269 21.7126 229.65 20.7417C229.03 19.7707 228.712 18.6376 228.736 17.4854C228.759 16.3333 229.122 15.2139 229.78 14.2687C230.438 13.3236 231.36 12.5951 232.431 12.1754C233.868 11.6142 235.468 11.6476 236.881 12.2682C238.293 12.8889 239.403 14.0461 239.965 15.4858Z" fill="#263238"/>
<path d="M289.835 84.8631C289.751 82.3303 289.635 82.5536 289.566 80.4211C289.52 79.1123 289.513 77.6573 289.505 76.4024C289.502 75.8065 289.295 75.2298 288.917 74.7697C288.539 74.3096 288.014 73.9944 287.431 73.8773C286.418 73.6694 285.396 73.477 284.359 73.2614C283.031 72.9766 281.717 72.6686 280.419 72.2914C279.406 71.9989 278.407 71.6755 277.417 71.3137C276.426 70.9519 275.312 70.5438 274.283 70.0665C273.07 69.5507 271.872 68.9964 270.689 68.4191C269.36 67.7878 268.047 67.1257 266.734 66.4559C261.68 58.0722 261.573 52.5447 256.151 46.0625L244.508 51.3437C244.508 51.3437 253.063 66.556 258.885 73.0074C262.241 76.7181 267.502 78.3963 272.194 79.6127C275.581 80.4827 279.014 81.1524 282.447 81.7914C283.783 82.0378 285.235 82.1301 286.387 82.9308C287.239 83.5859 287.824 84.5303 288.03 85.5868C288.082 85.8023 288.128 86.0179 288.169 86.2335C288.315 86.8801 289.889 86.3874 289.835 84.8631Z" fill="url(#paint29_linear_7839_121313)"/>
<path opacity="0.8" d="M289.835 84.8631C289.751 82.3303 289.635 82.5536 289.566 80.4211C289.52 79.1123 289.513 77.6573 289.505 76.4024C289.502 75.8065 289.295 75.2298 288.917 74.7697C288.539 74.3096 288.014 73.9944 287.431 73.8773C286.418 73.6694 285.396 73.477 284.359 73.2614C283.031 72.9766 281.717 72.6686 280.419 72.2914C279.406 71.9989 278.407 71.6755 277.417 71.3137C276.426 70.9519 275.312 70.5438 274.283 70.0665C273.07 69.5507 271.872 68.9964 270.689 68.4191C269.36 67.7878 268.047 67.1257 266.734 66.4559C261.68 58.0722 261.573 52.5447 256.151 46.0625L244.508 51.3437C244.508 51.3437 253.063 66.556 258.885 73.0074C262.241 76.7181 267.502 78.3963 272.194 79.6127C275.581 80.4827 279.014 81.1524 282.447 81.7914C283.783 82.0378 285.235 82.1301 286.387 82.9308C287.239 83.5859 287.824 84.5303 288.03 85.5868C288.082 85.8023 288.128 86.0179 288.169 86.2335C288.315 86.8801 289.889 86.3874 289.835 84.8631Z" fill="white"/>
<path opacity="0.3" d="M283.924 73.1633C283.463 73.0632 283.002 72.9631 282.534 72.8477C282.572 75.5113 281.328 80.0997 280.875 81.4931L282.334 81.7703C283.29 78.9971 283.826 76.0958 283.924 73.1633Z" fill="url(#paint30_linear_7839_121313)"/>
<path opacity="0.3" d="M289.529 76.4019C289.527 75.807 289.32 75.2311 288.944 74.7712C288.568 74.3112 288.045 73.9954 287.463 73.8767L286.695 73.7305C286.819 74.6056 287.265 75.4024 287.947 75.963C288.386 76.3693 288.911 76.6696 289.483 76.8407C289.529 76.7021 289.529 76.5481 289.529 76.4019Z" fill="url(#paint31_linear_7839_121313)"/>
<path d="M238.881 15.5327C239.188 16.7028 237.883 17.9269 236.846 16.9184C235.878 15.8783 234.819 14.9276 233.682 14.0776C232.614 13.4079 234.035 12.2377 235.717 12.6919C236.435 12.8726 237.098 13.2257 237.649 13.7206C238.2 14.2155 238.623 14.8374 238.881 15.5327Z" fill="white"/>
<path d="M238.965 52.7316C238.428 52.9318 239.411 53.8556 239.411 53.8556C239.411 53.8556 250.163 50.168 256.691 46.3726C256.707 46.1428 256.668 45.9126 256.577 45.7011C256.486 45.4895 256.346 45.3027 256.169 45.1562C250.582 48.0052 244.838 50.5343 238.965 52.7316Z" fill="url(#paint32_linear_7839_121313)"/>
<path opacity="0.5" d="M238.965 52.7316C238.428 52.9318 239.411 53.8556 239.411 53.8556C239.411 53.8556 250.163 50.168 256.691 46.3726C256.707 46.1428 256.668 45.9126 256.577 45.7011C256.486 45.4895 256.346 45.3027 256.169 45.1562C250.582 48.0052 244.838 50.5343 238.965 52.7316Z" fill="white"/>
<path d="M246.881 20.9347C249.001 22.0125 250.99 23.1442 253.025 24.399C254.016 25.0303 254.999 25.6693 255.974 26.3622C256.949 27.055 257.917 27.7633 258.893 28.564L259.254 28.8642L259.707 29.2799C259.977 29.5221 260.233 29.7791 260.475 30.0498C260.72 30.3192 260.928 30.581 261.127 30.8196C261.327 31.0583 261.542 31.3431 261.719 31.5895C262.434 32.5792 263.096 33.6072 263.7 34.6689C264.89 36.7277 265.918 38.8771 266.772 41.0972C266.93 41.5166 266.938 41.978 266.795 42.4028C266.652 42.8276 266.367 43.1896 265.988 43.4273C265.608 43.665 265.159 43.7637 264.715 43.7066C264.272 43.6495 263.861 43.4402 263.554 43.1142L263.516 43.068C261.98 41.4282 260.498 39.7037 259.008 38.0947C257.518 36.4857 256.005 34.8537 254.753 34.1377C253.01 33.0522 251.067 31.9667 249.139 30.9043L243.333 27.6709C242.433 27.1931 241.758 26.3764 241.459 25.4005C241.159 24.4245 241.259 23.3692 241.735 22.4667C242.212 21.5642 243.027 20.8885 244 20.5882C244.974 20.2879 246.027 20.3876 246.927 20.8654L246.881 20.9347Z" fill="url(#paint33_linear_7839_121313)"/>
<path opacity="0.8" d="M246.881 20.9347C249.001 22.0125 250.99 23.1442 253.025 24.399C254.016 25.0303 254.999 25.6693 255.974 26.3622C256.949 27.055 257.917 27.7633 258.893 28.564L259.254 28.8642L259.707 29.2799C259.977 29.5221 260.233 29.7791 260.475 30.0498C260.72 30.3192 260.928 30.581 261.127 30.8196C261.327 31.0583 261.542 31.3431 261.719 31.5895C262.434 32.5792 263.096 33.6072 263.7 34.6689C264.89 36.7277 265.918 38.8771 266.772 41.0972C266.93 41.5166 266.938 41.978 266.795 42.4028C266.652 42.8276 266.367 43.1896 265.988 43.4273C265.608 43.665 265.159 43.7637 264.715 43.7066C264.272 43.6495 263.861 43.4402 263.554 43.1142L263.516 43.068C261.98 41.4282 260.498 39.7037 259.008 38.0947C257.518 36.4857 256.005 34.8537 254.753 34.1377C253.01 33.0522 251.067 31.9667 249.139 30.9043L243.333 27.6709C242.433 27.1931 241.758 26.3764 241.459 25.4005C241.159 24.4245 241.259 23.3692 241.735 22.4667C242.212 21.5642 243.027 20.8885 244 20.5882C244.974 20.2879 246.027 20.3876 246.927 20.8654L246.881 20.9347Z" fill="white"/>
<path d="M268.59 44.94L267.937 43.3002C267.937 43.3002 267.576 41.2062 266.278 40.6211L262.438 41.2293L262.569 41.568C262.922 42.3379 262.653 43.7467 262.307 44.8707C261.962 45.9947 262.545 46.1409 263.037 45.9177C263.313 45.7945 263.582 45.2941 263.874 44.7629C264.017 45.0305 264.179 45.2878 264.358 45.5328L265.303 46.8338C265.5 47.1034 265.792 47.2882 266.119 47.351C266.447 47.4139 266.786 47.3501 267.069 47.1725L268.113 46.5028C268.358 46.3351 268.538 46.089 268.625 45.805C268.711 45.521 268.699 45.216 268.59 44.94Z" fill="url(#paint34_linear_7839_121313)"/>
<path opacity="0.8" d="M268.59 44.94L267.937 43.3002C267.937 43.3002 267.576 41.2062 266.278 40.6211L262.438 41.2293L262.569 41.568C262.922 42.3379 262.653 43.7467 262.307 44.8707C261.962 45.9947 262.545 46.1409 263.037 45.9177C263.313 45.7945 263.582 45.2941 263.874 44.7629C264.017 45.0305 264.179 45.2878 264.358 45.5328L265.303 46.8338C265.5 47.1034 265.792 47.2882 266.119 47.351C266.447 47.4139 266.786 47.3501 267.069 47.1725L268.113 46.5028C268.358 46.3351 268.538 46.089 268.625 45.805C268.711 45.521 268.699 45.216 268.59 44.94Z" fill="white"/>
<path opacity="0.3" d="M243.635 29.7891L242.698 29.8661L236.945 43.785C237.26 43.8077 237.576 43.7817 237.882 43.708C237.882 43.708 245.378 40.9057 247.644 39.8587C246.123 36.71 243.635 29.7891 243.635 29.7891Z" fill="url(#paint35_linear_7839_121313)"/>
<path d="M233.141 33.4354C233.84 37.0739 235.137 40.5705 236.981 43.7822C239.792 42.8122 244.476 40.98 246.75 39.933C245.222 36.6495 243.866 33.2884 242.687 29.8633C240.283 30.025 235.007 32.0497 233.141 33.4354Z" fill="white"/>
<path opacity="0.3" d="M238.841 36.4457C238.729 36.8222 238.507 37.1569 238.205 37.4073C237.903 37.6578 237.534 37.8128 237.144 37.8528C236.754 37.8927 236.361 37.8159 236.015 37.6319C235.668 37.4479 235.384 37.1651 235.198 36.8192C235.012 36.4733 234.933 36.0798 234.97 35.6887C235.007 35.2975 235.159 34.9262 235.407 34.6216C235.654 34.3171 235.987 34.0931 236.362 33.9779C236.736 33.8627 237.137 33.8615 237.512 33.9745C238.015 34.1259 238.438 34.4712 238.687 34.9345C238.936 35.3979 238.991 35.9414 238.841 36.4457Z" fill="url(#paint36_linear_7839_121313)"/>
<path opacity="0.6" d="M240.312 33.7993C240.282 33.9278 240.214 34.0442 240.117 34.1333C240.02 34.2223 239.898 34.2799 239.768 34.2984C239.637 34.3169 239.504 34.2954 239.386 34.2369C239.269 34.1783 239.171 34.0853 239.107 33.9702C239.042 33.8551 239.014 33.7231 239.026 33.5917C239.038 33.4603 239.089 33.3355 239.173 33.2337C239.257 33.132 239.369 33.058 239.496 33.0216C239.622 32.9851 239.757 32.9878 239.882 33.0294C240.037 33.0793 240.168 33.1865 240.248 33.3294C240.328 33.4723 240.351 33.6402 240.312 33.7993Z" fill="url(#paint37_linear_7839_121313)"/>
<path opacity="0.6" d="M242.035 33.1297C242.017 33.219 241.98 33.3035 241.928 33.3779C241.875 33.4523 241.808 33.5148 241.73 33.5616C241.652 33.6083 241.565 33.6382 241.475 33.6494C241.385 33.6605 241.293 33.6526 241.206 33.6262C241.119 33.5999 241.038 33.5556 240.97 33.4962C240.901 33.4368 240.845 33.3636 240.806 33.2814C240.767 33.1991 240.745 33.1096 240.742 33.0185C240.74 32.9274 240.756 32.8368 240.791 32.7524C240.815 32.671 240.856 32.5952 240.909 32.5294C240.963 32.4636 241.03 32.4091 241.105 32.369C241.179 32.329 241.262 32.3042 241.346 32.296C241.431 32.2878 241.516 32.2964 241.597 32.3213C241.761 32.3712 241.9 32.4841 241.982 32.6354C242.063 32.7867 242.083 32.9643 242.035 33.1297Z" fill="url(#paint38_linear_7839_121313)"/>
<path opacity="0.5" d="M244.44 39.1277L237.336 41.9377L236.914 40.5365L244.01 37.7266L244.44 39.1277Z" fill="url(#paint39_linear_7839_121313)"/>
<path opacity="0.2" d="M205.249 146.119C205.232 150.601 204.801 155.073 203.959 159.476C203.052 163.433 201.644 166.327 199.735 168.16C198.845 169.045 197.789 169.744 196.627 170.215C195.466 170.687 194.222 170.923 192.969 170.908C189.021 170.908 186.008 168.75 183.929 164.433C183.564 163.658 183.253 162.858 183 162.039C178.61 165.819 174.522 169.937 170.773 174.357L166.695 179.176C168.89 181.406 171.422 183.274 174.199 184.711C178.981 187.19 185.258 188.432 193.03 188.437C194.397 188.437 195.718 188.399 197.001 188.322C201.703 181.348 205.594 173.857 208.597 165.996L220.002 136.188L205.249 146.119Z" fill="black"/>
<path d="M102.438 186.791L115.877 200.264L153.509 164.719C140.538 159.754 115.317 173.85 102.438 186.791Z" fill="#263238"/>
<path d="M149.307 233.754C145.014 229.443 135.867 220.281 135.867 220.281L171.326 182.559C176.249 195.531 162.187 220.836 149.307 233.754Z" fill="#263238"/>
<path d="M200.754 148.838L215.415 120.5L187.145 135.212C178.065 139.933 169.68 145.891 162.231 152.919L114.039 198.394L137.717 222.128L183.082 173.82C190.096 166.351 196.043 157.944 200.754 148.838Z" fill="url(#paint40_linear_7839_121313)"/>
<path opacity="0.6" d="M200.754 148.838L215.415 120.5L187.145 135.212C178.065 139.933 169.68 145.891 162.231 152.919L114.039 198.394L137.717 222.128L183.082 173.82C190.096 166.351 196.043 157.944 200.754 148.838Z" fill="white"/>
<path d="M170.649 175.308C176.121 175.308 180.557 170.861 180.557 165.376C180.557 159.892 176.121 155.445 170.649 155.445C165.178 155.445 160.742 159.892 160.742 165.376C160.742 170.861 165.178 175.308 170.649 175.308Z" fill="white"/>
<path d="M170.648 171.756C174.164 171.756 177.015 168.899 177.015 165.374C177.015 161.85 174.164 158.992 170.648 158.992C167.132 158.992 164.281 161.85 164.281 165.374C164.281 168.899 167.132 171.756 170.648 171.756Z" fill="url(#paint41_linear_7839_121313)"/>
<path opacity="0.3" d="M145.725 213.598L122.539 190.356L141.524 172.449L163.589 194.575L145.725 213.598Z" fill="url(#paint42_linear_7839_121313)"/>
<path d="M107.685 208.055C90.3285 209.464 84.5762 220.603 82.6101 235.408C81.6117 242.96 81.1663 250.604 74.8456 255.023C74.4654 255.283 74.1791 255.658 74.0296 256.094C73.8802 256.53 73.8756 257.002 74.0165 257.441C74.1575 257.88 74.4364 258.261 74.8116 258.527C75.1867 258.794 75.6379 258.931 76.0974 258.919C99.3986 258.188 110.266 246.755 111.633 241.982C111.274 244.477 110.632 246.923 109.72 249.273C109.553 249.687 109.52 250.144 109.627 250.579C109.733 251.013 109.974 251.403 110.314 251.692C110.655 251.981 111.078 252.155 111.523 252.189C111.968 252.224 112.412 252.116 112.792 251.882C119.328 247.779 127.53 240.219 128.076 227.955C123.268 221.127 107.685 208.055 107.685 208.055Z" fill="url(#paint43_linear_7839_121313)"/>
<path opacity="0.2" d="M107.685 208.055C90.3285 209.464 84.5762 220.603 82.6101 235.408C81.6117 242.96 81.1663 250.604 74.8456 255.023C74.4654 255.283 74.1791 255.658 74.0296 256.094C73.8802 256.53 73.8756 257.002 74.0165 257.441C74.1575 257.88 74.4364 258.261 74.8116 258.527C75.1867 258.794 75.6379 258.931 76.0974 258.919C99.3986 258.188 110.266 246.755 111.633 241.982C111.274 244.477 110.632 246.923 109.72 249.273C109.553 249.687 109.52 250.144 109.627 250.579C109.733 251.013 109.974 251.403 110.314 251.692C110.655 251.981 111.078 252.155 111.523 252.189C111.968 252.224 112.412 252.116 112.792 251.882C119.328 247.779 127.53 240.219 128.076 227.955C123.268 221.127 107.685 208.055 107.685 208.055Z" fill="white"/>
<path d="M130.77 233.212L102.969 205.343L117.776 202.133L133.973 218.369L130.77 233.212Z" fill="url(#paint44_linear_7839_121313)"/>
</g>
<defs>
<linearGradient id="paint0_linear_7839_121313" x1="90.7729" y1="83.1252" x2="157.174" y2="91.357" gradientUnits="userSpaceOnUse">
<stop stop-color="#EA4335"/>
<stop offset="1" stop-color="#760D0D"/>
</linearGradient>
<linearGradient id="paint1_linear_7839_121313" x1="177.892" y1="82.9523" x2="240.137" y2="90.0527" gradientUnits="userSpaceOnUse">
<stop stop-color="#EA4335"/>
<stop offset="1" stop-color="#760D0D"/>
</linearGradient>
<linearGradient id="paint2_linear_7839_121313" x1="262.862" y1="83.1252" x2="329.295" y2="91.3647" gradientUnits="userSpaceOnUse">
<stop stop-color="#EA4335"/>
<stop offset="1" stop-color="#760D0D"/>
</linearGradient>
<linearGradient id="paint3_linear_7839_121313" x1="152.35" y1="58.5106" x2="154.701" y2="58.8499" gradientUnits="userSpaceOnUse">
<stop stop-color="#EA4335"/>
<stop offset="1" stop-color="#760D0D"/>
</linearGradient>
<linearGradient id="paint4_linear_7839_121313" x1="55.6287" y1="113.304" x2="57.2883" y2="113.544" gradientUnits="userSpaceOnUse">
<stop stop-color="#EA4335"/>
<stop offset="1" stop-color="#760D0D"/>
</linearGradient>
<linearGradient id="paint5_linear_7839_121313" x1="222.937" y1="260.738" x2="225.313" y2="261.081" gradientUnits="userSpaceOnUse">
<stop stop-color="#EA4335"/>
<stop offset="1" stop-color="#760D0D"/>
</linearGradient>
<linearGradient id="paint6_linear_7839_121313" x1="258.019" y1="202.507" x2="259.679" y2="202.747" gradientUnits="userSpaceOnUse">
<stop stop-color="#EA4335"/>
<stop offset="1" stop-color="#760D0D"/>
</linearGradient>
<linearGradient id="paint7_linear_7839_121313" x1="324.34" y1="20.5268" x2="325.999" y2="20.7663" gradientUnits="userSpaceOnUse">
<stop stop-color="#EA4335"/>
<stop offset="1" stop-color="#760D0D"/>
</linearGradient>
<linearGradient id="paint8_linear_7839_121313" x1="131.246" y1="0.0345756" x2="132.906" y2="0.274065" gradientUnits="userSpaceOnUse">
<stop stop-color="#EA4335"/>
<stop offset="1" stop-color="#760D0D"/>
</linearGradient>
<linearGradient id="paint9_linear_7839_121313" x1="212.863" y1="52.3393" x2="214.523" y2="52.5788" gradientUnits="userSpaceOnUse">
<stop stop-color="#EA4335"/>
<stop offset="1" stop-color="#760D0D"/>
</linearGradient>
<linearGradient id="paint10_linear_7839_121313" x1="101.679" y1="17.4055" x2="129.226" y2="21.3807" gradientUnits="userSpaceOnUse">
<stop stop-color="#EA4335"/>
<stop offset="1" stop-color="#760D0D"/>
</linearGradient>
<linearGradient id="paint11_linear_7839_121313" x1="99.9308" y1="21.9691" x2="122.779" y2="25.0793" gradientUnits="userSpaceOnUse">
<stop stop-color="#EA4335"/>
<stop offset="1" stop-color="#760D0D"/>
</linearGradient>
<linearGradient id="paint12_linear_7839_121313" x1="98.8311" y1="27.5956" x2="101.346" y2="27.9585" gradientUnits="userSpaceOnUse">
<stop stop-color="#EA4335"/>
<stop offset="1" stop-color="#760D0D"/>
</linearGradient>
<linearGradient id="paint13_linear_7839_121313" x1="116.925" y1="26.0565" x2="119.439" y2="26.4194" gradientUnits="userSpaceOnUse">
<stop stop-color="#EA4335"/>
<stop offset="1" stop-color="#760D0D"/>
</linearGradient>
<linearGradient id="paint14_linear_7839_121313" x1="112.473" y1="35.863" x2="116.597" y2="36.4581" gradientUnits="userSpaceOnUse">
<stop stop-color="#EA4335"/>
<stop offset="1" stop-color="#760D0D"/>
</linearGradient>
<linearGradient id="paint15_linear_7839_121313" x1="103.29" y1="42.0416" x2="108.797" y2="42.8362" gradientUnits="userSpaceOnUse">
<stop stop-color="#EA4335"/>
<stop offset="1" stop-color="#760D0D"/>
</linearGradient>
<linearGradient id="paint16_linear_7839_121313" x1="274.839" y1="239.492" x2="283.833" y2="216.726" gradientUnits="userSpaceOnUse">
<stop stop-color="#EA4335"/>
<stop offset="1" stop-color="#760D0D"/>
</linearGradient>
<linearGradient id="paint17_linear_7839_121313" x1="291.116" y1="222.938" x2="311.214" y2="225.581" gradientUnits="userSpaceOnUse">
<stop stop-color="#EA4335"/>
<stop offset="1" stop-color="#760D0D"/>
</linearGradient>
<linearGradient id="paint18_linear_7839_121313" x1="285.855" y1="231.122" x2="319.688" y2="243.391" gradientUnits="userSpaceOnUse">
<stop stop-color="#EA4335"/>
<stop offset="1" stop-color="#760D0D"/>
</linearGradient>
<linearGradient id="paint19_linear_7839_121313" x1="208.969" y1="20.6897" x2="345.017" y2="37.6901" gradientUnits="userSpaceOnUse">
<stop stop-color="#EA4335"/>
<stop offset="1" stop-color="#760D0D"/>
</linearGradient>
<linearGradient id="paint20_linear_7839_121313" x1="246.128" y1="19.9508" x2="262.564" y2="21.6374" gradientUnits="userSpaceOnUse">
<stop stop-color="#EA4335"/>
<stop offset="1" stop-color="#760D0D"/>
</linearGradient>
<linearGradient id="paint21_linear_7839_121313" x1="247.136" y1="42.4834" x2="269.256" y2="44.0181" gradientUnits="userSpaceOnUse">
<stop stop-color="#EA4335"/>
<stop offset="1" stop-color="#760D0D"/>
</linearGradient>
<linearGradient id="paint22_linear_7839_121313" x1="257.711" y1="88.2508" x2="263.836" y2="89.2134" gradientUnits="userSpaceOnUse">
<stop stop-color="#EA4335"/>
<stop offset="1" stop-color="#760D0D"/>
</linearGradient>
<linearGradient id="paint23_linear_7839_121313" x1="264.629" y1="92.4292" x2="265.992" y2="92.5051" gradientUnits="userSpaceOnUse">
<stop stop-color="#EA4335"/>
<stop offset="1" stop-color="#760D0D"/>
</linearGradient>
<linearGradient id="paint24_linear_7839_121313" x1="219.389" y1="24.6822" x2="239.849" y2="29.8306" gradientUnits="userSpaceOnUse">
<stop stop-color="#EA4335"/>
<stop offset="1" stop-color="#760D0D"/>
</linearGradient>
<linearGradient id="paint25_linear_7839_121313" x1="210.987" y1="23.5221" x2="216.6" y2="24.3534" gradientUnits="userSpaceOnUse">
<stop stop-color="#EA4335"/>
<stop offset="1" stop-color="#760D0D"/>
</linearGradient>
<linearGradient id="paint26_linear_7839_121313" x1="238.25" y1="18.1161" x2="259.31" y2="20.5671" gradientUnits="userSpaceOnUse">
<stop stop-color="#EA4335"/>
<stop offset="1" stop-color="#760D0D"/>
</linearGradient>
<linearGradient id="paint27_linear_7839_121313" x1="248.831" y1="28.1655" x2="253.248" y2="28.7427" gradientUnits="userSpaceOnUse">
<stop stop-color="#EA4335"/>
<stop offset="1" stop-color="#760D0D"/>
</linearGradient>
<linearGradient id="paint28_linear_7839_121313" x1="233.881" y1="8.40452" x2="246.516" y2="10.1479" gradientUnits="userSpaceOnUse">
<stop stop-color="#EA4335"/>
<stop offset="1" stop-color="#760D0D"/>
</linearGradient>
<linearGradient id="paint29_linear_7839_121313" x1="258.039" y1="41.9306" x2="294.946" y2="47.9133" gradientUnits="userSpaceOnUse">
<stop stop-color="#EA4335"/>
<stop offset="1" stop-color="#760D0D"/>
</linearGradient>
<linearGradient id="paint30_linear_7839_121313" x1="281.785" y1="71.9362" x2="284.327" y2="72.0618" gradientUnits="userSpaceOnUse">
<stop stop-color="#EA4335"/>
<stop offset="1" stop-color="#760D0D"/>
</linearGradient>
<linearGradient id="paint31_linear_7839_121313" x1="287.541" y1="73.4128" x2="289.869" y2="73.7195" gradientUnits="userSpaceOnUse">
<stop stop-color="#EA4335"/>
<stop offset="1" stop-color="#760D0D"/>
</linearGradient>
<linearGradient id="paint32_linear_7839_121313" x1="244.145" y1="44.2676" x2="257.878" y2="48.3528" gradientUnits="userSpaceOnUse">
<stop stop-color="#EA4335"/>
<stop offset="1" stop-color="#760D0D"/>
</linearGradient>
<linearGradient id="paint33_linear_7839_121313" x1="248.933" y1="18.0374" x2="269.804" y2="21.3548" gradientUnits="userSpaceOnUse">
<stop stop-color="#EA4335"/>
<stop offset="1" stop-color="#760D0D"/>
</linearGradient>
<linearGradient id="paint34_linear_7839_121313" x1="264.137" y1="39.9312" x2="269.448" y2="40.6682" gradientUnits="userSpaceOnUse">
<stop stop-color="#EA4335"/>
<stop offset="1" stop-color="#760D0D"/>
</linearGradient>
<linearGradient id="paint35_linear_7839_121313" x1="240.139" y1="28.3586" x2="248.97" y2="29.3345" gradientUnits="userSpaceOnUse">
<stop stop-color="#EA4335"/>
<stop offset="1" stop-color="#760D0D"/>
</linearGradient>
<linearGradient id="paint36_linear_7839_121313" x1="236.144" y1="33.4848" x2="239.388" y2="33.9529" gradientUnits="userSpaceOnUse">
<stop stop-color="#EA4335"/>
<stop offset="1" stop-color="#760D0D"/>
</linearGradient>
<linearGradient id="paint37_linear_7839_121313" x1="239.414" y1="32.8624" x2="240.483" y2="33.017" gradientUnits="userSpaceOnUse">
<stop stop-color="#EA4335"/>
<stop offset="1" stop-color="#760D0D"/>
</linearGradient>
<linearGradient id="paint38_linear_7839_121313" x1="241.136" y1="32.1539" x2="242.216" y2="32.3053" gradientUnits="userSpaceOnUse">
<stop stop-color="#EA4335"/>
<stop offset="1" stop-color="#760D0D"/>
</linearGradient>
<linearGradient id="paint39_linear_7839_121313" x1="239.161" y1="37.2964" x2="245.056" y2="38.8205" gradientUnits="userSpaceOnUse">
<stop stop-color="#EA4335"/>
<stop offset="1" stop-color="#760D0D"/>
</linearGradient>
<linearGradient id="paint40_linear_7839_121313" x1="144.301" y1="110.119" x2="227.283" y2="122.092" gradientUnits="userSpaceOnUse">
<stop stop-color="#EA4335"/>
<stop offset="1" stop-color="#760D0D"/>
</linearGradient>
<linearGradient id="paint41_linear_7839_121313" x1="168.082" y1="157.688" x2="178.505" y2="159.192" gradientUnits="userSpaceOnUse">
<stop stop-color="#EA4335"/>
<stop offset="1" stop-color="#760D0D"/>
</linearGradient>
<linearGradient id="paint42_linear_7839_121313" x1="134.793" y1="168.246" x2="168.394" y2="173.095" gradientUnits="userSpaceOnUse">
<stop stop-color="#EA4335"/>
<stop offset="1" stop-color="#760D0D"/>
</linearGradient>
<linearGradient id="paint43_linear_7839_121313" x1="90.0817" y1="202.859" x2="134.291" y2="209.668" gradientUnits="userSpaceOnUse">
<stop stop-color="#EA4335"/>
<stop offset="1" stop-color="#760D0D"/>
</linearGradient>
<linearGradient id="paint44_linear_7839_121313" x1="112.224" y1="198.958" x2="137.603" y2="202.62" gradientUnits="userSpaceOnUse">
<stop stop-color="#EA4335"/>
<stop offset="1" stop-color="#760D0D"/>
</linearGradient>
<clipPath id="clip0_7839_121313">
<rect width="384" height="291" fill="white"/>
</clipPath>
</defs>
</svg>
