<svg width="616" height="606" viewBox="0 0 616 606" fill="none" xmlns="http://www.w3.org/2000/svg">
<path d="M61.6055 278.24H104.172V329.144H115.128V300.323H169.266V345.955H176.431V238.862H223.478V268.265H247.593V304.832H254.893V281.828H297.669V350.475H310.176V294.663H349.296V252.292H375.898V228.16H406.66V335.204H417V290.53H467.692V354.475H474.696V302.287H526.101V255.261H554.906V474.269H61.6055V278.24Z" fill="#EBEBEB"/>
<path d="M74.0255 294.373H66.8242V284.641H74.0255V294.373Z" fill="white"/>
<path d="M86.5077 294.373H79.3066V284.641H86.5077V294.373Z" fill="white"/>
<path d="M99.0038 294.373H91.8027V284.641H99.0038V294.373Z" fill="white"/>
<path d="M74.0255 309.009H66.8242V299.277H74.0255V309.009Z" fill="white"/>
<path d="M86.5077 309.009H79.3066V299.277H86.5077V309.009Z" fill="white"/>
<path d="M99.0038 309.009H91.8027V299.277H99.0038V309.009Z" fill="white"/>
<path d="M74.0255 323.65H66.8242V313.918H74.0255V323.65Z" fill="white"/>
<path d="M86.5077 323.65H79.3066V313.918H86.5077V323.65Z" fill="white"/>
<path d="M99.0038 323.65H91.8027V313.918H99.0038V323.65Z" fill="white"/>
<path d="M74.0255 338.306H66.8242V328.574H74.0255V338.306Z" fill="white"/>
<path d="M86.5077 338.306H79.3066V328.574H86.5077V338.306Z" fill="white"/>
<path d="M99.0038 338.306H91.8027V328.574H99.0038V338.306Z" fill="white"/>
<path d="M323.385 309.749H316.184V301.629H323.385V309.749Z" fill="white"/>
<path d="M335.867 309.749H328.666V301.629H335.867V309.749Z" fill="white"/>
<path d="M348.361 309.749H341.16V301.629H348.361V309.749Z" fill="white"/>
<path d="M323.385 321.956H316.184V313.836H323.385V321.956Z" fill="white"/>
<path d="M335.867 321.956H328.666V313.836H335.867V321.956Z" fill="white"/>
<path d="M348.361 321.956H341.16V313.836H348.361V321.956Z" fill="white"/>
<path d="M323.385 334.171H316.184V326.051H323.385V334.171Z" fill="white"/>
<path d="M335.867 334.171H328.666V326.051H335.867V334.171Z" fill="white"/>
<path d="M348.361 334.171H341.16V326.051H348.361V334.171Z" fill="white"/>
<path d="M323.385 346.39H316.184V338.27H323.385V346.39Z" fill="white"/>
<path d="M335.867 346.39H328.666V338.27H335.867V346.39Z" fill="white"/>
<path d="M348.361 346.39H341.16V338.27H348.361V346.39Z" fill="white"/>
<path d="M323.385 358.909H316.184V350.789H323.385V358.909Z" fill="white"/>
<path d="M335.867 358.909H328.666V350.789H335.867V358.909Z" fill="white"/>
<path d="M348.361 358.909H341.16V350.789H348.361V358.909Z" fill="white"/>
<path d="M323.385 371.429H316.184V363.309H323.385V371.429Z" fill="white"/>
<path d="M335.867 371.429H328.666V363.309H335.867V371.429Z" fill="white"/>
<path d="M348.361 371.429H341.16V363.309H348.361V371.429Z" fill="white"/>
<path d="M323.385 383.937H316.184V375.816H323.385V383.937Z" fill="white"/>
<path d="M335.867 383.937H328.666V375.816H335.867V383.937Z" fill="white"/>
<path d="M348.361 383.937H341.16V375.816H348.361V383.937Z" fill="white"/>
<path d="M323.385 396.457H316.184V388.336H323.385V396.457Z" fill="white"/>
<path d="M335.867 396.457H328.666V388.336H335.867V396.457Z" fill="white"/>
<path d="M348.361 396.457H341.16V388.336H348.361V396.457Z" fill="white"/>
<path d="M162.743 312.647H121.283V306.562H162.743V312.647Z" fill="white"/>
<path d="M162.743 324.463H121.283V318.379H162.743V324.463Z" fill="white"/>
<path d="M162.743 336.272H121.283V330.188H162.743V336.272Z" fill="white"/>
<path d="M162.743 348.073H121.283V341.988H162.743V348.073Z" fill="white"/>
<path d="M162.743 359.889H121.283V353.805H162.743V359.889Z" fill="white"/>
<path d="M162.743 371.694H121.283V365.609H162.743V371.694Z" fill="white"/>
<path d="M162.743 383.514H121.283V377.43H162.743V383.514Z" fill="white"/>
<path d="M162.743 395.307H121.283V389.223H162.743V395.307Z" fill="white"/>
<path d="M461.266 302.283H423.143V296.199H461.266V302.283Z" fill="white"/>
<path d="M461.266 314.104H423.143V308.02H461.266V314.104Z" fill="white"/>
<path d="M461.266 325.916H423.143V319.832H461.266V325.916Z" fill="white"/>
<path d="M461.266 337.721H423.143V331.637H461.266V337.721Z" fill="white"/>
<path d="M461.266 349.526H423.143V343.441H461.266V349.526Z" fill="white"/>
<path d="M461.266 361.346H423.143V355.262H461.266V361.346Z" fill="white"/>
<path d="M461.266 373.151H423.143V367.066H461.266V373.151Z" fill="white"/>
<path d="M461.266 384.967H423.143V378.883H461.266V384.967Z" fill="white"/>
<path d="M461.266 396.178H423.143V390.094H461.266V396.178Z" fill="white"/>
<path d="M461.266 407.401H423.143V401.316H461.266V407.401Z" fill="white"/>
<path d="M461.266 418.623H423.143V412.539H461.266V418.623Z" fill="white"/>
<path d="M461.266 429.834H423.143V423.75H461.266V429.834Z" fill="white"/>
<path d="M461.266 441.061H423.143V434.977H461.266V441.061Z" fill="white"/>
<path d="M522.888 316.549H482.623V310.465H522.888V316.549Z" fill="white"/>
<path d="M522.888 328.365H482.623V322.281H522.888V328.365Z" fill="white"/>
<path d="M522.888 340.186H482.623V334.102H522.888V340.186Z" fill="white"/>
<path d="M522.888 351.987H482.623V345.902H522.888V351.987Z" fill="white"/>
<path d="M522.888 363.791H482.623V357.707H522.888V363.791Z" fill="white"/>
<path d="M522.888 375.608H482.623V369.523H522.888V375.608Z" fill="white"/>
<path d="M522.888 387.412H482.623V381.328H522.888V387.412Z" fill="white"/>
<path d="M522.888 399.233H482.623V393.148H522.888V399.233Z" fill="white"/>
<path d="M522.888 409.803H482.623V403.719H522.888V409.803Z" fill="white"/>
<path d="M522.888 420.369H482.623V414.285H522.888V420.369Z" fill="white"/>
<path d="M522.888 430.936H482.623V424.852H522.888V430.936Z" fill="white"/>
<path d="M280.214 293.218H267.412V287.34H280.214V293.218Z" fill="white"/>
<path d="M280.214 304.62H267.412V298.742H280.214V304.62Z" fill="white"/>
<path d="M280.214 316.026H267.412V310.148H280.214V316.026Z" fill="white"/>
<path d="M280.214 327.433H267.412V321.555H280.214V327.433Z" fill="white"/>
<path d="M280.214 338.836H267.412V332.957H280.214V338.836Z" fill="white"/>
<path d="M280.214 350.242H267.412V344.363H280.214V350.242Z" fill="white"/>
<path d="M280.214 361.648H267.412V355.77H280.214V361.648Z" fill="white"/>
<path d="M280.214 373.054H267.412V367.176H280.214V373.054Z" fill="white"/>
<path d="M297.632 293.218H284.83V287.34H297.632V293.218Z" fill="white"/>
<path d="M297.632 304.62H284.83V298.742H297.632V304.62Z" fill="white"/>
<path d="M297.632 316.026H284.83V310.148H297.632V316.026Z" fill="white"/>
<path d="M297.632 327.433H284.83V321.555H297.632V327.433Z" fill="white"/>
<path d="M297.632 338.836H284.83V332.957H297.632V338.836Z" fill="white"/>
<path d="M297.632 350.242H284.83V344.363H297.632V350.242Z" fill="white"/>
<path d="M297.632 361.648H284.83V355.77H297.632V361.648Z" fill="white"/>
<path d="M297.632 373.054H284.83V367.176H297.632V373.054Z" fill="white"/>
<path d="M196.914 254.299H183.57V245.027H196.914V254.299Z" fill="white"/>
<path d="M216.794 254.299H203.451V245.027H216.794V254.299Z" fill="white"/>
<path d="M196.914 267.913H183.57V258.641H196.914V267.913Z" fill="white"/>
<path d="M216.794 267.913H203.451V258.641H216.794V267.913Z" fill="white"/>
<path d="M196.914 281.534H183.57V272.262H196.914V281.534Z" fill="white"/>
<path d="M216.794 281.534H203.451V272.262H216.794V281.534Z" fill="white"/>
<path d="M196.914 295.143H183.57V285.871H196.914V295.143Z" fill="white"/>
<path d="M216.794 295.143H203.451V285.871H216.794V295.143Z" fill="white"/>
<path d="M196.914 308.768H183.57V299.496H196.914V308.768Z" fill="white"/>
<path d="M216.794 308.768H203.451V299.496H216.794V308.768Z" fill="white"/>
<path d="M196.914 322.389H183.57V313.117H196.914V322.389Z" fill="white"/>
<path d="M216.794 322.389H203.451V313.117H216.794V322.389Z" fill="white"/>
<path d="M196.914 336.002H183.57V326.73H196.914V336.002Z" fill="white"/>
<path d="M216.794 336.002H203.451V326.73H216.794V336.002Z" fill="white"/>
<path d="M196.914 349.624H183.57V340.352H196.914V349.624Z" fill="white"/>
<path d="M216.794 349.624H203.451V340.352H216.794V349.624Z" fill="white"/>
<path d="M241.451 281.534H228.107V272.262H241.451V281.534Z" fill="white"/>
<path d="M241.451 295.143H228.107V285.871H241.451V295.143Z" fill="white"/>
<path d="M241.451 308.768H228.107V299.496H241.451V308.768Z" fill="white"/>
<path d="M241.451 322.389H228.107V313.117H241.451V322.389Z" fill="white"/>
<path d="M241.451 336.002H228.107V326.73H241.451V336.002Z" fill="white"/>
<path d="M241.451 349.624H228.107V340.352H241.451V349.624Z" fill="white"/>
<path d="M196.914 363.077H183.57V353.805H196.914V363.077Z" fill="white"/>
<path d="M216.794 363.077H203.451V353.805H216.794V363.077Z" fill="white"/>
<path d="M241.451 363.077H228.107V353.805H241.451V363.077Z" fill="white"/>
<path d="M196.914 376.518H183.57V367.246H196.914V376.518Z" fill="white"/>
<path d="M216.794 376.518H203.451V367.246H216.794V376.518Z" fill="white"/>
<path d="M241.451 376.518H228.107V367.246H241.451V376.518Z" fill="white"/>
<path d="M196.914 389.971H183.57V380.699H196.914V389.971Z" fill="white"/>
<path d="M216.794 389.971H203.451V380.699H216.794V389.971Z" fill="white"/>
<path d="M241.451 389.971H228.107V380.699H241.451V389.971Z" fill="white"/>
<path d="M196.914 403.424H183.57V394.152H196.914V403.424Z" fill="white"/>
<path d="M216.794 403.424H203.451V394.152H216.794V403.424Z" fill="white"/>
<path d="M241.451 403.424H228.107V394.152H241.451V403.424Z" fill="white"/>
<path d="M196.914 416.877H183.57V407.605H196.914V416.877Z" fill="white"/>
<path d="M216.794 416.877H203.451V407.605H216.794V416.877Z" fill="white"/>
<path d="M241.451 416.877H228.107V407.605H241.451V416.877Z" fill="white"/>
<path d="M361.926 266.37H354.725V258.25H361.926V266.37Z" fill="white"/>
<path d="M374.408 266.37H367.207V258.25H374.408V266.37Z" fill="white"/>
<path d="M361.926 278.59H354.725V270.469H361.926V278.59Z" fill="white"/>
<path d="M374.408 278.59H367.207V270.469H374.408V278.59Z" fill="white"/>
<path d="M361.926 290.808H354.725V282.688H361.926V290.808Z" fill="white"/>
<path d="M374.408 290.808H367.207V282.688H374.408V290.808Z" fill="white"/>
<path d="M361.926 303.035H354.725V294.914H361.926V303.035Z" fill="white"/>
<path d="M374.408 303.035H367.207V294.914H374.408V303.035Z" fill="white"/>
<path d="M361.926 315.554H354.725V307.434H361.926V315.554Z" fill="white"/>
<path d="M374.408 315.554H367.207V307.434H374.408V315.554Z" fill="white"/>
<path d="M361.926 328.062H354.725V319.941H361.926V328.062Z" fill="white"/>
<path d="M374.408 328.062H367.207V319.941H374.408V328.062Z" fill="white"/>
<path d="M361.926 340.582H354.725V332.461H361.926V340.582Z" fill="white"/>
<path d="M374.408 340.582H367.207V332.461H374.408V340.582Z" fill="white"/>
<path d="M361.926 353.104H354.725V344.984H361.926V353.104Z" fill="white"/>
<path d="M374.408 353.104H367.207V344.984H374.408V353.104Z" fill="white"/>
<path d="M361.926 365.757H354.725V357.637H361.926V365.757Z" fill="white"/>
<path d="M374.408 365.757H367.207V357.637H374.408V365.757Z" fill="white"/>
<path d="M361.926 378.398H354.725V370.277H361.926V378.398Z" fill="white"/>
<path d="M374.408 378.398H367.207V370.277H374.408V378.398Z" fill="white"/>
<path d="M361.926 391.051H354.725V382.93H361.926V391.051Z" fill="white"/>
<path d="M374.408 391.051H367.207V382.93H374.408V391.051Z" fill="white"/>
<path d="M361.926 403.718H354.725V395.598H361.926V403.718Z" fill="white"/>
<path d="M374.408 403.718H367.207V395.598H374.408V403.718Z" fill="white"/>
<path d="M537.82 269.133H530.619V259.57H537.82V269.133Z" fill="white"/>
<path d="M550.29 269.133H543.088V259.57H550.29V269.133Z" fill="white"/>
<path d="M537.82 283.536H530.619V273.973H537.82V283.536Z" fill="white"/>
<path d="M550.29 283.536H543.088V273.973H550.29V283.536Z" fill="white"/>
<path d="M537.82 297.922H530.619V288.359H537.82V297.922Z" fill="white"/>
<path d="M550.29 297.922H543.088V288.359H550.29V297.922Z" fill="white"/>
<path d="M537.82 312.32H530.619V302.758H537.82V312.32Z" fill="white"/>
<path d="M550.29 312.32H543.088V302.758H550.29V312.32Z" fill="white"/>
<path d="M537.82 327.071H530.619V317.508H537.82V327.071Z" fill="white"/>
<path d="M550.29 327.071H543.088V317.508H550.29V327.071Z" fill="white"/>
<path d="M537.82 341.82H530.619V332.258H537.82V341.82Z" fill="white"/>
<path d="M550.29 341.82H543.088V332.258H550.29V341.82Z" fill="white"/>
<path d="M537.82 356.559H530.619V346.996H537.82V356.559Z" fill="white"/>
<path d="M550.29 356.559H543.088V346.996H550.29V356.559Z" fill="white"/>
<path d="M537.82 371.32H530.619V361.758H537.82V371.32Z" fill="white"/>
<path d="M550.29 371.32H543.088V361.758H550.29V371.32Z" fill="white"/>
<path d="M537.82 386.227H530.619V376.664H537.82V386.227Z" fill="white"/>
<path d="M550.29 386.227H543.088V376.664H550.29V386.227Z" fill="white"/>
<path d="M537.82 401.125H530.619V391.562H537.82V401.125Z" fill="white"/>
<path d="M550.29 401.125H543.088V391.562H550.29V401.125Z" fill="white"/>
<path d="M537.82 416.027H530.619V406.465H537.82V416.027Z" fill="white"/>
<path d="M550.29 416.027H543.088V406.465H550.29V416.027Z" fill="white"/>
<path d="M537.82 430.937H530.619V421.375H537.82V430.937Z" fill="white"/>
<path d="M550.29 430.937H543.088V421.375H550.29V430.937Z" fill="white"/>
<path d="M388.637 266.37H381.436V258.25H388.637V266.37Z" fill="white"/>
<path d="M401.121 266.37H393.92V258.25H401.121V266.37Z" fill="white"/>
<path d="M388.637 253.855H381.436V245.734H388.637V253.855Z" fill="white"/>
<path d="M401.121 253.855H393.92V245.734H401.121V253.855Z" fill="white"/>
<path d="M388.637 241.331H381.436V233.211H388.637V241.331Z" fill="white"/>
<path d="M401.121 241.331H393.92V233.211H401.121V241.331Z" fill="white"/>
<path d="M388.637 278.59H381.436V270.469H388.637V278.59Z" fill="white"/>
<path d="M401.121 278.59H393.92V270.469H401.121V278.59Z" fill="white"/>
<path d="M388.637 290.808H381.436V282.688H388.637V290.808Z" fill="white"/>
<path d="M401.121 290.808H393.92V282.688H401.121V290.808Z" fill="white"/>
<path d="M388.637 303.035H381.436V294.914H388.637V303.035Z" fill="white"/>
<path d="M401.121 303.035H393.92V294.914H401.121V303.035Z" fill="white"/>
<path d="M388.637 315.554H381.436V307.434H388.637V315.554Z" fill="white"/>
<path d="M401.121 315.554H393.92V307.434H401.121V315.554Z" fill="white"/>
<path d="M388.637 328.062H381.436V319.941H388.637V328.062Z" fill="white"/>
<path d="M401.121 328.062H393.92V319.941H401.121V328.062Z" fill="white"/>
<path d="M388.637 340.582H381.436V332.461H388.637V340.582Z" fill="white"/>
<path d="M401.121 340.582H393.92V332.461H401.121V340.582Z" fill="white"/>
<path d="M388.637 353.104H381.436V344.984H388.637V353.104Z" fill="white"/>
<path d="M401.121 353.104H393.92V344.984H401.121V353.104Z" fill="white"/>
<path d="M388.637 365.757H381.436V357.637H388.637V365.757Z" fill="white"/>
<path d="M401.121 365.757H393.92V357.637H401.121V365.757Z" fill="white"/>
<path d="M388.637 378.398H381.436V370.277H388.637V378.398Z" fill="white"/>
<path d="M401.121 378.398H393.92V370.277H401.121V378.398Z" fill="white"/>
<path d="M388.637 391.051H381.436V382.93H388.637V391.051Z" fill="white"/>
<path d="M401.121 391.051H393.92V382.93H401.121V391.051Z" fill="white"/>
<path d="M388.637 403.718H381.436V395.598H388.637V403.718Z" fill="white"/>
<path d="M401.121 403.718H393.92V395.598H401.121V403.718Z" fill="white"/>
<path d="M66.8496 210.706H199.388C199.388 210.706 186.242 175.363 166.017 175.363C145.792 175.363 139.465 199.761 139.465 199.761C139.465 199.761 125.813 186.502 114.599 186.502C103.385 186.502 93.6728 204.015 93.6728 204.015C93.6728 204.015 77.805 194.598 66.8496 210.706Z" fill="#EBEBEB"/>
<path d="M141.027 140.81H202.97C202.97 140.81 189.134 121.066 178.228 121.066C167.321 121.066 164.096 134.228 164.096 134.228C164.096 134.228 156.403 128.084 149.324 129.187C142.246 130.289 141.027 140.81 141.027 140.81Z" fill="#EBEBEB"/>
<path d="M429.014 200.184H549.649C549.649 200.184 533.129 163.824 515.452 161.594C497.776 159.365 489.331 188.574 489.331 188.574C489.331 188.574 477.933 178.235 468.971 178.235C460.009 178.235 453.08 191.858 453.08 191.858C453.08 191.858 435.169 182.525 429.014 200.184Z" fill="#EBEBEB"/>
<path d="M314.35 110.29H395.852C395.852 110.29 381.856 83.977 366.666 83.6256C351.476 83.2742 343.499 103.539 343.499 103.539C343.499 103.539 319.876 84.8376 314.35 110.29Z" fill="#EBEBEB"/>
<path d="M258.696 537.257C147.853 537.257 57.998 531.402 57.998 524.179C57.998 516.957 147.853 511.102 258.696 511.102C369.538 511.102 459.394 516.957 459.394 524.179C459.394 531.402 369.538 537.257 258.696 537.257Z" fill="#EBEBEB"/>
<path d="M19.7891 474.266L91.9117 474.557L164.022 474.666L308.255 474.86L452.489 474.666L524.599 474.557L596.722 474.266L524.599 473.963L452.489 473.855L308.255 473.66L164.022 473.855L91.9117 473.963L19.7891 474.266Z" fill="#263238"/>
<path d="M317.253 286.808C296.426 308.14 233.854 403.076 228.98 405.912C228.98 405.912 228.98 468.002 263.829 455.604C298.678 443.206 330.622 331.81 337.441 296.299C341.036 277.549 334.265 269.405 317.253 286.808Z" fill="#D5A09F"/>
<path d="M322.558 360.207L258.695 353.056C258.695 353.056 298.308 301.316 318.779 282.844C340.124 263.598 350.588 266.301 340.691 302.758C330.745 339.433 322.558 360.207 322.558 360.207Z" fill="url(#paint0_linear_2466_25631)"/>
<path d="M325.562 325.954C326.264 327.689 326.712 329.513 326.892 331.372C324.664 328.34 323.276 324.79 322.867 321.07C324.006 322.557 324.914 324.203 325.562 325.954ZM289.692 327.372C291.449 326.679 293.298 326.239 295.182 326.063C292.109 328.259 288.506 329.625 284.731 330.026C286.241 328.902 287.913 328.007 289.692 327.372ZM299.207 351.83C299.959 350.12 300.953 348.525 302.161 347.091C301.879 348.932 301.332 350.724 300.537 352.412C299.809 354.132 298.822 355.734 297.607 357.163C297.883 355.32 298.421 353.525 299.207 351.83ZM336.678 273.05C336.998 272.384 337.318 271.729 337.687 271.075C338.126 271.032 338.567 271.032 339.005 271.075C338.709 271.96 338.377 272.808 338.008 273.656C337.268 275.373 336.277 276.973 335.065 278.407C335.342 276.555 335.886 274.752 336.678 273.05ZM263.078 347.394L264.309 347.879C266.051 348.617 267.68 349.592 269.147 350.776C267.27 350.502 265.442 349.967 263.718 349.188C263.226 348.97 262.745 348.74 262.266 348.485L263.078 347.394ZM312.317 297.448C314.055 298.182 315.68 299.153 317.142 300.332C315.265 300.067 313.437 299.536 311.714 298.756C309.974 298.021 308.349 297.046 306.888 295.86C308.774 296.127 310.611 296.661 312.341 297.448H312.317ZM316.601 297.557C316.674 297.605 316.744 297.658 316.81 297.715H316.589C316.589 297.715 316.625 297.593 316.625 297.557H316.601Z" fill="white"/>
<path d="M319.494 348.9C318.005 348.561 316.442 348.428 314.927 348.222L310.226 347.58C307.062 347.143 303.886 346.755 300.71 346.368C294.358 345.641 288.006 344.877 281.642 344.258C279.895 344.089 278.134 343.919 276.386 343.786C274.638 343.652 272.693 343.652 270.846 343.52C270.736 343.52 270.736 343.677 270.846 343.689C272.41 343.919 273.961 344.271 275.524 344.513C277.088 344.756 278.749 344.974 280.362 345.167C283.526 345.567 286.714 345.931 289.89 346.282C296.143 346.949 302.409 347.652 308.687 348.197L313.93 348.634C315.765 348.792 317.623 349.058 319.47 349.046C319.484 349.041 319.497 349.032 319.506 349.02C319.516 349.009 319.523 348.995 319.525 348.98C319.528 348.965 319.527 348.95 319.521 348.936C319.515 348.922 319.506 348.91 319.494 348.9Z" fill="#263238"/>
<path opacity="0.1" d="M291.576 356.738L322.547 360.204C322.547 360.204 330.733 339.431 340.692 302.756C344.89 287.291 345.419 277.897 343.006 273.668L291.576 356.738Z" fill="black"/>
<path d="M304.846 489.524H401.982C402.783 486.446 403.558 483.464 404.333 480.434C405.22 477.004 406.093 473.66 406.931 470.399C407.116 469.672 407.312 468.944 407.497 468.23C408.137 465.733 408.765 463.309 409.38 460.958C409.75 459.515 410.119 458.097 410.476 456.692C410.833 455.285 411.215 453.855 411.572 452.486C411.67 452.122 411.756 451.758 411.855 451.407L412.15 450.195L412.519 448.777C412.655 448.28 412.778 447.795 412.901 447.31C413.147 446.39 413.381 445.481 413.603 444.596C413.947 443.286 414.279 442.002 414.6 440.754C414.735 440.208 414.883 439.663 415.018 439.129C415.252 438.257 415.474 437.408 415.683 436.572C415.831 436.014 415.966 435.469 416.101 434.936C416.676 432.738 417.209 430.678 417.702 428.755C417.838 428.246 417.96 427.749 418.095 427.264C418.305 426.428 418.514 425.628 418.711 424.84C418.851 424.355 418.974 423.882 419.08 423.422C419.511 421.773 419.905 420.271 420.238 418.949C420.336 418.598 420.422 418.259 420.508 417.932C420.73 417.059 420.94 416.283 421.112 415.592C421.185 415.313 421.247 415.047 421.321 414.804L421.518 414.041C421.518 413.871 421.604 413.702 421.641 413.556L421.813 412.902C421.813 412.797 421.838 412.7 421.887 412.611L422.109 411.75H327.558C327.558 411.75 324.443 422.319 319.458 439.36C318.448 442.826 317.353 446.632 316.183 450.547C312.872 461.915 309.007 475.175 304.846 489.524Z" fill="#37474F"/>
<path d="M386.078 489.528H388.54C392.135 474.879 395.618 460.202 398.991 445.496C399.812 441.917 400.632 438.337 401.453 434.758L401.675 433.752C401.678 433.717 401.67 433.682 401.65 433.653C401.63 433.624 401.599 433.604 401.565 433.595C401.531 433.585 401.494 433.59 401.462 433.605C401.43 433.621 401.405 433.647 401.392 433.679C401.392 433.789 401.33 433.898 401.293 434.006C400.202 437.853 399.114 441.702 398.031 445.557C393.87 460.174 389.886 474.831 386.078 489.528Z" fill="#263238"/>
<path d="M330.621 411.762L334.795 432.366L338.216 449.238L344.039 477.986L344.642 480.932L345.639 485.84L346.414 489.524H401.993C402.781 486.434 403.569 483.464 404.332 480.434C405.219 477.004 406.092 473.66 406.93 470.399C407.114 469.672 407.311 468.944 407.496 468.23C408.136 465.733 408.763 463.309 409.379 460.958C409.748 459.515 410.117 458.097 410.475 456.692C410.832 455.285 411.213 453.855 411.57 452.486C411.669 452.122 411.755 451.758 411.853 451.407L412.149 450.195L412.518 448.777C412.654 448.28 412.777 447.795 412.9 447.31C413.146 446.39 413.38 445.481 413.602 444.596C413.946 443.286 414.278 442.002 414.599 440.754C414.746 440.196 414.882 439.663 415.017 439.129C415.251 438.257 415.473 437.408 415.682 436.572C415.83 436.014 415.964 435.469 416.1 434.936C416.675 432.738 417.208 430.678 417.701 428.755C417.836 428.246 417.959 427.749 418.094 427.264C418.303 426.428 418.513 425.628 418.71 424.84C418.85 424.355 418.973 423.882 419.079 423.422C419.51 421.773 419.904 420.271 420.236 418.949C420.335 418.598 420.421 418.259 420.507 417.932C420.729 417.059 420.938 416.283 421.11 415.592C421.184 415.313 421.246 415.047 421.32 414.804L421.517 414.041C421.517 413.871 421.603 413.702 421.639 413.556L421.812 412.902C421.812 412.797 421.837 412.7 421.886 412.611L422.107 411.75L330.621 411.762Z" fill="#263238"/>
<path d="M330.609 411.728C330.609 412.237 331.004 417.788 331.914 426.272C332.173 428.696 332.48 431.46 332.837 434.368C333.392 438.961 334.068 444.064 334.93 449.385C336.383 458.73 338.278 468.922 340.74 478.885C341.614 482.521 342.575 486.024 343.596 489.502H465.648C464.207 471.189 462.89 454.621 461.844 441.567C460.379 423.194 459.382 411.691 459.382 411.691H348.668L330.609 411.728Z" fill="#37474F"/>
<path d="M330.869 422.768C331.005 427.07 331.19 431.361 331.473 435.639C331.768 440.281 332.198 444.911 332.814 449.541C332.814 449.71 332.814 449.88 332.876 450.049C333.45 454.389 334.111 458.715 334.858 463.03C335.559 467.054 336.089 471.393 337.886 475.15C338.569 476.591 339.54 477.881 340.742 478.944C341.841 479.934 343.188 480.62 344.644 480.931C344.882 480.99 345.125 481.031 345.37 481.053H345.58C345.534 481.078 345.498 481.115 345.474 481.161C345.45 481.205 345.44 481.256 345.444 481.307C345.444 482.749 345.444 484.216 345.616 485.646C345.616 485.706 345.616 485.767 345.616 485.828C345.765 487.04 345.998 488.312 346.232 489.549H348.325V489.476C347.955 488.119 347.648 486.749 347.303 485.379C346.958 484.01 346.466 482.616 346.133 481.198C346.115 481.145 346.08 481.098 346.035 481.065C347.364 481.128 348.68 480.788 349.806 480.092C350.933 479.397 351.817 478.379 352.337 477.174C352.863 475.331 352.897 473.386 352.436 471.526C352.054 469.102 351.685 466.606 351.304 464.145C350.589 459.624 349.666 455.152 348.842 450.655L348.472 448.608C346.835 439.457 345.124 430.306 343.069 421.24C342.995 420.864 342.908 420.489 342.822 420.113C342.736 419.738 342.354 419.931 342.379 420.174C342.44 420.78 342.502 421.386 342.576 422.004C342.937 425.486 343.347 428.953 343.807 432.403C344.398 436.463 344.804 440.548 345.382 444.608C345.58 445.989 345.776 447.371 345.986 448.753C346.934 455.431 347.919 462.085 349.075 468.763C349.617 471.854 351.537 477.393 347.057 478.35C346.022 478.576 344.939 478.443 343.992 477.974C341.996 476.79 340.505 474.934 339.794 472.75C338.686 469.113 337.883 465.391 337.394 461.624C336.655 457.584 335.999 453.508 335.424 449.395C334.686 444.297 333.914 439.202 333.11 434.112C332.707 431.518 332.298 428.924 331.879 426.331L331.288 422.695C331.276 422.44 330.869 422.513 330.869 422.768Z" fill="#263238"/>
<path d="M438.873 454.715C433.79 454.664 428.733 453.992 423.818 452.716C421.553 452.146 419.312 451.431 417.084 450.716C414.877 450.116 412.811 449.095 411.003 447.71C407.582 444.801 405.994 440.232 404.504 436.159C402.887 431.574 401.575 426.89 400.577 422.137C400.577 421.907 400.183 421.991 400.171 422.21C400.053 427.585 400.746 432.948 402.227 438.123C403.458 442.522 405.107 447.419 408.714 450.498C412.321 453.576 417.651 454.885 422.514 455.467C427.965 456.091 433.477 456.018 438.91 455.248C438.982 455.244 439.048 455.211 439.096 455.157C439.143 455.105 439.167 455.035 439.162 454.964C439.157 454.893 439.124 454.827 439.07 454.78C439.015 454.734 438.945 454.711 438.873 454.715Z" fill="#263238"/>
<path d="M447.356 422.285C447.626 429.008 447.914 435.739 448.217 442.477C448.914 458.161 449.682 473.844 450.519 489.527H452.808C451.758 473.811 450.654 458.104 449.497 442.405C448.996 435.69 448.48 428.979 447.946 422.273C447.945 422.196 447.912 422.123 447.855 422.069C447.799 422.016 447.723 421.986 447.645 421.988C447.566 421.99 447.492 422.022 447.437 422.078C447.383 422.134 447.354 422.208 447.356 422.285Z" fill="#263238"/>
<path d="M309.596 461.505L475.175 449.143C475.175 449.143 441.865 319.156 376.093 271.366C359.278 259.162 340.876 266.991 332.591 276.117C311.541 299.363 309.103 460.984 309.596 461.505Z" fill="url(#paint1_linear_2466_25631)"/>
<path d="M368.437 277.282C369.131 279.015 369.579 280.834 369.766 282.688C368.633 281.207 367.721 279.575 367.058 277.84C366.363 276.107 365.916 274.288 365.729 272.434C366.857 273.917 367.769 275.55 368.437 277.282ZM386.409 347.408C387.117 349.14 387.561 350.966 387.727 352.826C385.509 349.79 384.127 346.241 383.713 342.524C384.844 344.017 385.751 345.662 386.409 347.408ZM445.57 377.478C446.27 379.213 446.718 381.038 446.899 382.896C444.672 379.864 443.284 376.314 442.874 372.594C443.994 374.093 444.902 375.737 445.57 377.478ZM397.82 421.777C398.535 423.503 398.983 425.325 399.149 427.182C396.932 424.146 395.55 420.598 395.137 416.88C396.266 418.377 397.17 420.026 397.82 421.777ZM325.562 325.932C326.264 327.666 326.712 329.491 326.892 331.349C324.664 328.318 323.276 324.768 322.866 321.047C324.008 322.542 324.916 324.197 325.562 325.956V325.932ZM355.032 414.105C355.748 415.831 356.2 417.653 356.373 419.51C355.242 418.031 354.334 416.398 353.678 414.662C352.977 412.932 352.53 411.112 352.348 409.257C353.476 410.737 354.38 412.37 355.032 414.105ZM414.697 322.635C415.399 324.366 415.847 326.186 416.026 328.04C413.795 325.012 412.412 321.46 412.014 317.738C413.147 319.232 414.052 320.882 414.697 322.635ZM348.545 299.365C350.3 298.667 352.15 298.225 354.035 298.056C352.53 299.163 350.872 300.053 349.111 300.698C347.352 301.399 345.498 301.84 343.608 302.007C345.116 300.897 346.778 300.007 348.545 299.365ZM329.784 357.795C331.541 357.1 333.39 356.659 335.274 356.486C333.773 357.599 332.114 358.489 330.351 359.128C328.595 359.828 326.746 360.273 324.86 360.45C326.365 359.35 328.023 358.472 329.784 357.844V357.795ZM324.75 427.631C326.507 426.939 328.356 426.499 330.24 426.322C328.739 427.438 327.08 428.332 325.316 428.976C323.558 429.664 321.709 430.105 319.826 430.285C321.336 429.194 322.993 428.317 324.75 427.679V427.631ZM442.616 421.886C444.373 421.193 446.222 420.753 448.105 420.577C445.033 422.773 441.43 424.139 437.655 424.54C439.173 423.442 440.844 422.565 442.616 421.934V421.886ZM400.012 377.042C401.769 376.347 403.617 375.902 405.502 375.721C403.997 376.836 402.339 377.734 400.578 378.387C398.818 379.071 396.97 379.512 395.088 379.696C396.594 378.597 398.252 377.716 400.012 377.078V377.042ZM336.678 273.016C336.85 272.652 337.023 272.301 337.207 271.949C337.81 271.501 338.438 271.065 339.115 270.641C338.81 271.656 338.441 272.652 338.008 273.622C337.268 275.339 336.277 276.939 335.065 278.373C335.346 276.533 335.888 274.743 336.678 273.052V273.016ZM385.068 310.709C385.81 308.994 386.801 307.393 388.01 305.958C387.418 309.655 385.846 313.133 383.455 316.042C383.726 314.196 384.269 312.4 385.068 310.709ZM342.341 454.125C343.083 452.413 344.069 450.813 345.27 449.374C344.998 451.218 344.459 453.014 343.67 454.707C342.968 456.3 342.062 457.799 340.974 459.167H340.777C341.061 457.424 341.587 455.727 342.341 454.125ZM358.06 369.661C358.809 367.948 359.799 366.349 361.002 364.91C360.39 368.598 358.826 372.071 356.46 374.994C356.732 373.15 357.271 371.354 358.06 369.661ZM470.842 434.066C470.916 434.321 470.989 434.575 471.076 434.818C470.916 434.988 470.768 435.17 470.621 435.339C470.67 434.923 470.743 434.51 470.842 434.103V434.066ZM421.603 401.73C422.35 400.021 423.341 398.425 424.545 396.992C423.95 400.683 422.379 404.157 419.99 407.063C420.284 405.23 420.839 403.446 421.639 401.766L421.603 401.73ZM411.041 448.392C411.788 446.679 412.779 445.08 413.983 443.641C413.374 447.337 411.804 450.814 409.429 453.737C409.718 451.903 410.274 450.119 411.078 448.441L411.041 448.392ZM328.234 392.252C329.972 392.991 331.596 393.966 333.059 395.149C331.186 394.877 329.362 394.342 327.643 393.561C325.897 392.83 324.267 391.855 322.805 390.665C324.697 390.942 326.538 391.489 328.27 392.289L328.234 392.252ZM458.84 399.331L459.467 401.003C458.14 400.372 456.899 399.578 455.774 398.639C456.832 398.776 457.871 399.019 458.876 399.367L458.84 399.331ZM374.42 439.715C376.16 440.444 377.785 441.415 379.245 442.599C377.369 442.329 375.541 441.798 373.816 441.023C372.078 440.281 370.453 439.302 368.991 438.115C370.886 438.39 372.728 438.941 374.456 439.751L374.42 439.715ZM449.915 450.525L450.765 450.926L447.872 451.144C446.663 450.543 445.53 449.802 444.499 448.937C446.386 449.221 448.222 449.769 449.952 450.562L449.915 450.525ZM420.914 350.862C422.648 351.609 424.27 352.583 425.739 353.759C421.987 353.163 418.455 351.622 415.485 349.287C417.376 349.56 419.218 350.104 420.95 350.899L420.914 350.862ZM378.47 397.282C380.21 398.022 381.835 399.001 383.295 400.191C379.54 399.598 376.006 398.052 373.04 395.706C374.932 395.985 376.772 396.527 378.506 397.319L378.47 397.282ZM356.312 333.47C358.047 334.213 359.671 335.188 361.138 336.367C357.386 335.781 353.855 334.24 350.896 331.895C352.795 332.169 354.644 332.712 356.386 333.507L356.312 333.47Z" fill="white"/>
<path d="M341.971 303.279C351.524 301.885 361.224 282.906 362.898 269.961C363.009 269.064 348.126 241.103 345.8 235.274C345.32 234.062 312.133 258.738 312.133 258.738C312.133 258.738 320.75 269.549 324.775 279.766C325.058 280.614 332.739 304.612 341.971 303.279Z" fill="#D5A09F"/>
<path d="M312.084 258.737C312.084 258.737 320.701 269.548 324.738 279.753C324.812 279.959 325.304 281.462 326.117 283.608C343.178 275.124 350.133 259.974 352.94 249.975C349.715 243.612 346.711 237.636 345.751 235.273C345.271 234.073 312.084 258.737 312.084 258.737Z" fill="#263238"/>
<path d="M338.129 189.859C347.842 200.924 357.554 240.835 352.002 253.101C343.94 270.869 322.459 281.547 305.077 270.19C288.176 259.173 276.457 206.936 283.437 194.961C293.704 177.315 323.801 173.521 338.129 189.859Z" fill="#D5A09F"/>
<path d="M312.181 222.28C313.412 222.377 314.643 222.28 315.874 222.28C317.18 222.456 318.509 222.2 319.652 221.553C319.971 221.28 320.19 220.912 320.275 220.504C320.359 220.097 320.305 219.673 320.12 219.299C319.64 218.616 318.982 218.07 318.216 217.721C317.45 217.372 316.603 217.23 315.763 217.311C314.036 217.211 312.334 217.747 310.986 218.814C310.702 219.079 310.499 219.418 310.404 219.792C310.31 220.167 310.326 220.56 310.452 220.925C310.578 221.29 310.808 221.613 311.114 221.852C311.421 222.093 311.791 222.241 312.181 222.28Z" fill="#263238"/>
<path d="M313.266 228.134C313.266 228.024 313.512 228.219 313.536 228.34C313.991 231.067 314.988 234.121 317.66 234.533C317.746 234.533 317.771 234.679 317.66 234.69C314.546 234.861 313.266 230.8 313.266 228.134Z" fill="#263238"/>
<path d="M315.161 224.811C319.531 223.599 321.648 232.313 317.623 233.416C313.598 234.518 311.505 225.816 315.161 224.811Z" fill="#263238"/>
<path d="M297.386 231.493C297.386 231.396 297.201 231.675 297.226 231.784C297.964 234.45 298.358 237.638 296.105 239.056C296.031 239.056 296.105 239.238 296.167 239.201C299.084 238.135 298.518 233.917 297.386 231.493Z" fill="#263238"/>
<path d="M294.258 229.263C289.778 229.966 291.538 238.729 295.687 238.075C299.835 237.419 298.013 228.669 294.258 229.263Z" fill="#263238"/>
<path d="M289.716 224.945C290.847 224.428 291.949 223.849 293.016 223.212C294.267 222.756 295.328 221.904 296.031 220.788C296.185 220.398 296.204 219.969 296.083 219.567C295.963 219.166 295.711 218.815 295.367 218.57C293.852 217.6 292.104 218.049 290.554 218.801C288.972 219.509 287.713 220.77 287.02 222.339C286.875 222.708 286.842 223.112 286.927 223.498C287.012 223.886 287.209 224.239 287.496 224.517C287.783 224.794 288.147 224.982 288.541 225.059C288.936 225.135 289.344 225.095 289.716 224.945Z" fill="#263238"/>
<path d="M322.423 251.465C321.931 252.252 321.487 253.27 320.515 253.586C319.489 253.804 318.427 253.804 317.4 253.586C317.38 253.583 317.359 253.588 317.341 253.599C317.324 253.609 317.309 253.625 317.301 253.644C317.293 253.663 317.291 253.683 317.295 253.704C317.3 253.724 317.311 253.742 317.327 253.755C317.845 254.191 318.473 254.481 319.145 254.594C319.817 254.707 320.507 254.639 321.143 254.397C321.667 254.126 322.097 253.706 322.378 253.192C322.658 252.678 322.777 252.093 322.718 251.513C322.718 251.355 322.497 251.343 322.423 251.465Z" fill="#263238"/>
<path d="M317.599 244.082C317.159 245.309 316.469 246.435 315.568 247.388C314.668 248.341 313.579 249.101 312.367 249.621C311.314 250.089 310.2 250.407 309.056 250.566C308.841 250.614 308.623 250.638 308.403 250.639C308.194 250.652 307.984 250.652 307.776 250.639C307.623 250.648 307.472 250.606 307.347 250.521C307.222 250.435 307.13 250.31 307.086 250.166C307.08 250.069 307.08 249.973 307.086 249.876V249.633C306.532 247.573 305.966 244.373 305.966 244.373C305.289 244.931 301.793 247.597 301.584 246.494C299.947 237.404 298.137 227.296 298.457 217.903C298.457 217.836 298.485 217.771 298.533 217.723C298.581 217.676 298.647 217.648 298.716 217.648C298.784 217.648 298.85 217.676 298.898 217.723C298.947 217.771 298.974 217.836 298.974 217.903C300.894 226.581 301.251 235.538 303.049 244.288C304.253 243.315 305.592 242.514 307.025 241.913C307.345 241.913 307.997 248.118 308.329 249.015C308.326 249.047 308.326 249.08 308.329 249.112C312.022 248.724 314.386 247.039 317.254 243.9C317.439 243.695 317.709 243.827 317.599 244.082Z" fill="#263238"/>
<path d="M310.039 249.219C311.556 250.424 313.362 251.226 315.283 251.546C316.335 251.691 317.406 251.508 318.348 251.025C320.391 249.947 319.973 247.959 319.16 246.359C318.718 245.515 318.177 244.727 317.548 244.008C315.675 246.491 313.043 248.317 310.039 249.219Z" fill="#263238"/>
<path d="M315.284 251.55C316.336 251.695 317.408 251.513 318.35 251.029C320.393 249.951 319.974 247.963 319.162 246.363C316.872 247.151 314.94 249.272 315.284 251.55Z" fill="#FF97B8"/>
<path d="M279.719 210.497C296.953 217.599 314.384 197.953 314.384 197.953C316.359 200.934 319.259 203.208 322.653 204.435C326.046 205.663 329.752 205.778 333.217 204.764C333.217 204.764 341.49 229.331 348.236 227.853C358.49 225.695 354.391 190.717 349.75 184.632C345.109 178.548 338.215 173.955 338.215 173.955C338.215 173.955 336.582 172.743 326.903 169.992C316.379 167 296.129 178.221 296.129 178.221C294.072 175.318 291.353 172.931 288.189 171.252C287.425 170.829 286.581 170.564 285.71 170.471C284.839 170.379 283.958 170.462 283.12 170.714C282.283 170.967 281.505 171.384 280.836 171.942C280.167 172.499 279.619 173.184 279.227 173.955C280.909 175.548 282.201 177.495 283.006 179.651C285.776 186.778 279.658 188.026 278.292 181.324C277.698 178.837 278.03 176.222 279.227 173.955C275.288 170.198 270.056 169.785 267.558 172.743C262.966 178.161 265.379 204.606 279.719 210.497Z" fill="#263238"/>
<path d="M321.992 241.622C324.113 240.953 325.999 239.711 327.438 238.038C328.877 236.364 329.809 234.326 330.13 232.157C330.449 229.986 330.145 227.772 329.249 225.765C328.353 223.757 326.903 222.038 325.063 220.802C323.224 219.566 321.069 218.864 318.844 218.775C316.619 218.686 314.414 219.214 312.479 220.299C310.544 221.384 308.956 222.981 307.898 224.911C306.84 226.84 306.354 229.023 306.494 231.212C306.611 232.989 307.137 234.716 308.032 236.263C308.928 237.809 310.17 239.135 311.664 240.139C313.158 241.142 314.865 241.798 316.655 242.054C318.444 242.312 320.269 242.164 321.992 241.622ZM315.197 220.836C315.996 220.582 316.822 220.423 317.659 220.364C320.283 220.18 322.879 220.99 324.917 222.626C326.956 224.263 328.283 226.604 328.629 229.171C328.974 231.739 328.312 234.339 326.777 236.443C325.241 238.545 322.949 239.992 320.367 240.488C317.785 240.983 315.108 240.491 312.883 239.109C310.658 237.729 309.052 235.564 308.392 233.057C307.733 230.55 308.07 227.89 309.334 225.618C310.599 223.348 312.696 221.637 315.197 220.836Z" fill="url(#paint2_linear_2466_25631)"/>
<path d="M295.76 246.519C300.019 244.943 302.235 239.247 300.683 233.296C300.023 230.449 298.468 227.879 296.24 225.951C295.34 225.058 294.219 224.41 292.989 224.07C291.758 223.731 290.459 223.711 289.219 224.014C287.978 224.317 286.839 224.932 285.912 225.799C284.985 226.665 284.302 227.753 283.93 228.957C282.886 231.691 282.736 234.679 283.499 237.502C285.075 243.756 290.208 247.913 294.947 246.749C295.225 246.697 295.497 246.62 295.76 246.519ZM289.1 225.733L289.678 225.563C290.673 225.366 291.702 225.407 292.676 225.683C293.652 225.959 294.544 226.463 295.28 227.151C297.246 228.869 298.619 231.149 299.207 233.672C300.573 239.101 298.542 244.289 294.64 245.234C290.737 246.18 286.478 242.544 285.112 237.126C284.427 234.625 284.556 231.975 285.481 229.551C285.778 228.7 286.255 227.92 286.878 227.263C287.501 226.605 288.259 226.084 289.1 225.733Z" fill="url(#paint3_linear_2466_25631)"/>
<path d="M307.147 232.472L307.91 231.103C305.854 229.976 301.374 228.812 299.121 232.315L300.475 233.139C302.482 230 306.962 232.364 307.147 232.472Z" fill="url(#paint4_linear_2466_25631)"/>
<path d="M359.685 225.321L360.916 224.351C360.448 223.781 356.3 218.776 352.718 218.897C349.357 219.018 328.849 224.957 327.975 225.26L328.431 226.763C334.314 225.042 350.169 220.545 352.767 220.46C355.155 220.376 358.565 223.939 359.685 225.321Z" fill="url(#paint5_linear_2466_25631)"/>
<path d="M343.842 225.574C343.842 225.574 347.153 209.963 353.997 210.63C360.841 211.296 361.999 231.379 356.52 236.506C355.866 237.211 355.074 237.778 354.191 238.174C353.309 238.569 352.354 238.784 351.385 238.807C350.415 238.83 349.451 238.659 348.55 238.305C347.649 237.952 346.831 237.422 346.144 236.748L343.842 225.574Z" fill="#D5A09F"/>
<path d="M354.183 216.402C354.281 216.342 354.367 216.474 354.293 216.56C350.514 220.292 349.935 225.468 350.12 230.485C350.76 228.256 352.213 226.559 355.167 227.201C355.315 227.201 355.278 227.455 355.167 227.492C354.256 227.575 353.394 227.936 352.701 228.525C352.008 229.114 351.519 229.9 351.302 230.776C350.941 232.238 350.739 233.733 350.698 235.236C350.698 235.734 349.837 235.831 349.788 235.236C349.794 235.197 349.794 235.156 349.788 235.115C347.154 229.516 348.187 219.602 354.183 216.402Z" fill="#263238"/>
<path d="M259.447 335.141C256.333 327.068 184.123 341.685 187.004 354.059C197.578 399.388 227.047 439.893 234.495 449.153C244.269 461.273 263.718 458.583 270.808 451.238C281.087 440.585 262.524 343.14 259.447 335.141Z" fill="#D5A09F"/>
<path d="M264.53 357.392C266.135 361.736 267.407 366.192 268.334 370.724C269.38 375.208 270.292 379.716 271.03 384.249C272.49 393.419 273.312 402.676 273.492 411.956C273.628 417.143 273.492 422.318 273.492 427.506C273.492 427.627 273.295 427.614 273.295 427.506C273.295 422.912 273.012 418.282 272.631 413.701C272.248 409.12 271.781 404.454 271.178 399.86C270.008 390.83 268.716 381.813 267.054 372.856C266.594 370.344 266.114 367.839 265.614 365.342C265.085 362.748 264.481 360.167 264.137 357.537C264.137 357.343 264.444 357.173 264.53 357.392Z" fill="#263238"/>
<path d="M276.865 207.383C277.34 213.555 278.278 219.684 279.671 225.721C279.905 226.751 280.164 227.805 280.422 228.848C281.456 232.993 282.687 237.162 284.115 241.174C284.444 242.143 284.788 243.1 285.149 244.046C289.519 255.669 295.292 265.668 301.792 269.91C303.443 271 305.194 271.933 307.024 272.698C316.341 267.347 324.122 259.751 329.635 250.623C335.148 241.495 338.211 231.136 338.537 220.521L340.506 219.988C340.198 219.515 339.879 219.03 339.571 218.522C339.263 218.012 338.882 217.37 338.549 216.764C338.056 201.16 331.654 186.302 320.601 175.107C305.128 171.011 286.602 176.865 278.81 190.233C276.914 193.542 276.335 199.771 276.865 207.383Z" fill="#D5A09F"/>
<path d="M309.301 219.165C310.609 219.232 311.919 219.232 313.228 219.165C314.742 219.165 315.948 219.274 317.24 218.389C317.588 218.099 317.827 217.702 317.916 217.262C318.006 216.822 317.941 216.365 317.733 215.965C316.785 214.317 314.939 213.892 313.117 213.856C311.289 213.75 309.486 214.316 308.058 215.444C307.741 215.721 307.513 216.082 307.403 216.484C307.293 216.886 307.305 217.311 307.437 217.707C307.569 218.103 307.816 218.451 308.147 218.71C308.478 218.97 308.88 219.128 309.301 219.165Z" fill="#263238"/>
<path d="M310.445 225.429C310.445 225.32 310.704 225.526 310.728 225.636C311.208 228.532 312.267 231.768 315.099 232.204C315.184 232.204 315.209 232.362 315.099 232.374C311.799 232.495 310.445 228.192 310.445 225.429Z" fill="#263238"/>
<path d="M312.451 221.855C317.08 220.583 319.32 229.794 315.036 230.969C310.752 232.145 308.574 222.921 312.451 221.855Z" fill="#263238"/>
<path d="M293.619 228.922C293.619 228.824 293.422 229.116 293.459 229.237C294.247 232.061 294.69 235.43 292.228 236.994C292.154 236.994 292.228 237.187 292.289 237.151C295.416 235.951 294.825 231.491 293.619 228.922Z" fill="#263238"/>
<path d="M290.307 226.558C285.567 227.31 287.438 236.594 291.833 235.903C296.227 235.212 294.283 225.928 290.307 226.558Z" fill="#263238"/>
<path d="M285.506 221.988C286.737 221.467 287.808 220.776 288.99 220.158C290.31 219.681 291.433 218.791 292.19 217.625C292.352 217.214 292.371 216.761 292.243 216.338C292.116 215.915 291.851 215.545 291.488 215.286C289.876 214.255 288.029 214.728 286.392 215.528C284.733 216.283 283.417 217.618 282.699 219.273C282.559 219.657 282.535 220.072 282.627 220.469C282.719 220.866 282.925 221.23 283.22 221.515C283.515 221.8 283.888 221.997 284.293 222.081C284.698 222.164 285.119 222.133 285.506 221.988Z" fill="#263238"/>
<path d="M320.145 250.082C319.616 250.906 319.148 251.985 318.114 252.324C317.032 252.56 315.91 252.56 314.828 252.324C314.805 252.323 314.784 252.329 314.766 252.34C314.747 252.351 314.732 252.367 314.723 252.387C314.714 252.406 314.711 252.428 314.714 252.449C314.717 252.47 314.727 252.49 314.741 252.506C315.291 252.969 315.958 253.276 316.671 253.396C317.384 253.516 318.117 253.442 318.791 253.185C319.344 252.895 319.797 252.45 320.093 251.906C320.389 251.362 320.515 250.744 320.453 250.131C320.465 249.96 320.231 249.96 320.145 250.082Z" fill="#263238"/>
<path d="M315.024 242.25C314.565 243.553 313.837 244.748 312.886 245.759C311.935 246.771 310.781 247.577 309.498 248.129C308.383 248.624 307.201 248.959 305.989 249.122C305.759 249.174 305.524 249.202 305.288 249.207C305.071 249.221 304.852 249.221 304.636 249.207C304.473 249.218 304.313 249.174 304.179 249.084C304.045 248.994 303.946 248.863 303.896 248.711C303.884 248.614 303.884 248.516 303.896 248.419V248.165C303.305 245.984 302.665 242.59 302.665 242.59C301.951 243.184 298.247 246.008 298.037 244.844C296.302 235.148 294.344 224.495 294.713 214.544C294.713 214.473 294.742 214.406 294.793 214.356C294.844 214.306 294.912 214.277 294.984 214.277C295.056 214.277 295.125 214.306 295.176 214.356C295.227 214.406 295.255 214.473 295.255 214.544C297.299 223.731 297.717 233.221 299.576 242.42C300.893 241.417 302.348 240.601 303.896 239.996C304.229 239.996 304.931 246.566 305.276 247.523C305.27 247.555 305.27 247.588 305.276 247.62C309.128 247.207 311.689 245.438 314.717 242.093C314.865 241.85 315.148 241.984 315.024 242.25Z" fill="#263238"/>
<path d="M307.023 247.707C308.631 248.973 310.544 249.808 312.576 250.131C313.687 250.289 314.821 250.093 315.813 249.574C317.992 248.435 317.536 246.326 316.675 244.641C316.21 243.746 315.64 242.908 314.976 242.145C312.997 244.788 310.21 246.737 307.023 247.707Z" fill="#263238"/>
<path d="M312.586 250.166C313.699 250.323 314.832 250.128 315.824 249.609C318.002 248.47 317.547 246.36 316.686 244.676C314.273 245.512 312.217 247.742 312.586 250.166Z" fill="#FF97B8"/>
<path d="M280.632 209.584C281.284 209.85 280.808 209.39 281.448 209.584C299.075 214.965 316.223 195.598 316.223 195.598C318.305 198.766 321.372 201.186 324.966 202.497C328.56 203.807 332.488 203.939 336.164 202.87C338.076 208.416 340.417 213.809 343.168 219.001C342.838 208.696 339.927 198.629 334.696 189.696C329.465 180.764 322.075 173.24 313.182 167.794C307.567 169.735 306.426 162.975 301.157 165.699C298.975 162.625 291.913 161.482 287.942 165.699C287.134 165.251 286.833 165.798 285.911 165.699C284.989 165.6 283.937 166.576 283.05 166.843C282.163 167.109 281.34 167.55 280.631 168.138C279.922 168.728 279.341 169.452 278.924 170.267C280.701 171.967 282.068 174.038 282.924 176.327C285.854 183.866 298.523 172.09 297.084 165C296.447 162.362 290.482 161.503 283.05 163.503C276.448 167.2 274.29 167.081 271.692 170.269C266.842 175.868 265.429 203.342 280.632 209.584Z" fill="#263238"/>
<path d="M307.8 218.33C309.848 216.649 312.388 215.655 315.05 215.494C315.851 215.442 316.655 215.471 317.45 215.579C319.445 215.832 321.349 216.554 323.003 217.682C324.657 218.81 326.012 220.312 326.953 222.063C327.225 222.552 327.456 223.063 327.643 223.589C328.07 224.709 328.323 225.886 328.394 227.08C328.565 229.831 327.804 232.559 326.228 234.836C324.652 237.114 322.353 238.811 319.691 239.661C318.691 239.97 317.659 240.161 316.613 240.23H315.825C312.808 240.236 309.887 239.177 307.595 237.244C305.303 235.312 303.79 232.635 303.331 229.698C303.331 229.346 303.245 228.995 303.22 228.632C303.195 228.268 303.22 228.098 303.22 227.844C303.224 226.024 303.636 224.227 304.429 222.582C305.22 220.937 306.371 219.485 307.8 218.33ZM316.515 238.57C319.161 238.403 321.655 237.293 323.53 235.446C325.406 233.599 326.533 231.144 326.702 228.538C326.871 225.932 326.07 223.355 324.449 221.289C322.828 219.222 320.497 217.808 317.893 217.312C316.989 217.139 316.067 217.082 315.148 217.142C314.244 217.2 313.352 217.367 312.489 217.639C311.39 217.986 310.355 218.507 309.424 219.178C307.511 220.542 306.1 222.482 305.403 224.704C304.706 226.926 304.763 229.311 305.563 231.499C306.363 233.687 307.864 235.56 309.839 236.836C311.814 238.111 314.157 238.72 316.515 238.57Z" fill="url(#paint6_linear_2466_25631)"/>
<path d="M279.449 226.246L279.671 225.725C280.424 224.021 281.721 222.604 283.364 221.689C283.894 221.399 284.461 221.178 285.05 221.034C285.908 220.829 286.797 220.779 287.672 220.889C289.457 221.134 291.13 221.889 292.485 223.058C293.503 223.912 294.383 224.914 295.094 226.028C295.638 226.853 296.095 227.731 296.461 228.646C296.712 229.235 296.918 229.843 297.077 230.464C297.121 230.587 297.158 230.712 297.188 230.839C297.917 233.588 297.84 236.483 296.965 239.19C296.601 240.444 295.958 241.602 295.083 242.581C294.208 243.559 293.123 244.335 291.907 244.85C291.648 244.947 291.39 245.02 291.118 245.093C290.099 245.32 289.044 245.345 288.015 245.166C286.985 244.988 286.002 244.608 285.124 244.05C281.989 242.033 279.78 238.887 278.969 235.287C278.166 232.299 278.333 229.136 279.449 226.246ZM280.68 234.888C281.24 237.251 282.434 239.424 284.139 241.178C284.942 242.099 285.976 242.796 287.138 243.2C288.3 243.604 289.55 243.701 290.761 243.48C294.898 242.474 297.052 236.984 295.6 231.239C294.978 228.569 293.529 226.154 291.451 224.331C290.669 223.602 289.721 223.07 288.686 222.776C287.652 222.483 286.561 222.439 285.505 222.647C285.3 222.694 285.099 222.755 284.902 222.828C284.011 223.202 283.209 223.756 282.548 224.453C281.886 225.15 281.38 225.975 281.062 226.876C280.799 227.514 280.601 228.175 280.471 228.852C280.078 230.851 280.132 232.911 280.63 234.888H280.68Z" fill="url(#paint7_linear_2466_25631)"/>
<path d="M303.971 229.964L304.771 228.51C302.592 227.298 297.84 226.086 295.465 229.843L296.893 230.715C299.022 227.346 303.762 229.854 303.971 229.964Z" fill="url(#paint8_linear_2466_25631)"/>
<path d="M326.043 222.326L326.524 223.913L327.644 223.586C330.413 222.786 334.5 221.623 338.575 220.508L340.544 219.974C340.236 219.502 339.917 219.017 339.609 218.508L338.611 218.787C333.687 220.12 328.924 221.489 326.954 222.059L326.043 222.326Z" fill="url(#paint9_linear_2466_25631)"/>
<g opacity="0.3">
<path d="M263.654 289.567C275.918 292.226 288.708 291.245 300.406 286.747C312.104 282.25 322.185 274.438 329.373 264.3C336.561 254.161 340.535 242.151 340.791 229.789C341.046 217.427 337.573 205.268 330.81 194.849C324.048 184.43 314.299 176.221 302.797 171.257C291.295 166.294 278.556 164.801 266.192 166.966C253.828 169.131 242.393 174.857 233.335 183.421C224.276 191.985 218 203.001 215.301 215.077C213.507 223.095 213.335 231.381 214.794 239.463C216.254 247.546 219.316 255.266 223.806 262.184C228.296 269.101 234.126 275.079 240.963 279.778C247.8 284.476 255.511 287.802 263.654 289.567Z" fill="white"/>
<path d="M332.994 258.527C324.951 272.983 311.439 283.728 295.394 288.428C279.348 293.129 262.067 291.403 247.307 283.628L332.994 258.527Z" fill="#EBEBEB"/>
<path d="M331.173 195.465L213.812 229.85C213.71 224.885 214.206 219.925 215.289 215.076C216.517 209.512 218.526 204.143 221.26 199.125L307.896 173.734C317.415 178.899 325.429 186.381 331.173 195.465Z" fill="#EBEBEB"/>
<path d="M340.332 235.813L228.547 268.537C225.883 265.387 223.538 261.991 221.543 258.393L340.579 223.512C340.921 227.61 340.839 231.732 340.332 235.813Z" fill="#EBEBEB"/>
<path d="M335.234 203.029L214.599 238.382C214.476 237.631 214.365 236.88 214.279 236.128L334.275 200.98C334.607 201.647 334.939 202.325 335.234 203.029Z" fill="#EBEBEB"/>
<path d="M287.807 166.879L234.26 182.561C235.65 181.289 237.115 180.137 238.629 178.925L282.119 166.199C284.026 166.33 285.924 166.557 287.807 166.879Z" fill="#EBEBEB"/>
</g>
<path d="M252.737 356.997L236.436 353.463L252.223 282.883L268.524 286.418L252.737 356.997Z" fill="#EBEBEB"/>
<path d="M208.337 213.551C211.339 200.128 218.316 187.883 228.387 178.363C238.457 168.844 251.168 162.48 264.913 160.073C278.657 157.667 292.818 159.328 305.604 164.846C318.389 170.363 329.226 179.49 336.745 191.071C344.262 202.653 348.123 216.169 347.838 229.911C347.554 243.654 343.138 257.004 335.147 268.274C327.157 279.545 315.951 288.23 302.948 293.23C289.944 298.23 275.726 299.322 262.093 296.367C243.813 292.398 227.883 281.445 217.803 265.916C207.723 250.386 204.317 231.551 208.337 213.551ZM263.632 289.543C275.896 292.206 288.687 291.226 300.385 286.731C312.085 282.235 322.167 274.424 329.357 264.286C336.548 254.149 340.523 242.139 340.781 229.777C341.038 217.414 337.566 205.254 330.805 194.835C324.043 184.415 314.294 176.203 302.792 171.239C291.29 166.275 278.551 164.78 266.186 166.944C253.822 169.108 242.387 174.834 233.327 183.398C224.268 191.962 217.991 202.978 215.292 215.054C213.497 223.07 213.324 231.356 214.783 239.438C216.242 247.519 219.303 255.239 223.792 262.156C228.281 269.074 234.109 275.053 240.945 279.752C247.781 284.451 255.49 287.778 263.632 289.543Z" fill="#455A64"/>
<path d="M246.004 406.659L221.348 401.314L235.332 338.738L260 344.083L246.004 406.659Z" fill="#263238"/>
<path d="M235.246 210.475C235.272 210.404 235.293 210.332 235.308 210.258C235.603 209.215 234.987 211.263 235.209 210.585C235.431 209.905 235.751 208.948 236.059 208.161C237.136 205.349 238.454 202.632 239.998 200.04C240.207 199.677 240.441 199.313 240.65 198.949C240.724 198.828 240.109 199.798 240.65 199.034L241.081 198.38C241.647 197.543 242.226 196.719 242.829 195.956C244.162 194.182 245.614 192.498 247.174 190.914L248.307 189.799C248.824 189.301 247.704 190.344 248.418 189.702L249.132 189.059C250.055 188.271 251.003 187.508 251.988 186.781C252.972 186.053 254.142 185.254 255.262 184.563C255.779 184.248 256.296 183.945 256.825 183.654C257.736 183.133 256.431 183.836 257.108 183.496L258.081 183.012C261.021 181.587 264.097 180.45 267.264 179.618H267.424L267.768 179.545L269.184 179.242C270.107 179.06 271.018 178.903 271.954 178.77C273.909 178.494 275.877 178.316 277.85 178.236C278.398 178.175 278.928 178.008 279.411 177.745C279.893 177.481 280.319 177.128 280.662 176.703C281.356 175.845 281.675 174.751 281.549 173.661C281.424 172.571 280.863 171.575 279.992 170.892C279.121 170.209 278.009 169.895 276.902 170.019C264.325 170.402 252.297 175.184 242.977 183.508C236.785 189.218 231.943 196.198 228.796 203.955C228.075 205.686 227.475 207.464 226.999 209.275C226.829 210.358 227.101 211.464 227.756 212.349C228.411 213.235 229.396 213.83 230.495 214.002C231.591 214.147 232.702 213.871 233.596 213.23C234.49 212.588 235.099 211.632 235.295 210.561L235.246 210.475Z" fill="white"/>
<path d="M233.523 222.654C233.398 223.451 233.036 224.193 232.481 224.788C231.928 225.381 231.207 225.8 230.411 225.99C229.616 226.181 228.78 226.134 228.011 225.857C227.242 225.579 226.574 225.083 226.092 224.431C225.61 223.779 225.335 223.001 225.302 222.196C225.27 221.389 225.481 220.593 225.909 219.905C226.337 219.218 226.963 218.67 227.707 218.334C228.451 217.996 229.28 217.885 230.088 218.012C231.168 218.182 232.135 218.766 232.778 219.635C233.422 220.505 233.689 221.59 233.523 222.654Z" fill="white"/>
<path d="M191.854 368.229C191.854 368.229 174.226 339.699 196.175 312.477C205.21 301.279 226.53 281.196 269.786 283.995C280.053 284.662 294.197 292.77 277.037 297.679C264.851 301.169 256.049 299.751 249.328 303.048C249.328 303.048 266.082 315.471 264.998 325.567C264.518 330.075 264.161 339.929 261.515 349.31C261.515 349.31 258.043 351.734 255.224 351.322C255.224 351.322 247.629 372.895 220.314 379.525L191.854 368.229Z" fill="#D5A09F"/>
<path d="M205.445 308.815C212.511 306.039 227.603 300.415 241.574 300.028C257.097 299.603 287.12 302.912 287.305 314.195C287.453 322.474 275.881 322.195 275.881 322.195C275.881 322.195 287.994 326.134 286.456 333.636C285.064 340.472 276.128 339.696 276.128 339.696C276.128 339.696 283.058 343.332 280.424 349.659C277.261 357.27 263.264 348.447 253.342 353.392C251.052 354.555 205.445 308.815 205.445 308.815Z" fill="#D5A09F"/>
<path d="M239.319 316.248C246.397 314.72 263.397 315.302 275.731 321.931C276.014 322.077 276.052 322.368 275.731 322.284C263.88 318.88 251.653 316.902 239.319 316.393C239.209 316.393 239.209 316.332 239.319 316.248Z" fill="#263238"/>
<path d="M240.183 331.66C246.436 330.957 263.928 332.327 276.189 339.465C276.472 339.623 276.484 339.914 276.189 339.817C264.525 335.815 252.437 333.127 240.158 331.805C240.138 331.802 240.121 331.791 240.109 331.776C240.098 331.76 240.094 331.74 240.097 331.721C240.1 331.702 240.111 331.684 240.127 331.673C240.143 331.661 240.163 331.657 240.183 331.66Z" fill="#263238"/>
<path d="M214.984 381.379C221.25 379.915 227.299 377.662 232.981 374.677C238.702 371.628 243.766 367.512 247.888 362.557C249.119 361.042 250.35 359.466 251.421 357.854C252.492 356.242 253.674 354.412 254.941 352.812C255.04 352.691 255.274 352.812 255.2 352.921C253.774 356.285 252.017 359.505 249.956 362.532C248.108 365.364 245.899 367.95 243.383 370.228C238.415 374.58 232.53 377.792 226.149 379.634C222.526 380.627 218.817 381.288 215.07 381.609C214.885 381.658 214.812 381.415 214.984 381.379Z" fill="#263238"/>
<path d="M394.668 290.079C426.379 332.002 479.298 441.264 487.078 457.335C492.359 468.243 434.466 496.967 432.016 489.041C428.865 478.884 377.102 344.813 369.852 295.933C365.888 269.135 383.701 275.571 394.668 290.079Z" fill="#D5A09F"/>
<path d="M430.453 483.587C431.795 493.464 438.615 513.366 443.686 516.407C448.758 519.45 475.408 518.831 488.839 518.831C502.268 518.831 504.841 515.135 504.681 510.59C504.521 506.045 476.282 505.172 476.282 505.172C476.282 505.172 513.925 515.741 523.392 517.523C532.858 519.305 554.659 524.673 557.859 516.953C559.275 513.462 553.305 509.936 553.305 509.936C553.305 509.936 562.451 512.566 563.916 508.094C565.565 502.991 558.29 500.191 558.29 500.191C558.29 500.191 564.014 501.318 564.15 497.161C564.395 487.829 528.599 483.272 528.599 483.272C528.599 483.272 556.001 496.409 556.911 488.823C558.142 478.339 501.961 466.837 496.114 462.268C491.859 458.776 487.88 454.971 484.21 450.887L430.453 483.587Z" fill="#D5A09F"/>
<path d="M504.485 512.843C504.58 512.2 504.518 511.542 504.303 510.928C504.09 510.312 503.73 509.755 503.254 509.304C502.289 508.434 501.182 507.729 499.979 507.22C497.496 506.181 494.921 505.369 492.286 504.796C486.993 503.474 481.564 502.541 476.16 501.16C481.731 501.077 487.29 501.688 492.705 502.978C495.471 503.603 498.136 504.606 500.619 505.959C501.906 506.655 503.033 507.604 503.931 508.746C504.373 509.325 504.655 510.006 504.753 510.724C504.85 511.441 504.757 512.171 504.485 512.843Z" fill="#263238"/>
<path d="M553.22 509.885C549.343 508.952 545.527 507.885 541.723 506.794C537.92 505.703 534.128 504.565 530.336 503.437L518.999 499.946C515.22 498.734 511.441 497.62 507.625 496.492C511.586 496.921 515.514 497.614 519.381 498.565C523.271 499.438 527.087 500.528 530.891 501.667C534.694 502.807 538.461 504.091 542.179 505.449C545.896 506.807 549.65 508.237 553.22 509.885Z" fill="#263238"/>
<path d="M516.758 487.223C520.409 487.448 524.039 487.942 527.615 488.701C531.204 489.404 534.751 490.302 538.238 491.391C541.735 492.459 545.166 493.721 548.517 495.173C551.879 496.588 555.133 498.241 558.254 500.118C554.795 498.906 551.422 497.633 547.987 496.482C544.553 495.33 541.131 494.192 537.672 493.149C534.213 492.107 530.754 491.077 527.27 490.071C523.787 489.065 520.291 488.192 516.758 487.223Z" fill="#263238"/>
<path d="M522.297 478.398C528.178 478.865 533.972 480.087 539.531 482.034C545.143 483.865 550.486 486.416 555.422 489.622C549.858 487.67 544.442 485.61 538.915 483.792C533.388 481.974 527.91 480.18 522.297 478.398Z" fill="#263238"/>
<path d="M381.192 361.938L445.448 360.193C445.448 360.193 410.427 305.314 391.667 285.182C372.082 264.214 361.422 266.021 368.106 303.169C374.84 340.571 381.192 361.938 381.192 361.938Z" fill="url(#paint10_linear_2466_25631)"/>
<path d="M420.95 350.896C422.683 351.642 424.307 352.617 425.775 353.793C422.023 353.196 418.491 351.655 415.521 349.32C417.398 349.585 419.227 350.116 420.95 350.896ZM385.066 310.706C385.809 308.99 386.8 307.39 388.008 305.955C387.417 309.651 385.846 313.13 383.454 316.039C383.724 314.194 384.268 312.397 385.066 310.706ZM414.696 322.632C415.398 324.363 415.846 326.183 416.026 328.038C413.795 325.009 412.411 321.456 412.012 317.736C413.146 319.229 414.05 320.879 414.696 322.632ZM386.384 347.405C387.092 349.138 387.535 350.963 387.701 352.823C385.483 349.787 384.101 346.238 383.688 342.521C384.826 344.013 385.743 345.658 386.408 347.405H386.384ZM367.55 275.352C367.857 275.982 368.141 276.624 368.412 277.279C369.106 279.012 369.553 280.831 369.741 282.684C368.608 281.204 367.696 279.572 367.033 277.836C366.971 277.679 366.922 277.533 366.873 277.376C367.048 276.683 367.283 276.006 367.574 275.352H367.55Z" fill="white"/>
<path d="M385.214 350.934C386.741 350.716 388.304 350.716 389.83 350.643L394.57 350.389C397.754 350.235 400.95 350.11 404.159 350.013C410.56 349.819 416.949 349.601 423.338 349.516C425.098 349.516 426.859 349.516 428.619 349.516C430.379 349.516 432.312 349.698 434.158 349.71C434.269 349.71 434.256 349.88 434.158 349.88C432.582 349.976 431.007 350.207 429.419 350.304C427.831 350.4 426.181 350.497 424.556 350.558C421.356 350.679 418.155 350.789 414.955 350.861C408.664 351.006 402.362 351.177 396.072 351.188H390.729C388.895 351.188 387.036 351.285 385.19 351.127C385.14 351.092 385.116 350.946 385.214 350.934Z" fill="#263238"/>
<path d="M368.732 320.79C368.732 320.669 368.88 320.596 368.942 320.717C370.133 322.879 371.154 325.128 371.995 327.444C371.773 326.341 371.514 325.238 371.305 324.123C370.603 320.56 369.963 316.973 369.25 313.409C369.257 313.388 369.271 313.369 369.29 313.356C369.308 313.343 369.331 313.336 369.354 313.336C369.377 313.336 369.399 313.343 369.418 313.356C369.437 313.369 369.451 313.388 369.459 313.409C371.121 319.542 373.053 325.614 374.53 331.795C376.007 337.977 377.497 344.158 378.875 350.363C379.626 353.793 380.304 358.071 381.067 361.489C382.926 361.707 385.313 361.489 387.32 361.743C387.492 361.743 387.443 362.046 387.32 362.046C385.203 362.107 382.679 362.58 380.451 362.447C380.168 362.447 374.776 340.401 372.536 329.844C371.157 326.838 369.877 323.832 368.732 320.79Z" fill="#263238"/>
<path d="M323.027 286.516C323.926 289.413 324.947 292.273 326.117 295.072C327.093 297.594 328.292 300.028 329.699 302.344C332.358 306.478 336.445 309.895 341.627 309.883C346.551 309.883 351.056 307.071 354.208 303.484C357.655 299.569 359.944 294.661 362 289.934C363.231 287.013 364.462 284.031 365.447 281.013C365.951 279.486 366.481 277.959 366.923 276.408C367.367 274.856 367.748 273.293 368.29 271.778C368.29 271.657 368.561 271.669 368.524 271.778C367.613 275.269 364.967 286.322 363.908 289.134C361.963 294.285 359.772 299.605 356.263 303.944C352.94 308.041 348.422 311.144 343.019 311.653C337.614 312.162 332.986 309.362 330.007 305.145C328.255 302.487 326.888 299.603 325.944 296.575C324.8 293.254 323.839 289.849 322.966 286.443C322.916 286.491 323.027 286.48 323.027 286.516Z" fill="#263238"/>
<path d="M121.32 521.764H209.594L213.532 445.359H121.32V521.764Z" fill="#DBDBDB"/>
<path d="M121.32 445.36L89.6097 406.273L64.375 445.36L68.3141 521.765H121.32V445.36Z" fill="#C7C7C7"/>
<path d="M182.72 393.863H88.4895L54.502 448.452H65.4453L88.4895 410.661L115.066 452.96H221.311L182.72 393.863Z" fill="#A6A6A6"/>
<path d="M171.803 411.133H192.065L202.872 423.883H179.484L171.803 411.133Z" fill="#C7C7C7"/>
<path d="M187.15 421.703V437.228H198.426V421.703L192.788 414.758L187.15 421.703Z" fill="#DBDBDB"/>
<path d="M187.153 421.691H178.289L187.153 437.23V421.691Z" fill="#C7C7C7"/>
<path d="M189.873 421.945H196.286V432.599H189.873V421.945Z" fill="#FBFAFF"/>
<path d="M193.43 422.684H195.498V426.113H193.43V422.684Z" fill="#EBEBEB"/>
<path d="M190.672 422.684H192.74V426.113H190.672V422.684Z" fill="#EBEBEB"/>
<path d="M193.43 426.734H195.498V431.813H193.43V426.734Z" fill="#EBEBEB"/>
<path d="M190.672 426.734H192.74V431.813H190.672V426.734Z" fill="#EBEBEB"/>
<path d="M122.193 411.133H142.455L152.599 423.883H129.924L122.193 411.133Z" fill="#C7C7C7"/>
<path d="M137.545 421.703V437.228H148.82V421.703L143.183 414.758L137.545 421.703Z" fill="#DBDBDB"/>
<path d="M137.543 421.691H128.668L137.543 437.23V421.691Z" fill="#C7C7C7"/>
<path d="M140.264 421.945H146.677V432.599H140.264V421.945Z" fill="#FBFAFF"/>
<path d="M143.822 422.684H145.891V426.113H143.822V422.684Z" fill="#EBEBEB"/>
<path d="M141.051 422.684H143.119V426.113H141.051V422.684Z" fill="#EBEBEB"/>
<path d="M143.822 426.734H145.891V431.813H143.822V426.734Z" fill="#EBEBEB"/>
<path d="M141.051 426.734H143.119V431.813H141.051V426.734Z" fill="#EBEBEB"/>
<path d="M105.391 391.656H116.666V406.273H105.391V391.656Z" fill="#DBDBDB"/>
<path d="M105.39 391.656H96.5273V394.008L105.39 406.273V391.656Z" fill="#C7C7C7"/>
<path d="M105.391 386.688H117.934V391.657H105.391V386.688Z" fill="#C7C7C7"/>
<path d="M95.5547 386.688H105.391V391.657H95.5547V386.688Z" fill="#A6A6A6"/>
<path d="M186.303 459.215H200.261V482.425H186.303V459.215Z" fill="#FBFAFF"/>
<path d="M194.047 460.828H198.54V468.306H194.047V460.828Z" fill="#EBEBEB"/>
<path d="M188.025 460.828H192.519V468.306H188.025V460.828Z" fill="#EBEBEB"/>
<path d="M194.047 469.648H198.54V480.727H194.047V469.648Z" fill="#EBEBEB"/>
<path d="M188.025 469.648H192.519V480.727H188.025V469.648Z" fill="#EBEBEB"/>
<path d="M134.455 459.215H148.414V482.425H134.455V459.215Z" fill="#FBFAFF"/>
<path d="M142.195 460.828H146.689V468.306H142.195V460.828Z" fill="#EBEBEB"/>
<path d="M136.176 460.828H140.669V468.306H136.176V460.828Z" fill="#EBEBEB"/>
<path d="M142.195 469.648H146.689V480.727H142.195V469.648Z" fill="#EBEBEB"/>
<path d="M136.176 469.648H140.669V480.727H136.176V469.648Z" fill="#EBEBEB"/>
<path d="M186.303 491.465H200.261V514.675H186.303V491.465Z" fill="#FBFAFF"/>
<path d="M194.047 493.078H198.54V500.556H194.047V493.078Z" fill="#EBEBEB"/>
<path d="M188.025 493.078H192.519V500.556H188.025V493.078Z" fill="#EBEBEB"/>
<path d="M194.047 501.902H198.54V512.981H194.047V501.902Z" fill="#EBEBEB"/>
<path d="M188.025 501.902H192.519V512.981H188.025V501.902Z" fill="#EBEBEB"/>
<path d="M134.455 491.465H148.414V514.675H134.455V491.465Z" fill="#FBFAFF"/>
<path d="M142.195 493.078H146.689V500.556H142.195V493.078Z" fill="#EBEBEB"/>
<path d="M136.176 493.078H140.669V500.556H136.176V493.078Z" fill="#EBEBEB"/>
<path d="M142.195 501.902H146.689V512.981H142.195V501.902Z" fill="#EBEBEB"/>
<path d="M136.176 501.902H140.669V512.981H136.176V501.902Z" fill="#EBEBEB"/>
<path d="M160.451 459.215H174.411V482.425H160.451V459.215Z" fill="#FBFAFF"/>
<path d="M168.195 460.828H172.688V468.306H168.195V460.828Z" fill="#EBEBEB"/>
<path d="M162.164 460.828H166.657V468.306H162.164V460.828Z" fill="#EBEBEB"/>
<path d="M168.195 469.648H172.688V480.727H168.195V469.648Z" fill="#EBEBEB"/>
<path d="M162.164 469.648H166.657V480.727H162.164V469.648Z" fill="#EBEBEB"/>
<path d="M160.451 491.625H174.411V514.834H160.451V491.625Z" fill="#FBFAFF"/>
<path d="M168.195 493.223H172.688V500.701H168.195V493.223Z" fill="#EBEBEB"/>
<path d="M162.164 493.223H166.657V500.701H162.164V493.223Z" fill="#EBEBEB"/>
<path d="M168.195 502.059H172.688V513.137H168.195V502.059Z" fill="#EBEBEB"/>
<path d="M162.164 502.059H166.657V513.137H162.164V502.059Z" fill="#EBEBEB"/>
<path d="M96.2302 482.424H82.2715V459.215H96.2302V482.424Z" fill="#FBFAFF"/>
<path d="M83.9961 460.828H88.4886V468.306H83.9961V460.828Z" fill="#EBEBEB"/>
<path d="M90.0273 460.828H94.5205V468.306H90.0273V460.828Z" fill="#EBEBEB"/>
<path d="M83.9961 469.648H88.4886V480.727H83.9961V469.648Z" fill="#EBEBEB"/>
<path d="M90.0273 469.648H94.5205V480.727H90.0273V469.648Z" fill="#EBEBEB"/>
<path d="M96.2302 446.549H82.2715V426.902H96.2302V446.549Z" fill="#FBFAFF"/>
<path d="M83.9961 428.5H88.4886V435.978H83.9961V428.5Z" fill="#EBEBEB"/>
<path d="M90.0273 428.5H94.5205V435.978H90.0273V428.5Z" fill="#EBEBEB"/>
<path d="M83.9961 437.41H88.4886V444.888H83.9961V437.41Z" fill="#EBEBEB"/>
<path d="M90.0273 437.41H94.5205V444.888H90.0273V437.41Z" fill="#EBEBEB"/>
<path d="M98.2189 521.908L81.293 521.986L81.1484 491.723L98.0743 491.645L98.2189 521.908Z" fill="#FBFAFF"/>
<path d="M91.4562 493.742L91.4779 498.275L87.8341 498.292L87.8125 493.759L91.4562 493.742Z" fill="#EBEBEB"/>
<path d="M96.2199 493.715L96.2415 498.248L92.5978 498.265L92.5762 493.732L96.2199 493.715Z" fill="#EBEBEB"/>
<path d="M93.5699 514.732L85.8763 514.768L85.8711 513.677L93.5647 513.641L93.5699 514.732Z" fill="#EBEBEB"/>
<path d="M89.1769 491.43V495.963H85.5332V491.43H89.1769Z" fill="#EBEBEB"/>
<path d="M91.4699 499.461L91.4915 503.994L87.8478 504.011L87.8262 499.478L91.4699 499.461Z" fill="#EBEBEB"/>
<path d="M96.2687 499.426L96.2904 503.958L92.6466 503.975L92.625 499.443L96.2687 499.426Z" fill="#EBEBEB"/>
<path d="M86.6945 499.488L86.7161 504.021L83.0731 504.038L83.0508 499.505L86.6945 499.488Z" fill="#EBEBEB"/>
<path d="M91.4934 505.199L91.515 509.732L87.8712 509.749L87.8496 505.216L91.4934 505.199Z" fill="#EBEBEB"/>
<path d="M96.2805 505.176L96.3021 509.708L92.6583 509.725L92.6367 505.193L96.2805 505.176Z" fill="#EBEBEB"/>
<path d="M86.7199 505.223L86.7415 509.755L83.0978 509.772L83.0762 505.24L86.7199 505.223Z" fill="#EBEBEB"/>
<path d="M364.264 521.973H442.676L446.185 484.559H364.264V521.973Z" fill="#DBDBDB"/>
<path d="M364.29 484.508L336.125 449.797L313.697 484.508L317.205 521.923H364.29V484.508Z" fill="#C7C7C7"/>
<path d="M419.277 438.816H334.107L302.557 491.308H311.161L335.264 451.797L358.418 491.308H452.785L419.277 438.816Z" fill="#A6A6A6"/>
<path d="M421.801 498.449H434.209V515.902H421.801V498.449Z" fill="#FBFAFF"/>
<path d="M428.693 499.879H432.681V506.521H428.693V499.879Z" fill="#DBDBDB"/>
<path d="M423.338 499.879H427.327V506.521H423.338V499.879Z" fill="#DBDBDB"/>
<path d="M428.693 507.777H432.681V514.419H428.693V507.777Z" fill="#DBDBDB"/>
<path d="M423.338 507.777H427.327V514.419H423.338V507.777Z" fill="#DBDBDB"/>
<path d="M376.229 498.449H388.637V515.902H376.229V498.449Z" fill="#FBFAFF"/>
<path d="M383.123 499.879H387.111V506.521H383.123V499.879Z" fill="#DBDBDB"/>
<path d="M377.768 499.879H381.756V506.521H377.768V499.879Z" fill="#DBDBDB"/>
<path d="M383.123 507.777H387.111V514.419H383.123V507.777Z" fill="#DBDBDB"/>
<path d="M377.768 507.777H381.756V514.419H377.768V507.777Z" fill="#DBDBDB"/>
<path d="M398.941 497.512H412.618V521.97H398.941V497.512Z" fill="#FBFAFF"/>
<path d="M404.309 499.199H407.251V502.859H404.309V499.199Z" fill="#DBDBDB"/>
<path d="M400.443 499.199H403.385V502.859H400.443V499.199Z" fill="#DBDBDB"/>
<path d="M402.67 515.258H408.887V516.143H402.67V515.258Z" fill="#DBDBDB"/>
<path d="M408.174 499.199H411.116V502.859H408.174V499.199Z" fill="#DBDBDB"/>
<path d="M404.309 503.828H407.251V507.488H404.309V503.828Z" fill="#DBDBDB"/>
<path d="M400.443 503.828H403.385V507.488H400.443V503.828Z" fill="#DBDBDB"/>
<path d="M408.174 503.828H411.116V507.488H408.174V503.828Z" fill="#DBDBDB"/>
<path d="M404.309 508.457H407.251V512.117H404.309V508.457Z" fill="#DBDBDB"/>
<path d="M400.443 508.457H403.385V512.117H400.443V508.457Z" fill="#DBDBDB"/>
<path d="M408.174 508.457H411.116V512.117H408.174V508.457Z" fill="#DBDBDB"/>
<path d="M401.256 436.719H411.276V449.699H401.256V436.719Z" fill="#DBDBDB"/>
<path d="M401.255 436.719H393.377V438.803L401.255 449.699V436.719Z" fill="#C7C7C7"/>
<path d="M401.256 432.297H412.396V436.709H401.256V432.297Z" fill="#C7C7C7"/>
<path d="M392.516 432.297H401.256V436.709H392.516V432.297Z" fill="#A6A6A6"/>
<path d="M333.268 521.984H307.837L305.412 496.18H333.268V521.984Z" fill="#C7C7C7"/>
<path d="M333.27 496.181L345.838 490.594L345.555 521.985H333.27V496.181Z" fill="#DBDBDB"/>
<path d="M313.795 502.859H324.492V521.973H313.795V502.859Z" fill="#FBFAFF"/>
<path d="M317.992 504.168H320.294V507.029H317.992V504.168Z" fill="#DBDBDB"/>
<path d="M314.977 504.168H317.278V507.029H314.977V504.168Z" fill="#DBDBDB"/>
<path d="M316.713 515.438H321.575V516.129H316.713V515.438Z" fill="#DBDBDB"/>
<path d="M321.008 504.168H323.31V507.029H321.008V504.168Z" fill="#DBDBDB"/>
<path d="M347.756 489.309H310.802L298.861 498.253H334.338L347.756 489.309Z" fill="#A6A6A6"/>
<path d="M334.34 498.253H347.758V489.309L334.34 498.253Z" fill="#C7C7C7"/>
<path d="M342.278 476.23C342.278 477.465 341.907 478.673 341.209 479.7C340.513 480.726 339.521 481.526 338.362 481.998C337.203 482.47 335.928 482.593 334.697 482.351C333.468 482.11 332.338 481.514 331.452 480.64C330.566 479.766 329.963 478.652 329.72 477.441C329.477 476.229 329.604 474.974 330.086 473.833C330.567 472.693 331.382 471.719 332.426 471.035C333.47 470.35 334.697 469.986 335.951 469.988C337.63 469.992 339.24 470.651 340.426 471.821C341.612 472.991 342.278 474.577 342.278 476.23Z" fill="#FBFAFF"/>
<path d="M340.865 476.231C340.865 477.516 340.346 478.749 339.422 479.658C338.499 480.568 337.247 481.079 335.941 481.079C335.525 481.082 335.111 481.029 334.71 480.921C333.563 480.614 332.568 479.91 331.908 478.938C331.247 477.966 330.966 476.791 331.116 475.631C331.265 474.47 331.836 473.403 332.724 472.624C333.61 471.845 334.753 471.409 335.941 471.395C336.357 471.393 336.77 471.446 337.172 471.552C337.745 471.69 338.285 471.937 338.76 472.279C339.407 472.724 339.935 473.315 340.302 474.003C340.667 474.69 340.861 475.455 340.865 476.231Z" fill="#C7C7C7"/>
<path d="M336.628 481.927H335.262V470.438H336.628V481.927Z" fill="#FBFAFF"/>
<path d="M330.104 476.849V475.504H341.773V476.849H330.104Z" fill="#FBFAFF"/>
<path d="M297.029 521.983H336.654L339.362 493.125H297.029V521.983Z" fill="url(#paint11_linear_2466_25631)"/>
<path opacity="0.2" d="M297.029 521.983H336.654L339.362 493.125H297.029V521.983Z" fill="black"/>
<path d="M297.028 493.129L275.301 466.344L258.006 493.129L260.702 521.986H297.028V493.129Z" fill="url(#paint12_linear_2466_25631)"/>
<path d="M294.406 496.653H348.175L315.468 456.16H275.079L250.805 496.653H256.972L275.079 468.91L294.406 496.653Z" fill="url(#paint13_linear_2466_25631)"/>
<path opacity="0.4" d="M294.406 496.653H348.175L315.468 456.16H275.079L250.805 496.653H256.972L275.079 468.91L294.406 496.653Z" fill="black"/>
<path d="M240.145 420.344H251.346V434.864H240.145V420.344Z" fill="url(#paint14_linear_2466_25631)"/>
<path opacity="0.2" d="M240.145 420.344H251.346V434.864H240.145V420.344Z" fill="black"/>
<path d="M231.33 420.344H240.144V434.864H231.33V420.344Z" fill="url(#paint15_linear_2466_25631)"/>
<path d="M240.145 415.402H252.602V420.335H240.145V415.402Z" fill="url(#paint16_linear_2466_25631)"/>
<path opacity="0.5" d="M240.145 415.402H252.602V420.335H240.145V415.402Z" fill="black"/>
<path d="M230.371 415.402H240.145V420.335H230.371V415.402Z" fill="url(#paint17_linear_2466_25631)"/>
<path opacity="0.4" d="M230.371 415.402H240.145V420.335H230.371V415.402Z" fill="black"/>
<path d="M200.779 521.948H288.486L292.413 480.098H200.779V521.948Z" fill="url(#paint18_linear_2466_25631)"/>
<path opacity="0.2" d="M200.779 521.948H288.486L292.413 480.098H200.779V521.948Z" fill="black"/>
<path d="M200.78 480.095L169.279 441.25L144.191 480.095L148.118 521.946H200.78V480.095Z" fill="url(#paint19_linear_2466_25631)"/>
<path d="M169.658 443.712L143.758 483.15H134.711L168.883 428.926H262.179L309.448 487.647H195.497L169.658 443.712Z" fill="url(#paint20_linear_2466_25631)"/>
<path opacity="0.5" d="M169.658 443.712L143.758 483.15H134.711L168.883 428.926H262.179L309.448 487.647H195.497L169.658 443.712Z" fill="black"/>
<path d="M177.465 485.974H163.592V466.449H177.465V485.974Z" fill="#FBFAFF"/>
<path d="M165.303 468.039H169.771V475.469H165.303V468.039Z" fill="url(#paint21_linear_2466_25631)"/>
<path d="M171.283 468.039H175.752V475.469H171.283V468.039Z" fill="url(#paint22_linear_2466_25631)"/>
<path d="M165.303 476.887H169.771V484.316H165.303V476.887Z" fill="url(#paint23_linear_2466_25631)"/>
<path d="M171.283 476.887H175.752V484.316H171.283V476.887Z" fill="url(#paint24_linear_2466_25631)"/>
<path d="M265.146 495.621H279.02V515.147H265.146V495.621Z" fill="#FBFAFF"/>
<path d="M272.84 497.223H277.308V504.652H272.84V497.223Z" fill="url(#paint25_linear_2466_25631)"/>
<path d="M266.846 497.223H271.314V504.652H266.846V497.223Z" fill="url(#paint26_linear_2466_25631)"/>
<path d="M272.84 506.07H277.308V513.5H272.84V506.07Z" fill="url(#paint27_linear_2466_25631)"/>
<path d="M266.846 506.07H271.314V513.5H266.846V506.07Z" fill="url(#paint28_linear_2466_25631)"/>
<path d="M239.652 495.621H253.525V515.147H239.652V495.621Z" fill="#FBFAFF"/>
<path d="M247.359 497.223H251.827V504.652H247.359V497.223Z" fill="url(#paint29_linear_2466_25631)"/>
<path d="M241.363 497.223H245.832V504.652H241.363V497.223Z" fill="url(#paint30_linear_2466_25631)"/>
<path d="M247.359 506.07H251.827V513.5H247.359V506.07Z" fill="url(#paint31_linear_2466_25631)"/>
<path d="M241.363 506.07H245.832V513.5H241.363V506.07Z" fill="url(#paint32_linear_2466_25631)"/>
<path d="M214.172 495.621H228.045V515.147H214.172V495.621Z" fill="#FBFAFF"/>
<path d="M221.865 497.223H226.334V504.652H221.865V497.223Z" fill="url(#paint33_linear_2466_25631)"/>
<path d="M215.883 497.223H220.351V504.652H215.883V497.223Z" fill="url(#paint34_linear_2466_25631)"/>
<path d="M221.865 506.07H226.334V513.5H221.865V506.07Z" fill="url(#paint35_linear_2466_25631)"/>
<path d="M215.883 506.07H220.351V513.5H215.883V506.07Z" fill="url(#paint36_linear_2466_25631)"/>
<path d="M178.178 521.937H162.877V494.582H178.178V521.937Z" fill="#FBFAFF"/>
<path d="M168.873 496.469H172.172V500.566H168.873V496.469Z" fill="url(#paint37_linear_2466_25631)"/>
<path d="M173.193 496.469H176.492V500.566H173.193V496.469Z" fill="url(#paint38_linear_2466_25631)"/>
<path d="M174.004 515.428H167.049V514.434H174.004V515.428Z" fill="url(#paint39_linear_2466_25631)"/>
<path d="M164.564 496.469H167.864V500.566H164.564V496.469Z" fill="url(#paint40_linear_2466_25631)"/>
<path d="M168.873 501.645H172.172V505.74H168.873V501.645Z" fill="url(#paint41_linear_2466_25631)"/>
<path d="M173.193 501.645H176.492V505.74H173.193V501.645Z" fill="url(#paint42_linear_2466_25631)"/>
<path d="M164.564 501.645H167.864V505.74H164.564V501.645Z" fill="url(#paint43_linear_2466_25631)"/>
<path d="M168.873 506.82H172.172V510.917H168.873V506.82Z" fill="url(#paint44_linear_2466_25631)"/>
<path d="M173.193 506.82H176.492V510.917H173.193V506.82Z" fill="url(#paint45_linear_2466_25631)"/>
<path d="M164.564 506.82H167.864V510.917H164.564V506.82Z" fill="url(#paint46_linear_2466_25631)"/>
<path d="M226.062 442.984H246.201L256.554 455.71H233.756L226.062 442.984Z" fill="url(#paint47_linear_2466_25631)"/>
<path opacity="0.4" d="M226.062 442.984H246.201L256.554 455.71H233.756L226.062 442.984Z" fill="black"/>
<path d="M241.314 453.482V468.911H252.529V453.482L246.916 446.586L241.314 453.482Z" fill="url(#paint48_linear_2466_25631)"/>
<path opacity="0.2" d="M241.314 453.482V468.911H252.529V453.482L246.916 446.586L241.314 453.482Z" fill="black"/>
<path d="M241.315 453.48H232.502L241.315 468.909V453.48Z" fill="url(#paint49_linear_2466_25631)"/>
<path d="M244.035 453.723H250.399V464.303H244.035V453.723Z" fill="#FBFAFF"/>
<path d="M247.557 454.453H249.612V457.859H247.557V454.453Z" fill="url(#paint50_linear_2466_25631)"/>
<path d="M244.811 454.453H246.866V457.859H244.811V454.453Z" fill="url(#paint51_linear_2466_25631)"/>
<path d="M247.557 458.488H249.612V463.542H247.557V458.488Z" fill="url(#paint52_linear_2466_25631)"/>
<path d="M244.811 458.488H246.866V463.542H244.811V458.488Z" fill="url(#paint53_linear_2466_25631)"/>
<path d="M160.089 295.63C165.571 300.221 169.65 306.221 171.87 312.961C174.09 319.701 174.363 326.916 172.66 333.8C170.957 340.684 167.344 346.966 162.224 351.947C157.104 356.926 150.68 360.406 143.668 362L135.051 379.368L126.693 362.121C120.442 360.803 114.625 357.97 109.767 353.88C105.882 350.625 102.686 346.65 100.362 342.18C98.0381 337.71 96.6312 332.833 96.2214 327.828C95.3936 317.719 98.6789 307.7 105.354 299.976C112.028 292.251 121.546 287.454 131.813 286.639C142.08 285.824 152.256 289.059 160.101 295.63H160.089Z" fill="white"/>
<path d="M160.088 295.633C165.57 300.224 169.654 306.218 171.893 312.952C172.454 314.627 172.905 316.336 173.247 318.066C173.542 319.807 173.727 321.564 173.801 323.327C173.969 326.862 173.633 330.404 172.804 333.847C171.989 337.299 170.692 340.623 168.951 343.725C168.07 345.271 167.078 346.753 165.985 348.161C164.927 349.597 163.758 350.95 162.488 352.209C157.355 357.299 150.878 360.876 143.79 362.535L144.171 362.244L135.653 379.661L135.037 380.933L134.422 379.661L126.003 362.45L126.519 362.85C119.184 361.285 112.457 357.683 107.136 352.472C101.814 347.261 98.1193 340.658 96.489 333.445C94.8586 326.231 95.3608 318.708 97.936 311.767C100.511 304.825 105.052 298.756 111.021 294.275C115.756 290.781 121.223 288.372 127.024 287.221C132.822 286.066 138.812 286.222 144.539 287.679C150.267 289.136 155.584 291.856 160.088 295.633ZM160.088 295.633C155.614 291.873 150.324 289.174 144.624 287.745C138.924 286.316 132.967 286.195 127.212 287.39C121.457 288.586 116.058 291.066 111.431 294.641C106.802 298.215 103.07 302.788 100.521 308.007C97.9792 313.166 96.6656 318.829 96.6805 324.563C96.752 330.27 98.0791 335.894 100.57 341.046C103.095 346.174 106.77 350.67 111.317 354.197C115.872 357.706 121.167 360.166 126.815 361.395L127.184 361.481L127.332 361.808L135.641 379.079H134.41L143.162 361.772L143.273 361.529H143.531C150.49 360.029 156.885 356.647 161.996 351.76C163.266 350.542 164.438 349.229 165.504 347.834C166.606 346.464 167.605 345.018 168.496 343.507C170.28 340.475 171.622 337.211 172.484 333.811C173.376 330.409 173.758 326.897 173.616 323.388C173.552 321.634 173.384 319.886 173.112 318.152C172.779 316.426 172.338 314.722 171.794 313.049C169.601 306.291 165.549 300.262 160.088 295.633Z" fill="#263238"/>
<path d="M138.861 303.735C138.861 302.112 137.502 300.801 135.818 300.801C134.135 300.801 132.776 302.112 132.776 303.735V306.917C124.142 308.311 117.562 315.557 117.562 324.278C117.562 332.999 124.142 340.244 132.776 341.638V344.82C132.776 346.444 134.135 347.755 135.818 347.755C137.502 347.755 138.861 346.444 138.861 344.82V341.638C141.799 341.161 144.49 340.015 146.772 338.355C148.113 337.382 148.388 335.539 147.381 334.247C146.373 332.953 144.461 332.687 143.121 333.659C141.866 334.567 140.43 335.246 138.861 335.64V312.906C140.42 313.291 141.866 313.97 143.121 314.887C144.461 315.859 146.373 315.602 147.381 314.3C148.388 312.998 148.122 311.164 146.772 310.192C144.49 308.541 141.79 307.385 138.861 306.908V303.735ZM132.776 312.906V335.649C127.527 334.347 123.648 329.753 123.648 324.278C123.648 318.803 127.527 314.208 132.776 312.906Z" fill="url(#paint54_linear_2466_25631)"/>
<defs>
<linearGradient id="paint0_linear_2466_25631" x1="298.873" y1="275.953" x2="350.399" y2="287.65" gradientUnits="userSpaceOnUse">
<stop stop-color="#21A29F"/>
<stop offset="1" stop-color="#1EA9A6" stop-opacity="0.63"/>
</linearGradient>
<linearGradient id="paint1_linear_2466_25631" x1="387.145" y1="275.922" x2="487.808" y2="295.961" gradientUnits="userSpaceOnUse">
<stop stop-color="#21A29F"/>
<stop offset="1" stop-color="#1EA9A6" stop-opacity="0.63"/>
</linearGradient>
<linearGradient id="paint2_linear_2466_25631" x1="317.613" y1="220.056" x2="331.823" y2="223.463" gradientUnits="userSpaceOnUse">
<stop stop-color="#21A29F"/>
<stop offset="1" stop-color="#1EA9A6" stop-opacity="0.63"/>
</linearGradient>
<linearGradient id="paint3_linear_2466_25631" x1="291.528" y1="225.076" x2="302.621" y2="227.131" gradientUnits="userSpaceOnUse">
<stop stop-color="#21A29F"/>
<stop offset="1" stop-color="#1EA9A6" stop-opacity="0.63"/>
</linearGradient>
<linearGradient id="paint4_linear_2466_25631" x1="303.239" y1="230.147" x2="307.124" y2="232.693" gradientUnits="userSpaceOnUse">
<stop stop-color="#21A29F"/>
<stop offset="1" stop-color="#1EA9A6" stop-opacity="0.63"/>
</linearGradient>
<linearGradient id="paint5_linear_2466_25631" x1="343.408" y1="219.328" x2="353.938" y2="229.734" gradientUnits="userSpaceOnUse">
<stop stop-color="#21A29F"/>
<stop offset="1" stop-color="#1EA9A6" stop-opacity="0.63"/>
</linearGradient>
<linearGradient id="paint6_linear_2466_25631" x1="315.02" y1="216.833" x2="330.078" y2="220.452" gradientUnits="userSpaceOnUse">
<stop stop-color="#21A29F"/>
<stop offset="1" stop-color="#1EA9A6" stop-opacity="0.63"/>
</linearGradient>
<linearGradient id="paint7_linear_2466_25631" x1="287.471" y1="222.18" x2="299.208" y2="224.357" gradientUnits="userSpaceOnUse">
<stop stop-color="#21A29F"/>
<stop offset="1" stop-color="#1EA9A6" stop-opacity="0.63"/>
</linearGradient>
<linearGradient id="paint8_linear_2466_25631" x1="299.825" y1="227.5" x2="303.975" y2="230.179" gradientUnits="userSpaceOnUse">
<stop stop-color="#21A29F"/>
<stop offset="1" stop-color="#1EA9A6" stop-opacity="0.63"/>
</linearGradient>
<linearGradient id="paint9_linear_2466_25631" x1="332.837" y1="218.806" x2="339.377" y2="222.947" gradientUnits="userSpaceOnUse">
<stop stop-color="#21A29F"/>
<stop offset="1" stop-color="#1EA9A6" stop-opacity="0.63"/>
</linearGradient>
<linearGradient id="paint10_linear_2466_25631" x1="403.282" y1="276.713" x2="451.338" y2="286.692" gradientUnits="userSpaceOnUse">
<stop stop-color="#21A29F"/>
<stop offset="1" stop-color="#1EA9A6" stop-opacity="0.63"/>
</linearGradient>
<linearGradient id="paint11_linear_2466_25631" x1="316.863" y1="494.715" x2="340.747" y2="502.986" gradientUnits="userSpaceOnUse">
<stop stop-color="#21A29F"/>
<stop offset="1" stop-color="#1EA9A6" stop-opacity="0.63"/>
</linearGradient>
<linearGradient id="paint12_linear_2466_25631" x1="276.289" y1="469.41" x2="300.287" y2="473.383" gradientUnits="userSpaceOnUse">
<stop stop-color="#21A29F"/>
<stop offset="1" stop-color="#1EA9A6" stop-opacity="0.63"/>
</linearGradient>
<linearGradient id="paint13_linear_2466_25631" x1="296.425" y1="458.392" x2="342.954" y2="484.803" gradientUnits="userSpaceOnUse">
<stop stop-color="#21A29F"/>
<stop offset="1" stop-color="#1EA9A6" stop-opacity="0.63"/>
</linearGradient>
<linearGradient id="paint14_linear_2466_25631" x1="245.393" y1="421.144" x2="252.243" y2="422.391" gradientUnits="userSpaceOnUse">
<stop stop-color="#21A29F"/>
<stop offset="1" stop-color="#1EA9A6" stop-opacity="0.63"/>
</linearGradient>
<linearGradient id="paint15_linear_2466_25631" x1="235.46" y1="421.144" x2="240.917" y2="421.926" gradientUnits="userSpaceOnUse">
<stop stop-color="#21A29F"/>
<stop offset="1" stop-color="#1EA9A6" stop-opacity="0.63"/>
</linearGradient>
<linearGradient id="paint16_linear_2466_25631" x1="245.981" y1="415.674" x2="251.788" y2="419.136" gradientUnits="userSpaceOnUse">
<stop stop-color="#21A29F"/>
<stop offset="1" stop-color="#1EA9A6" stop-opacity="0.63"/>
</linearGradient>
<linearGradient id="paint17_linear_2466_25631" x1="234.95" y1="415.674" x2="240.018" y2="418.044" gradientUnits="userSpaceOnUse">
<stop stop-color="#21A29F"/>
<stop offset="1" stop-color="#1EA9A6" stop-opacity="0.63"/>
</linearGradient>
<linearGradient id="paint18_linear_2466_25631" x1="243.712" y1="482.404" x2="289.403" y2="506.02" gradientUnits="userSpaceOnUse">
<stop stop-color="#21A29F"/>
<stop offset="1" stop-color="#1EA9A6" stop-opacity="0.63"/>
</linearGradient>
<linearGradient id="paint19_linear_2466_25631" x1="170.704" y1="445.697" x2="205.505" y2="451.458" gradientUnits="userSpaceOnUse">
<stop stop-color="#21A29F"/>
<stop offset="1" stop-color="#1EA9A6" stop-opacity="0.63"/>
</linearGradient>
<linearGradient id="paint20_linear_2466_25631" x1="216.58" y1="432.162" x2="290.507" y2="484.092" gradientUnits="userSpaceOnUse">
<stop stop-color="#21A29F"/>
<stop offset="1" stop-color="#1EA9A6" stop-opacity="0.63"/>
</linearGradient>
<linearGradient id="paint21_linear_2466_25631" x1="167.396" y1="468.449" x2="170.163" y2="468.841" gradientUnits="userSpaceOnUse">
<stop stop-color="#21A29F"/>
<stop offset="1" stop-color="#1EA9A6" stop-opacity="0.63"/>
</linearGradient>
<linearGradient id="paint22_linear_2466_25631" x1="173.377" y1="468.449" x2="176.144" y2="468.841" gradientUnits="userSpaceOnUse">
<stop stop-color="#21A29F"/>
<stop offset="1" stop-color="#1EA9A6" stop-opacity="0.63"/>
</linearGradient>
<linearGradient id="paint23_linear_2466_25631" x1="167.396" y1="477.296" x2="170.163" y2="477.689" gradientUnits="userSpaceOnUse">
<stop stop-color="#21A29F"/>
<stop offset="1" stop-color="#1EA9A6" stop-opacity="0.63"/>
</linearGradient>
<linearGradient id="paint24_linear_2466_25631" x1="173.377" y1="477.296" x2="176.144" y2="477.689" gradientUnits="userSpaceOnUse">
<stop stop-color="#21A29F"/>
<stop offset="1" stop-color="#1EA9A6" stop-opacity="0.63"/>
</linearGradient>
<linearGradient id="paint25_linear_2466_25631" x1="274.934" y1="497.632" x2="277.701" y2="498.025" gradientUnits="userSpaceOnUse">
<stop stop-color="#21A29F"/>
<stop offset="1" stop-color="#1EA9A6" stop-opacity="0.63"/>
</linearGradient>
<linearGradient id="paint26_linear_2466_25631" x1="268.939" y1="497.632" x2="271.707" y2="498.025" gradientUnits="userSpaceOnUse">
<stop stop-color="#21A29F"/>
<stop offset="1" stop-color="#1EA9A6" stop-opacity="0.63"/>
</linearGradient>
<linearGradient id="paint27_linear_2466_25631" x1="274.934" y1="506.48" x2="277.701" y2="506.873" gradientUnits="userSpaceOnUse">
<stop stop-color="#21A29F"/>
<stop offset="1" stop-color="#1EA9A6" stop-opacity="0.63"/>
</linearGradient>
<linearGradient id="paint28_linear_2466_25631" x1="268.939" y1="506.48" x2="271.707" y2="506.873" gradientUnits="userSpaceOnUse">
<stop stop-color="#21A29F"/>
<stop offset="1" stop-color="#1EA9A6" stop-opacity="0.63"/>
</linearGradient>
<linearGradient id="paint29_linear_2466_25631" x1="249.453" y1="497.632" x2="252.22" y2="498.025" gradientUnits="userSpaceOnUse">
<stop stop-color="#21A29F"/>
<stop offset="1" stop-color="#1EA9A6" stop-opacity="0.63"/>
</linearGradient>
<linearGradient id="paint30_linear_2466_25631" x1="243.457" y1="497.632" x2="246.225" y2="498.025" gradientUnits="userSpaceOnUse">
<stop stop-color="#21A29F"/>
<stop offset="1" stop-color="#1EA9A6" stop-opacity="0.63"/>
</linearGradient>
<linearGradient id="paint31_linear_2466_25631" x1="249.453" y1="506.48" x2="252.22" y2="506.873" gradientUnits="userSpaceOnUse">
<stop stop-color="#21A29F"/>
<stop offset="1" stop-color="#1EA9A6" stop-opacity="0.63"/>
</linearGradient>
<linearGradient id="paint32_linear_2466_25631" x1="243.457" y1="506.48" x2="246.225" y2="506.873" gradientUnits="userSpaceOnUse">
<stop stop-color="#21A29F"/>
<stop offset="1" stop-color="#1EA9A6" stop-opacity="0.63"/>
</linearGradient>
<linearGradient id="paint33_linear_2466_25631" x1="223.959" y1="497.632" x2="226.727" y2="498.025" gradientUnits="userSpaceOnUse">
<stop stop-color="#21A29F"/>
<stop offset="1" stop-color="#1EA9A6" stop-opacity="0.63"/>
</linearGradient>
<linearGradient id="paint34_linear_2466_25631" x1="217.976" y1="497.632" x2="220.744" y2="498.025" gradientUnits="userSpaceOnUse">
<stop stop-color="#21A29F"/>
<stop offset="1" stop-color="#1EA9A6" stop-opacity="0.63"/>
</linearGradient>
<linearGradient id="paint35_linear_2466_25631" x1="223.959" y1="506.48" x2="226.727" y2="506.873" gradientUnits="userSpaceOnUse">
<stop stop-color="#21A29F"/>
<stop offset="1" stop-color="#1EA9A6" stop-opacity="0.63"/>
</linearGradient>
<linearGradient id="paint36_linear_2466_25631" x1="217.976" y1="506.48" x2="220.744" y2="506.873" gradientUnits="userSpaceOnUse">
<stop stop-color="#21A29F"/>
<stop offset="1" stop-color="#1EA9A6" stop-opacity="0.63"/>
</linearGradient>
<linearGradient id="paint37_linear_2466_25631" x1="170.419" y1="496.695" x2="172.43" y2="497.077" gradientUnits="userSpaceOnUse">
<stop stop-color="#21A29F"/>
<stop offset="1" stop-color="#1EA9A6" stop-opacity="0.63"/>
</linearGradient>
<linearGradient id="paint38_linear_2466_25631" x1="174.739" y1="496.695" x2="176.75" y2="497.077" gradientUnits="userSpaceOnUse">
<stop stop-color="#21A29F"/>
<stop offset="1" stop-color="#1EA9A6" stop-opacity="0.63"/>
</linearGradient>
<linearGradient id="paint39_linear_2466_25631" x1="170.307" y1="514.488" x2="171.486" y2="516.435" gradientUnits="userSpaceOnUse">
<stop stop-color="#21A29F"/>
<stop offset="1" stop-color="#1EA9A6" stop-opacity="0.63"/>
</linearGradient>
<linearGradient id="paint40_linear_2466_25631" x1="166.11" y1="496.695" x2="168.122" y2="497.077" gradientUnits="userSpaceOnUse">
<stop stop-color="#21A29F"/>
<stop offset="1" stop-color="#1EA9A6" stop-opacity="0.63"/>
</linearGradient>
<linearGradient id="paint41_linear_2466_25631" x1="170.419" y1="501.87" x2="172.43" y2="502.253" gradientUnits="userSpaceOnUse">
<stop stop-color="#21A29F"/>
<stop offset="1" stop-color="#1EA9A6" stop-opacity="0.63"/>
</linearGradient>
<linearGradient id="paint42_linear_2466_25631" x1="174.739" y1="501.87" x2="176.75" y2="502.253" gradientUnits="userSpaceOnUse">
<stop stop-color="#21A29F"/>
<stop offset="1" stop-color="#1EA9A6" stop-opacity="0.63"/>
</linearGradient>
<linearGradient id="paint43_linear_2466_25631" x1="166.11" y1="501.87" x2="168.122" y2="502.253" gradientUnits="userSpaceOnUse">
<stop stop-color="#21A29F"/>
<stop offset="1" stop-color="#1EA9A6" stop-opacity="0.63"/>
</linearGradient>
<linearGradient id="paint44_linear_2466_25631" x1="170.419" y1="507.046" x2="172.43" y2="507.428" gradientUnits="userSpaceOnUse">
<stop stop-color="#21A29F"/>
<stop offset="1" stop-color="#1EA9A6" stop-opacity="0.63"/>
</linearGradient>
<linearGradient id="paint45_linear_2466_25631" x1="174.739" y1="507.046" x2="176.75" y2="507.428" gradientUnits="userSpaceOnUse">
<stop stop-color="#21A29F"/>
<stop offset="1" stop-color="#1EA9A6" stop-opacity="0.63"/>
</linearGradient>
<linearGradient id="paint46_linear_2466_25631" x1="166.11" y1="507.046" x2="168.122" y2="507.429" gradientUnits="userSpaceOnUse">
<stop stop-color="#21A29F"/>
<stop offset="1" stop-color="#1EA9A6" stop-opacity="0.63"/>
</linearGradient>
<linearGradient id="paint47_linear_2466_25631" x1="240.348" y1="443.686" x2="254.945" y2="451.941" gradientUnits="userSpaceOnUse">
<stop stop-color="#21A29F"/>
<stop offset="1" stop-color="#1EA9A6" stop-opacity="0.63"/>
</linearGradient>
<linearGradient id="paint48_linear_2466_25631" x1="246.569" y1="447.816" x2="253.556" y2="448.645" gradientUnits="userSpaceOnUse">
<stop stop-color="#21A29F"/>
<stop offset="1" stop-color="#1EA9A6" stop-opacity="0.63"/>
</linearGradient>
<linearGradient id="paint49_linear_2466_25631" x1="236.631" y1="454.331" x2="242.101" y2="455.068" gradientUnits="userSpaceOnUse">
<stop stop-color="#21A29F"/>
<stop offset="1" stop-color="#1EA9A6" stop-opacity="0.63"/>
</linearGradient>
<linearGradient id="paint50_linear_2466_25631" x1="248.52" y1="454.641" x2="249.793" y2="454.822" gradientUnits="userSpaceOnUse">
<stop stop-color="#21A29F"/>
<stop offset="1" stop-color="#1EA9A6" stop-opacity="0.63"/>
</linearGradient>
<linearGradient id="paint51_linear_2466_25631" x1="245.774" y1="454.641" x2="247.047" y2="454.822" gradientUnits="userSpaceOnUse">
<stop stop-color="#21A29F"/>
<stop offset="1" stop-color="#1EA9A6" stop-opacity="0.63"/>
</linearGradient>
<linearGradient id="paint52_linear_2466_25631" x1="248.52" y1="458.767" x2="249.807" y2="458.89" gradientUnits="userSpaceOnUse">
<stop stop-color="#21A29F"/>
<stop offset="1" stop-color="#1EA9A6" stop-opacity="0.63"/>
</linearGradient>
<linearGradient id="paint53_linear_2466_25631" x1="245.774" y1="458.767" x2="247.061" y2="458.89" gradientUnits="userSpaceOnUse">
<stop stop-color="#21A29F"/>
<stop offset="1" stop-color="#1EA9A6" stop-opacity="0.63"/>
</linearGradient>
<linearGradient id="paint54_linear_2466_25631" x1="131.819" y1="303.388" x2="150.605" y2="306.262" gradientUnits="userSpaceOnUse">
<stop stop-color="#21A29F"/>
<stop offset="1" stop-color="#1EA9A6" stop-opacity="0.63"/>
</linearGradient>
</defs>
</svg>
