<svg width="929" height="644" viewBox="0 0 929 644" fill="none" xmlns="http://www.w3.org/2000/svg">
<path d="M-0.000305176 608.559H928.535V609.023H-0.000305176V608.559Z" fill="#EBEBEB"/>
<path d="M93.0387 638.438H154.545V638.902H93.0387V638.438Z" fill="#EBEBEB"/>
<path d="M313.436 643.488H329.574V643.953H313.436V643.488Z" fill="#EBEBEB"/>
<path d="M156.404 621.207H192.041V621.671H156.404V621.207Z" fill="#EBEBEB"/>
<path d="M750.906 624.328H831.113V624.792H750.906V624.328Z" fill="#EBEBEB"/>
<path d="M722.606 624.328H734.361V624.792H722.606V624.328Z" fill="#EBEBEB"/>
<path d="M510.416 632.164H684.387V632.628H510.416V632.164Z" fill="#EBEBEB"/>
<path d="M488.409 525.734H846.991C849.8 525.729 852.492 524.61 854.477 522.622C856.462 520.634 857.576 517.94 857.576 515.13V11.0657C857.552 8.27272 856.426 5.60217 854.444 3.63412C852.462 1.66607 849.784 0.559472 846.991 0.554688H488.409C485.597 0.554688 482.9 1.67188 480.911 3.66049C478.922 5.6491 477.805 8.34624 477.805 11.1586V515.13C477.805 517.943 478.922 520.64 480.911 522.629C482.9 524.617 485.597 525.734 488.409 525.734ZM846.991 0.926103C849.677 0.931022 852.251 2.00147 854.149 3.90248C856.046 5.80349 857.112 8.37973 857.112 11.0657V515.13C857.112 517.816 856.046 520.393 854.149 522.294C852.251 524.195 849.677 525.265 846.991 525.27H488.409C485.721 525.265 483.145 524.195 481.245 522.295C479.344 520.394 478.274 517.818 478.269 515.13V11.0657C478.274 8.37803 479.344 5.80183 481.245 3.90135C483.145 2.00086 485.721 0.931012 488.409 0.926103H846.991Z" fill="#EBEBEB"/>
<path d="M86.7059 525.734H445.306C448.117 525.729 450.811 524.611 452.799 522.623C454.786 520.636 455.905 517.941 455.91 515.13V11.0657C455.881 8.27103 454.751 5.60049 452.766 3.63295C450.781 1.66542 448.101 0.55942 445.306 0.554688H86.7059C83.9161 0.564353 81.2424 1.67311 79.2645 3.64063C77.2865 5.60816 76.1636 8.27593 76.1392 11.0657V515.13C76.1392 517.936 77.2513 520.628 79.2319 522.615C81.2125 524.603 83.9001 525.724 86.7059 525.734ZM445.306 0.926103C447.994 0.931012 450.57 2.00086 452.471 3.90135C454.371 5.80183 455.441 8.37803 455.446 11.0657V515.13C455.441 517.818 454.371 520.394 452.471 522.295C450.57 524.195 447.994 525.265 445.306 525.27H86.7059C84.0182 525.265 81.4421 524.195 79.5416 522.295C77.6411 520.394 76.5713 517.818 76.5663 515.13V11.0657C76.5713 8.37803 77.6411 5.80183 79.5416 3.90135C81.4421 2.00086 84.0182 0.931012 86.7059 0.926103H445.306Z" fill="#EBEBEB"/>
<path d="M638.703 463.634L664.423 485.139L627.69 538.4L598.423 522.057C582.735 537.125 564.343 549.096 544.215 557.342L547.186 590.62L483.619 602.376L474.5 570.211C452.788 569.707 431.366 565.107 411.36 556.655L389.855 582.375L336.594 545.735L352.937 516.449C337.866 500.771 325.894 482.385 317.652 462.26L284.374 465.212L272.655 401.682L304.82 392.545C305.325 370.833 309.924 349.411 318.377 329.405L292.656 307.9L329.296 254.658L358.582 270.981C374.265 255.916 392.649 243.945 412.771 235.697L409.8 202.4L473.368 190.645L482.504 222.809C504.216 223.325 525.636 227.924 545.645 236.366L567.224 210.589L620.466 247.229L604.143 276.497C619.209 292.186 631.179 310.577 639.427 330.705L672.724 327.734L684.461 391.282L652.315 400.419C651.801 422.16 647.183 443.608 638.703 463.634ZM564.55 380.567C561.407 363.547 553.288 347.841 541.219 335.436C529.15 323.03 513.673 314.482 496.746 310.873C479.818 307.264 462.201 308.756 446.121 315.16C430.042 321.564 416.223 332.593 406.411 346.851C396.6 361.11 391.238 377.957 391.002 395.263C390.766 412.57 395.668 429.557 405.087 444.077C414.507 458.598 428.02 469.998 443.92 476.838C459.819 483.677 477.389 485.648 494.408 482.502C517.226 478.283 537.433 465.174 550.587 446.059C563.74 426.943 568.763 403.386 564.55 380.567Z" fill="#F0F0F0"/>
<path d="M213.765 490.507L193.69 494.221L190.793 484.044C183.923 483.89 177.144 482.441 170.811 479.773L164.014 487.888L147.189 476.319L152.352 467.033C147.6 462.073 143.82 456.265 141.21 449.911L130.699 450.84L126.984 430.746L137.143 427.868C137.301 420.996 138.757 414.216 141.432 407.885L133.298 401.089L144.849 384.264L154.135 389.426C159.106 384.679 164.919 380.9 171.276 378.284L170.328 367.773L190.422 364.059L193.319 374.217C200.19 374.377 206.969 375.832 213.301 378.507L220.098 370.373L236.923 381.961L231.76 391.246C236.524 396.204 240.305 402.021 242.903 408.387L253.432 407.44L257.146 427.533L246.988 430.43C246.819 437.3 245.364 444.078 242.698 450.412L250.702 457.172L239.133 473.997L229.848 468.835C224.886 473.594 219.071 477.375 212.707 479.977L213.765 490.507ZM219.244 424.116C218.249 418.739 215.683 413.777 211.869 409.858C208.055 405.939 203.164 403.239 197.816 402.099C192.468 400.959 186.901 401.431 181.821 403.455C176.74 405.478 172.374 408.963 169.274 413.468C166.174 417.972 164.479 423.295 164.404 428.763C164.328 434.232 165.876 439.599 168.851 444.188C171.827 448.776 176.095 452.379 181.118 454.542C186.141 456.704 191.692 457.329 197.07 456.336C200.643 455.68 204.052 454.325 207.1 452.349C210.149 450.374 212.779 447.817 214.838 444.824C216.898 441.832 218.347 438.462 219.103 434.909C219.859 431.356 219.907 427.688 219.244 424.116Z" fill="#F0F0F0"/>
<path d="M773.935 488L758.633 490.823L756.423 483.079C751.194 482.946 746.036 481.837 741.214 479.81L736.033 485.994L723.2 477.173L727.137 470.117C723.514 466.357 720.634 461.947 718.65 457.117L710.628 457.823L707.805 442.52L715.549 440.329C715.664 435.092 716.773 429.924 718.818 425.101L712.615 419.92L721.455 407.106L728.493 410.969C732.263 407.359 736.671 404.481 741.492 402.482L740.768 394.478L756.089 391.637L758.28 399.381C763.515 399.514 768.68 400.622 773.508 402.649L778.671 396.465L791.559 405.398L787.622 412.454C791.249 416.211 794.129 420.622 796.109 425.454L804.113 424.711L806.936 440.013L799.192 442.205C799.078 447.428 797.975 452.583 795.942 457.396L802.144 462.577L793.323 475.391L786.266 471.454C782.505 475.079 778.095 477.965 773.267 479.959L773.935 488ZM778.114 437.432C777.354 433.338 775.398 429.56 772.491 426.577C769.585 423.595 765.86 421.541 761.787 420.675C757.713 419.809 753.475 420.17 749.607 421.713C745.738 423.256 742.415 425.91 740.055 429.342C737.696 432.773 736.406 436.827 736.351 440.991C736.295 445.155 737.475 449.243 739.742 452.736C742.008 456.23 745.26 458.973 749.085 460.618C752.91 462.264 757.138 462.739 761.233 461.983C766.726 460.963 771.589 457.804 774.755 453.201C777.92 448.598 779.128 442.926 778.114 437.432Z" fill="#F0F0F0"/>
<path d="M500.666 147L489.078 149.136L487.425 143.268C483.459 143.188 479.544 142.35 475.893 140.798L471.974 145.496L462.28 138.811L465.252 133.481C462.509 130.62 460.329 127.269 458.826 123.601L452.772 124.14L450.637 112.57L456.486 110.899C456.584 106.94 457.421 103.035 458.956 99.3851L454.276 95.4667L460.943 85.7728L466.273 88.7441C469.129 85.9812 472.481 83.7823 476.153 82.2629L475.614 76.1903L487.202 74.0547L488.855 79.923C492.816 80.0007 496.725 80.8392 500.369 82.3929L504.287 77.6945L514 84.38L511.01 89.7098C513.758 92.5663 515.939 95.919 517.435 99.5894L523.508 99.0509L525.551 110.676L519.701 112.347C519.604 116.306 518.766 120.211 517.231 123.861L521.911 127.78L515.225 137.474L509.896 134.502C507.044 137.248 503.698 139.428 500.035 140.928L500.666 147ZM503.804 108.726C503.231 105.628 501.751 102.769 499.553 100.512C497.355 98.2544 494.537 96.6993 491.455 96.0432C488.373 95.3871 485.166 95.6595 482.239 96.8259C479.312 97.9923 476.796 100 475.01 102.596C473.224 105.192 472.248 108.259 472.205 111.41C472.162 114.561 473.054 117.653 474.768 120.297C476.483 122.941 478.942 125.017 481.837 126.263C484.731 127.509 487.929 127.869 491.028 127.297C493.086 126.917 495.05 126.135 496.806 124.996C498.563 123.858 500.078 122.384 501.264 120.659C502.451 118.934 503.286 116.993 503.722 114.945C504.158 112.898 504.186 110.785 503.804 108.726Z" fill="#F0F0F0"/>
<path d="M215.272 265.166L207.546 266.596L206.432 262.696C203.794 262.633 201.192 262.072 198.762 261.043L196.144 264.163L189.663 259.725L191.65 256.159C189.818 254.262 188.368 252.03 187.379 249.585L183.33 249.938L181.9 242.213L185.8 241.098C185.865 238.461 186.425 235.859 187.453 233.429L184.333 230.81L188.79 224.348L192.337 226.316C194.246 224.49 196.483 223.041 198.93 222.045L198.558 217.996L206.283 216.566L207.398 220.485C210.034 220.541 212.637 221.096 215.067 222.119L217.686 218.999L224.167 223.456L222.18 227.003C224.012 228.908 225.462 231.146 226.451 233.596L230.5 233.243L231.93 240.95L228.03 242.064C227.967 244.708 227.406 247.316 226.377 249.752L229.497 252.352L225.04 258.833L221.493 256.846C219.584 258.678 217.348 260.133 214.9 261.136L215.272 265.166ZM217.277 239.65C216.897 237.579 215.91 235.668 214.443 234.158C212.976 232.648 211.094 231.608 209.035 231.168C206.976 230.728 204.833 230.909 202.877 231.687C200.921 232.466 199.239 233.807 198.046 235.542C196.852 237.276 196.2 239.326 196.172 241.431C196.143 243.536 196.74 245.602 197.886 247.368C199.033 249.134 200.677 250.52 202.612 251.351C204.546 252.182 206.683 252.421 208.753 252.036C211.525 251.522 213.98 249.929 215.578 247.606C217.176 245.284 217.787 242.422 217.277 239.65Z" fill="#F0F0F0"/>
<path d="M309.481 521.183C309.373 525.794 308.396 530.342 306.602 534.591L311.988 539.104L304.206 550.395L298.004 546.922C294.672 550.097 290.772 552.617 286.509 554.35L287.14 561.407L273.658 563.896L271.801 557.08C267.19 556.969 262.642 555.992 258.393 554.202L253.843 559.643L242.552 551.88L246.006 545.678C242.828 542.348 240.308 538.448 238.578 534.182L231.521 534.814L229.032 521.331L235.848 519.474C235.946 514.863 236.923 510.312 238.726 506.066L233.266 501.517L241.029 490.226L247.25 493.68C250.57 490.498 254.465 487.977 258.727 486.251L258.114 479.176L271.578 476.688L273.435 483.522C278.044 483.623 282.593 484.593 286.843 486.381L291.411 480.94L302.702 488.703L299.23 494.905C302.4 498.241 304.92 502.139 306.658 506.401L313.715 505.769L316.203 519.252L309.481 521.183ZM290.91 516.986C290.248 513.37 288.528 510.032 285.968 507.394C283.408 504.757 280.122 502.938 276.528 502.169C272.933 501.4 269.191 501.715 265.776 503.074C262.361 504.433 259.425 506.776 257.342 509.804C255.259 512.833 254.121 516.411 254.073 520.087C254.025 523.762 255.069 527.37 257.073 530.451C259.077 533.533 261.95 535.951 265.329 537.399C268.707 538.846 272.44 539.259 276.053 538.584C280.88 537.677 285.15 534.896 287.931 530.848C290.712 526.8 291.776 521.816 290.891 516.986H290.91Z" fill="#F0F0F0"/>
<path d="M646.056 274.86C644.366 283.217 654.487 292.335 668.656 295.195C682.826 298.055 695.677 293.579 697.366 285.222C699.056 276.866 688.935 267.729 674.766 264.795C660.596 261.86 647.746 266.485 646.056 274.86Z" fill="#E0E0E0"/>
<path d="M640.579 244.838C639.45 243.25 638.99 241.283 639.297 239.359C640.95 231.132 659.725 228.013 681.341 232.358C702.958 236.704 719.04 246.918 717.387 255.126C716.903 257.013 715.713 258.641 714.063 259.676C714.318 260.569 714.362 261.51 714.193 262.424C713.714 264.294 712.511 265.897 710.85 266.881C711.135 267.801 711.193 268.776 711.017 269.722C710.773 270.648 710.345 271.515 709.758 272.272C709.171 273.028 708.437 273.658 707.6 274.124C707.92 275.048 707.997 276.039 707.823 277.002C707.575 277.929 707.139 278.795 706.541 279.546C705.944 280.297 705.198 280.916 704.35 281.366C704.715 282.299 704.812 283.315 704.629 284.3C703.255 291.134 687.6 293.734 669.679 290.113C651.758 286.492 638.332 278.023 639.706 271.189C639.933 270.211 640.421 269.313 641.117 268.59C640.507 267.853 640.058 266.996 639.799 266.075C639.54 265.154 639.476 264.188 639.613 263.241C639.817 262.279 640.272 261.389 640.932 260.66C640.346 259.903 639.917 259.037 639.672 258.112C639.426 257.187 639.368 256.222 639.502 255.274C639.705 254.338 640.131 253.465 640.746 252.73C639.597 251.179 639.11 249.236 639.39 247.326C639.593 246.418 640 245.567 640.579 244.838Z" fill="#EBEBEB"/>
<path d="M622.953 165.311C625.27 153.621 630.509 142.709 638.182 133.591C645.856 124.473 655.713 117.447 666.836 113.167C677.958 108.888 689.983 107.495 701.789 109.119C713.595 110.742 724.797 115.329 734.352 122.451C743.906 129.574 751.502 139 756.429 149.851C761.357 160.701 763.456 172.623 762.531 184.504C761.607 196.386 757.689 207.839 751.142 217.797C744.595 227.755 735.633 235.892 725.092 241.451C723.403 242.322 721.955 243.596 720.876 245.161C719.797 246.726 719.121 248.532 718.908 250.421C718.908 250.607 718.908 250.792 718.908 250.978C717.218 259.335 698.09 262.51 676.195 258.091C654.3 253.671 637.921 243.234 639.611 234.97C639.611 234.784 639.611 234.617 639.741 234.431C640.273 232.59 640.343 230.645 639.945 228.769C639.547 226.894 638.692 225.145 637.457 223.679C630.881 215.624 626.17 206.213 623.662 196.121C621.155 186.029 620.912 175.508 622.953 165.311Z" fill="#F5F5F5"/>
<path d="M666.334 244.441H666.501C666.725 244.452 666.944 244.374 667.11 244.224C667.277 244.075 667.378 243.866 667.393 243.643C667.393 242.269 669.12 211.218 655.749 196.343L666 198.405C666.161 198.445 666.331 198.432 666.485 198.368C666.639 198.305 666.768 198.194 666.854 198.052L671.943 190.624L676.437 208.544C676.479 208.698 676.561 208.838 676.675 208.949C676.79 209.06 676.932 209.138 677.087 209.176C677.244 209.209 677.408 209.197 677.559 209.141C677.711 209.085 677.843 208.988 677.941 208.86L689.083 194.003L693.986 209.956C694.02 210.108 694.102 210.245 694.218 210.348C694.335 210.452 694.481 210.516 694.636 210.531C694.785 210.556 694.937 210.544 695.08 210.495C695.222 210.447 695.351 210.363 695.453 210.253L706.15 197.402L708.007 206.316C708.032 206.479 708.109 206.63 708.226 206.747C708.343 206.864 708.494 206.94 708.657 206.966L719.799 209.194C714.228 213.187 696.382 227.319 692.073 248.676C692.051 248.784 692.051 248.896 692.072 249.005C692.093 249.113 692.136 249.217 692.197 249.309C692.258 249.401 692.337 249.48 692.429 249.542C692.521 249.604 692.624 249.647 692.733 249.669C692.841 249.691 692.953 249.691 693.062 249.67C693.17 249.649 693.274 249.606 693.366 249.545C693.458 249.484 693.537 249.405 693.599 249.313C693.661 249.222 693.704 249.118 693.726 249.01C698.703 224.422 722.139 209.621 722.381 209.491C722.525 209.401 722.639 209.269 722.708 209.114C722.777 208.958 722.798 208.785 722.768 208.617C722.738 208.45 722.659 208.295 722.54 208.173C722.421 208.05 722.269 207.966 722.102 207.931L709.641 205.424L707.561 195.359C707.533 195.203 707.46 195.058 707.352 194.943C707.243 194.827 707.103 194.746 706.948 194.709C706.795 194.664 706.631 194.667 706.478 194.717C706.326 194.766 706.192 194.861 706.094 194.988L695.323 207.857L690.272 191.831C690.229 191.679 690.145 191.542 690.028 191.436C689.911 191.33 689.766 191.259 689.611 191.232C689.456 191.205 689.296 191.222 689.15 191.282C689.004 191.342 688.878 191.442 688.786 191.571L677.644 206.427L673.113 188.469C673.072 188.314 672.987 188.173 672.869 188.064C672.75 187.956 672.603 187.883 672.444 187.856C672.285 187.824 672.12 187.84 671.971 187.903C671.822 187.966 671.695 188.073 671.608 188.209L665.777 196.678L653.335 194.171C653.152 194.127 652.961 194.148 652.791 194.229C652.622 194.31 652.486 194.447 652.406 194.616C652.325 194.781 652.3 194.968 652.333 195.148C652.366 195.329 652.457 195.494 652.592 195.619C667.541 208.934 665.721 243.234 665.703 243.587C665.696 243.78 665.755 243.969 665.87 244.124C665.984 244.279 666.148 244.391 666.334 244.441Z" fill="#E0E0E0"/>
</svg>
