<svg width="45" height="44" viewBox="0 0 45 44" fill="none" xmlns="http://www.w3.org/2000/svg">
<rect width="45" height="44" fill="#E5E5E5"/>
<g id="LISTING PROCESS">
<path d="M-2389 -2708C-2389 -2709.1 -2388.1 -2710 -2387 -2710H11398C11399.1 -2710 11400 -2709.1 11400 -2708V3073C11400 3074.1 11399.1 3075 11398 3075H-2387C-2388.1 3075 -2389 3074.1 -2389 3073V-2708Z" fill="#E9E9E9"/>
<g id="Property Type | Property Listing" clip-path="url(#clip0_1311_2)">
<rect width="1728" height="1117" transform="translate(-419 -732)" fill="white"/>
<g id="Frame 3467654">
<g id="Frame 3467074" clip-path="url(#clip1_1311_2)">
<g id="Frame 3467573" clip-path="url(#clip2_1311_2)">
<g id="Frame 3467596">
<rect x="-108" y="-32" width="261" height="160" rx="12" fill="white"/>
<g id="Frame 3467653">
<g id="streamline:nature-ecology-green-house-glass-building-plants-crops-produce-farm">
<path id="Vector" d="M22.499 1.57227L41.9218 19.4866C42.2417 19.7832 42.4963 20.1432 42.6694 20.5436C42.8426 20.944 42.9305 21.376 42.9275 21.8123V39.2866C42.9275 40.1201 42.5964 40.9195 42.007 41.5089C41.4176 42.0983 40.6182 42.4294 39.7847 42.4294H5.21324C4.3797 42.4294 3.58031 42.0983 2.99091 41.5089C2.40151 40.9195 2.07038 40.1201 2.07038 39.2866V21.8123C2.06743 21.376 2.15533 20.944 2.32848 20.5436C2.50162 20.1432 2.75623 19.7832 3.0761 19.4866L22.499 1.57227ZM22.499 1.57227V25.1437M2.07038 25.1437H42.9275M2.07038 33.7866H13.0704M31.9275 33.7866H42.9275M13.0704 42.4294V10.278M31.9275 42.4294V10.278" stroke="black" stroke-linecap="round" stroke-linejoin="round"/>
</g>
</g>
</g>
</g>
</g>
</g>
</g>
<path d="M-2387 -2709H11398V-2711H-2387V-2709ZM11399 -2708V3073H11401V-2708H11399ZM11398 3074H-2387V3076H11398V3074ZM-2388 3073V-2708H-2390V3073H-2388ZM-2387 3074C-2387.55 3074 -2388 3073.55 -2388 3073H-2390C-2390 3074.66 -2388.66 3076 -2387 3076V3074ZM11399 3073C11399 3073.55 11398.6 3074 11398 3074V3076C11399.7 3076 11401 3074.66 11401 3073H11399ZM11398 -2709C11398.6 -2709 11399 -2708.55 11399 -2708H11401C11401 -2709.66 11399.7 -2711 11398 -2711V-2709ZM-2387 -2711C-2388.66 -2711 -2390 -2709.66 -2390 -2708H-2388C-2388 -2708.55 -2387.55 -2709 -2387 -2709V-2711Z" fill="black" fill-opacity="0.1"/>
</g>
<defs>
<clipPath id="clip0_1311_2">
<rect width="1728" height="1117" fill="white" transform="translate(-419 -732)"/>
</clipPath>
<clipPath id="clip1_1311_2">
<rect width="1106" height="567" fill="white" transform="translate(-108 -436)"/>
</clipPath>
<clipPath id="clip2_1311_2">
<rect width="1106" height="527" fill="white" transform="translate(-108 -392)"/>
</clipPath>
</defs>
</svg>
