<svg width="34" height="34" viewBox="0 0 34 34" fill="none" xmlns="http://www.w3.org/2000/svg">
<path d="M7.08334 29.75C6.30417 29.75 5.63692 29.4723 5.08159 28.917C4.52625 28.3617 4.24906 27.6949 4.25 26.9167V12.75C4.25 11.9708 4.52767 11.3036 5.083 10.7482C5.63834 10.1929 6.30511 9.91572 7.08334 9.91667H9.91667V7.08333C9.91667 6.30417 10.1943 5.63691 10.7497 5.08158C11.305 4.52625 11.9718 4.24905 12.75 4.25H21.25C22.0292 4.25 22.6964 4.52767 23.2518 5.083C23.8071 5.63833 24.0843 6.30511 24.0833 7.08333V15.5833H26.9167C27.6958 15.5833 28.3631 15.861 28.9184 16.4163C29.4738 16.9717 29.7509 17.6384 29.75 18.4167V26.9167C29.75 27.6958 29.4723 28.3631 28.917 28.9184C28.3617 29.4737 27.6949 29.7509 26.9167 29.75H18.4167V24.0833H15.5833V29.75H7.08334ZM7.08334 26.9167H9.91667V24.0833H7.08334V26.9167ZM7.08334 21.25H9.91667V18.4167H7.08334V21.25ZM7.08334 15.5833H9.91667V12.75H7.08334V15.5833ZM12.75 21.25H15.5833V18.4167H12.75V21.25ZM12.75 15.5833H15.5833V12.75H12.75V15.5833ZM12.75 9.91667H15.5833V7.08333H12.75V9.91667ZM18.4167 21.25H21.25V18.4167H18.4167V21.25ZM18.4167 15.5833H21.25V12.75H18.4167V15.5833ZM18.4167 9.91667H21.25V7.08333H18.4167V9.91667ZM24.0833 26.9167H26.9167V24.0833H24.0833V26.9167ZM24.0833 21.25H26.9167V18.4167H24.0833V21.25Z" fill="#DDB771"/>
</svg>
