<svg width="41" height="51" viewBox="0 0 41 51" fill="none" xmlns="http://www.w3.org/2000/svg">
<path d="M39.247 17.6893C35.9699 19.7144 33.9458 23.1859 33.9458 27.0432C33.9458 31.3827 36.5482 35.3364 40.5 36.9757C39.7289 39.483 38.5723 41.7973 37.1265 43.9188C35.006 46.9082 32.7892 49.994 29.512 49.994C26.2349 49.994 25.2711 48.0654 21.4157 48.0654C17.6566 48.0654 16.3072 50.0905 13.2229 50.0905C10.1386 50.0905 8.01807 47.294 5.60843 43.8224C2.42771 39.0008 0.596386 33.4077 0.5 27.5254C0.5 17.9786 6.66867 12.8677 12.8373 12.8677C16.1145 12.8677 18.8133 14.9892 20.8374 14.9892C22.7651 14.9892 25.8494 12.7713 29.512 12.7713C33.3675 12.6749 37.0301 14.5071 39.247 17.6893ZM27.7771 8.72115C29.4157 6.79251 30.2831 4.38171 30.3795 1.87448C30.3795 1.58518 30.3795 1.19945 30.2831 0.910156C27.488 1.19945 24.8855 2.5495 23.0542 4.671C21.4157 6.50321 20.4518 8.81758 20.3554 11.3248C20.3554 11.6141 20.3554 11.9034 20.4518 12.1927C20.6446 12.1927 20.9337 12.2891 21.1265 12.2891C23.7289 12.0963 26.1386 10.7462 27.7771 8.72115Z" fill="black"/>
</svg>
