<svg width="45" height="45" viewBox="0 0 45 45" fill="none" xmlns="http://www.w3.org/2000/svg">
<path d="M24.1009 17.0547L29.6009 22.5547M29.6009 22.5547L24.1009 28.0547M29.6009 22.5547H14.9342M38.7676 22.5547C38.7676 24.7215 38.3408 26.8671 37.5116 28.869C36.6824 30.8708 35.467 32.6898 33.9348 34.2219C32.4027 35.7541 30.5837 36.9695 28.5819 37.7987C26.58 38.6279 24.4344 39.0547 22.2676 39.0547C20.1008 39.0547 17.9552 38.6279 15.9533 37.7987C13.9514 36.9695 12.1325 35.7541 10.6003 34.2219C9.06815 32.6898 7.85277 30.8708 7.02357 28.869C6.19436 26.8671 5.76758 24.7215 5.76758 22.5547C5.76758 18.1786 7.50597 13.9818 10.6003 10.8874C13.6947 7.79308 17.8915 6.05469 22.2676 6.05469C26.6437 6.05469 30.8405 7.79308 33.9348 10.8874C37.0292 13.9818 38.7676 18.1786 38.7676 22.5547Z" stroke="#71C9C7" stroke-width="2" stroke-linecap="round" stroke-linejoin="round"/>
</svg>
