<svg width="18" height="15" viewBox="0 0 18 15" fill="none" xmlns="http://www.w3.org/2000/svg">
<path d="M6.6665 4.875L8.87484 0.5H9.12484L11.3332 4.875H6.6665ZM8.37484 14.75L1.18734 6.125H8.37484V14.75ZM9.62484 14.75V6.125H16.8123L9.62484 14.75ZM12.7082 4.875L10.5415 0.5H13.8123C14.1318 0.5 14.4201 0.583333 14.6773 0.75C14.9346 0.916667 15.1393 1.13889 15.2915 1.41667L17.0207 4.875H12.7082ZM0.979004 4.875L2.70817 1.41667C2.86095 1.13889 3.06595 0.916667 3.32317 0.75C3.58039 0.583333 3.86845 0.5 4.18734 0.5H7.45817L5.2915 4.875H0.979004Z" fill="#363C91"/>
</svg>
