<svg width="315" height="279" viewBox="0 0 315 279" fill="none" xmlns="http://www.w3.org/2000/svg">
<path d="M153.411 101.287L152.463 101.371L151.854 100.656L151.644 101.565L150.76 101.908L151.577 102.384L151.64 103.313L152.356 102.7L153.278 102.93L152.903 102.073L153.411 101.287Z" fill="url(#paint0_linear_314_14402)"/>
<path d="M159.327 102.456L159.659 100.564L157.922 101.457L156.185 100.564L156.516 102.456L155.112 103.794L157.053 104.07L157.922 105.791L158.79 104.07L160.733 103.794L159.327 102.456Z" fill="url(#paint1_linear_314_14402)"/>
<path d="M164.27 101.496L164.06 100.589L163.451 101.303L162.503 101.218L163.011 102.006L162.635 102.862L163.558 102.633L164.273 103.246L164.337 102.317L165.153 101.841L164.27 101.496Z" fill="url(#paint2_linear_314_14402)"/>
<path d="M164.27 101.496L164.06 100.589L163.451 101.303L162.503 101.218L163.011 102.006L162.635 102.862L163.558 102.633L164.273 103.246L164.337 102.317L165.153 101.841L164.27 101.496Z" fill="url(#paint3_linear_314_14402)"/>
<path d="M159.327 102.456L159.659 100.564L157.922 101.457L156.185 100.564L156.516 102.456L155.112 103.794L157.053 104.07L157.922 105.791L158.79 104.07L160.733 103.794L159.327 102.456Z" fill="url(#paint4_linear_314_14402)"/>
<path d="M153.411 101.287L152.463 101.371L151.854 100.656L151.644 101.565L150.76 101.908L151.577 102.384L151.64 103.313L152.356 102.7L153.278 102.93L152.903 102.073L153.411 101.287Z" fill="url(#paint5_linear_314_14402)"/>
<path d="M153.411 101.287L152.463 101.371L151.854 100.656L151.644 101.565L150.76 101.908L151.577 102.384L151.64 103.313L152.356 102.7L153.278 102.93L152.903 102.073L153.411 101.287Z" fill="url(#paint6_linear_314_14402)"/>
<path d="M159.327 102.456L159.659 100.564L157.922 101.457L156.185 100.564L156.516 102.456L155.112 103.794L157.053 104.07L157.922 105.791L158.79 104.07L160.733 103.794L159.327 102.456Z" fill="url(#paint7_linear_314_14402)"/>
<path d="M164.27 101.496L164.06 100.589L163.451 101.303L162.503 101.218L163.011 102.006L162.635 102.862L163.558 102.633L164.273 103.246L164.337 102.317L165.153 101.841L164.27 101.496Z" fill="url(#paint8_linear_314_14402)"/>
<path d="M164.27 101.496L164.06 100.589L163.451 101.303L162.503 101.218L163.011 102.006L162.635 102.862L163.558 102.633L164.273 103.246L164.337 102.317L165.153 101.841L164.27 101.496Z" fill="url(#paint9_linear_314_14402)"/>
<path d="M159.327 102.456L159.659 100.564L157.922 101.457L156.185 100.564L156.516 102.456L155.112 103.794L157.053 104.07L157.922 105.791L158.79 104.07L160.733 103.794L159.327 102.456Z" fill="url(#paint10_linear_314_14402)"/>
<path d="M153.411 101.287L152.463 101.371L151.854 100.656L151.644 101.565L150.76 101.908L151.577 102.384L151.64 103.313L152.356 102.7L153.278 102.93L152.903 102.073L153.411 101.287Z" fill="url(#paint11_linear_314_14402)"/>
<path d="M153.411 101.287L152.463 101.371L151.854 100.656L151.644 101.565L150.76 101.908L151.577 102.384L151.64 103.313L152.356 102.7L153.278 102.93L152.903 102.073L153.411 101.287Z" fill="url(#paint12_linear_314_14402)"/>
<path d="M159.327 102.456L159.659 100.564L157.922 101.457L156.185 100.564L156.516 102.456L155.112 103.794L157.053 104.07L157.922 105.791L158.79 104.07L160.733 103.794L159.327 102.456Z" fill="url(#paint13_linear_314_14402)"/>
<path d="M164.27 101.496L164.06 100.589L163.451 101.303L162.503 101.218L163.011 102.006L162.635 102.862L163.558 102.633L164.273 103.246L164.337 102.317L165.153 101.841L164.27 101.496Z" fill="url(#paint14_linear_314_14402)"/>
<path d="M157.957 74.686C151.893 74.6849 146.585 77.848 143.665 82.5789H144.033C146.925 78.0262 152.085 74.9881 157.957 74.9881C163.829 74.9881 168.99 78.0262 171.879 82.5789H172.249C169.329 77.8491 164.021 74.686 157.957 74.686Z" fill="url(#paint15_linear_314_14402)"/>
<g filter="url(#filter0_d_314_14402)">
<path d="M157.958 73.6277C151.269 73.6277 145.446 77.2406 142.414 82.5789H143.125C146.096 77.5883 151.626 74.2318 157.957 74.2329C164.288 74.2329 169.817 77.5883 172.787 82.5789H173.499C170.467 77.2416 164.644 73.6288 157.958 73.6277Z" fill="url(#paint16_linear_314_14402)" shape-rendering="crispEdges"/>
</g>
<path d="M157.958 69.2478C148.723 69.2478 140.805 74.7481 137.44 82.579H138.112C141.441 75.0892 149.073 69.8519 157.958 69.8519C166.842 69.8519 174.474 75.0903 177.801 82.579H178.473C175.108 74.7481 167.19 69.2478 157.958 69.2478Z" fill="url(#paint17_linear_314_14402)"/>
<path d="M180.998 80.1516C180.589 79.3204 179.323 78.9553 178.824 78.1816C178.324 77.4026 178.534 76.1291 177.949 75.413C177.362 74.6959 176.045 74.6122 175.381 73.9646C174.718 73.3148 174.635 72.0273 173.899 71.4535C173.167 70.8831 171.864 71.0863 171.069 70.5973C170.276 70.1094 169.903 68.8718 169.053 68.472C168.212 68.0743 166.989 68.5578 166.098 68.2525C165.217 67.9504 164.57 66.8269 163.648 66.6204C162.741 66.4205 161.659 67.1583 160.718 67.0562C159.795 66.9551 158.908 66 157.958 66C157.008 66 156.121 66.954 155.196 67.0562C154.256 67.1583 153.175 66.4194 152.268 66.6204C151.346 66.8258 150.698 67.9493 149.818 68.2514C148.925 68.5567 147.704 68.0732 146.862 68.4709C146.011 68.8707 145.638 70.1084 144.847 70.5962C144.05 71.0852 142.748 70.8798 142.015 71.4525C141.282 72.0262 141.196 73.3138 140.534 73.9635C139.869 74.6111 138.552 74.6926 137.966 75.4119C137.382 76.128 137.59 77.4015 137.09 78.1795C136.591 78.9542 135.325 79.3193 134.916 80.1505C134.577 80.8361 134.864 81.7793 134.788 82.579H136.771C140.172 74.4058 148.376 68.6426 157.958 68.6436C167.538 68.6436 175.741 74.4058 179.141 82.579H181.126C181.051 81.7793 181.337 80.8372 180.998 80.1516Z" fill="url(#paint18_linear_314_14402)"/>
<path d="M164.27 101.496L164.06 100.589L163.451 101.303L162.503 101.218L163.011 102.006L162.635 102.862L163.558 102.633L164.273 103.246L164.337 102.317L165.153 101.841L164.27 101.496Z" fill="url(#paint19_linear_314_14402)"/>
<path d="M159.327 102.456L159.659 100.564L157.922 101.457L156.185 100.564L156.516 102.456L155.112 103.794L157.053 104.07L157.922 105.791L158.79 104.07L160.733 103.794L159.327 102.456Z" fill="url(#paint20_linear_314_14402)"/>
<path d="M153.411 101.287L152.463 101.371L151.854 100.656L151.644 101.565L150.76 101.908L151.577 102.384L151.64 103.313L152.356 102.7L153.278 102.93L152.903 102.073L153.411 101.287Z" fill="url(#paint21_linear_314_14402)"/>
<path d="M153.411 101.287L152.463 101.371L151.854 100.656L151.644 101.565L150.76 101.908L151.577 102.384L151.64 103.313L152.356 102.7L153.278 102.93L152.903 102.073L153.411 101.287Z" fill="url(#paint22_linear_314_14402)"/>
<path d="M159.327 102.456L159.659 100.564L157.922 101.457L156.185 100.564L156.516 102.456L155.112 103.794L157.053 104.07L157.922 105.791L158.79 104.07L160.733 103.794L159.327 102.456Z" fill="url(#paint23_linear_314_14402)"/>
<path d="M164.27 101.496L164.06 100.589L163.451 101.303L162.503 101.218L163.011 102.006L162.635 102.862L163.558 102.633L164.273 103.246L164.337 102.317L165.153 101.841L164.27 101.496Z" fill="url(#paint24_linear_314_14402)"/>
<g filter="url(#filter1_d_314_14402)">
<path d="M171.88 99.4209C168.989 103.974 163.829 107.012 157.957 107.012C152.085 107.012 146.924 103.974 144.035 99.4209H143.665C146.585 104.151 151.893 107.314 157.957 107.314C164.021 107.314 169.329 104.152 172.249 99.4209H171.88Z" fill="url(#paint25_linear_314_14402)" shape-rendering="crispEdges"/>
</g>
<path d="M172.788 99.4209C169.817 104.412 164.288 107.768 157.957 107.767C151.626 107.767 146.096 104.412 143.126 99.4209H142.414C145.446 104.758 151.269 108.371 157.955 108.372C164.644 108.372 170.467 104.759 173.499 99.4209H172.788Z" fill="url(#paint26_linear_314_14402)"/>
<path d="M177.801 99.4209C174.473 106.911 166.84 112.148 157.955 112.148C149.071 112.148 141.439 106.91 138.112 99.4209H137.44C140.805 107.252 148.723 112.752 157.955 112.752C167.188 112.752 175.108 107.252 178.473 99.4209H177.801Z" fill="url(#paint27_linear_314_14402)"/>
<path d="M181.125 99.4209H179.142C175.742 107.594 167.537 113.357 157.956 113.356C148.375 113.356 140.173 107.594 136.772 99.4209H134.787C134.862 100.221 134.576 101.163 134.915 101.848C135.324 102.68 136.59 103.045 137.089 103.818C137.589 104.597 137.379 105.871 137.964 106.587C138.551 107.304 139.868 107.388 140.533 108.035C141.195 108.685 141.278 109.973 142.014 110.546C142.746 111.117 144.049 110.914 144.844 111.403C145.637 111.89 146.01 113.128 146.86 113.528C147.702 113.926 148.924 113.442 149.815 113.747C150.697 114.05 151.343 115.173 152.266 115.379C153.173 115.579 154.254 114.842 155.195 114.944C156.119 115.045 157.005 116 157.956 116C158.906 116 159.792 115.046 160.717 114.944C161.657 114.842 162.738 115.58 163.645 115.379C164.568 115.174 165.216 114.051 166.096 113.749C166.988 113.443 168.209 113.927 169.052 113.529C169.902 113.129 170.275 111.892 171.067 111.404C171.863 110.915 173.166 111.12 173.898 110.547C174.632 109.974 174.717 108.686 175.379 108.036C176.044 107.389 177.361 107.307 177.948 106.588C178.531 105.872 178.323 104.598 178.823 103.82C179.322 103.046 180.588 102.681 180.997 101.849C181.336 101.164 181.049 100.221 181.125 99.4209Z" fill="url(#paint28_linear_314_14402)"/>
<g filter="url(#filter2_d_314_14402)">
<path d="M183.476 83H131.446C130.64 83.0426 130 83.7321 130 84.5758V97.4219C130 98.2932 130.682 99 131.524 99H183.554C184.36 98.9574 185 98.2679 185 97.4242V84.5781C185 83.7068 184.318 83 183.476 83Z" fill="url(#paint29_linear_314_14402)" shape-rendering="crispEdges"/>
</g>
<path d="M153.411 101.287L152.463 101.371L151.854 100.656L151.644 101.565L150.76 101.908L151.577 102.384L151.64 103.313L152.356 102.7L153.278 102.93L152.903 102.073L153.411 101.287Z" fill="url(#paint30_linear_314_14402)"/>
<path d="M159.327 102.456L159.659 100.564L157.922 101.457L156.185 100.564L156.516 102.456L155.112 103.794L157.053 104.07L157.922 105.791L158.79 104.07L160.733 103.794L159.327 102.456Z" fill="url(#paint31_linear_314_14402)"/>
<path d="M164.27 101.496L164.06 100.589L163.451 101.303L162.503 101.218L163.011 102.006L162.635 102.862L163.558 102.633L164.273 103.246L164.337 102.317L165.153 101.841L164.27 101.496Z" fill="url(#paint32_linear_314_14402)"/>
<path d="M164.27 101.496L164.06 100.589L163.451 101.303L162.503 101.218L163.011 102.006L162.635 102.862L163.558 102.633L164.273 103.246L164.337 102.317L165.153 101.841L164.27 101.496Z" fill="url(#paint33_linear_314_14402)"/>
<path d="M159.327 102.456L159.659 100.564L157.922 101.457L156.185 100.564L156.516 102.456L155.112 103.794L157.053 104.07L157.922 105.791L158.79 104.07L160.733 103.794L159.327 102.456Z" fill="url(#paint34_linear_314_14402)"/>
<path d="M153.411 101.287L152.463 101.371L151.854 100.656L151.644 101.565L150.76 101.908L151.577 102.384L151.64 103.313L152.356 102.7L153.278 102.93L152.903 102.073L153.411 101.287Z" fill="url(#paint35_linear_314_14402)"/>
<path d="M153.411 101.287L152.463 101.371L151.854 100.656L151.644 101.565L150.76 101.908L151.577 102.384L151.64 103.313L152.356 102.7L153.278 102.93L152.903 102.073L153.411 101.287Z" fill="url(#paint36_linear_314_14402)"/>
<path d="M159.327 102.456L159.659 100.564L157.922 101.457L156.185 100.564L156.516 102.456L155.112 103.794L157.053 104.07L157.922 105.791L158.79 104.07L160.733 103.794L159.327 102.456Z" fill="url(#paint37_linear_314_14402)"/>
<path d="M164.27 101.496L164.06 100.589L163.451 101.303L162.503 101.218L163.011 102.006L162.635 102.862L163.558 102.633L164.273 103.246L164.337 102.317L165.153 101.841L164.27 101.496Z" fill="url(#paint38_linear_314_14402)"/>
<path d="M157.958 69.2478C148.723 69.2478 140.805 74.7481 137.44 82.579H138.112C141.441 75.0892 149.073 69.8519 157.958 69.8519C166.842 69.8519 174.474 75.0903 177.801 82.579H178.473C175.108 74.7481 167.19 69.2478 157.958 69.2478Z" fill="url(#paint39_linear_314_14402)"/>
<path d="M164.27 101.496L164.06 100.589L163.451 101.303L162.503 101.218L163.011 102.006L162.635 102.862L163.558 102.633L164.273 103.246L164.337 102.317L165.153 101.841L164.27 101.496Z" fill="url(#paint40_linear_314_14402)"/>
<path d="M159.327 102.456L159.659 100.564L157.922 101.457L156.185 100.564L156.516 102.456L155.112 103.794L157.053 104.07L157.922 105.791L158.79 104.07L160.733 103.794L159.327 102.456Z" fill="url(#paint41_linear_314_14402)"/>
<path d="M153.411 101.287L152.463 101.371L151.854 100.656L151.644 101.565L150.76 101.908L151.577 102.384L151.64 103.313L152.356 102.7L153.278 102.93L152.903 102.073L153.411 101.287Z" fill="url(#paint42_linear_314_14402)"/>
<path d="M153.411 101.287L152.463 101.371L151.854 100.656L151.644 101.565L150.76 101.908L151.577 102.384L151.64 103.313L152.356 102.7L153.278 102.93L152.903 102.073L153.411 101.287Z" fill="url(#paint43_linear_314_14402)"/>
<path d="M159.327 102.456L159.659 100.564L157.922 101.457L156.185 100.564L156.516 102.456L155.112 103.794L157.053 104.07L157.922 105.791L158.79 104.07L160.733 103.794L159.327 102.456Z" fill="url(#paint44_linear_314_14402)"/>
<path d="M164.27 101.496L164.06 100.589L163.451 101.303L162.503 101.218L163.011 102.006L162.635 102.862L163.558 102.633L164.273 103.246L164.337 102.317L165.153 101.841L164.27 101.496Z" fill="url(#paint45_linear_314_14402)"/>
<path d="M164.27 101.496L164.06 100.589L163.451 101.303L162.503 101.218L163.011 102.006L162.635 102.862L163.558 102.633L164.273 103.246L164.337 102.317L165.153 101.841L164.27 101.496Z" fill="url(#paint46_linear_314_14402)"/>
<path d="M159.327 102.456L159.659 100.564L157.922 101.457L156.185 100.564L156.516 102.456L155.112 103.794L157.053 104.07L157.922 105.791L158.79 104.07L160.733 103.794L159.327 102.456Z" fill="url(#paint47_linear_314_14402)"/>
<path d="M153.411 101.287L152.463 101.371L151.854 100.656L151.644 101.565L150.76 101.908L151.577 102.384L151.64 103.313L152.356 102.7L153.278 102.93L152.903 102.073L153.411 101.287Z" fill="url(#paint48_linear_314_14402)"/>
<path d="M153.411 101.287L152.903 102.073L153.278 102.93L152.356 102.7L151.64 103.313L151.577 102.384L150.76 101.908L151.644 101.565L151.854 100.656L152.463 101.371L153.411 101.287Z" fill="url(#paint49_linear_314_14402)"/>
<path d="M159.327 102.456L160.733 103.794L158.79 104.07L157.922 105.791L157.053 104.07L155.112 103.794L156.516 102.456L156.185 100.564L157.922 101.457L159.659 100.564L159.327 102.456Z" fill="url(#paint50_linear_314_14402)"/>
<path d="M165.153 101.841L164.337 102.317L164.273 103.246L163.558 102.633L162.635 102.862L163.011 102.006L162.503 101.218L163.451 101.303L164.06 100.589L164.27 101.496L165.153 101.841Z" fill="url(#paint51_linear_314_14402)"/>
<path d="M160.733 78.2056L158.79 77.9296L157.922 76.2085L157.053 77.9296L155.112 78.2056L156.516 79.5443L156.185 81.436L157.922 80.5429L159.659 81.436L159.327 79.5443L160.733 78.2056Z" fill="url(#paint52_linear_314_14402)"/>
<path d="M165.153 80.1591L164.337 79.6832L164.273 78.7542L163.558 79.367L162.635 79.1377L163.011 79.9939L162.503 80.7817L163.451 80.697L164.06 81.4108L164.27 80.5035L165.153 80.1591Z" fill="url(#paint53_linear_314_14402)"/>
<path d="M152.903 79.9268L153.278 79.0706L152.356 79.2998L151.64 78.687L151.577 79.616L150.76 80.092L151.644 80.4353L151.854 81.3437L152.463 80.6287L153.411 80.7135L152.903 79.9268Z" fill="url(#paint54_linear_314_14402)"/>
<path d="M143.051 94L140.937 89.1H142.162L144.01 93.44H143.289L145.165 89.1H146.292L144.171 94H143.051ZM147.744 91.074H150.103V91.956H147.744V91.074ZM147.828 93.09H150.495V94H146.701V89.1H150.404V90.01H147.828V93.09ZM151.397 94V89.1H153.518C153.957 89.1 154.335 89.1723 154.652 89.317C154.97 89.457 155.215 89.66 155.387 89.926C155.56 90.192 155.646 90.5093 155.646 90.878C155.646 91.242 155.56 91.557 155.387 91.823C155.215 92.0843 154.97 92.285 154.652 92.425C154.335 92.565 153.957 92.635 153.518 92.635H152.027L152.531 92.138V94H151.397ZM154.512 94L153.287 92.222H154.498L155.737 94H154.512ZM152.531 92.264L152.027 91.732H153.455C153.805 91.732 154.067 91.6573 154.239 91.508C154.412 91.354 154.498 91.144 154.498 90.878C154.498 90.6073 154.412 90.3973 154.239 90.248C154.067 90.0987 153.805 90.024 153.455 90.024H152.027L152.531 89.485V92.264ZM156.545 94V89.1H157.679V94H156.545ZM159.892 91.305H162.244V92.215H159.892V91.305ZM159.976 94H158.842V89.1H162.545V90.01H159.976V94ZM163.312 94V89.1H164.446V94H163.312ZM166.652 91.074H169.011V91.956H166.652V91.074ZM166.736 93.09H169.403V94H165.609V89.1H169.312V90.01H166.736V93.09ZM170.306 94V89.1H172.532C173.064 89.1 173.533 89.2027 173.939 89.408C174.345 89.6087 174.662 89.891 174.891 90.255C175.119 90.619 175.234 91.0507 175.234 91.55C175.234 92.0447 175.119 92.4763 174.891 92.845C174.662 93.209 174.345 93.4937 173.939 93.699C173.533 93.8997 173.064 94 172.532 94H170.306ZM171.44 93.069H172.476C172.802 93.069 173.085 93.0083 173.323 92.887C173.565 92.761 173.752 92.5837 173.883 92.355C174.018 92.1263 174.086 91.858 174.086 91.55C174.086 91.2373 174.018 90.969 173.883 90.745C173.752 90.5163 173.565 90.3413 173.323 90.22C173.085 90.094 172.802 90.031 172.476 90.031H171.44V93.069Z" fill="white"/>
<defs>
<filter id="filter0_d_314_14402" x="68.4141" y="0.627686" width="179.085" height="156.951" filterUnits="userSpaceOnUse" color-interpolation-filters="sRGB">
<feFlood flood-opacity="0" result="BackgroundImageFix"/>
<feColorMatrix in="SourceAlpha" type="matrix" values="0 0 0 0 0 0 0 0 0 0 0 0 0 0 0 0 0 0 127 0" result="hardAlpha"/>
<feMorphology radius="10" operator="dilate" in="SourceAlpha" result="effect1_dropShadow_314_14402"/>
<feOffset dy="1"/>
<feGaussianBlur stdDeviation="32"/>
<feComposite in2="hardAlpha" operator="out"/>
<feColorMatrix type="matrix" values="0 0 0 0 0 0 0 0 0 0 0 0 0 0 0 0 0 0 0.12 0"/>
<feBlend mode="normal" in2="BackgroundImageFix" result="effect1_dropShadow_314_14402"/>
<feBlend mode="normal" in="SourceGraphic" in2="effect1_dropShadow_314_14402" result="shape"/>
</filter>
<filter id="filter1_d_314_14402" x="69.6646" y="26.4209" width="176.584" height="155.893" filterUnits="userSpaceOnUse" color-interpolation-filters="sRGB">
<feFlood flood-opacity="0" result="BackgroundImageFix"/>
<feColorMatrix in="SourceAlpha" type="matrix" values="0 0 0 0 0 0 0 0 0 0 0 0 0 0 0 0 0 0 127 0" result="hardAlpha"/>
<feMorphology radius="10" operator="dilate" in="SourceAlpha" result="effect1_dropShadow_314_14402"/>
<feOffset dy="1"/>
<feGaussianBlur stdDeviation="32"/>
<feComposite in2="hardAlpha" operator="out"/>
<feColorMatrix type="matrix" values="0 0 0 0 0 0 0 0 0 0 0 0 0 0 0 0 0 0 0.12 0"/>
<feBlend mode="normal" in2="BackgroundImageFix" result="effect1_dropShadow_314_14402"/>
<feBlend mode="normal" in="SourceGraphic" in2="effect1_dropShadow_314_14402" result="shape"/>
</filter>
<filter id="filter2_d_314_14402" x="0" y="3" width="315" height="276" filterUnits="userSpaceOnUse" color-interpolation-filters="sRGB">
<feFlood flood-opacity="0" result="BackgroundImageFix"/>
<feColorMatrix in="SourceAlpha" type="matrix" values="0 0 0 0 0 0 0 0 0 0 0 0 0 0 0 0 0 0 127 0" result="hardAlpha"/>
<feOffset dy="50"/>
<feGaussianBlur stdDeviation="65"/>
<feComposite in2="hardAlpha" operator="out"/>
<feColorMatrix type="matrix" values="0 0 0 0 0 0 0 0 0 0 0 0 0 0 0 0 0 0 0.15 0"/>
<feBlend mode="normal" in2="BackgroundImageFix" result="effect1_dropShadow_314_14402"/>
<feBlend mode="normal" in="SourceGraphic" in2="effect1_dropShadow_314_14402" result="shape"/>
</filter>
<linearGradient id="paint0_linear_314_14402" x1="152.085" y1="100.656" x2="152.085" y2="103.313" gradientUnits="userSpaceOnUse">
<stop stop-color="#FFDE99"/>
<stop offset="1" stop-color="#D9A841" stop-opacity="0.28"/>
</linearGradient>
<linearGradient id="paint1_linear_314_14402" x1="157.922" y1="100.564" x2="157.922" y2="105.791" gradientUnits="userSpaceOnUse">
<stop stop-color="#FFDE99"/>
<stop offset="1" stop-color="#D9A841" stop-opacity="0.28"/>
</linearGradient>
<linearGradient id="paint2_linear_314_14402" x1="163.828" y1="100.589" x2="163.828" y2="103.246" gradientUnits="userSpaceOnUse">
<stop stop-color="#FFDE99"/>
<stop offset="1" stop-color="#D9A841" stop-opacity="0.28"/>
</linearGradient>
<linearGradient id="paint3_linear_314_14402" x1="163.828" y1="100.589" x2="163.828" y2="103.246" gradientUnits="userSpaceOnUse">
<stop stop-color="#FFDE99"/>
<stop offset="1" stop-color="#D9A841" stop-opacity="0.28"/>
</linearGradient>
<linearGradient id="paint4_linear_314_14402" x1="157.922" y1="100.564" x2="157.922" y2="105.791" gradientUnits="userSpaceOnUse">
<stop stop-color="#FFDE99"/>
<stop offset="1" stop-color="#D9A841" stop-opacity="0.28"/>
</linearGradient>
<linearGradient id="paint5_linear_314_14402" x1="152.085" y1="100.656" x2="152.085" y2="103.313" gradientUnits="userSpaceOnUse">
<stop stop-color="#FFDE99"/>
<stop offset="1" stop-color="#D9A841" stop-opacity="0.28"/>
</linearGradient>
<linearGradient id="paint6_linear_314_14402" x1="152.085" y1="100.656" x2="152.085" y2="103.313" gradientUnits="userSpaceOnUse">
<stop stop-color="#FFDE99"/>
<stop offset="1" stop-color="#D9A841" stop-opacity="0.28"/>
</linearGradient>
<linearGradient id="paint7_linear_314_14402" x1="157.922" y1="100.564" x2="157.922" y2="105.791" gradientUnits="userSpaceOnUse">
<stop stop-color="#FFDE99"/>
<stop offset="1" stop-color="#D9A841" stop-opacity="0.28"/>
</linearGradient>
<linearGradient id="paint8_linear_314_14402" x1="163.828" y1="100.589" x2="163.828" y2="103.246" gradientUnits="userSpaceOnUse">
<stop stop-color="#FFDE99"/>
<stop offset="1" stop-color="#D9A841" stop-opacity="0.28"/>
</linearGradient>
<linearGradient id="paint9_linear_314_14402" x1="163.828" y1="100.589" x2="163.828" y2="103.246" gradientUnits="userSpaceOnUse">
<stop stop-color="#FFDE99"/>
<stop offset="1" stop-color="#D9A841" stop-opacity="0.28"/>
</linearGradient>
<linearGradient id="paint10_linear_314_14402" x1="157.922" y1="100.564" x2="157.922" y2="105.791" gradientUnits="userSpaceOnUse">
<stop stop-color="#FFDE99"/>
<stop offset="1" stop-color="#D9A841" stop-opacity="0.28"/>
</linearGradient>
<linearGradient id="paint11_linear_314_14402" x1="152.085" y1="100.656" x2="152.085" y2="103.313" gradientUnits="userSpaceOnUse">
<stop stop-color="#FFDE99"/>
<stop offset="1" stop-color="#D9A841" stop-opacity="0.28"/>
</linearGradient>
<linearGradient id="paint12_linear_314_14402" x1="152.085" y1="100.656" x2="152.085" y2="103.313" gradientUnits="userSpaceOnUse">
<stop stop-color="#FFDE99"/>
<stop offset="1" stop-color="#D9A841" stop-opacity="0.28"/>
</linearGradient>
<linearGradient id="paint13_linear_314_14402" x1="157.922" y1="100.564" x2="157.922" y2="105.791" gradientUnits="userSpaceOnUse">
<stop stop-color="#FFDE99"/>
<stop offset="1" stop-color="#D9A841" stop-opacity="0.28"/>
</linearGradient>
<linearGradient id="paint14_linear_314_14402" x1="163.828" y1="100.589" x2="163.828" y2="103.246" gradientUnits="userSpaceOnUse">
<stop stop-color="#FFDE99"/>
<stop offset="1" stop-color="#D9A841" stop-opacity="0.28"/>
</linearGradient>
<linearGradient id="paint15_linear_314_14402" x1="157.957" y1="74.686" x2="157.957" y2="82.5789" gradientUnits="userSpaceOnUse">
<stop stop-color="#FFDE99"/>
<stop offset="1" stop-color="#D9A841" stop-opacity="0.28"/>
</linearGradient>
<linearGradient id="paint16_linear_314_14402" x1="157.957" y1="73.6277" x2="157.957" y2="82.5789" gradientUnits="userSpaceOnUse">
<stop stop-color="#FFDE99"/>
<stop offset="1" stop-color="#D9A841" stop-opacity="0.28"/>
</linearGradient>
<linearGradient id="paint17_linear_314_14402" x1="157.957" y1="69.2478" x2="157.957" y2="82.579" gradientUnits="userSpaceOnUse">
<stop stop-color="#FFDE99"/>
<stop offset="1" stop-color="#D9A841" stop-opacity="0.28"/>
</linearGradient>
<linearGradient id="paint18_linear_314_14402" x1="157.957" y1="66" x2="157.957" y2="82.579" gradientUnits="userSpaceOnUse">
<stop stop-color="#FFDE99"/>
<stop offset="1" stop-color="#D9A841" stop-opacity="0.28"/>
</linearGradient>
<linearGradient id="paint19_linear_314_14402" x1="163.828" y1="100.589" x2="163.828" y2="103.246" gradientUnits="userSpaceOnUse">
<stop stop-color="#FFDE99"/>
<stop offset="1" stop-color="#D9A841" stop-opacity="0.28"/>
</linearGradient>
<linearGradient id="paint20_linear_314_14402" x1="157.922" y1="100.564" x2="157.922" y2="105.791" gradientUnits="userSpaceOnUse">
<stop stop-color="#FFDE99"/>
<stop offset="1" stop-color="#D9A841" stop-opacity="0.28"/>
</linearGradient>
<linearGradient id="paint21_linear_314_14402" x1="152.085" y1="100.656" x2="152.085" y2="103.313" gradientUnits="userSpaceOnUse">
<stop stop-color="#FFDE99"/>
<stop offset="1" stop-color="#D9A841" stop-opacity="0.28"/>
</linearGradient>
<linearGradient id="paint22_linear_314_14402" x1="152.085" y1="100.656" x2="152.085" y2="103.313" gradientUnits="userSpaceOnUse">
<stop stop-color="#FFDE99"/>
<stop offset="1" stop-color="#D9A841" stop-opacity="0.28"/>
</linearGradient>
<linearGradient id="paint23_linear_314_14402" x1="157.922" y1="100.564" x2="157.922" y2="105.791" gradientUnits="userSpaceOnUse">
<stop stop-color="#FFDE99"/>
<stop offset="1" stop-color="#D9A841" stop-opacity="0.28"/>
</linearGradient>
<linearGradient id="paint24_linear_314_14402" x1="163.828" y1="100.589" x2="163.828" y2="103.246" gradientUnits="userSpaceOnUse">
<stop stop-color="#FFDE99"/>
<stop offset="1" stop-color="#D9A841" stop-opacity="0.28"/>
</linearGradient>
<linearGradient id="paint25_linear_314_14402" x1="157.957" y1="99.4209" x2="157.957" y2="107.314" gradientUnits="userSpaceOnUse">
<stop stop-color="#FFDE99"/>
<stop offset="1" stop-color="#D9A841" stop-opacity="0.28"/>
</linearGradient>
<linearGradient id="paint26_linear_314_14402" x1="157.957" y1="99.4209" x2="157.957" y2="108.372" gradientUnits="userSpaceOnUse">
<stop stop-color="#FFDE99"/>
<stop offset="1" stop-color="#D9A841" stop-opacity="0.28"/>
</linearGradient>
<linearGradient id="paint27_linear_314_14402" x1="157.957" y1="99.4209" x2="157.957" y2="112.752" gradientUnits="userSpaceOnUse">
<stop stop-color="#FFDE99"/>
<stop offset="1" stop-color="#D9A841" stop-opacity="0.28"/>
</linearGradient>
<linearGradient id="paint28_linear_314_14402" x1="157.956" y1="99.4209" x2="157.956" y2="116" gradientUnits="userSpaceOnUse">
<stop stop-color="#FFDE99"/>
<stop offset="1" stop-color="#D9A841" stop-opacity="0.28"/>
</linearGradient>
<linearGradient id="paint29_linear_314_14402" x1="130" y1="88" x2="252" y2="86.5" gradientUnits="userSpaceOnUse">
<stop stop-color="#CC9725"/>
<stop offset="1" stop-color="#D9A841" stop-opacity="0.28"/>
</linearGradient>
<linearGradient id="paint30_linear_314_14402" x1="152.085" y1="100.656" x2="152.085" y2="103.313" gradientUnits="userSpaceOnUse">
<stop stop-color="#FFDE99"/>
<stop offset="1" stop-color="#D9A841" stop-opacity="0.28"/>
</linearGradient>
<linearGradient id="paint31_linear_314_14402" x1="157.922" y1="100.564" x2="157.922" y2="105.791" gradientUnits="userSpaceOnUse">
<stop stop-color="#FFDE99"/>
<stop offset="1" stop-color="#D9A841" stop-opacity="0.28"/>
</linearGradient>
<linearGradient id="paint32_linear_314_14402" x1="163.828" y1="100.589" x2="163.828" y2="103.246" gradientUnits="userSpaceOnUse">
<stop stop-color="#FFDE99"/>
<stop offset="1" stop-color="#D9A841" stop-opacity="0.28"/>
</linearGradient>
<linearGradient id="paint33_linear_314_14402" x1="163.828" y1="100.589" x2="163.828" y2="103.246" gradientUnits="userSpaceOnUse">
<stop stop-color="#FFDE99"/>
<stop offset="1" stop-color="#D9A841" stop-opacity="0.28"/>
</linearGradient>
<linearGradient id="paint34_linear_314_14402" x1="157.922" y1="100.564" x2="157.922" y2="105.791" gradientUnits="userSpaceOnUse">
<stop stop-color="#FFDE99"/>
<stop offset="1" stop-color="#D9A841" stop-opacity="0.28"/>
</linearGradient>
<linearGradient id="paint35_linear_314_14402" x1="152.085" y1="100.656" x2="152.085" y2="103.313" gradientUnits="userSpaceOnUse">
<stop stop-color="#FFDE99"/>
<stop offset="1" stop-color="#D9A841" stop-opacity="0.28"/>
</linearGradient>
<linearGradient id="paint36_linear_314_14402" x1="152.085" y1="100.656" x2="152.085" y2="103.313" gradientUnits="userSpaceOnUse">
<stop stop-color="#FFDE99"/>
<stop offset="1" stop-color="#D9A841" stop-opacity="0.28"/>
</linearGradient>
<linearGradient id="paint37_linear_314_14402" x1="157.922" y1="100.564" x2="157.922" y2="105.791" gradientUnits="userSpaceOnUse">
<stop stop-color="#FFDE99"/>
<stop offset="1" stop-color="#D9A841" stop-opacity="0.28"/>
</linearGradient>
<linearGradient id="paint38_linear_314_14402" x1="163.828" y1="100.589" x2="163.828" y2="103.246" gradientUnits="userSpaceOnUse">
<stop stop-color="#FFDE99"/>
<stop offset="1" stop-color="#D9A841" stop-opacity="0.28"/>
</linearGradient>
<linearGradient id="paint39_linear_314_14402" x1="157.957" y1="69.2478" x2="157.957" y2="82.579" gradientUnits="userSpaceOnUse">
<stop stop-color="#FFDE99"/>
<stop offset="1" stop-color="#D9A841" stop-opacity="0.28"/>
</linearGradient>
<linearGradient id="paint40_linear_314_14402" x1="163.828" y1="100.589" x2="163.828" y2="103.246" gradientUnits="userSpaceOnUse">
<stop stop-color="#FFDE99"/>
<stop offset="1" stop-color="#D9A841" stop-opacity="0.28"/>
</linearGradient>
<linearGradient id="paint41_linear_314_14402" x1="157.922" y1="100.564" x2="157.922" y2="105.791" gradientUnits="userSpaceOnUse">
<stop stop-color="#FFDE99"/>
<stop offset="1" stop-color="#D9A841" stop-opacity="0.28"/>
</linearGradient>
<linearGradient id="paint42_linear_314_14402" x1="152.085" y1="100.656" x2="152.085" y2="103.313" gradientUnits="userSpaceOnUse">
<stop stop-color="#FFDE99"/>
<stop offset="1" stop-color="#D9A841" stop-opacity="0.28"/>
</linearGradient>
<linearGradient id="paint43_linear_314_14402" x1="152.085" y1="100.656" x2="152.085" y2="103.313" gradientUnits="userSpaceOnUse">
<stop stop-color="#FFDE99"/>
<stop offset="1" stop-color="#D9A841" stop-opacity="0.28"/>
</linearGradient>
<linearGradient id="paint44_linear_314_14402" x1="157.922" y1="100.564" x2="157.922" y2="105.791" gradientUnits="userSpaceOnUse">
<stop stop-color="#FFDE99"/>
<stop offset="1" stop-color="#D9A841" stop-opacity="0.28"/>
</linearGradient>
<linearGradient id="paint45_linear_314_14402" x1="163.828" y1="100.589" x2="163.828" y2="103.246" gradientUnits="userSpaceOnUse">
<stop stop-color="#FFDE99"/>
<stop offset="1" stop-color="#D9A841" stop-opacity="0.28"/>
</linearGradient>
<linearGradient id="paint46_linear_314_14402" x1="163.828" y1="100.589" x2="163.828" y2="103.246" gradientUnits="userSpaceOnUse">
<stop stop-color="#FFDE99"/>
<stop offset="1" stop-color="#D9A841" stop-opacity="0.28"/>
</linearGradient>
<linearGradient id="paint47_linear_314_14402" x1="157.922" y1="100.564" x2="157.922" y2="105.791" gradientUnits="userSpaceOnUse">
<stop stop-color="#FFDE99"/>
<stop offset="1" stop-color="#D9A841" stop-opacity="0.28"/>
</linearGradient>
<linearGradient id="paint48_linear_314_14402" x1="152.085" y1="100.656" x2="152.085" y2="103.313" gradientUnits="userSpaceOnUse">
<stop stop-color="#FFDE99"/>
<stop offset="1" stop-color="#D9A841" stop-opacity="0.28"/>
</linearGradient>
<linearGradient id="paint49_linear_314_14402" x1="152.085" y1="100.656" x2="152.085" y2="103.313" gradientUnits="userSpaceOnUse">
<stop stop-color="#FFDE99"/>
<stop offset="1" stop-color="#D9A841" stop-opacity="0.28"/>
</linearGradient>
<linearGradient id="paint50_linear_314_14402" x1="157.922" y1="100.564" x2="157.922" y2="105.791" gradientUnits="userSpaceOnUse">
<stop stop-color="#FFDE99"/>
<stop offset="1" stop-color="#D9A841" stop-opacity="0.28"/>
</linearGradient>
<linearGradient id="paint51_linear_314_14402" x1="163.828" y1="100.589" x2="163.828" y2="103.246" gradientUnits="userSpaceOnUse">
<stop stop-color="#FFDE99"/>
<stop offset="1" stop-color="#D9A841" stop-opacity="0.28"/>
</linearGradient>
<linearGradient id="paint52_linear_314_14402" x1="157.922" y1="76.2085" x2="157.922" y2="81.436" gradientUnits="userSpaceOnUse">
<stop stop-color="#FFDE99"/>
<stop offset="1" stop-color="#D9A841" stop-opacity="0.28"/>
</linearGradient>
<linearGradient id="paint53_linear_314_14402" x1="163.828" y1="78.7542" x2="163.828" y2="81.4108" gradientUnits="userSpaceOnUse">
<stop stop-color="#FFDE99"/>
<stop offset="1" stop-color="#D9A841" stop-opacity="0.28"/>
</linearGradient>
<linearGradient id="paint54_linear_314_14402" x1="152.085" y1="78.687" x2="152.085" y2="81.3437" gradientUnits="userSpaceOnUse">
<stop stop-color="#FFDE99"/>
<stop offset="1" stop-color="#D9A841" stop-opacity="0.28"/>
</linearGradient>
</defs>
</svg>
