<svg width="30" height="30" viewBox="0 0 30 30" fill="none" xmlns="http://www.w3.org/2000/svg">
<path d="M28.7557 10.339C30.5265 8.56821 29.719 6.49988 28.7557 5.49405L24.5057 1.24405C22.7207 -0.526788 20.6665 0.280712 19.6607 1.24405L17.2524 3.66655H13.5832C10.8915 3.66655 9.33321 5.08321 8.53988 6.71238L2.24988 13.0024V18.669L1.24405 19.6607C-0.526788 21.4457 0.280712 23.4999 1.24405 24.5057L5.49405 28.7557C6.25905 29.5207 7.08071 29.804 7.85988 29.804C8.86571 29.804 9.78655 29.3082 10.339 28.7557L14.164 24.9165H19.2499C21.6582 24.9165 22.8765 23.4149 23.3157 21.9415C24.9165 21.5165 25.7949 20.2982 26.149 19.1082C28.3449 18.5415 29.1665 16.459 29.1665 14.9999V10.7499H28.3307L28.7557 10.339ZM26.3332 14.9999C26.3332 15.6374 26.064 16.4165 24.9165 16.4165H23.4999V17.8332C23.4999 18.4707 23.2307 19.2499 22.0832 19.2499H20.6665V20.6665C20.6665 21.304 20.3974 22.0832 19.2499 22.0832H13.0024L8.35571 26.7299C7.91655 27.1407 7.66155 26.8999 7.50571 26.744L3.26988 22.5224C2.85905 22.0832 3.09988 21.8282 3.25571 21.6724L5.08321 19.8307V14.164L7.91655 11.3307V13.5832C7.91655 15.2974 9.04988 17.8332 12.1665 17.8332C15.2832 17.8332 16.4165 15.2974 16.4165 13.5832H26.3332V14.9999ZM26.744 8.32738L24.3357 10.7499H13.5832V13.5832C13.5832 14.2207 13.314 14.9999 12.1665 14.9999C11.019 14.9999 10.7499 14.2207 10.7499 13.5832V9.33321C10.7499 8.68155 10.9907 6.49988 13.5832 6.49988H18.414L21.644 3.26988C22.0832 2.85905 22.3382 3.09988 22.494 3.25571L26.7299 7.47738C27.1407 7.91655 26.8999 8.17155 26.744 8.32738Z" fill="#F1B346"/>
</svg>
