<svg width="41" height="41" viewBox="0 0 41 41" fill="none" xmlns="http://www.w3.org/2000/svg">
<g clipPath="url(#clip0_4186_15343)">
<path d="M40.5 20.5008C40.5 9.45507 31.5457 0.500778 20.5 0.500778C9.4543 0.500778 0.5 9.45507 0.5 20.5008C0.5 30.4834 7.81371 38.7574 17.375 40.2578V26.282H12.2969V20.5008H17.375V16.0945C17.375 11.082 20.3609 8.31328 24.9293 8.31328C27.1175 8.31328 29.4062 8.7039 29.4062 8.7039V13.6258H26.8843C24.3998 13.6258 23.625 15.1675 23.625 16.7491V20.5008H29.1719L28.2852 26.282H23.625V40.2578C33.1863 38.7574 40.5 30.4834 40.5 20.5008Z" fill="#1877F2"/>
<path d="M28.2852 26.2812L29.1719 20.5H23.625V16.7483C23.625 15.1667 24.3998 13.625 26.8843 13.625H29.4063V8.70312C29.4063 8.70312 27.1175 8.3125 24.9293 8.3125C20.3609 8.3125 17.375 11.0812 17.375 16.0938V20.5H12.2969V26.2812H17.375V40.257C18.3932 40.4168 19.4369 40.5 20.5 40.5C21.5631 40.5 22.6068 40.4168 23.625 40.257V26.2812H28.2852Z" fill="white"/>
</g>
<defs>
<clipPath id="clip0_4186_15343">
<rect width="40" height="40" fill="white" transform="translate(0.5 0.5)"/>
</clipPath>
</defs>
</svg>
