<svg width="217" height="98" viewBox="0 0 217 98" fill="none" xmlns="http://www.w3.org/2000/svg">
<g filter="url(#filter0_d_4415_56977)">
<rect x="24" y="16" width="179" height="50" rx="25" fill="url(#paint0_linear_4415_56977)"/>
<rect x="24" y="16" width="50" height="50" rx="25" fill="url(#paint1_linear_4415_56977)"/>
<path d="M49.3126 47.875H42.7266C42.6473 47.8761 42.5686 47.8612 42.4952 47.8313C42.4217 47.8015 42.355 47.7572 42.2989 47.7011C42.2428 47.6451 42.1986 47.5783 42.1687 47.5049C42.1388 47.4314 42.124 47.3527 42.1251 47.2734V40.6875C42.1251 38.7813 42.8823 36.9531 44.2302 35.6052C45.5781 34.2573 47.4063 33.5 49.3126 33.5C50.2564 33.5 51.1911 33.6859 52.0631 34.0471C52.9351 34.4083 53.7275 34.9377 54.3949 35.6052C55.0623 36.2726 55.5917 37.0649 55.9529 37.937C56.3141 38.809 56.5001 39.7436 56.5001 40.6875C56.5001 41.6314 56.3141 42.566 55.9529 43.438C55.5917 44.3101 55.0623 45.1024 54.3949 45.7698C53.7275 46.4373 52.9351 46.9667 52.0631 47.3279C51.1911 47.6891 50.2564 47.875 49.3126 47.875Z" stroke="white" stroke-width="1.5" stroke-linecap="round" stroke-linejoin="round"/>
<path d="M50.2031 41C50.2031 41.4919 49.8044 41.8906 49.3125 41.8906C48.8206 41.8906 48.4219 41.4919 48.4219 41C48.4219 40.5081 48.8206 40.1094 49.3125 40.1094C49.8044 40.1094 50.2031 40.5081 50.2031 41Z" fill="white" stroke="white" stroke-width="0.09375"/>
<path d="M46.4531 41C46.4531 41.4919 46.0544 41.8906 45.5625 41.8906C45.0706 41.8906 44.6719 41.4919 44.6719 41C44.6719 40.5081 45.0706 40.1094 45.5625 40.1094C46.0544 40.1094 46.4531 40.5081 46.4531 41Z" fill="white" stroke="white" stroke-width="0.09375"/>
<path d="M53.9531 41C53.9531 41.4919 53.5544 41.8906 53.0625 41.8906C52.5706 41.8906 52.1719 41.4919 52.1719 41C52.1719 40.5081 52.5706 40.1094 53.0625 40.1094C53.5544 40.1094 53.9531 40.5081 53.9531 41Z" fill="white" stroke="white" stroke-width="0.09375"/>
<path d="M97.625 37.4205C97.5644 36.8826 97.3144 36.4659 96.875 36.1705C96.4356 35.8712 95.8826 35.7216 95.2159 35.7216C94.7386 35.7216 94.3258 35.7973 93.9773 35.9489C93.6288 36.0966 93.358 36.3011 93.1648 36.5625C92.9754 36.8201 92.8807 37.1136 92.8807 37.4432C92.8807 37.7197 92.9451 37.9583 93.0739 38.1591C93.2064 38.3598 93.3788 38.5284 93.5909 38.6648C93.8068 38.7973 94.0379 38.9091 94.2841 39C94.5303 39.0871 94.767 39.1591 94.9943 39.2159L96.1307 39.5114C96.5019 39.6023 96.8826 39.7254 97.2727 39.8807C97.6629 40.036 98.0246 40.2405 98.358 40.4943C98.6913 40.7481 98.9602 41.0625 99.1648 41.4375C99.3731 41.8125 99.4773 42.2614 99.4773 42.7841C99.4773 43.4432 99.3068 44.0284 98.9659 44.5398C98.6288 45.0511 98.1383 45.4545 97.4943 45.75C96.8542 46.0455 96.0795 46.1932 95.1705 46.1932C94.2992 46.1932 93.5455 46.0549 92.9091 45.7784C92.2727 45.5019 91.7746 45.1098 91.4148 44.6023C91.0549 44.0909 90.8561 43.4848 90.8182 42.7841H92.5795C92.6136 43.2045 92.75 43.5549 92.9886 43.8352C93.2311 44.1117 93.5398 44.3182 93.9148 44.4545C94.2936 44.5871 94.7083 44.6534 95.1591 44.6534C95.6553 44.6534 96.0966 44.5758 96.483 44.4205C96.8731 44.2614 97.1799 44.0417 97.4034 43.7614C97.6269 43.4773 97.7386 43.1458 97.7386 42.767C97.7386 42.4223 97.6402 42.1402 97.4432 41.9205C97.25 41.7008 96.9867 41.5189 96.6534 41.375C96.3239 41.2311 95.9508 41.1042 95.5341 40.9943L94.1591 40.6193C93.2273 40.3655 92.4886 39.9924 91.9432 39.5C91.4015 39.0076 91.1307 38.3561 91.1307 37.5455C91.1307 36.875 91.3125 36.2898 91.6761 35.7898C92.0398 35.2898 92.5322 34.9015 93.1534 34.625C93.7746 34.3447 94.4754 34.2045 95.2557 34.2045C96.0436 34.2045 96.7386 34.3428 97.3409 34.6193C97.947 34.8958 98.4242 35.2765 98.7727 35.7614C99.1212 36.2424 99.303 36.7955 99.3182 37.4205H97.625ZM106.967 42.3807V37.2727H108.672V46H107.001V44.4886H106.911C106.71 44.9545 106.388 45.3428 105.945 45.6534C105.505 45.9602 104.958 46.1136 104.303 46.1136C103.742 46.1136 103.246 45.9905 102.814 45.7443C102.386 45.4943 102.049 45.125 101.803 44.6364C101.56 44.1477 101.439 43.5436 101.439 42.8239V37.2727H103.138V42.6193C103.138 43.214 103.303 43.6875 103.632 44.0398C103.962 44.392 104.39 44.5682 104.916 44.5682C105.234 44.5682 105.551 44.4886 105.865 44.3295C106.183 44.1705 106.446 43.9299 106.655 43.608C106.867 43.286 106.971 42.8769 106.967 42.3807ZM110.955 46V37.2727H112.597V38.6591H112.688C112.847 38.1894 113.127 37.8201 113.528 37.5511C113.934 37.2784 114.392 37.142 114.903 37.142C115.009 37.142 115.134 37.1458 115.278 37.1534C115.426 37.161 115.542 37.1705 115.625 37.1818V38.8068C115.557 38.7879 115.436 38.767 115.261 38.7443C115.087 38.7178 114.913 38.7045 114.739 38.7045C114.337 38.7045 113.979 38.7898 113.665 38.9602C113.354 39.1269 113.108 39.3598 112.926 39.6591C112.744 39.9545 112.653 40.2917 112.653 40.6705V46H110.955ZM124.827 37.2727L121.662 46H119.844L116.673 37.2727H118.497L120.707 43.9886H120.798L123.003 37.2727H124.827ZM129.888 46.1761C129.028 46.1761 128.287 45.9924 127.666 45.625C127.049 45.2538 126.571 44.733 126.234 44.0625C125.901 43.3883 125.734 42.5985 125.734 41.6932C125.734 40.7992 125.901 40.0114 126.234 39.3295C126.571 38.6477 127.041 38.1155 127.643 37.733C128.25 37.3504 128.958 37.1591 129.768 37.1591C130.261 37.1591 130.738 37.2405 131.2 37.4034C131.662 37.5663 132.077 37.822 132.445 38.1705C132.812 38.5189 133.102 38.9716 133.314 39.5284C133.526 40.0814 133.632 40.7538 133.632 41.5455V42.1477H126.695V40.875H131.967C131.967 40.428 131.876 40.0322 131.695 39.6875C131.513 39.339 131.257 39.0644 130.928 38.8636C130.602 38.6629 130.219 38.5625 129.78 38.5625C129.303 38.5625 128.886 38.6799 128.53 38.9148C128.178 39.1458 127.905 39.4489 127.712 39.8239C127.522 40.1951 127.428 40.5985 127.428 41.0341V42.0284C127.428 42.6117 127.53 43.108 127.734 43.517C127.943 43.9261 128.232 44.2386 128.604 44.4545C128.975 44.6667 129.409 44.7727 129.905 44.7727C130.227 44.7727 130.52 44.7273 130.786 44.6364C131.051 44.5417 131.28 44.4015 131.473 44.2159C131.666 44.0303 131.814 43.8011 131.916 43.5284L133.524 43.8182C133.395 44.2917 133.164 44.7064 132.831 45.0625C132.501 45.4148 132.087 45.6894 131.587 45.8864C131.09 46.0795 130.524 46.1761 129.888 46.1761ZM136.341 49.2727C136.087 49.2727 135.856 49.2519 135.648 49.2102C135.439 49.1723 135.284 49.1307 135.182 49.0852L135.591 47.6932C135.902 47.7765 136.178 47.8125 136.42 47.8011C136.663 47.7898 136.877 47.6989 137.062 47.5284C137.252 47.358 137.419 47.0795 137.562 46.6932L137.773 46.1136L134.58 37.2727H136.398L138.608 44.0455H138.699L140.909 37.2727H142.733L139.136 47.1648C138.97 47.6193 138.758 48.0038 138.5 48.3182C138.242 48.6364 137.936 48.875 137.58 49.0341C137.223 49.1932 136.811 49.2727 136.341 49.2727Z" fill="white"/>
</g>
<defs>
<filter id="filter0_d_4415_56977" x="0" y="0" width="227" height="98" filterUnits="userSpaceOnUse" colorInterpolationFilters="sRGB">
<feFlood floodOpacity="0" result="BackgroundImageFix"/>
<feColorMatrix in="SourceAlpha" type="matrix" values="0 0 0 0 0 0 0 0 0 0 0 0 0 0 0 0 0 0 127 0" result="hardAlpha"/>
<feOffset dy="8"/>
<feGaussianBlur stdDeviation="12"/>
<feColorMatrix type="matrix" values="0 0 0 0 0.509804 0 0 0 0 0.341176 0 0 0 0 0.898039 0 0 0 0.25 0"/>
<feBlend mode="normal" in2="BackgroundImageFix" result="effect1_dropShadow_4415_56977"/>
<feBlend mode="normal" in="SourceGraphic" in2="effect1_dropShadow_4415_56977" result="shape"/>
</filter>
<linearGradient id="paint0_linear_4415_56977" x1="-145.411" y1="19.2353" x2="-140.963" y2="140.52" gradientUnits="userSpaceOnUse">
<stop stopColor="#073B3A"/>
<stop offset="1" stopColor="#1B9E9C" stop-opacity="0.37"/>
</linearGradient>
<linearGradient id="paint1_linear_4415_56977" x1="-23.3214" y1="19.2353" x2="-7.64891" y2="138.625" gradientUnits="userSpaceOnUse">
<stop stopColor="#073B3A"/>
<stop offset="1" stopColor="#1B9E9C" stop-opacity="0.37"/>
</linearGradient>
</defs>
</svg>
