<svg width="41" height="41" viewBox="0 0 41 41" fill="none" xmlns="http://www.w3.org/2000/svg">
<path d="M38.1 20.916C38.1 19.616 37.9833 18.366 37.7667 17.166H20.5V24.2577H30.3667C29.9417 26.5493 28.65 28.491 26.7083 29.791V34.391H32.6333C36.1 31.1993 38.1 26.4993 38.1 20.916Z" fill="#4285F4"/>
<path d="M20.5005 38.8324C25.4505 38.8324 29.6005 37.1908 32.6339 34.3908L26.7089 29.7908C25.0672 30.8908 22.9672 31.5408 20.5005 31.5408C15.7255 31.5408 11.6839 28.3158 10.2422 23.9824H4.11719V28.7324C7.13385 34.7241 13.3339 38.8324 20.5005 38.8324Z" fill="#34A853"/>
<path d="M10.241 23.9842C9.87435 22.8842 9.66602 21.7092 9.66602 20.5009C9.66602 19.2926 9.87435 18.1176 10.241 17.0176V12.2676H4.11602C2.83268 14.8223 2.16488 17.6419 2.16602 20.5009C2.16602 23.4592 2.87435 26.2592 4.11602 28.7342L10.241 23.9842Z" fill="#FBBC05"/>
<path d="M20.5005 9.45768C23.1922 9.45768 25.6089 10.3827 27.5089 12.1993L32.7672 6.94102C29.5922 3.98268 25.4422 2.16602 20.5005 2.16602C13.3339 2.16602 7.13385 6.27435 4.11719 12.266L10.2422 17.016C11.6839 12.6827 15.7255 9.45768 20.5005 9.45768Z" fill="#EA4335"/>
</svg>
