<svg width="25" height="24" viewBox="0 0 25 24" fill="none" xmlns="http://www.w3.org/2000/svg">
<path d="M4.49976 20C3.94976 20 3.47876 19.804 3.08676 19.412C2.69476 19.02 2.49909 18.5493 2.49976 18V6C2.49976 5.45 2.69576 4.979 3.08776 4.587C3.47976 4.195 3.95042 3.99934 4.49976 4H20.4998C21.0498 4 21.5208 4.196 21.9128 4.588C22.3048 4.98 22.5004 5.45067 22.4998 6V18C22.4998 18.55 22.3038 19.021 21.9118 19.413C21.5198 19.805 21.0491 20.0007 20.4998 20H4.49976ZM12.4998 13L20.4998 8V6L12.4998 11L4.49976 6V8L12.4998 13Z" fill="white"/>
</svg>
