<svg width="28" height="33" viewBox="0 0 28 33" fill="none" xmlns="http://www.w3.org/2000/svg">
<g clipPath="url(#clip0_201_4377)">
<path d="M16 30.5L9.82401 27.207C8.06334 26.2703 6.59097 24.8719 5.56493 23.1617C4.53888 21.4516 3.99789 19.4943 4.00001 17.5V4.5C4.00054 3.96973 4.21142 3.46133 4.58638 3.08637C4.96134 2.71141 5.46974 2.50053 6.00001 2.5H26C26.5303 2.50053 27.0387 2.71141 27.4136 3.08637C27.7886 3.46133 27.9995 3.96973 28 4.5V17.5C28.0021 19.4943 27.4611 21.4516 26.4351 23.1617C25.409 24.8719 23.9367 26.2703 22.176 27.207L16 30.5ZM6.00001 4.5V17.5C5.99835 19.1318 6.44111 20.7333 7.28077 22.1325C8.12043 23.5317 9.32528 24.6758 10.766 25.442L16 28.233L21.234 25.443C22.6749 24.6767 23.8798 23.5324 24.7195 22.133C25.5592 20.7336 26.0018 19.132 26 17.5V4.5H6.00001Z" fill="#F1B346"/>
<path d="M16 25.777V6.5H24V17.305C23.9999 18.5725 23.6557 19.8162 23.0041 20.9034C22.3524 21.9906 21.4178 22.8805 20.3 23.478L16 25.777Z" fill="#F1B346"/>
</g>
<defs>
<clipPath id="clip0_201_4377">
<rect width="28" height="32" fill="white" transform="translate(0 0.5)"/>
</clipPath>
</defs>
</svg>
