<svg width="13" height="24" viewBox="0 0 13 24" fill="none" xmlns="http://www.w3.org/2000/svg">
<path d="M8.4996 1.125C8.4996 0.779297 8.05275 0.5 7.49965 0.5C6.94656 0.5 6.49971 0.779297 6.49971 1.125V1.80273C3.66238 2.09961 1.5 3.64258 1.5 5.5C1.5 7.35742 3.66238 8.90039 6.49971 9.19726V9.875C6.49971 10.2207 6.94656 10.5 7.49965 10.5C8.05275 10.5 8.4996 10.2207 8.4996 9.875V9.19726C9.46517 9.0957 10.3495 8.85156 11.0994 8.49805C11.54 8.29102 11.6307 7.89844 11.2994 7.62305C10.9682 7.34766 10.3401 7.29101 9.89952 7.49805C9.48704 7.69141 9.01519 7.83594 8.4996 7.91992V3.07812C9.01207 3.16016 9.48704 3.30469 9.89952 3.5C10.3401 3.70703 10.9682 3.65234 11.2994 3.375C11.6307 3.09766 11.5432 2.70703 11.0994 2.5C10.3495 2.14844 9.46204 1.90234 8.4996 1.80078V1.125ZM6.49971 3.07812V7.92188C4.77481 7.64453 3.49988 6.66602 3.49988 5.5C3.49988 4.33398 4.77481 3.35547 6.49971 3.07812Z" fill="#300F0F"/>
<g clip-path="url(#clip0_278_1260)">
<path d="M-1.82651e-07 19.0892L0 14.9106L6.5 19.5535L13 14.9106L13 19.0892L6.5 23.7321L-1.82651e-07 19.0892Z" fill="#363C91"/>
<path d="M-1.79447e-07 14.6053L0 10.5L6.5 15.0614L13 10.5L13 14.6053L6.5 19.1667L-1.79447e-07 14.6053Z" fill="#363C91"/>
</g>
<defs>
<clipPath id="clip0_278_1260">
<rect width="13" height="13" fill="white" transform="translate(0 10.5)"/>
</clipPath>
</defs>
</svg>
