<svg width="147" height="42" viewBox="0 0 147 42" fill="none" xmlns="http://www.w3.org/2000/svg">
<rect width="147" height="42" rx="8" fill="#DDB771"/>
<path d="M27.41 26V15.5H29.015L35.6 23.585H34.805V15.5H36.74V26H35.135L28.55 17.915H29.345V26H27.41ZM42.9736 26.105C42.1536 26.105 41.4236 25.93 40.7836 25.58C40.1436 25.22 39.6386 24.73 39.2686 24.11C38.8986 23.49 38.7136 22.785 38.7136 21.995C38.7136 21.195 38.8986 20.49 39.2686 19.88C39.6386 19.26 40.1436 18.775 40.7836 18.425C41.4236 18.075 42.1536 17.9 42.9736 17.9C43.8036 17.9 44.5386 18.075 45.1786 18.425C45.8286 18.775 46.3336 19.255 46.6936 19.865C47.0636 20.475 47.2486 21.185 47.2486 21.995C47.2486 22.785 47.0636 23.49 46.6936 24.11C46.3336 24.73 45.8286 25.22 45.1786 25.58C44.5386 25.93 43.8036 26.105 42.9736 26.105ZM42.9736 24.5C43.4336 24.5 43.8436 24.4 44.2036 24.2C44.5636 24 44.8436 23.71 45.0436 23.33C45.2536 22.95 45.3586 22.505 45.3586 21.995C45.3586 21.475 45.2536 21.03 45.0436 20.66C44.8436 20.28 44.5636 19.99 44.2036 19.79C43.8436 19.59 43.4386 19.49 42.9886 19.49C42.5286 19.49 42.1186 19.59 41.7586 19.79C41.4086 19.99 41.1286 20.28 40.9186 20.66C40.7086 21.03 40.6036 21.475 40.6036 21.995C40.6036 22.505 40.7086 22.95 40.9186 23.33C41.1286 23.71 41.4086 24 41.7586 24.2C42.1186 24.4 42.5236 24.5 42.9736 24.5ZM52.0565 26.105C51.1765 26.105 50.4965 25.88 50.0165 25.43C49.5365 24.97 49.2965 24.295 49.2965 23.405V16.22H51.1715V23.36C51.1715 23.74 51.2665 24.035 51.4565 24.245C51.6565 24.455 51.9315 24.56 52.2815 24.56C52.7015 24.56 53.0515 24.45 53.3315 24.23L53.8565 25.565C53.6365 25.745 53.3665 25.88 53.0465 25.97C52.7265 26.06 52.3965 26.105 52.0565 26.105ZM47.9765 19.55V18.05H53.3165V19.55H47.9765ZM62.8295 26L58.2395 15.5H60.3545L64.4495 24.995H63.2345L67.3745 15.5H69.3245L64.7495 26H62.8295ZM73.4169 26.105C72.5269 26.105 71.7469 25.93 71.0769 25.58C70.4169 25.22 69.9019 24.73 69.5319 24.11C69.1719 23.49 68.9919 22.785 68.9919 21.995C68.9919 21.195 69.1669 20.49 69.5169 19.88C69.8769 19.26 70.3669 18.775 70.9869 18.425C71.6169 18.075 72.3319 17.9 73.1319 17.9C73.9119 17.9 74.6069 18.07 75.2169 18.41C75.8269 18.75 76.3069 19.23 76.6569 19.85C77.0069 20.47 77.1819 21.2 77.1819 22.04C77.1819 22.12 77.1769 22.21 77.1669 22.31C77.1669 22.41 77.1619 22.505 77.1519 22.595H70.4769V21.35H76.1619L75.4269 21.74C75.4369 21.28 75.3419 20.875 75.1419 20.525C74.9419 20.175 74.6669 19.9 74.3169 19.7C73.9769 19.5 73.5819 19.4 73.1319 19.4C72.6719 19.4 72.2669 19.5 71.9169 19.7C71.5769 19.9 71.3069 20.18 71.1069 20.54C70.9169 20.89 70.8219 21.305 70.8219 21.785V22.085C70.8219 22.565 70.9319 22.99 71.1519 23.36C71.3719 23.73 71.6819 24.015 72.0819 24.215C72.4819 24.415 72.9419 24.515 73.4619 24.515C73.9119 24.515 74.3169 24.445 74.6769 24.305C75.0369 24.165 75.3569 23.945 75.6369 23.645L76.6419 24.8C76.2819 25.22 75.8269 25.545 75.2769 25.775C74.7369 25.995 74.1169 26.105 73.4169 26.105ZM78.9829 26V17.99H80.7679V20.195L80.5579 19.55C80.7979 19.01 81.1729 18.6 81.6829 18.32C82.2029 18.04 82.8479 17.9 83.6179 17.9V19.685C83.5379 19.665 83.4629 19.655 83.3929 19.655C83.3229 19.645 83.2529 19.64 83.1829 19.64C82.4729 19.64 81.9079 19.85 81.4879 20.27C81.0679 20.68 80.8579 21.295 80.8579 22.115V26H78.9829ZM85.2085 26V17.99H87.0835V26H85.2085ZM86.1535 16.67C85.8035 16.67 85.5135 16.56 85.2835 16.34C85.0635 16.12 84.9535 15.855 84.9535 15.545C84.9535 15.225 85.0635 14.96 85.2835 14.75C85.5135 14.53 85.8035 14.42 86.1535 14.42C86.5035 14.42 86.7885 14.525 87.0085 14.735C87.2385 14.935 87.3535 15.19 87.3535 15.5C87.3535 15.83 87.2435 16.11 87.0235 16.34C86.8035 16.56 86.5135 16.67 86.1535 16.67ZM89.7995 26V17.54C89.7995 16.7 90.0445 16.03 90.5345 15.53C91.0345 15.02 91.7445 14.765 92.6645 14.765C92.9945 14.765 93.3045 14.8 93.5945 14.87C93.8945 14.94 94.1445 15.05 94.3445 15.2L93.8345 16.61C93.6945 16.5 93.5345 16.42 93.3545 16.37C93.1745 16.31 92.9895 16.28 92.7995 16.28C92.4095 16.28 92.1145 16.39 91.9145 16.61C91.7145 16.82 91.6145 17.14 91.6145 17.57V18.47L91.6745 19.31V26H89.7995ZM88.4795 19.55V18.05H93.8195V19.55H88.4795ZM95.1395 26V17.99H97.0145V26H95.1395ZM96.0845 16.67C95.7345 16.67 95.4445 16.56 95.2145 16.34C94.9945 16.12 94.8845 15.855 94.8845 15.545C94.8845 15.225 94.9945 14.96 95.2145 14.75C95.4445 14.53 95.7345 14.42 96.0845 14.42C96.4345 14.42 96.7195 14.525 96.9395 14.735C97.1695 14.935 97.2845 15.19 97.2845 15.5C97.2845 15.83 97.1745 16.11 96.9545 16.34C96.7345 16.56 96.4445 16.67 96.0845 16.67ZM103.241 26.105C102.351 26.105 101.571 25.93 100.901 25.58C100.241 25.22 99.7261 24.73 99.3561 24.11C98.9961 23.49 98.8161 22.785 98.8161 21.995C98.8161 21.195 98.9911 20.49 99.3411 19.88C99.7011 19.26 100.191 18.775 100.811 18.425C101.441 18.075 102.156 17.9 102.956 17.9C103.736 17.9 104.431 18.07 105.041 18.41C105.651 18.75 106.131 19.23 106.481 19.85C106.831 20.47 107.006 21.2 107.006 22.04C107.006 22.12 107.001 22.21 106.991 22.31C106.991 22.41 106.986 22.505 106.976 22.595H100.301V21.35H105.986L105.251 21.74C105.261 21.28 105.166 20.875 104.966 20.525C104.766 20.175 104.491 19.9 104.141 19.7C103.801 19.5 103.406 19.4 102.956 19.4C102.496 19.4 102.091 19.5 101.741 19.7C101.401 19.9 101.131 20.18 100.931 20.54C100.741 20.89 100.646 21.305 100.646 21.785V22.085C100.646 22.565 100.756 22.99 100.976 23.36C101.196 23.73 101.506 24.015 101.906 24.215C102.306 24.415 102.766 24.515 103.286 24.515C103.736 24.515 104.141 24.445 104.501 24.305C104.861 24.165 105.181 23.945 105.461 23.645L106.466 24.8C106.106 25.22 105.651 25.545 105.101 25.775C104.561 25.995 103.941 26.105 103.241 26.105ZM112.197 26.105C111.427 26.105 110.732 25.935 110.112 25.595C109.502 25.245 109.022 24.765 108.672 24.155C108.322 23.545 108.147 22.825 108.147 21.995C108.147 21.165 108.322 20.445 108.672 19.835C109.022 19.225 109.502 18.75 110.112 18.41C110.732 18.07 111.427 17.9 112.197 17.9C112.867 17.9 113.467 18.05 113.997 18.35C114.527 18.64 114.947 19.085 115.257 19.685C115.567 20.285 115.722 21.055 115.722 21.995C115.722 22.925 115.572 23.695 115.272 24.305C114.972 24.905 114.557 25.355 114.027 25.655C113.497 25.955 112.887 26.105 112.197 26.105ZM112.422 24.5C112.872 24.5 113.272 24.4 113.622 24.2C113.982 24 114.267 23.71 114.477 23.33C114.697 22.95 114.807 22.505 114.807 21.995C114.807 21.475 114.697 21.03 114.477 20.66C114.267 20.28 113.982 19.99 113.622 19.79C113.272 19.59 112.872 19.49 112.422 19.49C111.972 19.49 111.567 19.59 111.207 19.79C110.857 19.99 110.572 20.28 110.352 20.66C110.142 21.03 110.037 21.475 110.037 21.995C110.037 22.505 110.142 22.95 110.352 23.33C110.572 23.71 110.857 24 111.207 24.2C111.567 24.4 111.972 24.5 112.422 24.5ZM114.852 26V24.11L114.927 21.98L114.777 19.85V14.87H116.637V26H114.852Z" fill="#472535"/>
</svg>
