<svg width="48" height="46" viewBox="0 0 48 46" fill="none" xmlns="http://www.w3.org/2000/svg">
<rect x="13" y="13" width="22" height="27" rx="8" fill="white"/>
<path d="M22.0749 2.60699L8.26576 8.56783C6.8454 9.18116 5.91821 10.5612 5.91821 12.0753V21.0837C5.91821 31.7212 13.4935 41.6687 23.6728 44.0837C33.8521 41.6687 41.4274 31.7212 41.4274 21.0837V12.0753C41.4274 10.5612 40.5002 9.18116 39.0798 8.56783L25.2707 2.60699C24.2646 2.16616 23.081 2.16616 22.0749 2.60699ZM18.3267 31.2228L13.2173 26.2587C13.0347 26.0812 12.8898 25.8705 12.791 25.6387C12.6921 25.4069 12.6412 25.1584 12.6412 24.9074C12.6412 24.6565 12.6921 24.408 12.791 24.1761C12.8898 23.9443 13.0347 23.7336 13.2173 23.5562C13.4 23.3787 13.6168 23.238 13.8554 23.1419C14.094 23.0459 14.3498 22.9965 14.6081 22.9965C14.8664 22.9965 15.1221 23.0459 15.3608 23.1419C15.5994 23.238 15.8162 23.3787 15.9989 23.5562L19.7273 27.1595L31.327 15.8895C31.5096 15.712 31.7264 15.5713 31.9651 15.4753C32.2037 15.3792 32.4595 15.3298 32.7177 15.3298C32.976 15.3298 33.2318 15.3792 33.4704 15.4753C33.7091 15.5713 33.9259 15.712 34.1085 15.8895C34.2912 16.0669 34.436 16.2776 34.5349 16.5095C34.6337 16.7413 34.6846 16.9898 34.6846 17.2407C34.6846 17.4917 34.6337 17.7402 34.5349 17.972C34.436 18.2039 34.2912 18.4145 34.1085 18.592L21.1082 31.2228C20.9257 31.4005 20.7089 31.5415 20.4703 31.6377C20.2317 31.7338 19.9758 31.7833 19.7175 31.7833C19.4591 31.7833 19.2033 31.7338 18.9646 31.6377C18.726 31.5415 18.5092 31.4005 18.3267 31.2228Z" fill="#0B6E4F"/>
</svg>
