<svg width="41" height="41" viewBox="0 0 41 41" fill="none" xmlns="http://www.w3.org/2000/svg">
<g clipPath="url(#clip0_5142_2350)">
<path d="M40.5 30.3493C40.5 30.5685 40.4932 31.0411 40.4795 31.411C40.4452 32.3082 40.3767 33.4658 40.2671 33.9931C40.1027 34.7877 39.863 35.5342 39.5411 36.1575C39.1644 36.8973 38.6849 37.5548 38.1096 38.1233C37.5411 38.6918 36.8836 39.1712 36.1438 39.5479C35.5205 39.8699 34.7671 40.1096 33.9658 40.274C33.4452 40.3767 32.2945 40.4521 31.4041 40.4795C31.0342 40.4932 30.5616 40.5 30.3425 40.5H10.6438C10.4247 40.5 9.95205 40.4932 9.58219 40.4795C8.68493 40.4452 7.5274 40.3767 7 40.2671C6.20548 40.1027 5.4589 39.863 4.83562 39.5411C4.09589 39.1644 3.43836 38.6849 2.86986 38.1096C2.30137 37.5411 1.82192 36.8836 1.44521 36.1438C1.12329 35.5205 0.883562 34.7671 0.719178 33.9658C0.616438 33.4452 0.541096 32.2945 0.513699 31.4041C0.506849 31.0411 0.5 30.5685 0.5 30.3493V10.6507C0.5 10.4315 0.506849 9.9589 0.520548 9.58904C0.554795 8.69178 0.623288 7.53425 0.732877 7.00685C0.89726 6.21233 1.13699 5.46575 1.4589 4.84247C1.83562 4.10274 2.31507 3.44521 2.88356 2.87671C3.45205 2.30822 4.10959 1.82877 4.84932 1.45205C5.4726 1.13014 6.22603 0.890411 7.0274 0.726027C7.54795 0.623288 8.69863 0.547945 9.58904 0.520548C9.9589 0.506849 10.4315 0.5 10.6507 0.5H30.3493C30.5685 0.5 31.0411 0.506849 31.411 0.520548C32.3082 0.554795 33.4658 0.623288 33.9931 0.732877C34.7877 0.89726 35.5342 1.13699 36.1575 1.4589C36.8973 1.83562 37.5548 2.31507 38.1233 2.89041C38.6918 3.4589 39.1712 4.11644 39.5479 4.85616C39.8699 5.47945 40.1096 6.23288 40.274 7.03425C40.3767 7.55479 40.4521 8.70548 40.4795 9.59589C40.4932 9.96575 40.5 10.4384 40.5 10.6575V30.3493Z" fill="url(#paint0_linear_5142_2350)"/>
<path fill-rule="evenodd" clip-rule="evenodd" d="M31.0204 10.0765C28.3287 7.38474 24.7465 5.89844 20.9314 5.89844C13.0684 5.89844 6.67797 12.2957 6.67113 20.1519C6.67113 22.6656 7.32866 25.1176 8.57524 27.2751L6.55469 34.6656L14.1163 32.6861C16.1985 33.8231 18.541 34.419 20.9314 34.419H20.9382C28.7944 34.419 35.1917 28.0217 35.1985 20.1656C35.1985 16.3505 33.7122 12.7683 31.0204 10.0765ZM20.9382 32.008C18.8081 32.008 16.7191 31.4327 14.904 30.3573L14.4725 30.1039L9.98619 31.282L11.1848 26.9121L10.904 26.4669C9.71907 24.5834 9.08893 22.3984 9.08893 20.1587C9.08893 13.6245 14.4109 8.3094 20.9451 8.3094C24.1095 8.3094 27.0889 9.54227 29.3218 11.782C31.5615 14.0217 32.7944 17.0012 32.7876 20.1656C32.7807 26.693 27.4656 32.008 20.9382 32.008ZM27.4382 23.1382C27.0821 22.9601 25.3287 22.0971 25.0067 21.9806C24.678 21.8642 24.4451 21.8025 24.2054 22.1587C23.9656 22.5149 23.2876 23.3162 23.0752 23.556C22.8698 23.7957 22.6574 23.8231 22.3013 23.645C21.9451 23.4669 20.7944 23.0902 19.4382 21.8779C18.3766 20.9327 17.6643 19.7683 17.4588 19.4121C17.2533 19.056 17.4382 18.8642 17.6163 18.6861C17.7739 18.5286 17.9725 18.2683 18.1506 18.0628C18.3287 17.8573 18.3903 17.7067 18.5067 17.4669C18.6232 17.2272 18.5684 17.0217 18.4793 16.8436C18.3903 16.6656 17.678 14.9121 17.3835 14.1998C17.0958 13.508 16.8013 13.5971 16.5821 13.5902C16.3766 13.5765 16.1369 13.5765 15.8972 13.5765C15.6574 13.5765 15.2739 13.6656 14.9451 14.0217C14.6163 14.3779 13.6985 15.2409 13.6985 16.9943C13.6985 18.7478 14.9725 20.4395 15.1506 20.6793C15.3287 20.919 17.6643 24.5149 21.2396 26.056C22.0889 26.4258 22.7533 26.645 23.2739 26.8094C24.13 27.0834 24.904 27.0423 25.5204 26.9532C26.2054 26.8505 27.63 26.0902 27.9246 25.2615C28.2191 24.4327 28.2191 23.7135 28.13 23.5697C28.0273 23.4053 27.7944 23.3162 27.4382 23.1382Z" fill="white"/>
</g>
<defs>
<linearGradient id="paint0_linear_5142_2350" x1="20.5015" y1="40.5031" x2="20.5015" y2="0.5" gradientUnits="userSpaceOnUse">
<stop stop-color="#25CF43"/>
<stop offset="1" stop-color="#61FD7D"/>
</linearGradient>
<clipPath id="clip0_5142_2350">
<rect width="40" height="40" fill="white" transform="translate(0.5 0.5)"/>
</clipPath>
</defs>
</svg>
