<svg width="103" height="103" viewBox="0 0 103 103" fill="none" xmlns="http://www.w3.org/2000/svg">
<path d="M77.125 0.25H25.875C11.73 0.25 0.25 11.6788 0.25 25.7725V61.545C0.25 75.6387 11.73 87.0675 25.875 87.0675H33.5625C34.9463 87.0675 36.7913 87.99 37.6625 89.1175L45.35 99.3162C48.7325 103.826 54.2675 103.826 57.65 99.3162L65.3375 89.1175C66.3112 87.8363 67.8487 87.0675 69.4375 87.0675H77.125C91.27 87.0675 102.75 75.6387 102.75 61.545V25.7725C102.75 11.6788 91.27 0.25 77.125 0.25ZM31 51.5C28.13 51.5 25.875 49.1937 25.875 46.375C25.875 43.5563 28.1812 41.25 31 41.25C33.8187 41.25 36.125 43.5563 36.125 46.375C36.125 49.1937 33.87 51.5 31 51.5ZM51.5 51.5C48.63 51.5 46.375 49.1937 46.375 46.375C46.375 43.5563 48.6813 41.25 51.5 41.25C54.3187 41.25 56.625 43.5563 56.625 46.375C56.625 49.1937 54.37 51.5 51.5 51.5ZM72 51.5C69.13 51.5 66.875 49.1937 66.875 46.375C66.875 43.5563 69.1813 41.25 72 41.25C74.8187 41.25 77.125 43.5563 77.125 46.375C77.125 49.1937 74.87 51.5 72 51.5Z" fill="#396261"/>
</svg>
