<svg width="34" height="34" viewBox="0 0 34 34" fill="none" xmlns="http://www.w3.org/2000/svg">
<path d="M28.1313 10.5992L12.4379 2.75256C1.89626 -2.52744 -2.43041 1.79923 2.84959 12.3409L4.44459 15.5309C4.90293 16.4659 4.90293 17.5476 4.44459 18.4826L2.84959 21.6542C-2.43041 32.1959 1.87792 36.5226 12.4379 31.2426L28.1313 23.3959C35.1713 19.8759 35.1713 14.1192 28.1313 10.5992ZM22.2096 18.3726H12.3096C11.5579 18.3726 10.9346 17.7492 10.9346 16.9976C10.9346 16.2459 11.5579 15.6226 12.3096 15.6226H22.2096C22.9613 15.6226 23.5846 16.2459 23.5846 16.9976C23.5846 17.7492 22.9613 18.3726 22.2096 18.3726Z" fill="#DDB771"/>
</svg>
