<svg width="22" height="22" viewBox="0 0 22 22" fill="none" xmlns="http://www.w3.org/2000/svg">
<path d="M22.0023 10.7684C22.0023 4.82098 17.181 -0.000339506 11.2336 -0.000339506C5.28617 -0.000339507 0.464844 4.82098 0.464844 10.7684C0.464844 16.7158 5.28617 21.5371 11.2336 21.5371C17.181 21.5371 22.0023 16.7158 22.0023 10.7684Z" fill="#3B429F"/>
<path d="M12.208 11.5782L13.4792 11.5782L13.9877 9.54424L12.208 9.54424L12.208 8.52723C12.208 8.00347 12.208 7.51023 13.225 7.51023L13.9877 7.51023L13.9877 5.80166C13.8219 5.77979 13.196 5.73047 12.5349 5.73047C11.1543 5.73047 10.1739 6.57306 10.1739 8.12043L10.1739 9.54424L8.64844 9.54424L8.64844 11.5782L10.1739 11.5782L10.1739 15.9005L12.208 15.9005L12.208 11.5782Z" fill="#ECECED"/>
</svg>
