<svg width="23" height="22" viewBox="0 0 23 22" fill="none" xmlns="http://www.w3.org/2000/svg">
<path d="M22.4632 10.7684C22.4632 4.82098 17.6419 -0.000339506 11.6945 -0.000339506C5.7471 -0.000339507 0.925781 4.82098 0.925781 10.7684C0.925781 16.7158 5.7471 21.5371 11.6945 21.5371C17.6419 21.5371 22.4632 16.7158 22.4632 10.7684Z" fill="url(#paint0_radial_10737_118204)"/>
<g clip-path="url(#clip0_10737_118204)">
<rect width="12.2046" height="12.2046" transform="matrix(1 1.5191e-10 -1.51385e-10 -1 5.66797 16.9023)" fill="url(#paint1_radial_10737_118204)"/>
<path d="M15.0121 16.8906L8.52842 16.8906C6.94864 16.8906 5.66797 15.61 5.66797 14.0302L5.66797 7.54648C5.66797 5.96669 6.94864 4.68602 8.52842 4.68602L15.0121 4.68602C16.5919 4.68602 17.8726 5.96669 17.8726 7.54648L17.8726 14.0302C17.8726 15.61 16.5919 16.8906 15.0121 16.8906Z" fill="url(#paint2_radial_10737_118204)"/>
<path d="M15.0121 16.8906L8.52842 16.8906C6.94864 16.8906 5.66797 15.61 5.66797 14.0302L5.66797 7.54648C5.66797 5.96669 6.94864 4.68602 8.52842 4.68602L15.0121 4.68602C16.5919 4.68602 17.8726 5.96669 17.8726 7.54648L17.8726 14.0302C17.8726 15.61 16.5919 16.8906 15.0121 16.8906Z" fill="url(#paint3_radial_10737_118204)"/>
<path d="M11.7718 15.5566C10.477 15.5566 10.3145 15.551 9.80601 15.5278C9.29847 15.5046 8.95202 15.4242 8.64891 15.3064C8.3353 15.1846 8.06933 15.0217 7.80436 14.7566C7.53914 14.4916 7.37624 14.2256 7.2541 13.9122C7.13587 13.609 7.05544 13.2624 7.03261 12.7551C7.00987 12.2465 7.00391 12.084 7.00391 10.7892C7.00391 9.49439 7.00963 9.33239 7.0327 8.8239C7.05606 8.31636 7.13639 7.96991 7.2542 7.66679C7.37605 7.35319 7.53895 7.08722 7.80402 6.82224C8.06895 6.55703 8.33492 6.39375 8.64829 6.27199C8.95164 6.15409 9.29813 6.07376 9.80558 6.0505C10.3141 6.02737 10.4765 6.0217 11.7712 6.0217C13.0661 6.0217 13.2281 6.02737 13.7366 6.0505C14.2441 6.07376 14.5909 6.15409 14.8943 6.27199C15.2077 6.39375 15.4733 6.55703 15.7382 6.82224C16.0034 7.08722 16.1663 7.35319 16.2885 7.66665C16.4056 7.96991 16.4861 8.31645 16.51 8.8238C16.5328 9.33229 16.5388 9.49439 16.5388 10.7892C16.5388 12.084 16.5328 12.2464 16.51 12.755C16.4861 13.2625 16.4056 13.6089 16.2885 13.912C16.1663 14.2256 16.0034 14.4916 15.7382 14.7566C15.473 15.0218 15.2078 15.1847 14.894 15.3063C14.5901 15.4242 14.2434 15.5046 13.7359 15.5278C13.2273 15.551 13.0654 15.5566 11.7703 15.5566L11.7718 15.5566ZM11.3441 14.6975C11.471 14.6977 11.6127 14.6975 11.7718 14.6975C13.0447 14.6975 13.1955 14.6929 13.6982 14.6701C14.163 14.6488 14.4153 14.5712 14.5834 14.5059C14.8059 14.4195 14.9645 14.3162 15.1313 14.1493C15.2981 13.9824 15.4014 13.8235 15.488 13.601C15.5533 13.4332 15.631 13.1809 15.6522 12.7161C15.675 12.2135 15.68 12.0626 15.68 10.7903C15.68 9.51794 15.675 9.36695 15.6522 8.86442C15.6309 8.3996 15.5533 8.1473 15.488 7.97944C15.4016 7.75695 15.2981 7.59852 15.1313 7.43176C14.9644 7.2649 14.806 7.16164 14.5834 7.0752C14.4155 7.00965 14.163 6.93218 13.6982 6.91092C13.1956 6.88808 13.0447 6.88313 11.7718 6.88313C10.4988 6.88313 10.3479 6.88808 9.84534 6.91092C9.38051 6.93237 9.12822 7.01003 8.96003 7.0753C8.73758 7.16173 8.57863 7.265 8.41177 7.43186C8.24491 7.59872 8.14165 7.75723 8.05503 7.97982C7.98976 8.14768 7.912 8.39998 7.89084 8.8648C7.868 9.36738 7.86342 9.51832 7.86342 10.7915C7.86342 12.0646 7.868 12.2147 7.89084 12.7173C7.9121 13.1821 7.98976 13.4344 8.05503 13.6025C8.14146 13.825 8.24491 13.9839 8.41182 14.1507C8.57868 14.3176 8.73758 14.4209 8.96008 14.5075C9.12813 14.573 9.38051 14.6505 9.84534 14.6719C10.2851 14.6917 10.4556 14.6977 11.3441 14.6987L11.3441 14.6975ZM14.3166 13.9059C14.0008 13.9059 13.7445 13.6499 13.7445 13.334C13.7445 13.0182 14.0008 12.7619 14.3166 12.7619C14.6325 12.7619 14.8887 13.0182 14.8887 13.334C14.8887 13.6499 14.6325 13.9061 14.3166 13.9061L14.3166 13.9059ZM11.7718 13.2375C10.4197 13.2375 9.3235 12.1413 9.3235 10.7892C9.3235 9.43708 10.4197 8.34138 11.7718 8.34138C13.1238 8.34138 14.2197 9.43708 14.2197 10.7892C14.2197 12.1412 13.1238 13.2375 11.7717 13.2375L11.7718 13.2375ZM11.7718 12.3783C12.6494 12.3783 13.3609 11.6669 13.3609 10.7892C13.3609 9.91153 12.6494 9.2 11.7718 9.2C10.8941 9.2 10.1826 9.91153 10.1826 10.7892C10.1826 11.6669 10.8941 12.3783 11.7718 12.3783Z" fill="white"/>
</g>
<defs>
<radialGradient id="paint0_radial_10737_118204" cx="0" cy="0" r="1" gradientUnits="userSpaceOnUse" gradientTransform="translate(6.64667 -1.65914) rotate(90) scale(21.3452 19.8527)">
<stop stop-color="#FFDD55"/>
<stop offset="0.1" stop-color="#FFDD55"/>
<stop offset="0.5" stop-color="#FF543E"/>
<stop offset="0.921875" stop-color="#C837AB"/>
</radialGradient>
<radialGradient id="paint1_radial_10737_118204" cx="0" cy="0" r="1" gradientUnits="userSpaceOnUse" gradientTransform="translate(3.24185 13.1446) rotate(-90) scale(12.0957 11.2499)">
<stop stop-color="#FFDD55"/>
<stop offset="0.1" stop-color="#FFDD55"/>
<stop offset="0.5" stop-color="#FF543E"/>
<stop offset="0.921875" stop-color="#C837AB"/>
</radialGradient>
<radialGradient id="paint2_radial_10737_118204" cx="0" cy="0" r="1" gradientUnits="userSpaceOnUse" gradientTransform="translate(8.90982 3.74603) rotate(90) scale(12.0957 11.2499)">
<stop stop-color="#FFDD55"/>
<stop offset="0.1" stop-color="#FFDD55"/>
<stop offset="0.5" stop-color="#FF543E"/>
<stop offset="0.921875" stop-color="#C837AB"/>
</radialGradient>
<radialGradient id="paint3_radial_10737_118204" cx="0" cy="0" r="1" gradientUnits="userSpaceOnUse" gradientTransform="translate(3.62365 16.0115) rotate(-78.681) scale(5.40683 22.2871)">
<stop stop-color="#3771C8"/>
<stop offset="0.128" stop-color="#3771C8"/>
<stop offset="1" stop-color="#6600FF" stop-opacity="0"/>
</radialGradient>
<clipPath id="clip0_10737_118204">
<rect width="12.2046" height="12.2046" fill="white" transform="matrix(1 1.5191e-10 -1.51385e-10 -1 5.66797 16.9023)"/>
</clipPath>
</defs>
</svg>
