<svg width="519" height="509" viewBox="0 0 519 509" fill="none" xmlns="http://www.w3.org/2000/svg">
<g clipPath="url(#clip0_5665_85994)" filter="url(#filter0_d_5665_85994)">
<path d="M367.193 499.281C363.527 499.278 359.921 498.218 356.709 496.2L58.4516 309.883C53.3579 306.692 49.5801 301.324 47.9471 294.956C46.314 288.588 46.9592 281.74 49.7409 275.914L175.608 13.031C176.988 10.1472 178.853 7.60236 181.094 5.54166C183.336 3.48095 185.911 1.94479 188.673 1.02087C191.434 0.0969582 194.328 -0.196613 197.189 0.156924C200.05 0.51046 202.822 1.50418 205.346 3.08134L503.604 189.399C508.698 192.589 512.476 197.958 514.109 204.326C515.742 210.694 515.097 217.542 512.315 223.367L386.448 486.251C385.074 489.14 383.211 491.689 380.969 493.75C378.726 495.812 376.148 497.345 373.383 498.261C371.373 498.936 369.288 499.28 367.193 499.281ZM358.512 492.436C362.736 495.075 367.706 495.689 372.327 494.143C376.948 492.597 380.842 489.017 383.152 484.192L509.019 221.309C511.324 216.482 511.858 210.808 510.505 205.531C509.152 200.255 506.022 195.807 501.802 193.163L203.544 6.84542C199.319 4.20648 194.35 3.59253 189.729 5.13862C185.108 6.68472 181.214 10.2642 178.903 15.0897L53.0365 277.973C50.7317 282.8 50.1972 288.474 51.5502 293.75C52.9033 299.027 56.0335 303.475 60.2541 306.119L358.512 492.436Z" fill="#F2F2F2"/>
<path d="M373.346 407.34C369.914 407.337 366.538 406.35 363.528 404.468L122.395 253.835C120.049 252.373 117.979 250.397 116.302 248.019C114.625 245.642 113.376 242.91 112.624 239.98C111.873 237.051 111.635 233.98 111.924 230.946C112.212 227.911 113.022 224.97 114.307 222.293L189.478 65.2912C190.76 62.6133 192.491 60.25 194.573 58.3363C196.654 56.4227 199.046 54.9961 201.61 54.1382C204.174 53.2802 206.861 53.0077 209.518 53.3361C212.175 53.6645 214.748 54.5874 217.093 56.0521L458.226 206.684C460.57 208.149 462.639 210.126 464.314 212.504C465.99 214.881 467.238 217.613 467.99 220.542C468.741 223.471 468.979 226.54 468.692 229.574C468.404 232.609 467.596 235.549 466.314 238.226L391.143 395.229C389.405 398.889 386.834 401.947 383.702 404.078C380.57 406.21 376.992 407.337 373.346 407.34Z" fill="#F2F2F2"/>
<path d="M365.857 499.212H25.9093C20.5149 499.205 15.3431 496.754 11.5287 492.397C7.71425 488.04 5.56862 482.133 5.5625 475.971V176.342C5.56862 170.181 7.71425 164.273 11.5287 159.916C15.3431 155.559 20.5149 153.109 25.9093 153.102H365.857C371.252 153.109 376.423 155.559 380.238 159.916C384.052 164.273 386.198 170.181 386.204 176.342V475.971C386.198 482.133 384.052 488.04 380.238 492.397C376.423 496.754 371.252 499.205 365.857 499.212Z" fill="white"/>
<path d="M365.86 501.001H25.9119C20.1025 500.993 14.5329 498.354 10.4251 493.662C6.31721 488.969 4.00654 482.608 4 475.972V176.343C4.00654 169.707 6.31721 163.346 10.4251 158.653C14.5329 153.961 20.1025 151.322 25.9119 151.314H365.86C371.669 151.322 377.239 153.961 381.347 158.653C385.454 163.346 387.765 169.707 387.772 176.343V475.972C387.765 482.608 385.454 488.969 381.347 493.662C377.239 498.354 371.669 500.993 365.86 501.001ZM25.9119 155.605C21.0984 155.611 16.4836 157.798 13.08 161.686C9.67632 165.574 7.76176 170.845 7.75633 176.343V475.972C7.76176 481.47 9.67632 486.741 13.08 490.629C16.4836 494.517 21.0984 496.704 25.9119 496.71H365.86C370.673 496.704 375.288 494.517 378.692 490.629C382.095 486.741 384.01 481.47 384.015 475.972V176.343C384.01 170.845 382.095 165.574 378.692 161.686C375.288 157.798 370.673 155.611 365.86 155.605H25.9119Z" fill="#E6E6E6"/>
<path d="M248.793 251.635C244.843 251.631 240.947 252.675 237.411 254.684C233.875 256.692 230.795 259.611 228.414 263.209C225.858 261.953 223.069 261.441 220.298 261.72C217.526 261.999 214.858 263.06 212.534 264.807C210.21 266.554 208.302 268.934 206.981 271.731C205.661 274.529 204.969 277.657 204.969 280.835H274.357C274.357 277 273.696 273.203 272.411 269.661C271.126 266.118 269.243 262.899 266.869 260.187C264.495 257.476 261.677 255.325 258.576 253.857C255.474 252.39 252.15 251.635 248.793 251.635Z" fill="#E6E6E6"/>
<path d="M96.777 365.931C119.513 365.931 137.945 344.878 137.945 318.908C137.945 292.938 119.513 271.885 96.777 271.885C74.0408 271.885 55.6094 292.938 55.6094 318.908C55.6094 344.878 74.0408 365.931 96.777 365.931Z" fill="#DDB771"/>
<path d="M337.914 415.817C336.404 416.223 334.857 416.427 333.306 416.424H58.4679C55.083 416.431 51.7523 415.454 48.7891 413.586L49.5215 412.384L80.1857 361.948L125.625 287.227L126.288 286.132L133.438 274.376C133.918 273.585 134.559 272.939 135.306 272.492C136.053 272.046 136.883 271.812 137.726 271.812C138.569 271.812 139.4 272.046 140.147 272.492C140.893 272.939 141.535 273.585 142.015 274.376L165.767 313.428V313.435L179.741 336.419L213.097 391.267L263.688 308.78C264.17 307.993 264.811 307.351 265.557 306.907C266.302 306.464 267.13 306.232 267.971 306.232C268.811 306.232 269.639 306.464 270.385 306.907C271.13 307.351 271.771 307.993 272.253 308.78L304.708 361.69L306.573 364.73L337.914 415.817Z" fill="#073B3A"/>
<path d="M194.155 300.391C189.282 300.387 184.475 301.674 180.112 304.152C175.749 306.63 171.95 310.231 169.012 314.671C165.859 313.121 162.418 312.49 158.998 312.834C155.579 313.178 152.287 314.486 149.42 316.642C146.552 318.798 144.198 321.733 142.569 325.185C140.94 328.636 140.087 332.496 140.086 336.417H225.695C225.695 331.686 224.879 327.001 223.294 322.63C221.709 318.259 219.385 314.288 216.457 310.942C213.528 307.597 210.051 304.943 206.224 303.133C202.398 301.322 198.296 300.391 194.155 300.391Z" fill="#CCCCCC"/>
<path d="M333.303 417.141H58.4645C55.7507 417.143 53.0631 416.535 50.5554 415.35C48.0477 414.165 45.7692 412.427 43.8503 410.235C41.9314 408.043 40.4097 405.441 39.3723 402.576C38.3349 399.712 37.8022 396.642 37.8047 393.542V214.595C37.8109 208.338 39.9895 202.34 43.8626 197.916C47.7358 193.492 52.9871 191.003 58.4645 190.996H333.303C338.78 191.003 344.031 193.492 347.904 197.916C351.778 202.34 353.956 208.338 353.962 214.595V393.542C353.966 396.642 353.433 399.712 352.396 402.577C351.359 405.442 349.837 408.045 347.918 410.237C345.999 412.429 343.72 414.167 341.212 415.351C338.704 416.536 336.017 417.144 333.303 417.141ZM58.4645 192.426C53.3191 192.433 48.386 194.771 44.7476 198.927C41.1092 203.083 39.0626 208.717 39.0568 214.595V393.542C39.0544 396.454 39.5547 399.338 40.5292 402.029C41.5037 404.72 42.9332 407.164 44.7358 409.224C46.5385 411.283 48.6789 412.915 51.0347 414.028C53.3904 415.142 55.9152 415.713 58.4645 415.71H333.303C335.852 415.714 338.377 415.143 340.733 414.03C343.089 412.917 345.23 411.284 347.033 409.225C348.835 407.166 350.265 404.721 351.239 402.03C352.213 399.338 352.713 396.454 352.71 393.542V214.595C352.704 208.717 350.658 203.083 347.019 198.927C343.381 194.771 338.448 192.433 333.303 192.426H58.4645Z" fill="#073B3A"/>
</g>
<defs>
<filter id="filter0_d_5665_85994" x="0" y="0" width="519" height="509" filterUnits="userSpaceOnUse" color-interpolation-filters="sRGB">
<feFlood flood-opacity="0" result="BackgroundImageFix"/>
<feColorMatrix in="SourceAlpha" type="matrix" values="0 0 0 0 0 0 0 0 0 0 0 0 0 0 0 0 0 0 127 0" result="hardAlpha"/>
<feOffset dy="4"/>
<feGaussianBlur stdDeviation="2"/>
<feComposite in2="hardAlpha" operator="out"/>
<feColorMatrix type="matrix" values="0 0 0 0 0 0 0 0 0 0 0 0 0 0 0 0 0 0 0.25 0"/>
<feBlend mode="normal" in2="BackgroundImageFix" result="effect1_dropShadow_5665_85994"/>
<feBlend mode="normal" in="SourceGraphic" in2="effect1_dropShadow_5665_85994" result="shape"/>
</filter>
<clipPath id="clip0_5665_85994">
<rect width="511" height="501" fill="white" transform="translate(4)"/>
</clipPath>
</defs>
</svg>
