<svg width="511" height="539" viewBox="0 0 511 539" fill="none" xmlns="http://www.w3.org/2000/svg">
<g clipPath="url(#clip0_5650_71771)">
<path d="M511.002 422.808C511.013 425.193 510.205 427.484 508.755 429.179C507.306 430.874 505.334 431.833 503.273 431.845H163.221C162.201 431.839 161.192 431.601 160.251 431.143C159.31 430.686 158.457 430.018 157.739 429.179C157.022 428.34 156.454 427.346 156.068 426.252C155.683 425.159 155.487 423.989 155.492 422.809V154.037C155.482 151.653 156.29 149.361 157.739 147.666C159.189 145.972 161.16 145.012 163.221 145H503.273C504.293 145.006 505.303 145.245 506.243 145.702C507.184 146.16 508.037 146.827 508.755 147.666C509.473 148.505 510.041 149.5 510.426 150.593C510.812 151.686 511.007 152.856 511.002 154.037V422.808Z" fill="#E6E6E6"/>
<path d="M506.989 418.408C506.989 420.726 506.193 422.948 504.777 424.587C503.36 426.226 501.44 427.146 499.437 427.146H167.286C165.283 427.146 163.362 426.226 161.946 424.587C160.53 422.948 159.734 420.726 159.734 418.408V158.562C159.734 156.245 160.53 154.022 161.946 152.384C163.362 150.745 165.283 149.824 167.286 149.824H499.452C501.452 149.829 503.369 150.752 504.782 152.39C506.195 154.028 506.989 156.248 506.989 158.562V418.408Z" fill="white"/>
<path d="M177.49 161.105H489.594C490.783 161.105 491.923 161.652 492.764 162.625C493.605 163.597 494.077 164.916 494.077 166.292V409.67C494.077 411.045 493.605 412.364 492.764 413.337C491.923 414.31 490.783 414.856 489.594 414.856H177.49C176.301 414.856 175.161 414.31 174.321 413.337C173.48 412.364 173.008 411.045 173.008 409.67V166.292C173.008 164.916 173.48 163.597 174.321 162.625C175.161 161.652 176.301 161.105 177.49 161.105Z" fill="#E6E6E6"/>
<path d="M181.435 166.941H485.299C486.488 166.941 487.628 167.488 488.469 168.461C489.309 169.433 489.782 170.752 489.782 172.128V402.519C489.782 403.894 489.309 405.213 488.469 406.186C487.628 407.159 486.488 407.705 485.299 407.705H181.435C180.247 407.705 179.107 407.159 178.266 406.186C177.425 405.213 176.953 403.894 176.953 402.519V172.128C176.953 170.752 177.425 169.433 178.266 168.461C179.107 167.488 180.247 166.941 181.435 166.941Z" fill="white"/>
<path d="M395.982 326.989C394.786 326.988 393.604 326.696 392.511 326.133C392.257 326.002 392.015 325.843 391.788 325.657L369.704 307.67C368.584 306.758 367.67 305.548 367.039 304.141C366.408 302.734 366.078 301.173 366.078 299.588V275.058C366.078 273.473 366.408 271.911 367.039 270.505C367.67 269.098 368.584 267.888 369.704 266.976L391.788 248.989C392.015 248.803 392.257 248.643 392.511 248.513C393.812 247.844 395.237 247.561 396.656 247.691C398.075 247.821 399.444 248.359 400.637 249.257C401.831 250.154 402.812 251.382 403.491 252.83C404.17 254.278 404.526 255.899 404.526 257.546V317.099C404.526 319.721 403.626 322.236 402.024 324.09C400.421 325.944 398.248 326.986 395.982 326.986L395.982 326.989Z" fill="#3F3D56"/>
<path d="M346.565 331.813H284.973C272.407 331.801 262.224 322.402 262.211 310.805V263.844C262.224 252.247 272.407 242.848 284.973 242.836H346.726C359.202 242.85 369.313 252.181 369.328 263.696V310.805C369.315 322.402 359.131 331.801 346.565 331.813Z" fill="#3F3D56"/>
<path d="M456.279 392.89C466.396 392.89 474.597 383.4 474.597 371.694C474.597 359.988 466.396 350.498 456.279 350.498C446.162 350.498 437.961 359.988 437.961 371.694C437.961 383.4 446.162 392.89 456.279 392.89Z" fill="#E6E6E6"/>
<path d="M465.795 371.315L451.194 361.561C451.136 361.522 451.071 361.502 451.004 361.502C450.938 361.502 450.872 361.522 450.815 361.561C450.757 361.599 450.709 361.655 450.676 361.721C450.643 361.788 450.625 361.864 450.625 361.941V381.45C450.625 381.527 450.643 381.603 450.676 381.669C450.709 381.736 450.757 381.791 450.815 381.83C450.872 381.868 450.938 381.889 451.004 381.889C451.071 381.889 451.136 381.868 451.194 381.83L465.795 372.075C465.853 372.037 465.901 371.981 465.934 371.915C465.967 371.848 465.985 371.772 465.985 371.695C465.985 371.618 465.967 371.543 465.934 371.476C465.901 371.409 465.853 371.354 465.795 371.315L451.194 361.561C451.136 361.522 451.071 361.502 451.004 361.502C450.938 361.502 450.872 361.522 450.815 361.561C450.757 361.599 450.709 361.655 450.676 361.721C450.643 361.788 450.625 361.864 450.625 361.941V381.45C450.625 381.527 450.643 381.603 450.676 381.669C450.709 381.736 450.757 381.791 450.815 381.83C450.872 381.868 450.938 381.889 451.004 381.889C451.071 381.889 451.136 381.868 451.194 381.83L465.795 372.075C465.853 372.037 465.901 371.981 465.934 371.915C465.967 371.848 465.985 371.772 465.985 371.695C465.985 371.618 465.967 371.543 465.934 371.476C465.901 371.409 465.853 371.354 465.795 371.315Z" fill="white"/>
<path d="M432.494 455.041C432.505 457.425 431.697 459.717 430.247 461.411C428.798 463.106 426.826 464.065 424.766 464.078H84.7134C83.6931 464.072 82.6839 463.833 81.7433 463.376C80.8027 462.918 79.9492 462.251 79.2315 461.412C78.5138 460.572 77.946 459.578 77.5604 458.485C77.1749 457.392 76.9792 456.222 76.9845 455.041V186.269C76.9737 183.885 77.7819 181.594 79.2313 179.899C80.6807 178.204 82.6526 177.245 84.7132 177.232H424.765C425.786 177.239 426.795 177.477 427.735 177.935C428.676 178.392 429.53 179.059 430.247 179.899C430.965 180.738 431.533 181.732 431.918 182.825C432.304 183.918 432.5 185.089 432.494 186.269V455.041Z" fill="#E6E6E6"/>
<path d="M428.481 450.64C428.481 452.958 427.685 455.181 426.269 456.819C424.853 458.458 422.932 459.379 420.929 459.379H88.7782C86.7754 459.379 84.8546 458.458 83.4384 456.819C82.0222 455.181 81.2266 452.958 81.2266 450.64V190.795C81.2266 188.477 82.0222 186.255 83.4384 184.616C84.8546 182.977 86.7754 182.057 88.7782 182.057H420.944C422.944 182.061 424.861 182.984 426.274 184.622C427.687 186.26 428.481 188.48 428.481 190.795V450.64Z" fill="white"/>
<path d="M98.9824 193.338H411.087C412.275 193.338 413.416 193.884 414.256 194.857C415.097 195.83 415.569 197.149 415.569 198.524V441.902C415.569 443.278 415.097 444.597 414.256 445.57C413.416 446.542 412.275 447.089 411.087 447.089H98.9824C97.7936 447.089 96.6535 446.542 95.8129 445.57C94.9722 444.597 94.5 443.278 94.5 441.902V198.524C94.5 197.149 94.9722 195.83 95.8129 194.857C96.6535 193.884 97.7936 193.338 98.9824 193.338Z" fill="#E6E6E6"/>
<path d="M102.935 199.176H406.799C407.988 199.176 409.128 199.722 409.969 200.695C410.809 201.668 411.282 202.987 411.282 204.362V434.753C411.282 436.128 410.809 437.448 409.969 438.42C409.128 439.393 407.988 439.939 406.799 439.939H102.935C101.747 439.939 100.607 439.393 99.766 438.42C98.9254 437.448 98.4531 436.128 98.4531 434.753V204.362C98.4531 202.987 98.9254 201.668 99.766 200.695C100.607 199.722 101.747 199.176 102.935 199.176Z" fill="white"/>
<path d="M317.482 359.223C316.286 359.222 315.104 358.931 314.011 358.367C313.757 358.237 313.515 358.077 313.288 357.892L291.204 339.905C290.084 338.992 289.17 337.782 288.539 336.375C287.908 334.969 287.578 333.407 287.578 331.823V307.292C287.578 305.707 287.908 304.146 288.539 302.739C289.17 301.333 290.084 300.122 291.204 299.21L313.288 281.223C313.515 281.037 313.757 280.878 314.011 280.747C315.312 280.078 316.737 279.795 318.156 279.925C319.575 280.055 320.944 280.593 322.137 281.491C323.331 282.388 324.312 283.617 324.991 285.065C325.67 286.512 326.026 288.134 326.026 289.781V349.334C326.026 351.956 325.126 354.47 323.524 356.324C321.921 358.179 319.748 359.22 317.482 359.22L317.482 359.223Z" fill="#3F3D56"/>
<path d="M268.058 364.046H206.465C193.9 364.034 183.716 354.635 183.703 343.037V296.077C183.716 284.479 193.9 275.08 206.465 275.068H268.218C280.695 275.082 290.805 284.413 290.82 295.929V343.037C290.807 354.635 280.624 364.034 268.058 364.046Z" fill="#3F3D56"/>
<path d="M377.771 425.125C387.888 425.125 396.089 415.635 396.089 403.929C396.089 392.222 387.888 382.732 377.771 382.732C367.654 382.732 359.453 392.222 359.453 403.929C359.453 415.635 367.654 425.125 377.771 425.125Z" fill="#E6E6E6"/>
<path d="M387.287 403.548L372.686 393.793C372.628 393.755 372.563 393.734 372.496 393.734C372.43 393.734 372.364 393.755 372.307 393.793C372.249 393.832 372.201 393.887 372.168 393.954C372.135 394.02 372.117 394.096 372.117 394.173V413.682C372.117 413.759 372.135 413.835 372.168 413.902C372.201 413.968 372.249 414.024 372.307 414.062C372.364 414.101 372.43 414.121 372.496 414.121C372.563 414.121 372.628 414.101 372.686 414.062L387.287 404.308C387.345 404.269 387.393 404.214 387.426 404.147C387.459 404.08 387.477 404.005 387.477 403.928C387.477 403.851 387.459 403.775 387.426 403.708C387.393 403.642 387.345 403.586 387.287 403.548L372.686 393.793C372.628 393.755 372.563 393.734 372.496 393.734C372.43 393.734 372.364 393.755 372.307 393.793C372.249 393.832 372.201 393.887 372.168 393.954C372.135 394.02 372.117 394.096 372.117 394.173V413.682C372.117 413.759 372.135 413.835 372.168 413.902C372.201 413.968 372.249 414.024 372.307 414.062C372.364 414.101 372.43 414.121 372.496 414.121C372.563 414.121 372.628 414.101 372.686 414.062L387.287 404.308C387.345 404.269 387.393 404.214 387.426 404.147C387.459 404.08 387.477 404.005 387.477 403.928C387.477 403.851 387.459 403.775 387.426 403.708C387.393 403.642 387.345 403.586 387.287 403.548Z" fill="white"/>
<path d="M355.51 491.963C355.521 494.347 354.712 496.639 353.263 498.333C351.814 500.028 349.842 500.987 347.781 501H7.72902C6.70874 500.993 5.69949 500.755 4.7589 500.297C3.81831 499.84 2.9648 499.173 2.24711 498.333C1.52941 497.494 0.96158 496.5 0.576039 495.407C0.190498 494.314 -0.00520315 493.143 0.000106359 491.963V223.191C-0.010668 220.807 0.797548 218.515 2.24696 216.821C3.69637 215.126 5.66825 214.167 7.7288 214.154H347.781C348.801 214.16 349.811 214.399 350.751 214.857C351.692 215.314 352.545 215.981 353.263 216.82C353.981 217.66 354.548 218.654 354.934 219.747C355.32 220.84 355.515 222.01 355.51 223.191V491.963Z" fill="#E6E6E6"/>
<path d="M351.496 487.562C351.496 489.88 350.701 492.102 349.285 493.741C347.868 495.38 345.948 496.3 343.945 496.3H11.7938C9.79101 496.3 7.87022 495.38 6.45402 493.741C5.03781 492.102 4.24219 489.88 4.24219 487.562V227.717C4.24219 225.399 5.03781 223.177 6.45402 221.538C7.87022 219.899 9.79101 218.979 11.7938 218.979H343.96C345.96 218.983 347.877 219.906 349.29 221.544C350.703 223.182 351.496 225.402 351.496 227.717V487.562Z" fill="white"/>
<path d="M21.998 230.26H334.102C335.291 230.26 336.431 230.806 337.272 231.779C338.112 232.752 338.585 234.071 338.585 235.446V478.824C338.585 480.199 338.112 481.519 337.272 482.491C336.431 483.464 335.291 484.01 334.102 484.01H21.998C20.8092 484.01 19.6691 483.464 18.8285 482.491C17.9879 481.519 17.5156 480.199 17.5156 478.824V235.446C17.5156 234.071 17.9879 232.752 18.8285 231.779C19.6691 230.806 20.8092 230.26 21.998 230.26Z" fill="#E6E6E6"/>
<path d="M25.9433 236.096H329.807C330.396 236.096 330.979 236.23 331.522 236.491C332.066 236.751 332.56 237.133 332.977 237.615C333.393 238.096 333.723 238.668 333.948 239.297C334.174 239.927 334.289 240.601 334.289 241.282V471.673C334.289 472.354 334.174 473.028 333.948 473.658C333.723 474.287 333.393 474.859 332.977 475.34C332.56 475.822 332.066 476.204 331.522 476.465C330.979 476.725 330.396 476.859 329.807 476.859H25.9433C24.7545 476.859 23.6144 476.313 22.7738 475.34C21.9332 474.368 21.4609 473.048 21.4609 471.673V241.282C21.4609 239.907 21.9332 238.587 22.7738 237.615C23.6144 236.642 24.7545 236.096 25.9433 236.096Z" fill="white"/>
<path d="M240.498 396.145C239.302 396.144 238.119 395.853 237.027 395.289C236.773 395.159 236.53 394.999 236.303 394.814L214.22 376.826C213.1 375.914 212.186 374.704 211.555 373.297C210.924 371.891 210.594 370.329 210.594 368.744V344.214C210.594 342.629 210.924 341.068 211.555 339.661C212.186 338.254 213.1 337.044 214.22 336.132L236.303 318.145C236.53 317.959 236.773 317.8 237.027 317.669C238.328 317 239.752 316.717 241.171 316.847C242.591 316.977 243.959 317.515 245.153 318.413C246.347 319.31 247.328 320.539 248.007 321.986C248.686 323.434 249.042 325.055 249.042 326.703V386.256C249.042 388.878 248.142 391.392 246.539 393.246C244.937 395.1 242.764 396.142 240.498 396.142L240.498 396.145Z" fill="#45808B"/>
<path d="M191.073 400.967H129.481C116.915 400.956 106.732 391.557 106.719 379.959V332.999C106.732 321.401 116.915 312.002 129.481 311.99H191.234C203.71 312.004 213.821 321.335 213.836 332.85V379.959C213.823 391.557 203.639 400.956 191.073 400.967Z" fill="#45808B"/>
<path d="M300.787 462.045C310.904 462.045 319.105 452.555 319.105 440.848C319.105 429.142 310.904 419.652 300.787 419.652C290.67 419.652 282.469 429.142 282.469 440.848C282.469 452.555 290.67 462.045 300.787 462.045Z" fill="#3F3D56"/>
<path d="M310.303 440.47L295.702 430.715C295.644 430.677 295.579 430.656 295.512 430.656C295.445 430.656 295.38 430.677 295.322 430.715C295.265 430.754 295.217 430.809 295.184 430.876C295.15 430.942 295.133 431.018 295.133 431.095V450.604C295.133 450.681 295.15 450.757 295.184 450.824C295.217 450.89 295.265 450.946 295.322 450.984C295.38 451.023 295.445 451.043 295.512 451.043C295.579 451.043 295.644 451.023 295.702 450.984L310.303 441.23C310.361 441.191 310.409 441.136 310.442 441.069C310.475 441.002 310.493 440.927 310.493 440.85C310.493 440.773 310.475 440.697 310.442 440.63C310.409 440.564 310.361 440.508 310.303 440.47L295.702 430.715C295.644 430.677 295.579 430.656 295.512 430.656C295.445 430.656 295.38 430.677 295.322 430.715C295.265 430.754 295.217 430.809 295.184 430.876C295.15 430.942 295.133 431.018 295.133 431.095V450.604C295.133 450.681 295.15 450.757 295.184 450.824C295.217 450.89 295.265 450.946 295.322 450.984C295.38 451.023 295.445 451.043 295.512 451.043C295.579 451.043 295.644 451.023 295.702 450.984L310.303 441.23C310.361 441.191 310.409 441.136 310.442 441.069C310.475 441.002 310.493 440.927 310.493 440.85C310.493 440.773 310.475 440.697 310.442 440.63C310.409 440.564 310.361 440.508 310.303 440.47Z" fill="white"/>
</g>
<path d="M404.391 518.723L399.264 533H397.594L392.467 518.723H394.205L397.545 528.127C397.682 528.505 397.802 528.866 397.906 529.211C398.017 529.556 398.115 529.888 398.199 530.207C398.284 530.526 398.359 530.835 398.424 531.135C398.489 530.835 398.564 530.526 398.648 530.207C398.733 529.882 398.831 529.546 398.941 529.201C399.052 528.85 399.176 528.482 399.312 528.098L402.633 518.723H404.391ZM407.73 522.297V533H406.109V522.297H407.73ZM406.939 518.293C407.206 518.293 407.434 518.381 407.623 518.557C407.818 518.726 407.916 518.993 407.916 519.357C407.916 519.715 407.818 519.982 407.623 520.158C407.434 520.334 407.206 520.422 406.939 520.422C406.66 520.422 406.425 520.334 406.236 520.158C406.054 519.982 405.963 519.715 405.963 519.357C405.963 518.993 406.054 518.726 406.236 518.557C406.425 518.381 406.66 518.293 406.939 518.293ZM415.289 522.102C416.201 522.102 416.982 522.303 417.633 522.707C418.284 523.111 418.782 523.677 419.127 524.406C419.472 525.129 419.645 525.975 419.645 526.945V527.951H412.252C412.271 529.208 412.584 530.165 413.189 530.822C413.795 531.48 414.648 531.809 415.748 531.809C416.425 531.809 417.024 531.747 417.545 531.623C418.066 531.499 418.606 531.317 419.166 531.076V532.502C418.626 532.743 418.089 532.919 417.555 533.029C417.027 533.14 416.402 533.195 415.68 533.195C414.651 533.195 413.753 532.987 412.984 532.57C412.223 532.147 411.63 531.529 411.207 530.715C410.784 529.901 410.572 528.905 410.572 527.727C410.572 526.574 410.764 525.578 411.148 524.738C411.539 523.892 412.086 523.241 412.789 522.785C413.499 522.329 414.332 522.102 415.289 522.102ZM415.27 523.43C414.404 523.43 413.714 523.713 413.199 524.279C412.685 524.846 412.379 525.637 412.281 526.652H417.945C417.939 526.014 417.838 525.454 417.643 524.973C417.454 524.484 417.164 524.107 416.773 523.84C416.383 523.566 415.882 523.43 415.27 523.43ZM431.109 532.98L429.205 526.75C429.12 526.483 429.039 526.223 428.961 525.969C428.889 525.708 428.821 525.461 428.756 525.227C428.697 524.986 428.642 524.764 428.59 524.562C428.544 524.354 428.505 524.175 428.473 524.025H428.404C428.378 524.175 428.342 524.354 428.297 524.562C428.251 524.764 428.196 524.986 428.131 525.227C428.072 525.467 428.007 525.721 427.936 525.988C427.864 526.249 427.783 526.512 427.691 526.779L425.699 532.98H423.873L420.924 522.277H422.604L424.146 528.186C424.251 528.576 424.348 528.964 424.439 529.348C424.537 529.725 424.618 530.083 424.684 530.422C424.755 530.754 424.807 531.044 424.84 531.291H424.918C424.957 531.128 424.999 530.933 425.045 530.705C425.097 530.477 425.152 530.236 425.211 529.982C425.276 529.722 425.344 529.465 425.416 529.211C425.488 528.951 425.559 528.706 425.631 528.479L427.604 522.277H429.352L431.256 528.469C431.354 528.781 431.448 529.107 431.539 529.445C431.637 529.784 431.725 530.113 431.803 530.432C431.881 530.744 431.936 531.024 431.969 531.271H432.047C432.073 531.05 432.122 530.777 432.193 530.451C432.265 530.126 432.346 529.768 432.438 529.377C432.535 528.986 432.636 528.589 432.74 528.186L434.303 522.277H435.953L432.994 532.98H431.109ZM451.402 529.201C451.402 530.048 451.191 530.77 450.768 531.369C450.351 531.962 449.765 532.414 449.01 532.727C448.255 533.039 447.366 533.195 446.344 533.195C445.803 533.195 445.292 533.169 444.811 533.117C444.329 533.065 443.886 532.99 443.482 532.893C443.079 532.795 442.724 532.674 442.418 532.531V530.939C442.906 531.141 443.502 531.33 444.205 531.506C444.908 531.675 445.644 531.76 446.412 531.76C447.128 531.76 447.734 531.665 448.229 531.477C448.723 531.281 449.098 531.005 449.352 530.646C449.612 530.282 449.742 529.846 449.742 529.338C449.742 528.85 449.635 528.443 449.42 528.117C449.205 527.785 448.847 527.486 448.346 527.219C447.851 526.945 447.174 526.656 446.314 526.35C445.709 526.135 445.175 525.9 444.713 525.646C444.251 525.386 443.863 525.093 443.551 524.768C443.238 524.442 443.001 524.064 442.838 523.635C442.682 523.205 442.604 522.714 442.604 522.16C442.604 521.398 442.796 520.747 443.18 520.207C443.57 519.66 444.107 519.243 444.791 518.957C445.481 518.664 446.272 518.518 447.164 518.518C447.926 518.518 448.629 518.589 449.273 518.732C449.924 518.876 450.52 519.068 451.061 519.309L450.543 520.734C450.029 520.52 449.482 520.34 448.902 520.197C448.329 520.054 447.737 519.982 447.125 519.982C446.513 519.982 445.995 520.074 445.572 520.256C445.156 520.432 444.837 520.682 444.615 521.008C444.394 521.333 444.283 521.721 444.283 522.17C444.283 522.671 444.387 523.088 444.596 523.42C444.811 523.752 445.149 524.048 445.611 524.309C446.08 524.562 446.699 524.829 447.467 525.109C448.307 525.415 449.02 525.741 449.605 526.086C450.191 526.424 450.637 526.841 450.943 527.336C451.249 527.824 451.402 528.446 451.402 529.201ZM458.082 522.121C459.358 522.121 460.305 522.408 460.924 522.98C461.542 523.553 461.852 524.468 461.852 525.725V533H460.67L460.357 531.418H460.279C459.98 531.809 459.667 532.137 459.342 532.404C459.016 532.665 458.639 532.863 458.209 533C457.786 533.13 457.265 533.195 456.646 533.195C455.995 533.195 455.416 533.081 454.908 532.854C454.407 532.626 454.01 532.281 453.717 531.818C453.43 531.356 453.287 530.77 453.287 530.061C453.287 528.993 453.71 528.173 454.557 527.6C455.403 527.027 456.692 526.714 458.424 526.662L460.27 526.584V525.93C460.27 525.005 460.071 524.357 459.674 523.986C459.277 523.615 458.717 523.43 457.994 523.43C457.434 523.43 456.9 523.511 456.393 523.674C455.885 523.837 455.403 524.029 454.947 524.25L454.449 523.02C454.931 522.772 455.484 522.561 456.109 522.385C456.734 522.209 457.392 522.121 458.082 522.121ZM460.25 527.727L458.619 527.795C457.285 527.847 456.344 528.065 455.797 528.449C455.25 528.833 454.977 529.377 454.977 530.08C454.977 530.692 455.162 531.145 455.533 531.438C455.904 531.73 456.396 531.877 457.008 531.877C457.958 531.877 458.736 531.613 459.342 531.086C459.947 530.559 460.25 529.768 460.25 528.713V527.727ZM476.812 522.102C477.991 522.102 478.88 522.411 479.479 523.029C480.077 523.641 480.377 524.628 480.377 525.988V533H478.775V526.066C478.775 525.201 478.587 524.553 478.209 524.123C477.838 523.687 477.285 523.469 476.549 523.469C475.514 523.469 474.762 523.768 474.293 524.367C473.824 524.966 473.59 525.848 473.59 527.014V533H471.979V526.066C471.979 525.487 471.894 525.005 471.725 524.621C471.562 524.237 471.314 523.951 470.982 523.762C470.657 523.566 470.243 523.469 469.742 523.469C469.033 523.469 468.463 523.615 468.033 523.908C467.604 524.201 467.291 524.637 467.096 525.217C466.907 525.79 466.812 526.496 466.812 527.336V533H465.191V522.297H466.5L466.744 523.811H466.832C467.047 523.439 467.317 523.127 467.643 522.873C467.968 522.619 468.333 522.427 468.736 522.297C469.14 522.167 469.57 522.102 470.025 522.102C470.839 522.102 471.52 522.255 472.066 522.561C472.62 522.86 473.02 523.319 473.268 523.938H473.355C473.707 523.319 474.189 522.86 474.801 522.561C475.413 522.255 476.083 522.102 476.812 522.102ZM488.736 522.102C490.071 522.102 491.135 522.561 491.93 523.479C492.724 524.396 493.121 525.777 493.121 527.619C493.121 528.837 492.939 529.859 492.574 530.686C492.21 531.512 491.695 532.137 491.031 532.561C490.374 532.984 489.596 533.195 488.697 533.195C488.131 533.195 487.633 533.12 487.203 532.971C486.773 532.821 486.406 532.619 486.1 532.365C485.794 532.111 485.54 531.835 485.338 531.535H485.221C485.24 531.789 485.263 532.095 485.289 532.453C485.322 532.811 485.338 533.124 485.338 533.391V537.785H483.707V522.297H485.045L485.26 523.879H485.338C485.546 523.553 485.8 523.257 486.1 522.99C486.399 522.717 486.764 522.502 487.193 522.346C487.63 522.183 488.144 522.102 488.736 522.102ZM488.453 523.469C487.711 523.469 487.112 523.612 486.656 523.898C486.207 524.185 485.878 524.615 485.67 525.188C485.462 525.754 485.351 526.467 485.338 527.326V527.639C485.338 528.544 485.436 529.309 485.631 529.934C485.833 530.559 486.161 531.034 486.617 531.359C487.079 531.685 487.698 531.848 488.473 531.848C489.137 531.848 489.69 531.669 490.133 531.311C490.576 530.952 490.904 530.454 491.119 529.816C491.34 529.172 491.451 528.433 491.451 527.6C491.451 526.337 491.204 525.334 490.709 524.592C490.221 523.843 489.469 523.469 488.453 523.469ZM497.584 533H495.953V517.805H497.584V533ZM505.133 522.102C506.044 522.102 506.826 522.303 507.477 522.707C508.128 523.111 508.626 523.677 508.971 524.406C509.316 525.129 509.488 525.975 509.488 526.945V527.951H502.096C502.115 529.208 502.428 530.165 503.033 530.822C503.639 531.48 504.492 531.809 505.592 531.809C506.269 531.809 506.868 531.747 507.389 531.623C507.91 531.499 508.45 531.317 509.01 531.076V532.502C508.469 532.743 507.932 532.919 507.398 533.029C506.871 533.14 506.246 533.195 505.523 533.195C504.495 533.195 503.596 532.987 502.828 532.57C502.066 532.147 501.474 531.529 501.051 530.715C500.628 529.901 500.416 528.905 500.416 527.727C500.416 526.574 500.608 525.578 500.992 524.738C501.383 523.892 501.93 523.241 502.633 522.785C503.342 522.329 504.176 522.102 505.133 522.102ZM505.113 523.43C504.247 523.43 503.557 523.713 503.043 524.279C502.529 524.846 502.223 525.637 502.125 526.652H507.789C507.783 526.014 507.682 525.454 507.486 524.973C507.298 524.484 507.008 524.107 506.617 523.84C506.227 523.566 505.725 523.43 505.113 523.43Z" fill="black"/>
<path d="M392.467 534.221H510.533V534.709H392.467V534.221Z" fill="black"/>
<defs>
<clipPath id="clip0_5650_71771">
<rect width="511" height="356" fill="white" transform="translate(0 145)"/>
</clipPath>
</defs>
</svg>
